<svg width="31" height="20" viewBox="0 0 31 20" version="1.1" xmlns="http://www.w3.org/2000/svg" xmlns:xlink="http://www.w3.org/1999/xlink">
<title>Group 6</title>
<desc>Created using Figma</desc>
<g id="Canvas" transform="translate(25207 18193)">
<g id="Group 6">
<g id="Vector 2">
<use xlink:href="#path0_stroke" transform="translate(-25206 -18192)" fill="#FFFFFF"/>
</g>
<g id="Vector 3">
<use xlink:href="#path1_stroke" transform="translate(-25201 -18184)" fill="#FFFFFF"/>
</g>
<g id="Vector 3.1">
<use xlink:href="#path1_stroke" transform="translate(-25201 -18181)" fill="#FFFFFF"/>
</g>
<g id="Vector 3.2">
<use xlink:href="#path1_stroke" transform="translate(-25201 -18178)" fill="#FFFFFF"/>
</g>
</g>
</g>
<defs>
<path id="path0_stroke" d="M 29 0L 30 0L 30 -1L 29 -1L 29 0ZM 0 0L 0 -1L -1 -1L -1 0L 0 0ZM 30 19L 30 0L 28 0L 28 19L 30 19ZM 29 -1L 0 -1L 0 1L 29 1L 29 -1ZM -1 0L -1 19L 1 19L 1 0L -1 0Z"/>
<path id="path1_stroke" d="M 0 0.5L 19 0.5L 19 -0.5L 0 -0.5L 0 0.5Z"/>
</defs>
</svg>
