<svg width="30" height="30" viewBox="0 0 30 30" fill="none" xmlns="http://www.w3.org/2000/svg">
<path fill-rule="evenodd" clip-rule="evenodd" d="M15.4457 2.50124C15.1596 2.3861 14.8404 2.3861 14.5543 2.50124L3.15433 7.08952C2.69874 7.27288 2.4 7.71687 2.4 8.2106V26.3777C2.4 27.0445 2.93726 27.5851 3.6 27.5851H6V25.1702V23.9628V22.7554V20.3405V19.133V17.9256V16.7181C6 14.7176 7.61178 13.0958 9.6 13.0958H20.4C22.3882 13.0958 24 14.7176 24 16.7181V17.9256V19.133V20.3405V22.7554V23.9628V25.1702V27.5851H26.4C27.0627 27.5851 27.6 27.0445 27.6 26.3777V8.2106C27.6 7.71687 27.3013 7.27288 26.8457 7.08952L15.4457 2.50124ZM24 30H22.8H7.2H6L3.6 30C1.61177 30 0 28.3782 0 26.3777V8.2106C0 6.72941 0.896224 5.39745 2.26299 4.84736L13.663 0.259081C14.5213 -0.0863595 15.4787 -0.0863609 16.337 0.25908L27.737 4.84736C29.1038 5.39745 30 6.72941 30 8.2106V26.3777C30 28.3782 28.3882 30 26.4 30L24 30ZM21.6 27.5851V25.1702H8.4V27.5851H21.6ZM21.6 22.7554V20.3405H8.4V22.7554H21.6ZM6 9.4735C6 8.80665 6.53726 8.26606 7.2 8.26606H22.8C23.4627 8.26606 24 8.80665 24 9.4735C24 10.1404 23.4627 10.6809 22.8 10.6809H7.2C6.53726 10.6809 6 10.1404 6 9.4735ZM21.6 17.9256H8.4V16.7181C8.4 16.0513 8.93726 15.5107 9.6 15.5107H20.4C21.0627 15.5107 21.6 16.0513 21.6 16.7181V17.9256Z" fill="#FF0000"/>
</svg>
