<svg width="24" height="23" viewBox="0 0 24 23" fill="none" xmlns="http://www.w3.org/2000/svg">
<path fill-rule="evenodd" clip-rule="evenodd" d="M7.65935 1.02271C7.3856 0.682103 6.89721 0.268453 6.2524 0.0888438C5.54767 -0.107455 4.72861 -0.000152993 3.95891 0.629863L2.02014 2.2168L0.330795 3.59957C-0.0512887 3.91231 -0.111148 4.4801 0.197094 4.86777C0.505337 5.25543 1.06496 5.31616 1.44704 5.00342L3.13638 3.62065L5.07516 2.03372C5.3939 1.77282 5.62098 1.78344 5.78175 1.82822C5.99638 1.88801 6.18974 2.0471 6.28336 2.16484L6.29017 2.1734L6.29718 2.18179L8.99572 5.41121H7.11109C6.73136 5.41121 6.39356 5.65597 6.27032 6.02039C6.14708 6.38482 6.26563 6.78843 6.56537 7.02498L14.2241 13.0687V21.1963H14.2119H14.1958H14.1797H14.1637H14.1477H14.1319H14.1161H14.1004H14.0848H14.0693H14.0539H14.0385H14.0232H14.008H13.9929H13.9778H13.9628H13.9479H13.9331H13.9184H13.9037H13.8891H13.8746H13.8602H13.8458H13.8315H13.8173H13.8031H13.7891H13.7751H13.7612H13.7473H13.7335H13.7198H13.7062H13.6926H13.6791H13.6657H13.6523H13.639H13.6258H13.6127H13.5996H13.5866H13.5736H13.5608H13.548H13.5352H13.5225H13.5099H13.4974H13.4849H13.4725H13.4601H13.4479H13.4356H13.4235H13.4114H13.3994H13.3874H13.3755H13.3636H13.3519H13.3401H13.3285H13.3169H13.3053H13.2938H13.2824H13.2711H13.2598H13.2485H13.2373H13.2262H13.2151H13.2041H13.1931H13.1822H13.1714H13.1606H13.1499H13.1392H13.1286H13.118H13.1075H13.097H13.0866H13.0762H13.0659H13.0557H13.0454H13.0353H13.0252H13.0151H13.0051H12.9952H12.9853H12.9754H12.9656H12.9559H12.9462H12.9365H12.9269H12.9173H12.9078H12.8983H12.8889H12.8795H12.8702H12.8609H12.8517H12.8424H12.8333H12.8242H12.8151H12.8061H12.7971H12.7881H12.7792H12.7704H12.7616H12.7528H12.7441H12.7354H12.7267H12.7181H12.7095H12.701H12.6925H12.684H12.6756H12.6672H12.6588H12.6505H12.6422H12.634H12.6258H12.6176H12.6095H12.6013H12.5933H12.5852H12.5772H12.5693H12.5613H12.5534H12.5455H12.5377H12.5299H12.5221H12.5144H12.5066H12.499H12.4913H12.4837H12.4761H12.4685H12.4609H12.4534H12.4459H12.4385H12.431H12.4236H12.4162H12.4089H12.4016H12.3942H12.387H12.3797H12.3725H12.3653H12.3581H12.3509H12.3438H12.3366H12.3295H12.3225H12.3154H12.3084H12.3014H12.2944H12.2874H12.2804H12.2735H12.2666H12.2597H12.2528H12.2459H12.2391H12.2322H12.2254H12.2186H12.2119H12.2051H12.1983H12.1916H12.1849H12.1782H12.1715H12.1648H12.1581H12.1515H12.1448H12.1382H12.1316H12.125H12.1184H12.1118H12.1052H12.0986H12.0921H12.0855H12.079H12.0725H12.0659H12.0594H12.0529H12.0464H12.0399H12.0334H12.0269H12.0205H12.014H12.0075H12.0011H11.9946H11.9882H11.9817H11.9753H11.9688H11.9624H11.9559H11.9495H11.9431H11.9366H11.9302H11.9238H11.9173H11.9109H11.9045H11.898H11.8916H11.8852H11.8787H11.8723H11.8658H11.8594H11.8529H11.8465H11.84H11.8335H11.8271H11.8206H11.8141H11.8076H11.8011H11.7946H11.7881H11.7816H11.7751H11.7686H11.762H11.7555H11.7489H11.7424H11.7358H11.7292H11.7226H11.716H11.7094H11.7027H11.6961H11.6894H11.6828H11.6761H11.6694H11.6627H11.656H11.6492H11.6425H11.6357H11.629H11.6222H11.6153H11.6085H11.6017H11.5948H11.5879H11.581H11.5741H11.5672H11.5602H11.5533H11.5463H11.5393H11.5322H11.5252H11.5181H11.511H11.5039H11.4967H11.4896H11.4824H11.4752H11.4679H11.4607H11.4534H11.4461H11.4388H11.4314H11.424H11.4166H11.4092H11.4018H11.3943H11.3868H11.3792H11.3716H11.364H11.3564H11.3488H11.3411H11.3334H11.3256H11.3178H11.31H11.3022H11.2943H11.2864H11.2785H11.2705H11.2625H11.2545H11.2464H11.2383H11.2302H11.222H11.2138H11.2056H11.1973H11.189H11.1807H11.1723H11.1639H11.1554H11.1469H11.1384H11.1298H11.1212H11.1125H11.1038H11.0951H11.0863H11.0775H11.0687H11.0598H11.0508H11.0418H11.0328H11.0238H11.0147H11.0055H10.9963H10.9871H10.9778H10.9685H10.9591H10.9497H10.9402H10.9307H10.9211H10.9115H10.9019H10.8922H10.8824H10.8726H10.8628H10.8529H10.8429H10.8329H10.8229H10.8128H10.8027H10.7925H10.7822H10.7719H10.7616H10.7512H10.7407H10.7302H10.7196H10.709H10.6983H10.6876H10.6768H10.666H10.6551H10.6441H10.6331H10.6221H10.6109H10.5998H10.5885H10.5772H10.5659H10.5545H10.543H10.5315H10.5199H10.5082H10.4965H10.4847H10.4729H10.461H10.449H10.437H10.4249H10.4128H10.4006H10.3883H10.3759H10.3635H10.3511H10.3385H10.3259H10.3133H10.3005H10.2877H10.2749H10.2619H10.2489H10.2359H10.2227H10.2095H10.1963H10.1829H10.1695H10.156H10.1425H10.1288H10.1151H10.1014H10.0875H10.0736H10.0596H10.0456H10.0314H10.0172H10.0029H9.98859H9.97416H9.95966H9.94508H9.93042H9.91569H9.90088H9.886H9.87104H9.856H9.84088H9.82568H9.81041H9.79505H9.77962C9.2887 21.1963 8.89073 21.6 8.89073 22.0981C8.89073 22.5962 9.2887 23 9.77962 23H9.79505H9.81041H9.82568H9.84088H9.856H9.87104H9.886H9.90088H9.91569H9.93042H9.94508H9.95966H9.97416H9.98859H10.0029H10.0172H10.0314H10.0456H10.0596H10.0736H10.0875H10.1014H10.1151H10.1288H10.1425H10.156H10.1695H10.1829H10.1963H10.2095H10.2227H10.2359H10.2489H10.2619H10.2749H10.2877H10.3005H10.3133H10.3259H10.3385H10.3511H10.3635H10.3759H10.3883H10.4006H10.4128H10.4249H10.437H10.449H10.461H10.4729H10.4847H10.4965H10.5082H10.5199H10.5315H10.543H10.5545H10.5659H10.5772H10.5885H10.5998H10.6109H10.6221H10.6331H10.6441H10.6551H10.666H10.6768H10.6876H10.6983H10.709H10.7196H10.7302H10.7407H10.7512H10.7616H10.7719H10.7822H10.7925H10.8027H10.8128H10.8229H10.8329H10.8429H10.8529H10.8628H10.8726H10.8824H10.8922H10.9019H10.9115H10.9211H10.9307H10.9402H10.9497H10.9591H10.9685H10.9778H10.9871H10.9963H11.0055H11.0147H11.0238H11.0328H11.0418H11.0508H11.0598H11.0687H11.0775H11.0863H11.0951H11.1038H11.1125H11.1212H11.1298H11.1384H11.1469H11.1554H11.1639H11.1723H11.1807H11.189H11.1973H11.2056H11.2138H11.222H11.2302H11.2383H11.2464H11.2545H11.2625H11.2705H11.2785H11.2864H11.2943H11.3022H11.31H11.3178H11.3256H11.3334H11.3411H11.3488H11.3564H11.364H11.3716H11.3792H11.3868H11.3943H11.4018H11.4092H11.4166H11.424H11.4314H11.4388H11.4461H11.4534H11.4607H11.4679H11.4752H11.4824H11.4896H11.4967H11.5039H11.511H11.5181H11.5252H11.5322H11.5393H11.5463H11.5533H11.5602H11.5672H11.5741H11.581H11.5879H11.5948H11.6017H11.6085H11.6153H11.6222H11.629H11.6357H11.6425H11.6492H11.656H11.6627H11.6694H11.6761H11.6828H11.6894H11.6961H11.7027H11.7094H11.716H11.7226H11.7292H11.7358H11.7424H11.7489H11.7555H11.762H11.7686H11.7751H11.7816H11.7881H11.7946H11.8011H11.8076H11.8141H11.8206H11.8271H11.8335H11.84H11.8465H11.8529H11.8594H11.8658H11.8723H11.8787H11.8852H11.8916H11.898H11.9045H11.9109H11.9173H11.9238H11.9302H11.9366H11.9431H11.9495H11.9559H11.9624H11.9688H11.9753H11.9817H11.9882H11.9946H12.0011H12.0075H12.014H12.0205H12.0269H12.0334H12.0399H12.0464H12.0529H12.0594H12.0659H12.0725H12.079H12.0855H12.0921H12.0986H12.1052H12.1118H12.1184H12.125H12.1316H12.1382H12.1448H12.1515H12.1581H12.1648H12.1715H12.1782H12.1849H12.1916H12.1983H12.2051H12.2119H12.2186H12.2254H12.2322H12.2391H12.2459H12.2528H12.2597H12.2666H12.2735H12.2804H12.2874H12.2944H12.3014H12.3084H12.3154H12.3225H12.3295H12.3366H12.3438H12.3509H12.3581H12.3653H12.3725H12.3797H12.387H12.3942H12.4016H12.4089H12.4162H12.4236H12.431H12.4385H12.4459H12.4534H12.4609H12.4685H12.4761H12.4837H12.4913H12.499H12.5066H12.5144H12.5221H12.5299H12.5377H12.5455H12.5534H12.5613H12.5693H12.5772H12.5852H12.5933H12.6013H12.6095H12.6176H12.6258H12.634H12.6422H12.6505H12.6588H12.6672H12.6756H12.684H12.6925H12.701H12.7095H12.7181H12.7267H12.7354H12.7441H12.7528H12.7616H12.7704H12.7792H12.7881H12.7971H12.8061H12.8151H12.8242H12.8333H12.8424H12.8517H12.8609H12.8702H12.8795H12.8889H12.8983H12.9078H12.9173H12.9269H12.9365H12.9462H12.9559H12.9656H12.9754H12.9853H12.9952H13.0051H13.0151H13.0252H13.0353H13.0454H13.0557H13.0659H13.0762H13.0866H13.097H13.1075H13.118H13.1286H13.1392H13.1499H13.1606H13.1714H13.1822H13.1931H13.2041H13.2151H13.2262H13.2373H13.2485H13.2598H13.2711H13.2824H13.2938H13.3053H13.3169H13.3285H13.3401H13.3519H13.3636H13.3755H13.3874H13.3994H13.4114H13.4235H13.4356H13.4479H13.4601H13.4725H13.4849H13.4974H13.5099H13.5225H13.5352H13.548H13.5608H13.5736H13.5866H13.5996H13.6127H13.6258H13.639H13.6523H13.6657H13.6791H13.6926H13.7062H13.7198H13.7335H13.7473H13.7612H13.7751H13.7891H13.8031H13.8173H13.8315H13.8458H13.8602H13.8746H13.8891H13.9037H13.9184H13.9331H13.9479H13.9628H13.9778H13.9929H14.008H14.0232H14.0385H14.0539H14.0693H14.0848H14.1004H14.1161H14.1319H14.1477H14.1637H14.1797H14.1958H14.2119H14.2282H14.2445H14.261H14.2775H14.2941H14.3107H14.3275H14.3444H14.3613H14.3783H14.3954H14.4126H14.4299H14.4473H14.4647H14.4823H14.4999H14.5176H14.5354H14.5533H14.5713H14.5894H14.6076H14.6258H14.6442H14.6626H14.6812H14.6998H14.7185H14.7373H14.7562H14.7752H14.7943H14.8135H14.8328H14.8522H14.8717H14.8912H14.9109H14.9307H14.9505H14.9705H14.9905H15.0107H15.0309H15.0513H15.0717H15.0923H15.1129H15.1457H15.1783H15.2106H15.2426H15.2745H15.3061H15.3374H15.3686H15.3995H15.4302H15.4606H15.4908H15.5208H15.5506H15.5801H15.6094H15.6385H15.6674H15.696H15.7244H15.7526H15.7806H15.8084H15.8359H15.8632H15.8904H15.9172H15.9439H15.9704H15.9966H16.0227H16.0485H16.0741H16.0996H16.1248H16.1498H16.1745H16.1991H16.2235H16.2477H16.2717H16.2954H16.319H16.3424H16.3655H16.3885H16.4113H16.4338H16.4562H16.4784H16.5004H16.5222H16.5438H16.5652H16.5864H16.6075H16.6283H16.649H16.6694H16.6897H16.7098H16.7297H16.7495H16.769H16.7884H16.8076H16.8266H16.8454H16.864H16.8825H16.9008H16.9189H16.9369H16.9546H16.9722H16.9897H17.0069H17.024H17.0409H17.0576H17.0742H17.0906H17.1069H17.123H17.1389H17.1546H17.1702H17.1856H17.2009H17.216H17.2309H17.2457H17.2604H17.2748H17.2892H17.3033H17.3173H17.3312H17.3449H17.3585H17.3719H17.3851H17.3982H17.4112H17.424H17.4367H17.4492H17.4616H17.4738H17.4859H17.4979H17.5097H17.5214H17.5329H17.5443H17.5556H17.5667H17.5777H17.5885H17.5992H17.6098H17.6203H17.6306H17.6408H17.6509H17.6608H17.6706H17.6803H17.6899H17.6993H17.7086H17.7178H17.7269H17.7358H17.7447H17.7534H17.762H17.7704H17.7788H17.787H17.7952H17.8032H17.8111H17.8189H17.8265H17.8341H17.8415H17.8489H17.8561H17.8633H17.8703H17.8772H17.884H17.8907H17.8973H17.9039H17.9103H17.9166H17.9228H17.9289H17.9349H17.9408H17.9466H17.9524H17.958H17.9635H17.969H17.9743H17.9796H17.9848H17.9899H17.9949H17.9998H18.0046H18.0094H18.014H18.0186H18.0231H18.0275H18.0319H18.0361H18.0403H18.0444H18.0484H18.0523H18.0562H18.06H18.0637H18.0674H18.071H18.0745H18.0779H18.0813H18.0846H18.0878H18.091H18.0941H18.0971H18.1001H18.103H18.1058H18.1086H18.1113H18.114H18.1166H18.1192H18.1217H18.1241H18.1265H18.1288H18.1311H18.1333H18.1355H18.1376H18.1397H18.1417H18.1437H18.1456H18.1475H18.1493H18.1511H18.1529H18.1546H18.1562H18.1579H18.1594H18.161H18.1625H18.164H18.1654H18.1668H18.1682H18.1695H18.1708H18.1721H18.1733H18.1745H18.1757H18.1768H18.1779H18.179H18.1801H18.1811H18.1821H18.1831H18.1841H18.1851H18.186H18.1869H18.1878H18.1887H18.1895H18.1903H18.1912H18.192H18.1928H18.1936H18.1943H18.1951H18.1958H18.1966H18.1973H18.198H18.1988H18.1995H18.2002H18.2009H18.2016H18.2023H18.203H18.2037H18.2044H18.2051H18.2058H18.2065H18.2072H18.2079H18.2087H18.2094H18.2101H18.2109H18.2116H18.2124H18.2132H18.214H18.2148H18.2156H18.2164H18.2173H18.2181H18.219H18.2199H18.2208H18.2218H18.2227H18.2237H18.2247H18.2257H18.2268H18.2278H18.2289H18.2301H18.2312H18.2324H18.2336H18.2349H18.2361H18.2375H18.2388H18.2402H18.2416H18.243H18.2445H18.246H18.2476H18.2492H18.2508H18.2525H18.2542H18.256H18.2578H18.2597H18.2616H18.2635H18.2655H18.2676H18.2697H18.2718H18.274H18.2762H18.2785H18.2809H18.2833H18.2857H18.2883H18.2908H18.2935H18.2962H18.2989H18.3017H18.3046H18.3075H18.3105H18.3136H18.3167H18.3199H18.3231H18.3265H18.3299H18.3333H18.3369H18.3405H18.3441H18.3479H18.3517H18.3556H18.3596H18.3636H18.3678H18.372H18.3763H18.3806H18.3851H18.3896H18.3942H18.3989H18.4037H18.4085H18.4135H18.4185H18.4236H18.4289H18.4342H18.4395H18.445H18.4506H18.4563H18.462H18.4679H18.4739H18.4799H18.4861H18.4923H18.4986H18.5051H18.5116H18.5183H18.525H18.5319H18.5389H18.5459H18.5531H18.5604H18.5678H18.5753H18.5829H18.5906H18.5984H18.6064H18.6144H18.6226H18.6309H18.6393H18.6478H18.6564H18.6652H18.674H18.683H18.6922H18.7014H18.7108H18.7202H18.7298H18.7396H18.7494H18.7594H18.7696H18.7798H18.7902H18.8007H18.8113H18.8221H18.833H18.844H18.8552H18.8665H18.878H18.8896H18.9013H18.9132H18.9252H18.9373H18.9496H18.9621H18.9746H18.9874H19.0002H19.0133H19.0264H19.0397H19.0532H19.0668H19.0806H19.0945H19.1086H19.1228H19.1372H19.1517H19.1664H19.1813H19.1963H19.2114H19.2268H19.2422H19.2579H19.2737H19.2897H19.3058H19.3221H19.3386H19.3553H19.3721H19.389H19.4062H19.4235H19.441H19.4587H19.4765H19.4945H19.5127H19.531H19.5496H19.5683H19.5872H19.6063H19.6255H19.645H19.6646H19.6844H19.7044H19.7245H19.7449H19.7654H19.7862H19.8071H19.8282H19.8495H19.871H19.8926H19.9145H19.9366H19.9588H19.9813H20.004H20.0268H20.0499H20.0731H20.0965H20.1202H20.144H20.1681H20.1923H20.2168H20.2415H20.2663H20.2914H20.3167H20.3422H20.3679H20.3938H20.4199H20.4463C20.9372 23 21.3352 22.5962 21.3352 22.0981C21.3352 21.6 20.9372 21.1963 20.4463 21.1963H20.4199H20.3938H20.3679H20.3422H20.3167H20.2914H20.2663H20.2415H20.2168H20.1923H20.1681H20.144H20.1202H20.0965H20.0731H20.0499H20.0268H20.004H19.9813H19.9588H19.9366H19.9145H19.8926H19.871H19.8495H19.8282H19.8071H19.7862H19.7654H19.7449H19.7245H19.7044H19.6844H19.6646H19.645H19.6255H19.6063H19.5872H19.5683H19.5496H19.531H19.5127H19.4945H19.4765H19.4587H19.441H19.4235H19.4062H19.389H19.3721H19.3553H19.3386H19.3221H19.3058H19.2897H19.2737H19.2579H19.2422H19.2268H19.2114H19.1963H19.1813H19.1664H19.1517H19.1372H19.1228H19.1086H19.0945H19.0806H19.0668H19.0532H19.0397H19.0264H19.0133H19.0002H18.9874H18.9746H18.9621H18.9496H18.9373H18.9252H18.9132H18.9013H18.8896H18.878H18.8665H18.8552H18.844H18.833H18.8221H18.8113H18.8007H18.7902H18.7798H18.7696H18.7594H18.7494H18.7396H18.7298H18.7202H18.7108H18.7014H18.6922H18.683H18.674H18.6652H18.6564H18.6478H18.6393H18.6309H18.6226H18.6144H18.6064H18.5984H18.5906H18.5829H18.5753H18.5678H18.5604H18.5531H18.5459H18.5389H18.5319H18.525H18.5183H18.5116H18.5051H18.4986H18.4923H18.4861H18.4799H18.4739H18.4679H18.462H18.4563H18.4506H18.445H18.4395H18.4342H18.4289H18.4236H18.4185H18.4135H18.4085H18.4037H18.3989H18.3942H18.3896H18.3851H18.3806H18.3763H18.372H18.3678H18.3636H18.3596H18.3556H18.3517H18.3479H18.3441H18.3405H18.3369H18.3333H18.3299H18.3265H18.3231H18.3199H18.3167H18.3136H18.3105H18.3075H18.3046H18.3017H18.2989H18.2962H18.2935H18.2908H18.2883H18.2857H18.2833H18.2809H18.2785H18.2762H18.274H18.2718H18.2697H18.2676H18.2655H18.2635H18.2616H18.2597H18.2578H18.256H18.2542H18.2525H18.2508H18.2492H18.2476H18.246H18.2445H18.243H18.2416H18.2402H18.2388H18.2375H18.2361H18.2349H18.2336H18.2324H18.2312H18.2301H18.2289H18.2278H18.2268H18.2257H18.2247H18.2237H18.2227H18.2218H18.2208H18.2199H18.219H18.2181H18.2173H18.2164H18.2156H18.2148H18.214H18.2132H18.2124H18.2116H18.2109H18.2101H18.2094H18.2087H18.2079H18.2072H18.2065H18.2058H18.2051H18.2044H18.2037H18.203H18.2023H18.2016H18.2009H18.2002H18.1995H18.1988H18.198H18.1973H18.1966H18.1958H18.1951H18.1943H18.1936H18.1928H18.192H18.1912H18.1903H18.1895H18.1887H18.1878H18.1869H18.186H18.1851H18.1841H18.1831H18.1821H18.1811H18.1801H18.179H18.1779H18.1768H18.1757H18.1745H18.1733H18.1721H18.1708H18.1695H18.1682H18.1668H18.1654H18.164H18.1625H18.161H18.1594H18.1579H18.1562H18.1546H18.1529H18.1511H18.1493H18.1475H18.1456H18.1437H18.1417H18.1397H18.1376H18.1355H18.1333H18.1311H18.1288H18.1265H18.1241H18.1217H18.1192H18.1166H18.114H18.1113H18.1086H18.1058H18.103H18.1001H18.0971H18.0941H18.091H18.0878H18.0846H18.0813H18.0779H18.0745H18.071H18.0674H18.0637H18.06H18.0562H18.0523H18.0484H18.0444H18.0403H18.0361H18.0319H18.0275H18.0231H18.0186H18.014H18.0094H18.0046H17.9998H17.9949H17.9899H17.9848H17.9796H17.9743H17.969H17.9635H17.958H17.9524H17.9466H17.9408H17.9349H17.9289H17.9228H17.9166H17.9103H17.9039H17.8973H17.8907H17.884H17.8772H17.8703H17.8633H17.8561H17.8489H17.8415H17.8341H17.8265H17.8189H17.8111H17.8032H17.7952H17.787H17.7788H17.7704H17.762H17.7534H17.7447H17.7358H17.7269H17.7178H17.7086H17.6993H17.6899H17.6803H17.6706H17.6608H17.6509H17.6408H17.6306H17.6203H17.6098H17.5992H17.5885H17.5777H17.5667H17.5556H17.5443H17.5329H17.5214H17.5097H17.4979H17.4859H17.4738H17.4616H17.4492H17.4367H17.424H17.4112H17.3982H17.3851H17.3719H17.3585H17.3449H17.3312H17.3173H17.3033H17.2892H17.2748H17.2604H17.2457H17.2309H17.216H17.2009H17.1856H17.1702H17.1546H17.1389H17.123H17.1069H17.0906H17.0742H17.0576H17.0409H17.024H17.0069H16.9897H16.9722H16.9546H16.9369H16.9189H16.9008H16.8825H16.864H16.8454H16.8266H16.8076H16.7884H16.769H16.7495H16.7297H16.7098H16.6897H16.6694H16.649H16.6283H16.6075H16.5864H16.5652H16.5438H16.5222H16.5004H16.4784H16.4562H16.4338H16.4113H16.3885H16.3655H16.3424H16.319H16.2954H16.2717H16.2477H16.2235H16.1991H16.1745H16.1498H16.1248H16.0996H16.0741H16.0485H16.0227H16.0018V13.0658L23.6568 7.02497C23.9565 6.78843 24.0751 6.38482 23.9518 6.02039C23.8286 5.65596 23.4908 5.41121 23.1111 5.41121L11.3264 5.41121L7.65935 1.02271ZM10.5029 7.21495H9.70179L12.0541 9.07122L10.5029 7.21495ZM15.5413 11.1442C15.6418 10.8522 15.5916 10.5155 15.3803 10.2626L12.8337 7.21495L20.5204 7.21495L15.5413 11.1442Z" fill="white"/>
</svg>
