<svg width="21" height="27" viewBox="0 0 21 27" fill="none" xmlns="http://www.w3.org/2000/svg">
<path d="M6.07083 25.3752V22.8752C5.0654 21.3747 3.85149 19.8747 2.5654 17.8747C1.9795 16.4881 1.5654 14.8747 1.07032 12.375C0.455084 9.26833 4.06564 8.875 4.5654 11.375L5.0654 13.375V4.87496C5.06527 2.37464 8.5654 2.37435 8.5654 4.87467V8.87467L8.5654 2.87512C8.5654 0.374956 12.0708 0.374861 12.0708 2.87543L12.0707 3.87475M12.0708 8.87498L12.0707 3.87475M12.0707 3.87475C12.0706 1.37475 15.5707 1.37499 15.5708 3.87499V6.37498M15.5708 8.87498V6.37498M15.5708 6.37498C15.5707 3.87498 19.0707 3.87498 19.0708 6.37498V15.375C19.0708 15.875 19.0708 20.3752 15.5708 22.8752V25.3752" stroke="white" stroke-width="2" stroke-linecap="round" stroke-linejoin="round"/>
</svg>
