<svg width="21" height="26" viewBox="0 0 21 26" fill="none" xmlns="http://www.w3.org/2000/svg">
<path fill-rule="evenodd" clip-rule="evenodd" d="M5 0C3.89543 0 3 0.89543 3 2L2.5 2C1.11929 2 0 3.11929 0 4.5V6.5C0 7.88071 1.11929 9 2.5 9H3.86505C4.80369 10.7757 6.43429 12.1292 8.39781 12.7014C7.54894 13.34 7 14.3559 7 15.5L7 16C5.89543 16 5 16.8954 5 18L5 19C3.89543 19 3 19.8954 3 21L3 24C3 25.1046 3.89543 26 5 26L16 26C17.1046 26 18 25.1046 18 24V21C18 19.8954 17.1046 19 16 19V18C16 16.8954 15.1046 16 14 16V15.5C14 14.3559 13.4511 13.34 12.6022 12.7014C14.5657 12.1292 16.1963 10.7757 17.135 9H18.5C19.8807 9 21 7.88071 21 6.5V4.5C21 3.11929 19.8807 2 18.5 2H18C18 0.895431 17.1046 0 16 0H5ZM12.4667 18H8.53333H7V19H14V18H12.4667ZM12 16V15.5C12 14.6716 11.3284 14 10.5 14C9.67157 14 9 14.6716 9 15.5V16H12ZM16 3V5.5C16 8.53757 13.5376 11 10.5 11C7.46243 11 5 8.53757 5 5.5V3V2L16 2V3ZM18 5.5V4H18.5C18.7761 4 19 4.22386 19 4.5V6.5C19 6.77614 18.7761 7 18.5 7H18V5.5ZM3 4H2.5C2.22386 4 2 4.22386 2 4.5L2 6.5C2 6.77614 2.22386 7 2.5 7H3L3 5.5V4ZM15 21H16V24L5 24V21H6H15Z" fill="white"/>
</svg>
