<svg width="25" height="25" viewBox="0 0 25 25" fill="none" xmlns="http://www.w3.org/2000/svg">
<path fill-rule="evenodd" clip-rule="evenodd" d="M0.303796 16.8002C-0.101265 16.3952 -0.101265 15.7385 0.303796 15.3334L15.3334 0.303795C15.7385 -0.101265 16.3952 -0.101265 16.8002 0.303795C17.13 0.633665 17.1765 1.10817 17.0128 1.47674C16.7037 2.17247 16.8358 3.01447 17.4044 3.58304C17.9643 4.14297 18.7894 4.27959 19.4791 3.98829C19.8648 3.82535 20.3661 3.86967 20.7182 4.22176L20.7782 4.28186C21.1303 4.63395 21.1747 5.13529 21.0118 5.52097C20.7204 6.21063 20.857 7.03572 21.417 7.5957C21.9855 8.16428 22.8276 8.29629 23.5233 7.98725C23.8918 7.82349 24.3664 7.86995 24.6962 8.19982C25.1013 8.60488 25.1013 9.26159 24.6962 9.66665L9.6666 24.6963C9.26154 25.1012 8.60483 25.1012 8.19983 24.6963C7.86996 24.3664 7.82349 23.8919 7.9872 23.5233C8.2963 22.8276 8.16422 21.9856 7.59565 21.417C7.03572 20.8571 6.21057 20.7204 5.52091 21.0118C5.13523 21.1747 4.63389 21.1303 4.2818 20.7782L4.22176 20.7182C3.86967 20.3661 3.82535 19.8648 3.98823 19.4791C4.27959 18.7894 4.14297 17.9643 3.58305 17.4043C3.01447 16.8358 2.1724 16.7038 1.47668 17.0128C1.10817 17.1766 0.633602 17.13 0.303796 16.8002ZM2.57658 15.2898C3.3504 15.3636 4.10446 15.6966 4.69766 16.2897C5.52767 17.1197 5.84825 18.2649 5.66182 19.3382C6.73508 19.1517 7.88025 19.4723 8.71026 20.3024C9.30346 20.8955 9.63648 21.6496 9.71016 22.4234L22.4234 9.71021C21.6496 9.63647 20.8955 9.30345 20.3023 8.71031C19.4723 7.88031 19.1517 6.73514 19.3382 5.66188C18.2649 5.84825 17.1198 5.52772 16.2897 4.69765C15.6965 4.10452 15.3635 3.3504 15.2898 2.57658L2.57658 15.2898ZM15.5357 10.535C15.3414 10.7293 15.4381 11.0616 15.7062 11.1214L16.6978 11.3424C16.7354 11.3508 16.773 11.3607 16.8058 11.3808C16.8818 11.4272 16.9957 11.5383 16.8072 11.7268L16.232 12.3019C15.9569 12.5771 15.5471 12.6676 15.1816 12.534L14.2104 12.1789C13.8489 11.9938 13.7117 11.7492 13.6719 11.6607C13.6619 11.6384 13.6534 11.6156 13.6455 11.5925C13.532 11.2646 13.6433 10.8562 13.9031 10.5963L14.3079 10.1915C14.3436 10.1558 14.3774 10.1182 14.4033 10.0749C14.5461 9.83591 14.5795 9.50572 14.4774 9.25755C14.3944 9.04329 14.2173 8.93757 14.0391 8.97777C13.9591 8.99581 13.8959 9.05345 13.8379 9.11142L13.0185 9.93083C12.9587 9.99061 12.8989 10.0504 12.8822 10.1732C12.8742 10.2449 12.8987 10.3691 12.9332 10.4832L14.091 13.2751C14.158 13.4417 14.3162 14.2177 13.6188 14.9152C13.2402 15.2938 12.8563 15.5078 12.5736 15.3446L10.3756 14.0223L10.3699 14.0189C10.3493 14.0071 10.2227 13.9369 10.1862 13.9735C10.1363 14.0233 10.1702 14.1169 10.1814 14.1481L11.3286 16.9293C11.373 17.0335 11.347 17.1869 11.2773 17.2567L10.4603 18.0737C10.3806 18.1534 10.2969 18.1096 10.2525 18.0054L8.62528 14.0267C8.55831 13.8601 8.40002 13.0841 9.09749 12.3866C9.34658 12.1375 9.75509 11.729 10.1427 11.9572L12.2953 13.2597C12.3067 13.2666 12.3181 13.2732 12.3299 13.2793C12.3758 13.3027 12.4979 13.3605 12.5301 13.3283C12.56 13.2984 12.558 13.2367 12.5468 13.2055L11.5515 10.78C11.3985 10.4069 11.4835 9.97942 11.7686 9.69428L14.2132 7.24966C14.283 7.17987 14.3609 7.11455 14.458 7.09685C14.6164 7.06799 14.8 7.11001 14.9678 7.2171C15.2512 7.40086 15.4594 7.80839 15.6153 8.18342C15.7048 8.41243 15.84 8.78681 15.8975 9.30264C15.9464 9.86959 15.7948 10.276 15.5357 10.535Z" fill="white"/>
</svg>
