<svg width="48" height="55" viewBox="0 0 48 55" version="1.1" xmlns="http://www.w3.org/2000/svg" xmlns:xlink="http://www.w3.org/1999/xlink">
<title>pdf</title>
<desc>Created using Figma</desc>
<g id="Canvas" transform="translate(16832 21943)">
<g id="pdf">
<g id="Vector">
<use xlink:href="#path0_fill" transform="translate(-16825.1 -21943)" fill="#FFFFFF"/>
</g>
<g id="Vector">
<use xlink:href="#path1_fill" transform="translate(-16797.7 -21943)" fill="#B5B5B5"/>
</g>
<g id="Vector">
<use xlink:href="#path2_fill" transform="translate(-16794.3 -21929.2)" fill="#E8E8E8"/>
</g>
<g id="Vector">
<use xlink:href="#path3_fill" transform="translate(-16832 -21917.2)" fill="#1C5CFF"/>
</g>
<g id="doc">
<use xlink:href="#path4_fill" transform="translate(-16827 -21912)" fill="#FFFFFF"/>
<use xlink:href="#path5_fill" transform="translate(-16827 -21912)" fill="#FFFFFF"/>
<use xlink:href="#path6_fill" transform="translate(-16827 -21912)" fill="#FFFFFF"/>
</g>
<g id="Vector">
<use xlink:href="#path7_fill" transform="translate(-16825.1 -21898.3)" fill="#E8E8E8"/>
</g>
</g>
</g>
<defs>
<path id="path0_fill" d="M 3.42857 0C 1.54286 0 0 1.54688 0 3.4375L 0 51.5625C 0 53.4531 1.54286 55 3.42857 55L 37.7143 55C 39.6 55 41.1429 53.4531 41.1429 51.5625L 41.1429 13.75L 27.4286 0L 3.42857 0Z"/>
<path id="path1_fill" d="M 3.42857 13.75L 13.7143 13.75L 0 0L 0 10.3125C 0 12.2031 1.54286 13.75 3.42857 13.75Z"/>
<path id="path2_fill" d="M 10.2857 10.3125L 0 0L 10.2857 0L 10.2857 10.3125Z"/>
<path id="path3_fill" d="M 41.1429 18.9062C 41.1429 19.8516 40.3714 20.625 39.4286 20.625L 1.71429 20.625C 0.771429 20.625 0 19.8516 0 18.9062L 0 1.71875C 0 0.773438 0.771429 0 1.71429 0L 39.4286 0C 40.3714 0 41.1429 0.773438 41.1429 1.71875L 41.1429 18.9062Z"/>
<path id="path4_fill" d="M 0 9.62129C 0 10.4663 0.667471 10.7332 1.14631 10.7332L 3.67109 10.7332C 6.6602 10.7332 8.63359 8.71698 8.63359 5.60377C 8.63359 2.31267 6.77628 0.177898 3.52599 0.177898L 1.11729 0.177898C 0.464328 0.177898 0 0.637466 0 1.31941L 0 9.62129ZM 2.17654 2.22372L 3.49697 2.22372C 5.49938 2.22372 6.37 3.60243 6.37 5.5C 6.37 7.27898 5.51389 8.68733 3.64207 8.68733L 2.17654 8.68733L 2.17654 2.22372Z"/>
<path id="path5_fill" d="M 15.7081 8.95418C 13.8653 8.95418 12.9802 7.3531 12.9802 5.54448C 12.9802 3.75067 13.8943 2.13477 15.7081 2.13477C 17.5219 2.13477 18.436 3.75067 18.436 5.54448C 18.436 7.3531 17.5509 8.95418 15.7081 8.95418ZM 15.7081 11C 18.6827 11 20.6996 8.61321 20.6996 5.54448C 20.6996 2.53504 18.6247 0.0889489 15.7081 0.0889489C 12.748 0.0889489 10.7166 2.46092 10.7166 5.54448C 10.7166 8.61321 12.7625 11 15.7081 11Z"/>
<path id="path6_fill" d="M 22.7437 5.45553C 22.7437 8.52426 24.7896 10.9111 27.7352 10.9111C 28.809 10.9111 31 10.5849 31 9.16173C 31 8.82076 30.6953 8.15364 30.0423 8.15364C 29.4474 8.15364 28.9541 8.77628 27.7352 8.77628C 25.9504 8.77628 25.0073 7.26415 25.0073 5.5C 25.0073 3.69138 25.9359 2.13477 27.7352 2.13477C 28.9541 2.13477 29.3603 2.65364 29.9553 2.65364C 30.4921 2.65364 30.8549 2.19407 30.8549 1.66038C 30.8549 0.355795 28.7944 0 27.7352 0C 24.7751 0 22.7437 2.37197 22.7437 5.45553Z"/>
<path id="path7_fill" d="M 32.5714 1.71875L 0 1.71875L 0 3.4375L 32.5714 3.4375C 33.5143 3.4375 34.2857 2.66406 34.2857 1.71875L 34.2857 0C 34.2857 0.945312 33.5143 1.71875 32.5714 1.71875Z"/>
</defs>
</svg>
