<svg width="194" height="64" viewBox="0 0 194 64" version="1.1" xmlns="http://www.w3.org/2000/svg" xmlns:xlink="http://www.w3.org/1999/xlink">
<title>fizkult</title>
<desc>Created using Figma</desc>
<g id="Canvas" transform="translate(50957 20828)">
<g id="fizkult">
<use xlink:href="#path0_fill" transform="translate(-50957 -20828)" fill="#BDBDBD"/>
<use xlink:href="#path1_fill" transform="translate(-50957 -20828)" fill="#BDBDBD"/>
<use xlink:href="#path2_fill" transform="translate(-50957 -20828)" fill="#BDBDBD"/>
<use xlink:href="#path3_fill" transform="translate(-50957 -20828)" fill="#BDBDBD"/>
<use xlink:href="#path4_fill" transform="translate(-50957 -20828)" fill="#BDBDBD"/>
<use xlink:href="#path5_fill" transform="translate(-50957 -20828)" fill="#BDBDBD"/>
<use xlink:href="#path6_fill" transform="translate(-50957 -20828)" fill="#BDBDBD"/>
<use xlink:href="#path7_fill" transform="translate(-50957 -20828)" fill="#BDBDBD"/>
<use xlink:href="#path8_fill" transform="translate(-50957 -20828)" fill="#BDBDBD"/>
</g>
</g>
<defs>
<path id="path0_fill" d="M 26.9146 0L 19.7587 20.2882L 1.39452 20.2882L 15.8878 32.15L 14.177 36.7659C 14.177 36.7659 1.80065 53.2433 0 63.3337C 0 63.3337 17.7783 24.2065 54.8193 20.4494L 32.8556 20.4494L 26.9146 0Z"/>
<path id="path1_fill" fill-rule="evenodd" d="M 41.0826 50.9145C 41.1455 50.3326 41.2084 49.836 41.2713 49.3483L 41.3629 48.6338L 41.4743 47.7132C 40.8867 47.6811 40.3314 47.6686 39.7887 47.6517L 39.2262 47.6316L 38.7715 47.6082C 37.2009 47.5558 35.8064 46.926 34.6293 45.7713C 32.7532 43.9343 32.3614 41.4678 32.6669 38.7387C 33.2779 33.228 36.6348 29.6068 40.9082 28.7671C 41.8876 28.564 42.8922 28.4553 43.9219 28.3436L 44.833 28.2423C 44.9624 27.6649 45.0936 27.0351 45.2248 26.3004L 52.201 26.3004C 52.1794 26.4842 52.1686 26.6546 52.1578 26.8252C 52.1471 26.9959 52.1363 27.1663 52.1147 27.3501C 52.1147 27.4553 52.1075 27.569 52.0967 27.6876C 52.0788 27.8649 52.0536 28.0535 52.0267 28.2423C 53.1606 28.3997 54.2945 28.5046 55.3404 28.7671C 56.2138 28.977 57.0854 29.3443 57.8707 29.8167C 59.9625 31.0763 60.967 33.228 60.9221 36.0096C 60.879 43.1471 57.0422 47.4506 51.4606 47.6607C 51.0077 47.6881 50.5423 47.6869 50.0715 47.6795L 49.6743 47.6724C 49.3706 47.6665 49.0633 47.6607 48.756 47.6607L 48.517 48.8824L 48.5008 48.9643C 48.3732 49.6087 48.2528 50.2257 48.1468 50.862L 47.8251 50.8905L 47.5448 50.9048C 47.2896 50.9145 47.0416 50.9145 46.7954 50.9145L 41.0826 50.9145ZM 44.1789 34.0152C 41.3431 33.8054 39.077 37.0067 39.6862 39.9983C 40.0798 41.94 41.1257 42.6222 42.8706 41.9927C 43.2624 39.3685 43.6991 36.7443 44.1789 34.0152ZM 49.3239 42.0976C 49.4263 42.1326 49.5126 42.1675 49.5898 42.1987C 49.7444 42.2608 49.8612 42.3075 49.978 42.3075C 51.9835 42.3599 53.5973 40.2082 53.8579 37.4791C 54.0322 35.3273 52.7257 33.648 50.6753 34.0677L 50.1326 37.3064C 49.872 38.8674 49.606 40.4644 49.3239 42.0976Z"/>
<path id="path2_fill" d="M 116.04 51.5449C 118.131 52.2797 120.182 51.9122 122.101 51.2299C 121.185 48.5011 120.356 45.9818 119.571 43.4626C 118.656 40.4187 117.697 37.4797 114.949 36.1677C 115.287 35.7044 115.617 35.2625 115.939 34.8314L 115.966 34.7964C 116.512 34.0677 117.033 33.3697 117.522 32.6514C 118.351 31.4967 119.091 30.2371 119.92 29.1351C 120.705 28.0328 121.664 27.0882 122.624 25.986C 119.048 24.7789 116.214 25.6712 113.989 29.0301C 113.641 29.5548 113.292 30.0797 112.9 30.5521L 112.212 31.4355L 111.468 32.3684L 110.762 33.2422L 109.716 34.5406C 109.63 34.4356 109.542 34.3832 109.455 34.3307C 109.716 32.7227 109.962 31.1146 110.212 29.4844L 110.217 29.4548L 110.72 26.1959L 103.568 26.1959C 102.804 30.8272 102.024 35.4417 101.239 40.0869C 100.637 43.6536 100.031 47.2383 99.4259 50.8627L 106.576 50.8627C 106.672 50.295 106.765 49.7566 106.857 49.2392L 106.884 49.0818C 106.993 48.4611 107.096 47.8703 107.187 47.2939L 107.403 46.1417C 107.689 44.6363 107.974 43.131 108.147 41.6259C 108.321 40.2088 109.761 39.8938 110.458 40.9436C 110.85 41.5734 111.198 42.3606 111.461 43.1478C 111.623 43.6128 111.766 44.0893 111.901 44.5718C 112.054 45.124 112.194 45.6841 112.332 46.2441C 112.943 48.6584 113.903 50.7577 116.04 51.5449Z"/>
<path id="path3_fill" d="M 120.834 62.4613C 124.191 59.4174 126.022 55.691 127.593 51.7026C 127.462 51.4925 127.419 51.3351 127.331 51.3351C 125.151 50.7577 124.062 48.9735 123.711 46.4018C 123.404 44.2787 123.073 42.142 122.743 40.0055L 122.277 36.9827L 121.957 34.8585L 121.794 33.7536C 121.751 33.3336 121.794 32.9664 121.794 32.4415L 128.335 32.4415C 128.616 34.4486 128.887 36.4688 129.158 38.4954L 129.207 38.8714L 129.705 42.5615L 129.992 44.67C 130.035 44.6962 130.078 44.7094 130.121 44.7224C 130.165 44.7354 130.209 44.7487 130.253 44.7749L 134.44 32.494L 141.285 32.494C 141.285 32.6148 141.299 32.7359 141.303 32.8366L 141.303 32.9103L 141.299 32.9614C 141.297 32.983 141.292 33.0023 141.285 33.0188L 138.426 40.1418C 136.715 44.4009 134.997 48.6661 133.261 52.9095C 132.688 54.3496 132.087 55.7581 131.381 57.0917C 130.801 58.1881 130.148 59.2338 129.381 60.2046C 127.767 62.3039 125.805 63.5111 123.363 63.196C 122.82 63.1597 122.297 62.9718 121.693 62.755C 121.425 62.6593 121.142 62.5579 120.834 62.4613Z"/>
<path id="path4_fill" d="M 71.6056 50.81L 78.0606 50.81C 78.474 47.9038 78.9843 45.033 79.4947 42.1584C 80.0626 38.9593 80.6322 35.7556 81.0689 32.4937C 77.3616 31.9689 74.3964 32.9135 72.0854 36.2724C 71.345 37.3746 70.4735 38.3192 69.6881 39.3165C 69.5857 39.4407 69.4671 39.5281 69.3233 39.6331C 69.2569 39.6817 69.185 39.734 69.1095 39.7954L 68.9909 39.8936C 69.0502 38.7039 69.2155 37.5788 69.3791 36.4645L 69.521 35.4941C 69.6612 34.4767 69.7744 33.4554 69.7744 32.3888L 63.6267 32.3888C 62.9707 36.3069 62.313 40.1422 61.6571 43.9987C 61.2671 46.2894 60.8772 48.5876 60.4872 50.9149C 61.348 50.9149 62.1153 50.8589 62.8575 50.8696C 63.1307 50.8736 63.4002 50.8867 63.6698 50.9149C 65.3267 51.0725 66.5918 50.2326 67.6826 48.8681C 68.414 47.9329 69.158 46.9975 69.902 46.0621C 70.619 45.1605 71.336 44.259 72.0423 43.3574C 72.1357 43.2447 72.2382 43.1319 72.3622 43.0027L 72.6874 42.6711L 73.0019 42.3604C 72.7971 43.5538 72.6048 44.6908 72.4215 45.7968C 72.1375 47.5114 71.8716 49.151 71.6056 50.81Z"/>
<path id="path5_fill" d="M 144.949 32.494L 159.426 32.494C 158.38 38.6344 157.377 44.7224 156.33 50.8627L 149.614 50.8627C 150.313 46.5592 151.01 42.3606 151.751 37.9522L 148.786 37.9522C 148.649 38.3907 148.523 38.8358 148.398 39.2826C 148.16 40.1192 147.921 40.9624 147.609 41.7832C 146.868 43.8301 146.126 45.8769 145.211 47.8188C 144.209 49.9181 142.726 51.5449 140.719 52.0698C 139.847 52.3221 138.92 52.305 138.002 52.2882L 137.732 52.2833L 137.319 52.2797C 137.116 52.2797 136.932 52.0949 136.717 51.8786L 136.587 51.7503L 136.449 51.6212L 136.359 51.5449C 136.708 51.2301 136.97 50.9678 137.231 50.7577C 139.455 49.0259 140.676 46.4018 141.635 43.6202C 142.503 41.0922 143.254 38.4918 144.007 35.8791L 144.469 34.2785L 144.532 33.998C 144.654 33.4751 144.802 32.9845 144.949 32.494Z"/>
<path id="path6_fill" fill-rule="evenodd" d="M 168.931 38.2145C 169.236 36.1677 169.497 34.3834 169.759 32.494L 163.044 32.494C 162.041 38.6344 161.038 44.6697 160.035 50.7053C 160.253 50.7577 160.384 50.8627 160.515 50.8627L 164.221 50.9216C 166.648 50.9562 169.076 50.9671 171.504 50.8627C 173.596 50.7577 175.515 49.7607 176.823 47.6089C 179.046 43.935 177.783 39.3692 174.207 38.3719C 173.553 38.162 172.812 38.2145 172.113 38.2145L 168.931 38.2145ZM 168.471 46.5271L 168.106 46.58C 167.84 46.6192 167.565 46.6627 167.274 46.7166L 167.344 46.3289C 167.615 44.8469 167.817 43.7269 168.059 42.518C 168.713 42.518 169.322 42.4655 169.89 42.518C 170.893 42.5705 171.416 43.0953 171.504 43.9875C 171.59 44.8798 171.024 45.9294 170.239 46.1919C 169.91 46.2861 169.581 46.3533 169.242 46.4105C 168.992 46.4527 168.737 46.4892 168.471 46.5271Z"/>
<path id="path7_fill" d="M 81.2846 46.506C 81.6188 46.5509 81.9225 46.6051 82.2101 46.6567C 82.5982 46.7262 82.9594 46.791 83.335 46.821C 85.1231 46.9784 86.9543 47.2408 88.6974 46.611C 88.8897 46.5338 89.073 46.4439 89.2437 46.3415C 89.4216 46.235 89.5888 46.115 89.7451 45.9814C 90.5286 45.1939 90.3543 44.1444 89.3947 43.7769C 88.7855 43.5146 88.1314 43.4621 87.4772 43.4097C 86.9884 43.3751 86.5014 43.3861 85.9875 43.3976C 85.7215 43.4036 85.4484 43.4097 85.1662 43.4097C 85.3837 42.1501 85.558 41.1003 85.7754 39.7884C 86.735 39.7884 87.7378 39.8409 88.7406 39.7884C 89.3947 39.736 90.0488 39.6308 90.6167 39.316C 90.7173 39.2553 90.8252 39.1506 90.9276 39.0223C 91.1774 38.7075 91.3894 38.2499 91.3571 37.9515C 91.3571 37.4791 90.8773 36.9017 90.4855 36.6919C 89.8314 36.4295 89.1341 36.3771 88.4369 36.3771C 87.7558 36.4004 87.0675 36.4446 86.3702 36.4959L 85.4376 36.5668C 84.8715 36.6105 84.3018 36.6544 83.7268 36.6919C 83.4374 35.778 83.689 34.8639 83.9316 33.98L 84.0754 33.4381C 84.1185 33.1756 84.5121 32.9657 84.7727 32.9132C 87.5635 32.231 90.4424 31.9684 93.2763 32.1785C 94.3672 32.2834 95.4562 32.6507 96.4158 33.228C 98.858 34.5926 99.2066 37.6892 97.2011 39.8934C 96.9298 40.1938 96.6332 40.4514 96.3313 40.7037C 96.0546 40.936 95.7725 41.1635 95.4993 41.4153C 98.5956 43.0422 98.9443 46.1912 96.3295 48.8154C 94.6709 50.5472 92.6222 51.2295 90.4855 51.3869C 87.4341 51.597 84.3809 51.597 81.3726 50.6521C 81.2648 50.6263 81.1588 50.5752 81.0366 50.5111C 80.909 50.445 80.7652 50.3649 80.5873 50.2849C 80.8892 48.9905 81.0635 47.9002 81.2738 46.561L 81.2846 46.506Z"/>
<path id="path8_fill" d="M 193.218 32.4415L 178.132 32.4415C 177.869 34.1733 177.564 35.8529 177.172 37.7423L 181.445 37.7423C 180.703 42.2032 180.006 46.4542 179.309 50.8102L 185.979 50.8102C 186.454 48.0576 186.928 45.3049 187.403 42.5249L 188.204 37.7948L 192.26 37.7948C 192.609 35.9578 192.914 34.2785 193.218 32.4415Z"/>
</defs>
</svg>
