<svg width="31" height="34" viewBox="0 0 31 34" version="1.1" xmlns="http://www.w3.org/2000/svg" xmlns:xlink="http://www.w3.org/1999/xlink">
<title>Group</title>
<desc>Created using Figma</desc>
<g id="Canvas" transform="translate(43677 24708)">
<g id="Group">
<g id="Rectangle 6">
<use xlink:href="#path0_fill" transform="matrix(0.965926 -0.258819 0.258819 0.965926 -43676.8 -24699.6)" fill="#FFFFFF"/>
</g>
<g id="racing-flag">
<g id="Group">
<g id="Group">
<g id="Vector">
<use xlink:href="#path1_fill" transform="matrix(1 -5.55112e-17 5.55112e-17 1 -43673.5 -24707.3)" fill="#FFFFFF"/>
</g>
</g>
</g>
</g>
</g>
</g>
<defs>
<path id="path0_fill" d="M 0 0.999998C 0 0.447714 0.447715 0 1 0C 1.55228 0 2 0.447715 2 1L 2 25.5669C 2 26.1192 1.55228 26.5669 1 26.5669C 0.447715 26.5669 0 26.1192 0 25.5669L 0 0.999998Z"/>
<path id="path1_fill" d="M 26.9683 16.5547C 25.5922 11.4478 24.2148 6.34128 22.8385 1.23438C 22.6893 0.681586 22.4278 0.0886291 21.4447 0.029324C 13.706 -0.533981 8.62456 7.21181 0.885773 6.64841C 0.275084 6.57278 -0.117415 6.89239 0.0316859 7.44518C 1.40814 12.552 2.77395 17.6619 4.16142 22.7656C 4.3841 23.5847 4.94456 23.8949 5.55543 23.9707C 13.294 24.5341 18.3756 16.7883 26.1145 17.3517C 26.7251 17.4271 27.1174 17.1076 26.9683 16.5547ZM 20.8954 1.95721C 21.275 3.36617 21.6552 4.77505 22.0348 6.18401C 20.4069 6.23787 18.9702 6.56799 17.4477 7.14143C 17.0682 5.73247 16.688 4.3235 16.3085 2.91463C 17.8307 2.34138 19.2675 2.01098 20.8954 1.95721ZM 4.94857 17.7538C 4.51658 16.153 4.08533 14.5519 3.65381 12.951C 5.36497 12.9012 6.88334 12.5284 8.47154 11.8975C 8.09155 10.4885 7.71175 9.07955 7.33214 7.67058C 8.88467 6.97309 10.3491 6.13803 11.8156 5.27557C 12.1952 6.68445 12.5754 8.09341 12.9551 9.50238C 11.4885 10.3647 10.024 11.2001 8.47154 11.8975C 8.90316 13.4983 9.33459 15.0994 9.76612 16.7003C 8.17782 17.3311 6.65964 17.7038 4.94857 17.7538ZM 10.9223 20.989C 10.5368 19.5595 10.1515 18.1298 9.76612 16.7001C 11.3078 16.0078 12.7619 15.1798 14.218 14.3235C 14.6034 15.7532 14.9888 17.1828 15.3741 18.6125C 13.9182 19.4689 12.4639 20.2968 10.9223 20.989ZM 14.2494 14.3051C 13.8182 12.7041 13.3866 11.1031 12.9551 9.50219C 14.4215 8.6417 15.887 7.81828 17.4477 7.14153C 17.8794 8.74239 18.3109 10.3433 18.7423 11.9442C 17.182 12.6212 15.716 13.4445 14.2494 14.3051ZM 19.9254 16.2222C 19.5399 14.7927 19.1546 13.363 18.7691 11.9333C 20.2827 11.3661 21.712 11.0399 23.3293 10.9869C 23.7148 12.4166 24.1002 13.8462 24.4857 15.2757C 22.8683 15.3288 21.4388 15.6549 19.9254 16.2222Z"/>
</defs>
</svg>
