<svg width="55" height="61" viewBox="0 0 55 61" version="1.1" xmlns="http://www.w3.org/2000/svg" xmlns:xlink="http://www.w3.org/1999/xlink">
<title>Union</title>
<desc>Created using Figma</desc>
<g id="Canvas" transform="translate(55842 51470)">
<g id="Union">
<use xlink:href="#path0_fill" transform="translate(-55842 -51470)"/>
<use xlink:href="#path1_fill" transform="translate(-55842 -51470)"/>
</g>
</g>
<defs>
<path id="path0_fill" fill-rule="evenodd" d="M 47.3929 2.26609L 54.9423 30.42C 55.2137 31.4394 54.4995 32.0208 53.3782 31.8844C 46.3073 31.3676 40.4507 34.6625 34.594 37.9646C 28.7302 41.2667 22.8664 44.5688 15.7884 44.0448C 14.6742 43.9084 13.6457 43.3413 13.2386 41.8338L 5.68917 13.6799C 5.41777 12.6605 6.13199 12.0791 7.25333 12.2154C 14.3242 12.7323 20.1809 9.43738 26.0375 6.13529C 31.9013 2.83319 37.7652 -0.468903 44.8432 0.0551249C 45.8288 0.112553 46.4145 0.464298 46.793 0.938076C 47.1001 1.33289 47.2644 1.80667 47.3929 2.26609ZM 45.9216 11.3612L 43.8361 3.59411C 40.8578 3.69461 38.2365 4.2976 35.4511 5.35283L 37.5366 13.1199C 36.1581 13.7157 34.8225 14.3762 33.5084 15.0797C 32.0942 15.8406 30.7086 16.6374 29.323 17.4629L 27.2374 9.69581L 24.3734 11.354C 22.6307 12.3375 20.8665 13.2707 19.0381 14.0962L 21.1236 21.8633C 18.2167 23.019 15.4384 23.7082 12.3101 23.7943L 14.6813 32.6238C 17.8096 32.5305 20.588 31.8486 23.4877 30.6856L 25.6019 38.5676C 28.4231 37.297 31.08 35.7752 33.744 34.2031L 31.6299 26.3211C 28.9659 27.8932 26.3089 29.4151 23.4877 30.6856L 21.1236 21.8633C 23.9591 20.5784 26.6375 19.0422 29.323 17.4629L 31.6871 26.2852C 34.3654 24.706 37.0509 23.1913 39.9007 21.9494L 37.5366 13.1199C 40.3149 12.0647 42.9433 11.4617 45.9216 11.3612ZM 39.9507 21.9279L 42.0648 29.8099C 44.8289 28.769 47.4429 28.166 50.3998 28.0727L 48.2857 20.1907C 45.3288 20.284 42.7148 20.887 39.9507 21.9279Z"/>
<path id="path1_fill" d="M 1.35381 13.7804C 0.382458 14.0388 -0.196066 15.0509 0.0610558 16.0272L 11.6887 59.6364C 11.953 60.6199 12.9529 61.2013 13.9314 60.9357C 14.9027 60.6773 15.4812 59.6651 15.2241 58.6888L 3.59648 15.0797C 3.38222 14.2828 2.68941 13.7445 1.91091 13.7157C 1.72521 13.7086 1.53951 13.7301 1.35381 13.7804Z"/>
</defs>
</svg>
