<svg width="19" height="26" viewBox="0 0 19 26" fill="none" xmlns="http://www.w3.org/2000/svg">
<path fill-rule="evenodd" clip-rule="evenodd" d="M11 2C10.4477 2 10 2.44772 10 3H15C15 2.44772 14.5523 2 14 2H11ZM17 3.17071V3C17 1.34315 15.6569 0 14 0H11C9.34315 0 8 1.34315 8 3H7.80132C7.02981 3 6.28796 3.29723 5.72989 3.82993L5.40147 4.14342L5.38011 4.12103L4.72871 3.44855C3.9602 2.65516 2.69403 2.63499 1.90064 3.4035L0.643614 4.62112C-0.149773 5.38963 -0.169938 6.6558 0.598573 7.44919L1.24219 8.11364L0.928573 8.41301C0.33553 8.97909 0 9.76322 0 10.5831V23C0 24.6569 1.34315 26 3 26H16C17.6569 26 19 24.6569 19 23V6C19 4.69378 18.1652 3.58254 17 3.17071ZM7.80132 5C7.54415 5 7.29686 5.09908 7.11084 5.27664L6.19048 6.15517L4.69048 7.58699L3.19048 9.01881L2.30952 9.85972C2.11184 10.0484 2 10.3098 2 10.5831V23C2 23.5523 2.44772 24 3 24H16C16.5523 24 17 23.5523 17 23V6C17 5.44772 16.5523 5 16 5H9H7.80132ZM3.29216 4.84006L2.03513 6.05768L2.68653 6.73016L3.94356 5.51255L3.29216 4.84006ZM6.19492 9.78091C5.79778 9.39712 5.1647 9.40794 4.78091 9.80508C4.39712 10.2022 4.40794 10.8353 4.80508 11.2191L5.86728 12.2456C5.82339 12.4103 5.8 12.5834 5.8 12.7619V16.8571C5.8 17.0721 5.8339 17.279 5.89664 17.4731L4.73429 18.8568C4.37907 19.2797 4.43392 19.9105 4.85681 20.2657C5.2797 20.6209 5.91048 20.5661 6.26571 20.1432L7.38262 18.8135C7.51724 18.8421 7.65687 18.8571 7.8 18.8571H12.2C12.3431 18.8571 12.4828 18.8421 12.6174 18.8135L13.7343 20.1432C14.0895 20.5661 14.7203 20.6209 15.1432 20.2657C15.5661 19.9105 15.6209 19.2797 15.2657 18.8568L14.1034 17.4731C14.1661 17.279 14.2 17.0721 14.2 16.8571V12.7619C14.2 12.5834 14.1766 12.4103 14.1327 12.2456L15.1949 11.2191C15.5921 10.8353 15.6029 10.2022 15.2191 9.80508C14.8353 9.40794 14.2022 9.39712 13.8051 9.78091L12.7195 10.83C12.5538 10.7856 12.3797 10.7619 12.2 10.7619H7.8C7.62032 10.7619 7.44618 10.7856 7.28053 10.83L6.19492 9.78091ZM7.8 16.6762V12.943C7.84177 12.9116 7.88162 12.8765 7.91909 12.8378C7.9427 12.8133 7.96482 12.788 7.98545 12.7619H12.0146C12.0352 12.788 12.0573 12.8133 12.0809 12.8378C12.1184 12.8765 12.1582 12.9116 12.2 12.943V16.6762C12.1854 16.6871 12.171 16.6986 12.1568 16.7105C12.1034 16.7553 12.0559 16.8045 12.0144 16.8571H7.98561C7.94405 16.8045 7.89655 16.7553 7.84319 16.7105C7.82902 16.6986 7.81462 16.6871 7.8 16.6762Z" fill="white"/>
</svg>
