<svg width="212" height="46" viewBox="0 0 212 46" version="1.1" xmlns="http://www.w3.org/2000/svg" xmlns:xlink="http://www.w3.org/1999/xlink">
<title>&#208;&#179;&#208;&#184;&#208;&#191;&#208;&#190;&#209;&#128;&#209;&#130;</title>
<desc>Created using Figma</desc>
<g id="Canvas" transform="translate(49803 20816)">
<g id="&#208;&#179;&#208;&#184;&#208;&#191;&#208;&#190;&#209;&#128;&#209;&#130;">
<g id="&#208;&#179;&#208;&#190;&#209;&#128;&#208;&#190;&#208;&#180;&#209;&#129;&#208;&#186;&#208;&#190;&#208;&#185; &#208;&#184;&#208;&#189;&#209;&#132;&#208;&#190;&#209;&#128;&#208;&#188;&#208;&#176;&#209;&#134;&#208;&#184;&#208;&#190;&#208;&#189;&#208;&#189;&#209;&#139;&#208;&#185; &#208;&#191;&#208;&#190;&#209;&#128;&#209;&#130;&#208;&#176;&#208;&#187;">
<use xlink:href="#path0_fill" transform="translate(-49732.9 -20780)" fill="#BDBDBD"/>
<use xlink:href="#path1_fill" transform="translate(-49732.9 -20780)" fill="#BDBDBD"/>
<use xlink:href="#path2_fill" transform="translate(-49732.9 -20780)" fill="#BDBDBD"/>
<use xlink:href="#path3_fill" transform="translate(-49732.9 -20780)" fill="#BDBDBD"/>
<use xlink:href="#path4_fill" transform="translate(-49732.9 -20780)" fill="#BDBDBD"/>
<use xlink:href="#path5_fill" transform="translate(-49732.9 -20780)" fill="#BDBDBD"/>
<use xlink:href="#path6_fill" transform="translate(-49732.9 -20780)" fill="#BDBDBD"/>
<use xlink:href="#path7_fill" transform="translate(-49732.9 -20780)" fill="#BDBDBD"/>
<use xlink:href="#path8_fill" transform="translate(-49732.9 -20780)" fill="#BDBDBD"/>
<use xlink:href="#path9_fill" transform="translate(-49732.9 -20780)" fill="#BDBDBD"/>
<use xlink:href="#path10_fill" transform="translate(-49732.9 -20780)" fill="#BDBDBD"/>
<use xlink:href="#path11_fill" transform="translate(-49732.9 -20780)" fill="#BDBDBD"/>
<use xlink:href="#path12_fill" transform="translate(-49732.9 -20780)" fill="#BDBDBD"/>
<use xlink:href="#path13_fill" transform="translate(-49732.9 -20780)" fill="#BDBDBD"/>
<use xlink:href="#path14_fill" transform="translate(-49732.9 -20780)" fill="#BDBDBD"/>
<use xlink:href="#path15_fill" transform="translate(-49732.9 -20780)" fill="#BDBDBD"/>
<use xlink:href="#path16_fill" transform="translate(-49732.9 -20780)" fill="#BDBDBD"/>
<use xlink:href="#path17_fill" transform="translate(-49732.9 -20780)" fill="#BDBDBD"/>
<use xlink:href="#path18_fill" transform="translate(-49732.9 -20780)" fill="#BDBDBD"/>
<use xlink:href="#path19_fill" transform="translate(-49732.9 -20780)" fill="#BDBDBD"/>
<use xlink:href="#path20_fill" transform="translate(-49732.9 -20780)" fill="#BDBDBD"/>
<use xlink:href="#path21_fill" transform="translate(-49732.9 -20780)" fill="#BDBDBD"/>
<use xlink:href="#path22_fill" transform="translate(-49732.9 -20780)" fill="#BDBDBD"/>
<use xlink:href="#path23_fill" transform="translate(-49732.9 -20780)" fill="#BDBDBD"/>
<use xlink:href="#path24_fill" transform="translate(-49732.9 -20780)" fill="#BDBDBD"/>
<use xlink:href="#path25_fill" transform="translate(-49732.9 -20780)" fill="#BDBDBD"/>
<use xlink:href="#path26_fill" transform="translate(-49732.9 -20780)" fill="#BDBDBD"/>
<use xlink:href="#path27_fill" transform="translate(-49732.9 -20780)" fill="#BDBDBD"/>
<use xlink:href="#path28_fill" transform="translate(-49732.9 -20780)" fill="#BDBDBD"/>
</g>
<g id="Union">
<use xlink:href="#path29_fill" transform="translate(-49733.5 -20815.1)" fill="#BDBDBD"/>
</g>
<g id="Union">
<use xlink:href="#path30_fill" transform="translate(-49714.9 -20815.1)" fill="#BDBDBD"/>
</g>
<g id="&#208;&#179;&#208;&#184;&#208;&#191;&#208;&#190;&#209;&#128;&#209;&#130;">
<g id="Subtract">
<use xlink:href="#path31_fill" transform="translate(-49803 -20816)" fill="#FFFFFF"/>
</g>
<g id="Subtract">
<use xlink:href="#path32_fill" transform="translate(-49794.5 -20816)" fill="#EDEDED"/>
</g>
<g id="Subtract">
<use xlink:href="#path32_fill" transform="translate(-49786 -20816)" fill="#D4D4D4"/>
</g>
<g id="Rectangle">
<use xlink:href="#path33_fill" transform="matrix(0.642462 -0.766317 0.642462 0.766317 -49777.5 -20793)" fill="#BDBDBD"/>
</g>
</g>
<g id="Union">
<use xlink:href="#path34_fill" transform="translate(-49689.4 -20815.1)" fill="#BDBDBD"/>
</g>
<g id="Union">
<use xlink:href="#path35_fill" transform="translate(-49612.9 -20815.1)" fill="#BDBDBD"/>
</g>
<g id="Subtract">
<use xlink:href="#path36_fill" transform="translate(-49665.5 -20815.1)" fill="#BDBDBD"/>
</g>
<g id="Union">
<use xlink:href="#path37_fill" transform="translate(-49635.3 -20815.1)" fill="#BDBDBD"/>
</g>
</g>
</g>
<defs>
<path id="path0_fill" d="M 3.03914 2.10616L 0.655367 2.10616L 0.655367 7.36347L 0 7.36347L 0 1.46621L 3.03914 1.46621L 3.03914 2.10616Z"/>
<path id="path1_fill" d="M 7.41618 4.60521C 7.41618 5.18305 7.33468 5.68799 7.17169 6.12002C 7.00869 6.54936 6.77779 6.87743 6.47897 7.10425C 6.18015 7.33107 5.83152 7.44448 5.4331 7.44448C 5.04372 7.44448 4.6985 7.33107 4.39741 7.10425C 4.09633 6.87473 3.86203 6.54936 3.69451 6.12812C 3.52925 5.70419 3.44436 5.2141 3.43983 4.65786L 3.43983 4.23258C 3.43983 3.66553 3.52246 3.16464 3.68771 2.72991C 3.85297 2.29518 4.08614 1.96305 4.38723 1.73353C 4.69057 1.50132 5.03693 1.38521 5.42631 1.38521C 5.82247 1.38521 6.17109 1.49997 6.47218 1.72948C 6.77552 1.9563 7.00869 2.28708 7.17169 2.72181C 7.33468 3.15384 7.41618 3.65743 7.41618 4.23258L 7.41618 4.60521ZM 6.7676 4.22448C 6.7676 3.52512 6.64988 2.98913 6.41445 2.6165C 6.17902 2.24117 5.84963 2.05351 5.42631 2.05351C 5.0143 2.05351 4.68944 2.24117 4.45174 2.6165C 4.21631 2.98913 4.0952 3.50757 4.08841 4.17182L 4.08841 4.60521C 4.08841 5.28296 4.20725 5.81625 4.44495 6.20508C 4.68491 6.59121 5.0143 6.78428 5.4331 6.78428C 5.85416 6.78428 6.18015 6.60201 6.41105 6.23748C 6.64196 5.87025 6.76081 5.34506 6.7676 4.66191L 6.7676 4.22448Z"/>
<path id="path2_fill" d="M 9.04611 5.05479L 9.04611 7.36347L 8.39413 7.36347L 8.39413 1.46621L 10.2176 1.46621C 10.7587 1.46621 11.182 1.63093 11.4876 1.96035C 11.7955 2.28978 11.9494 2.72586 11.9494 3.2686C 11.9494 3.84105 11.7989 4.28253 11.4978 4.59306C 11.199 4.90088 10.77 5.05479 10.2108 5.05479L 9.04611 5.05479ZM 9.04611 4.41889L 10.2176 4.41889C 10.5662 4.41889 10.8334 4.32168 11.019 4.12727C 11.2046 3.93015 11.2974 3.64663 11.2974 3.2767C 11.2974 2.92568 11.2046 2.64485 11.019 2.43424C 10.8334 2.22362 10.5787 2.11426 10.255 2.10616L 9.04611 2.10616L 9.04611 4.41889Z"/>
<path id="path3_fill" d="M 16.5845 4.60521C 16.5845 5.18305 16.503 5.68799 16.34 6.12002C 16.177 6.54936 15.9461 6.87743 15.6473 7.10425C 15.3485 7.33107 14.9999 7.44448 14.6014 7.44448C 14.2121 7.44448 13.8668 7.33107 13.5658 7.10425C 13.2647 6.87473 13.0304 6.54936 12.8629 6.12812C 12.6976 5.70419 12.6127 5.2141 12.6082 4.65786L 12.6082 4.23258C 12.6082 3.66553 12.6908 3.16464 12.8561 2.72991C 13.0213 2.29518 13.2545 1.96305 13.5556 1.73353C 13.8589 1.50132 14.2053 1.38521 14.5947 1.38521C 14.9908 1.38521 15.3394 1.49997 15.6405 1.72948C 15.9439 1.9563 16.177 2.28708 16.34 2.72181C 16.503 3.15384 16.5845 3.65743 16.5845 4.23258L 16.5845 4.60521ZM 15.936 4.22448C 15.936 3.52512 15.8182 2.98913 15.5828 2.6165C 15.3474 2.24117 15.018 2.05351 14.5947 2.05351C 14.1826 2.05351 13.8578 2.24117 13.6201 2.6165C 13.3847 2.98913 13.2635 3.50757 13.2568 4.17182L 13.2568 4.60521C 13.2568 5.28296 13.3756 5.81625 13.6133 6.20508C 13.8533 6.59121 14.1826 6.78428 14.6014 6.78428C 15.0225 6.78428 15.3485 6.60201 15.5794 6.23748C 15.8103 5.87025 15.9292 5.34506 15.936 4.66191L 15.936 4.22448Z"/>
<path id="path4_fill" d="M 21.8954 8.80943L 21.2468 8.80943L 21.2468 7.36347L 17.6983 7.36347L 17.6983 8.81348L 17.0463 8.81348L 17.0429 6.72757L 17.447 6.72757C 17.6598 6.44135 17.8285 6.05792 17.953 5.57728C 18.0798 5.09394 18.159 4.5647 18.1907 3.98956L 18.2993 1.46621L 21.257 1.46621L 21.257 6.72757L 21.9022 6.72757L 21.8954 8.80943ZM 18.1907 6.72757L 20.6016 6.72757L 20.6016 2.10616L 18.9275 2.10616L 18.8562 3.8397C 18.8268 4.51745 18.751 5.09529 18.6287 5.57323C 18.5087 6.05117 18.3627 6.43595 18.1907 6.72757Z"/>
<path id="path5_fill" d="M 26.2317 5.49223C 26.1705 6.11597 25.977 6.59796 25.651 6.93819C 25.3273 7.27571 24.896 7.44448 24.3573 7.44448C 23.7732 7.44448 23.3046 7.19471 22.9514 6.69517C 22.6005 6.19563 22.4251 5.52733 22.4251 4.69026L 22.4251 4.12322C 22.4251 3.57508 22.5066 3.09309 22.6696 2.67726C 22.8349 2.26143 23.068 1.9428 23.3691 1.72138C 23.6702 1.49727 24.0188 1.38521 24.415 1.38521C 24.9402 1.38521 25.3612 1.56072 25.6782 1.91175C 25.9951 2.26007 26.1796 2.74341 26.2317 3.36176L 25.5763 3.36176C 25.5197 2.89192 25.3963 2.5517 25.2062 2.34108C 25.0183 2.13046 24.7545 2.02516 24.415 2.02516C 23.9984 2.02516 23.6713 2.20877 23.4336 2.576C 23.1982 2.94323 23.0805 3.46572 23.0805 4.14347L 23.0805 4.71456C 23.0805 5.35451 23.1925 5.8635 23.4166 6.24153C 23.6408 6.61956 23.9543 6.80858 24.3573 6.80858C 24.7195 6.80858 24.9968 6.71137 25.1892 6.51695C 25.3839 6.31984 25.5129 5.97826 25.5763 5.49223L 26.2317 5.49223Z"/>
<path id="path6_fill" d="M 28.4083 4.71456L 27.8073 4.71456L 27.8073 7.36347L 27.1553 7.36347L 27.1553 1.46621L 27.8073 1.46621L 27.8073 4.06651L 28.3166 4.06651L 30.045 1.46621L 30.8566 1.46621L 28.9686 4.32573L 30.9958 7.36347L 30.1978 7.36347L 28.4083 4.71456Z"/>
<path id="path7_fill" d="M 35.288 4.60521C 35.288 5.18305 35.2065 5.68799 35.0435 6.12002C 34.8805 6.54936 34.6496 6.87743 34.3508 7.10425C 34.0519 7.33107 33.7033 7.44448 33.3049 7.44448C 32.9155 7.44448 32.5703 7.33107 32.2692 7.10425C 31.9681 6.87473 31.7338 6.54936 31.5663 6.12812C 31.401 5.70419 31.3161 5.2141 31.3116 4.65786L 31.3116 4.23258C 31.3116 3.66553 31.3942 3.16464 31.5595 2.72991C 31.7248 2.29518 31.9579 1.96305 32.259 1.73353C 32.5624 1.50132 32.9087 1.38521 33.2981 1.38521C 33.6943 1.38521 34.0429 1.49997 34.344 1.72948C 34.6473 1.9563 34.8805 2.28708 35.0435 2.72181C 35.2065 3.15384 35.288 3.65743 35.288 4.23258L 35.288 4.60521ZM 34.6394 4.22448C 34.6394 3.52512 34.5217 2.98913 34.2862 2.6165C 34.0508 2.24117 33.7214 2.05351 33.2981 2.05351C 32.8861 2.05351 32.5612 2.24117 32.3235 2.6165C 32.0881 2.98913 31.967 3.50757 31.9602 4.17182L 31.9602 4.60521C 31.9602 5.28296 32.079 5.81625 32.3167 6.20508C 32.5567 6.59121 32.8861 6.78428 33.3049 6.78428C 33.7259 6.78428 34.0519 6.60201 34.2828 6.23748C 34.5137 5.87025 34.6326 5.34506 34.6394 4.66191L 34.6394 4.22448Z"/>
<path id="path8_fill" d="M 39.3832 1.46621L 40.0351 1.46621L 40.0351 7.36347L 39.3832 7.36347L 39.3832 2.81902L 36.9485 7.36347L 36.2931 7.36347L 36.2931 1.46621L 36.9485 1.46621L 36.9485 6.01067L 39.3832 1.46621ZM 39.1998 0C 39.1998 0.326725 39.1058 0.589996 38.9179 0.789811C 38.7323 0.986926 38.4878 1.08548 38.1845 1.08548C 37.8811 1.08548 37.6355 0.985576 37.4476 0.785761C 37.2597 0.585945 37.1658 0.324025 37.1658 0L 37.6785 0C 37.6785 0.189015 37.7215 0.337526 37.8076 0.445534C 37.8936 0.550843 38.0192 0.603497 38.1845 0.603497C 38.3429 0.603497 38.4663 0.550843 38.5546 0.445534C 38.6452 0.340226 38.6904 0.191715 38.6904 0L 39.1998 0Z"/>
<path id="path9_fill" d="M 46.0659 1.46621L 46.7178 1.46621L 46.7178 7.36347L 46.0659 7.36347L 46.0659 2.81902L 43.6312 7.36347L 42.9758 7.36347L 42.9758 1.46621L 43.6312 1.46621L 43.6312 6.01067L 46.0659 1.46621Z"/>
<path id="path10_fill" d="M 51.7061 7.36347L 51.0507 7.36347L 51.0507 4.63761L 48.5583 4.63761L 48.5583 7.36347L 47.9063 7.36347L 47.9063 1.46621L 48.5583 1.46621L 48.5583 4.00171L 51.0507 4.00171L 51.0507 1.46621L 51.7061 1.46621L 51.7061 7.36347Z"/>
<path id="path11_fill" d="M 55.3055 2.05756L 55.4108 2.05756C 55.7843 2.06026 56.125 2.16422 56.4329 2.36943C 56.7408 2.57465 56.9796 2.85817 57.1494 3.22C 57.3214 3.57913 57.4075 3.98146 57.4075 4.42699C 57.4075 4.87523 57.3214 5.28161 57.1494 5.64614C 56.9773 6.01067 56.7396 6.29554 56.4363 6.50075C 56.1329 6.70327 55.7956 6.80723 55.4244 6.81263L 55.3055 6.81263L 55.3055 7.60649L 54.6739 7.60649L 54.6739 6.81263L 54.5788 6.81263C 54.2008 6.81263 53.8567 6.71002 53.5466 6.5048C 53.2387 6.29959 52.9987 6.01607 52.8267 5.65424C 52.6569 5.29241 52.572 4.88603 52.572 4.43509C 52.572 3.98416 52.6569 3.57778 52.8267 3.21595C 52.9987 2.85412 53.2387 2.5706 53.5466 2.36538C 53.8567 2.16017 54.2008 2.05756 54.5788 2.05756L 54.6739 2.05756L 54.6739 1.22319L 55.3055 1.22319L 55.3055 2.05756ZM 54.5788 2.66916C 54.1533 2.66916 53.816 2.82577 53.5669 3.13899C 53.3202 3.44952 53.1968 3.88155 53.1968 4.43509C 53.1968 4.99134 53.3202 5.42472 53.5669 5.73524C 53.8137 6.04307 54.1533 6.19698 54.5856 6.19698L 54.6739 6.19698L 54.6739 2.66916L 54.5788 2.66916ZM 55.3055 2.66916L 55.3055 6.19698L 55.4006 6.19698C 55.833 6.19698 56.1703 6.03902 56.4125 5.72309C 56.657 5.40447 56.7793 4.97243 56.7793 4.42699C 56.7793 3.88695 56.657 3.45897 56.4125 3.14304C 56.1703 2.82712 55.8285 2.66916 55.387 2.66916L 55.3055 2.66916Z"/>
<path id="path12_fill" d="M 62.0324 4.60521C 62.0324 5.18305 61.9509 5.68799 61.7879 6.12002C 61.6249 6.54936 61.394 6.87743 61.0952 7.10425C 60.7963 7.33107 60.4477 7.44448 60.0493 7.44448C 59.6599 7.44448 59.3147 7.33107 59.0136 7.10425C 58.7125 6.87473 58.4782 6.54936 58.3107 6.12812C 58.1455 5.70419 58.0606 5.2141 58.056 4.65786L 58.056 4.23258C 58.056 3.66553 58.1387 3.16464 58.3039 2.72991C 58.4692 2.29518 58.7023 1.96305 59.0034 1.73353C 59.3068 1.50132 59.6531 1.38521 60.0425 1.38521C 60.4387 1.38521 60.7873 1.49997 61.0884 1.72948C 61.3917 1.9563 61.6249 2.28708 61.7879 2.72181C 61.9509 3.15384 62.0324 3.65743 62.0324 4.23258L 62.0324 4.60521ZM 61.3838 4.22448C 61.3838 3.52512 61.2661 2.98913 61.0307 2.6165C 60.7952 2.24117 60.4658 2.05351 60.0425 2.05351C 59.6305 2.05351 59.3056 2.24117 59.0679 2.6165C 58.8325 2.98913 58.7114 3.50757 58.7046 4.17182L 58.7046 4.60521C 58.7046 5.28296 58.8235 5.81625 59.0612 6.20508C 59.3011 6.59121 59.6305 6.78428 60.0493 6.78428C 60.4704 6.78428 60.7963 6.60201 61.0273 6.23748C 61.2582 5.87025 61.377 5.34506 61.3838 4.66191L 61.3838 4.22448Z"/>
<path id="path13_fill" d="M 63.6623 5.05479L 63.6623 7.36347L 63.0103 7.36347L 63.0103 1.46621L 64.8338 1.46621C 65.3749 1.46621 65.7982 1.63093 66.1038 1.96035C 66.4117 2.28978 66.5656 2.72586 66.5656 3.2686C 66.5656 3.84105 66.4151 4.28253 66.114 4.59306C 65.8152 4.90088 65.3862 5.05479 64.827 5.05479L 63.6623 5.05479ZM 63.6623 4.41889L 64.8338 4.41889C 65.1824 4.41889 65.4496 4.32168 65.6352 4.12727C 65.8208 3.93015 65.9136 3.64663 65.9136 3.2767C 65.9136 2.92568 65.8208 2.64485 65.6352 2.43424C 65.4496 2.22362 65.1949 2.11426 64.8712 2.10616L 63.6623 2.10616L 63.6623 4.41889Z"/>
<path id="path14_fill" d="M 68.2397 1.46621L 69.856 6.27799L 71.4724 1.46621L 72.3179 1.46621L 72.3179 7.36347L 71.6659 7.36347L 71.6659 5.06694L 71.7271 2.58815L 70.1039 7.36347L 69.6048 7.36347L 67.985 2.6003L 68.0495 5.06694L 68.0495 7.36347L 67.3976 7.36347L 67.3976 1.46621L 68.2397 1.46621Z"/>
<path id="path15_fill" d="M 76.2603 5.82435L 74.1889 5.82435L 73.7237 7.36347L 73.0514 7.36347L 74.9394 1.46621L 75.5099 1.46621L 77.4012 7.36347L 76.7323 7.36347L 76.2603 5.82435ZM 74.3859 5.1844L 76.0667 5.1844L 75.2246 2.42614L 74.3859 5.1844Z"/>
<path id="path16_fill" d="M 78.0872 1.46621L 78.7425 1.46621L 78.7425 6.72757L 81.1806 6.72757L 81.1806 1.46621L 81.8326 1.46621L 81.8326 6.71137L 82.3522 6.71137L 82.291 8.78513L 81.7036 8.78513L 81.7036 7.36347L 78.0872 7.36347L 78.0872 1.46621Z"/>
<path id="path17_fill" d="M 86.2708 1.46621L 86.9228 1.46621L 86.9228 7.36347L 86.2708 7.36347L 86.2708 2.81902L 83.8361 7.36347L 83.1807 7.36347L 83.1807 1.46621L 83.8361 1.46621L 83.8361 6.01067L 86.2708 1.46621Z"/>
<path id="path18_fill" d="M 91.9144 4.60521C 91.9144 5.18305 91.8329 5.68799 91.6699 6.12002C 91.5069 6.54936 91.276 6.87743 90.9772 7.10425C 90.6784 7.33107 90.3298 7.44448 89.9313 7.44448C 89.542 7.44448 89.1967 7.33107 88.8956 7.10425C 88.5946 6.87473 88.3603 6.54936 88.1927 6.12812C 88.0275 5.70419 87.9426 5.2141 87.9381 4.65786L 87.9381 4.23258C 87.9381 3.66553 88.0207 3.16464 88.1859 2.72991C 88.3512 2.29518 88.5844 1.96305 88.8855 1.73353C 89.1888 1.50132 89.5352 1.38521 89.9245 1.38521C 90.3207 1.38521 90.6693 1.49997 90.9704 1.72948C 91.2738 1.9563 91.5069 2.28708 91.6699 2.72181C 91.8329 3.15384 91.9144 3.65743 91.9144 4.23258L 91.9144 4.60521ZM 91.2658 4.22448C 91.2658 3.52512 91.1481 2.98913 90.9127 2.6165C 90.6772 2.24117 90.3479 2.05351 89.9245 2.05351C 89.5125 2.05351 89.1877 2.24117 88.95 2.6165C 88.7145 2.98913 88.5934 3.50757 88.5866 4.17182L 88.5866 4.60521C 88.5866 5.28296 88.7055 5.81625 88.9432 6.20508C 89.1831 6.59121 89.5125 6.78428 89.9313 6.78428C 90.3524 6.78428 90.6784 6.60201 90.9093 6.23748C 91.1402 5.87025 91.259 5.34506 91.2658 4.66191L 91.2658 4.22448Z"/>
<path id="path19_fill" d="M 96.6921 7.36347L 96.0368 7.36347L 96.0368 4.63761L 93.5443 4.63761L 93.5443 7.36347L 92.8924 7.36347L 92.8924 1.46621L 93.5443 1.46621L 93.5443 4.00171L 96.0368 4.00171L 96.0368 1.46621L 96.6921 1.46621L 96.6921 7.36347Z"/>
<path id="path20_fill" d="M 101.65 7.36347L 100.994 7.36347L 100.994 4.63761L 98.502 4.63761L 98.502 7.36347L 97.8501 7.36347L 97.8501 1.46621L 98.502 1.46621L 98.502 4.00171L 100.994 4.00171L 100.994 1.46621L 101.65 1.46621L 101.65 7.36347Z"/>
<path id="path21_fill" d="M 103.49 3.8721L 104.72 3.8721C 105.236 3.8802 105.639 4.03816 105.928 4.34599C 106.218 4.65381 106.363 5.07234 106.363 5.60158C 106.363 6.13352 106.217 6.55746 105.925 6.87338C 105.633 7.18931 105.235 7.35267 104.73 7.36347L 102.838 7.36347L 102.838 1.46621L 103.49 1.46621L 103.49 3.8721ZM 103.49 4.51205L 103.49 6.72757L 104.682 6.72757C 105.006 6.72757 105.257 6.62496 105.436 6.41975C 105.617 6.21453 105.708 5.93911 105.708 5.59348C 105.708 5.26136 105.621 4.99944 105.446 4.80772C 105.274 4.61601 105.029 4.51745 104.709 4.51205L 103.49 4.51205ZM 107.613 7.36347L 106.961 7.36347L 106.961 1.46621L 107.613 1.46621L 107.613 7.36347Z"/>
<path id="path22_fill" d="M 111.942 1.46621L 112.594 1.46621L 112.594 7.36347L 111.942 7.36347L 111.942 2.81902L 109.507 7.36347L 108.852 7.36347L 108.852 1.46621L 109.507 1.46621L 109.507 6.01067L 111.942 1.46621ZM 111.759 0C 111.759 0.326725 111.665 0.589996 111.477 0.789811C 111.291 0.986926 111.047 1.08548 110.743 1.08548C 110.44 1.08548 110.195 0.985576 110.007 0.785761C 109.819 0.585945 109.725 0.324025 109.725 0L 110.238 0C 110.238 0.189015 110.281 0.337526 110.367 0.445534C 110.453 0.550843 110.578 0.603497 110.743 0.603497C 110.902 0.603497 111.025 0.550843 111.114 0.445534C 111.204 0.340226 111.249 0.191715 111.249 0L 111.759 0Z"/>
<path id="path23_fill" d="M 119.284 7.36347L 118.628 7.36347L 118.628 2.10616L 116.19 2.10616L 116.19 7.36347L 115.538 7.36347L 115.538 1.46621L 119.284 1.46621L 119.284 7.36347Z"/>
<path id="path24_fill" d="M 124.275 4.60521C 124.275 5.18305 124.194 5.68799 124.031 6.12002C 123.868 6.54936 123.637 6.87743 123.338 7.10425C 123.039 7.33107 122.691 7.44448 122.292 7.44448C 121.903 7.44448 121.558 7.33107 121.257 7.10425C 120.955 6.87473 120.721 6.54936 120.554 6.12812C 120.388 5.70419 120.303 5.2141 120.299 4.65786L 120.299 4.23258C 120.299 3.66553 120.382 3.16464 120.547 2.72991C 120.712 2.29518 120.945 1.96305 121.246 1.73353C 121.55 1.50132 121.896 1.38521 122.285 1.38521C 122.682 1.38521 123.03 1.49997 123.331 1.72948C 123.635 1.9563 123.868 2.28708 124.031 2.72181C 124.194 3.15384 124.275 3.65743 124.275 4.23258L 124.275 4.60521ZM 123.627 4.22448C 123.627 3.52512 123.509 2.98913 123.274 2.6165C 123.038 2.24117 122.709 2.05351 122.285 2.05351C 121.873 2.05351 121.549 2.24117 121.311 2.6165C 121.075 2.98913 120.954 3.50757 120.948 4.17182L 120.948 4.60521C 120.948 5.28296 121.066 5.81625 121.304 6.20508C 121.544 6.59121 121.873 6.78428 122.292 6.78428C 122.713 6.78428 123.039 6.60201 123.27 6.23748C 123.501 5.87025 123.62 5.34506 123.627 4.66191L 123.627 4.22448Z"/>
<path id="path25_fill" d="M 125.905 5.05479L 125.905 7.36347L 125.253 7.36347L 125.253 1.46621L 127.077 1.46621C 127.618 1.46621 128.041 1.63093 128.347 1.96035C 128.655 2.28978 128.809 2.72586 128.809 3.2686C 128.809 3.84105 128.658 4.28253 128.357 4.59306C 128.058 4.90088 127.629 5.05479 127.07 5.05479L 125.905 5.05479ZM 125.905 4.41889L 127.077 4.41889C 127.425 4.41889 127.692 4.32168 127.878 4.12727C 128.064 3.93015 128.157 3.64663 128.157 3.2767C 128.157 2.92568 128.064 2.64485 127.878 2.43424C 127.692 2.22362 127.438 2.11426 127.114 2.10616L 125.905 2.10616L 125.905 4.41889Z"/>
<path id="path26_fill" d="M 133.057 2.10616L 131.467 2.10616L 131.467 7.36347L 130.819 7.36347L 130.819 2.10616L 129.233 2.10616L 129.233 1.46621L 133.057 1.46621L 133.057 2.10616Z"/>
<path id="path27_fill" d="M 136.248 5.82435L 134.177 5.82435L 133.712 7.36347L 133.04 7.36347L 134.928 1.46621L 135.498 1.46621L 137.389 7.36347L 136.72 7.36347L 136.248 5.82435ZM 134.374 5.1844L 136.055 5.1844L 135.213 2.42614L 134.374 5.1844Z"/>
<path id="path28_fill" d="M 141.855 1.46621L 141.855 7.36347L 141.203 7.36347L 141.203 2.10616L 139.43 2.10616L 139.342 4.44319C 139.308 5.22625 139.24 5.8149 139.138 6.20913C 139.039 6.60336 138.891 6.89363 138.697 7.07995C 138.502 7.26356 138.242 7.35807 137.916 7.36347L 137.702 7.36347L 137.702 6.72757L 137.838 6.71947C 138.048 6.70057 138.21 6.61956 138.323 6.47645C 138.436 6.33064 138.522 6.09977 138.581 5.78385C 138.64 5.46792 138.682 4.98189 138.707 4.32573L 138.809 1.46621L 141.855 1.46621Z"/>
<path id="path29_fill" d="M 0 0L 0 30.4152L 6.95436 30.4152L 6.95436 3.68669L 15.4541 3.68669L 15.4541 0L 0 0Z"/>
<path id="path30_fill" d="M 0 0L 6.95436 0L 6.95436 19.46L 14.6814 5.11825L 14.6814 0L 21.6358 0L 21.6358 30.4152L 14.6814 30.4152L 14.6814 11.9376L 6.95436 26.2793L 6.95436 30.4152L 0 30.4152L 0 0Z"/>
<path id="path31_fill" d="M 19.2461 0L 0 23L 19.2461 46L 23.5078 40.9043L 8.5 23L 23.5078 5.0957L 19.2461 0Z"/>
<path id="path32_fill" d="M 19.2656 0L 0 22.9824L 19.2656 45.9648L 23.5156 40.8945L 8.5 22.9824L 23.5156 5.07031L 19.2656 0Z"/>
<path id="path33_fill" d="M 0 0L 29.9901 0L 29.9901 29.9901L 0 29.9901L 0 0Z"/>
<path id="path34_fill" d="M 0 0L 20.8631 0L 20.8631 30.4152L 13.9087 30.4152L 13.9087 3.68669L 6.95436 3.68669L 6.95436 30.4152L 0 30.4152L 0 0Z"/>
<path id="path35_fill" d="M 21.6358 0L 0 0L 0 4.60836L 6.95436 4.60836L 6.95436 31.3368L 13.9087 31.3368L 13.9087 4.60836L 21.6358 4.60836L 21.6358 0Z"/>
<path id="path36_fill" fill-rule="evenodd" d="M 12.3633 0C 5.53497 0 0 6.60246 0 14.7467L 0 16.5901C 0 24.7344 5.53497 31.3368 12.3633 31.3368L 14.6814 31.3368C 21.5098 31.3368 27.0447 24.7344 27.0447 16.5901L 27.0447 14.7467C 27.0447 6.60246 21.5098 0 14.6814 0L 12.3633 0ZM 6.95436 15.6684C 6.95436 10.3206 7.72707 2.76501 13.136 2.76501C 18.545 2.76501 19.3177 10.3206 19.3177 15.6684C 19.3177 21.0162 18.545 28.5718 13.136 28.5718C 8.11342 28.5718 6.95436 21.0162 6.95436 15.6684Z"/>
<path id="path37_fill" fill-rule="evenodd" d="M 0 0L 0 31.3368L 6.95436 31.3368L 6.95436 19.3551L 14.6814 19.3551L 14.6814 19.3434C 18.5563 19.104 21.6358 15.2805 21.6358 10.5992L 21.6358 8.75588C 21.6358 4.07462 18.5563 0.251119 14.6814 0.0117009L 14.6814 0L 0 0ZM 6.95436 3.68669L 6.95436 14.7467L 9.93502 14.7467L 9.93502 14.74C 12.149 14.6032 13.9087 12.4183 13.9087 9.74325L 13.9087 8.69017C 13.9087 6.01517 12.149 3.83025 9.93502 3.69344L 9.93502 3.68669L 6.95436 3.68669Z"/>
</defs>
</svg>
