<svg width="60" height="31" viewBox="0 0 60 31" fill="none" xmlns="http://www.w3.org/2000/svg">
<path fill-rule="evenodd" clip-rule="evenodd" d="M46.1718 21.3981C45.7867 20.7314 46.2678 19.8979 47.0377 19.8979H48.6486C50.5804 19.8979 52.6607 18.8529 54.5924 16.3273C56.3012 13.976 57.1928 11.8859 57.7129 10.5796C58.5302 8.4024 59.2731 5.87688 58.9016 3.96096C58.6191 2.55363 57.8667 1.46107 56.8995 1.05732C56.7999 1.01573 56.7039 1 56.5959 1C53.6615 1 38.336 1 34.9133 1C34.4981 1 34.1374 1.25658 33.9899 1.64469L27.5482 18.5916C27.4739 18.7658 27.251 19.027 27.0281 19.027C26.7525 19.027 26.4769 18.0535 26.4383 17.912C26.4351 17.9002 26.4324 17.8889 26.4297 17.877L23.239 3.61261C22.6446 1.08709 19.5984 1.08709 17.741 1.08709C12.5402 1.08709 10.2369 4.91892 9.86546 5.87688L1.09838 28.8679C0.875489 29.4775 1.02408 30 1.61846 30H7.71084C8.23092 30 8.89959 29.4775 9.12248 28.8679L15.2149 12.7568C15.2892 12.5826 15.512 12.0601 15.8835 12.0601C16.1711 12.0601 16.3891 12.9571 16.4029 13.0151C16.4034 13.0171 16.4038 13.019 16.4043 13.021L19.6727 27.4745C20.1185 29.3033 22.3474 30 25.1707 30C30.3715 30 32.6747 26.1682 33.0462 25.2102L39.1386 9.01201C39.4358 8.4024 39.8073 7.79279 40.1044 7.53153C40.6245 7.0961 41.0703 7.0961 41.5161 7.0961H48.1418C48.2316 7.0961 48.3216 7.10685 48.4065 7.1363C49.5751 7.54171 50.0395 8.88945 49.4659 10.3183C48.8819 11.8585 47.3655 13.1465 45.8328 13.4388C45.7784 13.4492 45.7233 13.4535 45.668 13.4535C44.0567 13.4535 42.3334 13.4535 42.3334 13.4535C42.3334 13.4535 42.3334 13.4535 42.3334 13.4535C40.3385 13.4535 38.3437 14.7452 37.5909 16.6436C37.5825 16.6649 37.574 16.6849 37.5651 16.706C37.4628 16.9485 36.8236 18.6308 37.5783 21.2042L41.0352 29.3891C41.1916 29.7593 41.552 30 41.954 30C43.5155 30 47.4171 30 48.9458 30C50.6711 30 50.2628 28.6106 50.1559 28.3137C50.1422 28.2758 50.1245 28.2408 50.1044 28.206L46.1718 21.3981Z" stroke="white" stroke-width="2"/>
</svg>
