<svg width="25" height="25" viewBox="0 0 25 25" fill="none" xmlns="http://www.w3.org/2000/svg">
<path fill-rule="evenodd" clip-rule="evenodd" d="M8.83997 3.38249C10.9994 2.0954 14.204 1.49125 17.6531 2.52293C19.5331 3.08528 20.8725 4.2231 21.7464 5.44903C22.637 6.69837 23.0005 7.97572 23.0005 8.73771V8.74494V8.75219V8.75948V8.76679V8.77414V8.78151V8.78892V8.79635V8.80382V8.81131V8.81883V8.82639V8.83397V8.84158V8.84922V8.85689V8.86459V8.87232V8.88008V8.88787V8.89568V8.90352V8.9114V8.9193V8.92722V8.93518V8.94316V8.95118V8.95922V8.96729V8.97538V8.98351V8.99166V8.99984V9.00804V9.01628V9.02454V9.03283V9.04114V9.04948V9.05785V9.06625V9.07467V9.08312V9.09159V9.10009V9.10862V9.11717V9.12575V9.13436V9.14299V9.15165V9.16033V9.16904V9.17777V9.18653V9.19532V9.20413V9.21296V9.22182V9.23071V9.23962V9.24855V9.25751V9.26649V9.2755V9.28454V9.29359V9.30268V9.31178V9.32091V9.33006V9.33924V9.34844V9.35767V9.36691V9.37619V9.38548V9.3948V9.40414V9.41351V9.42289V9.4323V9.44174V9.45119V9.46067V9.47017V9.4797V9.48924V9.49881V9.5084V9.51801V9.52765V9.5373V9.54698V9.55668V9.5664V9.57615V9.58591V9.5957V9.6055V9.61533V9.62518V9.63505V9.64494V9.65485V9.66479V9.67474V9.68471V9.69471V9.70472V9.71476V9.72481V9.73488V9.74498V9.75509V9.76523V9.77538V9.78555V9.79575V9.80596V9.81619V9.82644V9.83671V9.847V9.85731V9.86763V9.87798V9.88834V9.89872V9.90913V9.91954V9.92998V9.94044V9.95091V9.9614V9.97191V9.98244V9.99298V10.0035V10.0141V10.0247V10.0353V10.046V10.0566V10.0673V10.078V10.0887V10.0994V10.1101V10.1209V10.1316V10.1424V10.1532V10.164V10.1749V10.1857V10.1966V10.2075V10.2184V10.2293V10.2402V10.2511V10.2621V10.2731V10.2841V10.2951V10.3061V10.3171V10.3282V10.3392V10.3503V10.3614V10.3725V10.3836V10.3947V10.4059V10.4171V10.4282V10.4394V10.4506V10.4619V10.4731V10.4843V10.4956V10.5069V10.5181V10.5294V10.5408V10.5521V10.5634V10.5748V10.5861V10.5975V10.6089V10.6203V10.6317V10.6431V10.6546V10.666V10.6775V10.689V10.7004V10.7119V10.7235V10.735V10.7465V10.758V10.7696V10.7812V10.7927V10.8043V10.8159V10.8275V10.8391V10.8508V10.8624V10.8741V10.8857V10.8974V10.9091V10.9208V10.9325V10.9442V10.9559V10.9676V10.9794V10.9911V11.0029V11.0146V11.0264V11.0382V11.05V11.0618V11.0736V11.0854V11.0973V11.1091V11.121V11.1328V11.1447V11.1565V11.1684V11.1803V11.1922V11.2041V11.216V11.2279V11.2399V11.2518V11.2637V11.2757V11.2876V11.2996V11.3116V11.3236V11.3355V11.3475V11.3595V11.3715V11.3835V11.3955V11.4076V11.4196V11.4316V11.4437V11.4557V11.4678V11.4798V11.4919V11.5039V11.516V11.5281V11.5402V11.5523V11.5644V11.5765V11.5886V11.6007V11.6128V11.6249V11.637V11.6491V11.6613V11.6734V11.6855V11.6977V11.7098V11.722V11.7341V11.7463V11.7584V11.7706V11.7828V11.7949V11.8071V11.8193V11.8315V11.8437V11.8558V11.868V11.8802V11.8924V11.9046V11.9168V11.929V11.9412V11.9534V11.9656V11.9778V11.99V12.0022V12.0144V12.0267V12.0389V12.0511V12.0633V12.0755V12.0877V12.1V12.1122V12.1244V12.1366V12.1489V12.1611V12.1733V12.1855V12.1978V12.21V12.2222V12.2344V12.2466V12.2589V12.2711V12.2833V12.2955V12.3078V12.32V12.3322V12.3444V12.3566V12.3689V12.3811V12.3933V12.4055V12.4177V12.4299V12.4421V12.4543V12.4665V12.4787V12.4909V12.5031V12.5153V12.5275V12.5397V12.5519V12.5641V12.5763V12.5885V12.6006V12.6128V12.625V12.6371V12.6493V12.6615V12.6736V12.6858V12.6979V12.7101V12.7222V12.7344V12.7465V12.7586V12.7708V12.7829V12.795V12.8071V12.8192V12.8313V12.8434V12.8555V12.8676V12.8797V12.8918V12.9038V12.9159V12.928V12.94V12.9521V12.9641V12.9762V12.9882V13.0002V13.0123V13.0243V13.0363V13.0483V13.0603V13.0723V13.0843V13.0962V13.1082V13.1202V13.1321V13.1441V13.156V13.168V13.1799V13.1918V13.2037V13.2156V13.2275V13.2394V13.2513V13.2632V13.275V13.2869V13.2988V13.3106V13.3224V13.3343V13.3461V13.3579V13.3697V13.3815V13.3932V13.405V13.4168V13.4285V13.4403V13.452V13.4637V13.4754V13.4871V13.4988V13.5105V13.5222V13.5339V13.5455V13.5572V13.5688V13.5804V13.592V13.6036V13.6152V13.6268V13.6384V13.6499V13.6615V13.673V13.6845V13.696V13.7075V13.719V13.7305V13.742V13.7534V13.7649V13.7763V13.7877V13.7991V13.8105V13.8219V13.8333V13.8446V13.856V13.8673V13.8786V13.8899V13.9012V13.9125V13.9237V13.935V13.9462V13.9574V13.9687V13.9799V13.991V14.0022V14.0134V14.0245V14.0356V14.0467V14.0578V14.0689V14.08V14.091V14.1021V14.1131V14.1241V14.1351V14.1461V14.157V14.168V14.1789V14.1898V14.2007V14.2116V14.2225V14.2333V14.2442V14.255V14.2658V14.2766V14.2874V14.2981V14.3089V14.3196V14.3303V14.341V14.3517C23.0005 15.171 22.5005 15.9068 21.7379 16.2093L4.95199 22.8674C4.18372 23.1721 3.50856 22.9355 3.22074 22.4535C2.91835 21.9471 2.60539 21.311 2.36371 20.5581C6.19129 19.8203 12.5788 16.9559 14.5237 9.68836C14.5736 9.50184 14.6191 9.27689 14.6275 9.03079C14.6587 8.11689 14.3763 6.58986 12.8576 6.09425C12.1579 5.86588 11.348 5.9285 10.4594 6.21996C9.56873 6.51213 8.52222 7.05853 7.2869 7.90841C6.35847 8.52153 5.31244 8.70798 4.35742 8.3373C5.59907 5.96037 6.86937 4.55706 8.83997 3.38249ZM2.36957 14.414C2.09219 15.9416 1.96025 17.4161 2.01023 18.5915C5.37106 17.9455 10.9208 15.415 12.5917 9.17133C12.6173 9.07556 12.6271 9.00843 12.6287 8.96247C12.6512 8.30432 12.4294 8.0583 12.2372 7.99557C12.0815 7.94476 11.7342 7.90665 11.0828 8.12033C10.4353 8.33271 9.56154 8.77044 8.41348 9.56095L8.40627 9.56591L8.39897 9.57075C6.99378 10.5025 5.19628 10.8615 3.52163 10.1593C3.05611 11.3796 2.64694 12.8864 2.36957 14.414ZM18.2262 0.606813C14.2468 -0.583501 10.4621 0.0872986 7.81598 1.66452C5.20046 3.22349 3.64098 5.16086 2.13824 8.30623C1.40256 9.84608 0.780769 11.9692 0.401745 14.0567C0.0251305 16.1308 -0.134784 18.2943 0.133388 19.896L0.135672 19.9097L0.138333 19.9232C0.428291 21.4026 0.980011 22.6021 1.50362 23.4789C2.4243 25.0206 4.26664 25.2908 5.6894 24.7265L22.4753 18.0684C23.9991 17.464 25.0005 15.9921 25.0005 14.3517V14.341V14.3303V14.3196V14.3089V14.2981V14.2874V14.2766V14.2658V14.255V14.2442V14.2333V14.2225V14.2116V14.2007V14.1898V14.1789V14.168V14.157V14.1461V14.1351V14.1241V14.1131V14.1021V14.091V14.08V14.0689V14.0578V14.0467V14.0356V14.0245V14.0134V14.0022V13.991V13.9799V13.9687V13.9574V13.9462V13.935V13.9237V13.9125V13.9012V13.8899V13.8786V13.8673V13.856V13.8446V13.8333V13.8219V13.8105V13.7991V13.7877V13.7763V13.7649V13.7534V13.742V13.7305V13.719V13.7075V13.696V13.6845V13.673V13.6615V13.6499V13.6384V13.6268V13.6152V13.6036V13.592V13.5804V13.5688V13.5572V13.5455V13.5339V13.5222V13.5105V13.4988V13.4871V13.4754V13.4637V13.452V13.4403V13.4285V13.4168V13.405V13.3932V13.3815V13.3697V13.3579V13.3461V13.3343V13.3224V13.3106V13.2988V13.2869V13.275V13.2632V13.2513V13.2394V13.2275V13.2156V13.2037V13.1918V13.1799V13.168V13.156V13.1441V13.1321V13.1202V13.1082V13.0962V13.0843V13.0723V13.0603V13.0483V13.0363V13.0243V13.0123V13.0002V12.9882V12.9762V12.9641V12.9521V12.94V12.928V12.9159V12.9038V12.8918V12.8797V12.8676V12.8555V12.8434V12.8313V12.8192V12.8071V12.795V12.7829V12.7708V12.7586V12.7465V12.7344V12.7222V12.7101V12.6979V12.6858V12.6736V12.6615V12.6493V12.6371V12.625V12.6128V12.6006V12.5885V12.5763V12.5641V12.5519V12.5397V12.5275V12.5153V12.5031V12.4909V12.4787V12.4665V12.4543V12.4421V12.4299V12.4177V12.4055V12.3933V12.3811V12.3689V12.3566V12.3444V12.3322V12.32V12.3078V12.2955V12.2833V12.2711V12.2589V12.2466V12.2344V12.2222V12.21V12.1978V12.1855V12.1733V12.1611V12.1489V12.1366V12.1244V12.1122V12.1V12.0877V12.0755V12.0633V12.0511V12.0389V12.0267V12.0144V12.0022V11.99V11.9778V11.9656V11.9534V11.9412V11.929V11.9168V11.9046V11.8924V11.8802V11.868V11.8558V11.8437V11.8315V11.8193V11.8071V11.7949V11.7828V11.7706V11.7584V11.7463V11.7341V11.722V11.7098V11.6977V11.6855V11.6734V11.6613V11.6491V11.637V11.6249V11.6128V11.6007V11.5886V11.5765V11.5644V11.5523V11.5402V11.5281V11.516V11.5039V11.4919V11.4798V11.4678V11.4557V11.4437V11.4316V11.4196V11.4076V11.3955V11.3835V11.3715V11.3595V11.3475V11.3355V11.3236V11.3116V11.2996V11.2876V11.2757V11.2637V11.2518V11.2399V11.2279V11.216V11.2041V11.1922V11.1803V11.1684V11.1565V11.1447V11.1328V11.121V11.1091V11.0973V11.0854V11.0736V11.0618V11.05V11.0382V11.0264V11.0146V11.0029V10.9911V10.9794V10.9676V10.9559V10.9442V10.9325V10.9208V10.9091V10.8974V10.8857V10.8741V10.8624V10.8508V10.8391V10.8275V10.8159V10.8043V10.7927V10.7812V10.7696V10.758V10.7465V10.735V10.7235V10.7119V10.7004V10.689V10.6775V10.666V10.6546V10.6431V10.6317V10.6203V10.6089V10.5975V10.5861V10.5748V10.5634V10.5521V10.5408V10.5294V10.5181V10.5069V10.4956V10.4843V10.4731V10.4619V10.4506V10.4394V10.4282V10.4171V10.4059V10.3947V10.3836V10.3725V10.3614V10.3503V10.3392V10.3282V10.3171V10.3061V10.2951V10.2841V10.2731V10.2621V10.2511V10.2402V10.2293V10.2184V10.2075V10.1966V10.1857V10.1749V10.164V10.1532V10.1424V10.1316V10.1209V10.1101V10.0994V10.0887V10.078V10.0673V10.0566V10.046V10.0353V10.0247V10.0141V10.0035V9.99298V9.98244V9.97191V9.9614V9.95091V9.94044V9.92998V9.91954V9.90913V9.89872V9.88834V9.87798V9.86763V9.85731V9.847V9.83671V9.82644V9.81619V9.80596V9.79575V9.78555V9.77538V9.76523V9.75509V9.74498V9.73488V9.72481V9.71476V9.70472V9.69471V9.68471V9.67474V9.66479V9.65485V9.64494V9.63505V9.62518V9.61533V9.6055V9.5957V9.58591V9.57615V9.5664V9.55668V9.54698V9.5373V9.52765V9.51801V9.5084V9.49881V9.48924V9.4797V9.47017V9.46067V9.45119V9.44174V9.4323V9.42289V9.41351V9.40414V9.3948V9.38548V9.37619V9.36691V9.35767V9.34844V9.33924V9.33006V9.32091V9.31178V9.30268V9.29359V9.28454V9.2755V9.26649V9.25751V9.24855V9.23962V9.23071V9.22182V9.21296V9.20413V9.19532V9.18653V9.17777V9.16904V9.16033V9.15165V9.14299V9.13436V9.12575V9.11717V9.10862V9.10009V9.09159V9.08312V9.07467V9.06625V9.05785V9.04948V9.04114V9.03283V9.02454V9.01628V9.00804V8.99984V8.99166V8.98351V8.97538V8.96729V8.95922V8.95118V8.94316V8.93518V8.92722V8.9193V8.9114V8.90352V8.89568V8.88787V8.88008V8.87232V8.86459V8.85689V8.84922V8.84158V8.83397V8.82639V8.81883V8.81131V8.80382V8.79635V8.78892V8.78151V8.77414V8.76679V8.75948V8.75219V8.74494V8.73771C25.0005 7.47701 24.4544 5.80232 23.375 4.28811C22.2789 2.75049 20.5879 1.31324 18.2262 0.606813ZM17.9766 13.0374C17.9766 12.5386 18.3846 12.125 18.8994 12.125C19.4141 12.125 19.8221 12.5386 19.8221 13.0374C19.8221 13.5362 19.4141 13.9498 18.8994 13.9498C18.3846 13.9498 17.9766 13.5362 17.9766 13.0374ZM18.8994 10.125C17.2903 10.125 15.9766 11.4238 15.9766 13.0374C15.9766 14.651 17.2903 15.9498 18.8994 15.9498C20.5085 15.9498 21.8221 14.651 21.8221 13.0374C21.8221 11.4238 20.5085 10.125 18.8994 10.125Z" fill="white"/>
</svg>
