<svg width="115" height="69" viewBox="0 0 115 69" version="1.1" xmlns="http://www.w3.org/2000/svg" xmlns:xlink="http://www.w3.org/1999/xlink">
<title>track A</title>
<desc>Created using Figma</desc>
<g id="Canvas" transform="translate(43249 23504)">
<g id="track A">
<g id="Vector 2">
<use xlink:href="#path0_stroke" transform="matrix(0.999954 0.00960248 -0.00960248 0.999954 -43231.4 -23496.7)" fill="#4F4F4F"/>
</g>
<g id="Vector 2">
<use xlink:href="#path1_stroke" transform="matrix(0.999954 0.00960248 -0.00960248 0.999954 -43197.1 -23480.2)" fill="#4F4F4F"/>
</g>
<g id="Vector 2">
<use xlink:href="#path2_stroke" transform="matrix(0.999954 0.00960248 -0.00960248 0.999954 -43176.3 -23456)" fill="#4F4F4F"/>
</g>
<g id="Vector">
<use xlink:href="#path3_stroke" transform="matrix(0.999954 0.00960248 -0.00960248 0.999954 -43226.6 -23502.8)" fill="#4F4F4F"/>
</g>
<g id="Vector 2">
<use xlink:href="#path4_stroke" transform="matrix(0.999954 0.00960248 -0.00960248 0.999954 -43169.5 -23461.7)" fill="#4F4F4F"/>
</g>
<g id="Vector 3">
<use xlink:href="#path5_stroke" transform="matrix(0.999954 0.00960248 -0.00960248 0.999954 -43162.5 -23458.1)" fill="#4F4F4F"/>
</g>
<g id="Vector">
<use xlink:href="#path6_stroke" transform="matrix(0.999954 0.00960248 -0.00960248 0.999954 -43247.4 -23496.9)" fill="#4F4F4F"/>
</g>
<g id="Vector">
<use xlink:href="#path7_stroke" transform="matrix(0.999883 0.015275 -0.015275 0.999883 -43196.5 -23481)" fill="#FF0000"/>
</g>
</g>
</g>
<defs>
<path id="path0_stroke" d="M 19.4227 16.3859L 19.3742 17.1344L 19.4227 16.3859ZM 32.6558 8.9176L 32.3026 9.5792L 32.6558 8.9176ZM 7.31369 0.374933L 7.10886 -0.346555L 7.31369 0.374933ZM -0.19781 13.5909C 0.300756 15.1915 1.49676 16.1536 2.98536 16.7059C 4.44798 17.2486 6.25224 17.4222 8.1287 17.4439C 10.0129 17.4658 12.0496 17.3337 13.9869 17.2256C 15.9425 17.1164 17.7938 17.0319 19.3742 17.1344L 19.4713 15.6375C 17.787 15.5283 15.848 15.6193 13.9033 15.7279C 11.9403 15.8374 9.96673 15.9652 8.14611 15.944C 6.31777 15.9228 4.72275 15.7506 3.50714 15.2996C 2.31751 14.8582 1.55634 14.1787 1.23432 13.1448L -0.19781 13.5909ZM 19.3742 17.1344C 22.8884 17.3622 25.2743 17.5826 26.9342 17.6657C 28.6018 17.7492 29.7187 17.7093 30.7154 17.3464L 30.2023 15.9369C 29.5129 16.1879 28.6627 16.2503 27.0092 16.1676C 25.3482 16.0844 23.059 15.8701 19.4713 15.6375L 19.3742 17.1344ZM 30.7154 17.3464C 31.0755 17.2153 31.3895 16.9649 31.6503 16.6968C 31.9184 16.4213 32.1724 16.0832 32.4055 15.7155C 32.8718 14.9801 33.2911 14.0681 33.592 13.1517C 33.8907 12.2416 34.0894 11.2762 34.0755 10.4401C 34.0625 9.65107 33.8478 8.70384 33.0091 8.25601L 32.3026 9.5792C 32.3835 9.62242 32.5649 9.8095 32.5757 10.4649C 32.5858 11.0732 32.4364 11.8624 32.1668 12.6838C 31.8992 13.4989 31.5298 14.2954 31.1387 14.9124C 30.9431 15.2208 30.7512 15.4699 30.5752 15.6509C 30.3919 15.8392 30.2637 15.9146 30.2023 15.9369L 30.7154 17.3464ZM 33.0091 8.25601C 31.253 7.31837 26.846 4.56159 21.949 2.37107C 19.4882 1.27032 16.8636 0.292184 14.3262 -0.263941C 11.7968 -0.818302 9.29402 -0.96693 7.10886 -0.346555L 7.51852 1.09642C 9.36974 0.570853 11.5965 0.673384 14.0051 1.20128C 16.4056 1.72741 18.9273 2.66263 21.3365 3.74033C 26.1796 5.90671 30.4073 8.5672 32.3026 9.5792L 33.0091 8.25601ZM 7.10886 -0.346555C 0.452795 1.54312 -1.94221 7.99072 -0.19781 13.5909L 1.23432 13.1448C -0.303625 8.20741 1.81022 2.71703 7.51852 1.09642L 7.10886 -0.346555Z"/>
<path id="path1_stroke" d="M 5.8757 4.95307L 5.16879 5.20362L 5.8757 4.95307ZM 6.53991 0.502734L 6.18049 -0.155535L 6.53991 0.502734ZM -0.641293 7.03002C 0.0817896 8.22238 1.58999 9.13032 3.37214 9.13032L 3.37214 7.63032C 2.08245 7.63032 1.07632 6.96957 0.641293 6.25222L -0.641293 7.03002ZM 3.37214 9.13032C 4.38395 9.13032 5.37824 8.61652 6.02249 7.83395C 6.68315 7.03146 7.00808 5.90297 6.58261 4.70252L 5.16879 5.20362C 5.396 5.84469 5.23554 6.42982 4.86445 6.88058C 4.47695 7.35126 3.89312 7.63032 3.37214 7.63032L 3.37214 9.13032ZM 6.58261 4.70252C 6.24603 3.75285 6.10407 2.95334 6.16734 2.34531C 6.22631 1.77855 6.45485 1.40369 6.89933 1.161L 6.18049 -0.155535C 5.23226 0.362206 4.77647 1.21868 4.67539 2.19007C 4.57861 3.12018 4.8009 4.16563 5.16879 5.20362L 6.58261 4.70252ZM 6.89933 1.161C 7.42976 0.871385 8.19747 0.744889 9.12718 0.750159C 10.042 0.755344 11.0264 0.886343 11.9345 1.0379L 12.1814 -0.441643C 11.2502 -0.597046 10.1719 -0.743944 9.13568 -0.749817C 8.11436 -0.755606 7.04272 -0.62632 6.18049 -0.155535L 6.89933 1.161Z"/>
<path id="path2_stroke" d="M 5.11584 -0.152241C 5.03162 0.253984 4.85745 0.843424 4.60837 1.35153C 4.48417 1.6049 4.35224 1.81548 4.22036 1.969C 4.08572 2.12572 3.98376 2.18526 3.92673 2.20429L 4.40157 3.62715C 4.80438 3.49272 5.11968 3.22403 5.35813 2.94648C 5.59933 2.66573 5.79631 2.33601 5.95525 2.01177C 6.27246 1.36468 6.48148 0.649718 6.58461 0.152241L 5.11584 -0.152241ZM 3.92673 2.20429C 3.8026 2.24572 3.59028 2.27182 3.22702 2.297C 2.90133 2.31957 2.47622 2.34097 2.0605 2.40452C 1.23306 2.53102 0.177842 2.86237 -0.346479 3.97779L 1.01102 4.61591C 1.20806 4.19674 1.60894 3.99098 2.28719 3.88729C 2.62431 3.83575 2.96443 3.81879 3.33073 3.79341C 3.65945 3.77062 4.06587 3.73918 4.40157 3.62715L 3.92673 2.20429ZM -0.346479 3.97779C -0.793543 4.92886 -0.792283 5.90638 -0.703418 6.76543C -0.659289 7.19202 -0.589134 7.62217 -0.532622 8.00349C -0.474253 8.39735 -0.428511 8.7502 -0.417295 9.0796L 1.08184 9.02855C 1.06751 8.60771 1.0103 8.18261 0.951172 7.7836C 0.89018 7.37204 0.828274 6.99441 0.78862 6.61108C 0.709918 5.85028 0.736725 5.19943 1.01102 4.61591L -0.346479 3.97779Z"/>
<path id="path3_stroke" d="M 0.356559 -0.659822C -0.00785052 -0.856745 -0.4629 -0.720969 -0.659822 -0.356559C -0.856745 0.00785052 -0.720969 0.4629 -0.356559 0.659822L 0.356559 -0.659822ZM 90.8956 49.9713C 91.26 50.1682 91.7151 50.0324 91.912 49.668C 92.1089 49.3036 91.9731 48.8486 91.6087 48.6516L 90.8956 49.9713ZM -0.356559 0.659822L 90.8956 49.9713L 91.6087 48.6516L 0.356559 -0.659822L -0.356559 0.659822Z"/>
<path id="path4_stroke" d="M 0.496543 13.913C 1.34681 13.1619 2.74982 12.0495 4.23012 10.8711C 5.69698 9.70336 7.23396 8.47524 8.31449 7.51826L 7.31998 6.39535C 6.27504 7.3208 4.77199 8.52245 3.29589 9.69753C 1.83323 10.8619 0.390354 12.0054 -0.496543 12.7888L 0.496543 13.913ZM 8.31449 7.51826C 10.4379 5.63765 14.0712 1.96429 15.5849 0.547596L 14.56 -0.547596C 12.94 0.96848 9.4475 4.5111 7.31998 6.39535L 8.31449 7.51826Z"/>
<path id="path5_stroke" d="M 1.94154 5.72911L 1.9728 4.97976L 1.94154 5.72911ZM 16.1965 1.79035L 16.7429 2.30406L 16.1965 1.79035ZM -0.69056 4.28253C -0.543581 4.62939 -0.259608 5.1313 0.142162 5.56491C 0.535089 5.98899 1.13424 6.44609 1.91028 6.47846L 1.9728 4.97976C 1.76784 4.97122 1.51545 4.84006 1.24246 4.54543C 0.978317 4.26035 0.782015 3.91312 0.69056 3.69729L -0.69056 4.28253ZM 1.91028 6.47846C 2.33661 6.49625 2.827 6.40027 3.30781 6.26212C 3.80137 6.12032 4.34062 5.91739 4.88386 5.68193C 5.96953 5.21137 7.11742 4.59066 8.02064 4.00554L 7.20509 2.74662C 6.37115 3.28686 5.29649 3.86825 4.28734 4.30565C 3.78317 4.52417 3.30695 4.70169 2.89361 4.82045C 2.46752 4.94287 2.15957 4.98756 1.9728 4.97976L 1.91028 6.47846ZM 8.02064 4.00554C 8.48951 3.70179 8.87872 3.39347 9.21392 3.12256C 9.55977 2.84306 9.82415 2.62403 10.0906 2.44713C 10.5634 2.1332 10.993 1.98144 11.714 2.11801L 11.9932 0.644211C 10.8237 0.422704 10.0015 0.705746 9.2609 1.19748C 8.92061 1.42341 8.58784 1.69992 8.27108 1.95593C 7.94367 2.22053 7.6048 2.48768 7.20509 2.74662L 8.02064 4.00554ZM 11.714 2.11801C 12.1512 2.20081 12.5803 2.31745 13.0092 2.43968C 13.4257 2.55839 13.8631 2.68889 14.2645 2.77821C 15.0121 2.94454 16.0254 3.06739 16.7429 2.30406L 15.65 1.27665C 15.5501 1.38292 15.3372 1.48019 14.5903 1.31401C 14.2445 1.23707 13.8676 1.12459 13.4203 0.997123C 12.9854 0.873173 12.5012 0.740446 11.9932 0.644211L 11.714 2.11801ZM 16.7429 2.30406C 17.4637 1.53733 17.9435 0.675354 18.1082 0.304306L 16.7372 -0.304306C 16.6295 -0.0615181 16.2372 0.652019 15.65 1.27665L 16.7429 2.30406Z"/>
<path id="path6_stroke" d="M 16.3029 13.0653L 15.5813 13.2699L 15.5887 13.2961L 15.5981 13.3218L 16.3029 13.0653ZM 42.9601 5.83443L 43.3072 5.16961L 43.3066 5.16929L 42.9601 5.83443ZM 55.1475 12.4988L 54.7878 13.157L 54.7904 13.1584L 55.1475 12.4988ZM 88.253 26.1275L 88.9918 26.2564L 88.9918 26.2563L 88.253 26.1275ZM 64.1551 24.7947L 63.7631 25.4341L 63.7776 25.4429L 63.7925 25.4512L 64.1551 24.7947ZM 60.5653 25.5944L 61.1789 26.0258L 61.1852 26.0167L 61.1913 26.0075L 60.5653 25.5944ZM 66.9471 37.4681L 67.5423 37.0117L 67.5379 37.0059L 67.5334 37.0003L 66.9471 37.4681ZM 71.5673 38.5788L 71.3694 37.8554L 71.3046 37.8731L 71.244 37.902L 71.5673 38.5788ZM 78.9019 43.0217L 78.1694 43.1831L 78.1736 43.2019L 78.1787 43.2205L 78.9019 43.0217ZM 33.1215 16.9862L 33.4984 17.6346L 33.5041 17.6312L 33.1215 16.9862ZM 30.2519 21.6179L 29.5036 21.5684L 29.5027 21.5819L 29.5023 21.5954L 30.2519 21.6179ZM 33.1991 26.694L 33.5601 26.0365L 33.5504 26.0314L 33.1991 26.694ZM 60.931 55.9729L 61.6325 56.2382L 61.6391 56.2208L 61.6448 56.2031L 60.931 55.9729ZM 58.9034 59.4494L 59.4791 59.9302L 59.4797 59.9294L 58.9034 59.4494ZM 5.66656 30.6482L 6.38949 30.8479L 6.39829 30.816L 6.40426 30.7835L 5.66656 30.6482ZM 9.05688 26.0942L 9.39744 26.7624L 9.4173 26.7523L 9.43652 26.741L 9.05688 26.0942ZM 16.7128 18.9855L 17.4334 19.1934L 17.4407 19.1681L 17.4462 19.1423L 16.7128 18.9855ZM 17.0244 12.8607C 16.7571 11.918 16.4693 9.57964 17.1605 7.19444C 17.8387 4.85415 19.4539 2.46742 23.0334 1.2697L 22.5574 -0.15278C 18.4446 1.22338 16.5144 4.03488 15.7198 6.77695C 14.9382 9.4741 15.2503 12.1023 15.5813 13.2699L 17.0244 12.8607ZM 23.0334 1.2697C 26.6111 0.0725801 31.0817 1.1152 34.9581 2.65345C 38.8158 4.18431 41.8384 6.09575 42.6135 6.49958L 43.3066 5.16929C 42.6746 4.84004 39.461 2.82655 35.5113 1.25922C 31.5803 -0.300717 26.672 -1.52954 22.5574 -0.15278L 23.0334 1.2697ZM 42.6129 6.49926C 47.9247 9.27278 51.5749 11.4011 54.7878 13.157L 55.5072 11.8407C 52.3383 10.1089 48.6317 7.94975 43.3072 5.16961L 42.6129 6.49926ZM 54.7904 13.1584C 63.63 17.9437 78.5516 26.2576 81.5049 27.7825L 82.1931 26.4496C 79.2522 24.9312 64.3921 16.6506 55.5045 11.8393L 54.7904 13.1584ZM 81.5049 27.7825C 82.1926 28.1375 82.9768 28.581 83.653 28.9115C 84.3431 29.2489 85.0753 29.5506 85.7782 29.6289C 86.5225 29.7118 87.2723 29.5451 87.8753 28.9185C 88.4356 28.3362 88.7854 27.4396 88.9918 26.2564L 87.5141 25.9986C 87.3272 27.0701 87.0482 27.6147 86.7945 27.8784C 86.5835 28.0976 86.3342 28.1815 85.9442 28.1381C 85.5128 28.0901 84.9757 27.8885 84.3117 27.5639C 83.6338 27.2325 82.979 26.8554 82.1931 26.4496L 81.5049 27.7825ZM 88.9918 26.2563C 89.3295 24.3196 89.755 23.0221 90.4704 22.2531C 91.1227 21.5519 92.1455 21.1661 94.0682 21.428L 94.2706 19.9418C 92.0776 19.643 90.4801 20.0403 89.3721 21.2314C 88.3271 22.3547 87.8523 24.0589 87.5141 25.9987L 88.9918 26.2563ZM 94.0682 21.428C 97.7458 21.9291 99.2999 24.9512 98.8185 27.3695L 100.29 27.6624C 100.936 24.4158 98.8244 20.5622 94.2706 19.9418L 94.0682 21.428ZM 98.8185 27.3695C 98.3115 29.9156 96.3413 32.6838 92.0645 34.0782L 92.5294 35.5043C 97.2812 33.955 99.6686 30.781 100.29 27.6624L 98.8185 27.3695ZM 92.0645 34.0782C 90.0324 34.7407 87.0115 34.4097 83.7456 33.4832C 80.5169 32.5672 77.1952 31.1125 74.6467 29.6931L 73.9168 31.0036C 76.5535 32.4721 79.9823 33.9747 83.3363 34.9262C 86.6531 35.8672 90.0473 36.3136 92.5294 35.5043L 92.0645 34.0782ZM 74.6467 29.6931C 69.4682 26.8089 65.5837 24.727 64.5178 24.1382L 63.7925 25.4512C 64.8981 26.0619 68.7249 28.1119 73.9168 31.0036L 74.6467 29.6931ZM 64.5471 24.1553C 63.7961 23.6948 62.8959 23.5443 62.0361 23.7358L 62.3623 25.2C 62.8416 25.0932 63.3438 25.177 63.7631 25.4341L 64.5471 24.1553ZM 62.0361 23.7358C 61.1764 23.9274 60.4249 24.4458 59.9394 25.1812L 61.1913 26.0075C 61.4629 25.5961 61.8828 25.3068 62.3623 25.2L 62.0361 23.7358ZM 59.9518 25.163C 59.372 25.9876 59.1665 26.8135 59.4186 27.7521C 59.6459 28.5984 60.2347 29.4772 61.011 30.4928L 62.2027 29.5818C 61.4167 28.5536 61.0084 27.8885 60.8673 27.3631C 60.751 26.9299 60.8058 26.5562 61.1789 26.0258L 59.9518 25.163ZM 61.011 30.4928C 61.7812 31.5004 62.9073 33.0945 63.9504 34.576C 64.9794 36.0375 65.9436 37.413 66.3609 37.9359L 67.5334 37.0003C 67.1529 36.5235 66.2281 35.2055 65.1769 33.7125C 64.1398 32.2394 62.9947 30.618 62.2027 29.5818L 61.011 30.4928ZM 66.352 37.9245C 66.9834 38.7479 67.8778 39.3295 68.8859 39.5718L 69.2366 38.1134C 68.563 37.9515 67.9649 37.5627 67.5423 37.0117L 66.352 37.9245ZM 68.8859 39.5718C 69.8941 39.8142 70.9547 39.7026 71.8905 39.2556L 71.244 37.902C 70.6186 38.2008 69.9101 38.2753 69.2366 38.1134L 68.8859 39.5718ZM 71.7652 39.3022C 72.44 39.1176 73.1453 39.0724 73.8381 39.1693L 74.0458 37.6837C 73.1512 37.5586 72.2407 37.6171 71.3694 37.8554L 71.7652 39.3022ZM 73.8381 39.1693C 74.5309 39.2661 75.197 39.5031 75.7958 39.8658L 76.573 38.5829C 75.8001 38.1147 74.9403 37.8088 74.0458 37.6837L 73.8381 39.1693ZM 75.7958 39.8658C 76.3947 40.2286 76.914 40.7096 77.322 41.2799L 78.5418 40.4069C 78.0156 39.6716 77.3458 39.051 76.573 38.5829L 75.7958 39.8658ZM 77.322 41.2799C 77.7301 41.8501 78.0184 42.4976 78.1694 43.1831L 79.6343 42.8604C 79.4397 41.977 79.0681 41.1422 78.5418 40.4069L 77.322 41.2799ZM 78.1787 43.2205C 78.6781 45.038 78.3115 46.5105 77.4841 47.4804C 76.6533 48.4544 75.2663 49.0292 73.5109 48.8618L 73.3685 50.355C 75.5289 50.5611 77.427 49.8586 78.6253 48.4539C 79.8271 47.045 80.2336 45.0374 79.6251 42.823L 78.1787 43.2205ZM 73.5109 48.8618C 71.8272 48.7011 70.1657 47.5797 68.3989 45.7937C 66.6396 44.0152 64.9103 41.7229 63.0335 39.3925L 61.8652 40.3333C 63.6941 42.6043 65.502 44.9981 67.3325 46.8486C 69.1555 48.6915 71.1364 50.1421 73.3685 50.355L 73.5109 48.8618ZM 63.0335 39.3925C 59.3516 34.8205 51.1247 22.3938 50.0708 20.86L 48.8345 21.7095C 49.8413 23.1746 58.1357 35.7022 61.8652 40.3333L 63.0335 39.3925ZM 50.0708 20.86C 49.0932 19.4373 47.401 16.1907 42.9323 16.092L 42.8992 17.5916C 46.4742 17.6706 47.7513 20.1332 48.8345 21.7095L 50.0708 20.86ZM 42.9323 16.092C 40.914 16.0474 39.057 15.8118 37.2527 15.7152C 36.3828 15.6686 35.5482 15.658 34.798 15.7366C 34.0519 15.8149 33.3371 15.9863 32.7389 16.3411L 33.5041 17.6312C 33.8421 17.4307 34.3169 17.2953 34.9544 17.2285C 35.5878 17.162 36.3306 17.168 37.1725 17.2131C 38.7917 17.2998 40.8957 17.5473 42.8992 17.5916L 42.9323 16.092ZM 32.7446 16.3378C 31.8176 16.8767 31.0373 17.6357 30.4722 18.5478L 31.7473 19.3378C 32.183 18.6345 32.7844 18.0497 33.4984 17.6346L 32.7446 16.3378ZM 30.4722 18.5478C 29.9071 19.4599 29.5745 20.4972 29.5036 21.5684L 31.0003 21.6675C 31.055 20.8411 31.3116 20.0411 31.7473 19.3378L 30.4722 18.5478ZM 29.5023 21.5954C 29.467 22.7729 29.7616 23.9368 30.3528 24.9551L 31.65 24.2019C 31.1994 23.4257 30.9747 22.5383 31.0016 21.6404L 29.5023 21.5954ZM 30.3528 24.9551C 30.944 25.9734 31.8083 26.8054 32.8477 27.3566L 33.5504 26.0314C 32.7591 25.6118 32.1006 24.978 31.65 24.2019L 30.3528 24.9551ZM 32.838 27.3514C 35.3809 28.7479 41.5923 32.2555 43.5516 33.3762L 44.2964 32.0742C 42.3335 30.9513 36.1137 27.4391 33.5601 26.0366L 32.838 27.3514ZM 43.5516 33.3762C 44.0376 33.6543 44.4535 33.8719 44.7352 34.029C 45.0341 34.1957 45.2492 34.3295 45.4618 34.5007C 45.8978 34.8518 46.3805 35.404 47.4214 36.8047L 48.6254 35.91C 47.5945 34.5228 47.008 33.8199 46.4025 33.3323C 46.0944 33.0842 45.7956 32.9029 45.4657 32.7189C 45.1188 32.5255 44.7909 32.3571 44.2964 32.0742L 43.5516 33.3762ZM 47.4214 36.8047C 49.4893 39.5872 56.4454 49.4105 57.9733 51.5347L 59.191 50.6589C 57.683 48.5623 50.7012 38.7033 48.6254 35.91L 47.4214 36.8047ZM 57.9733 51.5347C 58.78 52.6564 59.4231 53.4193 59.8593 54.1548C 60.2716 54.8499 60.3584 55.3047 60.2172 55.7427L 61.6448 56.2031C 61.98 55.1637 61.6513 54.2357 61.1495 53.3896C 60.6717 52.584 59.9021 51.6476 59.191 50.6589L 57.9733 51.5347ZM 60.2295 55.7075C 59.7809 56.8935 59.1379 57.996 58.3271 58.9695L 59.4797 59.9294C 60.3973 58.8277 61.1249 57.5801 61.6325 56.2382L 60.2295 55.7075ZM 58.3278 58.9687C 58.1538 59.177 57.971 59.3174 57.802 59.3415C 57.7026 59.3556 57.359 59.3636 56.7664 58.6487L 55.6116 59.606C 56.3817 60.5351 57.1959 60.9429 58.0134 60.8265C 58.7612 60.72 59.2542 60.1995 59.4791 59.9302L 58.3278 58.9687ZM 56.7664 58.6487C 55.3891 56.9874 41.645 42.328 39.8463 40.3608L 38.7393 41.373C 40.5968 43.4045 54.2632 57.9796 55.6116 59.606L 56.7664 58.6487ZM 39.8463 40.3608C 38.8329 39.2525 36.9569 37.9739 34.574 37.5318C 32.1594 37.0838 29.2648 37.5036 26.2884 39.7459L 27.191 40.9439C 29.8319 38.9544 32.2998 38.6355 34.3004 39.0066C 36.3326 39.3837 37.9245 40.482 38.7393 41.373L 39.8463 40.3608ZM 26.2884 39.7459C 20.6597 43.9864 8.99676 52.8833 7.24705 54.1822L 8.14116 55.3866C 9.89256 54.0864 21.5852 45.1672 27.191 40.9439L 26.2884 39.7459ZM 7.24705 54.1822C 6.34856 54.8492 5.52199 55.4559 4.65646 55.7427C 3.85428 56.0086 3.01863 55.9984 2.0463 55.3577L 1.22097 56.6102C 2.60857 57.5246 3.92787 57.5644 5.12831 57.1666C 6.26539 56.7898 7.2891 56.0192 8.14116 55.3866L 7.24705 54.1822ZM 2.0463 55.3577C 1.5345 55.0205 1.22686 54.6831 1.04039 54.354C 0.854962 54.0268 0.76531 53.6656 0.751801 53.2429C 0.723044 52.3432 1.02966 51.2985 1.40505 49.9032L -0.0434469 49.5135C -0.388226 50.7951 -0.785154 52.1107 -0.747434 53.2908C -0.727705 53.9081 -0.591612 54.5166 -0.264614 55.0936C 0.0613422 55.6688 0.552804 56.17 1.22097 56.6102L 2.0463 55.3577ZM 1.40505 49.9032C 2.13283 47.198 5.98891 32.298 6.38949 30.8479L 4.94364 30.4485C 4.54649 31.8862 0.6691 46.865 -0.0434469 49.5135L 1.40505 49.9032ZM 6.40426 30.7835C 6.56129 29.9273 6.91314 29.1192 7.43233 28.4218L 6.22915 27.5261C 5.57233 28.4083 5.12741 29.4304 4.92887 30.5129L 6.40426 30.7835ZM 7.43233 28.4218C 7.95152 27.7244 8.62402 27.1566 9.39744 26.7624L 8.71632 25.426C 7.73705 25.9251 6.88598 26.6438 6.22915 27.5261L 7.43233 28.4218ZM 9.43652 26.741C 10.6536 26.0267 12.3831 25.1966 13.8707 24.0813C 15.3963 22.9375 16.792 21.4165 17.4334 19.1934L 15.9922 18.7776C 15.4703 20.5864 14.3343 21.8589 12.9709 22.8811C 11.5696 23.9317 10.0527 24.6401 8.67724 25.4474L 9.43652 26.741ZM 17.4462 19.1423C 17.8975 17.0319 17.7455 14.8366 17.0076 12.8088L 15.5981 13.3218C 16.2396 15.0848 16.3718 16.9936 15.9794 18.8287L 17.4462 19.1423Z"/>
<path id="path7_stroke" d="M 37.5783 10.2566L 38.8094 10.473L 38.8094 10.4728L 37.5783 10.2566ZM 2.78084 8.56279L 2.60286 7.32553L 2.78084 8.56279ZM 7.19433 0.0882256L 7.35398 1.32799L 7.19433 0.0882256ZM 13.7453 3.22373C 17.2945 5.1427 27.4309 10.7071 30.4776 12.2684L 31.6177 10.0435C 28.6031 8.49868 18.5306 2.96899 14.9343 1.02458L 13.7453 3.22373ZM 30.4776 12.2684C 30.8404 12.4543 31.1999 12.6501 31.5684 12.8503C 31.9313 13.0475 32.3049 13.2501 32.6706 13.4343C 33.3773 13.7902 34.1813 14.1452 34.9781 14.2533C 35.8441 14.3707 36.7808 14.2014 37.5351 13.4326C 38.2123 12.7422 38.5915 11.713 38.8094 10.473L 36.3472 10.0402C 36.1606 11.1014 35.9 11.5294 35.7505 11.6818C 35.6779 11.7558 35.6009 11.8148 35.3141 11.7759C 34.9582 11.7277 34.4707 11.5417 33.7951 11.2014C 33.4697 11.0376 33.1295 10.8534 32.762 10.6537C 32.4001 10.457 32.0126 10.2459 31.6177 10.0435L 30.4776 12.2684ZM 38.8094 10.4728C 39.1563 8.49815 39.5774 7.30626 40.2058 6.6358C 40.7308 6.07576 41.601 5.68451 43.4948 5.94057L 43.8298 3.46312C 41.4913 3.14692 39.6671 3.55487 38.3818 4.92617C 37.2 6.18706 36.6953 8.05867 36.3471 10.0403L 38.8094 10.4728ZM 43.4948 5.94057C 45.2761 6.18143 46.4153 6.99655 47.0999 7.99268C 47.8035 9.01659 48.0797 10.3126 47.9557 11.5489L 50.4432 11.7983C 50.6181 10.0543 50.2418 8.1506 49.1602 6.57676C 48.0596 4.97515 46.2808 3.79453 43.8298 3.46312L 43.4948 5.94057ZM 47.9557 11.5489C 47.7167 13.9332 46.1757 15.1919 44.4991 16.4094L 45.968 18.4323C 47.6539 17.2081 50.0847 15.3746 50.4432 11.7983L 47.9557 11.5489ZM 44.4991 16.4094C 44.0524 16.7337 43.6596 17.2685 43.6953 17.9874C 43.7254 18.5954 44.0581 19.0575 44.309 19.3376C 44.824 19.9125 45.6486 20.4303 46.4153 20.854C 47.2206 21.299 48.1233 21.725 48.909 22.0854C 49.7253 22.4599 50.3697 22.7439 50.7572 22.9428L 51.8992 20.7189C 51.446 20.4862 50.6982 20.1557 49.9514 19.8131C 49.174 19.4565 48.3429 19.0629 47.6245 18.6659C 46.8675 18.2476 46.3786 17.9011 46.1711 17.6695C 46.0608 17.5464 46.1801 17.6198 46.1922 17.8635C 46.2098 18.2182 45.9943 18.4132 45.968 18.4323L 44.4991 16.4094ZM 50.7572 22.9428C 50.8321 22.9813 50.8396 23.0019 50.8235 22.9814C 50.805 22.9577 50.7867 22.9195 50.7799 22.8784C 50.7683 22.8086 50.8013 22.8421 50.7161 22.9721C 50.636 23.0944 50.502 23.2167 50.349 23.2918C 50.2003 23.3648 50.0897 23.3678 50.0233 23.353L 49.4807 25.7934C 50.908 26.1107 52.1969 25.2737 52.8072 24.3422C 53.1292 23.8508 53.3659 23.1869 53.2458 22.4672C 53.1168 21.6933 52.6139 21.0859 51.8992 20.7189L 50.7572 22.9428ZM 50.0233 23.353C 49.7274 23.2872 49.4121 23.1692 48.9502 23.0019C 48.5231 22.8473 47.994 22.6607 47.4152 22.5518C 46.1704 22.3176 44.7694 22.4582 43.2776 23.5714L 44.7726 25.5751C 45.6451 24.924 46.3195 24.8895 46.9529 25.0087C 47.3133 25.0765 47.6741 25.1988 48.0992 25.3526C 48.4894 25.4939 48.9885 25.684 49.4807 25.7934L 50.0233 23.353ZM 43.2776 23.5714C 42.1482 24.4141 40.7369 25.3032 39.4574 25.9559C 38.8171 26.2826 38.2346 26.5372 37.7537 26.6986C 37.5139 26.779 37.3163 26.8305 37.1612 26.8582C 37.0847 26.8719 37.0255 26.8786 36.9819 26.8811C 36.9376 26.8837 36.9181 26.8816 36.9188 26.8817L 36.6302 29.3649C 37.2578 29.4379 37.9529 29.2687 38.5488 29.0688C 39.186 28.855 39.8875 28.543 40.5935 28.1828C 42.0068 27.4619 43.5377 26.4966 44.7726 25.5751L 43.2776 23.5714ZM 10.6703 7.31655C 9.52612 7.40542 8.36604 8.25374 7.81399 9.48155C 7.21507 10.8136 7.34917 12.4839 8.5259 14.2095L 10.5914 12.8011C 9.81014 11.6554 9.9157 10.9035 10.0941 10.5067C 10.3194 10.0057 10.7425 9.81847 10.8639 9.80904L 10.6703 7.31655ZM 8.5259 14.2095C 9.48798 15.6204 10.6937 17.4538 11.9077 19.1291C 13.1071 20.7844 14.4066 22.4179 15.5935 23.397L 17.1843 21.4685C 16.2696 20.7139 15.1329 19.3194 13.9321 17.6622C 12.7459 16.0251 11.5873 14.2616 10.5914 12.8011L 8.5259 14.2095ZM 15.5935 23.397C 16.2327 23.9243 16.867 24.2613 17.5287 24.4254C 18.1892 24.5892 18.7899 24.5589 19.3174 24.4779C 19.7713 24.4081 20.3628 24.2596 20.722 24.1871C 21.1503 24.1007 21.5649 24.0436 22.0229 24.0584L 22.1036 21.5597C 21.3794 21.5363 20.7564 21.6298 20.2274 21.7365C 19.6294 21.8572 19.3442 21.9444 18.9377 22.0069C 18.6049 22.058 18.3617 22.0563 18.1306 21.9989C 17.9008 21.9419 17.5958 21.8079 17.1843 21.4685L 15.5935 23.397ZM 22.0229 24.0584C 23.1262 24.094 23.7908 24.2486 24.2046 24.4415C 24.573 24.6133 24.7823 24.8324 24.947 25.1494L 27.1656 23.997C 26.7608 23.2177 26.1557 22.5929 25.2611 22.1757C 24.4118 21.7798 23.3646 21.6004 22.1036 21.5597L 22.0229 24.0584ZM 24.947 25.1494C 24.9093 25.0768 24.9569 25.1026 24.9136 25.2931C 24.8737 25.4688 24.7732 25.6941 24.6053 25.9123C 24.2589 26.3625 23.8088 26.5746 23.382 26.5185L 23.0562 28.9972C 24.6154 29.2021 25.8687 28.3701 26.5867 27.4368C 26.9511 26.9632 27.2231 26.412 27.3515 25.847C 27.4765 25.2968 27.488 24.6178 27.1656 23.997L 24.947 25.1494ZM 23.382 26.5185C 22.0723 26.3464 20.8589 26.6966 20.0394 27.5932C 19.2344 28.4738 18.9893 29.6856 19.1865 30.8844L 21.6534 30.4785C 21.5499 29.8501 21.7114 29.4695 21.8847 29.2799C 22.0434 29.1062 22.3799 28.9083 23.0562 28.9972L 23.382 26.5185ZM 19.1865 30.8844C 19.26 31.3308 19.3122 31.7268 19.3221 32.0458C 19.327 32.2034 19.3204 32.3132 19.3102 32.3825C 19.299 32.459 19.291 32.4337 19.3326 32.3615C 19.3561 32.3205 19.3976 32.2614 19.4645 32.2011C 19.5334 32.1391 19.6166 32.0874 19.7084 32.0529C 19.8931 31.9835 20.0178 32.0163 20.005 32.0133C 19.9887 32.0093 19.8972 31.9819 19.7136 31.8749C 19.5354 31.771 19.303 31.6113 19.0085 31.3758L 17.4471 33.3283C 18.1302 33.8745 18.7917 34.2936 19.4236 34.4447C 19.7622 34.5257 20.1729 34.5491 20.5881 34.393C 21.0211 34.2303 21.3166 33.926 21.4992 33.6087C 21.8158 33.0588 21.8344 32.4018 21.8209 31.9682C 21.8056 31.4763 21.7302 30.9457 21.6534 30.4785L 19.1865 30.8844ZM 19.0085 31.3758C 16.5344 29.3974 15.8949 28.2698 12.0144 23.4874L 10.0731 25.0626C 13.814 29.673 14.6984 31.1302 17.4471 33.3283L 19.0085 31.3758ZM 12.0144 23.4874C 8.24388 18.8405 1.75785 9.22091 1.17139 8.25L -0.968527 9.54258C -0.329041 10.6013 6.22232 20.3168 10.0731 25.0626L 12.0144 23.4874ZM 1.17139 8.25C 1.13751 8.19391 1.27565 8.38116 1.24579 8.70951C 1.20261 9.18431 0.876091 9.46569 0.650345 9.57012C 0.493381 9.64272 0.39378 9.6331 0.464719 9.63085C 0.510057 9.6294 0.593277 9.63219 0.727721 9.64527C 1.03776 9.67543 1.28942 9.72017 1.71861 9.77189C 2.05498 9.81242 2.53375 9.8612 2.95883 9.80006L 2.60286 7.32553C 2.54457 7.33391 2.3701 7.3323 2.01768 7.28984C 1.75807 7.25856 1.28537 7.18771 0.96977 7.15701C 0.7914 7.13966 0.586486 7.1257 0.385162 7.13211C 0.209438 7.13771 -0.0953546 7.16054 -0.399254 7.30112C -0.771934 7.47351 -1.18713 7.85838 -1.24394 8.4831C -1.28743 8.96136 -1.08789 9.34496 -0.968527 9.54258L 1.17139 8.25ZM 2.95883 9.80006C 3.75862 9.68501 4.75384 9.32567 5.41682 8.38879C 6.08674 7.44211 6.22587 6.17771 5.89274 4.67308L 3.45185 5.21351C 3.69666 6.31923 3.49429 6.77767 3.3761 6.94468C 3.25097 7.12151 3.01149 7.26675 2.60286 7.32553L 2.95883 9.80006ZM 5.89274 4.67308C 5.59622 3.33381 5.55656 2.57185 5.72403 2.12692C 5.81054 1.89712 6.04168 1.49698 7.35398 1.32799L 7.03468 -1.15154C 5.24721 -0.921358 3.92836 -0.199138 3.3843 1.24621C 2.92122 2.47644 3.17043 3.94242 3.45185 5.21351L 5.89274 4.67308ZM 7.35398 1.32799C 8.38454 1.19528 9.09852 1.22492 9.94606 1.47071C 10.8538 1.73395 11.9561 2.25636 13.7453 3.22373L 14.9343 1.02458C 13.1508 0.0602639 11.8362 -0.584146 10.6424 -0.930366C 9.38829 -1.29405 8.3159 -1.31652 7.03468 -1.15154L 7.35398 1.32799ZM 36.9188 26.8817C 36.6974 26.8559 36.4836 26.7967 36.3055 26.7182C 36.1215 26.637 36.019 26.5547 35.9783 26.511C 35.9407 26.4706 36.0066 26.5226 36.0102 26.6639C 36.014 26.8171 35.9401 26.8575 36.0189 26.7706L 34.1676 25.0906C 33.7684 25.5304 33.4949 26.0884 33.5109 26.7267C 33.5267 27.3531 33.8165 27.8576 34.148 28.2139C 34.7791 28.8922 35.7526 29.2629 36.6302 29.3649L 36.9188 26.8817ZM 36.0189 26.7706C 36.2008 26.5702 36.6946 26.1256 37.4177 25.481C 38.1046 24.8687 38.938 24.1275 39.7035 23.4005C 40.4551 22.6867 41.2012 21.9308 41.6819 21.2912C 41.9042 20.9955 42.1728 20.5936 42.2868 20.1578C 42.3468 19.9285 42.3984 19.5614 42.249 19.164C 42.082 18.7198 41.7424 18.4415 41.4009 18.301L 40.4496 20.6129C 40.2664 20.5375 40.0272 20.3585 39.9089 20.0438C 39.8082 19.776 39.8568 19.5686 39.8681 19.5252C 39.8849 19.4612 39.874 19.5357 39.6835 19.7891C 39.3389 20.2476 38.7271 20.88 37.9819 21.5878C 37.2505 22.2824 36.4483 22.9961 35.7541 23.6149C 35.0961 24.2014 34.4637 24.7643 34.1676 25.0906L 36.0189 26.7706ZM 41.4009 18.301C 41.0052 18.1382 40.5868 18.12 40.2932 18.118C 39.9846 18.1159 39.5986 18.1365 39.2328 18.1503C 38.4651 18.1792 37.4629 18.1955 36.1393 18.0279C 33.4927 17.6929 29.4471 16.6075 23.4743 13.2509L 22.2495 15.4303C 28.4465 18.9129 32.7993 20.1251 35.8253 20.5081C 37.338 20.6996 38.4906 20.68 39.327 20.6485C 39.7632 20.6321 40.0416 20.6163 40.276 20.6179C 40.5253 20.6197 40.5286 20.6454 40.4496 20.6129L 41.4009 18.301ZM 23.4743 13.2509C 17.4145 9.84549 14.6457 8.3404 13.2361 7.7093C 12.5442 7.39952 12.0113 7.21832 11.4936 7.21244C 11.2272 7.20941 11.0145 7.25409 10.8978 7.27823C 10.7813 7.30232 10.7381 7.31128 10.6703 7.31655L 10.8639 9.80904C 11.1124 9.78973 11.3042 9.74709 11.4041 9.72642C 11.5039 9.70579 11.4891 9.71255 11.4652 9.71227C 11.4323 9.7119 11.5622 9.69897 12.2145 9.99105C 13.4935 10.5637 16.1394 11.9966 22.2495 15.4303L 23.4743 13.2509Z"/>
</defs>
</svg>
