<svg width="66" height="21" viewBox="0 0 66 21" fill="none" xmlns="http://www.w3.org/2000/svg">
<path fill-rule="evenodd" clip-rule="evenodd" d="M16.7289 12.9984C18.6431 11.8287 18.6431 9.04854 16.7289 7.87875L4.56435 0.444862C2.56529 -0.776786 0 0.661918 0 3.00471V17.8725C0 20.2153 2.56529 21.654 4.56435 20.4323L16.7289 12.9984ZM15.686 9.58531C16.3241 9.97524 16.3241 10.9019 15.686 11.2919L3.52145 18.7258C2.8551 19.133 2 18.6534 2 17.8725L2 3.00471C2 2.22378 2.8551 1.74421 3.52145 2.15143L15.686 9.58531ZM27.9211 0.90968V8.03615H33.1582V6.32981H29.8964V0.90968H27.9211ZM34.3531 0.90968V8.03615H36.3283V0.90968H34.3531ZM39.4623 0.90968L40.8703 5.57702L42.258 0.90968H44.3346L41.6908 8.03615H40.0498L37.3756 0.90968H39.4623ZM50.5124 8.03615V6.32981H47.3621V5.20564H49.9755V3.61975H47.3621V2.61602H50.4212V0.90968H45.3868V8.03615H50.5124ZM33.5228 14.8838H31.4564V20.3039H29.4811V14.8838H27.4045V13.1775H33.5228V14.8838ZM34.7487 13.1775V20.3039H36.724V13.1775H34.7487ZM43.9098 20.3039V16.55L42.7044 19.1898H41.6509L40.4455 16.55V20.3039H38.4702V13.1775H40.6278L42.1776 16.5299L43.7376 13.1775H45.8851V20.3039H43.9098ZM47.6224 13.1775V20.3039H49.5977V13.1775H47.6224ZM53.3192 16.8009V20.3039H51.3439V13.1775H52.8836L55.7705 16.8009V13.1775H57.7458V20.3039H56.1757L53.3192 16.8009ZM62.5969 20.3541C63.2655 20.3541 63.8564 20.14 64.3696 19.7117V20.3039H66.0005V16.5098H63.0426V17.9151H64.2886C63.8496 18.3835 63.3431 18.6177 62.7691 18.6177C62.5193 18.6177 62.293 18.5742 62.0905 18.4872C61.8879 18.3935 61.7123 18.2664 61.5637 18.1058C61.4219 17.9385 61.3105 17.7411 61.2294 17.5136C61.1484 17.2861 61.1079 17.0318 61.1079 16.7507C61.1079 16.4764 61.1484 16.2255 61.2294 15.9979C61.3105 15.7637 61.4219 15.563 61.5637 15.3957C61.7055 15.2284 61.8744 15.0979 62.0702 15.0043C62.266 14.9106 62.4821 14.8637 62.7185 14.8637C63.0359 14.8637 63.3364 14.9507 63.62 15.1247C63.9037 15.292 64.1164 15.5162 64.2582 15.7972L65.727 14.6831C65.5987 14.4422 65.4332 14.228 65.2306 14.0407C65.028 13.8466 64.7984 13.6827 64.5418 13.5488C64.292 13.4083 64.0185 13.3046 63.7213 13.2377C63.4242 13.1641 63.1135 13.1273 62.7894 13.1273C62.2694 13.1273 61.7832 13.221 61.3307 13.4083C60.885 13.589 60.4967 13.8399 60.1658 14.1611C59.8349 14.4756 59.5749 14.8503 59.3858 15.2853C59.1968 15.7136 59.1022 16.1786 59.1022 16.6805C59.1022 17.2626 59.1968 17.7812 59.3858 18.2363C59.5749 18.6913 59.8282 19.076 60.1456 19.3905C60.463 19.705 60.8344 19.9459 61.2598 20.1132C61.6853 20.2738 62.131 20.3541 62.5969 20.3541Z" fill="white"/>
</svg>
