<svg width="1011" height="69" viewBox="0 0 1011 69" fill="none" xmlns="http://www.w3.org/2000/svg">
<path fill-rule="evenodd" clip-rule="evenodd" d="M187.741 25.7812H181.369C180.261 25.7812 179.015 26.6174 178.599 27.7323L175.829 34.1427C175.414 35.2576 175.829 36.0938 176.937 36.0938H183.308C184.416 36.0938 185.663 35.2576 186.078 34.1427L188.849 27.7323C189.264 26.6174 188.849 25.7812 187.741 25.7812ZM198.544 1.11486H192.173C191.065 1.11486 189.818 1.95101 189.403 3.06588L186.633 9.47635C186.217 10.5912 186.633 11.4274 187.741 11.4274H194.112C195.22 11.4274 196.466 10.5912 196.882 9.47635L199.652 3.06588C200.067 2.09037 199.652 1.11486 198.544 1.11486ZM161.009 25.7812C159.901 25.7812 158.655 26.6174 158.239 27.7323L155.469 34.1427C155.054 35.2576 155.469 36.0938 156.577 36.0938H162.948C164.057 36.0938 165.303 35.2576 165.719 34.1427L168.489 27.7323C168.904 26.6174 168.489 25.7812 167.381 25.7812H161.009ZM125.276 47.103L128.6 39.4383C129.154 38.1841 128.6 37.0693 127.353 37.0693H119.736C118.905 37.0693 117.935 37.4873 117.242 38.1841L123.752 23.4122C123.891 24.109 124.306 24.6664 125.276 24.6664H132.893C134.14 24.6664 135.663 23.6909 136.217 22.2973L139.541 14.6326C140.095 13.3784 139.541 12.2635 138.295 12.2635H130.677C129.846 12.2635 128.877 12.6816 128.184 13.3784L131.508 5.9924C132.755 2.92652 131.37 0.139358 128.046 0.139358L32.0631 0.139358C28.7391 0.139358 24.861 2.92652 23.3374 6.27111L1.59247 55.6039C0.0689366 58.9485 1.59247 61.7356 4.91654 61.7356H100.899C104.223 61.7356 108.101 58.9485 109.625 55.6039L112.949 48.0785C113.087 48.7753 113.503 49.3328 114.472 49.3328H122.09C123.198 49.3328 124.722 48.3573 125.276 47.103ZM173.89 15.4688L171.12 21.8792C170.705 22.9941 171.12 23.8302 172.228 23.8302H178.599C179.707 23.8302 180.954 22.9941 181.369 21.8792L184.139 15.4688C184.555 14.3539 184.139 13.5177 183.031 13.5177H176.66C175.691 13.5177 174.444 14.3539 173.89 15.4688ZM151.868 14.772L148.544 22.4367C147.99 23.6909 148.544 24.8057 149.791 24.8057H157.408C158.655 24.8057 160.178 23.8302 160.732 22.4367L164.056 14.772C164.611 13.5177 164.057 12.4029 162.81 12.4029H155.192C153.946 12.4029 152.422 13.5177 151.868 14.772ZM134.278 49.3328C135.525 49.3328 136.079 50.3083 135.525 51.7019L132.201 59.3666C131.647 60.6208 130.123 61.7356 128.877 61.7356H121.259C120.013 61.7356 119.459 60.7601 120.013 59.3666L123.337 51.7019C123.891 50.4476 125.414 49.3328 126.661 49.3328H134.278ZM170.566 46.4062L173.336 39.9958C173.752 38.8809 173.336 38.0448 172.228 38.0448H165.857C164.749 38.0448 163.502 38.8809 163.087 39.9958L160.317 46.4062C159.901 47.5211 160.317 48.3573 161.425 48.3573H167.796C168.766 48.3573 170.012 47.5211 170.566 46.4062ZM156.439 50.4476H150.068C148.96 50.4476 147.713 51.2838 147.298 52.3986L144.528 58.8091C144.112 59.924 144.528 60.7601 145.636 60.7601H152.007C153.115 60.7601 154.361 59.924 154.777 58.8091L157.547 52.3986C157.962 51.2838 157.547 50.4476 156.439 50.4476ZM167.381 11.4274H173.752C174.86 11.4274 176.106 10.5912 176.522 9.47635L179.292 3.06588C179.707 1.95101 179.292 1.11486 178.184 1.11486H171.813C170.705 1.11486 169.458 1.95101 169.043 3.06588L166.273 9.47635C165.719 10.5912 166.273 11.4274 167.381 11.4274ZM143.004 12.4029H150.622C151.868 12.4029 153.392 11.4274 153.946 10.0338L157.27 2.36909C157.824 1.11486 157.27 0 156.023 0L148.406 0C147.159 0 145.636 0.975507 145.082 2.36909L141.758 10.0338C141.065 11.4274 141.758 12.4029 143.004 12.4029ZM149.929 47.103C149.375 48.3573 147.852 49.4721 146.605 49.4721H138.987C137.741 49.4721 137.187 48.4966 137.741 47.103L141.065 39.4383C141.619 38.1841 143.143 37.0693 144.389 37.0693H152.007C153.253 37.0693 153.807 38.0448 153.253 39.4383L149.929 47.103ZM176.937 50.4476H170.566C169.458 50.4476 168.212 51.2838 167.796 52.3986L165.026 58.8091C164.611 59.924 165.026 60.7601 166.134 60.7601H172.505C173.613 60.7601 174.86 59.924 175.275 58.8091L178.045 52.3986C178.461 51.2838 177.907 50.4476 176.937 50.4476ZM137.464 24.8057H145.082C146.328 24.8057 146.882 25.7812 146.328 27.1748L143.004 34.8395C142.45 36.0938 140.926 37.2086 139.68 37.2086H132.062C130.816 37.2086 130.262 36.2331 130.816 34.8395L134.14 27.1748C134.694 25.7812 136.217 24.8057 137.464 24.8057Z" fill="url(#paint0_linear)"/>
<path fill-rule="evenodd" clip-rule="evenodd" d="M93.7021 36.7876H99.9347C103.536 36.7876 107.414 35.1153 111.015 31.0739C114.201 27.3112 115.863 23.9666 116.832 21.8763C118.356 18.3923 119.741 14.3509 119.048 11.2851C118.494 8.91596 116.971 7.10431 115.032 6.54688C109.768 6.54688 73.0651 6.54688 73.0651 6.54688L60.5998 34.6972C60.4613 34.9759 60.0458 35.394 59.6303 35.394C59.0763 35.394 58.5223 33.5823 58.5223 33.5823L52.5667 10.7276C51.4586 6.68623 45.78 6.68623 42.3174 6.68623C32.6222 6.68623 28.3286 12.818 27.6361 14.3509L11.2928 51.1415C10.8773 52.117 11.1543 52.9531 12.2623 52.9531H23.6195C24.5891 52.9531 25.8356 52.117 26.2511 51.1415L37.6083 25.3602C37.7468 25.0815 38.1624 24.2454 38.8549 24.2454C39.4089 24.2454 39.8244 25.7783 39.8244 25.7783L45.9185 48.9117C46.7495 51.8383 50.9046 52.9531 56.1677 52.9531C65.863 52.9531 70.1566 46.8214 70.8491 45.2884L82.2063 19.3678C82.7603 18.3923 83.4528 17.4168 84.0069 16.9987C84.9764 16.3019 85.8074 16.3019 86.6384 16.3019H99.2422C101.597 16.8594 102.566 19.0891 101.458 21.4582C100.35 23.9666 97.4416 26.057 94.5331 26.4751C91.486 26.4751 88.1619 26.4751 88.1619 26.4751C84.4224 26.4751 80.6828 28.5655 79.2977 31.6313C79.2977 31.6313 77.7742 34.4185 79.2977 38.878L86.2229 52.9531C86.2229 52.9531 96.8876 52.9531 100.489 52.9531C104.09 52.9531 102.705 50.166 102.705 50.166L93.7021 36.7876Z" fill="white"/>
<path fill-rule="evenodd" clip-rule="evenodd" d="M220.011 61.3232H208.1L214.471 46.5512H201.175L194.665 61.3232H182.754L199.097 24.2539H211.009L205.191 37.3536H218.626L224.305 24.2539H236.216L220.011 61.3232Z" fill="white"/>
<path fill-rule="evenodd" clip-rule="evenodd" d="M253.252 61.3142L263.363 39.5743C263.64 38.8775 263.917 38.1807 263.501 38.1807C263.224 38.1807 262.67 38.7382 261.285 39.9924L242.864 57.9696C241.064 59.7813 238.432 61.7323 233.307 61.7323C226.105 61.7323 227.075 57.2728 229.014 52.8133L241.618 24.2449H253.667L243.834 45.4274C243.695 45.7061 243.695 45.8454 243.557 45.9848C243.418 46.4029 243.003 47.239 243.695 47.239C243.972 47.239 244.526 46.8209 245.357 45.8454L263.363 28.0076C267.518 23.8269 271.119 23.6875 273.196 23.6875C281.645 23.6875 279.29 29.8193 277.905 32.8851L265.44 61.1748H253.252V61.3142Z" fill="white"/>
<path fill-rule="evenodd" clip-rule="evenodd" d="M285.805 45.5757C288.16 43.6247 288.852 42.7885 289.129 42.2311C289.545 41.395 289.129 40.4195 288.852 39.4439L285.113 24.2539H298.824L301.04 38.0504C301.179 39.4439 301.456 40.8375 300.902 42.2311C300.209 43.764 298.686 45.297 296.47 47.248L281.373 61.3232H266.969L285.805 45.5757ZM309.905 24.2539L293.561 61.3232H305.473L321.816 24.2539H309.905ZM317.661 61.3232L314.891 47.248C314.475 45.297 314.337 43.6247 315.029 42.2311C315.583 41.1162 316.83 39.7227 318.492 38.0504L333.035 24.2539H346.746L329.295 39.4439C328.326 40.2801 327.079 41.2556 326.664 42.2311C326.387 42.7885 326.387 43.6247 326.941 45.5757L332.065 61.1838H317.661V61.3232Z" fill="white"/>
<path fill-rule="evenodd" clip-rule="evenodd" d="M339.953 61.3166C338.429 61.3166 336.906 61.1773 336.075 60.0624C334.967 58.6688 335.659 57.1359 336.49 55.4636L347.709 30.1004C348.401 28.7068 349.232 27.1739 351.171 25.9197C353.111 24.6654 355.05 24.3867 356.296 24.3867H382.75L378.734 33.445H360.59C359.897 33.445 359.066 33.5844 358.512 34.0024C357.681 34.4205 357.404 35.2567 357.127 35.8141L355.881 38.6012H375.964L372.362 46.684H352.279L350.479 50.7254C350.202 51.4222 350.202 51.8403 350.34 52.119C350.617 52.6764 351.587 52.5371 352.418 52.5371H370.423L366.407 61.5953H339.953V61.3166Z" fill="white"/>
<path fill-rule="evenodd" clip-rule="evenodd" d="M370.148 61.3232L383.445 31.0825C384.137 29.4102 384.968 27.5985 387.046 26.0656C388.431 25.0901 390.37 24.2539 392.17 24.2539H419.594L415.577 33.4515H396.741C396.049 33.4515 395.079 33.4515 394.386 34.009C393.832 34.427 393.555 35.2632 393.278 35.8206L381.921 61.3232H370.148Z" fill="white"/>
<path fill-rule="evenodd" clip-rule="evenodd" d="M455.603 27.5947C457.958 31.3574 455.326 37.7678 453.11 42.7847C450.894 47.6623 447.986 54.2121 442.307 57.9748C436.767 61.5981 429.98 61.7374 424.579 61.7374C419.177 61.7374 412.39 61.5981 410.174 57.9748C407.82 54.2121 410.59 47.6623 412.667 42.7847C414.884 37.7678 417.792 31.3574 423.471 27.5947C429.011 23.9714 435.659 23.832 441.199 23.832C446.739 23.832 453.249 23.9714 455.603 27.5947ZM423.055 49.7526C423.609 52.1217 425.548 52.4004 428.595 52.4004C431.642 52.4004 433.72 52.1217 436.49 49.7526C438.706 47.8016 439.676 45.7113 440.922 42.6454C442.307 39.4401 443.138 37.6285 442.723 35.5381C442.169 33.169 440.368 32.8903 437.182 32.8903C434.135 32.8903 431.919 33.169 429.288 35.5381C427.072 37.4891 426.241 39.4401 424.856 42.6454C423.471 45.7113 422.64 47.941 423.055 49.7526Z" fill="white"/>
<path fill-rule="evenodd" clip-rule="evenodd" d="M449.094 61.3232L462.39 31.2218C463.083 29.6889 464.191 27.5985 466.13 26.2049C467.376 25.3688 469.315 24.2539 471.808 24.2539H492.168C495.077 24.2539 497.708 24.672 498.816 26.9017C499.786 28.7134 499.509 31.6399 497.154 37.0749C496.046 39.7227 492.999 45.9938 488.706 48.7809C486.351 50.3139 483.304 50.7319 481.365 50.7319H465.853L461.144 61.4625H449.094V61.3232ZM478.318 41.395C479.841 41.395 481.226 41.5343 482.75 40.4194C483.581 39.7227 484.412 38.7471 485.105 37.2142C485.52 36.2387 485.936 35.1238 485.382 34.2877C484.689 33.4515 483.442 33.4515 482.057 33.4515H475.548C473.609 33.4515 472.916 34.8451 472.501 35.6813L470.008 41.395H478.318Z" fill="white"/>
<path fill-rule="evenodd" clip-rule="evenodd" d="M540.65 27.5947C543.005 31.3574 540.373 37.7678 538.157 42.7847C536.08 47.6623 533.033 54.2121 527.354 57.9748C521.814 61.5981 515.027 61.7374 509.626 61.7374C504.224 61.7374 497.437 61.5981 495.221 57.9748C492.867 54.2121 495.637 47.6623 497.714 42.7847C499.93 37.7678 502.839 31.3574 508.518 27.5947C514.058 23.9714 520.706 23.832 526.246 23.832C531.786 23.832 538.296 23.9714 540.65 27.5947ZM508.102 49.7526C508.656 52.1217 510.595 52.4004 513.642 52.4004C516.689 52.4004 518.767 52.1217 521.537 49.7526C523.753 47.8016 524.722 45.7113 525.969 42.6454C527.354 39.4401 528.185 37.6285 527.631 35.5381C527.077 33.169 525.276 32.8903 522.091 32.8903C519.044 32.8903 516.828 33.169 514.196 35.5381C511.98 37.4891 511.011 39.4401 509.764 42.6454C508.656 45.7113 507.687 47.941 508.102 49.7526Z" fill="white"/>
<path fill-rule="evenodd" clip-rule="evenodd" d="M559.347 28.0128C560.87 26.2011 563.502 23.832 569.596 23.832C575.828 23.832 576.244 26.2011 576.244 28.0128L575.551 52.1217H579.291L575.274 61.3194H531.23L535.247 52.1217H538.848L559.347 28.0128ZM550.759 52.1217H563.779L565.025 36.0955C565.025 35.8168 565.164 35.12 564.887 35.12C564.61 35.12 564.194 35.8168 563.917 36.0955L550.759 52.1217Z" fill="white"/>
<path fill-rule="evenodd" clip-rule="evenodd" d="M592.171 61.3219C586.492 61.3219 582.891 60.4857 581.645 56.7231C580.675 53.9359 581.091 50.3126 584.276 43.2053C587.046 37.0736 589.678 32.3354 593.695 28.9908C598.958 24.6707 604.498 24.1133 608.653 24.1133H624.165L620.149 33.3109H610.315C606.437 33.3109 603.528 33.3109 600.62 36.2374C598.819 38.0491 597.296 41.115 596.465 42.9266C594.664 47.1074 594.664 48.5009 594.664 49.0584C594.941 51.9849 598.404 51.9849 602.282 51.9849H612.531L608.514 61.1825H592.171V61.3219Z" fill="white"/>
<path fill-rule="evenodd" clip-rule="evenodd" d="M629.562 24.2526H641.473L625.13 61.3219H613.219L629.562 24.2526ZM639.534 61.3219H653.8L646.459 45.5744C646.044 44.7383 645.49 43.4841 646.044 42.2298C646.182 41.9511 646.736 41.115 648.814 39.4427L668.343 24.1133H654.216L638.149 38.0491C636.903 39.164 635.241 40.8363 634.687 42.2298C633.994 43.7628 634.41 45.7138 634.825 46.8286L639.534 61.3219Z" fill="white"/>
<path fill-rule="evenodd" clip-rule="evenodd" d="M702.974 27.5947C705.329 31.3574 702.697 37.7678 700.481 42.7847C698.265 47.6623 695.357 54.2121 689.678 57.9748C684.138 61.5981 677.351 61.7374 671.95 61.7374C666.41 61.7374 659.762 61.5981 657.545 57.9748C655.191 54.2121 657.961 47.6623 660.039 42.7847C662.255 37.7678 665.163 31.3574 670.842 27.5947C676.382 23.9714 683.03 23.832 688.57 23.832C694.11 23.832 700.62 23.9714 702.974 27.5947ZM670.426 49.7526C670.98 52.1217 672.919 52.4004 675.966 52.4004C679.013 52.4004 681.091 52.1217 683.861 49.7526C686.077 47.8016 687.047 45.7113 688.293 42.6454C689.678 39.4401 690.509 37.6285 689.955 35.5381C689.401 33.169 687.601 32.8903 684.415 32.8903C681.368 32.8903 679.152 33.169 676.52 35.5381C674.304 37.4891 673.335 39.4401 672.088 42.6454C670.842 45.7113 670.011 47.941 670.426 49.7526Z" fill="white"/>
<path fill-rule="evenodd" clip-rule="evenodd" d="M702.699 61.3166C701.175 61.3166 699.652 61.1773 698.821 60.0624C697.713 58.6688 698.405 57.1359 699.236 55.4636L710.455 30.1004C711.148 28.7068 711.979 27.1739 713.918 25.9197C715.857 24.6654 717.796 24.3867 719.042 24.3867H745.496L741.48 33.445H723.336C722.643 33.445 721.812 33.5844 721.258 34.0024C720.427 34.4205 720.15 35.2567 719.873 35.8141L718.627 38.6012H738.71L735.109 46.684H715.026L713.225 50.7254C712.948 51.4222 712.948 51.8403 713.086 52.119C713.502 52.6764 714.333 52.5371 715.164 52.5371H733.169L729.153 61.5953H702.699V61.3166Z" fill="white"/>
<path fill-rule="evenodd" clip-rule="evenodd" d="M754.359 24.2539H766.27L749.927 61.3232H738.016L754.359 24.2539ZM764.331 61.3232H778.597L771.256 45.7151C770.841 44.8789 770.287 43.6247 770.841 42.3705C770.979 42.0917 771.533 41.2556 773.611 39.5833L793.14 24.2539H779.013L762.946 38.1897C761.7 39.3046 760.038 40.9769 759.484 42.3705C758.791 43.9034 759.207 45.8544 759.622 46.9693L764.331 61.3232Z" fill="#DD0500"/>
<path fill-rule="evenodd" clip-rule="evenodd" d="M827.76 27.5947C830.114 31.3574 827.483 37.7678 825.267 42.7847C823.189 47.6623 820.142 54.2121 814.463 57.9748C808.923 61.5981 802.137 61.7374 796.735 61.7374C791.195 61.7374 784.547 61.5981 782.331 57.9748C779.976 54.2121 782.746 47.6623 784.824 42.7847C787.04 37.7678 789.948 31.3574 795.627 27.5947C801.167 23.9714 807.815 23.832 813.355 23.832C818.895 23.832 825.405 23.9714 827.76 27.5947ZM795.211 49.7526C795.765 52.1217 797.705 52.4004 800.752 52.4004C803.799 52.4004 805.876 52.1217 808.646 49.7526C810.862 47.8016 811.832 45.7113 813.078 42.6454C814.463 39.4401 815.294 37.6285 814.879 35.5381C814.325 33.169 812.524 32.8903 809.339 32.8903C806.292 32.8903 804.076 33.169 801.444 35.5381C799.228 37.4891 798.397 39.4401 797.012 42.6454C795.627 45.7113 794.796 47.941 795.211 49.7526Z" fill="#DD0500"/>
<path fill-rule="evenodd" clip-rule="evenodd" d="M844.52 27.5947C847.567 23.9714 851.86 23.832 854.215 23.832C856.431 23.832 860.586 24.1107 860.447 27.5947L859.755 61.3194H847.151L849.09 36.7923C849.09 36.5136 849.229 35.9562 848.952 35.9562C848.675 35.9562 848.121 36.653 847.982 36.7923L828.315 61.3194H815.711L844.52 27.5947Z" fill="#DD0500"/>
<path fill-rule="evenodd" clip-rule="evenodd" d="M888.976 24.2539L883.021 37.6323H899.503C901.719 37.6323 904.904 37.911 905.043 41.813C905.181 44.3215 904.212 46.9693 903.104 49.6171C901.996 52.2649 900.334 55.4701 897.841 57.6999C896.179 59.2328 892.855 61.3232 888.838 61.3232H865.985C864.461 61.3232 863.492 60.487 863.076 59.5115C862.384 57.9786 863.076 56.0276 863.907 54.3553L877.204 24.2539H888.976ZM877.758 49.8958C877.481 50.4532 877.204 51.15 877.342 51.5681C877.481 52.1255 878.312 52.1255 879.004 52.1255H885.098C886.899 52.1255 887.868 52.2649 888.7 51.8468C889.392 51.5681 890.5 50.5926 891.193 48.9203C891.608 47.9448 892.024 46.8299 890.916 46.2725C890.223 45.9938 889.392 45.9938 888.007 45.9938H879.42L877.758 49.8958Z" fill="#DD0500"/>
<path fill-rule="evenodd" clip-rule="evenodd" d="M909.34 61.3232C907.401 61.3232 905.6 61.4625 904.631 59.9296C903.661 58.3966 904.354 56.1669 905.046 54.4946L918.343 24.2539H930.254L919.451 48.6416C919.035 49.4777 918.481 50.8713 918.758 51.4287C919.035 52.1255 920.42 52.1255 920.836 52.1255H931.362L943.689 24.2539H955.6L943.273 52.1255H948.259L944.243 61.3232H909.34Z" fill="#DD0500"/>
<path fill-rule="evenodd" clip-rule="evenodd" d="M996.596 27.5947C998.95 31.3574 996.319 37.7678 994.103 42.7847C992.025 47.6623 988.978 54.2121 983.299 57.9748C977.759 61.5981 970.973 61.7374 965.571 61.7374C960.031 61.7374 953.383 61.5981 951.167 57.9748C948.812 54.2121 951.582 47.6623 953.66 42.7847C955.876 37.7678 958.923 31.3574 964.463 27.5947C970.003 23.9714 976.651 23.832 982.191 23.832C987.87 23.832 994.38 23.9714 996.596 27.5947ZM964.047 49.7526C964.601 52.1217 966.54 52.4004 969.587 52.4004C972.635 52.4004 974.712 52.1217 977.482 49.7526C979.698 47.8016 980.668 45.7113 981.914 42.6454C983.299 39.4401 984.13 37.6285 983.576 35.5381C983.022 33.169 981.222 32.8903 978.036 32.8903C974.989 32.8903 972.773 33.169 970.142 35.5381C967.925 37.4891 967.094 39.4401 965.709 42.6454C964.601 45.7113 963.77 47.941 964.047 49.7526Z" fill="#DD0500"/>
<path fill-rule="evenodd" clip-rule="evenodd" d="M214.607 3.76562C215.438 3.76562 215.992 4.04434 216.269 4.60177C216.546 5.29856 216.269 6.27407 215.992 6.8315L212.945 13.6601C212.807 13.9388 212.53 14.4962 211.976 14.9143C211.422 15.193 210.868 15.193 210.591 15.193H206.159C205.466 15.193 204.774 15.193 204.358 14.6356C203.804 13.7994 204.358 12.2665 204.635 11.5697C205.051 10.5942 205.605 9.61867 206.713 8.92188C207.544 8.36444 208.513 8.36444 209.067 8.36444H214.053L214.746 6.69214C214.884 6.27407 215.023 5.71664 214.884 5.29856C214.746 5.01985 214.469 4.74113 213.915 4.74113H208.375L208.79 3.76562H214.607ZM208.375 9.47931C207.682 9.47931 207.128 9.75802 206.851 10.0367C206.436 10.4548 206.02 11.0122 205.743 11.8484C205.466 12.5452 205.189 13.3813 205.328 13.7994C205.466 14.0781 205.743 14.3568 206.159 14.3568H210.729C210.868 14.3568 211.145 14.3568 211.283 14.2175C211.422 14.0781 211.56 13.9388 211.56 13.7994L213.499 9.47931H208.375Z" fill="white"/>
<path fill-rule="evenodd" clip-rule="evenodd" d="M229.566 5.15921C229.705 4.74113 230.12 4.46242 230.397 4.1837C230.674 3.90498 231.228 3.76562 231.505 3.76562H236.491C236.907 3.76562 238.015 3.76563 238.292 4.60177C238.569 5.15921 238.153 6.13471 237.876 6.8315C237.599 7.38894 237.322 8.08573 236.63 8.5038C236.353 8.78252 235.799 9.06123 235.245 9.20059C235.799 9.33995 236.076 9.61867 236.076 9.89738C236.214 10.4548 235.937 11.0122 235.66 11.5697C235.245 12.5452 234.691 13.5207 233.721 14.3568C232.89 14.9143 232.198 15.0536 231.644 15.0536H226.381C225.965 15.0536 225.688 14.9143 225.55 14.6356C225.411 14.3568 225.55 13.9388 225.688 13.6601L229.566 5.15921ZM234.137 8.78252C234.552 8.78252 235.106 8.78252 235.66 8.36444C236.214 7.94637 236.491 7.38894 236.768 6.8315C236.907 6.41343 237.322 5.71664 236.907 5.29856C236.63 4.88049 236.214 4.88049 235.937 4.88049H231.367C231.228 4.88049 231.09 4.88049 230.951 5.01985C230.813 5.01985 230.813 5.29856 230.674 5.29856L229.151 8.92188H234.137V8.78252ZM226.935 13.6601C226.796 13.7994 226.796 14.0781 226.796 14.2175C226.935 14.3568 227.073 14.3568 227.35 14.3568H231.367C232.059 14.3568 232.475 14.3568 233.167 13.7994C233.86 13.242 234.137 12.5452 234.414 11.9878C234.691 11.4303 234.968 10.8729 234.691 10.3155C234.552 9.89738 234.137 9.89738 233.583 9.89738H228.597L226.935 13.6601Z" fill="white"/>
<path fill-rule="evenodd" clip-rule="evenodd" d="M249.645 15.3323L254.215 4.88049H249.922L250.337 3.76562H260.171L259.617 4.88049H255.323L250.753 15.3323H249.645Z" fill="white"/>
<path fill-rule="evenodd" clip-rule="evenodd" d="M272.22 5.01985C273.882 3.90498 275.544 3.76562 277.068 3.76562C278.453 3.76562 280.115 3.90498 280.807 5.01985C281.5 6.27407 280.807 8.36444 280.253 9.61867C279.145 12.1271 277.899 13.5207 276.791 14.2175C274.99 15.4717 273.051 15.4717 271.943 15.4717C270.973 15.4717 269.034 15.4717 268.342 14.2175C267.926 13.5207 267.926 12.1271 268.896 9.61867C269.45 8.22508 270.419 6.13471 272.22 5.01985ZM269.311 13.3813C269.727 14.3568 271.112 14.4962 272.358 14.4962C273.466 14.4962 274.99 14.3568 276.375 13.3813C277.76 12.4058 278.591 10.5942 279.007 9.61867C279.422 8.64316 280.253 6.8315 279.838 5.71664C279.422 4.74113 277.899 4.60177 276.791 4.60177C275.683 4.60177 274.159 4.74113 272.774 5.71664C271.389 6.69215 270.558 8.5038 270.142 9.61867C269.588 10.5942 268.757 12.2665 269.311 13.3813Z" fill="white"/>
<path fill-rule="evenodd" clip-rule="evenodd" d="M297.714 14.6343C297.16 15.1917 296.606 15.4704 296.328 15.4704C296.051 15.4704 295.636 15.1917 295.636 14.6343L295.913 5.2973V5.15794C295.774 5.15794 295.774 5.2973 295.774 5.2973L291.342 15.3311H290.234L294.805 4.87922C295.082 4.18243 295.774 3.625 296.467 3.625C297.021 3.625 297.298 3.90372 297.16 4.46115L296.883 13.6588C296.883 13.9375 296.883 14.0769 297.021 14.0769C297.021 14.0769 297.16 13.9375 297.437 13.6588L305.331 4.46115C305.747 3.90372 306.162 3.625 306.716 3.625C307.409 3.625 307.547 4.04307 307.27 4.87922L302.7 15.3311H301.592L306.024 5.2973C306.024 5.2973 306.162 5.15794 306.024 5.15794C306.024 5.15794 305.885 5.2973 305.747 5.2973L297.714 14.6343Z" fill="white"/>
<path fill-rule="evenodd" clip-rule="evenodd" d="M320.982 5.01985C322.644 3.90498 324.306 3.76562 325.829 3.76562C327.214 3.76562 328.876 3.90498 329.569 5.01985C330.261 6.27407 329.569 8.36444 329.015 9.61867C327.907 12.1271 326.66 13.5207 325.552 14.2175C323.752 15.4717 321.813 15.4717 320.705 15.4717C319.735 15.4717 317.796 15.4717 317.104 14.2175C316.688 13.5207 316.688 12.1271 317.658 9.61867C318.212 8.22508 319.181 6.13471 320.982 5.01985ZM318.073 13.3813C318.489 14.3568 319.874 14.4962 321.12 14.4962C322.228 14.4962 323.752 14.3568 325.137 13.3813C326.522 12.4058 327.353 10.5942 327.63 9.61867C328.045 8.64316 328.876 6.8315 328.461 5.71664C328.045 4.74113 326.522 4.60177 325.414 4.60177C324.306 4.60177 322.782 4.74113 321.397 5.71664C320.012 6.69215 319.181 8.5038 318.766 9.61867C318.35 10.5942 317.519 12.2665 318.073 13.3813Z" fill="white"/>
<path fill-rule="evenodd" clip-rule="evenodd" d="M349.092 1.11486C348.261 1.11486 347.292 1.39358 346.599 1.81166C345.907 2.22973 345.353 3.06588 344.937 3.76267H348.954C350.2 3.76267 351.724 4.18074 352.001 5.57432C352.278 6.68919 351.585 8.08277 351.031 9.33699C350.339 10.8699 349.508 12.4029 348.4 13.5177C346.599 15.19 344.799 15.3294 343.414 15.3294C342.167 15.3294 340.367 15.19 340.09 13.3784C339.951 12.4029 340.367 11.4274 340.782 10.4519L343.414 4.45946C343.691 3.76267 344.245 2.6478 345.214 1.81166C346.461 0.557433 348.123 0 349.369 0L354.355 0L353.94 0.975507H349.092V1.11486ZM341.89 10.8699C341.475 11.7061 341.336 12.5422 341.475 13.0997C341.752 14.2145 342.86 14.3539 343.968 14.3539C344.799 14.3539 346.184 14.3539 347.292 13.3784C348.538 12.4029 349.369 10.5912 349.923 9.19764C350.477 7.94341 351.17 6.54983 350.616 5.57432C350.339 5.15625 349.785 4.73818 348.538 4.73818H344.522L341.89 10.8699Z" fill="white"/>
<path fill-rule="evenodd" clip-rule="evenodd" d="M369.462 15.3311L373.894 5.2973C373.894 5.15794 374.032 5.01858 373.894 5.01858C373.894 5.01858 373.755 5.01858 373.478 5.2973L363.506 14.6343C362.952 15.1917 362.537 15.4704 361.844 15.4704C361.151 15.4704 361.013 15.0524 361.29 14.2162L365.861 3.76436H366.969L362.537 13.7981C362.537 13.9375 362.398 14.0769 362.537 14.0769C362.675 14.0769 362.675 13.9375 362.952 13.7981L372.924 4.32179C373.34 3.90372 373.894 3.625 374.448 3.625C375.417 3.625 375.002 4.60051 374.863 5.01858L370.293 15.3311H369.462Z" fill="white"/>
<path fill-rule="evenodd" clip-rule="evenodd" d="M391.204 4.60051C391.897 3.76436 392.451 3.625 392.728 3.625C393.005 3.625 393.42 3.625 393.42 4.60051L393.005 15.3311H391.758L392.312 5.2973C392.312 5.15794 392.312 5.01858 392.312 5.01858C392.174 5.01858 392.035 5.2973 391.897 5.2973L383.586 15.3311H382.34L391.204 4.60051Z" fill="white"/>
<path fill-rule="evenodd" clip-rule="evenodd" d="M410.867 3.76436L408.651 8.64189H413.914C414.468 8.64189 415.16 8.64189 415.576 9.33868C415.991 10.0355 415.576 11.011 415.299 11.8471C415.022 12.5439 414.329 13.9375 413.221 14.6343C412.39 15.1917 411.698 15.1917 410.867 15.1917H405.881C405.604 15.1917 405.188 15.1917 405.05 14.913C404.911 14.6343 405.05 14.2162 405.188 13.7981L409.62 3.625H410.867V3.76436ZM406.573 13.6588C406.573 13.7981 406.435 14.0769 406.435 14.2162C406.435 14.3556 406.712 14.3556 406.85 14.3556H411.559C411.975 14.3556 412.39 14.3556 412.944 13.7981C413.221 13.5194 413.637 13.1014 414.191 11.9865C414.329 11.5684 414.606 10.8716 414.468 10.3142C414.329 9.89612 413.775 9.75676 413.498 9.75676H408.235L406.573 13.6588Z" fill="white"/>
<path fill-rule="evenodd" clip-rule="evenodd" d="M434.274 15.3323L436.767 9.89738H429.841L427.487 15.3323H426.379L431.365 3.76562H432.473L430.257 8.92188H437.182L439.398 3.76562H440.506L435.382 15.3323H434.274Z" fill="white"/>
<path fill-rule="evenodd" clip-rule="evenodd" d="M454.496 3.76436L452.28 8.64189H457.543C458.097 8.64189 458.789 8.64189 459.205 9.33868C459.62 10.0355 459.205 11.011 458.928 11.8471C458.651 12.5439 457.958 13.9375 456.85 14.6343C456.019 15.1917 455.327 15.1917 454.496 15.1917H449.509C449.232 15.1917 448.817 15.1917 448.678 14.913C448.54 14.6343 448.678 14.2162 448.817 13.7981L453.249 3.625H454.496V3.76436ZM450.202 13.6588C450.202 13.7981 450.064 14.0769 450.064 14.2162C450.064 14.3556 450.34 14.3556 450.479 14.3556H455.188C455.604 14.3556 456.019 14.3556 456.573 13.7981C456.85 13.5194 457.266 13.1014 457.82 11.9865C457.958 11.5684 458.235 10.8716 458.097 10.3142C457.958 9.89611 457.404 9.75676 457.127 9.75676H451.864L450.202 13.6588ZM463.914 3.76436L458.789 15.3311H459.897L465.022 3.76436H463.914Z" fill="white"/>
<path fill-rule="evenodd" clip-rule="evenodd" d="M481.231 15.3318L485.663 5.29804C485.663 5.15868 485.802 5.01932 485.663 5.01932C485.663 5.01932 485.525 5.01932 485.248 5.29804L475.276 14.635C474.722 15.1925 474.306 15.4712 473.614 15.4712C472.921 15.4712 472.783 15.0531 473.06 14.217L477.63 3.7651H478.738L474.306 13.7989C474.306 13.9382 474.168 14.0776 474.306 14.0776C474.445 14.0776 474.583 13.9382 474.722 13.7989L484.694 4.32253C485.109 3.90445 485.663 3.62574 486.217 3.62574C487.187 3.62574 486.771 4.60125 486.633 5.01932L482.062 15.3318H481.231ZM485.109 1.67473C485.386 1.53537 485.802 1.11729 486.079 0.699219H487.325C486.91 1.25665 486.217 1.95344 485.525 2.37152C484.694 2.92895 483.863 3.06831 483.032 3.06831C482.201 3.06831 481.508 2.92895 481.093 2.37152C480.816 1.95344 480.677 1.25665 480.816 0.699219H482.062C482.062 0.977935 482.062 1.39601 482.201 1.67473C482.339 1.95344 482.755 2.0928 483.447 2.0928C484.14 2.0928 484.694 1.95344 485.109 1.67473Z" fill="white"/>
<path fill-rule="evenodd" clip-rule="evenodd" d="M562.527 15.3297C560.865 15.3297 560.172 14.6329 559.757 13.9361C559.341 12.8213 559.757 11.4277 560.588 9.75538C561.28 8.22244 562.111 6.41079 563.912 5.15657C564.881 4.45978 566.266 3.90234 568.067 3.90234H571.945L571.53 4.87785H567.513C565.712 4.87785 564.189 5.85336 563.219 7.24694C562.804 7.80437 562.111 9.33731 561.834 9.89474C561.557 10.5915 561.003 11.9851 561.003 12.5425C561.003 14.0755 562.527 14.2148 563.635 14.2148H567.651L567.236 15.1904H562.527V15.3297Z" fill="white"/>
<path fill-rule="evenodd" clip-rule="evenodd" d="M592.313 3.76562C593.005 3.76562 593.282 4.04434 593.282 4.32306C593.421 4.60177 593.144 5.15921 593.005 5.43792L588.712 15.3323H587.604L591.897 5.43792C592.036 5.29856 592.036 5.01985 592.036 4.88049L591.759 4.74113H585.942C585.803 4.74113 585.665 4.74113 585.526 4.88049C585.388 5.01985 585.249 5.15921 585.249 5.43792L580.956 15.3323H579.848L584.141 5.43792C584.28 5.01985 584.557 4.60177 584.834 4.32306C585.111 4.1837 585.526 3.76562 586.219 3.76562H592.313Z" fill="white"/>
<path fill-rule="evenodd" clip-rule="evenodd" d="M607.132 5.01985C608.794 3.90498 610.456 3.76562 611.979 3.76562C613.365 3.76562 615.027 3.90498 615.581 5.01985C616.273 6.27407 615.581 8.36444 615.027 9.61867C613.919 12.1271 612.672 13.5207 611.564 14.2175C609.763 15.4717 607.824 15.4717 606.716 15.4717C605.747 15.4717 603.808 15.4717 603.115 14.2175C602.7 13.5207 602.7 12.1271 603.669 9.61867C604.223 8.22508 605.331 6.13471 607.132 5.01985ZM604.085 13.3813C604.5 14.3568 605.885 14.4962 607.132 14.4962C608.24 14.4962 609.763 14.3568 611.148 13.3813C612.533 12.4058 613.365 10.5942 613.642 9.61867C614.057 8.64316 614.888 6.8315 614.473 5.71664C614.057 4.74113 612.534 4.60177 611.425 4.60177C610.317 4.60177 608.794 4.74113 607.409 5.71664C606.024 6.69215 605.193 8.5038 604.777 9.61867C604.362 10.5942 603.669 12.2665 604.085 13.3813Z" fill="white"/>
<path fill-rule="evenodd" clip-rule="evenodd" d="M624.444 18.9557H623.336L629.43 5.15921C629.707 4.60177 630.261 4.1837 630.4 4.04434C630.954 3.76563 631.508 3.76562 631.785 3.76562H634.693C635.386 3.76562 636.909 3.90498 637.463 5.01985C638.017 6.27407 637.463 7.94637 636.771 9.33995C636.078 10.7335 635.386 12.2665 634.001 13.5207C632.477 14.9143 631.092 15.193 629.153 15.193H625.968L624.444 18.9557ZM630.123 14.3568C631.092 14.3568 632.339 13.9388 633.308 13.1026C634.139 12.2665 634.832 11.1516 635.524 9.61867C636.217 8.08573 636.494 7.11022 636.494 6.55279C636.494 5.29856 635.524 4.88049 634.416 4.88049H631.092C630.954 4.88049 630.815 5.01985 630.677 5.01985C630.538 5.15921 630.4 5.29856 630.261 5.43792L626.383 14.3568H630.123Z" fill="white"/>
<path fill-rule="evenodd" clip-rule="evenodd" d="M649.785 15.3323L654.356 4.88049H650.062L650.478 3.76562H660.173L659.757 4.88049H655.464L650.893 15.3323H649.785Z" fill="white"/>
<path fill-rule="evenodd" clip-rule="evenodd" d="M675.27 15.3311L679.702 5.2973C679.702 5.15794 679.841 5.01858 679.702 5.01858C679.702 5.01858 679.564 5.01858 679.287 5.2973L669.315 14.6343C668.761 15.1917 668.345 15.4704 667.653 15.4704C666.96 15.4704 666.822 15.0524 667.099 14.2162L671.669 3.76436H672.777L668.622 13.7981C668.622 13.9375 668.484 14.0769 668.622 14.0769C668.761 14.0769 668.761 13.9375 669.038 13.7981L679.01 4.32179C679.425 3.90372 679.979 3.625 680.533 3.625C681.503 3.625 681.087 4.60051 680.949 5.01858L676.378 15.3311H675.27Z" fill="white"/>
<path fill-rule="evenodd" clip-rule="evenodd" d="M693.695 5.15921C693.834 4.74113 694.111 4.46242 694.526 4.1837C694.803 3.90498 695.357 3.76562 695.634 3.76562H700.62C701.036 3.76562 702.144 3.76563 702.421 4.60177C702.698 5.15921 702.282 6.13471 702.005 6.8315C701.728 7.38894 701.451 8.08573 700.759 8.5038C700.482 8.78252 699.928 9.06123 699.374 9.20059C699.928 9.33995 700.205 9.61867 700.205 9.89738C700.343 10.4548 700.066 11.0122 699.789 11.5697C699.374 12.5452 698.82 13.5207 697.85 14.3568C697.019 14.9143 696.327 15.0536 695.773 15.0536H690.509C690.094 15.0536 689.817 14.9143 689.678 14.6356C689.54 14.3568 689.678 13.9388 689.817 13.6601L693.695 5.15921ZM698.266 8.78252C698.681 8.78252 699.235 8.78252 699.789 8.36444C700.343 7.94637 700.62 7.38894 700.897 6.8315C701.036 6.41343 701.451 5.71664 701.036 5.29856C700.759 4.88049 700.343 4.88049 700.066 4.88049H695.496C695.357 4.88049 695.219 4.88049 695.08 5.01985C694.942 5.01985 694.942 5.29856 694.803 5.29856L693.28 8.92188H698.266V8.78252ZM691.202 13.6601C691.063 13.7994 691.064 14.0781 691.064 14.2175C691.202 14.3568 691.34 14.3568 691.479 14.3568H695.496C696.05 14.3568 696.604 14.3568 697.158 13.7994C697.85 13.242 698.127 12.5452 698.404 11.9878C698.681 11.4303 698.958 10.8729 698.681 10.3155C698.681 9.89738 698.266 9.89738 697.85 9.89738H692.864L691.202 13.6601Z" fill="white"/>
<path fill-rule="evenodd" clip-rule="evenodd" d="M718.764 15.3323L721.118 9.89738H714.332L711.977 15.3323H710.73L715.855 3.76562H716.963L714.747 8.92188H721.672L723.888 3.76562H724.996L719.872 15.3323H718.764Z" fill="white"/>
<path fill-rule="evenodd" clip-rule="evenodd" d="M738.984 3.76436L736.768 8.64189H742.031C742.585 8.64189 743.278 8.64189 743.693 9.33868C744.109 10.0355 743.693 11.011 743.416 11.8471C743.139 12.5439 742.446 13.9375 741.338 14.6343C740.507 15.1917 739.815 15.1917 738.984 15.1917H733.998C733.721 15.1917 733.305 15.1917 733.167 14.913C733.028 14.6343 733.167 14.2162 733.305 13.7981L737.737 3.625H738.984V3.76436ZM734.69 13.6588C734.69 13.7981 734.552 14.0769 734.552 14.2162C734.552 14.3556 734.829 14.3556 734.967 14.3556H739.676C740.092 14.3556 740.507 14.3556 741.061 13.7981C741.338 13.5194 741.754 13.1014 742.308 11.9865C742.446 11.5684 742.862 10.8716 742.585 10.3142C742.447 9.89611 741.892 9.75676 741.615 9.75676H736.352L734.69 13.6588ZM748.264 3.76436L743.139 15.3311H744.247L749.372 3.76436H748.264Z" fill="white"/>
<path fill-rule="evenodd" clip-rule="evenodd" d="M765.714 15.3318L770.146 5.29804C770.146 5.15868 770.284 5.01932 770.146 5.01932C770.146 5.01932 770.007 5.01932 769.73 5.29804L759.758 14.635C759.204 15.1925 758.789 15.4712 758.235 15.4712C757.542 15.4712 757.404 15.0531 757.681 14.217L762.251 3.7651H763.359L758.927 13.7989C758.927 13.9382 758.789 14.0776 758.927 14.0776C759.066 14.0776 759.204 13.9382 759.343 13.7989L769.315 4.32253C769.73 3.90445 770.284 3.62574 770.838 3.62574C771.808 3.62574 771.392 4.60125 771.254 5.01932L766.683 15.3318H765.714ZM769.592 1.67473C769.869 1.53537 770.284 1.11729 770.561 0.699219H771.808C771.392 1.25665 770.7 1.95344 770.007 2.37152C769.176 2.92895 768.207 3.06831 767.514 3.06831C766.683 3.06831 765.991 2.92895 765.575 2.37152C765.298 1.95344 765.16 1.25665 765.298 0.699219H766.545C766.545 0.977935 766.545 1.39601 766.683 1.67473C766.822 1.95344 767.237 2.0928 767.93 2.0928C768.622 2.0928 769.176 1.95344 769.592 1.67473Z" fill="white"/>
<path fill-rule="evenodd" clip-rule="evenodd" d="M843 15.3323L848.125 3.76562H849.233L844.108 15.3323H843ZM850.202 15.3323H851.864L848.679 10.0367C848.54 9.89738 848.54 9.61867 848.54 9.47931C848.679 9.20059 849.094 8.92188 849.371 8.78252L856.573 3.90498H855.05L848.956 7.94637C848.402 8.22508 847.709 8.92188 847.432 9.47931C847.294 9.75802 847.155 10.3155 847.571 10.8729L850.202 15.3323Z" fill="white"/>
<path fill-rule="evenodd" clip-rule="evenodd" d="M869.034 5.01985C870.696 3.90498 872.358 3.76562 873.882 3.76562C875.267 3.76562 876.929 3.90498 877.483 5.01985C878.175 6.27407 877.483 8.36444 876.929 9.61867C875.821 12.1271 874.574 13.5207 873.466 14.2175C871.666 15.4717 869.727 15.4717 868.619 15.4717C867.649 15.4717 865.71 15.4717 865.018 14.2175C864.602 13.5207 864.602 12.1271 865.572 9.61867C866.126 8.22508 867.234 6.13471 869.034 5.01985ZM865.987 13.3813C866.403 14.3568 867.788 14.4962 869.034 14.4962C870.142 14.4962 871.666 14.3568 873.051 13.3813C874.436 12.4058 875.267 10.5942 875.544 9.61867C875.959 8.64316 876.79 6.8315 876.375 5.71664C875.959 4.74113 874.436 4.60177 873.328 4.60177C872.22 4.60177 870.696 4.74113 869.311 5.71664C867.926 6.69215 867.095 8.5038 866.68 9.61867C866.264 10.5942 865.572 12.2665 865.987 13.3813Z" fill="white"/>
<path fill-rule="evenodd" clip-rule="evenodd" d="M894.379 14.6343C893.825 15.1917 893.271 15.4704 892.994 15.4704C892.717 15.4704 892.302 15.1917 892.302 14.6343L892.579 5.2973C892.579 5.2973 892.579 5.15794 892.44 5.15794C892.302 5.15794 892.302 5.2973 892.302 5.2973L887.87 15.3311H886.762L891.332 4.87922C891.609 4.18243 892.302 3.625 892.994 3.625C893.548 3.625 893.825 3.90372 893.687 4.46115L893.41 13.6588C893.41 13.9375 893.41 14.0769 893.548 14.0769C893.548 14.0769 893.687 13.9375 893.964 13.6588L901.859 4.46115C902.274 3.90372 902.69 3.625 903.244 3.625C903.936 3.625 904.075 4.04307 903.798 4.87922L899.227 15.3311H898.119L902.551 5.2973C902.551 5.2973 902.69 5.15794 902.551 5.15794C902.551 5.15794 902.413 5.2973 902.274 5.2973L894.379 14.6343Z" fill="white"/>
<path fill-rule="evenodd" clip-rule="evenodd" d="M924.862 3.76562C925.554 3.76562 925.693 4.04434 925.831 4.32306C925.97 4.60177 925.693 5.15921 925.554 5.43792L921.261 15.3323H920.152L924.446 5.43792C924.585 5.29856 924.585 5.01985 924.585 4.88049L924.308 4.74113H918.49C918.352 4.74113 918.213 4.74113 918.075 4.88049C917.936 5.01985 917.798 5.15921 917.659 5.43792L913.366 15.3323H912.258L916.551 5.43792C916.69 5.01985 916.967 4.60177 917.244 4.32306C917.521 4.1837 917.936 3.76562 918.629 3.76562H924.862Z" fill="white"/>
<path fill-rule="evenodd" clip-rule="evenodd" d="M941.891 4.60051C942.584 3.76436 943.138 3.625 943.415 3.625C943.692 3.625 944.108 3.625 944.108 4.60051L943.692 15.3311H942.446L942.999 5.2973C942.999 5.15794 942.999 5.01858 942.999 5.01858C942.861 5.01858 942.723 5.2973 942.584 5.2973L934.274 15.3311H933.027L941.891 4.60051Z" fill="white"/>
<path fill-rule="evenodd" clip-rule="evenodd" d="M958.789 15.3297C957.819 15.3297 956.711 15.051 956.434 13.9361C956.019 12.8213 956.711 11.2883 957.404 9.61603C958.096 7.94373 959.066 5.99272 961.005 4.87785C962.39 4.0417 963.913 3.90234 965.021 3.90234C965.852 3.90234 966.96 4.0417 967.653 4.59913C967.93 4.87785 968.899 5.85336 967.93 8.22245C967.791 8.50116 967.376 9.33731 966.822 9.75538C966.406 10.0341 965.852 10.0341 965.437 10.0341H958.512C958.235 10.7309 957.819 11.7064 957.681 12.4032C957.542 13.3787 957.819 14.3542 959.343 14.3542H964.883L964.467 15.3297H958.789ZM965.852 8.91924C966.406 8.91924 966.545 8.3618 966.683 8.22245C967.237 7.10758 967.099 6.27143 966.96 5.85336C966.545 4.87785 965.437 4.87785 964.467 4.87785C963.359 4.87785 962.113 4.87785 960.728 6.27143C959.897 6.96822 959.481 7.80437 959.066 8.91924H965.852Z" fill="white"/>
<path fill-rule="evenodd" clip-rule="evenodd" d="M977.207 15.3323L982.332 3.76562H983.44L978.315 15.3323H977.207ZM984.409 15.3323H986.071L982.747 10.0367C982.609 9.89738 982.609 9.61867 982.609 9.47931C982.747 9.20059 983.163 8.92188 983.44 8.78252L990.642 3.90498H989.118L983.024 7.94637C982.47 8.22508 981.778 8.92188 981.501 9.47931C981.362 9.75802 981.362 10.3155 981.639 10.8729L984.409 15.3323Z" fill="white"/>
<path fill-rule="evenodd" clip-rule="evenodd" d="M1001.58 15.3297C999.919 15.3297 999.227 14.6329 998.811 13.9361C998.396 12.8213 998.811 11.4277 999.642 9.75538C1000.33 8.22244 1001.17 6.41079 1002.97 5.15657C1003.94 4.45978 1005.32 3.90234 1007.12 3.90234H1011L1010.58 4.87785H1006.57C1004.77 4.87785 1003.24 5.85336 1002.27 7.24694C1001.86 7.80437 1001.17 9.33731 1000.89 9.89474C1000.61 10.5915 1000.06 11.9851 1000.06 12.5425C1000.06 14.0755 1001.58 14.2148 1002.69 14.2148H1006.71L1006.29 15.1904H1001.58V15.3297Z" fill="white"/>
<defs>
<linearGradient id="paint0_linear" x1="31.8925" y1="19.0656" x2="168.636" y2="43.0292" gradientUnits="userSpaceOnUse">
<stop stop-color="#DD0500"/>
<stop offset="1" stop-color="white"/>
</linearGradient>
</defs>
</svg>
