<svg width="1105" height="53" viewBox="0 0 1105 53" version="1.1" xmlns="http://www.w3.org/2000/svg" xmlns:xlink="http://www.w3.org/1999/xlink">
<title>logo</title>
<desc>Created using Figma</desc>
<g id="Canvas" transform="translate(46648 24462)">
<g id="logo">
<g id="logo">
<g id="logo">
<g id="Vector">
<use xlink:href="#path0_fill" transform="matrix(1 -1.19907e-18 -1.22944e-18 1 -46562.3 -24462)" fill="#DD0500"/>
</g>
<g id="Vector">
<use xlink:href="#path1_fill" transform="matrix(1 -1.20578e-18 -1.22259e-18 1 -46648 -24462)" fill="#DD0500"/>
</g>
<g id="Vector">
<use xlink:href="#path2_fill" transform="matrix(1 -1.17855e-18 -1.25082e-18 1 -46631.3 -24453.7)" fill="#FFFFFF"/>
</g>
</g>
<g id="Group">
<g id="Vector">
<use xlink:href="#path3_fill" transform="matrix(1 -1.63956e-19 -1.64397e-19 1 -46505.8 -24460.3)" fill="#FFFFFF"/>
</g>
<g id="Vector">
<use xlink:href="#path4_fill" transform="matrix(1 -1.63956e-19 -1.64397e-19 1 -46453.4 -24460.8)" fill="#FFFFFF"/>
</g>
<g id="Vector">
<use xlink:href="#path5_fill" transform="matrix(1 -1.63956e-19 -1.64397e-19 1 -46407.4 -24460.3)" fill="#FFFFFF"/>
</g>
<g id="Vector">
<use xlink:href="#path6_fill" transform="matrix(1 -1.63956e-19 -1.64397e-19 1 -46327 -24460.3)" fill="#FFFFFF"/>
</g>
<g id="Vector">
<use xlink:href="#path7_fill" transform="matrix(1 -1.63956e-19 -1.64397e-19 1 -46286.2 -24460.3)" fill="#FFFFFF"/>
</g>
<g id="Vector">
<use xlink:href="#path8_fill" transform="matrix(1 -1.63956e-19 -1.64397e-19 1 -46239.3 -24460.8)" fill="#FFFFFF"/>
</g>
<g id="Vector">
<use xlink:href="#path9_fill" transform="matrix(1 -1.63956e-19 -1.64397e-19 1 -46193.6 -24460.3)" fill="#FFFFFF"/>
</g>
<g id="Vector">
<use xlink:href="#path10_fill" transform="matrix(1 -1.63956e-19 -1.64397e-19 1 -46139.7 -24460.8)" fill="#FFFFFF"/>
</g>
<g id="Vector">
<use xlink:href="#path11_fill" transform="matrix(1 -1.63956e-19 -1.64397e-19 1 -46101.2 -24460.8)" fill="#FFFFFF"/>
</g>
<g id="Vector">
<use xlink:href="#path12_fill" transform="matrix(1 -1.63956e-19 -1.64397e-19 1 -46033.1 -24460.3)" fill="#FFFFFF"/>
</g>
<g id="Vector">
<use xlink:href="#path13_fill" transform="matrix(1 -1.63956e-19 -1.64397e-19 1 -45998.1 -24460.3)" fill="#FFFFFF"/>
</g>
<g id="Vector">
<use xlink:href="#path14_fill" transform="matrix(1 -1.63956e-19 -1.64397e-19 1 -45945.7 -24460.8)" fill="#FFFFFF"/>
</g>
<g id="Vector">
<use xlink:href="#path15_fill" transform="matrix(1 -1.63956e-19 -1.64397e-19 1 -45897.7 -24460.3)" fill="#FFFFFF"/>
</g>
</g>
<g id="Group 2">
<g id="Vector">
<use xlink:href="#path16_fill" transform="matrix(1 -1.63956e-19 -1.64397e-19 1 -45850.5 -24460.5)" fill="#DD0500"/>
</g>
<g id="Vector">
<use xlink:href="#path17_fill" transform="matrix(1 -1.63956e-19 -1.64397e-19 1 -45797.9 -24461)" fill="#DD0500"/>
</g>
<g id="Vector">
<use xlink:href="#path18_fill" transform="matrix(1 -1.63956e-19 -1.64397e-19 1 -45756.3 -24461)" fill="#DD0500"/>
</g>
<g id="Vector">
<use xlink:href="#path19_fill" transform="matrix(1 -1.63956e-19 -1.64397e-19 1 -45700.3 -24460.5)" fill="#DD0500"/>
</g>
<g id="Vector">
<use xlink:href="#path20_fill" transform="matrix(1 -1.63956e-19 -1.64397e-19 1 -45651.7 -24460.5)" fill="#DD0500"/>
</g>
<g id="Vector">
<use xlink:href="#path21_fill" transform="matrix(1 -1.63956e-19 -1.64397e-19 1 -45596.4 -24461)" fill="#DD0500"/>
</g>
</g>
</g>
</g>
</g>
<defs>
<path id="path0_fill" d="M 18.0008 17.3393L 21.6652 9.62723C 21.9193 9.10024 21.8925 8.67609 21.6652 8.67609L 13.641 8.67609C 13.3735 8.67609 12.9456 9.10024 12.6915 9.62723L 9.02717 17.3393C 8.77307 17.8663 8.79981 18.2905 9.02717 18.2905L 17.0513 18.2905C 17.3188 18.3033 17.7467 17.8792 18.0276 17.3522L 18.0008 17.3393ZM 9.20103 35.6684L 13.1462 27.7506C 13.4137 27.2107 13.4137 26.7738 13.1462 26.7738L 5.12201 26.7738C 4.85454 26.7738 4.41323 27.2107 4.14576 27.7506L 0.200604 35.6684C -0.0668681 36.2082 -0.0668681 36.6452 0.200604 36.6452L 8.22478 36.6452C 8.49225 36.6581 8.93356 36.2211 9.20103 35.6812L 9.20103 35.6684ZM 23.0963 26.2854L 26.4129 18.7018C 26.6402 18.1876 26.6 17.7635 26.3326 17.7635L 18.3084 17.7635C 18.0409 17.7635 17.6264 18.1876 17.3991 18.7018L 14.0824 26.2854C 13.8551 26.7995 13.8951 27.2236 14.1626 27.2236L 22.1868 27.2236C 22.4676 27.2236 22.8689 26.8123 23.0963 26.2854ZM 31.4146 8.52186L 34.7312 0.938278C 34.9586 0.424139 34.9186 0 34.6511 0L 26.6269 0C 26.3594 0 25.9448 0.424139 25.7174 0.938278L 22.4008 8.52186C 22.1734 9.03599 22.2135 9.46013 22.481 9.46013L 30.5051 9.46013C 30.786 9.46013 31.1872 9.03599 31.4012 8.52186L 31.4146 8.52186ZM 15.0721 44.0616L 18.3887 36.4781C 18.6161 35.964 18.5759 35.5399 18.3084 35.5399L 10.2842 35.5399C 10.0167 35.5399 9.60225 35.964 9.37489 36.4781L 6.05826 44.0616C 5.83091 44.5758 5.87094 45 6.13842 45L 14.1626 45C 14.4434 45 14.8581 44.5758 15.0855 44.0616L 15.0721 44.0616ZM 28.3654 35.3084L 31.682 27.7249C 31.9094 27.2108 31.8693 26.7866 31.6019 26.7866L 23.5777 26.7866C 23.3102 26.7866 22.8956 27.2108 22.6682 27.7249L 19.3516 35.3084C 19.1242 35.8226 19.1644 36.2468 19.4319 36.2468L 27.4561 36.2468C 27.7369 36.2468 28.1514 35.8226 28.3788 35.2957L 28.3654 35.3084ZM 36.4833 17.3136L 39.7999 9.73008C 40.0273 9.21595 39.9871 8.79173 39.7196 8.79173L 31.6954 8.79173C 31.4279 8.79173 31.0134 9.21595 30.7861 9.73008L 27.4695 17.3136C 27.2421 17.8277 27.2821 18.2519 27.5496 18.2519L 35.5738 18.2519C 35.868 18.1491 36.2693 17.7763 36.4967 17.2493L 36.4833 17.3136ZM 48.72 8.02055L 51.6088 1.8509C 51.8094 1.42674 51.7693 1.07969 51.542 1.07969L 44.5608 1.07969C 44.3201 1.07969 43.9724 1.42674 43.7718 1.8509L 40.8831 8.02055C 40.6825 8.44472 40.7227 8.79173 40.95 8.79173L 47.931 8.79173C 48.1717 8.74031 48.5328 8.39333 48.7869 7.96916L 48.72 8.02055ZM 40.4954 25.6427L 43.3839 19.473C 43.5845 19.0489 43.5445 18.7018 43.3172 18.7018L 36.336 18.7018C 36.0953 18.7018 35.7476 19.0489 35.547 19.473L 32.6583 25.6427C 32.4577 26.0668 32.4979 26.4139 32.7252 26.4139L 39.7062 26.4139C 39.9469 26.3496 40.3081 26.0025 40.5087 25.5912L 40.4954 25.6427ZM 32.3775 43.2391L 35.2662 37.0694C 35.4668 36.6452 35.4266 36.2982 35.1993 36.2982L 28.2183 36.2982C 27.9776 36.2982 27.6299 36.6452 27.4293 37.0694L 24.5405 43.2391C 24.3399 43.6632 24.3801 44.0103 24.6075 44.0103L 31.5885 44.0103C 31.8292 43.946 32.1903 43.5989 32.3909 43.1748L 32.3775 43.2391ZM 44.1463 34.653L 47.0349 28.4833C 47.2355 28.0591 47.1955 27.7121 46.9681 27.7121L 39.9872 27.7121C 39.7464 27.7121 39.3986 28.0591 39.198 28.4833L 36.3094 34.653C 36.1088 35.0771 36.1488 35.4242 36.3762 35.4242L 43.3572 35.4242C 43.6113 35.3599 43.9591 35.0128 44.1597 34.6015L 44.1463 34.653ZM 47.9176 43.2391L 50.8064 37.0694C 51.007 36.6452 50.9668 36.2982 50.7394 36.2982L 43.7584 36.2982C 43.5177 36.2982 43.1701 36.6452 42.9694 37.0694L 40.0807 43.2391C 39.8801 43.6632 39.9203 44.0103 40.1476 44.0103L 47.1286 44.0103C 47.3694 43.946 47.7304 43.5989 47.931 43.1748L 47.9176 43.2391ZM 56.1424 25.3856L 59.0312 19.216C 59.2318 18.7918 59.1916 18.4447 58.9643 18.4447L 51.9833 18.4447C 51.7425 18.4447 51.3949 18.7918 51.1943 19.216L 48.3055 25.3856C 48.1049 25.8098 48.1449 26.1568 48.3723 26.1568L 55.3534 26.1568C 55.5942 26.0925 55.9552 25.7455 56.1424 25.3213L 56.1424 25.3856ZM 52.6921 16.6067L 55.5807 10.437C 55.7813 10.0128 55.7413 9.66583 55.5139 9.66583L 48.5329 9.66583C 48.2922 9.66583 47.9444 10.0128 47.7438 10.437L 44.8552 16.6067C 44.6546 17.0308 44.6946 17.3779 44.9219 17.3779L 51.9029 17.3779C 52.1437 17.3136 52.5049 16.9666 52.6921 16.5553L 52.6921 16.6067ZM 64.2602 8.02055L 67.1489 1.8509C 67.3495 1.42674 67.3095 1.07969 67.0821 1.07969L 60.101 1.07969C 59.8603 1.07969 59.5126 1.42674 59.312 1.8509L 56.4232 8.02055C 56.2226 8.44472 56.2628 8.79173 56.4902 8.79173L 63.4712 8.79173C 63.7119 8.74031 64.0729 8.39333 64.2602 7.96916L 64.2602 8.02055Z"/>
<path id="path1_fill" d="M 77.9198 44.473L 2.94717 44.473C 0.419551 44.473 -0.703814 42.4807 0.459692 40.0514L 17.4843 4.4216C 18.108 3.19326 19.0514 2.14066 20.223 1.36596C 21.3946 0.59125 22.7546 0.120731 24.1711 0L 99.157 0C 101.685 0 102.808 1.99229 101.645 4.4216L 84.6332 40C 84.0144 41.2415 83.07 42.3067 81.8929 43.091C 80.7158 43.8752 79.3465 44.3515 77.9198 44.473Z"/>
<path id="path2_fill" d="M 64.68 0.325296L 39.5026 0.325296L 31.835 16.92C 31.713 17.154 31.48 17.6007 31.025 17.6007C 30.5701 17.6007 30.6699 17.2072 30.5923 16.92L 26.6421 3.02728C 26.2093 0.559364 22.2035 0.00618121 19.7957 0.00618121C 17.9514 -0.0573888 16.1249 0.370193 14.5187 1.24148C 12.9126 2.11276 11.5896 3.39368 10.6968 4.94204L 2.16723e-05 28.1851L 9.68701 28.1851L 17.4544 12.3139C 17.8871 11.5161 18.3421 11.5161 18.4753 11.5161C 18.6084 11.5161 18.8303 11.9097 18.8636 12.1969L 21.571 22.7068C 21.9927 25.2173 23.069 27.8766 26.986 28.1851C 34.2318 28.7702 37.2612 26.2278 39.1142 22.2706L 45.9384 7.68655C 46.1258 7.2929 46.4272 6.9592 46.807 6.72531C 47.1867 6.49143 47.6286 6.36718 48.0799 6.36744L 56.036 6.36744C 58.4771 6.36744 57.6339 8.49496 57.0458 9.76083C 56.0471 11.9947 53.861 12.1331 51.3755 12.1331L 49.9664 12.1331C 46.6375 12.1331 43.1533 12.9415 43.1644 18.0901C 43.1644 19.1538 44.3405 21.0899 45.0507 22.6111C 45.8718 24.3556 48.2908 28.1851 48.2908 28.1851L 59.6534 28.1851L 52.9956 18.7177L 53.0954 18.5581L 53.9277 18.5581C 60.8295 18.5581 63.193 17.3455 66.2222 12.0054C 66.8271 10.895 67.3355 9.73865 67.7424 8.54819C 69.1183 4.44209 69.1518 0.325296 64.68 0.325296Z"/>
<path id="path3_fill" d="M 43.4292 42.9676L 29.4913 42.9676L 37.1847 25.9084L 21.5544 25.9084L 13.861 42.9676L 0 42.9676L 19.2335 -7.80517e-06L 33.1457 -7.80517e-06L 26.2986 15.2177L 41.929 15.2177L 48.7633 -7.80517e-06L 62.6755 -7.80517e-06L 43.4292 42.9676Z"/>
<path id="path4_fill" d="M 29.8946 43.4509L 41.8578 18.2202C 41.8578 18.2202 41.9475 18.0923 41.9604 18.0412C 42.0653 17.8035 42.1428 17.5546 42.1912 17.2994C 42.2809 16.9286 42.2938 16.6217 41.9219 16.6217C 41.5501 16.6217 40.5371 17.5425 39.3575 18.7062L 19.111 39.6145C 16.2003 42.5557 12.4819 43.9752 6.57079 43.9752C 0.287851 43.9752 -0.5584 40.7782 0.262228 37.2871C 0.575926 36.0436 1.00519 34.832 1.54446 33.6681L 16.4183 0.521615L 30.5229 0.521615L 18.893 25.1385C 18.6528 25.6102 18.4554 26.1024 18.3032 26.6091C 18.2006 27.0439 18.3032 27.2869 18.6366 27.2869C 18.9699 27.2869 19.7778 26.6091 20.5984 25.7523L 40.6012 5.06137C 42.2265 3.35674 44.2029 2.02363 46.3943 1.15383C 48.5857 0.284034 50.9401 -0.101798 53.2953 0.022904C 60.1296 0.022904 60.681 3.94879 59.8732 7.38876C 59.596 8.50319 59.2184 9.59039 58.7448 10.637L 44.0504 43.4509L 29.8946 43.4509Z"/>
<path id="path5_fill" d="M 22.2339 24.3356C 24.3111 22.558 25.9139 21.5094 26.2857 19.9109C 26.3725 18.952 26.241 17.9859 25.9011 17.0848L 21.4133 0.0255791L 36.2487 0.0255791L 39.9416 15.985C 40.2493 17.2972 40.2493 18.6626 39.9416 19.9748C 39.1316 23.0955 37.3327 25.8719 34.8126 27.8906L 17.4127 42.9421L -2.50436e-05 42.9421L 22.2339 24.3356ZM 50.443 0.0383796L 64.3552 0.0383796L 45.1217 43.006L 31.1198 43.006L 50.443 0.0383796ZM 60.047 43.006L 55.7643 26.6758C 55.3907 25.428 55.3597 24.1032 55.6746 22.8394C 56.4054 19.7063 57.7902 18.0566 60.7009 15.3456L 77.6007 1.71714e-05L 93.603 1.71714e-05L 72.8308 18.1717C 71.5486 19.2715 69.8945 20.448 69.5355 22.0081C 69.3863 23.1776 69.5546 24.3656 70.0228 25.4481L 76.2544 42.9421L 60.047 43.006Z"/>
<path id="path6_fill" d="M 50.2034 10.4605L 28.9184 10.4605C 28.0719 10.4396 27.241 10.6906 26.5484 11.1764C 25.8558 11.6623 25.3381 12.3573 25.0717 13.1589L 23.6484 16.3559L 47.1645 16.3559L 42.9075 25.8061L 19.3914 25.8061L 17.5834 29.86C 17.4394 30.1788 17.3194 30.5079 17.2244 30.8446C 16.9552 32.0083 17.5578 32.5582 19.0323 32.5582L 40.4585 32.5582L 35.8425 42.9421L 4.45336 42.9421C 0.824644 42.9421 -0.508834 40.7297 0.170749 37.8269C 0.307403 37.255 0.500703 36.6982 0.747769 36.1644L 13.9547 6.75207C 14.7132 4.77693 16.0514 3.07588 17.7946 1.87127C 19.5377 0.666655 21.6047 0.0145093 23.7253 1.71714e-05L 54.8707 1.71714e-05L 50.2034 10.4605Z"/>
<path id="path7_fill" d="M -1.25218e-05 42.9676L 16.2715 6.75205C 18.2077 2.45528 21.1184 -7.80517e-06 26.0421 -7.80517e-06L 57.1876 -7.80517e-06L 52.4048 10.678L 31.107 10.678C 30.2604 10.657 29.4296 10.908 28.737 11.3938C 28.0444 11.8796 27.5267 12.5746 27.2603 13.3762L 13.9123 42.9676L -1.25218e-05 42.9676Z"/>
<path id="path8_fill" d="M 52.5912 15.3967C 51.9605 18.065 51.1026 20.6748 50.0268 23.1975C 42.577 41.804 34.999 43.9524 17.7658 43.9524C 3.30224 43.9524 -1.95489 39.5916 0.635216 28.6068C 1.27138 25.9234 2.12913 23.2972 3.19968 20.7549C 10.6495 2.16118 18.2274 3.74849e-05 35.4735 3.74849e-05C 50.0011 -0.0127505 55.1942 4.33514 52.5912 15.3967ZM 15.4065 27.1234C 14.3935 31.4202 16.6888 33.2616 21.651 33.2616C 29.0367 33.2616 32.3833 30.5633 35.9735 22.5836C 36.7934 20.7433 37.4498 18.8349 37.9353 16.8802C 38.9483 12.5834 36.6531 10.678 31.7549 10.678C 24.3693 10.678 20.9714 13.3763 17.4324 21.356C 16.5849 23.2135 15.8944 25.1384 15.3681 27.1106L 15.4065 27.1234Z"/>
<path id="path9_fill" d="M 3.75654e-05 42.9676L 16.2715 6.75205C 17.0299 4.7769 18.3682 3.07589 20.1114 1.87128C 21.8545 0.666669 23.9215 0.0144843 26.0422 -7.80517e-06L 49.2505 -7.80517e-06C 56.9439 -7.80517e-06 58.9699 4.23281 57.4312 10.7419C 56.9451 12.6885 56.3107 14.5952 55.5335 16.4454C 51.4304 26.3305 47.8401 30.5122 36.7616 30.5122L 19.4643 30.5122L 13.8994 42.9165L 3.75654e-05 42.9676ZM 34.0433 19.9493C 37.7361 19.9493 39.5569 19.5145 41.3905 15.8955C 41.7413 15.1875 42.0205 14.4464 42.2239 13.6831C 42.7753 11.3557 41.2494 10.7419 38.172 10.7419L 31.0942 10.7419C 30.2477 10.7209 29.4168 10.9719 28.7242 11.4577C 28.0316 11.9435 27.5139 12.6385 27.2475 13.4401L 24.2983 19.9493L 34.0433 19.9493Z"/>
<path id="path10_fill" d="M 52.6041 15.3967C 51.9729 18.0649 51.1149 20.6746 50.0396 23.1975C 42.5899 41.804 35.0118 43.9524 17.7658 43.9524C 3.30222 43.9524 -1.95491 39.5916 0.635197 28.6068C 1.27091 25.9233 2.12867 23.297 3.19966 20.7549C 10.6494 2.16118 18.2274 3.74849e-05 35.4606 3.74849e-05C 50.0011 -0.0127505 55.1942 4.33514 52.6041 15.3967ZM 15.4194 27.1234C 14.4064 31.4202 16.7015 33.2616 21.6766 33.2616C 29.0623 33.2616 32.4089 30.5633 35.9992 22.5836C 36.8191 20.7433 37.4755 18.8349 37.961 16.8802C 38.9739 12.5834 36.6787 10.678 31.7806 10.678C 24.3949 10.678 20.9842 13.3763 17.4581 21.356C 16.6019 23.2128 15.9028 25.1377 15.368 27.1106L 15.4194 27.1234Z"/>
<path id="path11_fill" d="M -2.8174e-05 51.7402L 5.51363 39.5276C 7.4498 35.2309 10.2963 32.7756 15.2201 32.7756L 15.8356 32.7756L 40.6211 4.84666C 42.4803 2.69827 45.4552 -3.12207e-06 52.7126 -3.12207e-06C 59.97 -3.12207e-06 60.406 2.69827 60.406 4.84666L 60.0598 32.7756L 60.6752 32.7756C 64.3039 32.7756 65.7144 34.924 65.022 37.8908C 64.8853 38.4627 64.692 39.0195 64.445 39.5532L 58.9314 51.7658L 45.6346 51.7658L 48.1991 46.1774C 48.3384 45.88 48.4541 45.5721 48.5453 45.2567C 48.8146 44.093 48.353 43.4792 47.0579 43.4792L 19.2335 43.4792C 18.4492 43.5226 17.6971 43.8045 17.0782 44.2868C 16.4593 44.7692 16.0033 45.4289 15.7715 46.1774L 13.207 51.7658L -2.8174e-05 51.7402ZM 29.9401 32.7756L 47.5452 32.7756L 48.1991 13.5041C 48.1991 13.0693 48.3402 12.4044 47.9042 12.4044C 47.4683 12.4044 47.0195 13.0182 46.622 13.5041L 29.9401 32.7756Z"/>
<path id="path12_fill" d="M 13.3288 42.9676C 2.00666 42.9676 -1.6349 37.5072 0.647471 27.8011C 1.32392 25.0107 2.23319 22.2816 3.3658 19.6424C 9.61027 4.84666 15.983 -7.80517e-06 31.3698 -7.80517e-06L 49.5903 -7.80517e-06L 44.8076 10.678L 33.7419 10.678C 24.5098 10.678 21.5094 11.6626 17.3678 20.9084C 16.5434 22.7522 15.8702 24.6596 15.3546 26.6118C 14.2391 31.3434 16.9062 32.3152 24.0482 32.3152L 35.7422 32.3152L 30.9595 42.9932L 13.3288 42.9676Z"/>
<path id="path13_fill" d="M 19.2335 3.12207e-06L 33.1457 3.12207e-06L 13.9122 42.9676L 0 42.9676L 19.2335 3.12207e-06ZM 31.4147 42.9676L 25.2343 26.3432C 24.8439 25.1947 24.8126 23.9549 25.1446 22.7882C 25.714 19.9958 27.1926 17.4693 29.3503 15.6014L 48.0324 0.0128036L 64.5219 0.0128036L 41.4418 18.3635C 40.0454 19.2162 39.0101 20.549 38.5311 22.1104C 38.3509 23.0374 38.5198 23.9982 39.0055 24.8087L 47.4811 42.9804L 31.4147 42.9676Z"/>
<path id="path14_fill" d="M 52.6041 15.3967C 51.9728 18.0649 51.1149 20.6746 50.0396 23.1975C 42.5899 41.804 35.0119 43.9524 17.7659 43.9524C 3.30227 43.9524 -1.95494 39.5916 0.635169 28.6068C 1.27088 25.9233 2.12865 23.297 3.19963 20.7549C 10.6494 2.16118 18.2274 3.74849e-05 35.4606 3.74849e-05C 50.014 -0.0127505 55.207 4.33514 52.6041 15.3967ZM 15.4193 27.1234C 14.4064 31.4202 16.7016 33.2616 21.6766 33.2616C 29.0623 33.2616 32.4089 30.5633 35.9992 22.5836C 36.819 20.7433 37.4755 18.8349 37.961 16.8802C 38.974 12.5834 36.6788 10.678 31.7806 10.678C 24.395 10.678 20.9842 13.3763 17.4581 21.356C 16.6063 23.2132 15.9114 25.1381 15.3808 27.1106L 15.4193 27.1234Z"/>
<path id="path15_fill" d="M 50.1906 10.4605L 28.8928 10.4605C 28.0463 10.4396 27.2154 10.6906 26.5228 11.1764C 25.8302 11.6623 25.3125 12.3573 25.0461 13.1589L 23.6227 16.3559L 47.1261 16.3559L 42.8691 25.8061L 19.353 25.8061L 17.545 29.86C 17.4009 30.1788 17.2809 30.5079 17.186 30.8446C 16.9167 32.0083 17.5193 32.5582 18.9939 32.5582L 40.5354 32.5582L 35.8424 42.9421L 4.45335 42.9421C 0.824628 42.9421 -0.50885 40.7297 0.170733 37.8269C 0.307387 37.255 0.500687 36.6982 0.747754 36.1644L 13.9547 6.75207C 14.7132 4.77693 16.0514 3.07588 17.7945 1.87127C 19.5377 0.666655 21.6047 0.0145093 23.7253 1.71714e-05L 54.8195 1.71714e-05L 50.1906 10.4605Z"/>
<path id="path16_fill" d="M 19.3782 3.13621e-06L 33.3392 3.13621e-06L 14.0382 43.1623L 0 43.1623L 19.3782 3.13621e-06ZM 31.6022 43.1623L 25.4001 26.4626C 25.0083 25.3088 24.9769 24.0635 25.31 22.8915C 25.8815 20.0864 27.3652 17.5484 29.5305 15.6721L 48.2782 0.0128616L 64.8256 0.0128616L 41.6644 18.4467C 40.2632 19.3033 39.2243 20.6421 38.7435 22.2106C 38.5627 23.1418 38.7322 24.1069 39.2196 24.9212L 47.7249 43.1752L 31.6022 43.1623Z"/>
<path id="path17_fill" d="M 52.7887 15.4665C 52.1553 18.1467 51.2943 20.7682 50.2153 23.3026C 42.7394 41.9934 35.1347 44.1515 17.8282 44.1515C 3.31382 44.1515 -1.96177 39.771 0.637435 28.7364C 1.27538 26.0408 2.13615 23.4026 3.2109 20.849C 10.6868 2.17097 18.2914 3.76547e-05 35.5851 3.76547e-05C 50.1895 -0.0128083 55.4008 4.35478 52.7887 15.4665ZM 15.4735 27.2463C 14.457 31.5625 16.7602 33.4123 21.7527 33.4123C 29.1643 33.4123 32.5227 30.7018 36.1255 22.6859C 36.9483 20.8373 37.607 18.9202 38.0942 16.9567C 39.1107 12.6405 36.8075 10.7264 31.8922 10.7264C 24.4806 10.7264 21.0579 13.4369 17.5194 21.4528C 16.6646 23.3184 15.9673 25.252 15.4349 27.2334L 15.4735 27.2463Z"/>
<path id="path18_fill" d="M 33.0562 5.0613C 37.1351 0.308302 42.7067 -3.13621e-06 45.3573 -3.13621e-06C 48.008 -3.13621e-06 53.3479 0.179843 53.1935 5.0613L 51.791 43.5991L 37.8299 43.5991L 40.1461 15.0426C 40.1461 14.6701 40.2619 13.9892 39.9531 13.9892C 39.6443 13.9892 39.1296 14.6059 38.7822 15.0426L 15.6209 43.5991L -1.0995e-05 43.5991L 33.0562 5.0613Z"/>
<path id="path19_fill" d="M 17.0147 3.13621e-06L 30.9757 3.13621e-06L 24.3233 14.927L 40.4461 14.927C 48.3466 14.927 50.4569 18.8707 48.8356 25.7818C 48.4631 27.3415 47.9595 28.867 47.3301 30.3421C 43.367 39.5912 40.1244 43.188 28.9941 43.188L 4.46901 43.188C 0.827551 43.188 -0.510647 40.9657 0.171322 38.0497C 0.308455 37.4752 0.502434 36.9158 0.750367 36.3797L 17.0147 3.13621e-06ZM 19.5109 25.6919L 17.6966 29.764C 17.5526 30.0846 17.4322 30.4152 17.3363 30.7532C 17.0661 31.9222 17.6709 32.4745 19.1506 32.4745L 26.2534 32.4745C 29.9592 32.4745 31.8121 32.4745 33.2146 29.3915C 33.4226 28.9536 33.5906 28.4979 33.7165 28.0298C 34.2054 25.936 32.5327 25.6919 29.3287 25.6919L 19.5109 25.6919Z"/>
<path id="path20_fill" d="M 17.4004 30.6504C 17.1174 31.935 17.7865 32.436 19.2662 32.436L 32.3652 32.436L 46.8409 3.13622e-06L 60.802 3.13622e-06L 46.3262 32.436L 46.9438 32.436C 50.5853 32.436 51.9235 34.6583 51.2415 37.5744C 51.1044 38.1488 50.9104 38.7082 50.6625 39.2443L 45.181 51.5122L 31.8376 51.5122L 34.3339 45.8985C 34.4733 45.5996 34.5894 45.2904 34.6813 44.9736C 34.9386 43.8689 34.4883 43.188 33.253 43.188L 4.5331 43.188C 0.891648 43.188 -0.523778 41.0299 0.171058 38.0497C 0.308192 37.4752 0.502171 36.9158 0.750104 36.3797L 17.0144 3.13622e-06L 30.9755 3.13622e-06L 17.6964 29.7255C 17.5782 30.0272 17.4793 30.3361 17.4004 30.6504Z"/>
<path id="path21_fill" d="M 52.7887 15.4665C 52.1553 18.1467 51.2943 20.7682 50.2152 23.3026C 42.7393 41.9934 35.1348 44.1515 17.8282 44.1515C 3.31384 44.1515 -1.96178 39.771 0.637417 28.7364C 1.27536 26.0408 2.13614 23.4026 3.21088 20.849C 10.6868 2.17097 18.2914 3.76547e-05 35.5851 3.76547e-05C 50.1767 -0.0128083 55.3879 4.35478 52.7887 15.4665ZM 15.4735 27.2463C 14.4569 31.5625 16.7602 33.4123 21.7527 33.4123C 29.1643 33.4123 32.5227 30.7018 36.1255 22.6859C 36.9483 20.8373 37.6071 18.9202 38.0942 16.9567C 39.1108 12.6405 36.8075 10.7264 31.8922 10.7264C 24.4806 10.7264 21.0579 13.4369 17.5194 21.4528C 16.6646 23.3184 15.9673 25.252 15.4348 27.2334L 15.4735 27.2463Z"/>
</defs>
</svg>
