<svg width="690" height="42" viewBox="0 0 690 42" fill="none" xmlns="http://www.w3.org/2000/svg">
<path fill-rule="evenodd" clip-rule="evenodd" d="M127.575 17.4381H123.223C122.466 17.4381 121.614 18.0037 121.33 18.7577L119.438 23.0937C119.154 23.8478 119.438 24.4133 120.195 24.4133H124.547C125.304 24.4133 126.156 23.8478 126.44 23.0937L128.332 18.7577C128.616 18.0037 128.332 17.4381 127.575 17.4381ZM134.956 0.75408H130.603C129.846 0.75408 128.994 1.31964 128.711 2.07372L126.818 6.40968C126.534 7.16376 126.818 7.72932 127.575 7.72932H131.928C132.685 7.72932 133.536 7.16376 133.82 6.40968L135.713 2.07372C135.996 1.4139 135.713 0.75408 134.956 0.75408ZM109.313 17.4381C108.556 17.4381 107.705 18.0037 107.421 18.7577L105.528 23.0937C105.245 23.8478 105.528 24.4133 106.285 24.4133H110.638C111.395 24.4133 112.247 23.8478 112.53 23.0937L114.423 18.7577C114.707 18.0037 114.423 17.4381 113.666 17.4381H109.313ZM84.9011 31.8599L87.172 26.6756C87.5505 25.8272 87.172 25.0731 86.3204 25.0731H81.1163C80.5486 25.0731 79.8862 25.3559 79.4131 25.8272L83.8603 15.8357C83.9549 16.307 84.2388 16.684 84.9011 16.684H90.1053C90.9569 16.684 91.9977 16.0242 92.3762 15.0816L94.6471 9.89729C95.0256 9.04896 94.6471 8.29488 93.7955 8.29488H88.5913C88.0236 8.29488 87.3613 8.57766 86.8882 9.04896L89.1591 4.05318C90.0107 1.97946 89.0645 0.09426 86.7935 0.09426L21.2213 0.09426C18.9504 0.09426 16.3011 1.97946 15.2602 4.2417L0.404756 37.6097C-0.636073 39.872 0.404756 41.7572 2.67566 41.7572H68.2479C70.5188 41.7572 73.1682 39.872 74.209 37.6097L76.4799 32.5197C76.5745 32.991 76.8584 33.368 77.5207 33.368H82.7249C83.4818 33.368 84.5227 32.7082 84.9011 31.8599ZM118.113 10.4629L116.221 14.7988C115.937 15.5529 116.221 16.1185 116.978 16.1185H121.33C122.087 16.1185 122.939 15.5529 123.223 14.7988L125.115 10.4629C125.399 9.70878 125.115 9.14322 124.358 9.14322H120.005C119.343 9.14322 118.492 9.70878 118.113 10.4629ZM103.068 9.99156L100.797 15.1759C100.419 16.0242 100.797 16.7783 101.649 16.7783H106.853C107.705 16.7783 108.746 16.1185 109.124 15.1759L111.395 9.99156C111.773 9.14322 111.395 8.38914 110.543 8.38914H105.339C104.488 8.38914 103.447 9.14322 103.068 9.99156ZM91.0515 33.368C91.9031 33.368 92.2816 34.0278 91.9031 34.9704L89.6322 40.1547C89.2537 41.0031 88.2129 41.7572 87.3613 41.7572H82.1571C81.3055 41.7572 80.9271 41.0973 81.3055 40.1547L83.5764 34.9704C83.9549 34.1221 84.9958 33.368 85.8473 33.368H91.0515ZM115.842 31.3886L117.735 27.0526C118.018 26.2985 117.735 25.733 116.978 25.733H112.625C111.868 25.733 111.016 26.2985 110.733 27.0526L108.84 31.3886C108.556 32.1426 108.84 32.7082 109.597 32.7082H113.95C114.612 32.7082 115.464 32.1426 115.842 31.3886ZM106.191 34.1221H101.838C101.081 34.1221 100.23 34.6877 99.9458 35.4417L98.0534 39.7777C97.7696 40.5318 98.0534 41.0973 98.8104 41.0973H103.163C103.92 41.0973 104.772 40.5318 105.055 39.7777L106.948 35.4417C107.232 34.6877 106.948 34.1221 106.191 34.1221ZM113.666 7.72932H118.018C118.775 7.72932 119.627 7.16376 119.911 6.40968L121.803 2.07372C122.087 1.31964 121.803 0.75408 121.046 0.75408L116.694 0.75408C115.937 0.75408 115.085 1.31964 114.801 2.07372L112.909 6.40968C112.53 7.16376 112.909 7.72932 113.666 7.72932ZM97.0126 8.38914H102.217C103.068 8.38914 104.109 7.72932 104.488 6.78672L106.759 1.60242C107.137 0.75408 106.759 0 105.907 0L100.703 0C99.8512 0 98.8104 0.65982 98.4319 1.60242L96.161 6.78672C95.6879 7.72932 96.161 8.38914 97.0126 8.38914ZM101.744 31.8599C101.365 32.7082 100.324 33.4623 99.4727 33.4623H94.2686C93.417 33.4623 93.0385 32.8025 93.417 31.8599L95.6879 26.6756C96.0664 25.8272 97.1072 25.0731 97.9588 25.0731H103.163C104.015 25.0731 104.393 25.733 104.015 26.6756L101.744 31.8599ZM120.195 34.1221H115.842C115.085 34.1221 114.234 34.6877 113.95 35.4417L112.057 39.7777C111.773 40.5318 112.057 41.0973 112.814 41.0973H117.167C117.924 41.0973 118.775 40.5318 119.059 39.7777L120.952 35.4417C121.236 34.6877 120.857 34.1221 120.195 34.1221ZM93.2278 16.7783H98.4319C99.2835 16.7783 99.662 17.4381 99.2835 18.3807L97.0126 23.565C96.6341 24.4133 95.5933 25.1674 94.7417 25.1674H89.5376C88.686 25.1674 88.3075 24.5076 88.686 23.565L90.9569 18.3807C91.3354 17.4381 92.3762 16.7783 93.2278 16.7783Z" fill="url(#paint0_linear)"/>
<path fill-rule="evenodd" clip-rule="evenodd" d="M63.329 24.8802H67.5869C70.047 24.8802 72.6964 23.7491 75.1566 21.0155C77.3328 18.4705 78.4683 16.2083 79.1306 14.7944C80.1715 12.4379 81.1177 9.70434 80.6446 7.63062C80.2661 6.0282 79.2253 4.80282 77.9006 4.42578C74.305 4.42578 49.2305 4.42578 49.2305 4.42578L40.7146 23.4663C40.62 23.6548 40.3361 23.9376 40.0522 23.9376C39.6738 23.9376 39.2953 22.7122 39.2953 22.7122L35.2266 7.25358C34.4696 4.52004 30.5902 4.52004 28.2246 4.52004C21.6012 4.52004 18.6679 8.66748 18.1948 9.70434L7.02959 34.589C6.74573 35.2488 6.93497 35.8144 7.69193 35.8144H15.4508C16.1132 35.8144 16.9648 35.2488 17.2486 34.589L25.0075 17.1509C25.1022 16.9624 25.386 16.3968 25.8591 16.3968C26.2376 16.3968 26.5215 17.4337 26.5215 17.4337L30.6848 33.0808C31.2525 35.0603 34.0911 35.8144 37.6867 35.8144C44.3102 35.8144 47.2434 31.6669 47.7165 30.6301L55.4754 13.0977C55.8539 12.4379 56.327 11.7781 56.7055 11.4953C57.3679 11.024 57.9356 11.024 58.5033 11.024H67.1138C68.7224 11.401 69.3847 12.9092 68.6277 14.5116C67.8708 16.2083 65.8837 17.6222 63.8967 17.905C61.815 17.905 59.5441 17.905 59.5441 17.905C56.9894 17.905 54.4346 19.3189 53.4884 21.3926C53.4884 21.3926 52.4476 23.2778 53.4884 26.2941L58.2194 35.8144C58.2194 35.8144 65.5052 35.8144 67.9654 35.8144C70.4255 35.8144 69.4793 33.9291 69.4793 33.9291L63.329 24.8802Z" fill="white"/>
<path fill-rule="evenodd" clip-rule="evenodd" d="M149.623 41.4755H141.486L145.838 31.4839H136.754L132.307 41.4755H124.17L135.335 16.4023H143.473L139.498 25.2628H148.677L152.556 16.4023H160.694L149.623 41.4755Z" fill="white"/>
<path fill-rule="evenodd" clip-rule="evenodd" d="M172.33 41.4736L179.237 26.7691C179.426 26.2978 179.616 25.8265 179.332 25.8265C179.143 25.8265 178.764 26.2035 177.818 27.0519L165.233 39.2114C164.003 40.4368 162.205 41.7564 158.705 41.7564C153.784 41.7564 154.447 38.7401 155.771 35.7238L164.382 16.4005H172.614L165.896 30.728C165.801 30.9165 165.801 31.0108 165.706 31.105C165.612 31.3878 165.328 31.9534 165.801 31.9534C165.99 31.9534 166.369 31.6706 166.937 31.0108L179.237 18.9455C182.076 16.1177 184.536 16.0234 185.955 16.0234C191.727 16.0234 190.119 20.1709 189.172 22.2446L180.657 41.3794H172.33V41.4736Z" fill="white"/>
<path fill-rule="evenodd" clip-rule="evenodd" d="M194.57 30.8241C196.178 29.5045 196.651 28.9389 196.841 28.5619C197.124 27.9963 196.841 27.3365 196.651 26.6767L194.097 16.4023H203.464L204.978 25.7341C205.073 26.6767 205.262 27.6193 204.883 28.5619C204.41 29.5987 203.369 30.6356 201.855 31.9552L191.542 41.4755H181.701L194.57 30.8241ZM211.034 16.4023L199.868 41.4755H208.006L219.171 16.4023H211.034ZM216.332 41.4755L214.44 31.9552C214.156 30.6356 214.061 29.5045 214.535 28.5619C214.913 27.8078 215.765 26.8652 216.9 25.7341L226.835 16.4023H236.203L224.281 26.6767C223.618 27.2422 222.767 27.9021 222.483 28.5619C222.294 28.9389 222.294 29.5045 222.672 30.8241L226.173 41.3812H216.332V41.4755Z" fill="white"/>
<path fill-rule="evenodd" clip-rule="evenodd" d="M231.563 41.4711C230.523 41.4711 229.482 41.3768 228.914 40.6227C228.157 39.6801 228.63 38.6433 229.198 37.5122L236.862 20.3568C237.335 19.4142 237.903 18.3774 239.228 17.529C240.552 16.6807 241.877 16.4922 242.729 16.4922H260.801L258.057 22.6191H245.662C245.189 22.6191 244.621 22.7133 244.243 22.9961C243.675 23.2789 243.486 23.8445 243.296 24.2215L242.445 26.1067H256.165L253.705 31.5738H239.985L238.755 34.3073C238.565 34.7786 238.565 35.0614 238.66 35.2499C238.849 35.627 239.512 35.5327 240.079 35.5327H252.38L249.636 41.6596H231.563V41.4711Z" fill="white"/>
<path fill-rule="evenodd" clip-rule="evenodd" d="M252.191 41.4755L261.275 21.0211C261.748 19.89 262.316 18.6646 263.735 17.6277C264.681 16.9679 266.006 16.4023 267.236 16.4023H285.971L283.227 22.6235H270.359C269.886 22.6235 269.223 22.6235 268.75 23.0005C268.372 23.2833 268.182 23.8489 267.993 24.2259L260.234 41.4755H252.191Z" fill="white"/>
<path fill-rule="evenodd" clip-rule="evenodd" d="M310.571 18.6661C312.18 21.2111 310.382 25.5471 308.868 28.9404C307.354 32.2395 305.367 36.6698 301.487 39.2148C297.703 41.6655 293.066 41.7598 289.376 41.7598C285.686 41.7598 281.049 41.6655 279.535 39.2148C277.927 36.6698 279.819 32.2395 281.239 28.9404C282.753 25.5471 284.74 21.2111 288.619 18.6661C292.404 16.2154 296.946 16.1211 300.73 16.1211C304.515 16.1211 308.963 16.2154 310.571 18.6661ZM288.335 33.6534C288.714 35.2559 290.038 35.4444 292.12 35.4444C294.202 35.4444 295.621 35.2559 297.513 33.6534C299.027 32.3338 299.69 30.9199 300.541 28.8462C301.487 26.6782 302.055 25.4528 301.771 24.0389C301.393 22.4365 300.163 22.248 297.986 22.248C295.905 22.248 294.391 22.4365 292.593 24.0389C291.079 25.3586 290.511 26.6782 289.565 28.8462C288.619 30.9199 288.051 32.4281 288.335 33.6534Z" fill="white"/>
<path fill-rule="evenodd" clip-rule="evenodd" d="M306.123 41.4755L315.207 21.1153C315.68 20.0785 316.437 18.6646 317.761 17.722C318.613 17.1564 319.938 16.4023 321.641 16.4023H335.55C337.537 16.4023 339.335 16.6851 340.092 18.1933C340.754 19.4187 340.565 21.3981 338.956 25.0743C338.2 26.8652 336.118 31.1069 333.185 32.9921C331.576 34.029 329.494 34.3117 328.17 34.3117H317.572L314.355 41.5697H306.123V41.4755ZM326.088 27.9963C327.129 27.9963 328.075 28.0906 329.116 27.3365C329.684 26.8652 330.251 26.2054 330.724 25.1685C331.008 24.5087 331.292 23.7546 330.914 23.1891C330.441 22.6235 329.589 22.6235 328.643 22.6235H324.196C322.871 22.6235 322.398 23.5661 322.114 24.1317L320.411 27.9963H326.088Z" fill="white"/>
<path fill-rule="evenodd" clip-rule="evenodd" d="M368.671 18.6661C370.279 21.2111 368.481 25.5471 366.967 28.9404C365.548 32.2395 363.467 36.6698 359.587 39.2148C355.802 41.6655 351.166 41.7598 347.476 41.7598C343.785 41.7598 339.149 41.6655 337.635 39.2148C336.026 36.6698 337.919 32.2395 339.338 28.9404C340.852 25.5471 342.839 21.2111 346.719 18.6661C350.503 16.2154 355.045 16.1211 358.83 16.1211C362.615 16.1211 367.062 16.2154 368.671 18.6661ZM346.435 33.6534C346.813 35.2559 348.138 35.4444 350.22 35.4444C352.301 35.4444 353.721 35.2559 355.613 33.6534C357.127 32.3338 357.789 30.9199 358.641 28.8462C359.587 26.6782 360.155 25.4528 359.776 24.0389C359.398 22.4365 358.168 22.248 355.991 22.248C353.91 22.248 352.396 22.4365 350.598 24.0389C349.084 25.3586 348.422 26.6782 347.57 28.8462C346.813 30.9199 346.151 32.4281 346.435 33.6534Z" fill="white"/>
<path fill-rule="evenodd" clip-rule="evenodd" d="M381.442 18.9489C382.483 17.7235 384.281 16.1211 388.444 16.1211C392.702 16.1211 392.986 17.7235 392.986 18.9489L392.513 35.2559H395.068L392.324 41.477H362.234L364.978 35.2559H367.439L381.442 18.9489ZM375.576 35.2559H384.47L385.322 24.416C385.322 24.2274 385.416 23.7562 385.227 23.7562C385.038 23.7562 384.754 24.2274 384.565 24.416L375.576 35.2559Z" fill="white"/>
<path fill-rule="evenodd" clip-rule="evenodd" d="M403.868 41.4799C399.988 41.4799 397.528 40.9143 396.676 38.3693C396.014 36.4841 396.298 34.0334 398.474 29.2261C400.367 25.0787 402.164 21.8738 404.908 19.6116C408.504 16.6895 412.289 16.3125 415.128 16.3125H425.725L422.981 22.5337H416.263C413.614 22.5337 411.627 22.5337 409.64 24.5131C408.409 25.7385 407.369 27.8122 406.801 29.0376C405.571 31.8654 405.571 32.808 405.571 33.185C405.76 35.1645 408.126 35.1645 410.775 35.1645H417.777L415.033 41.3856H403.868V41.4799Z" fill="white"/>
<path fill-rule="evenodd" clip-rule="evenodd" d="M429.413 16.4068H437.551L426.385 41.4799H418.248L429.413 16.4068ZM436.226 41.4799H445.972L440.957 30.8285C440.673 30.263 440.295 29.4146 440.673 28.5663C440.768 28.3778 441.146 27.8122 442.566 26.6811L455.907 16.3125H446.256L435.28 25.7385C434.428 26.4926 433.293 27.6237 432.914 28.5663C432.441 29.6032 432.725 30.9228 433.009 31.6769L436.226 41.4799Z" fill="white"/>
<path fill-rule="evenodd" clip-rule="evenodd" d="M479.565 18.6661C481.174 21.2111 479.376 25.5471 477.862 28.9404C476.348 32.2395 474.361 36.6698 470.482 39.2148C466.697 41.6655 462.06 41.7598 458.37 41.7598C454.585 41.7598 450.044 41.6655 448.53 39.2148C446.921 36.6698 448.813 32.2395 450.233 28.9404C451.747 25.5471 453.734 21.2111 457.613 18.6661C461.398 16.2154 465.94 16.1211 469.725 16.1211C473.509 16.1211 477.957 16.2154 479.565 18.6661ZM457.329 33.6534C457.708 35.2559 459.032 35.4444 461.114 35.4444C463.196 35.4444 464.615 35.2559 466.508 33.6534C468.021 32.3338 468.684 30.9199 469.535 28.8462C470.482 26.6782 471.049 25.4528 470.671 24.0389C470.292 22.4365 469.062 22.248 466.886 22.248C464.804 22.248 463.29 22.4365 461.493 24.0389C459.979 25.3586 459.316 26.6782 458.465 28.8462C457.613 30.9199 457.045 32.4281 457.329 33.6534Z" fill="white"/>
<path fill-rule="evenodd" clip-rule="evenodd" d="M479.378 41.4711C478.337 41.4711 477.296 41.3768 476.728 40.6227C475.972 39.6801 476.445 38.6433 477.012 37.5122L484.677 20.3568C485.15 19.4142 485.717 18.3774 487.042 17.529C488.367 16.6807 489.692 16.4922 490.543 16.4922H508.616L505.872 22.6191H493.476C493.003 22.6191 492.436 22.7133 492.057 22.9961C491.489 23.2789 491.3 23.8445 491.111 24.2215L490.259 26.1067H503.979L501.519 31.5738H487.799L486.569 34.3073C486.38 34.7786 486.38 35.0614 486.474 35.2499C486.758 35.627 487.326 35.5327 487.894 35.5327H500.194L497.45 41.6596H479.378V41.4711Z" fill="white"/>
<path fill-rule="evenodd" clip-rule="evenodd" d="M514.669 16.4023H522.807L511.641 41.4755H503.504L514.669 16.4023ZM521.482 41.4755H531.228L526.213 30.9184C525.929 30.3528 525.551 29.5045 525.929 28.6561C526.024 28.4676 526.402 27.9021 527.821 26.7709L541.163 16.4023H531.512L520.536 25.8283C519.684 26.5824 518.549 27.7135 518.17 28.6561C517.697 29.693 517.981 31.0126 518.265 31.7667L521.482 41.4755Z" fill="#DD0500"/>
<path fill-rule="evenodd" clip-rule="evenodd" d="M564.817 18.6661C566.426 21.2111 564.628 25.5471 563.114 28.9404C561.695 32.2395 559.613 36.6698 555.734 39.2148C551.949 41.6655 547.312 41.7598 543.622 41.7598C539.837 41.7598 535.295 41.6655 533.782 39.2148C532.173 36.6698 534.065 32.2395 535.485 28.9404C536.999 25.5471 538.986 21.2111 542.865 18.6661C546.65 16.2154 551.192 16.1211 554.977 16.1211C558.761 16.1211 563.209 16.2154 564.817 18.6661ZM542.581 33.6534C542.96 35.2559 544.284 35.4444 546.366 35.4444C548.448 35.4444 549.867 35.2559 551.759 33.6534C553.273 32.3338 553.936 30.9199 554.787 28.8462C555.734 26.6782 556.301 25.4528 556.017 24.0389C555.639 22.4365 554.409 22.248 552.233 22.248C550.151 22.248 548.637 22.4365 546.839 24.0389C545.325 25.3586 544.758 26.6782 543.811 28.8462C542.865 30.9199 542.297 32.4281 542.581 33.6534Z" fill="#DD0500"/>
<path fill-rule="evenodd" clip-rule="evenodd" d="M576.267 18.6661C578.349 16.2154 581.282 16.1211 582.891 16.1211C584.404 16.1211 587.243 16.3096 587.148 18.6661L586.675 41.477H578.065L579.39 24.8873C579.39 24.6987 579.484 24.3217 579.295 24.3217C579.106 24.3217 578.727 24.793 578.633 24.8873L565.196 41.477H556.586L576.267 18.6661Z" fill="#DD0500"/>
<path fill-rule="evenodd" clip-rule="evenodd" d="M606.638 16.4023L602.569 25.4513H613.829C615.343 25.4513 617.519 25.6398 617.614 28.2791C617.708 29.9758 617.046 31.7667 616.289 33.5577C615.532 35.3486 614.397 37.5166 612.693 39.0247C611.558 40.0616 609.287 41.4755 606.543 41.4755H590.931C589.89 41.4755 589.228 40.9099 588.944 40.2501C588.471 39.2133 588.944 37.8936 589.511 36.7625L598.595 16.4023H606.638ZM598.973 33.7462C598.784 34.1232 598.595 34.5945 598.69 34.8773C598.784 35.2543 599.352 35.2543 599.825 35.2543H603.988C605.218 35.2543 605.881 35.3486 606.449 35.0658C606.922 34.8773 607.679 34.2175 608.152 33.0864C608.436 32.4265 608.719 31.6725 607.962 31.2954C607.489 31.1069 606.922 31.1069 605.975 31.1069H600.109L598.973 33.7462Z" fill="#DD0500"/>
<path fill-rule="evenodd" clip-rule="evenodd" d="M620.548 41.4755C619.223 41.4755 617.993 41.5698 617.331 40.5329C616.668 39.496 617.142 37.9879 617.615 36.8568L626.698 16.4023H634.836L627.455 32.8978C627.171 33.4634 626.793 34.406 626.982 34.783C627.171 35.2543 628.118 35.2543 628.401 35.2543H635.593L644.014 16.4023H652.151L643.73 35.2543H647.136L644.392 41.4755H620.548Z" fill="#DD0500"/>
<path fill-rule="evenodd" clip-rule="evenodd" d="M680.161 18.6661C681.769 21.2111 679.972 25.5471 678.458 28.9404C677.038 32.2395 674.957 36.6698 671.077 39.2148C667.292 41.6655 662.656 41.7598 658.966 41.7598C655.181 41.7598 650.639 41.6655 649.125 39.2148C647.517 36.6698 649.409 32.2395 650.828 28.9404C652.342 25.5471 654.424 21.2111 658.209 18.6661C661.994 16.2154 666.536 16.1211 670.32 16.1211C674.2 16.1211 678.647 16.2154 680.161 18.6661ZM657.925 33.6534C658.303 35.2559 659.628 35.4444 661.71 35.4444C663.791 35.4444 665.211 35.2559 667.103 33.6534C668.617 32.3338 669.28 30.9199 670.131 28.8462C671.077 26.6782 671.645 25.4528 671.267 24.0389C670.888 22.4365 669.658 22.248 667.482 22.248C665.4 22.248 663.886 22.4365 662.088 24.0389C660.574 25.3586 660.007 26.6782 659.06 28.8462C658.303 30.9199 657.736 32.4281 657.925 33.6534Z" fill="#DD0500"/>
<path fill-rule="evenodd" clip-rule="evenodd" d="M145.931 2.54688C146.499 2.54688 146.878 2.7354 147.067 3.11243C147.256 3.58373 147.067 4.24355 146.878 4.62059L144.796 9.23933C144.701 9.42785 144.512 9.80489 144.134 10.0877C143.755 10.2762 143.377 10.2762 143.187 10.2762H140.16C139.686 10.2762 139.213 10.2762 138.93 9.89915C138.551 9.33359 138.93 8.29673 139.119 7.82543C139.403 7.16561 139.781 6.50579 140.538 6.03449C141.106 5.65745 141.768 5.65745 142.147 5.65745H145.553L146.026 4.52633C146.121 4.24355 146.215 3.86651 146.121 3.58373C146.026 3.39521 145.837 3.20669 145.458 3.20669H141.674L141.957 2.54688H145.931ZM141.674 6.41153C141.2 6.41153 140.822 6.60005 140.633 6.78857C140.349 7.07135 140.065 7.44839 139.876 8.01395C139.686 8.48525 139.497 9.05081 139.592 9.33359C139.686 9.52211 139.876 9.71063 140.16 9.71063H143.282C143.377 9.71063 143.566 9.71063 143.661 9.61637C143.755 9.52211 143.85 9.42785 143.85 9.33359L145.174 6.41153H141.674Z" fill="white"/>
<path fill-rule="evenodd" clip-rule="evenodd" d="M156.15 3.48947C156.245 3.20669 156.529 3.01817 156.718 2.82966C156.907 2.64114 157.286 2.54688 157.475 2.54688H160.881C161.165 2.54688 161.922 2.54688 162.111 3.11243C162.301 3.48947 162.017 4.14929 161.828 4.62059C161.638 4.99763 161.449 5.46893 160.976 5.75171C160.787 5.94023 160.408 6.12875 160.03 6.22301C160.408 6.31727 160.598 6.50579 160.598 6.69431C160.692 7.07135 160.503 7.44839 160.314 7.82543C160.03 8.48525 159.651 9.14507 158.989 9.71063C158.421 10.0877 157.948 10.1819 157.57 10.1819H153.974C153.69 10.1819 153.501 10.0877 153.406 9.89915C153.312 9.71063 153.406 9.42785 153.501 9.23933L156.15 3.48947ZM159.273 5.94023C159.557 5.94023 159.935 5.94023 160.314 5.65745C160.692 5.37467 160.881 4.99763 161.071 4.62059C161.165 4.33781 161.449 3.86651 161.165 3.58373C160.976 3.30095 160.692 3.30095 160.503 3.30095H157.38C157.286 3.30095 157.191 3.30095 157.097 3.39521C157.002 3.39521 157.002 3.58373 156.907 3.58373L155.867 6.03449H159.273V5.94023ZM154.353 9.23933C154.258 9.33359 154.258 9.52211 154.258 9.61637C154.353 9.71063 154.447 9.71063 154.636 9.71063H157.38C157.854 9.71063 158.137 9.71063 158.611 9.33359C159.084 8.95655 159.273 8.48525 159.462 8.10821C159.651 7.73117 159.841 7.35413 159.651 6.97709C159.557 6.69431 159.273 6.69431 158.894 6.69431H155.488L154.353 9.23933Z" fill="white"/>
<path fill-rule="evenodd" clip-rule="evenodd" d="M169.867 10.3705L172.99 3.30095H170.056L170.34 2.54688H177.058L176.68 3.30095H173.747L170.624 10.3705H169.867Z" fill="white"/>
<path fill-rule="evenodd" clip-rule="evenodd" d="M185.291 3.39521C186.426 2.64114 187.561 2.54688 188.602 2.54688C189.548 2.54688 190.684 2.64114 191.157 3.39521C191.63 4.24355 191.157 5.65745 190.779 6.50579C190.022 8.20247 189.17 9.14507 188.413 9.61637C187.183 10.4647 185.858 10.4647 185.101 10.4647C184.439 10.4647 183.114 10.4647 182.641 9.61637C182.357 9.14507 182.357 8.20247 183.02 6.50579C183.398 5.56319 184.06 4.14929 185.291 3.39521ZM183.303 9.05081C183.587 9.71063 184.534 9.80489 185.385 9.80489C186.142 9.80489 187.183 9.71063 188.129 9.05081C189.075 8.39099 189.643 7.16561 189.927 6.50579C190.211 5.84597 190.779 4.62059 190.495 3.86651C190.211 3.20669 189.17 3.11243 188.413 3.11243C187.656 3.11243 186.615 3.20669 185.669 3.86651C184.723 4.52633 184.155 5.75171 183.871 6.50579C183.493 7.16561 182.925 8.29673 183.303 9.05081Z" fill="white"/>
<path fill-rule="evenodd" clip-rule="evenodd" d="M202.707 9.89576C202.329 10.2728 201.95 10.4613 201.761 10.4613C201.572 10.4613 201.288 10.2728 201.288 9.89576L201.477 3.58034V3.48608C201.382 3.48608 201.382 3.58034 201.382 3.58034L198.355 10.3671H197.598L200.72 3.29756C200.909 2.82626 201.382 2.44922 201.856 2.44922C202.234 2.44922 202.423 2.63774 202.329 3.01478L202.139 9.23594C202.139 9.42446 202.139 9.51872 202.234 9.51872C202.234 9.51872 202.329 9.42446 202.518 9.23594L207.911 3.01478C208.195 2.63774 208.479 2.44922 208.858 2.44922C209.331 2.44922 209.425 2.732 209.236 3.29756L206.114 10.3671H205.357L208.384 3.58034C208.384 3.58034 208.479 3.48608 208.384 3.48608C208.384 3.48608 208.29 3.58034 208.195 3.58034L202.707 9.89576Z" fill="white"/>
<path fill-rule="evenodd" clip-rule="evenodd" d="M218.601 3.39521C219.737 2.64114 220.872 2.54688 221.913 2.54688C222.859 2.54688 223.994 2.64114 224.468 3.39521C224.941 4.24355 224.468 5.65745 224.089 6.50579C223.332 8.20247 222.481 9.14507 221.724 9.61637C220.493 10.4647 219.169 10.4647 218.412 10.4647C217.749 10.4647 216.425 10.4647 215.952 9.61637C215.668 9.14507 215.668 8.20247 216.33 6.50579C216.709 5.56319 217.371 4.14929 218.601 3.39521ZM216.614 9.05081C216.898 9.71063 217.844 9.80489 218.696 9.80489C219.453 9.80489 220.493 9.71063 221.44 9.05081C222.386 8.39099 222.954 7.16561 223.143 6.50579C223.427 5.84597 223.994 4.62059 223.711 3.86651C223.427 3.20669 222.386 3.11243 221.629 3.11243C220.872 3.11243 219.831 3.20669 218.885 3.86651C217.939 4.52633 217.371 5.75171 217.087 6.50579C216.803 7.16561 216.236 8.29673 216.614 9.05081Z" fill="white"/>
<path fill-rule="evenodd" clip-rule="evenodd" d="M237.806 0.75408C237.238 0.75408 236.576 0.9426 236.102 1.22538C235.629 1.50816 235.251 2.07372 234.967 2.54502H237.711C238.563 2.54502 239.603 2.8278 239.793 3.7704C239.982 4.52448 239.509 5.46708 239.13 6.31542C238.657 7.35228 238.089 8.38914 237.333 9.14322C236.102 10.2743 234.872 10.3686 233.926 10.3686C233.075 10.3686 231.845 10.2743 231.655 9.04896C231.561 8.38914 231.845 7.72932 232.128 7.0695L233.926 3.01632C234.115 2.54502 234.494 1.79094 235.156 1.22538C236.008 0.37704 237.143 0 237.995 0L241.401 0L241.117 0.65982H237.806V0.75408ZM232.885 7.35228C232.601 7.91784 232.507 8.4834 232.601 8.86044C232.791 9.61452 233.548 9.70878 234.305 9.70878C234.872 9.70878 235.819 9.70878 236.576 9.04896C237.427 8.38914 237.995 7.16376 238.373 6.22116C238.752 5.37282 239.225 4.43022 238.846 3.7704C238.657 3.48762 238.279 3.20484 237.427 3.20484H234.683L232.885 7.35228Z" fill="white"/>
<path fill-rule="evenodd" clip-rule="evenodd" d="M251.721 10.3671L254.749 3.58034C254.749 3.48608 254.843 3.39182 254.749 3.39182C254.749 3.39182 254.654 3.39182 254.465 3.58034L247.652 9.89576C247.274 10.2728 246.99 10.4613 246.517 10.4613C246.044 10.4613 245.949 10.1785 246.138 9.61298L249.261 2.54348H250.018L246.99 9.3302C246.99 9.42446 246.895 9.51872 246.99 9.51872C247.084 9.51872 247.084 9.42446 247.274 9.3302L254.086 2.92052C254.37 2.63774 254.749 2.44922 255.127 2.44922C255.79 2.44922 255.506 3.10904 255.411 3.39182L252.289 10.3671H251.721Z" fill="white"/>
<path fill-rule="evenodd" clip-rule="evenodd" d="M266.577 3.10904C267.05 2.54348 267.429 2.44922 267.618 2.44922C267.807 2.44922 268.091 2.44922 268.091 3.10904L267.807 10.3671H266.956L267.334 3.58034C267.334 3.48608 267.334 3.39182 267.334 3.39182C267.24 3.39182 267.145 3.58034 267.05 3.58034L261.373 10.3671H260.521L266.577 3.10904Z" fill="white"/>
<path fill-rule="evenodd" clip-rule="evenodd" d="M280.009 2.54348L278.495 5.84258H282.091C282.47 5.84258 282.943 5.84258 283.226 6.31388C283.51 6.78518 283.226 7.445 283.037 8.01056C282.848 8.48186 282.375 9.42446 281.618 9.89576C281.05 10.2728 280.577 10.2728 280.009 10.2728H276.603C276.414 10.2728 276.13 10.2728 276.035 10.0843C275.941 9.89576 276.035 9.61298 276.13 9.3302L279.158 2.44922H280.009V2.54348ZM277.076 9.23594C277.076 9.3302 276.981 9.51872 276.981 9.61298C276.981 9.70724 277.171 9.70724 277.265 9.70724H280.482C280.766 9.70724 281.05 9.70724 281.429 9.3302C281.618 9.14168 281.902 8.8589 282.28 8.10482C282.375 7.82204 282.564 7.35074 282.469 6.9737C282.375 6.69092 281.996 6.59666 281.807 6.59666H278.212L277.076 9.23594Z" fill="white"/>
<path fill-rule="evenodd" clip-rule="evenodd" d="M296.001 10.3705L297.704 6.69431H292.973L291.364 10.3705H290.607L294.014 2.54688H294.771L293.257 6.03449H297.988L299.502 2.54688H300.259L296.758 10.3705H296.001Z" fill="white"/>
<path fill-rule="evenodd" clip-rule="evenodd" d="M309.814 2.54348L308.3 5.84258H311.896C312.274 5.84258 312.747 5.84258 313.031 6.31388C313.315 6.78518 313.031 7.445 312.842 8.01056C312.653 8.48186 312.18 9.42446 311.423 9.89576C310.855 10.2728 310.382 10.2728 309.814 10.2728H306.408C306.218 10.2728 305.935 10.2728 305.84 10.0843C305.745 9.89576 305.84 9.61298 305.935 9.3302L308.962 2.44922H309.814V2.54348ZM306.881 9.23594C306.881 9.3302 306.786 9.51872 306.786 9.61298C306.786 9.70724 306.975 9.70724 307.07 9.70724H310.287C310.571 9.70724 310.855 9.70724 311.233 9.3302C311.423 9.14168 311.706 8.8589 312.085 8.10482C312.18 7.82204 312.369 7.35074 312.274 6.9737C312.18 6.69092 311.801 6.59666 311.612 6.59666H308.016L306.881 9.23594ZM316.248 2.54348L312.747 10.3671H313.504L317.005 2.54348H316.248Z" fill="white"/>
<path fill-rule="evenodd" clip-rule="evenodd" d="M328.078 10.37L331.106 3.58323C331.106 3.48897 331.201 3.39471 331.106 3.39471C331.106 3.39471 331.012 3.39471 330.822 3.58323L324.01 9.89865C323.631 10.2757 323.347 10.4642 322.874 10.4642C322.401 10.4642 322.306 10.1814 322.496 9.61587L325.618 2.54638H326.375L323.347 9.33309C323.347 9.42735 323.253 9.52161 323.347 9.52161C323.442 9.52161 323.537 9.42735 323.631 9.33309L330.444 2.92341C330.728 2.64064 331.106 2.45212 331.485 2.45212C332.147 2.45212 331.863 3.11193 331.769 3.39471L328.646 10.37H328.078ZM330.728 1.13248C330.917 1.03822 331.201 0.755436 331.39 0.472656H332.242C331.958 0.849696 331.485 1.321 331.012 1.60378C330.444 1.98082 329.876 2.07508 329.308 2.07508C328.741 2.07508 328.268 1.98082 327.984 1.60378C327.794 1.321 327.7 0.849696 327.794 0.472656H328.646C328.646 0.661176 328.646 0.943956 328.741 1.13248C328.835 1.321 329.119 1.41526 329.592 1.41526C330.065 1.41526 330.444 1.321 330.728 1.13248Z" fill="white"/>
<path fill-rule="evenodd" clip-rule="evenodd" d="M383.617 10.3699C382.482 10.3699 382.009 9.89864 381.725 9.42734C381.441 8.67326 381.725 7.73066 382.292 6.59954C382.765 5.56268 383.333 4.3373 384.563 3.48896C385.226 3.01766 386.172 2.64062 387.402 2.64062H390.051L389.767 3.30044H387.023C385.793 3.30044 384.753 3.96026 384.09 4.90286C383.806 5.2799 383.333 6.31676 383.144 6.6938C382.955 7.1651 382.576 8.1077 382.576 8.48474C382.576 9.5216 383.617 9.61586 384.374 9.61586H387.118L386.834 10.2757H383.617V10.3699Z" fill="white"/>
<path fill-rule="evenodd" clip-rule="evenodd" d="M403.965 2.54688C404.438 2.54688 404.627 2.7354 404.627 2.92391C404.722 3.11243 404.533 3.48947 404.438 3.67799L401.505 10.3705H400.748L403.681 3.67799C403.776 3.58373 403.776 3.39521 403.776 3.30095L403.587 3.20669H399.613C399.518 3.20669 399.423 3.20669 399.329 3.30095C399.234 3.39521 399.139 3.48947 399.139 3.67799L396.206 10.3705H395.449L398.382 3.67799C398.477 3.39521 398.666 3.11243 398.856 2.92391C399.045 2.82965 399.329 2.54688 399.802 2.54688H403.965Z" fill="white"/>
<path fill-rule="evenodd" clip-rule="evenodd" d="M414.088 3.39521C415.224 2.64114 416.359 2.54688 417.4 2.54688C418.346 2.54688 419.482 2.64114 419.86 3.39521C420.333 4.24355 419.86 5.65745 419.482 6.50579C418.725 8.20247 417.873 9.14507 417.116 9.61637C415.886 10.4647 414.561 10.4647 413.804 10.4647C413.142 10.4647 411.817 10.4647 411.344 9.61637C411.06 9.14507 411.06 8.20247 411.723 6.50579C412.101 5.56319 412.858 4.14929 414.088 3.39521ZM412.007 9.05081C412.29 9.71063 413.237 9.80489 414.088 9.80489C414.845 9.80489 415.886 9.71063 416.832 9.05081C417.778 8.39099 418.346 7.16561 418.535 6.50579C418.819 5.84597 419.387 4.62059 419.103 3.86651C418.819 3.20669 417.778 3.11243 417.021 3.11243C416.265 3.11243 415.224 3.20669 414.277 3.86651C413.331 4.52633 412.764 5.75171 412.48 6.50579C412.196 7.16561 411.723 8.29673 412.007 9.05081Z" fill="white"/>
<path fill-rule="evenodd" clip-rule="evenodd" d="M425.919 12.8212H425.162L429.325 3.48947C429.515 3.11243 429.893 2.82965 429.988 2.73539C430.366 2.54688 430.745 2.54688 430.934 2.54688H432.921C433.394 2.54688 434.435 2.64114 434.813 3.39521C435.192 4.24355 434.813 5.37467 434.34 6.31727C433.867 7.25987 433.394 8.29673 432.448 9.14507C431.407 10.0877 430.461 10.2762 429.136 10.2762H426.96L425.919 12.8212ZM429.799 9.71063C430.461 9.71063 431.312 9.42785 431.975 8.86229C432.543 8.29673 433.016 7.54265 433.489 6.50579C433.962 5.46893 434.151 4.80911 434.151 4.43207C434.151 3.58373 433.489 3.30095 432.732 3.30095H430.461C430.366 3.30095 430.272 3.39521 430.177 3.39521C430.082 3.48947 429.988 3.58373 429.893 3.67799L427.244 9.71063H429.799Z" fill="white"/>
<path fill-rule="evenodd" clip-rule="evenodd" d="M443.23 10.3705L446.353 3.30095H443.42L443.704 2.54688H450.327L450.043 3.30095H447.11L443.987 10.3705H443.23Z" fill="white"/>
<path fill-rule="evenodd" clip-rule="evenodd" d="M460.641 10.3671L463.669 3.58034C463.669 3.48608 463.763 3.39182 463.669 3.39182C463.669 3.39182 463.574 3.39182 463.385 3.58034L456.572 9.89576C456.194 10.2728 455.91 10.4613 455.437 10.4613C454.964 10.4613 454.869 10.1785 455.058 9.61298L458.181 2.54348H458.938L456.099 9.3302C456.099 9.42446 456.004 9.51872 456.099 9.51872C456.194 9.51872 456.194 9.42446 456.383 9.3302L463.196 2.92052C463.479 2.63774 463.858 2.44922 464.236 2.44922C464.899 2.44922 464.615 3.10904 464.52 3.39182L461.398 10.3671H460.641Z" fill="white"/>
<path fill-rule="evenodd" clip-rule="evenodd" d="M473.227 3.48947C473.321 3.20669 473.51 3.01817 473.794 2.82966C473.984 2.64114 474.362 2.54688 474.551 2.54688H477.958C478.241 2.54688 478.998 2.54688 479.188 3.11243C479.377 3.48947 479.093 4.14929 478.904 4.62059C478.715 4.99763 478.525 5.46893 478.052 5.75171C477.863 5.94023 477.484 6.12875 477.106 6.22301C477.484 6.31727 477.674 6.50579 477.674 6.69431C477.768 7.07135 477.579 7.44839 477.39 7.82543C477.106 8.48525 476.728 9.14507 476.065 9.71063C475.497 10.0877 475.024 10.1819 474.646 10.1819H471.05C470.766 10.1819 470.577 10.0877 470.483 9.89915C470.388 9.71063 470.483 9.42785 470.577 9.23933L473.227 3.48947ZM476.349 5.94023C476.633 5.94023 477.011 5.94023 477.39 5.65745C477.768 5.37467 477.958 4.99763 478.147 4.62059C478.241 4.33781 478.525 3.86651 478.241 3.58373C478.052 3.30095 477.768 3.30095 477.579 3.30095H474.457C474.362 3.30095 474.267 3.30095 474.173 3.39521C474.078 3.39521 474.078 3.58373 473.984 3.58373L472.943 6.03449H476.349V5.94023ZM471.523 9.23933C471.429 9.33359 471.429 9.52211 471.429 9.61637C471.523 9.71063 471.618 9.71063 471.713 9.71063H474.457C474.835 9.71063 475.214 9.71063 475.592 9.33359C476.065 8.95655 476.254 8.48525 476.444 8.10821C476.633 7.73117 476.822 7.35413 476.633 6.97709C476.633 6.69431 476.349 6.69431 476.065 6.69431H472.659L471.523 9.23933Z" fill="white"/>
<path fill-rule="evenodd" clip-rule="evenodd" d="M490.353 10.3705L491.962 6.69431H487.325L485.717 10.3705H484.865L488.366 2.54688H489.123L487.609 6.03449H492.34L493.854 2.54688H494.611L491.11 10.3705H490.353Z" fill="white"/>
<path fill-rule="evenodd" clip-rule="evenodd" d="M504.168 2.54348L502.654 5.84258H506.249C506.628 5.84258 507.101 5.84258 507.385 6.31388C507.669 6.78518 507.385 7.445 507.195 8.01056C507.006 8.48186 506.533 9.42446 505.776 9.89576C505.208 10.2728 504.735 10.2728 504.168 10.2728H500.761C500.572 10.2728 500.288 10.2728 500.193 10.0843C500.099 9.89576 500.194 9.61298 500.288 9.3302L503.316 2.44922H504.168V2.54348ZM501.234 9.23594C501.234 9.3302 501.14 9.51872 501.14 9.61298C501.14 9.70724 501.329 9.70724 501.424 9.70724H504.641C504.925 9.70724 505.208 9.70724 505.587 9.3302C505.776 9.14168 506.06 8.8589 506.438 8.10482C506.533 7.82204 506.817 7.35074 506.628 6.9737C506.533 6.69092 506.155 6.59666 505.965 6.59666H502.37L501.234 9.23594ZM510.507 2.54348L507.006 10.3671H507.763L511.264 2.54348H510.507Z" fill="white"/>
<path fill-rule="evenodd" clip-rule="evenodd" d="M522.427 10.37L525.455 3.58323C525.455 3.48897 525.55 3.39471 525.455 3.39471C525.455 3.39471 525.36 3.39471 525.171 3.58323L518.358 9.89865C517.98 10.2757 517.696 10.4642 517.318 10.4642C516.844 10.4642 516.75 10.1814 516.939 9.61587L520.062 2.54638H520.819L517.791 9.33309C517.791 9.42735 517.696 9.52161 517.791 9.52161C517.885 9.52161 517.98 9.42735 518.074 9.33309L524.887 2.92341C525.171 2.64064 525.55 2.45212 525.928 2.45212C526.59 2.45212 526.306 3.11193 526.212 3.39471L523.089 10.37H522.427ZM525.076 1.13248C525.266 1.03822 525.55 0.755436 525.739 0.472656H526.59C526.307 0.849696 525.833 1.321 525.36 1.60378C524.793 1.98082 524.13 2.07508 523.657 2.07508C523.089 2.07508 522.616 1.98082 522.332 1.60378C522.143 1.321 522.049 0.849696 522.143 0.472656H522.995C522.995 0.661176 522.995 0.943956 523.089 1.13248C523.184 1.321 523.468 1.41526 523.941 1.41526C524.414 1.41526 524.793 1.321 525.076 1.13248Z" fill="white"/>
<path fill-rule="evenodd" clip-rule="evenodd" d="M575.229 10.3705L578.729 2.54688H579.486L575.985 10.3705H575.229ZM580.149 10.3705H581.284L579.108 6.78857C579.013 6.69431 579.013 6.50579 579.013 6.41153C579.108 6.22301 579.392 6.03449 579.581 5.94023L584.501 2.64114H583.46L579.297 5.37467C578.919 5.56319 578.446 6.03449 578.256 6.41153C578.162 6.60005 578.067 6.97709 578.351 7.35413L580.149 10.3705Z" fill="white"/>
<path fill-rule="evenodd" clip-rule="evenodd" d="M593.012 3.39521C594.148 2.64114 595.283 2.54688 596.324 2.54688C597.27 2.54688 598.405 2.64114 598.784 3.39521C599.257 4.24355 598.784 5.65745 598.405 6.50579C597.649 8.20247 596.797 9.14507 596.04 9.61637C594.81 10.4647 593.485 10.4647 592.728 10.4647C592.066 10.4647 590.741 10.4647 590.268 9.61637C589.984 9.14507 589.984 8.20247 590.647 6.50579C591.025 5.56319 591.782 4.14929 593.012 3.39521ZM590.93 9.05081C591.214 9.71063 592.161 9.80489 593.012 9.80489C593.769 9.80489 594.81 9.71063 595.756 9.05081C596.702 8.39099 597.27 7.16561 597.459 6.50579C597.743 5.84597 598.311 4.62059 598.027 3.86651C597.743 3.20669 596.702 3.11243 595.945 3.11243C595.188 3.11243 594.148 3.20669 593.201 3.86651C592.255 4.52633 591.687 5.75171 591.404 6.50579C591.12 7.16561 590.647 8.29673 590.93 9.05081Z" fill="white"/>
<path fill-rule="evenodd" clip-rule="evenodd" d="M610.331 9.89576C609.953 10.2728 609.574 10.4613 609.385 10.4613C609.196 10.4613 608.912 10.2728 608.912 9.89576L609.101 3.58034C609.101 3.58034 609.101 3.48608 609.006 3.48608C608.912 3.48608 608.912 3.58034 608.912 3.58034L605.884 10.3671H605.127L608.249 3.29756C608.439 2.82626 608.912 2.44922 609.385 2.44922C609.763 2.44922 609.953 2.63774 609.858 3.01478L609.669 9.23594C609.669 9.42446 609.669 9.51872 609.763 9.51872C609.763 9.51872 609.858 9.42446 610.047 9.23594L615.441 3.01478C615.725 2.63774 616.008 2.44922 616.387 2.44922C616.86 2.44922 616.955 2.732 616.765 3.29756L613.643 10.3671H612.886L615.914 3.58034C615.914 3.58034 616.008 3.48608 615.914 3.48608C615.914 3.48608 615.819 3.58034 615.724 3.58034L610.331 9.89576Z" fill="white"/>
<path fill-rule="evenodd" clip-rule="evenodd" d="M631.153 2.54688C631.627 2.54688 631.721 2.7354 631.816 2.92391C631.91 3.11243 631.721 3.48947 631.627 3.67799L628.693 10.3705H627.936L630.87 3.67799C630.964 3.58373 630.964 3.39521 630.964 3.30095L630.775 3.20669H626.801C626.706 3.20669 626.612 3.20669 626.517 3.30095C626.422 3.39521 626.328 3.48947 626.233 3.67799L623.3 10.3705H622.543L625.476 3.67799C625.571 3.39521 625.76 3.11243 625.949 2.92391C626.139 2.82965 626.422 2.54688 626.896 2.54688H631.153Z" fill="white"/>
<path fill-rule="evenodd" clip-rule="evenodd" d="M642.786 3.10904C643.259 2.54348 643.638 2.44922 643.827 2.44922C644.016 2.44922 644.3 2.44922 644.3 3.10904L644.016 10.3671H643.165L643.543 3.58034C643.543 3.48608 643.543 3.39182 643.543 3.39182C643.449 3.39182 643.354 3.58034 643.259 3.58034L637.582 10.3671H636.73L642.786 3.10904Z" fill="white"/>
<path fill-rule="evenodd" clip-rule="evenodd" d="M654.331 10.3699C653.669 10.3699 652.912 10.1814 652.722 9.42734C652.439 8.67326 652.912 7.6364 653.385 6.50528C653.858 5.37416 654.52 4.05452 655.845 3.30044C656.791 2.73488 657.832 2.64062 658.589 2.64062C659.157 2.64062 659.914 2.73488 660.387 3.11192C660.576 3.30044 661.238 3.96026 660.576 5.56268C660.481 5.7512 660.197 6.31676 659.819 6.59954C659.535 6.78806 659.157 6.78806 658.873 6.78806H654.142C653.952 7.25936 653.669 7.91918 653.574 8.39048C653.479 9.0503 653.669 9.71012 654.709 9.71012H658.494L658.21 10.3699H654.331ZM659.157 6.03398C659.535 6.03398 659.63 5.65694 659.724 5.56268C660.103 4.8086 660.008 4.24304 659.914 3.96026C659.63 3.30044 658.873 3.30044 658.21 3.30044C657.453 3.30044 656.602 3.30044 655.656 4.24304C655.088 4.71434 654.804 5.2799 654.52 6.03398H659.157Z" fill="white"/>
<path fill-rule="evenodd" clip-rule="evenodd" d="M666.914 10.3705L670.415 2.54688H671.172L667.671 10.3705H666.914ZM671.834 10.3705H672.97L670.699 6.78857C670.604 6.69431 670.604 6.50579 670.604 6.41153C670.699 6.22301 670.983 6.03449 671.172 5.94023L676.092 2.64114H675.051L670.888 5.37467C670.51 5.56319 670.037 6.03449 669.847 6.41153C669.753 6.60005 669.753 6.97709 669.942 7.35413L671.834 10.3705Z" fill="white"/>
<path fill-rule="evenodd" clip-rule="evenodd" d="M683.566 10.3699C682.431 10.3699 681.958 9.89864 681.674 9.42734C681.39 8.67326 681.674 7.73066 682.242 6.59954C682.715 5.56268 683.282 4.3373 684.512 3.48896C685.175 3.01766 686.121 2.64062 687.351 2.64062H690L689.717 3.30044H686.973C685.743 3.30044 684.702 3.96026 684.039 4.90286C683.756 5.2799 683.282 6.31676 683.093 6.6938C682.904 7.1651 682.525 8.1077 682.525 8.48474C682.525 9.5216 683.566 9.61586 684.323 9.61586H687.067L686.783 10.2757H683.566V10.3699Z" fill="white"/>
<defs>
<linearGradient id="paint0_linear" x1="21.1048" y1="12.8957" x2="114.468" y2="29.4211" gradientUnits="userSpaceOnUse">
<stop stop-color="#DD0500"/>
<stop offset="1" stop-color="white"/>
</linearGradient>
</defs>
</svg>
