<svg width="16" height="17" viewBox="0 0 16 17" fill="none" xmlns="http://www.w3.org/2000/svg">
<path d="M14.9233 1.38542C14.523 1.38542 14.1927 1.7157 14.1927 2.11603V4.1477C12.7515 2.11603 10.4296 0.89502 7.8875 0.89502C3.60397 0.89502 0.121094 4.37789 0.121094 8.66143C0.121094 12.945 3.60397 16.4278 7.8875 16.4278C11.0401 16.4278 13.8624 14.5463 15.0734 11.6239C15.1535 11.4337 15.1435 11.2436 15.0734 11.0634C15.0034 10.8933 14.8633 10.7431 14.6831 10.6731C14.493 10.593 14.3028 10.603 14.1226 10.6731C13.9525 10.7431 13.8024 10.8833 13.7323 11.0634C12.7515 13.4354 10.4596 14.9666 7.89751 14.9666C4.41464 14.9666 1.5823 12.1343 1.5823 8.65142C1.5823 5.16855 4.41464 2.33621 7.89751 2.33621C10.0793 2.33621 12.0609 3.43712 13.2119 5.24861H11.0501C10.6498 5.24861 10.3195 5.57889 10.3195 5.97922C10.3195 6.37955 10.6498 6.70982 11.0501 6.70982H14.9333C15.3336 6.70982 15.6639 6.37955 15.6639 5.97922V2.10602C15.6539 1.70569 15.3336 1.38542 14.9233 1.38542Z" fill="#DD0500"/>
</svg>
