<svg width="16" height="17" viewBox="0 0 16 17" fill="none" xmlns="http://www.w3.org/2000/svg">
<path d="M0.177734 2.10602V5.98922C0.177734 6.38955 0.508007 6.71983 0.908338 6.71983H4.79154C5.19187 6.71983 5.52214 6.38955 5.52214 5.98922C5.52214 5.58889 5.19187 5.25862 4.79154 5.25862H2.62976C3.78071 3.44713 5.76234 2.34622 7.94414 2.34622C11.427 2.34622 14.2594 5.17855 14.2594 8.66143C14.2594 12.1443 11.427 14.9766 7.94414 14.9766C5.38203 14.9766 3.09014 13.4454 2.10933 11.0734C2.02926 10.8833 1.88915 10.7532 1.71901 10.6831C1.54887 10.613 1.3487 10.603 1.15854 10.6831C0.968387 10.7632 0.838279 10.9033 0.768221 11.0734C0.698163 11.2436 0.688155 11.4437 0.768221 11.6339C1.96921 14.5563 4.79154 16.4378 7.95415 16.4378C12.2377 16.4378 15.7206 12.955 15.7206 8.67144C15.7206 4.3879 12.2377 0.89502 7.95415 0.89502C5.41205 0.89502 3.09014 2.11603 1.63894 4.1377V2.10602C1.63894 1.70569 1.30867 1.37542 0.908338 1.37542C0.508007 1.38542 0.177734 1.70569 0.177734 2.10602Z" fill="#DD0500"/>
</svg>
