<svg width="142" height="42" viewBox="0 0 142 42" version="1.1" xmlns="http://www.w3.org/2000/svg" xmlns:xlink="http://www.w3.org/1999/xlink">
<title>Group 3</title>
<desc>Created using Figma</desc>
<g id="Canvas" transform="translate(62599 26340)">
<g id="Group 3">
<g id="Vector">
<use xlink:href="#path0_fill" transform="matrix(1 -1.20705e-18 -1.22131e-18 1 -62519.5 -26340)" fill="#DD0500"/>
</g>
<g id="Vector">
<use xlink:href="#path1_fill" transform="matrix(1 -1.20705e-18 -1.22131e-18 1 -62598.9 -26340)" fill="#DD0500"/>
</g>
<g id="Vector">
<use xlink:href="#path2_fill" transform="matrix(1 -1.1864e-18 -1.24256e-18 1 -62585 -26332.2)" fill="#FFFFFF"/>
</g>
</g>
</g>
<defs>
<path id="path0_fill" d="M 16.6833 16.1771L 20.0794 8.98196C 20.3149 8.49029 20.2901 8.09457 20.0794 8.09457L 12.6426 8.09457C 12.3947 8.09457 11.9981 8.49029 11.7626 8.98196L 8.36644 16.1771C 8.13094 16.6688 8.15573 17.0645 8.36644 17.0645L 15.8033 17.0645C 16.0512 17.0765 16.4478 16.6808 16.7081 16.1891L 16.6833 16.1771ZM 8.52758 33.2777L 12.184 25.8906C 12.4319 25.3869 12.4319 24.9793 12.184 24.9793L 4.74711 24.9793C 4.49922 24.9793 4.09021 25.3869 3.84232 25.8906L 0.185922 33.2777C -0.0619739 33.7813 -0.0619739 34.1891 0.185922 34.1891L 7.62278 34.1891C 7.87068 34.2011 8.27969 33.7933 8.52758 33.2897L 8.52758 33.2777ZM 21.4058 24.5236L 24.4796 17.4483C 24.6904 16.9686 24.6531 16.5729 24.4052 16.5729L 16.9683 16.5729C 16.7204 16.5729 16.3363 16.9686 16.1256 17.4483L 13.0517 24.5236C 12.841 25.0032 12.8781 25.3989 13.126 25.3989L 20.5629 25.3989C 20.8231 25.3989 21.1951 25.0152 21.4058 24.5236ZM 29.1153 7.95067L 32.1892 0.875389C 32.3999 0.395711 32.3628 0 32.1149 0L 24.678 0C 24.4301 0 24.0458 0.395711 23.8351 0.875389L 20.7612 7.95067C 20.5505 8.43035 20.5876 8.82606 20.8355 8.82606L 28.2724 8.82606C 28.5327 8.82606 28.9045 8.43035 29.1029 7.95067L 29.1153 7.95067ZM 13.9689 41.1084L 17.0428 34.0332C 17.2535 33.5535 17.2162 33.1578 16.9683 33.1578L 9.53147 33.1578C 9.28358 33.1578 8.89943 33.5535 8.68872 34.0332L 5.61484 41.1084C 5.40413 41.5881 5.44123 41.9838 5.68913 41.9838L 13.126 41.9838C 13.3863 41.9838 13.7706 41.5881 13.9813 41.1084L 13.9689 41.1084ZM 26.2892 32.9419L 29.3631 25.8666C 29.5738 25.387 29.5367 24.9912 29.2888 24.9912L 21.852 24.9912C 21.6041 24.9912 21.2198 25.387 21.0091 25.8666L 17.9352 32.9419C 17.7245 33.4215 17.7617 33.8173 18.0096 33.8173L 25.4465 33.8173C 25.7068 33.8173 26.0909 33.4216 26.3016 32.9299L 26.2892 32.9419ZM 33.813 16.1531L 36.8868 9.07792C 37.0975 8.59824 37.0603 8.20245 36.8124 8.20245L 29.3755 8.20245C 29.1276 8.20245 28.7435 8.59824 28.5328 9.07792L 25.4589 16.1531C 25.2482 16.6328 25.2853 17.0286 25.5332 17.0286L 32.97 17.0286C 33.2427 16.9326 33.6146 16.5848 33.8254 16.0932L 33.813 16.1531ZM 45.154 7.48297L 47.8314 1.72684C 48.0173 1.33111 47.9802 1.00732 47.7695 1.00732L 41.2993 1.00732C 41.0762 1.00732 40.754 1.33111 40.568 1.72684L 37.8907 7.48297C 37.7048 7.8787 37.742 8.20245 37.9528 8.20245L 44.4228 8.20245C 44.6459 8.15449 44.9806 7.83076 45.2161 7.43502L 45.154 7.48297ZM 37.5314 23.924L 40.2085 18.1678C 40.3945 17.7721 40.3574 17.4483 40.1467 17.4483L 33.6765 17.4483C 33.4534 17.4483 33.1311 17.7721 32.9452 18.1678L 30.2679 23.924C 30.082 24.3197 30.1192 24.6434 30.3299 24.6434L 36.8 24.6434C 37.0231 24.5835 37.3579 24.2597 37.5438 23.8759L 37.5314 23.924ZM 30.0077 40.3409L 32.685 34.5847C 32.8709 34.189 32.8337 33.8653 32.6229 33.8653L 26.1529 33.8653C 25.9298 33.8653 25.6076 34.189 25.4217 34.5847L 22.7443 40.3409C 22.5584 40.7367 22.5957 41.0604 22.8064 41.0604L 29.2764 41.0604C 29.4995 41.0005 29.8341 40.6767 30.0201 40.2809L 30.0077 40.3409ZM 40.9151 32.3303L 43.5923 26.5741C 43.7782 26.1784 43.7411 25.8546 43.5304 25.8546L 37.0604 25.8546C 36.8373 25.8546 36.5149 26.1784 36.329 26.5741L 33.6518 32.3303C 33.4659 32.7261 33.503 33.0498 33.7137 33.0498L 40.1837 33.0498C 40.4192 32.9899 40.7416 32.6661 40.9275 32.2823L 40.9151 32.3303ZM 44.4104 40.3409L 47.0877 34.5847C 47.2736 34.189 47.2364 33.8653 47.0257 33.8653L 40.5556 33.8653C 40.3325 33.8653 40.0103 34.189 39.8244 34.5847L 37.1471 40.3409C 36.9611 40.7367 36.9984 41.0604 37.2091 41.0604L 43.6791 41.0604C 43.9022 41.0005 44.2369 40.6767 44.4228 40.2809L 44.4104 40.3409ZM 52.0332 23.6841L 54.7105 17.928C 54.8964 17.5322 54.8592 17.2084 54.6485 17.2084L 48.1784 17.2084C 47.9553 17.2084 47.6331 17.5322 47.4472 17.928L 44.7699 23.6841C 44.584 24.0798 44.6211 24.4036 44.8318 24.4036L 51.3019 24.4036C 51.5251 24.3436 51.8597 24.0199 52.0332 23.6242L 52.0332 23.6841ZM 48.8354 15.4936L 51.5126 9.73746C 51.6985 9.34172 51.6614 9.01797 51.4507 9.01797L 44.9806 9.01797C 44.7575 9.01797 44.4352 9.34172 44.2492 9.73746L 41.5721 15.4936C 41.3862 15.8893 41.4233 16.2131 41.634 16.2131L 48.104 16.2131C 48.3271 16.1532 48.6619 15.8294 48.8354 15.4456L 48.8354 15.4936ZM 59.5568 7.48297L 62.2341 1.72684C 62.42 1.33111 62.3829 1.00732 62.1722 1.00732L 55.702 1.00732C 55.4789 1.00732 55.1567 1.33111 54.9708 1.72684L 52.2934 7.48297C 52.1075 7.8787 52.1448 8.20245 52.3555 8.20245L 58.8255 8.20245C 59.0486 8.15449 59.3832 7.83076 59.5568 7.43502L 59.5568 7.48297Z"/>
<path id="path1_fill" d="M 72.2166 41.4921L 2.73146 41.4921C 0.388843 41.4921 -0.6523 39.6334 0.426046 37.3669L 16.2046 4.12523C 16.7826 2.97923 17.657 1.99718 18.7428 1.2744C 19.8287 0.551621 21.0891 0.112639 22.402 0L 91.8994 0C 94.242 0 95.2833 1.85876 94.2049 4.12523L 78.4387 37.3189C 77.8651 38.4772 76.9899 39.471 75.8989 40.2028C 74.8079 40.9345 73.5389 41.3788 72.2166 41.4921Z"/>
<path id="path2_fill" d="M 59.9459 0.303493L 36.6113 0.303493L 29.5049 15.7859C 29.3918 16.0042 29.1759 16.421 28.7542 16.421C 28.3326 16.421 28.4251 16.0539 28.3531 15.7859L 24.6921 2.82438C 24.291 0.521872 20.5784 0.00576691 18.3468 0.00576691C 16.6375 -0.0535423 14.9446 0.34538 13.456 1.15827C 11.9675 1.97115 10.7414 3.16622 9.91387 4.61079L 2.00861e-05 26.296L 8.97799 26.296L 16.1768 11.4885C 16.5779 10.7442 16.9996 10.7442 17.123 10.7442C 17.2464 10.7442 17.4521 11.1114 17.4829 11.3794L 19.9922 21.1849C 20.383 23.5271 21.3805 26.0082 25.0108 26.296C 31.7263 26.8419 34.5339 24.4699 36.2513 20.7779L 42.5761 7.17135C 42.7497 6.80409 43.0291 6.49275 43.381 6.27454C 43.7329 6.05633 44.1425 5.94041 44.5608 5.94065L 51.9345 5.94065C 54.197 5.94065 53.4155 7.92558 52.8704 9.1066C 51.9449 11.1908 49.9188 11.3198 47.6152 11.3198L 46.3092 11.3198C 43.224 11.3198 39.9948 12.0741 40.005 16.8776C 40.005 17.87 41.0951 19.6763 41.7533 21.0955C 42.5143 22.7232 44.7563 26.296 44.7563 26.296L 55.2871 26.296L 49.1167 17.4632L 49.2092 17.3143L 49.9805 17.3143C 56.3772 17.3143 58.5677 16.1829 61.3752 11.2007C 61.9358 10.1647 62.407 9.08591 62.7841 7.97524C 64.0594 4.14435 64.0903 0.303493 59.9459 0.303493Z"/>
</defs>
</svg>
