<svg width="15" height="26" viewBox="0 0 15 26" fill="none" xmlns="http://www.w3.org/2000/svg">
<path fill-rule="evenodd" clip-rule="evenodd" d="M2 3C2 2.44772 2.44771 2 3 2H4.71429H10.2857H12C12.5523 2 13 2.44772 13 3V23C13 23.5523 12.5523 24 12 24H3C2.44772 24 2 23.5523 2 23V3ZM3 0C1.34315 0 0 1.34315 0 3V23C0 24.6569 1.34315 26 3 26H12C13.6569 26 15 24.6569 15 23V3C15 1.34315 13.6569 0 12 0H10.2857H4.71429H3ZM7.5 23C8.32843 23 9 22.3284 9 21.5C9 20.6716 8.32843 20 7.5 20C6.67157 20 6 20.6716 6 21.5C6 22.3284 6.67157 23 7.5 23Z" fill="white"/>
</svg>
