<svg width="115" height="70" viewBox="0 0 115 70" version="1.1" xmlns="http://www.w3.org/2000/svg" xmlns:xlink="http://www.w3.org/1999/xlink">
<title>track A</title>
<desc>Created using Figma</desc>
<g id="Canvas" transform="translate(43250 22664)">
<g id="track A">
<g id="Vector 2">
<use xlink:href="#path0_stroke" transform="matrix(0.999954 0.00960248 -0.00960248 0.999954 -43231.9 -22656.7)" fill="#4F4F4F"/>
</g>
<g id="Vector 2">
<use xlink:href="#path1_stroke" transform="matrix(0.999954 0.00960248 -0.00960248 0.999954 -43197.5 -22640.2)" fill="#4F4F4F"/>
</g>
<g id="Vector 2">
<use xlink:href="#path2_stroke" transform="matrix(0.999954 0.00960248 -0.00960248 0.999954 -43176.7 -22616)" fill="#4F4F4F"/>
</g>
<g id="Vector">
<use xlink:href="#path3_stroke" transform="matrix(0.999954 0.00960248 -0.00960248 0.999954 -43227 -22662.8)" fill="#4F4F4F"/>
</g>
<g id="Vector 2">
<use xlink:href="#path4_stroke" transform="matrix(0.999954 0.00960248 -0.00960248 0.999954 -43169.9 -22621.7)" fill="#4F4F4F"/>
</g>
<g id="Vector 3">
<use xlink:href="#path5_stroke" transform="matrix(0.999954 0.00960248 -0.00960248 0.999954 -43162.9 -22618.1)" fill="#4F4F4F"/>
</g>
<g id="Vector">
<use xlink:href="#path6_stroke" transform="matrix(0.999954 0.00960248 -0.00960248 0.999954 -43247.8 -22656.9)" fill="#4F4F4F"/>
</g>
<g id="Vector">
<use xlink:href="#path7_stroke" transform="matrix(1 3.58927e-10 -3.58927e-10 1 -43248.4 -22657)" fill="#FF0000"/>
</g>
</g>
</g>
<defs>
<path id="path0_stroke" d="M 19.4227 16.3859L 19.3742 17.1344L 19.4227 16.3859ZM 32.6558 8.9176L 32.3026 9.5792L 32.6558 8.9176ZM 7.31369 0.374933L 7.10886 -0.346555L 7.31369 0.374933ZM -0.19781 13.5909C 0.300756 15.1915 1.49676 16.1536 2.98536 16.7059C 4.44798 17.2486 6.25224 17.4222 8.1287 17.4439C 10.0129 17.4658 12.0496 17.3337 13.9869 17.2256C 15.9425 17.1164 17.7938 17.0319 19.3742 17.1344L 19.4713 15.6375C 17.787 15.5283 15.848 15.6193 13.9033 15.7279C 11.9403 15.8374 9.96673 15.9652 8.14611 15.944C 6.31777 15.9228 4.72275 15.7506 3.50714 15.2996C 2.31751 14.8582 1.55634 14.1787 1.23432 13.1448L -0.19781 13.5909ZM 19.3742 17.1344C 22.8884 17.3622 25.2743 17.5826 26.9342 17.6657C 28.6018 17.7492 29.7187 17.7093 30.7154 17.3464L 30.2023 15.9369C 29.5129 16.1879 28.6627 16.2503 27.0092 16.1676C 25.3482 16.0844 23.059 15.8701 19.4713 15.6375L 19.3742 17.1344ZM 30.7154 17.3464C 31.0755 17.2153 31.3895 16.9649 31.6503 16.6968C 31.9184 16.4213 32.1724 16.0832 32.4055 15.7155C 32.8718 14.9801 33.2911 14.0681 33.592 13.1517C 33.8907 12.2416 34.0894 11.2762 34.0755 10.4401C 34.0625 9.65107 33.8478 8.70384 33.0091 8.25601L 32.3026 9.5792C 32.3835 9.62242 32.5649 9.8095 32.5757 10.4649C 32.5858 11.0732 32.4364 11.8624 32.1668 12.6838C 31.8992 13.4989 31.5298 14.2954 31.1387 14.9124C 30.9431 15.2208 30.7512 15.4699 30.5752 15.6509C 30.3919 15.8392 30.2637 15.9146 30.2023 15.9369L 30.7154 17.3464ZM 33.0091 8.25601C 31.253 7.31837 26.846 4.56159 21.949 2.37107C 19.4882 1.27032 16.8636 0.292184 14.3262 -0.263941C 11.7968 -0.818302 9.29402 -0.96693 7.10886 -0.346555L 7.51852 1.09642C 9.36974 0.570853 11.5965 0.673384 14.0051 1.20128C 16.4056 1.72741 18.9273 2.66263 21.3365 3.74033C 26.1796 5.90671 30.4073 8.5672 32.3026 9.5792L 33.0091 8.25601ZM 7.10886 -0.346555C 0.452795 1.54312 -1.94221 7.99072 -0.19781 13.5909L 1.23432 13.1448C -0.303625 8.20741 1.81022 2.71703 7.51852 1.09642L 7.10886 -0.346555Z"/>
<path id="path1_stroke" d="M 5.8757 4.95307L 5.16879 5.20362L 5.8757 4.95307ZM 6.53991 0.502734L 6.18049 -0.155535L 6.53991 0.502734ZM -0.641293 7.03002C 0.0817896 8.22238 1.58999 9.13032 3.37214 9.13032L 3.37214 7.63032C 2.08245 7.63032 1.07632 6.96957 0.641293 6.25222L -0.641293 7.03002ZM 3.37214 9.13032C 4.38395 9.13032 5.37824 8.61652 6.02249 7.83395C 6.68315 7.03146 7.00808 5.90297 6.58261 4.70252L 5.16879 5.20362C 5.396 5.84469 5.23554 6.42982 4.86445 6.88058C 4.47695 7.35126 3.89312 7.63032 3.37214 7.63032L 3.37214 9.13032ZM 6.58261 4.70252C 6.24603 3.75285 6.10407 2.95334 6.16734 2.34531C 6.22631 1.77855 6.45485 1.40369 6.89933 1.161L 6.18049 -0.155535C 5.23226 0.362206 4.77647 1.21868 4.67539 2.19007C 4.57861 3.12018 4.8009 4.16563 5.16879 5.20362L 6.58261 4.70252ZM 6.89933 1.161C 7.42976 0.871385 8.19747 0.744889 9.12718 0.750159C 10.042 0.755344 11.0264 0.886343 11.9345 1.0379L 12.1814 -0.441643C 11.2502 -0.597046 10.1719 -0.743944 9.13568 -0.749817C 8.11436 -0.755606 7.04272 -0.62632 6.18049 -0.155535L 6.89933 1.161Z"/>
<path id="path2_stroke" d="M 5.11584 -0.152241C 5.03162 0.253984 4.85745 0.843424 4.60837 1.35153C 4.48417 1.6049 4.35224 1.81548 4.22036 1.969C 4.08572 2.12572 3.98376 2.18526 3.92673 2.20429L 4.40157 3.62715C 4.80438 3.49272 5.11968 3.22403 5.35813 2.94648C 5.59933 2.66573 5.79631 2.33601 5.95525 2.01177C 6.27246 1.36468 6.48148 0.649718 6.58461 0.152241L 5.11584 -0.152241ZM 3.92673 2.20429C 3.8026 2.24572 3.59028 2.27182 3.22702 2.297C 2.90133 2.31957 2.47622 2.34097 2.0605 2.40452C 1.23306 2.53102 0.177842 2.86237 -0.346479 3.97779L 1.01102 4.61591C 1.20806 4.19674 1.60894 3.99098 2.28719 3.88729C 2.62431 3.83575 2.96443 3.81879 3.33073 3.79341C 3.65945 3.77062 4.06587 3.73918 4.40157 3.62715L 3.92673 2.20429ZM -0.346479 3.97779C -0.793543 4.92886 -0.792283 5.90638 -0.703418 6.76543C -0.659289 7.19202 -0.589134 7.62217 -0.532622 8.00349C -0.474253 8.39735 -0.428511 8.7502 -0.417295 9.0796L 1.08184 9.02855C 1.06751 8.60771 1.0103 8.18261 0.951172 7.7836C 0.89018 7.37204 0.828274 6.99441 0.78862 6.61108C 0.709918 5.85028 0.736725 5.19943 1.01102 4.61591L -0.346479 3.97779Z"/>
<path id="path3_stroke" d="M 0.356559 -0.659822C -0.00785052 -0.856745 -0.4629 -0.720969 -0.659822 -0.356559C -0.856745 0.00785052 -0.720969 0.4629 -0.356559 0.659822L 0.356559 -0.659822ZM 90.8956 49.9713C 91.26 50.1682 91.7151 50.0324 91.912 49.668C 92.1089 49.3036 91.9731 48.8486 91.6087 48.6516L 90.8956 49.9713ZM -0.356559 0.659822L 90.8956 49.9713L 91.6087 48.6516L 0.356559 -0.659822L -0.356559 0.659822Z"/>
<path id="path4_stroke" d="M 0.496543 13.913C 1.34681 13.1619 2.74982 12.0495 4.23012 10.8711C 5.69698 9.70336 7.23396 8.47524 8.31449 7.51826L 7.31998 6.39535C 6.27504 7.3208 4.77199 8.52245 3.29589 9.69753C 1.83323 10.8619 0.390354 12.0054 -0.496543 12.7888L 0.496543 13.913ZM 8.31449 7.51826C 10.4379 5.63765 14.0712 1.96429 15.5849 0.547596L 14.56 -0.547596C 12.94 0.96848 9.4475 4.5111 7.31998 6.39535L 8.31449 7.51826Z"/>
<path id="path5_stroke" d="M 1.94154 5.72911L 1.9728 4.97976L 1.94154 5.72911ZM 16.1965 1.79035L 16.7429 2.30406L 16.1965 1.79035ZM -0.69056 4.28253C -0.543581 4.62939 -0.259608 5.1313 0.142162 5.56491C 0.535089 5.98899 1.13424 6.44609 1.91028 6.47846L 1.9728 4.97976C 1.76784 4.97122 1.51545 4.84006 1.24246 4.54543C 0.978317 4.26035 0.782015 3.91312 0.69056 3.69729L -0.69056 4.28253ZM 1.91028 6.47846C 2.33661 6.49625 2.827 6.40027 3.30781 6.26212C 3.80137 6.12032 4.34062 5.91739 4.88386 5.68193C 5.96953 5.21137 7.11742 4.59066 8.02064 4.00554L 7.20509 2.74662C 6.37115 3.28686 5.29649 3.86825 4.28734 4.30565C 3.78317 4.52417 3.30695 4.70169 2.89361 4.82045C 2.46752 4.94287 2.15957 4.98756 1.9728 4.97976L 1.91028 6.47846ZM 8.02064 4.00554C 8.48951 3.70179 8.87872 3.39347 9.21392 3.12256C 9.55977 2.84306 9.82415 2.62403 10.0906 2.44713C 10.5634 2.1332 10.993 1.98144 11.714 2.11801L 11.9932 0.644211C 10.8237 0.422704 10.0015 0.705746 9.2609 1.19748C 8.92061 1.42341 8.58784 1.69992 8.27108 1.95593C 7.94367 2.22053 7.6048 2.48768 7.20509 2.74662L 8.02064 4.00554ZM 11.714 2.11801C 12.1512 2.20081 12.5803 2.31745 13.0092 2.43968C 13.4257 2.55839 13.8631 2.68889 14.2645 2.77821C 15.0121 2.94454 16.0254 3.06739 16.7429 2.30406L 15.65 1.27665C 15.5501 1.38292 15.3372 1.48019 14.5903 1.31401C 14.2445 1.23707 13.8676 1.12459 13.4203 0.997123C 12.9854 0.873173 12.5012 0.740446 11.9932 0.644211L 11.714 2.11801ZM 16.7429 2.30406C 17.4637 1.53733 17.9435 0.675354 18.1082 0.304306L 16.7372 -0.304306C 16.6295 -0.0615181 16.2372 0.652019 15.65 1.27665L 16.7429 2.30406Z"/>
<path id="path6_stroke" d="M 16.3029 13.0653L 15.5813 13.2699L 15.5887 13.2961L 15.5981 13.3218L 16.3029 13.0653ZM 42.9601 5.83443L 43.3072 5.16961L 43.3066 5.16929L 42.9601 5.83443ZM 55.1475 12.4988L 54.7878 13.157L 54.7904 13.1584L 55.1475 12.4988ZM 88.253 26.1275L 88.9918 26.2564L 88.9918 26.2563L 88.253 26.1275ZM 64.1551 24.7947L 63.7631 25.4341L 63.7776 25.4429L 63.7925 25.4512L 64.1551 24.7947ZM 60.5653 25.5944L 61.1789 26.0258L 61.1852 26.0167L 61.1913 26.0075L 60.5653 25.5944ZM 66.9471 37.4681L 67.5423 37.0117L 67.5379 37.0059L 67.5334 37.0003L 66.9471 37.4681ZM 71.5673 38.5788L 71.3694 37.8554L 71.3046 37.8731L 71.244 37.902L 71.5673 38.5788ZM 78.9019 43.0217L 78.1694 43.1831L 78.1736 43.2019L 78.1787 43.2205L 78.9019 43.0217ZM 33.1215 16.9862L 33.4984 17.6346L 33.5041 17.6312L 33.1215 16.9862ZM 30.2519 21.6179L 29.5036 21.5684L 29.5027 21.5819L 29.5023 21.5954L 30.2519 21.6179ZM 33.1991 26.694L 33.5601 26.0365L 33.5504 26.0314L 33.1991 26.694ZM 60.931 55.9729L 61.6325 56.2382L 61.6391 56.2208L 61.6448 56.2031L 60.931 55.9729ZM 58.9034 59.4494L 59.4791 59.9302L 59.4797 59.9294L 58.9034 59.4494ZM 5.66656 30.6482L 6.38949 30.8479L 6.39829 30.816L 6.40426 30.7835L 5.66656 30.6482ZM 9.05688 26.0942L 9.39744 26.7624L 9.4173 26.7523L 9.43652 26.741L 9.05688 26.0942ZM 16.7128 18.9855L 17.4334 19.1934L 17.4407 19.1681L 17.4462 19.1423L 16.7128 18.9855ZM 17.0244 12.8607C 16.7571 11.918 16.4693 9.57964 17.1605 7.19444C 17.8387 4.85415 19.4539 2.46742 23.0334 1.2697L 22.5574 -0.15278C 18.4446 1.22338 16.5144 4.03488 15.7198 6.77695C 14.9382 9.4741 15.2503 12.1023 15.5813 13.2699L 17.0244 12.8607ZM 23.0334 1.2697C 26.6111 0.0725801 31.0817 1.1152 34.9581 2.65345C 38.8158 4.18431 41.8384 6.09575 42.6135 6.49958L 43.3066 5.16929C 42.6746 4.84004 39.461 2.82655 35.5113 1.25922C 31.5803 -0.300717 26.672 -1.52954 22.5574 -0.15278L 23.0334 1.2697ZM 42.6129 6.49926C 47.9247 9.27278 51.5749 11.4011 54.7878 13.157L 55.5072 11.8407C 52.3383 10.1089 48.6317 7.94975 43.3072 5.16961L 42.6129 6.49926ZM 54.7904 13.1584C 63.63 17.9437 78.5516 26.2576 81.5049 27.7825L 82.1931 26.4496C 79.2522 24.9312 64.3921 16.6506 55.5045 11.8393L 54.7904 13.1584ZM 81.5049 27.7825C 82.1926 28.1375 82.9768 28.581 83.653 28.9115C 84.3431 29.2489 85.0753 29.5506 85.7782 29.6289C 86.5225 29.7118 87.2723 29.5451 87.8753 28.9185C 88.4356 28.3362 88.7854 27.4396 88.9918 26.2564L 87.5141 25.9986C 87.3272 27.0701 87.0482 27.6147 86.7945 27.8784C 86.5835 28.0976 86.3342 28.1815 85.9442 28.1381C 85.5128 28.0901 84.9757 27.8885 84.3117 27.5639C 83.6338 27.2325 82.979 26.8554 82.1931 26.4496L 81.5049 27.7825ZM 88.9918 26.2563C 89.3295 24.3196 89.755 23.0221 90.4704 22.2531C 91.1227 21.5519 92.1455 21.1661 94.0682 21.428L 94.2706 19.9418C 92.0776 19.643 90.4801 20.0403 89.3721 21.2314C 88.3271 22.3547 87.8523 24.0589 87.5141 25.9987L 88.9918 26.2563ZM 94.0682 21.428C 97.7458 21.9291 99.2999 24.9512 98.8185 27.3695L 100.29 27.6624C 100.936 24.4158 98.8244 20.5622 94.2706 19.9418L 94.0682 21.428ZM 98.8185 27.3695C 98.3115 29.9156 96.3413 32.6838 92.0645 34.0782L 92.5294 35.5043C 97.2812 33.955 99.6686 30.781 100.29 27.6624L 98.8185 27.3695ZM 92.0645 34.0782C 90.0324 34.7407 87.0115 34.4097 83.7456 33.4832C 80.5169 32.5672 77.1952 31.1125 74.6467 29.6931L 73.9168 31.0036C 76.5535 32.4721 79.9823 33.9747 83.3363 34.9262C 86.6531 35.8672 90.0473 36.3136 92.5294 35.5043L 92.0645 34.0782ZM 74.6467 29.6931C 69.4682 26.8089 65.5837 24.727 64.5178 24.1382L 63.7925 25.4512C 64.8981 26.0619 68.7249 28.1119 73.9168 31.0036L 74.6467 29.6931ZM 64.5471 24.1553C 63.7961 23.6948 62.8959 23.5443 62.0361 23.7358L 62.3623 25.2C 62.8416 25.0932 63.3438 25.177 63.7631 25.4341L 64.5471 24.1553ZM 62.0361 23.7358C 61.1764 23.9274 60.4249 24.4458 59.9394 25.1812L 61.1913 26.0075C 61.4629 25.5961 61.8828 25.3068 62.3623 25.2L 62.0361 23.7358ZM 59.9518 25.163C 59.372 25.9876 59.1665 26.8135 59.4186 27.7521C 59.6459 28.5984 60.2347 29.4772 61.011 30.4928L 62.2027 29.5818C 61.4167 28.5536 61.0084 27.8885 60.8673 27.3631C 60.751 26.9299 60.8058 26.5562 61.1789 26.0258L 59.9518 25.163ZM 61.011 30.4928C 61.7812 31.5004 62.9073 33.0945 63.9504 34.576C 64.9794 36.0375 65.9436 37.413 66.3609 37.9359L 67.5334 37.0003C 67.1529 36.5235 66.2281 35.2055 65.1769 33.7125C 64.1398 32.2394 62.9947 30.618 62.2027 29.5818L 61.011 30.4928ZM 66.352 37.9245C 66.9834 38.7479 67.8778 39.3295 68.8859 39.5718L 69.2366 38.1134C 68.563 37.9515 67.9649 37.5627 67.5423 37.0117L 66.352 37.9245ZM 68.8859 39.5718C 69.8941 39.8142 70.9547 39.7026 71.8905 39.2556L 71.244 37.902C 70.6186 38.2008 69.9101 38.2753 69.2366 38.1134L 68.8859 39.5718ZM 71.7652 39.3022C 72.44 39.1176 73.1453 39.0724 73.8381 39.1693L 74.0458 37.6837C 73.1512 37.5586 72.2407 37.6171 71.3694 37.8554L 71.7652 39.3022ZM 73.8381 39.1693C 74.5309 39.2661 75.197 39.5031 75.7958 39.8658L 76.573 38.5829C 75.8001 38.1147 74.9403 37.8088 74.0458 37.6837L 73.8381 39.1693ZM 75.7958 39.8658C 76.3947 40.2286 76.914 40.7096 77.322 41.2799L 78.5418 40.4069C 78.0156 39.6716 77.3458 39.051 76.573 38.5829L 75.7958 39.8658ZM 77.322 41.2799C 77.7301 41.8501 78.0184 42.4976 78.1694 43.1831L 79.6343 42.8604C 79.4397 41.977 79.0681 41.1422 78.5418 40.4069L 77.322 41.2799ZM 78.1787 43.2205C 78.6781 45.038 78.3115 46.5105 77.4841 47.4804C 76.6533 48.4544 75.2663 49.0292 73.5109 48.8618L 73.3685 50.355C 75.5289 50.5611 77.427 49.8586 78.6253 48.4539C 79.8271 47.045 80.2336 45.0374 79.6251 42.823L 78.1787 43.2205ZM 73.5109 48.8618C 71.8272 48.7011 70.1657 47.5797 68.3989 45.7937C 66.6396 44.0152 64.9103 41.7229 63.0335 39.3925L 61.8652 40.3333C 63.6941 42.6043 65.502 44.9981 67.3325 46.8486C 69.1555 48.6915 71.1364 50.1421 73.3685 50.355L 73.5109 48.8618ZM 63.0335 39.3925C 59.3516 34.8205 51.1247 22.3938 50.0708 20.86L 48.8345 21.7095C 49.8413 23.1746 58.1357 35.7022 61.8652 40.3333L 63.0335 39.3925ZM 50.0708 20.86C 49.0932 19.4373 47.401 16.1907 42.9323 16.092L 42.8992 17.5916C 46.4742 17.6706 47.7513 20.1332 48.8345 21.7095L 50.0708 20.86ZM 42.9323 16.092C 40.914 16.0474 39.057 15.8118 37.2527 15.7152C 36.3828 15.6686 35.5482 15.658 34.798 15.7366C 34.0519 15.8149 33.3371 15.9863 32.7389 16.3411L 33.5041 17.6312C 33.8421 17.4307 34.3169 17.2953 34.9544 17.2285C 35.5878 17.162 36.3306 17.168 37.1725 17.2131C 38.7917 17.2998 40.8957 17.5473 42.8992 17.5916L 42.9323 16.092ZM 32.7446 16.3378C 31.8176 16.8767 31.0373 17.6357 30.4722 18.5478L 31.7473 19.3378C 32.183 18.6345 32.7844 18.0497 33.4984 17.6346L 32.7446 16.3378ZM 30.4722 18.5478C 29.9071 19.4599 29.5745 20.4972 29.5036 21.5684L 31.0003 21.6675C 31.055 20.8411 31.3116 20.0411 31.7473 19.3378L 30.4722 18.5478ZM 29.5023 21.5954C 29.467 22.7729 29.7616 23.9368 30.3528 24.9551L 31.65 24.2019C 31.1994 23.4257 30.9747 22.5383 31.0016 21.6404L 29.5023 21.5954ZM 30.3528 24.9551C 30.944 25.9734 31.8083 26.8054 32.8477 27.3566L 33.5504 26.0314C 32.7591 25.6118 32.1006 24.978 31.65 24.2019L 30.3528 24.9551ZM 32.838 27.3514C 35.3809 28.7479 41.5923 32.2555 43.5516 33.3762L 44.2964 32.0742C 42.3335 30.9513 36.1137 27.4391 33.5601 26.0366L 32.838 27.3514ZM 43.5516 33.3762C 44.0376 33.6543 44.4535 33.8719 44.7352 34.029C 45.0341 34.1957 45.2492 34.3295 45.4618 34.5007C 45.8978 34.8518 46.3805 35.404 47.4214 36.8047L 48.6254 35.91C 47.5945 34.5228 47.008 33.8199 46.4025 33.3323C 46.0944 33.0842 45.7956 32.9029 45.4657 32.7189C 45.1188 32.5255 44.7909 32.3571 44.2964 32.0742L 43.5516 33.3762ZM 47.4214 36.8047C 49.4893 39.5872 56.4454 49.4105 57.9733 51.5347L 59.191 50.6589C 57.683 48.5623 50.7012 38.7033 48.6254 35.91L 47.4214 36.8047ZM 57.9733 51.5347C 58.78 52.6564 59.4231 53.4193 59.8593 54.1548C 60.2716 54.8499 60.3584 55.3047 60.2172 55.7427L 61.6448 56.2031C 61.98 55.1637 61.6513 54.2357 61.1495 53.3896C 60.6717 52.584 59.9021 51.6476 59.191 50.6589L 57.9733 51.5347ZM 60.2295 55.7075C 59.7809 56.8935 59.1379 57.996 58.3271 58.9695L 59.4797 59.9294C 60.3973 58.8277 61.1249 57.5801 61.6325 56.2382L 60.2295 55.7075ZM 58.3278 58.9687C 58.1538 59.177 57.971 59.3174 57.802 59.3415C 57.7026 59.3556 57.359 59.3636 56.7664 58.6487L 55.6116 59.606C 56.3817 60.5351 57.1959 60.9429 58.0134 60.8265C 58.7612 60.72 59.2542 60.1995 59.4791 59.9302L 58.3278 58.9687ZM 56.7664 58.6487C 55.3891 56.9874 41.645 42.328 39.8463 40.3608L 38.7393 41.373C 40.5968 43.4045 54.2632 57.9796 55.6116 59.606L 56.7664 58.6487ZM 39.8463 40.3608C 38.8329 39.2525 36.9569 37.9739 34.574 37.5318C 32.1594 37.0838 29.2648 37.5036 26.2884 39.7459L 27.191 40.9439C 29.8319 38.9544 32.2998 38.6355 34.3004 39.0066C 36.3326 39.3837 37.9245 40.482 38.7393 41.373L 39.8463 40.3608ZM 26.2884 39.7459C 20.6597 43.9864 8.99676 52.8833 7.24705 54.1822L 8.14116 55.3866C 9.89256 54.0864 21.5852 45.1672 27.191 40.9439L 26.2884 39.7459ZM 7.24705 54.1822C 6.34856 54.8492 5.52199 55.4559 4.65646 55.7427C 3.85428 56.0086 3.01863 55.9984 2.0463 55.3577L 1.22097 56.6102C 2.60857 57.5246 3.92787 57.5644 5.12831 57.1666C 6.26539 56.7898 7.2891 56.0192 8.14116 55.3866L 7.24705 54.1822ZM 2.0463 55.3577C 1.5345 55.0205 1.22686 54.6831 1.04039 54.354C 0.854962 54.0268 0.76531 53.6656 0.751801 53.2429C 0.723044 52.3432 1.02966 51.2985 1.40505 49.9032L -0.0434469 49.5135C -0.388226 50.7951 -0.785154 52.1107 -0.747434 53.2908C -0.727705 53.9081 -0.591612 54.5166 -0.264614 55.0936C 0.0613422 55.6688 0.552804 56.17 1.22097 56.6102L 2.0463 55.3577ZM 1.40505 49.9032C 2.13283 47.198 5.98891 32.298 6.38949 30.8479L 4.94364 30.4485C 4.54649 31.8862 0.6691 46.865 -0.0434469 49.5135L 1.40505 49.9032ZM 6.40426 30.7835C 6.56129 29.9273 6.91314 29.1192 7.43233 28.4218L 6.22915 27.5261C 5.57233 28.4083 5.12741 29.4304 4.92887 30.5129L 6.40426 30.7835ZM 7.43233 28.4218C 7.95152 27.7244 8.62402 27.1566 9.39744 26.7624L 8.71632 25.426C 7.73705 25.9251 6.88598 26.6438 6.22915 27.5261L 7.43233 28.4218ZM 9.43652 26.741C 10.6536 26.0267 12.3831 25.1966 13.8707 24.0813C 15.3963 22.9375 16.792 21.4165 17.4334 19.1934L 15.9922 18.7776C 15.4703 20.5864 14.3343 21.8589 12.9709 22.8811C 11.5696 23.9317 10.0527 24.6401 8.67724 25.4474L 9.43652 26.741ZM 17.4462 19.1423C 17.8975 17.0319 17.7455 14.8366 17.0076 12.8088L 15.5981 13.3218C 16.2396 15.0848 16.3718 16.9936 15.9794 18.8287L 17.4462 19.1423Z"/>
<path id="path7_stroke" d="M 16.5738 13.262L 15.3714 13.6034L 15.3838 13.6472L 15.3994 13.69L 16.5738 13.262ZM 43.6742 5.92226L 44.252 4.81384L 44.251 4.81332L 43.6742 5.92226ZM 56.0642 12.687L 55.4654 13.7842L 55.4698 13.7866L 56.0642 12.687ZM 83.2095 27.5242L 83.8021 26.4236L 83.7923 26.4183L 83.7823 26.4132L 83.2095 27.5242ZM 33.6721 17.2419L 34.2996 18.323L 34.3091 18.3174L 33.6721 17.2419ZM 30.7548 21.9433L 29.5075 21.8606L 29.506 21.8832L 29.5053 21.9058L 30.7548 21.9433ZM 33.7509 27.0958L 34.3519 25.9998L 34.3439 25.9953L 34.3358 25.9911L 33.7509 27.0958ZM 61.9438 56.8154L 63.1127 57.2582L 63.1237 57.2291L 63.1333 57.1996L 61.9438 56.8154ZM 59.8825 60.3443L 60.8414 61.1463L 60.8424 61.145L 59.8825 60.3443ZM 5.76075 31.1095L 6.9655 31.4428L 6.98021 31.3896L 6.99018 31.3354L 5.76075 31.1095ZM 9.20743 26.487L 9.77434 27.601L 9.80742 27.5842L 9.83944 27.5654L 9.20743 26.487ZM 16.9906 19.2713L 18.1915 19.6183L 18.2037 19.5761L 18.2129 19.5331L 16.9906 19.2713ZM 17.7763 12.9205C 17.5255 12.0371 17.2408 9.75836 17.9139 7.43926C 18.5652 5.19526 20.1043 2.91044 23.5704 1.75245L 22.7782 -0.618718C 18.4242 0.835918 16.3589 3.82758 15.513 6.74244C 14.6888 9.58219 15.014 12.3447 15.3714 13.6034L 17.7763 12.9205ZM 23.5704 1.75245C 27.0338 0.595398 31.4369 1.59353 35.3599 3.14789C 39.252 4.68997 42.2629 6.59713 43.0973 7.03119L 44.251 4.81332C 43.655 4.50327 40.326 2.42642 36.2808 0.823676C 32.2667 -0.766784 27.1351 -2.07429 22.7782 -0.618718L 23.5704 1.75245ZM 43.0963 7.03067C 48.4923 9.84379 52.1848 11.9941 55.4654 13.7842L 56.6629 11.5897C 53.4556 9.8396 49.6691 7.63798 44.252 4.81384L 43.0963 7.03067ZM 55.4698 13.7866C 64.4407 18.6356 79.6303 27.0853 82.6368 28.6353L 83.7823 26.4132C 80.7965 24.8739 65.7095 16.4795 56.6585 11.5873L 55.4698 13.7866ZM 74.646 49.12C 73.0615 48.9816 71.5116 47.9554 69.7867 46.1642C 68.0584 44.3695 66.4028 42.0864 64.4604 39.6781L 62.5144 41.2477C 64.3394 43.5102 66.1569 45.9991 67.9859 47.8983C 69.8182 49.801 71.9095 51.3905 74.4285 51.6105L 74.646 49.12ZM 64.4604 39.6781C 60.7328 35.0566 52.3912 22.4757 51.3044 20.8964L 49.245 22.3138C 50.2531 23.7786 58.7074 36.5276 62.5144 41.2477L 64.4604 39.6781ZM 51.3044 20.8964C 50.3445 19.5017 48.4893 15.9522 43.6567 15.8456L 43.6015 18.345C 46.9464 18.4188 48.1098 20.6644 49.245 22.3138L 51.3044 20.8964ZM 43.6567 15.8456C 41.6 15.8002 39.7921 15.565 37.8979 15.4637C 37.0045 15.416 36.1262 15.4036 35.3258 15.4874C 34.5322 15.5705 33.7276 15.7561 33.035 16.1664L 34.3091 18.3174C 34.5682 18.1639 34.9731 18.038 35.5861 17.9738C 36.1922 17.9104 36.9176 17.9149 37.7644 17.9602C 39.3507 18.045 41.5695 18.3002 43.6015 18.345L 43.6567 15.8456ZM 33.0446 16.1608C 32.0331 16.7479 31.1815 17.5749 30.5647 18.5689L 32.689 19.887C 33.0897 19.2412 33.6428 18.7041 34.2995 18.323L 33.0446 16.1608ZM 30.5647 18.5689C 29.948 19.5628 29.5849 20.6933 29.5075 21.8606L 32.002 22.026C 32.0523 21.2673 32.2883 20.5328 32.689 19.887L 30.5647 18.5689ZM 29.5053 21.9058C 29.4667 23.1924 29.7891 24.4642 30.4361 25.5768L 32.5973 24.3201C 32.1851 23.6112 31.9796 22.8008 32.0042 21.9808L 29.5053 21.9058ZM 30.4361 25.5768C 31.0831 26.6894 32.0288 27.5984 33.166 28.2005L 34.3358 25.9911C 33.6118 25.6078 33.0095 25.0289 32.5973 24.3201L 30.4361 25.5768ZM 33.1499 28.1918C 35.7316 29.6075 42.0435 33.1663 44.0341 34.3033L 45.2741 32.1324C 43.2774 30.9919 36.9515 27.4252 34.3519 25.9998L 33.1499 28.1918ZM 44.0341 34.3033C 44.5254 34.5839 44.9768 34.8208 45.2421 34.9685C 45.5359 35.1321 45.7274 35.2525 45.9124 35.4012C 46.3005 35.7133 46.7574 36.2248 47.8189 37.651L 49.8244 36.1583C 48.7796 34.7546 48.1495 33.992 47.4789 33.4528C 47.1345 33.176 46.8036 32.9765 46.4582 32.7842C 46.0843 32.576 45.7796 32.4212 45.2741 32.1324L 44.0341 34.3033ZM 47.8189 37.651C 49.9185 40.4719 56.982 50.4314 58.5417 52.5965L 60.5701 51.1353C 59.0436 49.0162 51.9374 38.9972 49.8244 36.1583L 47.8189 37.651ZM 58.5417 52.5965C 59.393 53.7784 60.0055 54.4963 60.4355 55.22C 60.8254 55.8765 60.8343 56.1834 60.7543 56.4312L 63.1333 57.1996C 63.5376 55.9479 63.1241 54.8511 62.5848 53.9433C 62.0855 53.1027 61.2619 52.0956 60.5701 51.1353L 58.5417 52.5965ZM 60.7748 56.3726C 60.3381 57.5255 59.7121 58.5972 58.9226 59.5436L 60.8424 61.145C 61.8101 59.9849 62.5774 58.6712 63.1127 57.2582L 60.7748 56.3726ZM 58.9237 59.5423C 58.8595 59.6191 58.7981 59.6795 58.7431 59.7191C 58.6901 59.7574 58.6752 59.7535 58.6943 59.7508C 58.7289 59.7459 58.7214 59.7632 58.6429 59.7237C 58.5481 59.6761 58.3567 59.5465 58.0847 59.2189L 56.1612 60.8159C 57.0023 61.8289 57.9826 62.3771 59.0461 62.2259C 59.9939 62.0912 60.5959 61.4398 60.8414 61.1463L 58.9237 59.5423ZM 58.0847 59.2189C 56.6751 57.5212 42.6772 42.6137 40.8677 40.6379L 39.024 42.3263C 40.9316 44.4093 54.7999 59.1763 56.1612 60.8159L 58.0847 59.2189ZM 40.8677 40.6379C 39.7728 39.4422 37.7733 38.086 35.2373 37.6162C 32.6486 37.1366 29.5676 37.5952 26.4328 39.9533L 27.9356 41.9511C 30.5114 40.0136 32.8821 39.7224 34.7819 40.0743C 36.7345 40.436 38.2605 41.4925 39.024 42.3263L 40.8677 40.6379ZM 26.4328 39.9533C 20.703 44.2632 8.85589 53.2868 7.07765 54.6049L 8.56634 56.6133C 10.3474 55.2931 22.244 46.2324 27.9356 41.9511L 26.4328 39.9533ZM 7.07765 54.6049C 6.1492 55.2931 5.37288 55.8557 4.58105 56.1177C 3.89446 56.3449 3.20155 56.3441 2.34782 55.7824L 0.973758 57.8709C 2.51919 58.8877 4.01705 58.9376 5.36636 58.4912C 6.61043 58.0796 7.71515 57.2442 8.56634 56.6133L 7.07765 54.6049ZM 2.34782 55.7824C 1.87829 55.4735 1.62545 55.1843 1.48143 54.9305C 1.33919 54.6799 1.26328 54.394 1.25158 54.0287C 1.22528 53.2072 1.50742 52.2354 1.89907 50.7818L -0.514836 50.1314C -0.855318 51.395 -1.28842 52.819 -1.24714 54.1087C -1.22504 54.7989 -1.07146 55.4974 -0.692759 56.1646C -0.315837 56.8287 0.243717 57.3906 0.973758 57.8709L 2.34782 55.7824ZM 1.89907 50.7818C 2.64394 48.0174 6.55714 32.9188 6.9655 31.4428L 4.55601 30.7762C 4.15338 32.2315 0.204568 47.4615 -0.514836 50.1314L 1.89907 50.7818ZM 6.99018 31.3354C 7.13623 30.5403 7.46346 29.7899 7.94638 29.1422L 5.94218 27.6478C 5.22954 28.6036 4.74677 29.7109 4.53133 30.8837L 6.99018 31.3354ZM 7.94638 29.1422C 8.4293 28.4945 9.05485 27.9672 9.77434 27.601L 8.64051 25.3729C 7.57818 25.9135 6.65483 26.692 5.94218 27.6478L 7.94638 29.1422ZM 9.83944 27.5654C 11.0253 26.8705 12.8526 25.9884 14.393 24.8353C 15.9965 23.635 17.5003 22.0102 18.1915 19.6183L 15.7897 18.9242C 15.2982 20.625 14.2283 21.8358 12.8948 22.834C 11.4982 23.8794 10.0252 24.5589 8.57541 25.4085L 9.83944 27.5654ZM 18.2129 19.5331C 18.691 17.3008 18.53 14.9788 17.7483 12.834L 15.3994 13.69C 16.0201 15.393 16.148 17.2369 15.7683 19.0095L 18.2129 19.5331ZM 74.4285 51.6105C 76.9107 51.8273 78.7888 50.9408 80.7499 49.4223C 81.7111 48.678 82.7243 47.7572 83.8507 46.7176C 84.9876 45.6682 86.2578 44.4806 87.7744 43.1543L 86.1286 41.2724C 84.5803 42.6265 83.2794 43.8428 82.1551 44.8805C 81.0203 45.9279 80.0825 46.7772 79.2193 47.4456C 77.5314 48.7525 76.2672 49.2616 74.646 49.12L 74.4285 51.6105ZM 87.7744 43.1543C 89.2981 41.8217 90.6716 40.6269 91.7923 39.5648C 92.9024 38.5129 93.839 37.5228 94.4464 36.5899C 95.0442 35.6719 95.4794 34.5664 95.1212 33.4099C 94.772 32.2823 93.793 31.5248 92.6404 30.9643L 91.5471 33.2125C 92.4982 33.675 92.6944 34.0246 92.7332 34.1496C 92.7629 34.2457 92.7989 34.5385 92.3514 35.2258C 91.9135 35.8984 91.1588 36.7209 90.0727 37.7502C 88.9972 38.7695 87.6696 39.9247 86.1286 41.2724L 87.7744 43.1543ZM 83.2095 27.5242C 82.617 28.6248 82.617 28.6249 82.617 28.6249C 82.6171 28.6249 82.6172 28.6249 82.6172 28.625C 82.6174 28.6251 82.6177 28.6252 82.618 28.6254C 82.6186 28.6257 82.6195 28.6262 82.6207 28.6268C 82.623 28.6281 82.6265 28.63 82.6311 28.6325C 82.6403 28.6374 82.6539 28.6447 82.6718 28.6543C 82.7075 28.6735 82.7603 28.7018 82.8288 28.7385C 82.9659 28.8118 83.1661 28.9188 83.4193 29.0534C 83.9257 29.3226 84.6445 29.7027 85.4952 30.147C 87.1952 31.0349 89.4281 32.1821 91.5471 33.2125L 92.6404 30.9643C 90.552 29.9487 88.3428 28.8138 86.6525 27.931C 85.8082 27.4901 85.0948 27.1128 84.5928 26.8459C 84.3418 26.7125 84.1438 26.6067 84.0086 26.5344C 83.941 26.4982 83.8892 26.4704 83.8544 26.4517C 83.837 26.4423 83.8238 26.4353 83.815 26.4306C 83.8107 26.4282 83.8074 26.4264 83.8052 26.4253C 83.8041 26.4247 83.8033 26.4243 83.8028 26.424C 83.8026 26.4239 83.8024 26.4238 83.8023 26.4237C 83.8022 26.4237 83.8022 26.4236 83.8021 26.4236C 83.8021 26.4236 83.8021 26.4236 83.2095 27.5242Z"/>
</defs>
</svg>
