<svg width="242" height="90" viewBox="0 0 242 90" version="1.1" xmlns="http://www.w3.org/2000/svg" xmlns:xlink="http://www.w3.org/1999/xlink">
<title>nofas</title>
<desc>Created using Figma</desc>
<g id="Canvas" transform="translate(49506 20838)">
<g id="nofas">
<use xlink:href="#path0_fill" transform="translate(-49506 -20838)" fill="#BDBDBD"/>
<use xlink:href="#path1_fill" transform="translate(-49506 -20838)" fill="#BDBDBD"/>
<use xlink:href="#path2_fill" transform="translate(-49506 -20838)" fill="#BDBDBD"/>
<use xlink:href="#path3_fill" transform="translate(-49506 -20838)" fill="#BDBDBD"/>
<use xlink:href="#path4_fill" transform="translate(-49506 -20838)" fill="#BDBDBD"/>
<use xlink:href="#path5_fill" transform="translate(-49506 -20838)" fill="#BDBDBD"/>
<use xlink:href="#path6_fill" transform="translate(-49506 -20838)" fill="#BDBDBD"/>
<use xlink:href="#path7_fill" transform="translate(-49506 -20838)" fill="#BDBDBD"/>
<use xlink:href="#path8_fill" transform="translate(-49506 -20838)" fill="#BDBDBD"/>
<use xlink:href="#path9_fill" transform="translate(-49506 -20838)" fill="#BDBDBD"/>
<use xlink:href="#path10_fill" transform="translate(-49506 -20838)" fill="#BDBDBD"/>
<use xlink:href="#path11_fill" transform="translate(-49506 -20838)" fill="#BDBDBD"/>
<use xlink:href="#path12_fill" transform="translate(-49506 -20838)" fill="#BDBDBD"/>
<use xlink:href="#path13_fill" transform="translate(-49506 -20838)" fill="#BDBDBD"/>
<use xlink:href="#path14_fill" transform="translate(-49506 -20838)" fill="#BDBDBD"/>
<use xlink:href="#path15_fill" transform="translate(-49506 -20838)" fill="#BDBDBD"/>
<use xlink:href="#path16_fill" transform="translate(-49506 -20838)" fill="#BDBDBD"/>
<use xlink:href="#path17_fill" transform="translate(-49506 -20838)" fill="#BDBDBD"/>
<use xlink:href="#path18_fill" transform="translate(-49506 -20838)" fill="#BDBDBD"/>
<use xlink:href="#path19_fill" transform="translate(-49506 -20838)" fill="#BDBDBD"/>
<use xlink:href="#path20_fill" transform="translate(-49506 -20838)" fill="#BDBDBD"/>
<use xlink:href="#path21_fill" transform="translate(-49506 -20838)" fill="#BDBDBD"/>
<use xlink:href="#path22_fill" transform="translate(-49506 -20838)" fill="#BDBDBD"/>
<use xlink:href="#path23_fill" transform="translate(-49506 -20838)" fill="#BDBDBD"/>
<use xlink:href="#path24_fill" transform="translate(-49506 -20838)" fill="#BDBDBD"/>
<use xlink:href="#path25_fill" transform="translate(-49506 -20838)" fill="#BDBDBD"/>
<use xlink:href="#path26_fill" transform="translate(-49506 -20838)" fill="#BDBDBD"/>
<use xlink:href="#path27_fill" transform="translate(-49506 -20838)" fill="#BDBDBD"/>
<use xlink:href="#path28_fill" transform="translate(-49506 -20838)" fill="#BDBDBD"/>
<use xlink:href="#path29_fill" transform="translate(-49506 -20838)" fill="#BDBDBD"/>
<use xlink:href="#path30_fill" transform="translate(-49506 -20838)" fill="#BDBDBD"/>
<use xlink:href="#path31_fill" transform="translate(-49506 -20838)" fill="#BDBDBD"/>
<use xlink:href="#path32_fill" transform="translate(-49506 -20838)" fill="#BDBDBD"/>
<use xlink:href="#path33_fill" transform="translate(-49506 -20838)" fill="#BDBDBD"/>
<use xlink:href="#path34_fill" transform="translate(-49506 -20838)" fill="#BDBDBD"/>
<use xlink:href="#path35_fill" transform="translate(-49506 -20838)" fill="#BDBDBD"/>
<use xlink:href="#path36_fill" transform="translate(-49506 -20838)" fill="#BDBDBD"/>
<use xlink:href="#path37_fill" transform="translate(-49506 -20838)" fill="#BDBDBD"/>
<use xlink:href="#path38_fill" transform="translate(-49506 -20838)" fill="#BDBDBD"/>
<use xlink:href="#path39_fill" transform="translate(-49506 -20838)" fill="#BDBDBD"/>
<use xlink:href="#path40_fill" transform="translate(-49506 -20838)" fill="#BDBDBD"/>
<use xlink:href="#path41_fill" transform="translate(-49506 -20838)" fill="#BDBDBD"/>
<use xlink:href="#path42_fill" transform="translate(-49506 -20838)" fill="#BDBDBD"/>
<use xlink:href="#path43_fill" transform="translate(-49506 -20838)" fill="#BDBDBD"/>
<use xlink:href="#path44_fill" transform="translate(-49506 -20838)" fill="#BDBDBD"/>
<use xlink:href="#path45_fill" transform="translate(-49506 -20838)" fill="#BDBDBD"/>
<use xlink:href="#path46_fill" transform="translate(-49506 -20838)" fill="#BDBDBD"/>
<use xlink:href="#path47_fill" transform="translate(-49506 -20838)" fill="#BDBDBD"/>
<use xlink:href="#path48_fill" transform="translate(-49506 -20838)" fill="#BDBDBD"/>
<use xlink:href="#path49_fill" transform="translate(-49506 -20838)" fill="#BDBDBD"/>
<use xlink:href="#path50_fill" transform="translate(-49506 -20838)" fill="#BDBDBD"/>
</g>
</g>
<defs>
<path id="path0_fill" fill-rule="evenodd" d="M 87.8059 45.23L 87.3459 45.6903C 80.6967 52.1987 76.8133 54.4339 75.2984 55.157C 75.8249 53.8422 76.2203 52.4617 76.5491 51.0153C 78.3929 49.8977 85.3044 45.1643 87.3459 37.867C 88.5301 33.528 87.8724 29.0577 85.3044 24.5874L 84.9108 23.9298L 84.7132 24.6531C 84.7132 24.7188 82.8694 30.7669 77.2733 39.642C 77.1583 38.6696 76.9948 37.747 76.8223 36.7876L 76.7468 36.3551L 77.0182 36.2829C 77.1422 36.2484 77.232 36.2235 77.2733 36.2235L 77.3398 36.2235L 77.4045 36.1578C 77.5375 36.0264 87.9389 20.9716 73.9164 9.72963L 73.3234 9.20385L 73.3899 9.99263L 73.3989 10.0828C 73.4887 10.9989 74.2633 18.7357 73.4546 27.3483C 73.3378 27.1304 73.2156 26.9125 73.0898 26.6945L 72.9245 26.4127L 72.7591 26.1383C 72.4824 25.6872 72.1877 25.2358 71.875 24.7845L 71.8876 24.7367C 72.2344 23.502 77.0056 6.47252 60.6182 0.262999L 59.894 0L 60.2228 0.72308C 60.2893 0.788998 64.304 10.4529 65.1612 17.2243C 65.1612 17.2633 65.1612 17.3023 65.1737 17.3414C 65.1827 17.368 65.1989 17.3947 65.2259 17.4214C 59.4321 12.7538 52.1253 9.92693 44.0942 9.92693C 36.0632 9.92693 28.6899 12.7538 22.9608 17.4214C 22.9608 17.3871 22.9608 17.3528 22.9698 17.3185C 22.9788 17.2871 22.995 17.2557 23.0273 17.2243C 23.818 10.4529 27.8992 0.788998 27.9656 0.72308L 28.2945 0L 27.5703 0.262999C 11.2458 6.53754 15.9559 23.5056 16.2991 24.737L 16.3117 24.7845L 16.123 25.0867L 15.7834 25.6253C 15.433 26.1802 15.0825 26.7351 14.7321 27.3483C 13.8767 18.2104 14.7986 10.0585 14.7986 9.99263L 14.8651 9.20385L 14.2721 9.72963C 0.183118 20.9716 10.651 36.0264 10.7822 36.1578L 10.8487 36.2235L 10.9152 36.2235C 10.9152 36.2235 11.111 36.2892 11.4417 36.3551C 11.244 37.4069 11.0463 38.5246 10.9152 39.642C 5.05494 30.7669 3.27765 24.7188 3.27765 24.6531L 3.07998 23.9298L 2.68462 24.5874C 0.118425 29.0577 -0.60579 33.5939 0.644963 37.867C 0.67731 38.0315 0.727628 38.1795 0.777945 38.3275C 0.826466 38.4752 0.874986 38.623 0.907333 38.7873C 3.21116 45.5587 9.6626 49.9636 11.4417 51.081C 11.7706 52.4617 12.1659 53.8422 12.6924 55.2229C 11.1775 54.4996 7.29408 52.2644 0.644963 45.756L 0.183119 45.2957L 0.118425 45.9533C 0.0519334 46.2161 -0.869958 52.9875 3.7377 58.5755C 3.76466 58.628 3.8006 58.6701 3.84013 58.71C 3.89944 58.7701 3.96233 58.8253 4.00187 58.9042L 4.06836 58.9701C 7.35877 62.7831 12.4283 65.0182 19.1439 65.7415C 19.6381 66.3332 20.2059 66.8879 20.7648 67.4334L 21.3165 67.9767C 18.0908 68.1081 12.5595 68.1081 4.98845 67.0563L 4.39722 66.9906L 4.65959 67.5823C 4.72608 67.648 6.50337 71.0665 11.0463 73.6304C 11.111 73.6961 11.1775 73.7618 11.3087 73.7618C 13.0213 74.6821 15.1275 75.4711 17.629 75.9314C 17.6541 75.9561 17.6775 75.9716 17.7026 75.9812C 17.744 75.9971 17.7853 75.9971 17.8266 75.9971L 17.8931 75.9971C 19.1439 76.1942 20.4593 76.3258 21.9743 76.3258C 24.8711 76.3258 28.228 75.8655 32.1115 74.7481C 32.4295 74.875 32.7494 74.9866 33.0675 75.0976L 33.0998 75.1097L 33.1376 75.1218C 33.4539 75.2328 33.7719 75.3445 34.0882 75.4711C 31.1914 77.772 25.5288 82.0452 19.4727 85.0694L 18.815 85.3981L 19.4727 85.6611L 19.5896 85.7001C 20.1071 85.8833 22.2618 86.6472 25.3312 86.6472C 25.9997 86.6472 26.6682 86.5913 27.387 86.5312L 27.5703 86.5158L 27.7015 86.5158L 27.7446 86.5151C 27.7698 86.5137 27.7949 86.5104 27.8201 86.5012C 27.847 86.4918 27.8722 86.4761 27.8992 86.4501C 29.5453 86.2528 31.389 85.7268 33.231 84.8721L 33.2544 84.8698C 33.2742 84.8667 33.2957 84.8602 33.3173 84.8512L 33.382 84.8219L 33.4431 84.7849L 33.4952 84.7407C 35.9967 83.5573 38.5647 81.6508 41.0662 78.7583L 35.4037 89.1453L 41.7904 90L 44.2254 80.7961L 46.6604 90L 53.0472 89.1453L 47.3847 78.7583C 49.888 81.6508 52.5207 83.5573 54.9557 84.7407L 55.0276 84.8064L 55.0797 84.8402L 55.1084 84.853C 55.1408 84.8649 55.1767 84.8721 55.2198 84.8721C 57.1283 85.7268 58.9056 86.2528 60.5517 86.4501C 60.6182 86.5158 60.6829 86.5158 60.7494 86.5158L 60.8806 86.5158C 61.2526 86.5467 61.6084 86.5776 61.957 86.6016C 62.3506 86.6288 62.7351 86.6472 63.1197 86.6472C 66.1891 86.6472 68.3438 85.8833 68.8613 85.7001L 68.9781 85.6611L 69.6376 85.3981L 68.9781 85.0694C 62.922 82.0452 57.2595 77.772 54.3644 75.4711C 55.0168 75.2754 55.6691 75.0151 56.3232 74.7541L 56.3394 74.7481C 60.1564 75.8655 63.5151 76.3258 66.4766 76.3258C 67.925 76.3258 69.307 76.1942 70.5577 75.9971L 70.6242 75.9971L 70.6889 75.9949C 70.7338 75.9902 70.777 75.9758 70.8219 75.9314C 73.3234 75.4711 75.4296 74.6821 77.1422 73.7618C 77.2733 73.7618 77.3398 73.6961 77.4045 73.6304C 81.5539 71.2883 83.3959 68.2332 83.7356 67.6717L 83.7913 67.5823L 84.0536 66.9906L 83.4624 67.0563C 75.8914 68.1081 70.2954 68.1081 67.1361 67.9767C 67.925 67.2534 68.6493 66.5303 69.307 65.7415C 76.0891 65.0182 81.1568 62.7831 84.3825 58.9701L 84.449 58.9042C 84.4813 58.8385 84.5299 58.7894 84.5784 58.7401C 84.6287 58.6908 84.679 58.6414 84.7132 58.5755C 88.9686 53.2783 88.4277 47.0576 88.3432 46.078L 88.3342 45.9533L 87.8059 45.23ZM 77.3398 49.7663C 78.853 47.6625 80.1037 45.6247 81.0921 43.718C 82.9359 40.6281 85.1732 39.5763 86.2263 39.182C 84.1866 44.3753 79.7102 48.0569 77.3398 49.7663ZM 86.7528 37.6699C 86.7187 37.8118 86.6827 37.9344 86.6378 38.0587C 86.5983 38.1647 86.5516 38.2719 86.4905 38.393C 85.8974 38.5246 84.1866 39.0503 82.4075 40.8911C 82.9359 39.5763 83.3959 38.393 83.7913 37.2096L 83.7913 37.1439C 84.9755 34.1197 86.6216 33.3966 87.2794 33.2653C 87.2794 33.9377 87.2542 34.5971 87.1895 35.2493C 87.1356 35.7959 87.0565 36.3374 86.9433 36.8773C 86.8876 37.1416 86.8247 37.4058 86.7528 37.6699ZM 85.1067 25.5735C 86.3593 27.94 87.0817 30.3068 87.2794 32.6736C 86.7528 32.805 85.6351 33.1993 84.5155 34.58C 84.6341 34.08 84.7365 33.6043 84.8228 33.1545L 84.927 32.5789L 84.9755 32.2888L 85.0312 31.9323C 85.1013 31.4704 85.1534 31.046 85.193 30.6622C 85.2559 30.0671 85.2846 29.5698 85.299 29.1815C 85.3188 28.6425 85.308 28.3138 85.3044 28.2257L 85.3044 28.203C 85.3044 28.0059 85.1067 27.8743 84.9755 27.8743C 84.9234 27.8743 84.8767 27.8833 84.8354 27.9003C 84.7994 27.9149 84.7671 27.9351 84.7401 27.9602C 84.6808 28.0181 84.6467 28.1019 84.6467 28.203C 84.6467 28.2687 84.7779 32.3449 82.7382 38.1959C 82.8029 35.6318 82.0787 33.4623 81.8163 32.9366C 83.6206 29.3987 84.6035 26.8678 85.0744 25.652L 85.1067 25.5735ZM 77.471 43.3236C 77.471 42.4032 77.4045 41.5485 77.3398 40.6281C 78.9859 38.0643 80.3679 35.7634 81.421 33.7253C 81.881 35.106 82.6052 38.3273 81.421 41.4828C 81.0939 42.2184 80.7291 42.9796 80.3212 43.7581C 80.1594 44.0671 79.9923 44.3787 79.8162 44.6926C 79.6868 44.926 79.552 45.1605 79.4136 45.3962C 79.1171 45.9002 78.8044 46.4087 78.4738 46.9201L 78.312 47.1688L 78.0065 47.6246C 77.6705 48.1183 77.3165 48.6136 76.9445 49.1089C 77.0936 48.2701 77.2158 47.4042 77.3057 46.5233C 77.4117 45.4708 77.471 44.3971 77.471 43.3236ZM 2.8823 25.5735L 3.06201 26.0939L 3.27406 26.6696C 3.37829 26.9481 3.49869 27.2564 3.63347 27.5929C 4.18157 28.9535 4.98666 30.7743 6.10802 32.9366C 5.91034 33.4623 5.12144 35.5661 5.18613 38.1959C 3.14647 32.3449 3.27765 28.2687 3.27765 28.203C 3.27765 28.114 3.2507 28.0385 3.20218 27.9822C 3.14467 27.914 3.05662 27.8743 2.94879 27.8743C 2.75112 27.8743 2.61993 28.0059 2.61993 28.203C 2.61993 28.2687 2.48695 30.7012 3.40884 34.58C 2.35576 33.1993 1.2362 32.805 0.644963 32.6736C 0.907333 30.3068 1.63155 27.94 2.8823 25.5735ZM 1.2362 37.6699C 0.842639 36.2235 0.644963 34.7771 0.709657 33.2653C 1.36918 33.4623 3.07998 34.1856 4.19955 37.1439L 4.19955 37.2096C 4.52841 38.3273 4.98845 39.5763 5.58148 40.8911C 4.95431 40.2407 4.33432 39.7544 3.77005 39.3916C 3.52026 39.2317 3.28125 39.0959 3.05841 38.9806C 2.68822 38.7898 2.35576 38.6553 2.08441 38.5611C 1.83821 38.4759 1.63874 38.4237 1.50036 38.393C 1.36918 38.1957 1.30269 37.9329 1.2362 37.6699ZM 1.69804 39.182C 2.75112 39.5106 4.98845 40.6281 6.83224 43.718C 7.82062 45.6247 9.07137 47.6625 10.5845 49.7663C 8.21597 48.0569 3.7377 44.3753 1.69804 39.182ZM 6.56987 41.4828C 5.38381 38.3273 6.10802 35.106 6.56987 33.7253L 6.976 34.4959L 7.35338 35.1919C 8.27707 36.8668 9.38586 38.7084 10.651 40.6281C 10.5899 41.0537 10.5575 41.4792 10.5396 41.8983C 10.5198 42.3855 10.5198 42.8639 10.5198 43.3236C 10.5198 43.6863 10.527 44.0467 10.5396 44.4054C 10.5539 44.8578 10.5809 45.3074 10.6168 45.7549C 10.7067 46.8816 10.8541 47.9952 11.0463 49.1089C 9.07137 46.4791 7.62294 43.8496 6.56987 41.4828ZM 77.5375 34.58C 77.7352 31.8846 77.8664 29.5178 77.8664 27.4143C 77.9976 24.5874 79.7102 23.0753 80.5656 22.5493C 81.0256 27.8743 78.7218 32.542 77.5375 34.58ZM 80.4991 21.8262C 80.039 22.089 78.7218 23.0094 77.8664 24.7188C 77.8664 24.3444 77.852 23.9849 77.8376 23.6332L 77.8322 23.5522C 77.8161 23.1908 77.7999 22.8372 77.7999 22.4836C 77.7352 19.5909 78.6553 17.816 79.1171 17.027C 79.8413 18.6705 80.3014 20.3142 80.4991 21.8262ZM 78.7415 16.5053C 78.4522 16.9324 77.8448 17.8331 77.471 19.2622C 76.9445 15.3179 76.0891 13.9372 76.0226 13.8715C 75.8914 13.7399 75.6937 13.6742 75.5625 13.8058C 75.4996 13.8672 75.4529 13.943 75.4332 14.0197C 75.4224 14.0654 75.4206 14.1114 75.4314 14.1549C 75.4421 14.1948 75.4619 14.2325 75.4961 14.2659C 75.4961 14.2659 76.8133 16.3696 77.2069 23.0753L 77.0505 22.7641L 76.975 22.6231L 76.869 22.4341L 76.7594 22.2426C 76.4701 21.7536 76.1592 21.3126 75.8591 20.9319C 75.2588 20.168 74.7035 19.6453 74.443 19.4595C 74.443 18.5364 74.4322 17.6573 74.4142 16.8335C 74.4016 16.2183 74.3855 15.6338 74.3657 15.0849C 74.2956 13.1233 74.1932 11.6161 74.1141 10.7816C 76.2203 12.5567 77.7352 14.4632 78.7883 16.4353L 78.7415 16.5053ZM 74.4106 21.3547L 74.443 20.3142C 75.3649 21.3002 77.3398 23.5354 77.2733 26.2966C 77.2733 28.8604 77.1422 31.9503 76.8133 35.6318L 76.6156 35.6318C 76.0226 33.068 75.1007 30.6355 73.9811 28.4003L 73.9811 28.0716C 74.1249 26.6116 74.2291 25.171 74.3046 23.7706C 74.3352 23.2092 74.3603 22.6543 74.3819 22.107L 74.4106 21.3547ZM 74.9695 56.0117C 75.5625 55.8144 77.2069 55.0913 80.039 52.9218C 79.8413 54.3025 79.2483 57.458 76.8133 59.6275C 74.9695 61.0737 72.9281 62.4544 70.5577 63.6377C 72.3368 61.3367 73.8499 58.7728 74.9695 56.0117ZM 71.6126 23.0094C 71.2819 20.5772 70.7554 18.4077 70.1642 16.3696C 69.5047 13.6085 70.3619 11.5047 70.8884 10.5843C 72.7969 15.4492 72.1391 20.5112 71.6126 23.0094ZM 70.1588 10.6128C 70.0635 10.8002 69.9629 11.0186 69.8641 11.2655C 69.6089 11.9085 69.3717 12.7459 69.307 13.7399C 68.7804 12.2937 68.2539 10.9789 67.6627 9.79554C 66.872 7.95477 67.465 6.377 67.8586 5.78531C 69.0446 7.10008 69.9665 8.48055 70.5577 9.92693C 70.4715 10.0552 70.3241 10.2875 70.1588 10.6128ZM 61.0782 1.18338C 62.3254 1.71252 63.454 2.30063 64.4585 2.94075C 65.5745 3.65262 66.5359 4.42861 67.332 5.25931C 67.0696 5.6537 66.6078 6.57408 66.5431 7.82316C 65.49 5.98239 64.437 4.47031 63.4486 3.28715C 63.3174 3.15554 63.1197 3.15554 62.9885 3.22124C 62.9364 3.27348 62.9041 3.33581 62.8897 3.40038C 62.8663 3.49881 62.8825 3.60217 62.922 3.68154C 64.1728 5.25931 65.6212 7.36308 66.9385 9.99263L 66.9385 10.0585C 67.2673 10.7159 67.5297 11.3733 67.8586 12.0307C 66.2789 10.3213 64.5016 9.66393 63.9086 9.46685C 62.922 5.851 61.6713 2.56385 61.0782 1.18338ZM 64.2393 10.2556C 65.357 10.7159 67.925 12.0964 69.0446 15.0549C 69.9 17.553 70.5577 20.3799 71.0196 23.6011C 69.5047 21.5632 67.7939 19.7225 65.8836 18.0131L 65.8512 17.86C 65.7991 17.5985 65.7524 17.3689 65.7524 17.0927C 65.49 14.9889 64.897 12.5567 64.2393 10.2556ZM 43.9631 14.9232C 57.3925 14.9232 68.6493 24.1928 71.6773 36.7495L 70.0312 36.7495C 68.1227 36.7495 66.5431 38.13 66.1478 39.905L 50.5457 39.905C 49.2949 37.5383 46.7934 35.9605 43.9631 35.9605C 41.1309 35.9605 38.6294 37.5383 37.3786 39.905L 21.7766 39.905C 21.3812 38.0643 19.8016 36.7495 17.8931 36.7495L 16.247 36.7495C 19.2751 24.1928 30.5318 14.9232 43.9631 14.9232ZM 62.9885 42.0088C 62.9885 42.6662 62.462 43.1922 61.8025 43.1922C 61.1447 43.1922 60.6182 42.6662 60.6182 42.0088C 60.6182 41.3514 61.1447 40.8254 61.8025 40.8254C 62.462 40.8254 62.9885 41.3514 62.9885 42.0088ZM 56.6683 42.0088C 56.6683 42.7976 56.0087 43.4552 55.2198 43.4552C 54.4291 43.4552 53.7714 42.7976 53.7714 42.0088C 53.7714 41.9214 53.7786 41.8355 53.7948 41.7521L 53.8056 41.7057C 53.8145 41.6566 53.8289 41.6084 53.8433 41.5611L 53.8738 41.477C 53.8936 41.4281 53.917 41.3806 53.9421 41.3344C 53.9763 41.2727 54.014 41.2138 54.0553 41.1577C 54.0859 41.1151 54.12 41.0743 54.156 41.0353C 54.4219 40.7458 54.8029 40.5624 55.2198 40.5624C 55.6907 40.5624 56.1166 40.7972 56.3825 41.1546C 56.4436 41.2366 56.4958 41.325 56.5389 41.4185C 56.6215 41.5994 56.6683 41.7994 56.6683 42.0088ZM 48.2419 43.3236C 48.2419 45.6247 46.3316 47.5311 44.0278 47.5311C 41.7239 47.5311 39.8155 45.6247 39.8155 43.3236C 39.8155 41.0227 41.7239 39.116 44.0278 39.116C 46.3316 39.116 48.2419 41.0227 48.2419 43.3236ZM 34.1529 42.0088C 34.1529 42.7976 33.4952 43.4552 32.7045 43.4552C 31.9156 43.4552 31.2561 42.7976 31.2561 42.0088C 31.2561 41.2198 31.9156 40.5624 32.7045 40.5624C 33.4952 40.5624 34.1529 41.2198 34.1529 42.0088ZM 27.3061 42.0088C 27.3061 42.6662 26.7796 43.1922 26.1219 43.1922C 26.0087 43.1922 25.9008 43.1767 25.7984 43.148C 25.2988 43.0086 24.9358 42.5539 24.9358 42.0088C 24.9358 41.6844 25.0652 41.3918 25.2755 41.1788C 25.4102 41.0413 25.5792 40.9369 25.7678 40.8783L 25.8577 40.8548L 25.9547 40.8369L 26.041 40.8279L 26.1219 40.8254C 26.7796 40.8254 27.3061 41.3514 27.3061 42.0088ZM 22.2366 17.1584C 22.2061 17.3124 22.1899 17.4665 22.1755 17.6138C 22.1576 17.7808 22.1414 17.9391 22.1054 18.0788C 20.197 19.7225 18.4844 21.6289 16.9712 23.667L 17.0809 22.9242L 17.2192 22.0762L 17.363 21.2704C 17.5175 20.4426 17.6865 19.6429 17.8698 18.8703C 18.1843 17.5431 18.5437 16.2954 18.9462 15.1206C 20.1305 12.1621 22.632 10.7816 23.7515 10.3213C 23.0273 12.6224 22.4343 14.9889 22.2366 17.1584ZM 26.8461 1.18338C 26.2531 2.56385 25.0023 5.851 23.8827 9.53255C 23.3562 9.72963 21.5142 10.3872 19.9328 12.0964C 19.9939 11.9271 20.0604 11.7614 20.1287 11.5993C 20.2024 11.4258 20.2778 11.2563 20.3551 11.091C 20.5168 10.7514 20.6858 10.4292 20.8547 10.1242L 20.8547 10.0585C 22.1719 7.36308 23.5539 5.25931 24.8711 3.74723C 24.9358 3.68154 24.952 3.5997 24.9376 3.51764C 24.9268 3.46585 24.9035 3.41383 24.8711 3.36608L 24.846 3.33334L 24.8046 3.28715C 24.6734 3.15554 24.4758 3.22124 24.3446 3.35285C 23.3562 4.53623 22.3031 6.04831 21.25 7.88908C 21.2213 7.36331 21.1135 6.88932 20.9859 6.49045L 20.896 6.22902C 20.8331 6.05705 20.7684 5.90325 20.7091 5.76984C 20.639 5.61469 20.5743 5.48711 20.5258 5.3907C 22.1719 3.68154 24.2116 2.30085 26.8461 1.18338ZM 20.1305 5.78531C 20.4593 6.4427 21.0524 7.95477 20.3281 9.72963C 19.7351 10.913 19.2086 12.228 18.682 13.6742C 18.6173 12.7361 18.3945 11.9255 18.1447 11.289C 17.8859 10.6321 17.5984 10.1608 17.4313 9.92693C 18.0908 8.48055 18.9462 7.10008 20.1305 5.78531ZM 17.1024 10.7159C 17.629 11.6363 18.4197 13.7399 17.7602 16.3696C 17.1689 18.3418 16.7071 20.5112 16.3117 22.9437C 15.8517 20.4456 15.2586 15.5149 17.1024 10.7159ZM 8.87369 17.1584C 9.33374 17.9474 10.2556 19.7225 10.1909 22.5493C 10.1244 23.2067 10.1244 23.9957 10.1244 24.7845C 9.33374 23.141 8.08299 22.2206 7.55645 21.8919C 7.61755 21.1635 7.74874 20.435 7.94282 19.7066C 8.17104 18.8572 8.48373 18.0079 8.87369 17.1584ZM 7.49176 22.615C 8.34716 23.2067 9.99326 24.7188 10.058 27.4143C 10.058 29.4521 10.1909 31.8189 10.3868 34.5143C 9.26905 32.4763 7.0964 27.8743 7.49176 22.615ZM 10.4533 19.2622C 10.058 17.7501 9.46672 16.8297 9.20256 16.4353C 10.1909 14.4632 11.7041 12.5567 13.8767 10.65C 13.7455 12.0964 13.4814 15.3179 13.5478 19.3281C 13.2963 19.5368 12.6206 20.1702 11.9233 21.0935C 11.5244 21.6233 11.1182 22.2484 10.7822 22.9437C 11.1398 17.0041 12.2486 14.7136 12.4588 14.2782C 12.4822 14.2318 12.4948 14.2064 12.4948 14.2002C 12.572 14.1235 12.581 14.0244 12.5487 13.9291L 12.5163 13.858L 12.4804 13.7999L 12.4283 13.7399C 12.2971 13.6085 12.0994 13.6742 11.9682 13.8058C 11.9017 13.9372 10.9798 15.3179 10.4533 19.2622ZM 11.3752 35.6975L 11.1775 35.6975C 11.0679 34.4724 10.9798 33.3128 10.9116 32.2164C 10.8433 31.1169 10.7948 30.081 10.7624 29.1059C 10.7319 28.1313 10.7175 27.2174 10.7175 26.3623C 10.7175 23.6011 12.626 21.3659 13.5478 20.3799C 13.5478 22.7466 13.679 25.4419 14.0079 28.1373C 14.0079 28.2687 14.0079 28.4003 14.0744 28.5317C 13.3717 29.8176 12.7625 31.196 12.2594 32.6393C 12.0958 33.1085 11.9431 33.5848 11.8011 34.067C 11.6448 34.6036 11.5028 35.1475 11.3752 35.6975ZM 13.0213 56.0117C 14.1409 58.7728 15.654 61.3367 17.4313 63.6377C 15.061 62.4544 12.9548 61.0737 11.111 59.6275C 8.74251 57.458 8.08299 54.3025 7.88531 52.9218C 10.7822 55.0913 12.4283 55.8144 13.0213 56.0117ZM 1.69804 53.8422C 0.578472 50.7524 0.578472 47.9255 0.644963 46.6764C 3.27765 49.2403 5.4503 51.081 7.22759 52.4617C 7.22759 52.7176 7.26533 53.2931 7.40909 54.0449C 7.59599 55.0314 7.96618 56.3211 8.67602 57.5894C 4.26604 53.5135 2.0269 49.7006 2.0269 49.6347C 1.96041 49.5033 1.76273 49.4376 1.56685 49.5033C 1.43387 49.569 1.36918 49.7663 1.43387 49.9636C 1.43387 50.0293 2.55344 51.87 4.65959 54.3682C 4.12047 54.1413 3.59394 54 3.1267 53.918C 2.51031 53.8099 1.99815 53.8048 1.69804 53.8422ZM 4.33073 58.3784L 4.13305 58.1811C 3.91381 57.9168 3.70895 57.6493 3.51846 57.3791C 3.29383 57.0578 3.08717 56.7329 2.89847 56.4058C 2.53367 55.7762 2.22997 55.1379 1.96041 54.4996C 2.81761 54.4996 4.65959 54.6969 5.97684 55.946C 6.04333 56.0117 6.10802 56.0117 6.17451 56.0117C 7.1611 56.9977 8.28067 58.1154 9.53142 59.1672C 7.49176 58.6414 4.98845 58.3784 4.33073 58.3784ZM 4.98845 59.1015C 6.56987 59.2988 9.92677 59.6932 11.111 60.5479L 11.3986 60.7609L 11.6933 60.9667L 11.8227 61.0508L 11.9682 61.1396C 13.8102 62.5201 15.9829 63.7691 18.2867 64.8211L 18.3532 64.8868C 12.5595 64.2294 8.01829 62.2571 4.98845 59.1015ZM 21.9078 68.5024C 24.0157 70.3432 26.3842 71.9869 28.9522 73.236C 26.8461 73.1703 24.7399 72.9073 22.6985 72.6443C 18.7485 71.9212 17.3001 69.5544 16.8401 68.5684C 19.0109 68.6341 20.657 68.5684 21.9078 68.5024ZM 16.247 68.5684C 16.5094 69.1601 17.3001 70.8692 19.3416 72.0526C 13.4814 71.0008 9.00488 69.6201 8.94019 69.5544C 8.74251 69.4887 8.60953 69.6201 8.54483 69.7517C 8.47834 69.9488 8.60953 70.0804 8.74251 70.1461C 8.75509 70.1461 8.8719 70.1802 9.08036 70.2414C 9.5422 70.3773 10.4587 70.6468 11.7113 70.9717C 12.6044 71.2035 13.67 71.4636 14.8651 71.7239C 13.219 71.9869 11.8352 72.5786 11.3087 72.7757C 8.01829 71.0665 6.17451 68.7654 5.51679 67.7137C 6.87537 67.9045 8.17284 68.0545 9.40562 68.1722C 10.4084 68.2679 11.368 68.3424 12.2809 68.4L 12.5846 68.4188C 13.9073 68.4982 15.1311 68.543 16.247 68.5684ZM 17.629 75.1424C 15.4563 74.7481 13.6125 74.0907 12.0329 73.3674C 13.1525 72.9073 15.5875 72.1183 17.629 72.5127L 18.4502 72.6748L 18.8348 72.7481L 19.6093 72.8911C 20.3156 73.0174 21.038 73.1353 21.7766 73.236C 19.2086 73.6304 18.0243 74.6821 17.629 75.1424ZM 18.4197 75.2738C 19.2751 74.5508 21.5789 73.236 26.6484 73.7618C 27.1102 73.8104 27.5721 73.8501 28.0339 73.8806C 28.8228 73.9328 29.6118 73.9591 30.4007 73.9591C 30.46 73.9884 30.5318 74.018 30.6037 74.0476L 30.6576 74.0678C 30.7295 74.0974 30.8014 74.127 30.8607 74.1564C 25.9242 75.5368 21.7766 75.7341 18.4197 75.2738ZM 15.5875 45.8217L 17.8931 45.8217C 19.2751 45.8217 20.4593 45.1643 21.1835 44.1126L 36.5897 44.1126C 36.9186 47.2024 39.1559 49.7663 42.1193 50.555L 42.1193 66.9247C 41.8246 67.072 41.5496 67.2585 41.2998 67.4774C 41.0015 67.7397 40.7391 68.0482 40.5253 68.3903C 40.1192 69.0376 39.8801 69.8049 39.8801 70.6062L 39.8801 71.4609C 26.8461 69.6201 16.7736 59.0358 15.5875 45.8217ZM 34.6795 75.4711C 36.2591 75.9314 37.8405 76.2601 39.5513 76.4572C 38.234 77.5749 36.7856 78.561 35.339 79.4157C 34.9185 79.6551 34.4135 79.8332 33.8654 79.9632C 33.4934 80.0518 33.0998 80.1179 32.6991 80.1659C 31.1051 80.3574 29.4015 80.2605 28.4257 80.1388C 31.0584 78.3637 33.2975 76.5888 34.6795 75.4711ZM 27.2414 85.6611C 24.0157 86.0555 21.4477 85.4638 20.2617 85.0694C 21.9203 84.2205 23.5503 83.2891 25.0832 82.3286L 25.7894 81.8795C 26.3806 81.4986 26.9521 81.1145 27.5038 80.7305C 27.8992 80.7961 29.1499 80.9278 30.5983 80.9278C 31.2561 80.9278 32.0468 80.9278 32.771 80.7961C 32.2444 81.0591 31.7826 81.3221 31.3226 81.5194C 31.1752 81.5562 31.0476 81.6136 30.929 81.6802C 30.8373 81.7324 30.7511 81.7903 30.6648 81.8481C 29.8867 82.2008 29.1463 82.5143 28.4616 82.7887L 27.6817 83.0945L 26.9755 83.3593C 25.2862 83.9786 24.1864 84.2806 24.1469 84.2806L 24.0768 84.3084C 24.0229 84.3353 23.9834 84.3694 23.9582 84.4106C 23.9384 84.4445 23.9277 84.4833 23.9259 84.527C 23.9223 84.5714 23.9313 84.6207 23.9492 84.675C 24.0157 84.8064 24.1469 84.938 24.2781 84.938L 24.3446 84.938C 24.4093 84.938 26.1866 84.412 28.821 83.3602C 28.4652 83.7156 28.1777 84.0808 27.9477 84.418C 27.6242 84.8936 27.4157 85.3135 27.2864 85.5709L 27.2414 85.6611ZM 32.7045 84.0833C 31.0584 84.8064 29.4788 85.2667 28.0303 85.5297C 28.4257 84.7407 29.4141 83.2286 30.9272 82.3739C 31.1249 82.3082 31.3226 82.1768 31.5202 82.1109L 31.5418 82.1085C 31.5526 82.1058 31.5598 82.1011 31.567 82.0954L 31.5849 82.0786C 31.6011 82.062 31.6173 82.0452 31.6514 82.0452C 31.6514 82.0452 31.6748 82.0452 31.6945 82.0304C 31.7071 82.021 31.7179 82.0053 31.7179 81.9795C 32.7045 81.5194 33.7576 80.9935 34.8106 80.4018C 33.869 81.4925 33.3371 82.3681 33.0423 83.0161C 32.8213 83.5008 32.7332 83.8582 32.7045 84.0833ZM 33.4952 83.7546C 33.8241 82.8342 34.8106 80.9278 38.234 78.3637C 39.0247 77.8379 39.749 77.2462 40.4732 76.5888C 40.8685 76.6545 41.2639 76.6545 41.5927 76.6545C 38.8936 80.1388 36.1279 82.3739 33.4952 83.7546ZM 41.0662 89.1453L 36.2591 88.4879L 42.6458 76.7202L 42.9747 76.7202L 43.6989 79.35L 41.0662 89.1453ZM 43.6324 76.7859L 44.2919 76.7859L 43.9631 78.1009L 43.6324 76.7859ZM 51.73 88.4879L 46.9246 89.1453L 44.3566 79.35L 45.0808 76.7202L 45.4097 76.7202L 51.73 88.4879ZM 46.3981 76.7202C 46.7934 76.7202 47.1888 76.6545 47.5176 76.6545C 48.2419 77.2462 48.9661 77.8379 49.755 78.4296C 53.1137 80.9278 54.1668 82.8342 54.4956 83.8203C 51.7964 82.3739 49.0308 80.1388 46.3981 76.7202ZM 55.2198 84.0833C 55.1533 83.5573 54.758 82.2425 53.1137 80.4675C 54.1668 81.0591 55.2198 81.5851 56.2064 82.0452L 56.2729 82.1109C 56.3071 82.1109 56.3232 82.1277 56.3394 82.1443C 56.3556 82.1607 56.3718 82.1768 56.4041 82.1768C 56.6018 82.2425 56.7995 82.3739 56.9971 82.4398C 58.5767 83.2943 59.4986 84.7407 59.9587 85.5954C 58.4456 85.3324 56.8659 84.8721 55.2198 84.0833ZM 66.8899 85.3559C 65.5278 85.6918 63.3264 85.996 60.6829 85.7268L 60.6595 85.6792C 60.5966 85.5501 60.5086 85.3721 60.3954 85.1613C 60.1366 84.684 59.7412 84.0403 59.1698 83.4259C 60.1096 83.8107 60.9525 84.125 61.6461 84.3689C 62.8484 84.792 63.6049 85.0037 63.6462 85.0037L 63.7127 85.0037C 63.7415 85.0037 63.7702 85.0003 63.799 84.9929C 63.8295 84.9851 63.8583 84.9725 63.8871 84.9546L 63.9356 84.916C 63.9643 84.8889 63.9895 84.8544 64.011 84.8113L 64.0416 84.7407C 64.0704 84.6528 64.0596 84.5779 64.0272 84.516C 63.9877 84.4393 63.9158 84.3826 63.8439 84.3463C 63.7774 84.3463 60.9471 83.5573 57.326 81.9138C 57.2272 81.8484 57.1121 81.7993 56.9971 81.7502L 56.8911 81.7038L 56.7761 81.6481L 56.6683 81.5851C 56.2064 81.3878 55.6799 81.1248 55.2198 80.8618C 55.9441 80.9278 56.6683 80.9935 57.3925 80.9935C 58.8409 80.9935 60.0917 80.8618 60.487 80.7961C 62.6579 82.2425 65.0947 83.7546 67.6627 85.1351C 67.4488 85.2064 67.19 85.2819 66.8899 85.3559ZM 59.5651 80.2045C 57.919 80.3361 54.4291 80.4675 52.5871 79.4157C 51.1387 78.561 49.6903 77.5749 48.373 76.4572C 50.0192 76.2601 51.6653 75.9314 53.2449 75.4711C 54.6268 76.5888 56.8659 78.3637 59.5651 80.2045ZM 56.9971 74.1564C 57.1283 74.0907 57.326 74.0248 57.4572 73.9591C 58.7079 73.9591 59.9587 73.8934 61.2112 73.7618C 66.2789 73.236 68.5828 74.5508 69.44 75.2738C 66.1478 75.7341 62.0001 75.5368 56.9971 74.1564ZM 70.3619 75.1424C 69.9665 74.6821 68.7804 73.6304 66.1478 73.1703C 67.5962 72.973 68.9781 72.71 70.2954 72.447C 72.3368 72.0526 74.7718 72.8416 75.8914 73.3017C 74.3765 74.0907 72.5327 74.7481 70.3619 75.1424ZM 82.474 67.7137C 81.7498 68.7654 79.9725 71.0665 76.6803 72.9073L 76.4467 72.7983L 76.2939 72.7335L 76.0442 72.6342L 75.7225 72.5158C 75.417 72.408 75.0648 72.2956 74.6748 72.1898C 74.204 72.062 73.6792 71.9439 73.1257 71.8553C 76.7468 71.0008 79.1818 70.2775 79.2483 70.2775C 79.3471 70.2446 79.4136 70.1786 79.446 70.1047C 79.4783 70.0307 79.4783 69.9488 79.446 69.8831C 79.3795 69.6858 79.1818 69.6201 79.0506 69.6858L 78.9698 69.7065L 78.7164 69.7782C 77.5717 70.1053 73.6037 71.2387 68.6493 72.184C 70.7554 70.9349 71.5461 69.2914 71.7438 68.6998L 72.8023 68.6291L 72.8184 68.6278L 72.8562 68.6251C 73.8625 68.5589 74.9479 68.4872 76.1017 68.3962C 77.0972 68.3177 78.1449 68.2251 79.2429 68.1094C 80.0803 68.0211 80.9465 67.9193 81.8415 67.8002L 82.474 67.7137ZM 71.0196 68.5684C 70.5577 69.5544 69.0446 71.9212 65.1612 72.6443C 63.1197 72.9073 61.0782 73.1703 58.9721 73.236C 61.5401 71.9212 63.9086 70.3432 66.0166 68.5024C 66.4874 68.5273 67.0139 68.552 67.5998 68.5697C 68.572 68.5991 69.7059 68.6094 71.0196 68.5684ZM 48.1089 71.4609L 48.1089 70.6062C 48.1089 69.0284 47.1888 67.5823 45.8715 66.9247L 45.8715 50.555C 48.8331 49.7663 51.0722 47.2681 51.4011 44.1126L 66.8055 44.1126C 67.5297 45.1643 68.7157 45.8217 70.0977 45.8217L 72.4015 45.8217C 71.2173 59.0358 61.0782 69.6201 48.1089 71.4609ZM 69.5711 64.9525L 69.6376 64.8868C 72.0062 63.8348 74.1141 62.5201 75.9561 61.2053C 76.2868 61.008 76.5491 60.8109 76.8133 60.6136C 77.9976 59.7589 81.3545 59.2988 82.9359 59.1672C 79.906 62.2571 75.4296 64.2294 69.5711 64.9525ZM 83.7913 58.1154L 83.5936 58.3127L 83.3797 58.3331C 82.5028 58.4159 80.2601 58.6271 78.4576 59.1672C 79.694 58.1284 80.7992 57.0255 81.7786 56.0487L 81.8163 56.0117C 81.881 56.0117 81.9475 56.0117 82.014 55.946C 83.3294 54.6969 85.1732 54.4996 86.0286 54.4996C 85.5021 55.683 84.7779 56.932 83.7913 58.1154ZM 86.2263 53.8422C 85.6998 53.8422 84.5155 53.9079 83.2647 54.3682C 85.4374 51.87 86.4905 49.9636 86.4905 49.9636C 86.5246 49.8959 86.5408 49.8107 86.521 49.7261C 86.503 49.6463 86.4527 49.5669 86.3575 49.5033C 86.2263 49.4376 86.0286 49.4376 85.8974 49.6347L 85.8076 49.7737C 85.3529 50.4988 83.2 53.9386 79.2483 57.5894C 80.145 55.9866 80.5009 54.3498 80.6302 53.3339C 80.6806 52.9332 80.6967 52.629 80.6967 52.4617C 82.474 51.081 84.6467 49.2403 87.2794 46.6764C 87.4123 47.9255 87.4123 50.7524 86.2263 53.8422Z"/>
<path id="path1_fill" d="M 116.313 16.3696L 116.313 7.49447L 115.455 7.49447L 115.455 11.439L 110.452 11.439L 110.452 7.49447L 109.597 7.49447L 109.597 16.3696L 110.452 16.3696L 110.452 12.2278L 115.455 12.2278L 115.455 16.3696L 116.313 16.3696Z"/>
<path id="path2_fill" d="M 126.648 16.3696L 125.792 16.3696L 125.792 9.33524L 119.472 16.8956L 119.472 7.49447L 120.327 7.49447L 120.327 14.5946L 126.648 7.03439L 126.648 16.3696Z"/>
<path id="path3_fill" d="M 129.544 16.3696L 133.43 12.3594L 133.89 12.7538L 133.89 16.3696L 134.745 16.3696L 134.745 12.7538L 135.14 12.3594L 139.026 16.3696L 140.21 16.3696L 135.733 11.7677L 139.881 7.49447L 138.762 7.49447L 134.745 11.702L 134.745 7.49447L 133.89 7.49447L 133.89 11.702L 129.875 7.49447L 128.755 7.49447L 132.837 11.7677L 128.36 16.3696L 129.544 16.3696Z"/>
<path id="path4_fill" fill-rule="evenodd" d="M 149.427 14.2002C 148.901 15.2522 147.714 16.6326 145.542 16.6326C 142.778 16.6326 141.132 14.5948 141.132 11.965C 141.132 8.87516 143.238 7.29739 145.411 7.29739C 147.847 7.29739 149.625 9.20385 149.625 12.0307L 142.054 12.0307C 142.054 14.3318 143.765 15.7779 145.608 15.7779C 147.057 15.7779 148.11 14.9235 148.703 13.7401L 149.427 14.2002ZM 148.768 11.2419C 148.572 9.46685 147.254 8.15208 145.477 8.15208C 143.633 8.15208 142.383 9.53255 142.185 11.2419L 148.768 11.2419Z"/>
<path id="path5_fill" d="M 153.046 8.34916L 156.996 8.34916L 156.996 7.49447L 152.191 7.49447L 152.191 16.3696L 153.046 16.3696L 153.046 8.34916Z"/>
<path id="path6_fill" fill-rule="evenodd" d="M 166.806 11.965C 166.806 14.5948 164.765 16.6326 162.132 16.6326C 159.5 16.6326 157.525 14.5948 157.458 11.965C 157.458 9.33546 159.5 7.29739 162.132 7.29739C 164.765 7.29739 166.806 9.33546 166.806 11.965ZM 165.885 11.965C 165.885 9.79554 164.238 8.15208 162.132 8.15208C 160.026 8.15208 158.38 9.79554 158.38 11.965C 158.38 14.1345 159.96 15.7779 162.132 15.7779C 164.305 15.7779 165.885 14.1345 165.885 11.965Z"/>
<path id="path7_fill" fill-rule="evenodd" d="M 170.23 14.7919C 170.494 15.2522 171.481 16.6326 173.653 16.6326C 176.352 16.6326 177.998 14.5289 177.998 11.8993C 177.998 9.33524 176.352 7.36308 173.72 7.36308C 172.338 7.36308 171.085 7.95477 170.23 9.07246L 170.23 7.56039L 169.374 7.56039L 169.374 21.4319L 170.23 21.4319L 170.23 14.7919ZM 173.653 8.15208C 175.497 8.15208 177.077 9.46685 177.077 11.8993C 177.077 14.0688 175.892 15.7779 173.589 15.7779C 171.349 15.7779 170.099 14.0688 170.099 11.8334C 170.165 9.40116 171.942 8.15208 173.653 8.15208Z"/>
<path id="path8_fill" fill-rule="evenodd" d="M 189.32 11.965C 189.32 14.5948 187.278 16.6326 184.646 16.6326C 182.013 16.6326 180.038 14.5948 179.972 11.965C 179.972 9.33546 182.013 7.29739 184.646 7.29739C 187.278 7.29739 189.32 9.33546 189.32 11.965ZM 188.398 11.965C 188.398 9.79554 186.752 8.15208 184.646 8.15208C 182.54 8.15208 180.894 9.79554 180.894 11.965C 180.894 14.1345 182.473 15.7779 184.646 15.7779C 186.818 15.7779 188.398 14.1345 188.398 11.965Z"/>
<path id="path9_fill" fill-rule="evenodd" d="M 191.295 16.3696L 198.799 16.3696L 198.799 18.7362L 199.657 18.7362L 199.657 15.5806L 198.339 15.5806L 198.339 7.49447L 192.481 7.49447L 192.481 11.9648C 192.481 12.2527 192.474 12.5343 192.456 12.8033C 192.44 13.0266 192.414 13.2412 192.379 13.4439C 192.319 13.7775 192.226 14.0786 192.086 14.3316C 191.917 14.6688 191.64 15.0329 191.237 15.2681C 191.092 15.3526 190.932 15.4205 190.754 15.4647C 190.653 15.4894 190.549 15.5064 190.44 15.5149L 190.44 18.7362L 191.295 18.7362L 191.295 16.3696ZM 193.336 12.2278L 193.336 8.34916L 197.418 8.34916L 197.418 15.5806L 192.217 15.5806C 192.81 15.0546 193.336 14.2002 193.336 12.2278Z"/>
<path id="path10_fill" d="M 206.352 16.5501C 206.072 16.6026 205.772 16.6326 205.45 16.6326C 202.751 16.6326 200.907 14.6605 200.907 11.965C 200.907 9.33546 202.685 7.29739 205.515 7.29739C 206.175 7.29739 207.425 7.36308 208.61 8.41508L 208.61 9.59824C 208.017 8.94085 206.963 8.15208 205.515 8.15208C 203.342 8.15208 201.829 9.79554 201.829 11.965C 201.829 14.5289 203.738 15.7779 205.45 15.7779C 206.899 15.7779 207.952 14.9892 208.676 14.2002L 208.676 15.3835C 208.203 15.8022 207.441 16.3456 206.352 16.5501Z"/>
<path id="path11_fill" d="M 211.968 12.7538L 212.428 12.2937L 216.707 16.3696L 217.96 16.3696L 213.088 11.702L 217.564 7.49447L 216.445 7.49447L 211.968 11.702L 211.968 7.49447L 211.046 7.49447L 211.046 16.3696L 211.968 16.3696L 211.968 12.7538Z"/>
<path id="path12_fill" fill-rule="evenodd" d="M 227.306 16.3696L 226.449 16.3696L 226.449 14.7262C 225.529 16.1066 224.145 16.5669 222.961 16.5669C 220.591 16.5669 218.616 14.7919 218.616 11.8993C 218.616 9.20385 220.393 7.29739 222.961 7.29739C 224.409 7.29739 225.594 7.82339 226.449 9.00677L 226.449 7.49469L 227.306 7.49469L 227.306 16.3696ZM 219.537 11.8993C 219.537 13.8715 220.788 15.7779 223.026 15.7779C 225.265 15.7779 226.449 13.9372 226.515 11.8993C 226.515 9.26955 224.541 8.15208 223.026 8.15208C 221.248 8.15208 219.537 9.46685 219.537 11.8993Z"/>
<path id="path13_fill" fill-rule="evenodd" d="M 230.532 16.3696L 233.296 12.5565L 234.811 12.5565L 234.811 16.3696L 235.666 16.3696L 235.666 7.49447L 232.705 7.49447C 232.045 7.49447 231.256 7.56016 230.597 8.15186C 229.872 8.74355 229.808 9.53255 229.808 10.1242C 229.808 10.65 229.939 11.3074 230.532 11.8991C 230.992 12.2937 231.651 12.5565 232.243 12.5565L 229.412 16.4353L 230.532 16.4353L 230.532 16.3696ZM 231.321 11.3074C 231.139 11.1713 230.927 10.9408 230.812 10.5946L 230.769 10.437L 230.748 10.3157C 230.737 10.2348 230.73 10.1491 230.73 10.0583C 230.73 9.33524 231.058 8.94085 231.321 8.74355C 231.531 8.56866 231.797 8.46822 232.059 8.41261C 232.173 8.38862 232.286 8.37293 232.394 8.36306C 232.505 8.35297 232.611 8.34916 232.705 8.34916L 234.811 8.34916L 234.811 11.7677L 232.705 11.7677L 232.624 11.7563C 232.176 11.6937 231.634 11.6175 231.321 11.3074Z"/>
<path id="path14_fill" fill-rule="evenodd" d="M 133.496 31.7532C 130.863 31.7532 128.822 29.7153 128.822 27.0856C 128.822 24.456 130.863 22.4179 133.496 22.4179C 136.129 22.4179 138.17 24.456 138.17 27.0856C 138.17 29.7153 136.129 31.7532 133.496 31.7532ZM 133.43 30.8985C 135.602 30.8985 137.182 29.255 137.182 27.0856C 137.182 24.9161 135.602 23.2726 133.43 23.2726C 131.257 23.2726 129.677 24.9161 129.677 27.0856C 129.677 29.255 131.323 30.8985 133.43 30.8985Z"/>
<path id="path15_fill" fill-rule="evenodd" d="M 143.042 19.7882C 144.029 18.9992 145.279 18.7362 146.135 18.6048L 146.162 18.5981L 146.618 18.4877L 146.974 18.3911C 147.111 18.3508 147.249 18.3064 147.386 18.2561L 147.547 18.1927L 147.752 18.105C 147.927 18.0248 148.095 17.9324 148.257 17.8241C 148.705 17.5261 149.096 17.1093 149.361 16.501L 148.243 16.501C 148.045 17.027 147.583 17.3557 146.268 17.6844L 146.137 17.7073C 145.051 17.8976 143.856 18.107 142.844 18.8019C 140.343 20.4456 140.079 23.9955 140.079 25.9679C 140.079 27.151 140.145 29.3205 141.594 30.7012C 142.185 31.2272 143.173 31.8189 144.686 31.8189C 147.321 31.8189 149.361 30.0438 149.361 27.151C 149.361 24.3901 147.583 22.5493 144.884 22.5493C 143.371 22.5493 141.658 23.2067 141.001 24.8502L 140.934 24.8502C 141.067 23.1408 141.594 20.9713 143.042 19.7882ZM 144.951 23.2724C 147.254 23.2724 148.505 25.1789 148.505 27.0853C 148.505 28.8604 147.452 30.8985 144.753 30.8985C 143.897 30.8985 142.844 30.7012 141.987 29.6494C 141.795 29.4097 141.63 29.1263 141.497 28.8185C 141.265 28.2817 141.132 27.6703 141.132 27.0853C 141.132 25.2446 142.449 23.2724 144.951 23.2724Z"/>
<path id="path16_fill" d="M 153.131 29.8898C 153.055 30.1989 152.93 30.5039 152.719 30.7669C 152.455 31.1615 151.862 31.5559 150.94 31.5559C 150.832 31.5559 150.744 31.5359 150.663 31.518L 150.561 31.4967L 150.48 31.4902L 150.48 30.6355C 150.611 30.7012 150.678 30.7012 150.809 30.7012C 151.021 30.7012 151.208 30.6593 151.37 30.5931C 151.659 30.4745 151.867 30.2785 151.995 30.1095C 152.324 29.7151 152.324 29.1234 152.324 28.5974L 152.324 22.615L 158.182 22.615L 158.182 31.4902L 157.327 31.4902L 157.327 23.4697L 153.246 23.4697L 153.246 28.5974C 153.246 28.9523 153.246 29.4259 153.131 29.8898Z"/>
<path id="path17_fill" fill-rule="evenodd" d="M 160.749 27.0856C 160.749 29.9781 162.723 31.7532 165.094 31.7532C 166.278 31.7532 167.662 31.2931 168.582 29.9124L 168.582 31.4902L 169.439 31.4902L 169.439 22.6152L 168.582 22.6152L 168.582 24.1273C 167.726 22.9439 166.542 22.4179 165.094 22.4179C 162.526 22.4179 160.749 24.3244 160.749 27.0856ZM 168.582 27.0199C 168.582 29.0577 167.398 30.8985 165.159 30.8985C 162.921 30.8985 161.67 28.992 161.67 27.0199C 161.67 24.5874 163.381 23.2726 165.159 23.2726C 166.673 23.2726 168.582 24.3901 168.582 27.0199Z"/>
<path id="path18_fill" d="M 179.709 24.7188C 179.116 24.0614 178.063 23.2726 176.615 23.2726C 174.442 23.2726 172.929 24.9161 172.929 27.0199C 172.929 29.5837 174.837 30.8328 176.55 30.8328C 177.075 30.8328 177.547 30.7294 177.972 30.5599C 178.717 30.2615 179.314 29.7584 179.776 29.255L 179.776 30.4384C 179.183 30.9644 178.13 31.6875 176.55 31.6875C 173.851 31.6875 172.007 29.7153 172.007 27.0856C 172.007 24.456 173.784 22.4179 176.615 22.4179C 177.274 22.4179 178.525 22.4836 179.709 23.5356L 179.709 24.7188Z"/>
<path id="path19_fill" d="M 184.712 31.4902L 184.712 23.4697L 187.807 23.4697L 187.807 22.615L 180.762 22.615L 180.762 23.4697L 183.857 23.4697L 183.857 31.4902L 184.712 31.4902Z"/>
<path id="path20_fill" d="M 195.443 27.3483L 190.44 27.3483L 190.44 31.4902L 189.584 31.4902L 189.584 22.615L 190.44 22.615L 190.44 26.5596L 195.443 26.5596L 195.443 22.615L 196.3 22.615L 196.3 31.4902L 195.443 31.4902L 195.443 27.3483Z"/>
<path id="path21_fill" fill-rule="evenodd" d="M 203.213 31.7532C 204.397 31.7532 205.781 31.2931 206.701 29.9124L 206.701 31.4902L 207.558 31.4902L 207.558 22.6152L 206.701 22.6152L 206.701 24.1273C 205.846 22.9439 204.661 22.4179 203.213 22.4179C 200.645 22.4179 198.868 24.3244 198.868 27.0199C 198.868 29.9781 200.843 31.7532 203.213 31.7532ZM 203.213 23.2726C 204.726 23.2726 206.701 24.3901 206.701 27.0199C 206.701 29.0577 205.517 30.8985 203.278 30.8985C 201.04 30.8985 199.79 28.992 199.79 27.0199C 199.79 24.5874 201.5 23.2726 203.213 23.2726Z"/>
<path id="path22_fill" fill-rule="evenodd" d="M 213.48 27.677L 210.716 31.4902L 210.716 31.5559L 209.596 31.5559L 212.427 27.677C 211.835 27.677 211.176 27.4143 210.716 27.0196C 210.123 26.4279 209.992 25.7706 209.992 25.2448C 209.992 24.6531 210.056 23.8641 210.78 23.2724C 211.052 23.0291 211.345 22.8749 211.641 22.7776C 211.726 22.75 211.81 22.7269 211.895 22.7076C 212.069 22.6679 212.243 22.6446 212.412 22.6314L 212.642 22.6188L 212.888 22.615L 215.85 22.615L 215.85 31.4902L 214.995 31.4902L 214.995 27.677L 213.48 27.677ZM 210.913 25.1789C 210.913 25.8363 211.242 26.2309 211.505 26.4279C 211.862 26.7253 212.38 26.8075 212.77 26.8692L 212.888 26.8883L 214.995 26.8883L 214.995 23.4697L 212.888 23.4697C 212.77 23.4697 212.631 23.4758 212.486 23.4933L 212.367 23.5098L 212.188 23.5457L 212.076 23.5755L 211.984 23.6042C 211.911 23.6291 211.841 23.6583 211.772 23.6926C 211.727 23.715 211.683 23.7397 211.639 23.7668C 211.593 23.7964 211.548 23.8287 211.505 23.8641C 211.242 24.0614 210.913 24.4558 210.913 25.1789Z"/>
<path id="path23_fill" fill-rule="evenodd" d="M 127.965 45.6247C 129.149 46.6764 130.664 46.808 131.584 46.808L 131.584 51.6727L 132.441 51.6727L 132.441 46.808C 133.297 46.808 134.81 46.6764 136.061 45.6247C 137.049 44.77 137.575 43.6523 137.575 42.2061C 137.575 40.5624 136.918 39.445 136.061 38.7216C 135.272 38.0643 134.152 37.6042 132.441 37.6042L 132.441 32.0819L 131.584 32.0819L 131.584 37.6042C 129.94 37.6042 128.754 38.0643 127.965 38.7216C 127.108 39.445 126.45 40.4967 126.45 42.2061C 126.45 43.6523 126.91 44.77 127.965 45.6247ZM 132.375 38.4589C 133.494 38.4589 134.614 38.7216 135.338 39.3793C 135.996 39.905 136.522 40.8254 136.522 42.2061C 136.522 42.9678 136.353 43.5608 136.127 44.015C 135.884 44.5018 135.575 44.8289 135.338 45.033C 134.614 45.6247 133.428 45.9533 132.375 45.9533L 132.375 38.4589ZM 128.556 39.3793C 129.347 38.7216 130.466 38.4589 131.519 38.4589L 131.519 45.9533C 130.466 45.9533 129.28 45.6247 128.556 45.033C 128.34 44.8482 128.067 44.5621 127.837 44.148C 127.693 43.8899 127.568 43.5823 127.483 43.2184C 127.413 42.92 127.372 42.5837 127.372 42.2061C 127.372 40.8254 127.898 39.905 128.556 39.3793Z"/>
<path id="path24_fill" fill-rule="evenodd" d="M 147.057 43.9812L 147.781 44.4413C 147.254 45.4276 146.068 46.8737 143.831 46.808C 141.065 46.808 139.486 44.77 139.486 42.2061C 139.486 39.1163 141.592 37.5385 143.765 37.5385C 146.201 37.5385 147.979 39.445 147.979 42.2718L 140.408 42.2718C 140.408 44.5729 142.118 46.019 143.962 46.019C 144.471 46.019 144.931 45.9134 145.339 45.7253C 146.094 45.378 146.672 44.7487 147.057 43.9812ZM 147.057 41.483C 146.859 39.708 145.542 38.3932 143.765 38.3932C 141.987 38.3932 140.736 39.7736 140.474 41.483L 147.057 41.483Z"/>
<path id="path25_fill" fill-rule="evenodd" d="M 149.163 48.9773L 150.018 48.9773L 150.018 46.6107L 157.523 46.6107L 157.523 48.9773L 158.38 48.9773L 158.38 45.8217L 157.063 45.8217L 157.063 37.7356L 151.204 37.7356L 151.204 42.2059C 151.204 43.1263 151.138 43.981 150.809 44.5727C 150.545 45.0987 150.018 45.6903 149.163 45.756L 149.163 48.9773ZM 152.06 42.4689L 152.06 38.5903L 156.141 38.5903L 156.141 45.8217L 150.94 45.8217C 151.467 45.2957 152.06 44.4413 152.06 42.4689Z"/>
<path id="path26_fill" fill-rule="evenodd" d="M 159.564 42.2061C 159.564 39.1163 161.67 37.5385 163.843 37.5385C 166.28 37.5385 168.057 39.445 167.991 42.2061L 160.42 42.2061C 160.42 44.5072 162.132 45.9533 163.974 45.9533C 165.423 45.9533 166.478 45.0987 167.069 43.9155L 167.793 44.3756C 167.266 45.4276 166.082 46.808 163.91 46.808C 161.144 46.808 159.564 44.77 159.564 42.2061ZM 167.135 41.483C 166.938 39.708 165.62 38.3932 163.843 38.3932C 162.066 38.3932 160.749 39.7736 160.553 41.483L 167.135 41.483Z"/>
<path id="path27_fill" fill-rule="evenodd" d="M 185.634 46.8737C 186.818 46.8737 188.202 46.4136 189.122 45.033L 189.122 46.6107L 189.979 46.6107L 189.979 37.7358L 189.122 37.7358L 189.122 39.2479C 188.267 38.0645 187.083 37.5385 185.634 37.5385C 183.066 37.5385 181.289 39.445 181.289 42.1404C 181.289 45.0987 183.264 46.8737 185.634 46.8737ZM 185.634 38.3932C 187.147 38.3932 189.122 39.5106 189.122 42.1404C 189.122 44.1783 187.938 46.019 185.699 46.019C 183.462 46.019 182.211 44.1126 182.211 42.1404C 182.211 39.708 183.857 38.3932 185.634 38.3932Z"/>
<path id="path28_fill" d="M 200.906 45.8217L 200.906 48.9773L 200.05 48.9773L 200.05 46.6107L 193.072 46.6107L 193.072 37.7356L 193.928 37.7356L 193.928 45.8217L 198.733 45.8217L 198.733 37.7356L 199.59 37.7356L 199.59 45.8217L 200.906 45.8217Z"/>
<path id="path29_fill" d="M 209.86 46.6105L 209.86 37.2753L 203.607 44.8354L 203.607 37.7353L 202.685 37.7353L 202.685 47.1365L 209.005 39.5761L 209.005 46.6105L 209.86 46.6105Z"/>
<path id="path30_fill" fill-rule="evenodd" d="M 217.431 46.6107L 217.431 42.8635L 215.852 42.8635L 213.086 46.6764L 212.033 46.6764L 214.863 42.7976L 214.734 42.7938L 214.628 42.7843C 214.561 42.7769 214.493 42.7666 214.427 42.7536C 214.353 42.7393 214.279 42.7213 214.207 42.7003L 214.132 42.6778C 213.773 42.5639 213.427 42.3756 213.153 42.1402C 212.56 41.5485 212.428 40.8911 212.428 40.3651C 212.428 39.7736 212.493 38.9846 213.217 38.393C 213.352 38.2721 213.492 38.173 213.636 38.0921C 213.744 38.0313 213.853 37.9809 213.963 37.9387C 214.107 37.8833 214.254 37.8427 214.4 37.8131C 214.72 37.7483 215.034 37.7356 215.325 37.7356L 218.287 37.7356L 218.287 46.6107L 217.431 46.6107ZM 213.284 40.2994C 213.284 40.9568 213.613 41.3514 213.877 41.5485C 214.001 41.6521 214.145 41.7294 214.295 41.7891C 214.579 41.9007 214.889 41.9496 215.14 41.9897L 215.259 42.0088L 217.365 42.0088L 217.365 38.5903L 215.259 38.5903L 215.19 38.5909C 215.101 38.5925 215 38.5981 214.897 38.6091L 214.696 38.638C 214.409 38.6896 214.109 38.7918 213.877 38.9846C 213.613 39.182 213.284 39.5763 213.284 40.2994Z"/>
<path id="path31_fill" fill-rule="evenodd" d="M 112.032 54.4339C 111.177 53.2505 109.992 52.7245 108.544 52.7245C 105.976 52.7245 104.199 54.631 104.199 57.3264C 104.199 60.219 106.174 61.9941 108.544 61.9941C 109.728 61.9941 111.112 61.5337 112.032 60.1533L 112.032 61.7311L 112.889 61.7311L 112.889 52.8559L 112.032 52.8559L 112.032 54.4339ZM 108.675 61.1394C 106.438 61.1394 105.187 59.2329 105.187 57.2607C 105.187 54.8283 106.898 53.5135 108.675 53.5135C 110.19 53.5135 112.165 54.631 112.165 57.2607C 112.099 59.2986 110.914 61.1394 108.675 61.1394Z"/>
<path id="path32_fill" fill-rule="evenodd" d="M 121.292 56.3377C 121.21 56.4614 121.111 56.5758 120.998 56.6796L 120.913 56.7522L 120.832 56.8164C 120.777 56.8572 120.719 56.8957 120.658 56.932C 120.791 56.932 121.317 57.0637 121.711 57.458C 122.106 57.7867 122.502 58.3127 122.502 59.2331L 122.496 59.4194C 122.491 59.5037 122.482 59.5847 122.471 59.6627C 122.433 59.9087 122.365 60.1244 122.275 60.3131C 122.097 60.6871 121.839 60.9548 121.58 61.1396C 120.856 61.6654 120 61.7313 119.407 61.7313L 116.05 61.7313L 116.05 52.8561L 118.947 52.8561C 119.071 52.8561 119.206 52.8561 119.35 52.8631C 119.528 52.8716 119.716 52.8909 119.91 52.9344L 120.094 52.9826L 120.178 53.0097C 120.406 53.0877 120.635 53.2052 120.856 53.3821C 121.184 53.6451 121.646 54.1709 121.646 55.0913C 121.646 55.2065 121.639 55.3191 121.625 55.4285C 121.582 55.7664 121.472 56.0735 121.292 56.3377ZM 118.947 53.7108L 116.906 53.7108L 116.906 56.8007L 118.947 56.8007C 119.276 56.8007 119.736 56.735 120.198 56.406C 120.396 56.209 120.724 55.8146 120.724 55.2229C 120.724 54.6312 120.46 54.2366 120.198 54.0395C 120.027 53.8969 119.819 53.8162 119.616 53.7705L 119.499 53.7476L 119.351 53.7276C 119.249 53.7171 119.156 53.7133 119.077 53.7117L 118.947 53.7108ZM 119.474 60.9423C 119.803 60.9423 120.46 60.9423 120.989 60.5479C 121.251 60.2849 121.58 59.8905 121.646 59.2331C 121.646 58.6414 121.449 58.2468 121.053 57.984C 120.593 57.6554 120 57.5894 119.474 57.5894L 116.972 57.5894L 116.972 60.9423L 119.474 60.9423Z"/>
<path id="path33_fill" d="M 123.224 53.7108L 126.319 53.7108L 126.319 61.7313L 127.174 61.7313L 127.174 53.7108L 130.269 53.7108L 130.269 52.8561L 123.224 52.8561L 123.224 53.7108Z"/>
<path id="path34_fill" fill-rule="evenodd" d="M 130.993 57.3264C 130.993 54.6969 133.034 52.6588 135.667 52.6588C 138.3 52.6588 140.341 54.6969 140.341 57.3264C 140.341 59.9562 138.3 61.9941 135.667 61.9941C 133.034 61.9941 130.993 59.9562 130.993 57.3264ZM 131.915 57.3264C 131.915 59.4959 133.561 61.1394 135.667 61.1394C 137.773 61.1394 139.419 59.4959 139.419 57.3264C 139.419 55.157 137.773 53.5135 135.667 53.5135C 133.494 53.5135 131.915 55.157 131.915 57.3264Z"/>
<path id="path35_fill" d="M 147.45 60.3506L 143.896 52.3301L 141.854 61.7311L 142.71 61.7311L 144.158 54.8283L 147.45 62.2571L 150.742 54.8283L 152.189 61.7311L 153.111 61.7311L 151.005 52.3301L 147.45 60.3506Z"/>
<path id="path36_fill" fill-rule="evenodd" d="M 154.561 57.3264C 154.561 54.6969 156.603 52.6588 159.235 52.6588C 161.868 52.6588 163.91 54.6969 163.91 57.3264C 163.91 59.9562 161.868 61.9941 159.235 61.9941C 156.603 61.9941 154.561 59.9562 154.561 57.3264ZM 155.483 57.3264C 155.483 59.4959 157.129 61.1394 159.235 61.1394C 161.408 61.1394 162.988 59.4959 162.988 57.3264C 162.988 55.157 161.408 53.5135 159.235 53.5135C 157.063 53.5135 155.483 55.157 155.483 57.3264Z"/>
<path id="path37_fill" fill-rule="evenodd" d="M 170.756 52.659C 169.243 52.659 167.531 53.3164 166.873 54.9599L 166.806 54.9599C 166.873 53.3821 167.399 51.2127 168.848 50.0293C 169.374 49.5692 170.032 49.3062 170.625 49.1746L 170.625 51.607L 171.481 51.607L 171.481 48.9118C 171.612 48.8459 171.809 48.8459 171.942 48.8459C 172.995 48.5829 174.444 48.3201 175.102 46.8737C 177.67 46.7423 179.249 44.7043 179.249 42.1404C 179.249 39.5763 177.603 37.6042 174.97 37.6042C 174.426 37.6042 173.901 37.6959 173.414 37.8753C 173.087 37.9954 172.776 38.1551 172.487 38.353C 172.113 38.6098 171.773 38.9308 171.481 39.3136L 171.481 37.8015L 170.625 37.8015L 170.625 48.2542C 169.967 48.3858 169.308 48.6488 168.717 49.0432C 166.215 50.6867 165.951 54.2368 165.951 56.209C 165.951 57.3924 166.017 59.5618 167.466 60.9423C 168.057 61.4683 169.046 62.06 170.559 62.06C 173.193 62.06 175.233 60.2849 175.233 57.3924C 175.233 54.5655 173.456 52.659 170.756 52.659ZM 174.904 38.3932C 176.748 38.3932 178.327 39.708 178.327 42.1404C 178.327 44.3099 177.143 46.019 174.839 46.019C 172.6 46.019 171.349 44.3099 171.349 42.0745C 171.481 39.6423 173.193 38.3932 174.904 38.3932ZM 171.481 45.033C 171.678 45.4273 172.469 46.4793 174.049 46.808C 173.851 47.2681 173.391 47.6627 172.074 47.9255C 171.876 47.9914 171.678 47.9914 171.416 48.0571L 171.416 45.033L 171.481 45.033ZM 170.559 61.1396C 169.703 61.1396 168.65 60.9423 167.795 59.8905C 167.268 59.2331 166.939 58.247 166.939 57.3267C 166.939 55.4859 168.255 53.5135 170.756 53.5135C 173.06 53.5135 174.311 55.4202 174.311 57.3267C 174.311 59.0358 173.258 61.1396 170.559 61.1396Z"/>
<path id="path38_fill" d="M 184.976 52.3958L 184.976 61.7311L 184.121 61.7311L 184.121 54.6967L 177.801 62.2571L 177.801 52.8559L 178.656 52.8559L 178.656 59.956L 184.976 52.3958Z"/>
<path id="path39_fill" d="M 194.323 61.7313L 194.323 52.8561L 188.465 52.8561L 188.465 58.8385C 188.465 59.139 188.465 59.4607 188.403 59.7549C 188.357 59.9759 188.276 60.1815 188.136 60.3506C 187.938 60.6136 187.543 60.9423 186.95 60.9423C 186.892 60.9423 186.847 60.9423 186.804 60.9367C 186.748 60.9295 186.694 60.9134 186.621 60.8766L 186.621 61.7313C 186.752 61.7313 186.885 61.797 187.081 61.797C 187.363 61.797 187.609 61.7544 187.825 61.6831C 187.945 61.6434 188.055 61.5945 188.157 61.5391L 188.272 61.4705L 188.333 61.4315L 188.403 61.3811C 188.558 61.2658 188.686 61.1369 188.793 61.008C 189.32 60.3506 189.32 59.4302 189.32 58.8385L 189.32 53.7108L 193.401 53.7108L 193.401 61.7313L 194.323 61.7313Z"/>
<path id="path40_fill" fill-rule="evenodd" d="M 198.338 56.6034L 200.446 56.6034C 201.103 56.6034 202.025 56.669 202.683 57.458C 203.143 57.9838 203.341 58.6412 203.341 59.2329C 203.341 59.9562 203.078 60.6793 202.552 61.1396C 202.368 61.303 202.176 61.4266 201.978 61.5194L 201.849 61.5755C 201.763 61.6111 201.675 61.6411 201.585 61.6665C 201.195 61.7777 200.801 61.797 200.446 61.797L 197.482 61.797L 197.482 52.9218L 198.338 52.9218L 198.338 56.6034ZM 200.379 60.8766C 200.774 60.8766 201.301 60.8766 201.761 60.482C 201.831 60.4351 201.898 60.382 201.959 60.3226C 202.02 60.2634 202.075 60.1981 202.124 60.1268C 202.302 59.867 202.397 59.525 202.354 59.1015C 202.354 58.5098 202.09 57.9838 201.696 57.721C 201.547 57.6027 201.358 57.511 201.148 57.4459C 200.891 57.3663 200.602 57.3264 200.313 57.3264L 198.273 57.3264L 198.273 60.8766L 200.379 60.8766Z"/>
<path id="path41_fill" d="M 211.109 56.8007L 206.106 56.8007L 206.106 52.8561L 205.251 52.8561L 205.251 61.7313L 206.106 61.7313L 206.106 57.5894L 211.109 57.5894L 211.109 61.7313L 211.966 61.7313L 211.966 52.8561L 211.109 52.8561L 211.109 56.8007Z"/>
<path id="path42_fill" fill-rule="evenodd" d="M 214.534 57.3264C 214.534 54.6969 216.576 52.6588 219.209 52.6588C 221.841 52.6588 223.883 54.6969 223.883 57.3264C 223.883 59.9562 221.841 61.9941 219.209 61.9941C 216.576 61.9941 214.534 59.9562 214.534 57.3264ZM 215.456 57.3264C 215.456 59.4959 217.102 61.1394 219.209 61.1394C 221.315 61.1394 222.961 59.4959 222.961 57.3264C 222.961 55.157 221.381 53.5135 219.209 53.5135C 217.036 53.5135 215.456 55.157 215.456 57.3264Z"/>
<path id="path43_fill" d="M 226.451 61.7313L 227.306 61.7313L 227.306 53.7108L 231.191 53.7108L 231.191 52.8561L 226.451 52.8561L 226.451 61.7313Z"/>
<path id="path44_fill" fill-rule="evenodd" d="M 231.716 57.3264C 231.716 54.6969 233.758 52.6588 236.39 52.6588C 239.023 52.6588 241.064 54.6969 241.064 57.3264C 241.064 59.9562 239.023 61.9941 236.39 61.9941C 233.758 61.9941 231.716 59.9562 231.716 57.3264ZM 232.638 57.3264C 232.638 59.4959 234.284 61.1394 236.39 61.1394C 238.496 61.1394 240.143 59.4959 240.143 57.3264C 240.143 55.157 238.563 53.5135 236.39 53.5135C 234.218 53.5135 232.638 55.157 232.638 57.3264Z"/>
<path id="path45_fill" d="M 148.44 76.2601C 146.728 76.2601 144.819 75.0111 144.819 72.4472C 144.819 70.2777 146.333 68.6343 148.505 68.6343C 149.954 68.6343 151.007 69.4231 151.6 70.0804L 151.6 68.8973C 150.922 68.2953 150.223 68.0161 149.625 67.8877C 149.431 67.846 149.247 67.8202 149.078 67.8043C 148.859 67.7834 148.665 67.7796 148.505 67.7796C 145.675 67.7796 143.897 69.8177 143.897 72.4472C 143.897 75.077 145.741 77.0491 148.44 77.0491C 150.02 77.0491 151.073 76.3261 151.666 75.8001L 151.666 74.6167C 150.942 75.4714 149.822 76.2601 148.44 76.2601Z"/>
<path id="path46_fill" d="M 154.89 76.8518L 154.035 76.8518L 154.035 67.9767L 160.617 67.9767L 160.617 76.8518L 159.762 76.8518L 159.762 68.8314L 154.89 68.8314L 154.89 76.8518Z"/>
<path id="path47_fill" fill-rule="evenodd" d="M 167.858 67.7796C 165.225 67.7796 163.184 69.8177 163.184 72.4472C 163.184 75.077 165.225 77.1148 167.858 77.1148C 170.49 77.1148 172.532 75.077 172.532 72.4472C 172.532 69.8177 170.49 67.7796 167.858 67.7796ZM 167.858 76.2601C 165.752 76.2601 164.105 74.6167 164.105 72.4472C 164.105 70.2777 165.685 68.6343 167.858 68.6343C 170.03 68.6343 171.61 70.2777 171.61 72.4472C 171.61 74.6167 169.964 76.2601 167.858 76.2601Z"/>
<path id="path48_fill" fill-rule="evenodd" d="M 175.955 69.489C 176.811 68.3713 178.063 67.7796 179.445 67.7796C 182.078 67.7796 183.724 69.8177 183.724 72.3815C 183.724 75.0111 182.078 77.1148 179.379 77.1148C 177.206 77.1148 176.219 75.7344 175.955 75.2741L 175.955 81.8484L 175.1 81.8484L 175.1 67.9769L 175.955 67.9769L 175.955 69.489ZM 175.891 72.3158C 175.891 74.551 177.141 76.2601 179.379 76.2601C 181.618 76.2601 182.802 74.551 182.802 72.3815C 182.802 69.9491 181.222 68.6343 179.379 68.6343C 177.601 68.6343 175.891 69.8834 175.891 72.3158Z"/>
<path id="path49_fill" d="M 184.45 68.8314L 187.544 68.8314L 187.544 76.8518L 188.4 76.8518L 188.4 68.8314L 191.494 68.8314L 191.494 67.9767L 184.45 67.9767L 184.45 68.8314Z"/>
<path id="path50_fill" fill-rule="evenodd" d="M 198.494 68.2711C 199.065 68.5507 199.565 68.9733 199.985 69.5544L 199.985 67.9764L 200.843 67.9764L 200.843 76.8516L 199.985 76.8516L 199.985 75.2738C 199.511 75.9866 198.913 76.4541 198.28 76.7395C 197.689 77.007 197.071 77.1146 196.497 77.1146C 194.127 77.1146 192.152 75.3395 192.152 72.447C 192.152 69.7515 193.929 67.8451 196.497 67.8451C 197.234 67.8451 197.903 67.9814 198.494 68.2711ZM 193.141 72.3813C 193.141 74.3534 194.391 76.2599 196.629 76.2599C 198.868 76.2599 200.052 74.4191 200.118 72.3813C 200.118 69.7515 198.144 68.6341 196.629 68.6341C 194.851 68.6341 193.141 69.9488 193.141 72.3813Z"/>
</defs>
</svg>
