<svg width="33" height="15" viewBox="0 0 33 15" fill="none" xmlns="http://www.w3.org/2000/svg">
<path fill-rule="evenodd" clip-rule="evenodd" d="M25.694 10.9432C25.2649 10.3202 25.7109 9.47147 26.4674 9.47147V9.47147C27.4998 9.47147 28.6117 9.003 29.6442 7.87087C30.5576 6.81682 31.0341 5.87988 31.3121 5.29429C31.7489 4.31832 32.146 3.18619 31.9474 2.32733C31.8012 1.71654 31.4196 1.23802 30.9264 1.04392C30.8413 1.01044 30.7531 1 30.6617 1C29.0453 1 21.6401 1 19.4044 1C19.0119 1 18.6594 1.22967 18.4974 1.58721L15.1896 8.88588C15.1498 8.96396 15.0307 9.08108 14.9116 9.08108C14.7718 9.08108 14.632 8.68796 14.6005 8.59371C14.596 8.58021 14.5921 8.5667 14.5884 8.55295L12.8863 2.17117C12.5687 1.03904 10.9405 1.03904 9.94776 1.03904C7.16801 1.03904 5.93699 2.75676 5.73843 3.18619L1.05258 13.4925C0.933451 13.7658 1.01287 14 1.33056 14H4.58683C4.8648 14 5.2222 13.7658 5.34133 13.4925L8.5976 6.27027C8.63731 6.19219 8.75644 5.95796 8.95499 5.95796C9.10575 5.95796 9.22074 6.34479 9.23205 6.38416C9.23272 6.38649 9.23328 6.38855 9.23391 6.39089L10.9802 12.8679C11.2185 13.6877 12.4098 14 13.9188 14C16.6986 14 17.9296 12.2823 18.1281 11.8529L21.3844 4.59159C21.5433 4.31832 21.7418 4.04505 21.9007 3.92793C22.1786 3.73273 22.4169 3.73273 22.6551 3.73273H26.1547C26.2305 3.73273 26.3068 3.7397 26.3789 3.76343C26.9733 3.95923 27.204 4.55082 26.9042 5.17718C26.5865 5.87988 25.7526 6.46546 24.9187 6.58258C24.045 6.58258 23.092 6.58258 23.092 6.58258C23.092 6.58258 23.092 6.58258 23.092 6.58258C22.0343 6.58258 20.9767 7.15241 20.567 7.99226C20.5557 8.01533 20.5443 8.03805 20.5334 8.06129C20.4569 8.22443 20.1669 8.96015 20.5505 10.0571L22.2589 13.4498C22.4288 13.7871 22.7742 14 23.152 14C24.1001 14 25.885 14 26.6262 14C27.482 14 27.3556 13.4636 27.2873 13.28C27.2719 13.2386 27.249 13.2009 27.2239 13.1645L25.694 10.9432Z" stroke="white" stroke-width="2"/>
</svg>
