<svg width="140" height="41" viewBox="0 0 140 41" version="1.1" xmlns="http://www.w3.org/2000/svg" xmlns:xlink="http://www.w3.org/1999/xlink">
<g id="Canvas" fill="none">
<g id="logo">
<g id="Vector">
<path d="M 16.4713 15.798L 19.8243 8.77148C 20.0569 8.29133 20.0324 7.90488 19.8243 7.90488L 12.482 7.90488C 12.2372 7.90488 11.8457 8.29133 11.6132 8.77148L 8.26015 15.798C 8.02764 16.2782 8.05212 16.6646 8.26015 16.6646L 15.6025 16.6646C 15.8473 16.6764 16.2389 16.2899 16.4958 15.8098L 16.4713 15.798ZM 8.41925 32.4978L 12.0292 25.2839C 12.2739 24.792 12.2739 24.3939 12.0292 24.3939L 4.68681 24.3939C 4.44206 24.3939 4.03825 24.792 3.7935 25.2839L 0.18356 32.4978C -0.0611865 32.9897 -0.0611865 33.3879 0.18356 33.3879L 7.52594 33.3879C 7.77069 33.3996 8.1745 33.0014 8.41925 32.5096L 8.41925 32.4978ZM 21.1338 23.9489L 24.1687 17.0394C 24.3767 16.571 24.3399 16.1845 24.0952 16.1845L 16.7528 16.1845C 16.508 16.1845 16.1288 16.571 15.9207 17.0394L 12.8859 23.9489C 12.6779 24.4173 12.7145 24.8038 12.9592 24.8038L 20.3016 24.8038C 20.5586 24.8038 20.9258 24.429 21.1338 23.9489ZM 28.7454 7.76436L 31.7802 0.854876C 31.9883 0.386438 31.9516 0 31.7069 0L 24.3645 0C 24.1197 0 23.7403 0.386438 23.5323 0.854876L 20.4975 7.76436C 20.2894 8.23279 20.3261 8.61923 20.5708 8.61923L 27.9132 8.61923C 28.1702 8.61923 28.5373 8.23279 28.7331 7.76436L 28.7454 7.76436ZM 13.7914 40.1451L 16.8263 33.2356C 17.0343 32.7672 16.9975 32.3808 16.7528 32.3808L 9.41039 32.3808C 9.16564 32.3808 8.78637 32.7672 8.57833 33.2356L 5.54351 40.1451C 5.33547 40.6135 5.37211 41 5.61685 41L 12.9592 41C 13.2162 41 13.5957 40.6135 13.8037 40.1451L 13.7914 40.1451ZM 25.9553 32.1699L 28.9901 25.2605C 29.1981 24.7921 29.1615 24.4056 28.9167 24.4056L 21.5744 24.4056C 21.3296 24.4056 20.9502 24.7921 20.7422 25.2605L 17.7073 32.1699C 17.4993 32.6383 17.5361 33.0249 17.7808 33.0249L 25.1232 33.0249C 25.3802 33.0249 25.7595 32.6384 25.9675 32.1583L 25.9553 32.1699ZM 33.3834 15.7746L 36.4182 8.86519C 36.6262 8.39675 36.5895 8.01024 36.3447 8.01024L 29.0023 8.01024C 28.7576 8.01024 28.3783 8.39675 28.1703 8.86519L 25.1355 15.7746C 24.9274 16.243 24.9641 16.6295 25.2088 16.6295L 32.5512 16.6295C 32.8204 16.5359 33.1876 16.1962 33.3956 15.7161L 33.3834 15.7746ZM 44.5804 7.30761L 47.2237 1.68638C 47.4073 1.29992 47.3706 0.983714 47.1626 0.983714L 40.7746 0.983714C 40.5544 0.983714 40.2362 1.29992 40.0527 1.68638L 37.4094 7.30761C 37.2258 7.69407 37.2626 8.01024 37.4706 8.01024L 43.8584 8.01024C 44.0787 7.9634 44.4091 7.64726 44.6416 7.26079L 44.5804 7.30761ZM 37.0546 23.3633L 39.6977 17.7421C 39.8813 17.3556 39.8447 17.0394 39.6366 17.0394L 33.2486 17.0394C 33.0284 17.0394 32.7102 17.3556 32.5267 17.7421L 29.8834 23.3633C 29.6998 23.7498 29.7366 24.066 29.9446 24.066L 36.3325 24.066C 36.5527 24.0074 36.8833 23.6912 37.0668 23.3164L 37.0546 23.3633ZM 29.6264 39.3956L 32.2697 33.7743C 32.4533 33.3878 32.4165 33.0717 32.2085 33.0717L 25.8207 33.0717C 25.6004 33.0717 25.2823 33.3878 25.0987 33.7743L 22.4554 39.3956C 22.2718 39.7821 22.3086 40.0982 22.5166 40.0982L 28.9045 40.0982C 29.1248 40.0397 29.4551 39.7235 29.6387 39.337L 29.6264 39.3956ZM 40.3953 31.5727L 43.0385 25.9514C 43.2221 25.5649 43.1854 25.2488 42.9774 25.2488L 36.5896 25.2488C 36.3693 25.2488 36.051 25.5649 35.8675 25.9514L 33.2243 31.5727C 33.0407 31.9592 33.0774 32.2753 33.2854 32.2753L 39.6732 32.2753C 39.9057 32.2168 40.224 31.9006 40.4076 31.5258L 40.3953 31.5727ZM 43.8462 39.3956L 46.4895 33.7743C 46.6731 33.3878 46.6363 33.0717 46.4283 33.0717L 40.0404 33.0717C 39.8201 33.0717 39.502 33.3878 39.3185 33.7743L 36.6752 39.3956C 36.4916 39.7821 36.5284 40.0982 36.7364 40.0982L 43.1242 40.0982C 43.3445 40.0397 43.6749 39.7235 43.8584 39.337L 43.8462 39.3956ZM 51.3722 23.1291L 54.0155 17.5079C 54.199 17.1214 54.1623 16.8052 53.9542 16.8052L 47.5664 16.8052C 47.3461 16.8052 47.028 17.1214 46.8444 17.5079L 44.2011 23.1291C 44.0176 23.5156 44.0542 23.8317 44.2622 23.8317L 50.6502 23.8317C 50.8705 23.7732 51.2009 23.457 51.3722 23.0706L 51.3722 23.1291ZM 48.215 15.1305L 50.8582 9.50928C 51.0417 9.12281 51.0051 8.80665 50.7971 8.80665L 44.4092 8.80665C 44.1889 8.80665 43.8707 9.12281 43.6871 9.50928L 41.044 15.1305C 40.8604 15.517 40.897 15.8332 41.105 15.8332L 47.4929 15.8332C 47.7132 15.7747 48.0437 15.4584 48.215 15.0837L 48.215 15.1305ZM 58.8002 7.30761L 61.4435 1.68638C 61.627 1.29992 61.5904 0.983714 61.3824 0.983714L 54.9944 0.983714C 54.7741 0.983714 54.456 1.29992 54.2724 1.68638L 51.6291 7.30761C 51.4456 7.69407 51.4823 8.01024 51.6904 8.01024L 58.0782 8.01024C 58.2985 7.9634 58.6288 7.64726 58.8002 7.26079L 58.8002 7.30761Z" transform="translate(78.4375 0)" fill="#DD0500"/>
</g>
<g id="Vector_2">
<path d="M 71.2992 40.5198L 2.69675 40.5198C 0.383903 40.5198 -0.644013 38.7046 0.420633 36.4912L 15.9987 4.02856C 16.5694 2.90941 17.4327 1.95038 18.5047 1.24454C 19.5768 0.538694 20.8212 0.109999 22.1174 0L 90.7319 0C 93.0447 0 94.0728 1.8152 93.0082 4.02856L 77.4422 36.4444C 76.8759 37.5755 76.0118 38.5461 74.9347 39.2607C 73.8576 39.9752 72.6047 40.4092 71.2992 40.5198Z" fill="#DD0500"/>
</g>
<g id="Vector_3">
<path d="M 59.1843 0.296381L 36.1461 0.296381L 29.1301 15.416C 29.0184 15.6292 28.8052 16.0362 28.3889 16.0362C 27.9726 16.0362 28.064 15.6777 27.9929 15.416L 24.3784 2.75819C 23.9824 0.509643 20.317 0.00563177 18.1137 0.00563177C 16.4261 -0.0522876 14.7548 0.337287 13.2851 1.13112C 11.8154 1.92496 10.6049 3.09202 9.78792 4.50275L 1.98309e-05 25.6798L 8.86393 25.6798L 15.9713 11.2193C 16.3673 10.4924 16.7836 10.4924 16.9055 10.4924C 17.0273 10.4924 17.2304 10.851 17.2608 11.1127L 19.7382 20.6884C 20.124 22.9758 21.1089 25.3987 24.6931 25.6798C 31.3232 26.2129 34.0952 23.8965 35.7908 20.291L 42.0352 7.0033C 42.2066 6.64464 42.4824 6.3406 42.8299 6.12751C 43.1774 5.91441 43.5817 5.80121 43.9947 5.80144L 51.2747 5.80144C 53.5085 5.80144 52.7369 7.73985 52.1987 8.8932C 51.2849 10.9285 49.2846 11.0546 47.0102 11.0546L 45.7209 11.0546C 42.6748 11.0546 39.4867 11.7911 39.4968 16.4821C 39.4968 17.4513 40.573 19.2152 41.2228 20.6012C 41.9742 22.1907 44.1877 25.6798 44.1877 25.6798L 54.5848 25.6798L 48.4927 17.0539L 48.5841 16.9085L 49.3456 16.9085C 55.661 16.9085 57.8236 15.8037 60.5955 10.9383C 61.149 9.92652 61.6142 8.87299 61.9865 7.78836C 63.2455 4.04723 63.2761 0.296381 59.1843 0.296381Z" transform="translate(15.3008 7.57422)" fill="white"/>
</g>
</g>
</g>
</svg>

