<svg width="13" height="21" viewBox="0 0 13 21" fill="none" xmlns="http://www.w3.org/2000/svg">
<path fill-rule="evenodd" clip-rule="evenodd" d="M2.8033 5.5C2.8033 3.567 4.3703 2 6.3033 2C8.2363 2 9.8033 3.567 9.8033 5.5C9.8033 7.433 8.2363 9 6.3033 9C4.3703 9 2.8033 7.433 2.8033 5.5ZM6.3033 0C3.26573 0 0.803301 2.46243 0.803301 5.5C0.803301 8.53757 3.26573 11 6.3033 11C9.34087 11 11.8033 8.53757 11.8033 5.5C11.8033 2.46243 9.34087 0 6.3033 0ZM12.3137 12.5104C12.7042 12.1199 12.7042 11.4867 12.3137 11.0962C11.9232 10.7057 11.29 10.7057 10.8995 11.0962C9.6301 12.3656 7.96834 13 6.3033 13C4.63826 13 2.97651 12.3656 1.70711 11.0962C1.31658 10.7057 0.683418 10.7057 0.292893 11.0962C-0.0976313 11.4867 -0.097631 12.1199 0.292893 12.5104C1.5052 13.7227 2.9937 14.4924 4.55534 14.8192L1.47125 19.4453C1.1649 19.9048 1.28907 20.5257 1.7486 20.8321C2.20813 21.1384 2.829 21.0142 3.13535 20.5547L6.3033 15.8028L9.47125 20.5547C9.7776 21.0142 10.3985 21.1384 10.858 20.8321C11.3175 20.5257 11.4417 19.9048 11.1354 19.4453L8.05126 14.8192C9.6129 14.4924 11.1014 13.7227 12.3137 12.5104Z" fill="white"/>
</svg>
