<svg width="21" height="21" viewBox="0 0 21 21" version="1.1" xmlns="http://www.w3.org/2000/svg" xmlns:xlink="http://www.w3.org/1999/xlink">
<title>P</title>
<desc>Created using Figma</desc>
<g id="Canvas" transform="translate(44552 19918)">
<g id="P">
<g id="Ellipse">
<use xlink:href="#path0_fill" transform="translate(-44550.8 -19916.8)" fill="#1C1C1C"/>
<use xlink:href="#path1_stroke" transform="translate(-44550.8 -19916.8)" fill="#C4C4C4"/>
</g>
<g id="P">
<use xlink:href="#path2_fill" transform="matrix(1 7.03922e-24 -1.01417e-24 1 -44552 -19918)" fill="#C4C4C4"/>
</g>
</g>
</g>
<defs>
<path id="path0_fill" d="M 18.5385 9.26946C 18.5385 14.3888 14.3885 18.5389 9.26923 18.5389C 4.14998 18.5389 0 14.3888 0 9.26946C 0 4.15008 4.14998 0 9.26923 0C 14.3885 0 18.5385 4.15008 18.5385 9.26946Z"/>
<path id="path1_stroke" d="M 18.0385 9.26946C 18.0385 14.1127 14.1123 18.0389 9.26923 18.0389L 9.26923 19.0389C 14.6646 19.0389 19.0385 14.665 19.0385 9.26946L 18.0385 9.26946ZM 9.26923 18.0389C 4.42613 18.0389 0.5 14.1127 0.5 9.26946L -0.5 9.26946C -0.5 14.665 3.87382 19.0389 9.26923 19.0389L 9.26923 18.0389ZM 0.5 9.26946C 0.5 4.42621 4.42613 0.5 9.26923 0.5L 9.26923 -0.5C 3.87382 -0.5 -0.5 3.87395 -0.5 9.26946L 0.5 9.26946ZM 9.26923 0.5C 14.1123 0.5 18.0385 4.42621 18.0385 9.26946L 19.0385 9.26946C 19.0385 3.87395 14.6646 -0.5 9.26923 -0.5L 9.26923 0.5Z"/>
<path id="path2_fill" d="M 8.11265 14L 8.11265 6.9L 11.0927 6.9C 11.4127 6.9 11.706 6.96667 11.9727 7.1C 12.246 7.23333 12.4793 7.41 12.6727 7.63C 12.866 7.84333 13.016 8.09 13.1227 8.37C 13.236 8.64333 13.2927 8.92333 13.2927 9.21C 13.2927 9.51 13.2393 9.8 13.1327 10.08C 13.0327 10.3533 12.8893 10.6 12.7027 10.82C 12.516 11.0333 12.2893 11.2067 12.0227 11.34C 11.7627 11.4667 11.4727 11.53 11.1527 11.53L 9.23265 11.53L 9.23265 14L 8.11265 14ZM 9.23265 10.54L 11.0827 10.54C 11.2427 10.54 11.386 10.5067 11.5127 10.44C 11.646 10.3733 11.7593 10.28 11.8527 10.16C 11.946 10.04 12.0193 9.9 12.0727 9.74C 12.126 9.58 12.1527 9.40333 12.1527 9.21C 12.1527 9.01 12.1227 8.83 12.0627 8.67C 12.0027 8.51 11.9193 8.37333 11.8127 8.26C 11.706 8.14 11.5827 8.05 11.4427 7.99C 11.3093 7.92333 11.1693 7.89 11.0227 7.89L 9.23265 7.89L 9.23265 10.54Z"/>
</defs>
</svg>
