<svg width="48" height="55" viewBox="0 0 48 55" version="1.1" xmlns="http://www.w3.org/2000/svg" xmlns:xlink="http://www.w3.org/1999/xlink">
<title>pdf</title>
<desc>Created using Figma</desc>
<g id="Canvas" transform="translate(16832 22038)">
<g id="pdf">
<g id="Vector">
<use xlink:href="#path0_fill" transform="translate(-16825.1 -22038)" fill="#FFFFFF"/>
</g>
<g id="Vector">
<use xlink:href="#path1_fill" transform="translate(-16797.7 -22038)" fill="#B5B5B5"/>
</g>
<g id="Vector">
<use xlink:href="#path2_fill" transform="translate(-16794.3 -22024.2)" fill="#E8E8E8"/>
</g>
<g id="Vector">
<use xlink:href="#path3_fill" transform="translate(-16832 -22012.2)" fill="#F15642"/>
</g>
<g id="Group">
<g id="Vector">
<use xlink:href="#path4_fill" transform="translate(-16824.5 -22006.4)" fill="#FFFFFF"/>
</g>
<g id="Vector">
<use xlink:href="#path5_fill" transform="translate(-16815.3 -22006.3)" fill="#FFFFFF"/>
</g>
<g id="Vector">
<use xlink:href="#path6_fill" transform="translate(-16804.7 -22006.3)" fill="#FFFFFF"/>
</g>
</g>
<g id="Vector">
<use xlink:href="#path7_fill" transform="translate(-16825.1 -21993.3)" fill="#E8E8E8"/>
</g>
</g>
</g>
<defs>
<path id="path0_fill" d="M 3.42857 0C 1.54286 0 0 1.54688 0 3.4375L 0 51.5625C 0 53.4531 1.54286 55 3.42857 55L 37.7143 55C 39.6 55 41.1429 53.4531 41.1429 51.5625L 41.1429 13.75L 27.4286 0L 3.42857 0Z"/>
<path id="path1_fill" d="M 3.42857 13.75L 13.7143 13.75L 0 0L 0 10.3125C 0 12.2031 1.54286 13.75 3.42857 13.75Z"/>
<path id="path2_fill" d="M 10.2857 10.3125L 0 0L 10.2857 0L 10.2857 10.3125Z"/>
<path id="path3_fill" d="M 41.1429 18.9062C 41.1429 19.8516 40.3714 20.625 39.4286 20.625L 1.71429 20.625C 0.771429 20.625 0 19.8516 0 18.9062L 0 1.71875C 0 0.773438 0.771429 0 1.71429 0L 39.4286 0C 40.3714 0 41.1429 0.773438 41.1429 1.71875L 41.1429 18.9062Z"/>
<path id="path4_fill" d="M 3.53132e-07 0.948751C 3.53132e-07 0.495001 0.356571 7.86781e-07 0.930857 7.86781e-07L 4.09714 7.86781e-07C 5.88 7.86781e-07 7.48457 1.19625 7.48457 3.48906C 7.48457 5.66156 5.88 6.87156 4.09714 6.87156L 1.80857 6.87156L 1.80857 8.68656C 1.80857 9.29156 1.42457 9.63359 0.930857 9.63359C 0.478286 9.63359 3.53132e-07 9.29156 3.53132e-07 8.68656L 3.53132e-07 0.948751ZM 1.80857 1.73078L 1.80857 5.15453L 4.09714 5.15453C 5.016 5.15453 5.74286 4.34156 5.74286 3.48906C 5.74286 2.52828 5.016 1.73078 4.09714 1.73078L 1.80857 1.73078Z"/>
<path id="path5_fill" d="M 0.946286 9.50984C 0.493715 9.50984 5.49316e-07 9.26234 5.49316e-07 8.65906L 5.49316e-07 0.852499C 5.49316e-07 0.359218 0.493715 -1.62601e-06 0.946286 -1.62601e-06L 4.08514 -1.62601e-06C 10.3491 -1.62601e-06 10.212 9.50984 4.20857 9.50984L 0.946286 9.50984ZM 1.81029 1.6775L 1.81029 7.83406L 4.08514 7.83406C 7.78629 7.83406 7.95086 1.6775 4.08514 1.6775L 1.81029 1.6775Z"/>
<path id="path6_fill" d="M 1.79314 1.78922L 1.79314 3.97375L 5.28857 3.97375C 5.78229 3.97375 6.276 4.46875 6.276 4.94828C 6.276 5.40203 5.78229 5.77328 5.28857 5.77328L 1.79314 5.77328L 1.79314 8.65906C 1.79314 9.14031 1.452 9.50984 0.972001 9.50984C 0.368572 9.50984 -1.46484e-06 9.14031 -1.46484e-06 8.65906L -1.46484e-06 0.8525C -1.46484e-06 0.359219 0.370287 -6.81877e-07 0.972001 -6.81877e-07L 5.784 -6.81877e-07C 6.38743 -6.81877e-07 6.744 0.359219 6.744 0.8525C 6.744 1.2925 6.38743 1.7875 5.784 1.7875L 1.79314 1.7875L 1.79314 1.78922Z"/>
<path id="path7_fill" d="M 32.5714 1.71875L 0 1.71875L 0 3.4375L 32.5714 3.4375C 33.5143 3.4375 34.2857 2.66406 34.2857 1.71875L 34.2857 0C 34.2857 0.945312 33.5143 1.71875 32.5714 1.71875Z"/>
</defs>
</svg>
