<svg width="25" height="30" viewBox="0 0 25 30" fill="none" xmlns="http://www.w3.org/2000/svg">
<path d="M22.8287 22.2762L20.9701 19.1761C20.7464 18.8028 20.3574 18.5593 19.9239 18.521C19.638 18.4957 19.3514 18.5616 19.1053 18.7091L17.3194 19.7798C16.5035 20.2689 15.9491 20.635 15.4195 20.1415C14.5151 19.2989 12.7309 17.2169 11.8119 15.684C10.8929 14.1511 10.0805 11.9018 9.76344 10.7071C9.57777 10.0074 10.1619 9.69093 10.9778 9.20183L12.7636 8.13123C13.0098 7.98361 13.203 7.76182 13.3154 7.49765C13.4858 7.09724 13.4543 6.63943 13.2305 6.26619L11.372 3.16608C11.1482 2.79282 10.7592 2.54928 10.3257 2.511C10.0399 2.48576 9.75336 2.55163 9.50724 2.69919L8.08681 3.55075C6.33552 4.60067 5.16185 6.42901 5.40912 8.45589C5.73579 11.1336 6.63046 14.5941 8.40123 17.5478C10.1494 20.4637 13.0143 23.0319 15.3081 24.752C17.0052 26.0247 19.2833 25.9868 21.1026 24.896L22.3618 24.1411C22.6079 23.9935 22.8011 23.7718 22.9135 23.5077C23.084 23.1073 23.0525 22.6494 22.8287 22.2762Z" stroke="white" stroke-width="2"/>
</svg>
