<svg width="25" height="22" viewBox="0 0 25 22" fill="none" xmlns="http://www.w3.org/2000/svg">
<path fill-rule="evenodd" clip-rule="evenodd" d="M6.82034 1.29775C7.11307 0.517145 7.85931 0 8.693 0H16.307C17.1407 0 17.8869 0.517146 18.1797 1.29775L19.193 4H23C24.1046 4 25 4.89543 25 6V19.5C25 20.6046 24.1046 21.5 23 21.5H2C0.89543 21.5 0 20.6046 0 19.5V6C0 4.89543 0.895431 4 2 4H5.807L6.82034 1.29775ZM7.943 4H17.057L16.307 2L8.693 2L7.943 4ZM6.5 6H2V19.5H23V6H18.5H6.5ZM12.5 11C11.1193 11 10 12.1193 10 13.5C10 14.8807 11.1193 16 12.5 16C13.8807 16 15 14.8807 15 13.5C15 12.1193 13.8807 11 12.5 11ZM8 13.5C8 11.0147 10.0147 9 12.5 9C14.9853 9 17 11.0147 17 13.5C17 15.9853 14.9853 18 12.5 18C10.0147 18 8 15.9853 8 13.5ZM18 10C18.5523 10 19 9.55229 19 9C19 8.44771 18.5523 8 18 8C17.4477 8 17 8.44771 17 9C17 9.55229 17.4477 10 18 10Z" fill="white"/>
</svg>
