<svg width="47" height="47" viewBox="0 0 47 47" fill="none" xmlns="http://www.w3.org/2000/svg">
<path fill-rule="evenodd" clip-rule="evenodd" d="M15.5816 4.78437C19.9514 2.17947 26.371 0.988747 33.237 3.04271C37.0681 4.1888 39.8015 6.51135 41.5815 9.00876C43.3783 11.5296 44.1601 14.1651 44.1601 15.8578V15.8744V15.8911V15.9079V15.9248V15.9417V15.9588V15.9759V15.9931V16.0104V16.0277V16.0452V16.0627V16.0803V16.098V16.1158V16.1336V16.1515V16.1695V16.1876V16.2058V16.224V16.2424V16.2607V16.2792V16.2978V16.3164V16.3351V16.3539V16.3727V16.3917V16.4107V16.4297V16.4489V16.4681V16.4874V16.5068V16.5262V16.5457V16.5653V16.585V16.6047V16.6245V16.6444V16.6644V16.6844V16.7045V16.7246V16.7449V16.7652V16.7855V16.806V16.8265V16.8471V16.8677V16.8884V16.9092V16.93V16.9509V16.9719V16.9929V17.0141V17.0352V17.0565V17.0778V17.0991V17.1206V17.1421V17.1636V17.1852V17.2069V17.2287V17.2505V17.2724V17.2943V17.3163V17.3383V17.3605V17.3826V17.4049V17.4272V17.4495V17.4719V17.4944V17.517V17.5395V17.5622V17.5849V17.6077V17.6305V17.6534V17.6763V17.6993V17.7223V17.7455V17.7686V17.7918V17.8151V17.8384V17.8618V17.8852V17.9087V17.9322V17.9558V17.9795V18.0032V18.0269V18.0507V18.0746V18.0985V18.1224V18.1464V18.1705V18.1946V18.2187V18.2429V18.2672V18.2915V18.3158V18.3402V18.3647V18.3891V18.4137V18.4383V18.4629V18.4876V18.5123V18.5371V18.5619V18.5867V18.6116V18.6366V18.6616V18.6866V18.7117V18.7368V18.7619V18.7871V18.8124V18.8377V18.863V18.8884V18.9138V18.9392V18.9647V18.9903V19.0158V19.0415V19.0671V19.0928V19.1185V19.1443V19.1701V19.1959V19.2218V19.2477V19.2737V19.2997V19.3257V19.3517V19.3778V19.404V19.4301V19.4563V19.4826V19.5088V19.5351V19.5615V19.5878V19.6142V19.6407V19.6671V19.6936V19.7202V19.7467V19.7733V19.7999V19.8266V19.8532V19.88V19.9067V19.9335V19.9603V19.9871V20.0139V20.0408V20.0677V20.0947V20.1216V20.1486V20.1756V20.2027V20.2297V20.2568V20.2839V20.3111V20.3382V20.3654V20.3926V20.4199V20.4471V20.4744V20.5017V20.529V20.5564V20.5837V20.6111V20.6385V20.666V20.6934V20.7209V20.7484V20.7759V20.8034V20.831V20.8586V20.8861V20.9137V20.9414V20.969V20.9967V21.0243V21.052V21.0797V21.1074V21.1352V21.1629V21.1907V21.2185V21.2463V21.2741V21.3019V21.3297V21.3576V21.3855V21.4133V21.4412V21.4691V21.497V21.5249V21.5529V21.5808V21.6088V21.6367V21.6647V21.6927V21.7207V21.7487V21.7767V21.8047V21.8327V21.8607V21.8888V21.9168V21.9449V21.9729V22.001V22.0291V22.0571V22.0852V22.1133V22.1414V22.1695V22.1976V22.2257V22.2538V22.2819V22.31V22.3381V22.3662V22.3943V22.4224V22.4506V22.4787V22.5068V22.5349V22.563V22.5911V22.6193V22.6474V22.6755V22.7036V22.7317V22.7598V22.7879V22.816V22.8441V22.8722V22.9003V22.9284V22.9565V22.9845V23.0126V23.0407V23.0687V23.0968V23.1249V23.1529V23.1809V23.209V23.237V23.265V23.293V23.321V23.349V23.377V23.4049V23.4329V23.4608V23.4888V23.5167V23.5446V23.5725V23.6004V23.6283V23.6562V23.684V23.7119V23.7397V23.7675V23.7953V23.8231V23.8509V23.8787V23.9064V23.9341V23.9619V23.9896V24.0173V24.0449V24.0726V24.1002V24.1278V24.1554V24.183V24.2106V24.2381V24.2656V24.2931V24.3206V24.3481V24.3755V24.403V24.4304V24.4578V24.4851V24.5125V24.5398V24.5671V24.5944V24.6216V24.6488V24.6761V24.7032V24.7304V24.7575V24.7846V24.8117V24.8388V24.8658V24.8928V24.9198V24.9468V24.9737V25.0006V25.0275V25.0543V25.0811V25.1079V25.1347V25.1614V25.1881V25.2148V25.2414V25.268V25.2946V25.3212V25.3477V25.3742V25.4006V25.427V25.4534V25.4798V25.5061V25.5324V25.5587V25.5849V25.6111V25.6372V25.6634V25.6895V25.7155V25.7415V25.7675V25.7934V25.8193V25.8452V25.871V25.8968V25.9226V25.9483V25.974V25.9996V26.0252V26.0508V26.0763V26.1018V26.1273V26.1527V26.178V26.2033V26.2286V26.2538V26.279V26.3042V26.3293V26.3544V26.3794V26.4044V26.4293V26.4542V26.479V26.5038V26.5286V26.5533V26.578V26.6026V26.6272V26.6517V26.6762V26.7006V26.725V26.7493V26.7736V26.7978V26.822V26.8462V26.8702V26.8943V26.9183V26.9422V26.9661V26.9899V27.0137V27.0375V27.0611V27.0848V27.1084V27.1319V27.1554V27.1788V27.2021V27.2254V27.2487V27.2719V27.295V27.3181V27.3412V27.3641V27.3871V27.4099V27.4327V27.4555V27.4782V27.5008V27.5234V27.5459V27.5684V27.5908V27.6131V27.6354V27.6576V27.6798V27.7019V27.7239V27.7459V27.7678V27.7897V27.8115V27.8332V27.8549V27.8765V27.8981V27.9195V27.9409V27.9623V27.9836V28.0048V28.026V28.0471V28.0681V28.089V28.1099V28.1308V28.1515V28.1722V28.1928V28.2134V28.2339V28.2543V28.2747V28.2949V28.3152V28.3353V28.3554V28.3754V28.3953V28.4152V28.435V28.4547V28.4743V28.4939V28.5134C44.1601 29.3318 43.6611 30.0658 42.8976 30.3686L7.2716 44.5012C6.52371 44.7979 5.78907 44.5939 5.40539 44.0718C4.46486 42.7918 3.18252 40.6621 2.44921 37.8232C9.44683 36.7718 22.417 31.5354 26.1302 17.2414C26.1789 17.054 26.2186 16.8445 26.2333 16.6226C26.3411 14.9892 25.9125 12.5517 23.6259 11.707C22.5316 11.3028 21.1755 11.3484 19.5564 11.8628C17.9356 12.3776 15.9702 13.3865 13.5851 15.0283C11.3107 16.5335 8.58713 16.8922 6.20025 15.508C8.78118 10.3182 11.387 7.28479 15.5816 4.78437ZM24.1944 16.7386C20.7508 29.9947 8.62312 34.9011 2.09226 35.8551C1.84538 33.3403 2.10551 30.0018 2.72444 26.5928C3.33548 23.2271 4.27868 19.8879 5.35452 17.3287C8.47316 19.0579 11.9645 18.5028 14.6975 16.6904L14.7048 16.6856L14.712 16.6806C17.0087 15.099 18.7949 14.2031 20.1619 13.7689C21.5321 13.3337 22.4007 13.3865 22.9329 13.5831C23.8994 13.9401 24.3309 15.0789 24.2376 16.4908C24.233 16.5604 24.2192 16.6432 24.1944 16.7386ZM33.8102 1.12661C26.4138 -1.08603 19.4141 0.171369 14.5575 3.06645C9.73152 5.94327 6.84521 9.50254 4.01553 15.426C2.64889 18.2868 1.47489 22.2792 0.756605 26.2355C0.0407286 30.1786 -0.245487 34.2105 0.24354 37.1317L0.245824 37.1453L0.248484 37.1589C0.980337 40.8933 2.62119 43.6604 3.79372 45.2561C4.80589 46.6335 6.56579 46.9328 8.00908 46.3603L43.6351 32.2277C45.158 31.6236 46.1601 30.1547 46.1601 28.5134V28.4939V28.4743V28.4547V28.435V28.4152V28.3953V28.3754V28.3554V28.3353V28.3152V28.2949V28.2747V28.2543V28.2339V28.2134V28.1928V28.1722V28.1515V28.1308V28.1099V28.089V28.0681V28.0471V28.026V28.0048V27.9836V27.9623V27.9409V27.9195V27.8981V27.8765V27.8549V27.8332V27.8115V27.7897V27.7678V27.7459V27.7239V27.7019V27.6798V27.6576V27.6354V27.6131V27.5908V27.5684V27.5459V27.5234V27.5008V27.4782V27.4555V27.4327V27.4099V27.3871V27.3641V27.3412V27.3181V27.295V27.2719V27.2487V27.2254V27.2021V27.1788V27.1554V27.1319V27.1084V27.0848V27.0611V27.0375V27.0137V26.9899V26.9661V26.9422V26.9183V26.8943V26.8702V26.8462V26.822V26.7978V26.7736V26.7493V26.725V26.7006V26.6762V26.6517V26.6272V26.6026V26.578V26.5533V26.5286V26.5038V26.479V26.4542V26.4293V26.4044V26.3794V26.3544V26.3293V26.3042V26.279V26.2538V26.2286V26.2033V26.178V26.1527V26.1273V26.1018V26.0763V26.0508V26.0252V25.9996V25.974V25.9483V25.9226V25.8968V25.871V25.8452V25.8193V25.7934V25.7675V25.7415V25.7155V25.6895V25.6634V25.6372V25.6111V25.5849V25.5587V25.5324V25.5061V25.4798V25.4534V25.427V25.4006V25.3742V25.3477V25.3212V25.2946V25.268V25.2414V25.2148V25.1881V25.1614V25.1347V25.1079V25.0811V25.0543V25.0275V25.0006V24.9737V24.9468V24.9198V24.8928V24.8658V24.8388V24.8117V24.7846V24.7575V24.7304V24.7032V24.6761V24.6488V24.6216V24.5944V24.5671V24.5398V24.5125V24.4851V24.4578V24.4304V24.403V24.3755V24.3481V24.3206V24.2931V24.2656V24.2381V24.2106V24.183V24.1554V24.1278V24.1002V24.0726V24.0449V24.0173V23.9896V23.9619V23.9341V23.9064V23.8787V23.8509V23.8231V23.7953V23.7675V23.7397V23.7119V23.684V23.6562V23.6283V23.6004V23.5725V23.5446V23.5167V23.4888V23.4608V23.4329V23.4049V23.377V23.349V23.321V23.293V23.265V23.237V23.209V23.1809V23.1529V23.1249V23.0968V23.0687V23.0407V23.0126V22.9845V22.9565V22.9284V22.9003V22.8722V22.8441V22.816V22.7879V22.7598V22.7317V22.7036V22.6755V22.6474V22.6193V22.5911V22.563V22.5349V22.5068V22.4787V22.4506V22.4224V22.3943V22.3662V22.3381V22.31V22.2819V22.2538V22.2257V22.1976V22.1695V22.1414V22.1133V22.0852V22.0571V22.0291V22.001V21.9729V21.9449V21.9168V21.8888V21.8607V21.8327V21.8047V21.7767V21.7487V21.7207V21.6927V21.6647V21.6367V21.6088V21.5808V21.5529V21.5249V21.497V21.4691V21.4412V21.4133V21.3855V21.3576V21.3297V21.3019V21.2741V21.2463V21.2185V21.1907V21.1629V21.1352V21.1074V21.0797V21.052V21.0243V20.9967V20.969V20.9414V20.9137V20.8861V20.8586V20.831V20.8034V20.7759V20.7484V20.7209V20.6934V20.666V20.6385V20.6111V20.5837V20.5564V20.529V20.5017V20.4744V20.4471V20.4199V20.3926V20.3654V20.3382V20.3111V20.2839V20.2568V20.2297V20.2027V20.1756V20.1486V20.1216V20.0947V20.0677V20.0408V20.0139V19.9871V19.9603V19.9335V19.9067V19.88V19.8532V19.8266V19.7999V19.7733V19.7467V19.7202V19.6936V19.6671V19.6407V19.6142V19.5878V19.5615V19.5351V19.5088V19.4826V19.4563V19.4301V19.404V19.3778V19.3517V19.3257V19.2997V19.2737V19.2477V19.2218V19.1959V19.1701V19.1443V19.1185V19.0928V19.0671V19.0415V19.0158V18.9903V18.9647V18.9392V18.9138V18.8884V18.863V18.8377V18.8124V18.7871V18.7619V18.7368V18.7117V18.6866V18.6616V18.6366V18.6116V18.5867V18.5619V18.5371V18.5123V18.4876V18.4629V18.4383V18.4137V18.3891V18.3647V18.3402V18.3158V18.2915V18.2672V18.2429V18.2187V18.1946V18.1705V18.1464V18.1224V18.0985V18.0746V18.0507V18.0269V18.0032V17.9795V17.9558V17.9322V17.9087V17.8852V17.8618V17.8384V17.8151V17.7918V17.7686V17.7455V17.7223V17.6993V17.6763V17.6534V17.6305V17.6077V17.5849V17.5622V17.5395V17.517V17.4944V17.4719V17.4495V17.4272V17.4049V17.3826V17.3605V17.3383V17.3163V17.2943V17.2724V17.2505V17.2287V17.2069V17.1852V17.1636V17.1421V17.1206V17.0991V17.0778V17.0565V17.0352V17.0141V16.9929V16.9719V16.9509V16.93V16.9092V16.8884V16.8677V16.8471V16.8265V16.806V16.7855V16.7652V16.7449V16.7246V16.7045V16.6844V16.6644V16.6444V16.6245V16.6047V16.585V16.5653V16.5457V16.5262V16.5068V16.4874V16.4681V16.4489V16.4297V16.4107V16.3917V16.3727V16.3539V16.3351V16.3164V16.2978V16.2792V16.2607V16.2424V16.224V16.2058V16.1876V16.1695V16.1515V16.1336V16.1158V16.098V16.0803V16.0627V16.0452V16.0277V16.0104V15.9931V15.9759V15.9588V15.9417V15.9248V15.9079V15.8911V15.8744V15.8578C46.1601 13.6665 45.1957 10.6336 43.2102 7.84792C41.2079 5.03883 38.123 2.4168 33.8102 1.12661ZM32.6744 24.1139C32.6744 22.6431 33.8745 21.4418 35.366 21.4418C36.8576 21.4418 38.0577 22.6431 38.0577 24.1139C38.0577 25.5847 36.8576 26.7861 35.366 26.7861C33.8745 26.7861 32.6744 25.5847 32.6744 24.1139ZM35.366 19.4418C32.7799 19.4418 30.6744 21.5286 30.6744 24.1139C30.6744 26.6993 32.7799 28.7861 35.366 28.7861C37.9521 28.7861 40.0577 26.6993 40.0577 24.1139C40.0577 21.5286 37.9521 19.4418 35.366 19.4418Z" fill="white"/>
</svg>
