<svg width="7" height="14" viewBox="0 0 7 14" version="1.1" xmlns="http://www.w3.org/2000/svg" xmlns:xlink="http://www.w3.org/1999/xlink">
<title>Polygon 2</title>
<desc>Created using Figma</desc>
<g id="Canvas" transform="translate(43505 24093)">
<g id="Polygon 2">
<use xlink:href="#path0_stroke" transform="matrix(0.02998 0.999551 -0.999551 0.02998 -43499.1 -24091.7)" fill="#FFFFFF"/>
</g>
</g>
<defs>
<path id="path0_stroke" d="M 5.6243 0L 5.95178 -0.377824C 5.76385 -0.540725 5.48475 -0.540725 5.29681 -0.377824L 5.6243 0ZM 10.9211 5.25282C 11.1298 5.43369 11.4455 5.41116 11.6264 5.20249C 11.8073 4.99382 11.7847 4.67804 11.5761 4.49718L 10.9211 5.25282ZM -0.327489 4.49718C -0.536155 4.67804 -0.558691 4.99382 -0.377824 5.20249C -0.196957 5.41116 0.118822 5.43369 0.327489 5.25282L -0.327489 4.49718ZM 5.29681 0.377824L 10.9211 5.25282L 11.5761 4.49718L 5.95178 -0.377824L 5.29681 0.377824ZM 0.327489 5.25282L 5.95178 0.377824L 5.29681 -0.377824L -0.327489 4.49718L 0.327489 5.25282Z"/>
</defs>
</svg>
