<svg width="25" height="25" viewBox="0 0 25 25" fill="none" xmlns="http://www.w3.org/2000/svg">
<path fill-rule="evenodd" clip-rule="evenodd" d="M7 10C7 5.58172 10.5817 2 15 2C19.4183 2 23 5.58172 23 10C23 14.4183 19.4183 18 15 18C10.5817 18 7 14.4183 7 10ZM15 0C9.47715 0 5 4.47715 5 10C5 12.4013 5.84637 14.6049 7.25705 16.3287L0.292893 23.2929C-0.0976311 23.6834 -0.0976311 24.3166 0.292893 24.7071C0.683417 25.0976 1.31658 25.0976 1.70711 24.7071L8.67127 17.7429C10.3951 19.1536 12.5987 20 15 20C20.5228 20 25 15.5228 25 10C25 4.47715 20.5228 0 15 0Z" fill="white"/>
</svg>
