<svg width="19" height="23" viewBox="0 0 19 23" version="1.1" xmlns="http://www.w3.org/2000/svg" xmlns:xlink="http://www.w3.org/1999/xlink">
<title>Group 18.2</title>
<desc>Created using Figma</desc>
<g id="Canvas" transform="translate(44303 19919)">
<g id="Group 18.2">
<g id="Union">
<use xlink:href="#path0_fill" transform="translate(-44302 -19919)" fill="#1C1C1C"/>
<use xlink:href="#path1_stroke" transform="translate(-44302 -19919)" fill="#C4C4C4"/>
</g>
<g id="S">
<use xlink:href="#path2_fill" transform="matrix(1 7.03922e-24 -1.01417e-24 1 -44304 -19918)" fill="#C4C4C4"/>
</g>
</g>
</g>
<defs>
<path id="path0_fill" d="M 0 5.57933C 2.83333 5.07257 8.5 1.21635 8.5 0C 8.5 1.21635 14.1667 5.07257 17 5.57933C 17 16.6278 15.2568 18.5112 13.1042 19.5673C 12.4484 19.8892 11.8577 20.1685 11.3333 20.4165C 9.87793 21.1056 8.93441 21.5528 8.5 22C 8.06559 21.5528 7.12207 21.1056 5.66667 20.4165C 5.14233 20.1685 4.5516 19.8892 3.89583 19.5673C 1.74316 18.5112 0 16.6278 0 5.57933Z"/>
<path id="path1_stroke" d="M 0 5.57933L -0.0880315 5.08714L -0.5 5.16082L -0.5 5.57933L 0 5.57933ZM 17 5.57933L 17.5 5.57933L 17.5 5.16082L 17.088 5.08714L 17 5.57933ZM 13.1042 19.5673L 12.8839 19.1184L 12.8838 19.1185L 13.1042 19.5673ZM 11.3333 20.4165L 11.1196 19.9645L 11.1194 19.9646L 11.3333 20.4165ZM 8.5 22L 8.14135 22.3484L 8.5 22.7176L 8.85865 22.3484L 8.5 22ZM 5.66667 20.4165L 5.88063 19.9646L 5.88042 19.9645L 5.66667 20.4165ZM 3.89583 19.5673L 4.11616 19.1185L 4.11606 19.1184L 3.89583 19.5673ZM 8 0C 8 -0.0143883 7.99444 0.0688029 7.84524 0.27598C 7.71074 0.462742 7.5035 0.690479 7.22803 0.94918C 6.67908 1.46471 5.90624 2.05955 5.03533 2.63961C 3.27529 3.81187 1.222 4.85283 -0.0880315 5.08714L 0.0880315 6.07152C 1.61133 5.79906 3.80804 4.65853 5.58967 3.4719C 6.48959 2.87252 7.3105 2.24357 7.9126 1.67813C 8.21265 1.39634 8.47025 1.11929 8.65671 0.860371C 8.82847 0.621866 9 0.318475 9 0L 8 0ZM 8 0C 8 0.318475 8.17153 0.621866 8.34329 0.860371C 8.52975 1.11929 8.78735 1.39634 9.0874 1.67813C 9.6895 2.24357 10.5104 2.87252 11.4103 3.4719C 13.192 4.65853 15.3887 5.79906 16.912 6.07152L 17.088 5.08714C 15.778 4.85283 13.7247 3.81187 11.9647 2.63961C 11.0938 2.05955 10.3209 1.46471 9.77197 0.94918C 9.4965 0.690479 9.28926 0.462742 9.15476 0.27598C 9.00556 0.0688029 9 -0.0143883 9 0L 8 0ZM 16.5 5.57933C 16.5 11.0927 16.063 14.2538 15.3882 16.153C 15.054 17.0936 14.6664 17.71 14.2561 18.148C 13.8462 18.5857 13.3915 18.8694 12.8839 19.1184L 13.3244 20.0162C 13.8932 19.7371 14.4636 19.3893 14.986 18.8316C 15.508 18.2742 15.9598 17.5312 16.3305 16.4878C 17.0654 14.4193 17.5 11.1145 17.5 5.57933L 16.5 5.57933ZM 12.8838 19.1185C 12.2318 19.4386 11.6441 19.7164 11.1196 19.9645L 11.5471 20.8685C 12.0712 20.6206 12.665 20.3399 13.3245 20.0161L 12.8838 19.1185ZM 11.1194 19.9646C 10.3959 20.3071 9.7829 20.5973 9.29701 20.8586C 8.81886 21.1157 8.41568 21.3692 8.14135 21.6516L 8.85865 22.3484C 9.01873 22.1836 9.30451 21.9899 9.77058 21.7393C 10.2289 21.4929 10.8154 21.2149 11.5473 20.8684L 11.1194 19.9646ZM 5.4527 20.8684C 6.1846 21.2149 6.7711 21.4929 7.22942 21.7393C 7.69548 21.9899 7.98127 22.1836 8.14135 22.3484L 8.85865 21.6516C 8.58432 21.3692 8.18114 21.1157 7.70299 20.8586C 7.2171 20.5973 6.60414 20.3071 5.88063 19.9646L 5.4527 20.8684ZM 3.67551 20.0161C 4.33497 20.3399 4.9288 20.6206 5.45291 20.8685L 5.88042 19.9645C 5.35587 19.7164 4.76822 19.4386 4.11616 19.1185L 3.67551 20.0161ZM -0.5 5.57933C -0.5 11.1145 -0.0654225 14.4193 0.66952 16.4878C 1.04021 17.5312 1.49199 18.2742 2.01401 18.8316C 2.53637 19.3893 3.10682 19.7371 3.6756 20.0162L 4.11606 19.1184C 3.60851 18.8694 3.15382 18.5857 2.74389 18.148C 2.33363 17.71 1.94599 17.0936 1.61181 16.153C 0.937005 14.2538 0.5 11.0927 0.5 5.57933L -0.5 5.57933Z"/>
<path id="path2_fill" d="M 12.3712 8.57C 12.3046 8.49667 12.2079 8.42 12.0812 8.34C 11.9546 8.25333 11.8046 8.17333 11.6312 8.1C 11.4646 8.02667 11.2779 7.96667 11.0712 7.92C 10.8712 7.87333 10.6646 7.85 10.4512 7.85C 9.97791 7.85 9.62791 7.93667 9.40125 8.11C 9.18125 8.28333 9.07125 8.52333 9.07125 8.83C 9.07125 9.00333 9.10458 9.14667 9.17125 9.26C 9.24458 9.36667 9.35458 9.46333 9.50125 9.55C 9.64791 9.63 9.83125 9.70333 10.0512 9.77C 10.2712 9.83 10.5279 9.89667 10.8212 9.97C 11.1812 10.0567 11.5046 10.1533 11.7912 10.26C 12.0846 10.3667 12.3312 10.4967 12.5312 10.65C 12.7312 10.8033 12.8846 10.9933 12.9912 11.22C 13.1046 11.44 13.1612 11.71 13.1612 12.03C 13.1612 12.39 13.0912 12.7 12.9512 12.96C 12.8179 13.22 12.6312 13.4333 12.3912 13.6C 12.1579 13.76 11.8846 13.88 11.5712 13.96C 11.2579 14.0333 10.9212 14.07 10.5612 14.07C 10.0212 14.07 9.49791 13.99 8.99125 13.83C 8.49125 13.6633 8.03791 13.4233 7.63125 13.11L 8.14125 12.15C 8.22791 12.2367 8.35125 12.3333 8.51125 12.44C 8.67791 12.5467 8.86791 12.6467 9.08125 12.74C 9.30125 12.8267 9.53791 12.9033 9.79125 12.97C 10.0446 13.03 10.3079 13.06 10.5812 13.06C 11.0212 13.06 11.3612 12.9833 11.6012 12.83C 11.8412 12.6767 11.9612 12.45 11.9612 12.15C 11.9612 11.97 11.9146 11.82 11.8212 11.7C 11.7346 11.58 11.6079 11.4767 11.4412 11.39C 11.2746 11.2967 11.0712 11.2133 10.8312 11.14C 10.5912 11.0667 10.3179 10.99 10.0112 10.91C 9.65791 10.8167 9.34791 10.72 9.08125 10.62C 8.82125 10.5133 8.60458 10.3867 8.43125 10.24C 8.25791 10.0933 8.12458 9.92333 8.03125 9.73C 7.94458 9.53 7.90125 9.29 7.90125 9.01C 7.90125 8.66333 7.96791 8.35667 8.10125 8.09C 8.23458 7.81667 8.41458 7.59 8.64125 7.41C 8.87458 7.22333 9.14791 7.08333 9.46125 6.99C 9.77458 6.89667 10.1146 6.85 10.4812 6.85C 10.9612 6.85 11.4046 6.92667 11.8112 7.08C 12.2179 7.23333 12.5746 7.42333 12.8812 7.65L 12.3712 8.57Z"/>
</defs>
</svg>
