<svg width="22" height="22" viewBox="0 0 22 22" fill="none" xmlns="http://www.w3.org/2000/svg">
<path fill-rule="evenodd" clip-rule="evenodd" d="M18.4241 1.87109C17.4479 1.87109 16.6566 2.66239 16.6566 3.63838C16.6566 4.61437 17.4479 5.40567 18.4241 5.40567C19.4003 5.40567 20.1916 4.61437 20.1916 3.63838C20.1916 2.66239 19.4003 1.87109 18.4241 1.87109ZM15.1566 3.63838C15.1566 1.83385 16.6196 0.371094 18.4241 0.371094C20.2286 0.371094 21.6916 1.83385 21.6916 3.63838C21.6916 5.44291 20.2286 6.90567 18.4241 6.90567C17.2753 6.90567 16.265 6.31288 15.6824 5.4165L7.29341 9.4283C7.37944 9.72099 7.4256 10.0307 7.4256 10.3513C7.4256 10.6769 7.37797 10.9914 7.28929 11.2881L16.0436 15.6649C16.6395 15.0314 17.4856 14.6357 18.4241 14.6357C20.2286 14.6357 21.6916 16.0985 21.6916 17.903C21.6916 19.7076 20.2286 21.1703 18.4241 21.1703C16.6196 21.1703 15.1566 19.7076 15.1566 17.903C15.1566 17.5776 15.2042 17.2632 15.2928 16.9666L6.53831 12.5897C5.94236 13.2231 5.09641 13.6186 4.15811 13.6186C2.35358 13.6186 0.890625 12.1558 0.890625 10.3513C0.890625 8.54674 2.35358 7.08398 4.15811 7.08398C5.10113 7.08398 5.95087 7.48346 6.54729 8.12242L15.1759 3.996C15.1632 3.87855 15.1566 3.75923 15.1566 3.63838ZM4.15811 8.58398C3.1819 8.58398 2.39062 9.37528 2.39062 10.3513C2.39062 11.3273 3.1819 12.1186 4.15811 12.1186C5.13432 12.1186 5.9256 11.3273 5.9256 10.3513C5.9256 9.37528 5.13432 8.58398 4.15811 8.58398ZM16.6566 17.903C16.6566 16.927 17.4479 16.1357 18.4241 16.1357C19.4003 16.1357 20.1916 16.927 20.1916 17.903C20.1916 18.879 19.4003 19.6703 18.4241 19.6703C17.4479 19.6703 16.6566 18.879 16.6566 17.903Z" fill="white"/>
</svg>
