<svg width="25" height="25" viewBox="0 0 25 25" fill="none" xmlns="http://www.w3.org/2000/svg">
<path fill-rule="evenodd" clip-rule="evenodd" d="M21 2C19.8954 2 19 2.89543 19 4C19 5.10457 19.8954 6 21 6C22.1046 6 23 5.10457 23 4C23 2.89543 22.1046 2 21 2ZM17 4C17 1.79086 18.7909 0 21 0C23.2091 0 25 1.79086 25 4C25 6.20914 23.2091 8 21 8C19.627 8 18.4156 7.30824 17.6952 6.25424L7.8626 10.9568C7.95221 11.2894 8 11.6391 8 12C8 12.3673 7.9505 12.723 7.8578 13.0609L18.141 18.2025C18.8671 17.4605 19.8798 17 21 17C23.2091 17 25 18.7909 25 21C25 23.2091 23.2091 25 21 25C18.7909 25 17 23.2091 17 21C17 20.6327 17.0495 20.277 17.1422 19.9391L6.85899 14.7975C6.13285 15.5395 5.1202 16 4 16C1.79086 16 0 14.2091 0 12C0 9.79086 1.79086 8 4 8C5.12615 8 6.1436 8.46538 6.87053 9.21431L17.0162 4.36205C17.0055 4.2428 17 4.12204 17 4ZM4 10C2.89543 10 2 10.8954 2 12C2 13.1046 2.89543 14 4 14C5.10457 14 6 13.1046 6 12C6 10.8954 5.10457 10 4 10ZM19 21C19 19.8954 19.8954 19 21 19C22.1046 19 23 19.8954 23 21C23 22.1046 22.1046 23 21 23C19.8954 23 19 22.1046 19 21Z" fill="#1C1C1C"/>
</svg>
