<svg width="31" height="31" viewBox="0 0 31 31" fill="none" xmlns="http://www.w3.org/2000/svg">
<circle cx="4" cy="27" r="4" fill="white"/>
<path fill-rule="evenodd" clip-rule="evenodd" d="M3 0.999999C3 0.447715 3.44772 0 4 0C4.55228 0 5 0.447715 5 1V26C5 26.5523 4.55228 27 4 27C3.44772 27 3 26.5523 3 26V0.999999ZM6 10H11V15H6V10ZM11 5V10H16V15H21V10H26V15H30C30.5523 15 31 14.5523 31 14V10H26V5H31V1C31 0.447715 30.5523 0 30 0H26V5H21V0H16V5H11ZM11 5V0H6V5H11ZM16 5H21V10H16V5Z" fill="white"/>
</svg>
