<svg width="25" height="30" viewBox="0 0 25 30" fill="none" xmlns="http://www.w3.org/2000/svg">
<path d="M22.6832 22.2762L20.8246 19.1761C20.6009 18.8028 20.2119 18.5593 19.7784 18.521C19.4925 18.4957 19.2059 18.5616 18.9597 18.7091L17.1739 19.7798C16.358 20.2689 15.8036 20.635 15.274 20.1415C14.3696 19.2989 12.5854 17.2169 11.6664 15.684C10.7474 14.1511 9.93495 11.9018 9.61793 10.7071C9.43226 10.0074 10.0164 9.69093 10.8323 9.20183L12.618 8.13123C12.8643 7.98361 13.0575 7.76182 13.1699 7.49765C13.3403 7.09724 13.3088 6.63943 13.085 6.26619L11.2265 3.16608C11.0027 2.79282 10.6137 2.54928 10.1802 2.511C9.89435 2.48576 9.60785 2.55163 9.36173 2.69919L7.94131 3.55075C6.19001 4.60067 5.01634 6.42901 5.26361 8.45589C5.59028 11.1336 6.48495 14.5941 8.25572 17.5478C10.0039 20.4637 12.8688 23.0319 15.1626 24.752C16.8597 26.0247 19.1378 25.9868 20.9571 24.896L22.2163 24.1411C22.4624 23.9935 22.6556 23.7718 22.768 23.5077C22.9385 23.1073 22.907 22.6494 22.6832 22.2762Z" stroke="#1C1C1C" stroke-width="2"/>
</svg>
