<svg width="26" height="21" viewBox="0 0 26 21" fill="none" xmlns="http://www.w3.org/2000/svg">
<path d="M6.70621 11.9871L1.40657 10.1105C0.868007 9.91912 0.86314 9.19804 1.40008 9.0018L23.1502 1.04076C23.6117 0.871596 24.087 1.25484 23.9864 1.71422L20.0835 19.528C19.9918 19.9486 19.4719 20.1392 19.1053 19.8863L13.7764 16.2159C13.4528 15.9931 13.0124 16.0049 12.7026 16.2445C12.7026 16.2445 10.9022 17.637 9.74859 18.5293M6.70621 11.9871L8.75744 18.2465C8.88884 18.6471 9.4055 18.7953 9.74859 18.5293M6.70621 11.9871C6.57806 11.5613 6.70621 10.6475 7.40039 10.3867L18.2402 5.74219L11.12 12.2812C10.4863 12.8867 10.5086 13.2495 10.4542 13.635C10.4542 13.635 10.0242 16.618 9.74859 18.5293" stroke="white" stroke-width="2" stroke-linejoin="round"/>
</svg>
