<svg width="79" height="48" viewBox="0 0 79 48" fill="none" xmlns="http://www.w3.org/2000/svg">
<path d="M13.5968 11.0008C13.1345 9.38544 12.6698 3.39765 18.6135 1.42747C24.5571 -0.542703 33.107 4.90483 34.1942 5.46596C38.3034 7.59149 41.1456 9.23239 43.6111 10.5672C50.4598 14.2401 61.9656 20.5912 64.2427 21.756C66.5199 22.9208 68.5831 24.4511 69.1909 20.9993C69.7131 18.032 70.5823 16.4041 73.7624 16.8333C76.9425 17.2624 78.3587 19.894 77.923 22.062C77.4872 24.2301 75.8037 26.5043 72.3156 27.6309C68.8275 28.7576 62.4022 26.4406 58.3957 24.2301C54.3892 22.0196 51.41 20.4382 50.5711 19.9791C50.1189 19.7045 49.5771 19.6148 49.0598 19.7289C48.5424 19.8431 48.0898 20.1522 47.7974 20.5912C47.0611 21.6284 47.395 22.4276 48.6021 23.992C49.8092 25.5564 52.112 28.9147 52.7284 29.6799C53.1356 30.206 53.7122 30.5773 54.3619 30.732C55.0116 30.8868 55.6951 30.8155 56.2983 30.5301C56.8956 30.3683 57.5199 30.3286 58.1331 30.4135C58.7464 30.4985 59.3359 30.7062 59.8658 31.0243C60.3958 31.3423 60.8552 31.7639 61.2161 32.2636C61.577 32.7632 61.832 33.3305 61.9656 33.931C62.8216 37.0172 60.7707 39.2586 57.7451 38.9727C54.7194 38.6868 52.1164 35.0353 49.2531 31.513C46.3898 27.9908 40.007 18.4402 39.2108 17.2924C38.4147 16.1446 37.2675 13.9596 34.1599 13.8915C31.0524 13.8235 28.039 13.1519 26.5922 14.0021C25.9582 14.3672 25.4244 14.8815 25.0377 15.4998C24.6511 16.118 24.4234 16.8212 24.3749 17.5474C24.3509 18.3417 24.5515 19.1268 24.954 19.8136C25.3565 20.5004 25.9448 21.0614 26.6521 21.4329C28.6211 22.5042 33.4237 25.1908 34.939 26.0495C36.4543 26.9082 36.5056 26.6957 38.1065 28.8297C39.7074 30.9637 45.0921 38.4966 46.265 40.112C47.4378 41.7274 48.448 42.7136 48.0799 43.8444C47.7105 44.8119 47.181 45.7113 46.5132 46.5055C46.205 46.8711 45.4688 47.5173 44.4158 46.259C43.3629 45.0007 32.7731 33.8119 31.3606 32.2816C29.948 30.7512 26.0015 28.6427 21.6611 31.882C17.3208 35.1213 8.29766 41.94 6.94505 42.9347C5.59243 43.9295 4.08573 45.0432 2.26227 43.8529C0.438812 42.6626 0.969584 41.0983 1.52604 39.0493C2.08249 37.0002 5.07022 25.5649 5.37841 24.4596C5.51579 23.7177 5.82361 23.0172 6.27795 22.4126C6.73228 21.808 7.3209 21.3157 7.99803 20.9738C10.0013 19.809 13.0147 18.6187 13.9136 15.5324C14.2395 14.0224 14.1297 12.4517 13.5968 11.0008Z" stroke="white" stroke-width="2" stroke-miterlimit="10"/>
</svg>
