<svg width="24" height="19" viewBox="0 0 24 19" fill="none" xmlns="http://www.w3.org/2000/svg">
<path d="M22.2997 3.88352C22.5179 3.64503 22.2692 3.28991 21.9586 3.37937V3.37937C21.6221 3.47628 21.3838 2.95956 21.61 2.69235C21.7161 2.56712 21.8149 2.43612 21.9058 2.29995C22.1212 1.97756 21.7595 1.64752 21.4015 1.79643C20.9621 1.97925 20.5049 2.13013 20.0327 2.24608C19.7171 2.3236 19.3924 2.21136 19.1388 2.00809C18.3533 1.37847 17.3385 1 16.2307 1C13.7383 1 11.7174 2.92246 11.7174 5.29217V5.29217C11.7174 5.78503 11.3396 6.24676 10.8503 6.18748C7.99445 5.84146 5.432 4.60327 3.48097 2.77545C2.9861 2.31183 2.16619 2.38819 2.01958 3.05026C1.95585 3.33802 1.92242 3.63651 1.92242 3.94252C1.92242 4.91901 2.26508 5.82019 2.84195 6.54178C3.09695 6.86076 2.8791 7.38169 2.49448 7.24445C2.30062 7.17527 2.11305 7.09389 1.93287 7.00135C1.91122 6.99023 1.88532 7.00586 1.88532 7.0302V7.0302C1.88532 8.7053 2.89522 10.1572 4.36665 10.8649C4.62519 10.9893 4.60276 11.3904 4.31586 11.3904V11.3904V11.3904C3.93349 11.3904 3.62697 11.7569 3.82026 12.0868C4.10836 12.5786 4.49507 13.0108 4.95487 13.3593C5.71494 13.9355 5.99876 15.339 5.09403 15.641C4.14974 15.9561 3.13406 16.1272 2.07642 16.1272V16.1272C1.81814 16.1272 1.71178 16.476 1.94253 16.592C3.72741 17.4896 5.75896 18 7.91772 18C16.2198 18 20.7578 11.4584 20.7578 5.78523L20.7545 5.66227C20.7471 5.39259 20.8794 5.13984 21.0949 4.97763C21.5313 4.64928 21.9348 4.28237 22.2997 3.88352Z" stroke="white" stroke-width="2"/>
</svg>
