<svg width="111" height="40" viewBox="0 0 111 40" version="1.1" xmlns="http://www.w3.org/2000/svg" xmlns:xlink="http://www.w3.org/1999/xlink">
<title>vesti</title>
<desc>Created using Figma</desc>
<g id="Canvas" transform="translate(50181 20811)">
<g id="vesti">
<use xlink:href="#path0_fill" transform="translate(-50181 -20811)" fill="#BDBDBD"/>
<use xlink:href="#path1_fill" transform="translate(-50181 -20811)" fill="#BDBDBD"/>
<use xlink:href="#path2_fill" transform="translate(-50181 -20811)" fill="#BDBDBD"/>
<use xlink:href="#path3_fill" transform="translate(-50181 -20811)" fill="#BDBDBD"/>
<use xlink:href="#path4_fill" transform="translate(-50181 -20811)" fill="#BDBDBD"/>
<use xlink:href="#path5_fill" transform="translate(-50181 -20811)" fill="#BDBDBD"/>
<use xlink:href="#path6_fill" transform="translate(-50181 -20811)" fill="#BDBDBD"/>
<use xlink:href="#path7_fill" transform="translate(-50181 -20811)" fill="#BDBDBD"/>
<use xlink:href="#path8_fill" transform="translate(-50181 -20811)" fill="#BDBDBD"/>
<use xlink:href="#path9_fill" transform="translate(-50181 -20811)" fill="#BDBDBD"/>
<use xlink:href="#path10_fill" transform="translate(-50181 -20811)" fill="#BDBDBD"/>
<use xlink:href="#path11_fill" transform="translate(-50181 -20811)" fill="#BDBDBD"/>
<use xlink:href="#path12_fill" transform="translate(-50181 -20811)" fill="#BDBDBD"/>
<use xlink:href="#path13_fill" transform="translate(-50181 -20811)" fill="#BDBDBD"/>
<use xlink:href="#path14_fill" transform="translate(-50181 -20811)" fill="#BDBDBD"/>
<use xlink:href="#path15_fill" transform="translate(-50181 -20811)" fill="#BDBDBD"/>
<use xlink:href="#path16_fill" transform="translate(-50181 -20811)" fill="#BDBDBD"/>
</g>
</g>
<defs>
<path id="path0_fill" fill-rule="evenodd" d="M 64.748 23.5927L 45.6183 23.5927C 45.5788 23.3694 45.5411 11.9632 45.5393 5.10679C 45.5393 2.27098 45.5465 0.213393 45.5626 0.0472524C 45.834 -0.0157508 64.3689 -0.0157508 64.6941 0.0472524C 64.8559 0.425944 64.8559 23.2771 64.748 23.5927ZM 61.2348 7.55899L 61.2348 7.43276C 60.586 5.98099 59.6677 4.78169 58.3703 4.02408C 57.2902 3.39293 56.2084 3.20347 55.0206 3.39293C 52.5891 3.70861 50.8047 5.03415 49.7246 7.62221C 48.7524 9.95782 48.6985 12.3566 49.3454 14.7553C 49.8864 16.7122 50.9125 18.2272 52.5352 19.174C 53.6692 19.8684 54.9127 20.1208 56.1545 19.9946C 57.0207 19.9314 57.8851 19.6789 58.6416 19.174C 60.0469 18.2272 60.9652 16.7752 61.56 15.0709L 61.56 14.8815C 60.9652 14.5658 60.3704 14.2503 59.7217 13.8714L 59.5599 14.2503L 59.3928 14.5994C 59.2958 14.8053 59.1969 15.0171 59.0909 15.2241C 59.0172 15.366 58.9399 15.5055 58.8573 15.6391C 58.3164 16.5227 57.5059 17.0909 56.5876 17.3433C 56.1545 17.4696 55.6693 17.4696 55.2362 17.4065L 54.9559 17.3521C 54.397 17.2281 53.8938 17.0184 53.4463 16.6983C 53.0887 16.4415 52.767 16.1137 52.4813 15.7021C 52.2261 15.357 52.0195 14.9869 51.8559 14.5945C 51.7966 14.4532 51.7427 14.3093 51.6942 14.1624C 51.6475 14.0178 51.6043 13.8705 51.5666 13.7207C 51.457 13.286 51.3851 12.8302 51.3456 12.3564C 51.3078 11.849 51.3096 11.3571 51.3563 10.8804C 51.4408 9.99347 51.6798 9.15985 52.1021 8.3796C 53.3457 5.91776 56.4798 5.16038 58.3703 7.30653L 58.5697 7.54396C 58.7405 7.7536 58.9004 7.96324 59.0567 8.17288L 59.3658 8.59058L 59.3982 8.63228C 59.4521 8.69529 59.5599 8.82152 59.6138 8.94775C 60.2087 8.3796 60.6939 7.9379 61.2348 7.55899Z"/>
<path id="path1_fill" fill-rule="evenodd" d="M 87.4449 23.593L 68.2613 23.593C 68.2074 23.2773 68.1535 0.489396 68.2613 0.0474766L 87.4449 0.0474766L 87.4449 23.593ZM 79.1227 19.7422L 79.1227 7.11729C 79.1227 6.99263 79.1227 6.89532 79.1389 6.77111L 79.1622 6.61865L 79.1766 6.54937L 83.716 6.54937C 83.8238 6.54937 83.9855 6.54937 84.0952 6.48614L 84.0952 4.27676L 71.8806 4.27676C 71.8266 4.65546 71.8266 6.10745 71.8806 6.48614L 76.853 6.48614L 76.853 19.6791C 77.6635 19.7424 78.3661 19.7422 79.1227 19.7422Z"/>
<path id="path2_fill" fill-rule="evenodd" d="M 22.7598 23.593L 41.8894 23.593C 41.8894 15.7023 41.8894 7.8749 41.9434 0.0474766L 22.7598 0.0474766C 22.6519 0.489396 22.7058 23.2773 22.7598 23.593ZM 37.6735 19.6159C 37.5657 19.6789 35.0714 19.7105 32.5286 19.7184C 31.4809 19.7217 30.4242 19.7211 29.5239 19.7168L 27.9425 19.7036C 27.4824 19.6971 27.1733 19.6888 27.0817 19.6791L 27.0817 4.403C 27.353 4.33999 36.5935 4.33999 37.0248 4.403L 37.0248 6.54937L 29.2975 6.54937L 29.2885 6.65385L 29.2777 6.86281L 29.2669 7.27872C 29.2597 7.65764 29.2561 8.13207 29.2579 8.5908C 29.2597 9.32196 29.2741 10.0127 29.2975 10.2105L 34.1082 10.2105L 34.1082 12.6091L 29.2975 12.6091L 29.2975 17.3435L 37.6196 17.3435C 37.7275 17.6592 37.7275 19.0478 37.6735 19.6159Z"/>
<path id="path3_fill" fill-rule="evenodd" d="M 110.357 23.593L 91.2277 23.593C 91.1738 23.2773 91.1199 0.552399 91.2277 0.0474766L 110.411 0.0474766C 110.357 7.8749 110.357 15.7655 110.357 23.593ZM 106.305 19.7422L 106.305 4.33999L 104.521 4.33999C 104.42 4.33999 104.343 4.33551 104.283 4.33214L 104.244 4.3299C 104.176 4.32632 104.132 4.32654 104.095 4.34246C 104.034 4.36824 103.99 4.43573 103.886 4.59649L 103.764 4.78169C 102.984 6.08704 102.211 7.40204 101.444 8.71905L 97.8732 14.8817C 97.8499 14.9364 97.8157 14.9792 97.7816 15.0203C 97.7366 15.0743 97.6881 15.1257 97.6576 15.1974L 97.6037 15.1974L 97.6037 4.33999L 95.3879 4.33999L 95.3879 19.7422L 97.2802 19.7422C 97.4078 19.7422 97.512 19.7278 97.5983 19.6859C 97.6594 19.6554 97.7115 19.6101 97.7546 19.5451C 97.778 19.5112 97.7995 19.472 97.8193 19.4267C 98.6855 18.0379 99.5499 16.6492 100.414 15.1974C 100.98 14.2822 101.548 13.3826 102.116 12.4831C 102.684 11.5836 103.252 10.684 103.818 9.76858C 103.872 9.64235 103.926 9.51612 104.089 9.51612L 104.089 19.6791C 104.467 19.7108 104.831 19.7265 105.196 19.7343L 105.834 19.7415L 106.305 19.7422Z"/>
<path id="path4_fill" d="M 5.84404 12.6093L 5.84404 17.3438C 5.87099 17.3597 5.89795 17.3716 5.9249 17.3794C 5.95545 17.3882 5.986 17.392 6.01655 17.3909C 6.06687 17.3891 6.11719 17.3734 6.16751 17.3438L 11.4095 17.3438C 11.627 17.3438 11.8426 17.3438 12.0583 17.2805C 12.9766 17.1543 13.6792 16.2705 13.7331 15.1974C 13.787 13.9981 13.194 13.0513 12.2739 12.7356C 12.0044 12.6726 11.7348 12.6093 11.4634 12.6093L 5.84404 12.6093Z"/>
<path id="path5_fill" d="M 5.84404 10.2103L 5.84404 6.54914L 11.4095 6.54914C 12.7609 6.54914 13.2479 8.00091 12.9227 9.01098C 12.707 9.76858 12.22 10.2103 11.5174 10.2103L 5.84404 10.2103Z"/>
<path id="path6_fill" fill-rule="evenodd" d="M 0.0628971 23.593L 19.1926 23.593C 19.1926 15.7655 19.1926 7.8749 19.2465 0.0474766L 0.0628971 0.0474766C -0.0449265 0.489396 0.00898529 23.2773 0.0628971 23.593ZM 3.68217 19.7422C 3.68217 15.7902 3.68217 11.9118 3.63365 8.0509L 3.6067 6.17942L 3.57435 4.46622C 3.62646 4.43528 3.6678 4.41959 3.70733 4.41152C 3.74866 4.403 3.79 4.403 3.84571 4.403L 11.5731 4.403C 12.5992 4.403 13.5175 4.84491 14.2201 5.72875C 15.1402 6.86483 15.3559 8.44305 14.761 9.76858C 14.6478 10.032 14.4825 10.2957 14.3028 10.5166C 14.2237 10.6132 14.1411 10.7017 14.0584 10.7787C 14.0045 10.8417 13.8967 10.9049 13.7888 11.0311C 13.8967 11.0943 14.0045 11.1573 14.0584 11.2206C 15.4098 12.2304 16.1124 13.6192 16.0585 15.5129C 16.0046 17.3435 15.1402 18.6061 13.7349 19.3005C 13.5534 19.3771 13.3683 19.4482 13.1796 19.5096C 12.9802 19.5747 12.7753 19.6294 12.5686 19.6693L 12.4015 19.6982C 12.2164 19.7265 12.0295 19.7422 11.8426 19.7422L 3.68217 19.7422Z"/>
<path id="path7_fill" d="M 84.9038 32.9356L 84.9038 27.6965C 85.1734 27.57 85.8221 27.57 86.2552 27.6333C 86.2768 27.8135 86.2804 27.9832 86.2786 28.151L 86.266 28.4635C 86.2606 28.6036 86.2552 28.746 86.2552 28.8958L 86.2552 32.8726C 86.3756 32.8726 86.4367 32.7661 86.4817 32.6863L 86.4978 32.6545L 86.5248 32.6201C 87.6587 31.1052 88.7945 29.5269 89.8745 28.0119C 90.092 27.6965 90.3076 27.57 90.6311 27.6333C 91.0642 27.6963 91.4955 27.6333 91.9285 27.6333C 91.9285 27.8227 91.8207 27.8857 91.7668 28.0119C 90.7407 29.3377 89.7128 30.6632 88.6327 31.9888L 88.3614 32.3045L 92.0903 38.9326C 92.0507 38.9326 92.0112 38.9413 91.9735 38.9523L 91.9124 38.9723L 91.8639 38.9875L 91.8207 38.9956L 90.685 38.9956C 90.4693 38.9956 90.3076 38.8694 90.1998 38.6799L 89.4612 37.292L 88.8664 36.184L 87.869 34.3194L 87.6048 33.8195L 87.5419 33.6775C 87.5024 33.5986 87.4557 33.5197 87.3892 33.4408C 87.3065 33.5367 87.2292 33.6385 87.1556 33.7408L 87.0801 33.843C 86.9345 34.0425 86.7926 34.2374 86.6326 34.3876C 86.3091 34.7663 86.2013 35.145 86.2013 35.7131C 86.2552 36.66 86.2013 37.5438 86.2013 38.4907L 86.2013 38.9326C 85.8814 38.9741 85.6065 38.9608 85.3172 38.9472C 85.168 38.94 85.0153 38.9326 84.8499 38.9326L 84.8499 35.2712C 84.8499 35.0188 84.796 34.8293 84.6325 34.7031C 84.309 34.2614 83.9855 33.8825 83.6603 33.4408C 83.5525 33.567 83.4985 33.6932 83.4446 33.8195C 82.5802 35.3974 81.7159 37.0387 80.9054 38.6169C 80.873 38.6913 80.8371 38.7548 80.794 38.8072L 80.7454 38.859C 80.6484 38.9501 80.5262 38.9956 80.3645 38.9956L 78.9592 38.9956L 79.6546 37.7348L 81.7895 33.9304C 82.0896 33.3935 82.388 32.8527 82.6881 32.3045C 82.3466 31.8688 82.0052 31.428 81.6637 30.9848L 80.9036 30.0005L 80.2081 29.0971C 79.8469 28.6267 79.4839 28.1588 79.1209 27.6965L 79.1748 27.6333L 80.7419 27.6333C 80.8101 27.6333 80.8694 27.6557 80.918 27.6909C 80.9863 27.7395 81.0366 27.8126 81.0671 27.8857C 81.3133 28.2149 81.5541 28.544 81.7931 28.8754C 82.1292 29.3431 82.4634 29.815 82.8013 30.2975L 82.9145 30.4567L 83.2829 30.9787C 83.4985 31.2948 83.716 31.5953 83.9316 31.8957C 84.1473 32.195 84.3629 32.4944 84.5786 32.8094L 84.7421 32.9988C 84.7834 32.9744 84.8176 32.9594 84.8427 32.9502L 84.8877 32.9376L 84.9038 32.9356Z"/>
<path id="path8_fill" fill-rule="evenodd" d="M 49.9403 27.6954L 49.9403 38.9945L 54.0465 38.9945C 54.3718 38.9945 54.7492 38.9315 55.0745 38.8682C 56.3162 38.6158 57.1824 37.6057 57.3441 36.2172C 57.5598 34.9546 57.2363 33.6921 55.9928 33.0609C 55.9388 33.0293 55.8993 32.9977 55.8598 32.9663C 55.8184 32.9347 55.7771 32.9031 55.7232 32.8715C 55.7502 32.8399 55.7771 32.824 55.8041 32.808C 55.831 32.7923 55.858 32.7766 55.8849 32.7453C 56.7493 32.1139 57.0189 31.167 56.9111 30.094C 56.8895 29.6742 56.7942 29.3126 56.6379 29.0012C 56.5283 28.7821 56.3863 28.5882 56.2192 28.4164C 56.0179 28.2079 55.7771 28.0321 55.5058 27.8846C 55.4087 27.8357 55.3117 27.7951 55.211 27.7619L 55.0655 27.7182C 54.8283 27.6559 54.5821 27.6321 54.3179 27.6321L 50.2098 27.6321L 50.1721 27.6386L 50.1182 27.6557C 50.0661 27.6736 50.0032 27.6954 49.9403 27.6954ZM 51.2917 37.6057C 51.2917 36.2802 51.2917 35.0176 51.2377 33.8183L 51.306 33.7836C 51.3474 33.7654 51.3797 33.7587 51.4085 33.7564L 51.4534 33.7551C 52.4256 33.7551 53.3439 33.8183 54.3179 33.8183C 54.5335 33.8183 54.6953 33.8813 54.857 33.9446C 55.3225 34.0957 55.6405 34.3477 55.8256 34.6943L 55.8724 34.7858L 55.9101 34.88C 55.9371 34.9519 55.9604 35.0271 55.9784 35.1055L 55.9964 35.199C 56.0467 35.4788 56.0431 35.7977 55.9928 36.1539C 55.8849 36.9745 55.2901 37.5427 54.4796 37.6057L 51.2917 37.6057ZM 51.2917 32.3663L 51.2917 29.0209L 51.342 29.0191C 51.3635 29.0171 51.3869 29.0124 51.4174 29.0016C 51.4426 28.9922 51.4714 28.9783 51.5073 28.9577L 52.1489 28.9586C 52.4184 28.9597 52.6916 28.9621 52.9683 28.968L 53.3637 28.9785C 53.644 28.9879 53.9261 29.0014 54.2101 29.0209C 54.3107 29.0209 54.4329 29.07 54.5623 29.122L 54.7025 29.1765L 54.8031 29.2101C 54.9666 29.2734 55.1284 29.3996 55.2362 29.5258C 55.7771 30.0307 55.7771 31.7984 54.857 32.1771C 54.6881 32.256 54.4994 32.335 54.3161 32.3829C 54.2047 32.4119 54.0951 32.4296 53.9926 32.4296L 51.3995 32.4296C 51.3689 32.4296 51.3563 32.4094 51.3402 32.3919C 51.3276 32.3784 51.315 32.3663 51.2917 32.3663Z"/>
<path id="path9_fill" d="M 47.401 38.9954L 46.1035 38.9954L 46.1035 30.0316L 46.0496 30.0316C 46.0227 30.0632 45.9957 30.1106 45.9688 30.1581L 45.9418 30.2072L 45.9149 30.25L 45.8879 30.2843L 44.8204 32.2569L 44.0118 33.7392C 43.5445 34.5963 43.0773 35.4562 42.6119 36.3207L 42.1428 37.1954L 41.4564 38.4904L 41.3216 38.7384C 41.2551 38.8646 41.2209 38.9301 41.167 38.9637C 41.1455 38.9772 41.1203 38.9855 41.088 38.9904C 41.0358 38.9989 40.9658 38.998 40.8597 38.9967L 40.6998 38.9954L 39.7276 38.9954C 39.7096 38.8924 39.6916 37.7082 39.6773 36.1394L 39.6539 32.4273L 39.6485 29.7204C 39.6503 28.5924 39.6575 27.7803 39.6719 27.633C 39.8911 27.601 40.0978 27.6014 40.3098 27.6095C 40.5165 27.6176 40.7303 27.633 40.9693 27.633L 40.9693 36.5335C 41.1311 36.4705 41.1311 36.3441 41.185 36.2178C 41.9146 34.8607 42.6298 33.5035 43.3469 32.1464L 43.5841 31.6937L 44.231 30.4742C 44.6533 29.6745 45.0792 28.8747 45.5087 28.0749C 45.6794 27.7765 45.7154 27.6523 45.798 27.6016C 45.8717 27.5557 45.9831 27.5698 46.2653 27.5698L 47.2914 27.5698C 47.4549 27.9487 47.4549 38.4904 47.401 38.9954Z"/>
<path id="path10_fill" fill-rule="evenodd" d="M 65.3411 27.6328C 64.8001 27.3803 64.2071 27.3171 63.5584 27.3171C 63.5045 27.3171 63.3427 27.3171 63.2331 27.3803C 61.5583 27.4433 60.3165 28.3902 59.5599 30.2209C 58.7477 32.1778 58.7477 34.1345 59.3964 36.0914C 59.8834 37.6064 60.8017 38.6794 62.207 39.1214C 62.3759 39.1806 62.5502 39.2211 62.7281 39.2492C 62.8719 39.272 63.0193 39.2864 63.1684 39.2954C 63.4218 39.3108 63.6788 39.3108 63.9358 39.3108C 65.7202 39.1844 67.0159 38.2375 67.7725 36.3438C 68.529 34.4502 68.529 32.4302 67.8264 30.4733C 67.7204 30.1693 67.5982 29.8866 67.4598 29.6249C 67.3556 29.426 67.2423 29.2395 67.1184 29.0651C 66.6601 28.4207 66.0725 27.9431 65.3411 27.6328ZM 60.3704 34.5764C 60.3165 34.1345 60.3165 33.7558 60.2608 33.3139L 60.2859 32.9271L 60.3129 32.6309C 60.3327 32.4415 60.3578 32.2545 60.3902 32.0704C 60.4297 31.8365 60.48 31.6074 60.5429 31.3838C 60.6453 31.0229 60.7819 30.6762 60.9634 30.3471C 61.6661 29.1478 62.694 28.6426 63.9358 28.7689C 64.3203 28.8209 64.669 28.9249 64.9799 29.0799L 65.1326 29.161L 65.235 29.2231C 65.3087 29.2693 65.3806 29.3189 65.4489 29.3713C 65.6052 29.4908 65.7508 29.6269 65.882 29.7792C 66.2396 30.1893 66.5091 30.7168 66.6924 31.3572C 67.0698 32.6827 67.0698 34.0082 66.6924 35.334C 66.3133 36.4701 65.6663 37.4169 64.6384 37.7326C 63.1792 38.2375 61.6661 37.7958 60.8017 36.0282C 60.586 35.5865 60.4243 35.0813 60.3704 34.5764Z"/>
<path id="path11_fill" d="M 103.223 27.6321L 110.248 27.6321C 110.356 27.9478 110.356 28.579 110.248 29.0209L 104.574 29.0209L 104.574 32.3663L 109.816 32.3663L 109.816 33.7551L 104.574 33.7551L 104.574 37.4795L 110.356 37.4795L 110.356 38.8052C 110.086 38.8682 103.547 38.9315 103.223 38.8052L 103.223 27.6321Z"/>
<path id="path12_fill" d="M 20.057 38.9949L 21.4084 38.9949L 21.4084 29.0843L 26.379 29.0843L 26.379 38.9949L 27.7304 38.9949L 27.7304 27.6956C 27.4069 27.6326 20.3804 27.6326 20.057 27.6956L 20.057 38.9949Z"/>
<path id="path13_fill" fill-rule="evenodd" d="M 30.2715 27.6321L 34.6491 27.6321C 34.8162 27.6321 34.9833 27.6489 35.1505 27.6738C 35.296 27.6956 35.4416 27.7234 35.589 27.7516L 35.6213 27.7584C 36.7552 28.074 37.5657 29.1471 37.6735 30.4727C 37.7293 31.104 37.6735 31.7984 37.404 32.3663C 36.917 33.5659 36.0526 34.134 34.9187 34.197L 31.6228 34.197L 31.6228 38.9315C 31.1358 38.9945 30.7028 38.9945 30.3254 38.9315C 30.2175 38.679 30.2175 28.2003 30.2715 27.6321ZM 31.6228 32.8715L 34.5395 32.8715C 34.8108 32.8715 35.0804 32.8083 35.3499 32.682C 35.783 32.4928 36.0526 32.1771 36.1622 31.6722C 36.2161 31.2933 36.27 30.9146 36.2161 30.5989L 36.2089 30.5195L 36.1964 30.4213C 36.1838 30.328 36.164 30.2399 36.1424 30.157C 36.1119 30.0489 36.0742 29.9498 36.0292 29.8594C 35.8873 29.5787 35.6644 29.3834 35.3499 29.2734C 35.0804 29.1471 34.8108 29.0839 34.5395 29.0839L 31.8924 29.0839C 31.7846 29.0839 31.7307 29.0839 31.6228 29.1471L 31.6228 32.8715Z"/>
<path id="path14_fill" fill-rule="evenodd" d="M 93.7669 27.6326L 93.7669 38.9949L 98.1446 38.9949L 98.2847 38.9873L 98.468 38.9633L 98.5813 38.9478C 98.6513 38.9386 98.7214 38.9319 98.7933 38.9319C 99.8733 38.8057 100.792 37.9218 101.063 36.7225C 101.171 36.2806 101.225 35.7757 101.171 35.3338C 101.063 33.945 100.306 32.8087 99.1707 32.4932L 99.0018 32.4605L 98.7538 32.4168C 98.5687 32.3874 98.3836 32.367 98.1985 32.367L 95.1183 32.367L 95.1183 27.6326C 94.6313 27.6326 94.2 27.5696 93.7669 27.6326ZM 95.1183 37.6061L 95.1183 33.8188C 95.1722 33.7556 95.2801 33.7558 95.334 33.7558L 97.9828 33.7558C 98.1428 33.7867 98.3027 33.8179 98.4627 33.8564C 98.6262 33.8964 98.7897 33.9441 98.955 34.0082C 99.133 34.0972 99.2875 34.2143 99.4115 34.3656C 99.478 34.4466 99.5355 34.5376 99.584 34.6394C 99.6379 34.7519 99.6811 34.8777 99.7116 35.0181C 99.7637 35.2342 99.7907 35.4656 99.7925 35.6972C 99.7943 35.9389 99.7673 36.1811 99.7116 36.4068C 99.6505 36.6956 99.5355 36.9223 99.3684 37.099C 99.2426 37.2315 99.0862 37.3357 98.9011 37.4169C 98.7915 37.4676 98.6927 37.5079 98.5938 37.5382C 98.4483 37.5835 98.3063 37.6061 98.1446 37.6061L 95.1183 37.6061Z"/>
<path id="path15_fill" d="M 78.2026 38.9949L 76.853 38.9949C 76.7919 38.9949 76.7542 38.9772 76.7272 38.9485C 76.6985 38.9191 76.6859 38.8781 76.6697 38.8326L 76.6643 38.8198L 76.6356 38.7424L 76.5188 38.3196L 76.4649 38.1346C 76.4038 37.9321 76.3373 37.7299 76.2582 37.5429C 75.879 36.2781 75.4998 34.9977 75.1207 33.7172C 74.7433 32.4412 74.3659 31.1652 73.9885 29.905C 73.9346 29.7787 73.9346 29.6525 73.8268 29.463C 73.7729 29.6525 73.7189 29.8417 73.6632 29.9682C 73.3559 30.9783 73.0415 31.9962 72.7252 33.0166L 72.3388 34.2607C 71.8931 35.6968 71.4475 37.1328 71.0162 38.553L 71.0108 38.5741C 70.9694 38.7359 70.9461 38.8357 70.9101 38.8972L 70.8886 38.9263L 70.8616 38.9501C 70.8005 38.9949 70.7053 38.9949 70.5292 38.9949L 69.503 38.9949L 69.5552 38.8176C 69.5875 38.7117 69.6109 38.6144 69.6109 38.4898C 70.2596 36.4068 70.9623 34.3237 71.611 32.2406C 71.7745 31.6854 71.9488 31.1397 72.1232 30.596L 72.2957 30.0689C 72.5221 29.3673 72.7485 28.6653 72.9624 27.948C 73.0702 27.5694 73.0702 27.5694 73.3937 27.5694L 74.2581 27.5694C 74.3928 27.5694 74.4719 27.5694 74.5258 27.5963C 74.6013 27.6344 74.6283 27.7263 74.6912 27.948L 74.9859 28.8707L 75.2824 29.8278C 75.4855 30.5005 75.6831 31.1726 75.879 31.8619C 76.1072 32.5771 76.3301 33.2856 76.5493 33.9921L 76.9069 35.1443L 77.694 37.6658L 77.9331 38.4268C 78.0948 38.6162 78.0948 38.7424 78.2026 38.9949Z"/>
<path id="path16_fill" d="M 10.121 27.299L 0 27.299L 0 39.3106L 10.121 39.3106L 10.121 27.299Z"/>
</defs>
</svg>
