<svg width="25" height="22" viewBox="0 0 25 22" fill="none" xmlns="http://www.w3.org/2000/svg">
<path d="M22.5523 18.2763L22.1051 19.1707L22.5523 18.2763ZM20.4472 17.2237L20.8945 16.3293L20.4472 17.2237ZM20.3714 13.4514L20 12.5229L20.3714 13.4514ZM3.5 7C5.433 7 7 5.433 7 3.5H5C5 4.32843 4.32843 5 3.5 5V7ZM0 3.5C0 5.433 1.567 7 3.5 7V5C2.67157 5 2 4.32843 2 3.5H0ZM3.5 0C1.567 0 0 1.567 0 3.5H2C2 2.67157 2.67157 2 3.5 2V0ZM7 3.5C7 1.567 5.433 0 3.5 0V2C4.32843 2 5 2.67157 5 3.5H7ZM20.7428 14.3798L22.9996 13.4771L22.2567 11.6202L20 12.5229L20.7428 14.3798ZM18 11V12.5229H20V11H18ZM2 11H18V9H2V11ZM2 20V11H0V20H2ZM18 20H2V22H18V20ZM18 18.1181V20H20V18.1181H18ZM22.9996 17.3819L20.8945 16.3293L20 18.1181L22.1051 19.1707L22.9996 17.3819ZM22.9996 13.4771V17.3819H24.9996V13.4771H22.9996ZM14 3.5C14 4.32843 13.3284 5 12.5 5V7C14.433 7 16 5.433 16 3.5H14ZM12.5 2C13.3284 2 14 2.67157 14 3.5H16C16 1.567 14.433 0 12.5 0V2ZM11 3.5C11 2.67157 11.6716 2 12.5 2V0C10.567 0 9 1.567 9 3.5H11ZM12.5 5C11.6716 5 11 4.32843 11 3.5H9C9 5.433 10.567 7 12.5 7V5ZM22.1051 19.1707C23.4349 19.8357 24.9996 18.8687 24.9996 17.3819H22.9996L22.1051 19.1707ZM20 18.1181H20L20.8945 16.3293C19.5647 15.6643 18 16.6313 18 18.1181H20ZM18 22C19.1046 22 20 21.1046 20 20H18V22ZM0 20C0 21.1046 0.895432 22 2 22V20H2H0ZM2 9C0.895431 9 0 9.89543 0 11H2V9ZM20 11C20 9.89543 19.1046 9 18 9V11H20ZM22.9996 13.4771H24.9996C24.9996 12.0621 23.5705 11.0946 22.2567 11.6202L22.9996 13.4771ZM20 12.5229V12.5229H18C18 13.9379 19.4291 14.9054 20.7428 14.3798L20 12.5229Z" fill="white"/>
</svg>
