<svg width="38" height="37" viewBox="0 0 38 37" fill="none" xmlns="http://www.w3.org/2000/svg">
<path fill-rule="evenodd" clip-rule="evenodd" d="M31.4567 2.23898C30.7799 2.44426 29.9597 2.93581 29.205 3.70342C28.4502 4.47102 27.9725 5.29931 27.7787 5.9795C27.5731 6.70076 27.735 7.0114 27.8255 7.10043C27.8889 7.16274 28.0614 7.25813 28.4052 7.23517C28.6753 7.1072 28.9457 7.00171 29.2132 6.92058C29.3787 6.87041 29.5498 6.82797 29.7242 6.79573C30.206 6.53329 30.7158 6.15513 31.1988 5.66393C31.9536 4.89632 32.4312 4.06803 32.6251 3.38784C32.8306 2.66658 32.6688 2.35594 32.5782 2.26691C32.4877 2.17788 32.1744 2.02131 31.4567 2.23898ZM26.4353 8.51423C26.4486 8.52729 26.462 8.54013 26.4754 8.55277C26.3559 8.66187 26.2384 8.77511 26.1232 8.89227C25.3136 9.71567 24.6998 10.6507 24.3522 11.5685C24.007 11.319 23.6144 11.1316 23.223 10.9993C23.0124 10.9281 22.7912 10.8684 22.5614 10.8203C23.4488 10.4629 24.3472 9.85821 25.1401 9.07062C25.4775 8.73551 25.7819 8.38108 26.0483 8.01626C26.1508 8.19298 26.2787 8.36022 26.4353 8.51423ZM19.4276 10.8317C19.2571 10.7318 19.0955 10.6083 18.9461 10.4578C18.1056 9.61162 18.1175 8.3854 18.4189 7.37324C18.7325 6.32016 19.4222 5.21963 20.3749 4.27326C21.3277 3.32688 22.4328 2.64462 23.488 2.33813C24.5022 2.04355 25.7284 2.03985 26.569 2.88605C26.7098 3.02787 26.8268 3.18036 26.9224 3.34074C27.178 2.98598 27.4691 2.64078 27.7912 2.31324C28.7327 1.3557 29.8297 0.660462 30.8812 0.341552C31.8918 0.0350382 33.118 0.0168762 33.9684 0.853113C34.8189 1.68935 34.8214 2.91563 34.5319 3.93127C34.2308 4.98797 33.5541 6.09655 32.6126 7.0541C32.4974 7.17126 32.3799 7.2845 32.2604 7.3936C32.2738 7.40624 32.2872 7.41908 32.3005 7.43214C33.1509 8.26838 33.1534 9.49466 32.864 10.5103C32.7765 10.8173 32.6573 11.1286 32.5092 11.4394C33.15 11.2272 33.7844 11.1082 34.3772 11.0915C35.4329 11.0618 36.6206 11.367 37.2209 12.3976C37.8213 13.4282 37.501 14.6119 36.9544 15.5155C36.3858 16.4557 35.4412 17.3471 34.2808 18.0231C33.1205 18.6991 31.8791 19.0811 30.7808 19.112C30.0522 19.1325 29.2608 18.9935 28.6429 18.5666C28.6113 18.7833 28.5534 18.9958 28.4753 19.2013C28.5672 19.1948 28.6597 19.1895 28.7526 19.1857C30.0944 19.1308 31.3703 19.3735 32.3556 19.8597C33.3027 20.327 34.2098 21.1522 34.2587 22.3439C34.3075 23.5356 33.4709 24.4321 32.5652 24.9754C31.623 25.5406 30.3712 25.8869 29.0294 25.9419C27.6876 25.9968 26.4118 25.7541 25.4264 25.2679C24.5026 24.812 23.6167 24.0157 23.5285 22.8707C22.7059 23.0686 21.9002 23.1305 21.1779 23.049C20.256 22.945 19.2694 22.5708 18.738 21.7326C18.6009 21.9549 18.4518 22.1743 18.2914 22.3893C18.108 22.635 17.9148 22.8683 17.7139 23.0874C18.4799 22.9315 19.3289 22.8918 20.1982 22.9796C21.5343 23.1146 22.7632 23.535 23.67 24.1554C24.5416 24.7517 25.3233 25.6966 25.2034 26.8833C25.0835 28.07 24.1287 28.8395 23.1555 29.2494C22.1429 29.676 20.8548 29.8421 19.5187 29.7072C18.1826 29.5722 16.9537 29.1518 16.0469 28.5314C15.2357 27.9764 14.5025 27.1195 14.5013 26.0468C14.4048 26.2429 14.275 26.4285 14.1105 26.5957L11.0234 29.7353L8.2431 32.5629L5.46276 35.3905C4.56702 36.3014 3.10241 36.3138 2.19146 35.418L1.72019 34.9546L1.24892 34.4912C0.337967 33.5955 0.325624 32.1309 1.22136 31.2199L4.0017 28.3923L6.78205 25.5647L10.0918 22.1988C10.2056 22.083 10.3279 21.9849 10.456 21.9036C9.98623 21.6936 9.56437 21.3674 9.21622 21.008C8.45166 20.2189 7.82993 19.0786 7.47144 17.7844C7.11295 16.4902 7.05937 15.1926 7.30893 14.1225C7.54878 13.094 8.14613 12.0231 9.29556 11.7047C9.958 11.5212 10.5918 11.6464 11.1506 11.9306C11.0573 11.71 10.9833 11.4825 10.9266 11.2569C10.6591 10.1912 10.6908 8.89282 11.0274 7.59279C11.364 6.29276 11.9665 5.14216 12.7176 4.34023C13.4396 3.56947 14.4924 2.94067 15.647 3.23965C16.8016 3.53863 17.4169 4.59937 17.6741 5.62365C17.9416 6.68936 17.9099 7.98775 17.5733 9.28778C17.2666 10.4723 16.7392 11.5328 16.0797 12.3185C16.1146 12.289 16.1499 12.2601 16.1854 12.2319C17.0154 11.5706 18.1586 11.0736 19.4276 10.8317ZM14.7141 25.0605C14.7176 25.0526 14.7212 25.0448 14.7249 25.037C14.7211 25.038 14.7172 25.039 14.7133 25.04C14.7136 25.0468 14.7138 25.0536 14.7141 25.0605ZM19.9704 17.5675C19.901 17.6276 19.8334 17.6885 19.7677 17.7502C19.7586 17.6949 19.7481 17.6399 19.7362 17.5852C19.814 17.5804 19.8921 17.5745 19.9704 17.5675ZM14.8542 15.0639C14.927 15.4798 15.1004 15.836 15.3384 16.1375C14.9501 16.3482 14.5658 16.6142 14.1964 16.9273C14.1451 16.6134 14.0756 16.2963 13.9879 15.9794C13.747 15.1097 13.3872 14.3095 12.9451 13.6387L12.9537 13.6409C13.9164 13.8902 14.8083 13.4945 15.4966 12.9094C15.0161 13.5033 14.71 14.2405 14.8542 15.0639ZM13.8876 20.4377C13.8431 20.5386 13.7945 20.6378 13.7415 20.7346C13.5369 21.1811 13.4096 21.6065 13.3564 21.9794C13.2505 22.7219 13.4529 23.0078 13.5547 23.0837C13.6564 23.1596 13.9881 23.2723 14.6697 22.9594C15.3125 22.6644 16.0584 22.0662 16.7023 21.2035C17.3461 20.3407 17.7072 19.4553 17.8071 18.7551C17.913 18.0127 17.7106 17.7268 17.6088 17.6509C17.5071 17.5749 17.1754 17.4623 16.4938 17.7751C15.851 18.0702 15.1051 18.6683 14.4612 19.5311C14.2356 19.8335 14.0447 20.1387 13.8876 20.4377ZM12.2194 19.1909C12.1851 19.3378 12.146 19.463 12.1042 19.5695C12.0573 19.6604 12.0124 19.7515 11.9696 19.8427C11.8387 20.0525 11.7068 20.1282 11.6344 20.1483C11.5121 20.1822 11.1621 20.167 10.6403 19.6284C10.1481 19.1204 9.66964 18.2926 9.38226 17.2551C9.09489 16.2177 9.07925 15.2616 9.23989 14.5728C9.41022 13.8425 9.70249 13.6494 9.82486 13.6155C9.94723 13.5816 10.2972 13.5968 10.819 14.1354C11.3112 14.6434 11.7897 15.4712 12.077 16.5087C12.3644 17.5461 12.38 18.5021 12.2194 19.1909ZM26.738 15.7965C27.0896 15.7852 27.4404 15.7232 27.7704 15.6295C27.7076 15.8273 27.6611 16.0301 27.6356 16.2351C27.3634 16.0428 27.0568 15.8993 26.738 15.7965ZM24.9067 15.22C25.0905 15.3744 25.289 15.4935 25.497 15.5824C25.2019 15.5689 24.8955 15.5775 24.5819 15.6078C24.6978 15.4857 24.807 15.3562 24.9067 15.22ZM29.5225 9.02579C29.3571 9.07596 29.1859 9.1184 29.0116 9.15064C28.5297 9.41308 28.02 9.79124 27.537 10.2824C26.7822 11.05 26.3046 11.8783 26.1107 12.5585C25.9052 13.2798 26.067 13.5904 26.1575 13.6795C26.2481 13.7685 26.5614 13.9251 27.2791 13.7074C27.9559 13.5021 28.7761 13.0106 29.5308 12.243C30.2856 11.4753 30.7633 10.6471 30.9571 9.96687C31.1627 9.24561 31.0008 8.93497 30.9103 8.84594C30.8469 8.78363 30.6744 8.68824 30.3306 8.71121C30.0605 8.83917 29.79 8.94466 29.5225 9.02579ZM24.0411 4.24221C23.3619 4.43949 22.536 4.92135 21.7722 5.68C21.0085 6.43865 20.5211 7.26125 20.3192 7.93911C20.1052 8.6579 20.2633 8.97043 20.3528 9.06052C20.4423 9.15061 20.7538 9.31087 21.474 9.10167C22.1532 8.90438 22.979 8.42253 23.7428 7.66388C24.5066 6.90523 24.994 6.08263 25.1958 5.40477C25.4099 4.68598 25.2517 4.37345 25.1622 4.28336C25.0727 4.19327 24.7613 4.03301 24.0411 4.24221ZM12.9469 8.08981C13.2167 7.04766 13.6812 6.2119 14.1647 5.69571C14.6774 5.14835 15.027 5.12729 15.15 5.15912C15.2729 5.19095 15.5684 5.37906 15.751 6.10646C15.9232 6.79245 15.9237 7.7486 15.6538 8.79075C15.384 9.8329 14.9195 10.6687 14.436 11.1849C13.9233 11.7322 13.5737 11.7533 13.4507 11.7214C13.3278 11.6896 13.0323 11.5015 12.8497 10.7741C12.6775 10.0881 12.677 9.13197 12.9469 8.08981ZM11.5056 23.5889C11.5086 23.5858 11.5108 23.5841 11.512 23.5832L11.513 23.5824C11.5147 23.5823 11.5188 23.5822 11.5249 23.5839C11.5309 23.5857 11.5344 23.588 11.5356 23.589L11.5361 23.5903L11.5373 23.5941L11.5384 23.5986C11.6646 24.2034 12.0631 24.716 12.618 24.9877L12.6633 25.0098C12.7383 25.0465 12.7553 25.146 12.6967 25.2056L10.3047 27.6382L8.89093 26.248L11.5056 23.5889ZM7.50076 27.6618L8.91456 29.052L7.52439 30.4658L6.11059 29.0756L7.50076 27.6618ZM4.72042 30.4894L6.13422 31.8796L4.04896 34.0003C3.921 34.1304 3.71176 34.1322 3.58163 34.0042L3.11036 33.5408L2.6391 33.0774C2.50896 32.9495 2.5072 32.7403 2.63516 32.6101L4.72042 30.4894ZM19.9046 12.76C20.965 12.5743 21.9181 12.6512 22.5881 12.8777C23.2986 13.1179 23.4625 13.4274 23.4844 13.5525C23.5063 13.6776 23.4574 14.0244 22.8708 14.4917C22.3176 14.9325 21.4474 15.3287 20.387 15.5144C19.3266 15.7001 18.3736 15.6232 17.7035 15.3967C16.9931 15.1565 16.8292 14.847 16.8073 14.7219C16.7854 14.5968 16.8343 14.25 17.4209 13.7827C17.974 13.3419 18.8442 12.9458 19.9046 12.76ZM25.6396 17.5814C24.9368 17.5021 23.9891 17.629 22.9922 18.0353C21.9953 18.4417 21.2289 19.0133 20.7818 19.5613C20.3076 20.1424 20.3333 20.4917 20.3812 20.6093C20.4292 20.7269 20.655 20.9947 21.4002 21.0787C22.103 21.158 23.0507 21.0311 24.0476 20.6248C25.0445 20.2185 25.8109 19.6468 26.2581 19.0988C26.7323 18.5177 26.7065 18.1684 26.6586 18.0508C26.6107 17.9332 26.3849 17.6655 25.6396 17.5814ZM28.8338 21.1669C29.9094 21.1228 30.844 21.3248 31.4782 21.6378C32.1508 21.9697 32.2724 22.2982 32.2776 22.425C32.2828 22.5519 32.1884 22.8893 31.5453 23.275C30.9388 23.6388 30.0239 23.9167 28.9483 23.9607C27.8726 24.0048 26.9381 23.8028 26.3038 23.4898C25.6313 23.1579 25.5097 22.8294 25.5045 22.7026C25.4993 22.5757 25.5936 22.2384 26.2367 21.8526C26.8433 21.4888 27.7582 21.2109 28.8338 21.1669ZM34.433 13.0735C33.726 13.0934 32.8054 13.3518 31.8752 13.8937C30.945 14.4356 30.2662 15.1089 29.9002 15.7141C29.512 16.3559 29.5864 16.6981 29.6503 16.8079C29.7142 16.9176 29.9753 17.1511 30.725 17.13C31.432 17.1101 32.3526 16.8517 33.2828 16.3098C34.213 15.768 34.8918 15.0946 35.2578 14.4894C35.646 13.8477 35.5716 13.5054 35.5077 13.3957C35.4437 13.286 35.1827 13.0524 34.433 13.0735ZM19.999 24.9524C21.07 25.0605 21.9667 25.3925 22.5505 25.7918C23.1694 26.2153 23.2434 26.5577 23.2307 26.684C23.2179 26.8104 23.0769 27.131 22.3858 27.4221C21.734 27.6967 20.789 27.8426 19.7179 27.7344C18.6469 27.6262 17.7502 27.2943 17.1665 26.8949C16.5475 26.4715 16.4735 26.1291 16.4862 26.0028C16.499 25.8764 16.64 25.5558 17.3311 25.2646C17.9829 24.9901 18.9279 24.8442 19.999 24.9524Z" fill="#FF0000"/>
</svg>
