<svg width="30" height="30" viewBox="0 0 30 30" fill="none" xmlns="http://www.w3.org/2000/svg">
<path fill-rule="evenodd" clip-rule="evenodd" d="M13.6721 1.73728C13.9687 1.14461 13.7287 0.423727 13.1361 0.127136C12.5434 -0.169455 11.8225 0.0705608 11.5259 0.663226C11.113 1.48844 11.0268 2.25225 11.1811 2.97795C11.3077 3.57313 11.595 4.09518 11.794 4.45662L11.8452 4.54994C12.0705 4.96296 12.2062 5.2433 12.2619 5.54936C12.3115 5.82174 12.3093 6.19305 12.0847 6.75446C11.8385 7.36978 12.1377 8.06816 12.753 8.31433C13.3684 8.56051 14.0667 8.26126 14.3129 7.64594C14.6884 6.70736 14.7612 5.87869 14.6231 5.11982C14.4912 4.39464 14.1768 3.81249 13.952 3.40052C13.6992 2.93722 13.5781 2.71145 13.5286 2.47878C13.4955 2.32324 13.4846 2.11206 13.6721 1.73728ZM8.33655 2.52693C8.91995 2.81863 9.1619 3.52144 8.88685 4.10869C8.91515 4.18337 8.97247 4.28367 9.11947 4.54088L9.14177 4.5799C9.29766 4.85274 9.52717 5.26573 9.64462 5.77982C9.76877 6.32324 9.75736 6.92199 9.53799 7.57981C9.32834 8.20851 8.64873 8.54822 8.02003 8.33856C7.39134 8.12891 7.05164 7.44929 7.26129 6.82059C7.34205 6.57842 7.33073 6.42718 7.30495 6.31435C7.27247 6.17219 7.20204 6.02269 7.05797 5.77053C7.04481 5.74749 7.02978 5.72169 7.01331 5.69341L7.01326 5.69333C6.88966 5.48107 6.68467 5.12906 6.57436 4.75674C6.42211 4.24284 6.42676 3.66329 6.72661 3.06358C7.02299 2.47081 7.74379 2.23054 8.33655 2.52693ZM18.5353 2.52693C19.1264 2.82245 19.3669 3.5399 19.0746 4.13168C19.075 4.14253 19.0774 4.16694 19.0879 4.20891C19.125 4.35735 19.2084 4.53592 19.3722 4.86343L19.3917 4.90225L19.3917 4.90227C19.5285 5.1752 19.7306 5.57856 19.8382 6.00947C19.962 6.50519 19.9835 7.11452 19.6713 7.73774C19.3744 8.33027 18.6534 8.56993 18.0609 8.27306C17.4701 7.97704 17.2301 7.25935 17.523 6.66781C17.5229 6.66473 17.5226 6.66055 17.522 6.65516C17.5205 6.64146 17.5171 6.62049 17.5098 6.59095C17.4728 6.4428 17.3895 6.26435 17.2258 5.937L17.2061 5.8977L17.2061 5.89769C17.0694 5.62492 16.8674 5.22191 16.7597 4.79153C16.6358 4.29619 16.6137 3.68696 16.9254 3.06358C17.2218 2.47081 17.9426 2.23054 18.5353 2.52693ZM2.39996 14.4001C2.39996 13.7374 2.93721 13.2001 3.59994 13.2001H13.4079H23.216C23.8787 13.2001 24.4159 13.7374 24.4159 14.4001V14.6251C24.4159 16.0515 24.1319 17.4642 23.5798 18.7827C23.0277 20.1012 22.218 21.3001 21.1964 22.3106C20.1748 23.3211 18.9613 24.1234 17.6248 24.6709C16.2883 25.2185 14.8553 25.5005 13.4079 25.5005C11.9605 25.5005 10.5276 25.2185 9.1911 24.6709C7.8546 24.1234 6.64108 23.3211 5.61947 22.3106C4.5979 21.3001 3.78825 20.1012 3.2361 18.7827C2.68396 17.4642 2.39996 16.0515 2.39996 14.6251V14.4001ZM3.59994 10.8002C1.61175 10.8002 0 12.4119 0 14.4001V14.6251C0 16.3703 0.347529 18.0981 1.02241 19.7097C1.69728 21.3213 2.68609 22.7847 3.93175 24.0169C5.17738 25.249 6.65544 26.2256 8.28122 26.8917C9.0235 27.1959 9.79002 27.4326 10.5713 27.6H2.39996C1.73723 27.6 1.19998 28.1373 1.19998 28.8C1.19998 29.4627 1.73723 30 2.39996 30H23.9996C24.6623 30 25.1995 29.4627 25.1995 28.8C25.1995 28.1373 24.6623 27.6 23.9996 27.6H16.2446C17.0259 27.4326 17.7924 27.1959 18.5347 26.8917C20.1605 26.2256 21.6385 25.249 22.8842 24.0169C24.1298 22.7847 25.1186 21.3213 25.7935 19.7097C25.8227 19.64 25.8512 19.5702 25.8792 19.5001H26.1841C26.6858 19.5001 27.1825 19.4009 27.6457 19.2084C28.109 19.0158 28.5297 18.7337 28.8838 18.3783C29.238 18.023 29.5187 17.6013 29.7101 17.1375C29.9015 16.6738 30 16.1769 30 15.6751C30 15.1734 29.9015 14.6765 29.7101 14.2127C29.5187 13.749 29.238 13.3273 28.8838 12.9719C28.5297 12.6166 28.109 12.3344 27.6457 12.1419C27.1825 11.9493 26.6858 11.8502 26.1841 11.8502H25.7571C25.106 11.2013 24.2078 10.8002 23.216 10.8002H13.4079H3.59994ZM26.8096 15.7935C26.852 15.3659 26.8625 14.8691 26.8601 14.423C26.9787 14.4879 27.0878 14.5696 27.1839 14.666C27.3155 14.7982 27.4202 14.9553 27.4917 15.1285C27.5632 15.3017 27.6 15.4874 27.6 15.6751C27.6 15.8628 27.5632 16.0486 27.4917 16.2218C27.4202 16.395 27.3155 16.5521 27.1839 16.6842C27.0522 16.8163 26.8961 16.9209 26.7246 16.9922C26.6879 17.0075 26.6506 17.0212 26.6128 17.0332C26.6948 16.6252 26.7709 16.1842 26.8096 15.7935Z" fill="#FF0000"/>
</svg>
