<svg width="27" height="17" viewBox="0 0 27 17" fill="none" xmlns="http://www.w3.org/2000/svg">
<path fill-rule="evenodd" clip-rule="evenodd" d="M22.5156 10.2734C23.3446 11.107 24.2212 11.8918 24.9652 12.8133C25.294 13.2205 25.6049 13.6406 25.8419 14.1124C26.1783 14.7885 25.8734 15.5291 25.2875 15.5699L21.6467 15.5683C20.7069 15.6479 19.958 15.2573 19.3264 14.5947C18.8242 14.067 18.3548 13.5023 17.8699 12.9567C17.6726 12.7321 17.464 12.522 17.216 12.3545C16.7187 12.0223 16.2872 12.1231 16.0029 12.6571C15.7138 13.201 15.6459 13.8049 15.6192 14.4105C15.5796 15.2946 15.3208 15.5258 14.4599 15.5684C12.618 15.6563 10.8712 15.3679 9.24891 14.4122C7.81621 13.569 6.70749 12.377 5.74225 11.0291C3.86114 8.40128 2.42043 5.51634 1.12686 2.54837C0.834483 1.87946 1.04805 1.521 1.7617 1.50808C2.95138 1.48386 4.14059 1.48681 5.3286 1.50644C5.81185 1.51479 6.13249 1.79946 6.31733 2.26999C6.96026 3.89836 7.74669 5.44803 8.73383 6.88588C8.99788 7.26847 9.26637 7.64943 9.64684 7.91954C10.0686 8.21919 10.3909 8.12127 10.5898 7.63446C10.7164 7.32525 10.7718 6.9964 10.7984 6.66583C10.893 5.53425 10.9044 4.40145 10.7414 3.27322C10.6403 2.568 10.2534 2.11203 9.57121 1.97869C9.22343 1.9103 9.27557 1.7786 9.44303 1.57311C9.737 1.22013 10.0136 1 10.5615 1H14.6764C15.3253 1.13048 15.4709 1.43176 15.5591 2.10409L15.5623 6.8175C15.5546 7.07796 15.6889 7.84944 16.1421 8.02033C16.5052 8.14409 16.7471 7.84273 16.965 7.60517C17.9505 6.52734 18.6537 5.25285 19.282 3.93411C19.5602 3.35437 19.8004 2.75214 20.0341 2.14941C20.2063 1.70342 20.4748 1.48378 20.9629 1.49172L24.9245 1.49671C25.0413 1.49671 25.1615 1.49671 25.2767 1.51626C25.9431 1.63504 26.1263 1.93141 25.9193 2.60366C25.5958 3.65688 24.9621 4.53626 24.3447 5.41695C23.6827 6.35973 22.9783 7.26954 22.3213 8.21731C21.7211 9.08515 21.7684 9.52149 22.5156 10.2734Z" stroke="white" stroke-width="2"/>
</svg>
