<svg width="1033" height="676" viewBox="0 0 1033 676" fill="none" xmlns="http://www.w3.org/2000/svg">
<path d="M327.076 272.867C267.622 269.155 169.956 293.708 154.903 245.812C139.85 197.916 160.249 143.568 216.495 127.47C289.942 106.45 414.11 186.988 447.394 204.646C464.161 213.541 442.893 269.339 427.555 274.959C412.218 280.579 391.743 276.904 327.076 272.867Z" stroke="#404040" stroke-width="10"/>
<path d="M464.433 331.18C469.725 339.854 481.187 346.963 495.17 346.93C509.125 346.898 523.872 332.438 517.891 315.699C511.435 297.632 511.181 282.147 523.844 275.2C536.507 268.253 557.324 270.469 574.077 273.222" stroke="#404040" stroke-width="10"/>
<path d="M709.468 488.36C707.782 496.585 702.546 512.109 694.18 514.921C685.813 517.732 665.858 513.59 659.323 527.566C652.788 541.542 658.926 557.194 659.423 570.843" stroke="#404040" stroke-width="10"/>
<path d="M193.094 68.4297L1024.91 515.083" stroke="#404040" stroke-width="10" stroke-linecap="round"/>
<path d="M717.536 557.212C733.319 543.215 769.259 516.048 788.57 498.878C807.881 481.709 840.242 448.811 854.476 435.438" stroke="#404040" stroke-width="10"/>
<path d="M781.608 504.48C783.79 509.594 790.389 519.909 799.32 520.26C810.485 520.7 835.112 509.009 850.903 498.734C866.695 488.46 872.251 477.279 889.469 480.496C906.688 483.713 921.592 492.055 929.016 484.127C934.956 477.784 938.909 470.609 940.142 467.814" stroke="#404040" stroke-width="10"/>
<path d="M75.8867 5.47266C179.279 60.1424 1006.21 504.423 1027.71 516.937" stroke="#404040" stroke-width="10" stroke-miterlimit="10" stroke-linecap="round"/>
<path d="M153.071 243.217C147.579 224.031 141.938 152.882 211.916 129.304C281.893 105.726 382.783 170.233 395.609 176.872C444.085 202.02 477.619 221.444 506.706 237.24C587.502 280.703 723.246 355.867 750.109 369.647C776.972 383.428 801.324 401.559 808.391 360.518C814.462 325.24 824.658 305.868 862.14 310.881C899.622 315.895 916.381 347.13 911.306 372.909C906.232 398.688 886.458 425.762 845.391 439.247C804.323 452.733 728.551 425.373 681.284 399.212C634.016 373.05 598.87 354.338 588.972 348.905C583.637 345.654 577.251 344.602 571.158 345.974C565.065 347.345 559.741 351.031 556.307 356.256C547.661 368.603 551.617 378.092 565.883 396.651C580.149 415.21 607.375 455.059 614.659 464.136C619.471 470.377 626.276 474.774 633.935 476.596C641.594 478.417 649.646 477.551 656.745 474.143C663.778 472.203 671.132 471.714 678.361 472.707C685.589 473.699 692.54 476.152 698.793 479.917C705.046 483.682 710.471 488.681 714.737 494.609C719.004 500.537 722.024 507.272 723.614 514.405C733.786 551.06 709.683 577.755 674.024 574.44C638.366 571.125 607.595 527.799 573.761 486.017C539.927 444.235 464.457 330.905 455.045 317.286C445.632 303.667 432.055 277.73 395.438 277.007C358.821 276.284 323.296 268.385 306.273 278.529C298.813 282.885 292.537 289.013 287.999 296.371C283.46 303.729 280.797 312.093 280.245 320.725C279.984 330.165 282.37 339.49 287.131 347.641C291.893 355.792 298.84 362.443 307.184 366.84C330.413 379.517 387.075 411.315 404.952 421.479C422.83 431.643 423.429 429.115 442.351 454.433C461.272 479.752 524.927 569.129 538.79 588.295C552.654 607.461 564.584 619.154 560.278 632.603C555.952 644.111 549.738 654.815 541.892 664.273C538.271 668.626 529.614 676.326 517.172 661.4C504.731 646.475 379.647 513.792 362.961 495.642C346.275 477.493 299.717 452.543 248.665 491.16C197.614 529.777 91.4861 611.062 75.5762 622.921C59.6664 634.781 41.9441 648.058 20.4262 633.962C-1.09178 619.866 5.11894 601.26 11.6189 576.893C18.1189 552.526 53.0067 416.539 56.6075 403.395C58.2056 394.574 61.8132 386.24 67.1499 379.043C72.4865 371.845 79.4084 365.977 87.3773 361.896C110.949 347.998 146.422 333.768 156.928 297.065C160.727 279.11 159.39 260.445 153.071 243.217Z" stroke="#404040" stroke-width="10" stroke-miterlimit="10"/>
<path d="M213.297 129.103C141.352 156.069 148.814 223.73 154.255 242.938C160.527 260.189 161.819 278.867 157.983 296.822C147.404 333.52 111.938 347.674 88.3615 361.524C80.3922 365.589 73.4647 371.444 68.1174 378.633C62.7702 385.822 59.1474 394.151 57.5306 402.973C53.9035 416.116 18.7401 552.091 12.1911 576.455C5.64202 600.82 -0.604756 619.421 20.856 633.575C42.2688 647.697 59.9704 634.544 75.8622 622.736L75.9687 622.657C91.888 610.828 198.083 529.749 249.166 491.231C300.248 452.713 346.696 477.785 363.321 495.982C379.945 514.18 504.579 647.223 516.972 662.185C529.365 677.147 538.029 669.464 541.657 665.117C549.515 655.672 555.747 644.978 560.095 633.473C564.427 620.028 552.538 608.301 538.735 589.093C524.931 569.884 461.557 480.312 442.716 454.937C423.874 429.562 423.27 432.089 405.436 421.878C387.603 411.668 331.079 379.721 307.906 366.983C299.582 362.565 292.658 355.895 287.921 347.728C283.183 339.562 280.822 330.227 281.105 320.782C281.676 312.147 284.355 303.785 288.906 296.434C293.457 289.082 299.739 282.966 307.201 278.625C324.228 268.515 359.694 276.502 396.268 277.311C408.95 277.829 435.995 275.273 442.716 260.902L442.816 260.686C451.22 242.717 464.077 215.224 442.716 202.703C421.268 190.133 285.243 102.138 213.297 129.103Z" stroke="#FF0000" stroke-width="10" stroke-miterlimit="10"/>
</svg>
