<svg width="1181" height="1177" viewBox="0 0 1181 1177" fill="none" xmlns="http://www.w3.org/2000/svg">
<path d="M126.386 725.197C139.992 729.246 153.38 736.809 158.373 740.085C169.946 746.643 178.442 745.819 188.626 740.014C198.81 734.21 202.552 735.221 233.146 735.83C263.74 736.439 273.582 729.955 303.11 710.503C332.638 691.051 357.425 679.432 372.368 673.616C387.311 667.8 386.607 657.26 375.378 652.185C364.149 647.111 340.677 639.684 299.859 627.877C267.205 618.432 239.578 627.111 230.186 632.461C190.916 652.502 111.287 693.131 106.942 695.318C101.509 698.051 89.2801 701.48 90.6587 709.638C92.0373 717.796 109.379 720.136 126.386 725.197Z" stroke="#FF0000" stroke-width="10"/>
<path d="M265.931 623.835C261.974 608.202 260.49 595.465 270.521 582.383C283.06 566.031 308.545 561.891 318.739 560.167C328.932 558.443 359.174 553.612 374.427 535.214C389.681 516.815 407.969 487.528 410.677 482.761C413.385 477.994 426.253 456.881 463.957 445.231C501.661 433.582 529.23 448.82 543.863 455.927C558.496 463.034 581.638 474.881 603.71 465.309C625.783 455.736 648.17 435.28 653.202 406.364C658.233 377.448 658.542 364.185 666.013 360.767C673.483 357.349 701.686 352.863 711.187 345.699C720.688 338.536 748.517 319.428 768.192 302.04C787.867 284.651 789.22 281.928 796.361 282.931C803.502 283.935 815.735 282.206 822.188 280.151C828.642 278.096 856.84 271.569 863.643 273.593C870.446 275.618 888.842 292.917 894.704 328.609C900.565 364.301 892.439 377.922 900.721 431.631C909.004 485.34 915.71 591.761 917.102 606.04C918.495 620.319 921.627 651.597 898.905 674.093C876.182 696.59 834.059 707.91 818.792 720.527C803.525 733.145 760.447 773.031 710.59 820.755C660.733 868.478 642.75 882.803 610.487 895.46C578.225 908.117 545.252 907.854 535.996 874.21C526.74 840.566 540.623 817.41 521.49 775.628C502.358 733.846 459.417 685.999 453.626 680.572C447.835 675.144 435.916 665.651 426.736 664.992C417.557 664.333 389.182 664.233 378.961 654.056" stroke="#FF0000" stroke-width="10"/>
</svg>
