<svg width="1033" height="676" viewBox="0 0 1033 676" fill="none" xmlns="http://www.w3.org/2000/svg">
<path d="M327.076 272.867C267.622 269.155 169.956 293.708 154.903 245.812C139.85 197.916 160.249 143.568 216.495 127.47C289.942 106.45 414.11 186.988 447.394 204.646C464.161 213.541 442.893 269.339 427.555 274.959C412.218 280.579 391.743 276.904 327.076 272.867Z" stroke="#404040" stroke-width="10"/>
<path d="M464.433 331.18C469.725 339.854 481.187 346.963 495.17 346.93C509.125 346.898 523.872 332.438 517.891 315.699C511.435 297.632 511.181 282.147 523.844 275.2C536.507 268.253 557.324 270.469 574.077 273.222" stroke="#404040" stroke-width="10"/>
<path d="M709.468 488.364C707.782 496.589 702.546 512.113 694.18 514.924C685.813 517.736 665.858 513.594 659.323 527.57C652.788 541.546 658.926 557.198 659.423 570.847" stroke="#404040" stroke-width="10"/>
<path d="M193.094 68.4297L1024.91 515.083" stroke="#404040" stroke-width="10" stroke-linecap="round"/>
<path d="M717.536 557.216C733.319 543.219 769.259 516.052 788.57 498.882C807.881 481.713 840.242 448.815 854.476 435.442" stroke="#404040" stroke-width="10"/>
<path d="M781.608 504.48C783.79 509.594 790.389 519.909 799.32 520.26C810.485 520.7 835.112 509.009 850.903 498.734C866.695 488.46 872.251 477.279 889.469 480.496C906.688 483.713 921.592 492.055 929.016 484.127C934.956 477.784 938.909 470.609 940.142 467.814" stroke="#404040" stroke-width="10"/>
<path d="M75.8867 5.47266C179.279 60.1424 1006.21 504.423 1027.71 516.937" stroke="#404040" stroke-width="10" stroke-miterlimit="10" stroke-linecap="round"/>
<path d="M153.071 243.221C147.579 224.035 141.938 152.886 211.916 129.308C281.893 105.73 382.783 170.237 395.609 176.876C444.085 202.024 477.619 221.447 506.706 237.244C587.502 280.707 723.246 355.871 750.109 369.651C776.972 383.432 801.324 401.563 808.391 360.522C814.462 325.244 824.658 305.872 862.14 310.885C899.622 315.899 916.381 347.134 911.306 372.913C906.232 398.692 886.458 425.766 845.391 439.251C804.323 452.737 728.551 425.377 681.284 399.216C634.016 373.054 598.87 354.342 588.972 348.909C583.637 345.657 577.251 344.606 571.158 345.978C565.065 347.349 559.741 351.035 556.307 356.26C547.661 368.607 551.617 378.096 565.883 396.655C580.149 415.214 607.375 455.063 614.659 464.14C619.471 470.381 626.276 474.778 633.935 476.6C641.594 478.421 649.646 477.555 656.745 474.147C663.778 472.206 671.132 471.718 678.361 472.711C685.589 473.703 692.54 476.156 698.793 479.921C705.046 483.686 710.471 488.684 714.737 494.613C719.004 500.541 722.024 507.276 723.614 514.409C733.786 551.064 709.683 577.759 674.024 574.444C638.366 571.128 607.595 527.803 573.761 486.021C539.927 444.239 464.457 330.909 455.045 317.29C445.632 303.671 432.055 277.734 395.438 277.011C358.821 276.288 323.296 268.389 306.273 278.533C298.813 282.889 292.537 289.017 287.999 296.375C283.46 303.733 280.797 312.097 280.245 320.729C279.984 330.169 282.37 339.494 287.131 347.645C291.893 355.796 298.84 362.447 307.184 366.843C330.413 379.521 387.075 411.319 404.952 421.483C422.83 431.647 423.429 429.119 442.351 454.437C461.272 479.755 524.927 569.133 538.79 588.299C552.654 607.465 564.584 619.158 560.278 632.607C555.952 644.115 549.738 654.819 541.892 664.277C538.271 668.63 529.614 676.33 517.172 661.404C504.731 646.479 379.647 513.795 362.961 495.646C346.275 477.497 299.717 452.547 248.665 491.164C197.614 529.781 91.4861 611.066 75.5762 622.925C59.6664 634.784 41.9441 648.062 20.4262 633.966C-1.09178 619.87 5.11894 601.264 11.6189 576.897C18.1189 552.53 53.0067 416.543 56.6075 403.399C58.2056 394.577 61.8132 386.244 67.1499 379.047C72.4865 371.849 79.4084 365.981 87.3773 361.899C110.949 348.001 146.422 333.772 156.928 297.069C160.727 279.113 159.39 260.449 153.071 243.221Z" stroke="#FF0000" stroke-width="10" stroke-miterlimit="10"/>
</svg>
