<svg width="1034" height="676" viewBox="0 0 1034 676" fill="none" xmlns="http://www.w3.org/2000/svg">
<path d="M328.08 272.867C268.626 269.155 170.96 293.708 155.907 245.812C140.854 197.916 161.253 143.568 217.499 127.47C290.946 106.45 415.114 186.988 448.398 204.646C465.165 213.541 443.897 269.339 428.559 274.959C413.222 280.579 392.746 276.904 328.08 272.867Z" stroke="#404040" stroke-width="10"/>
<path d="M465.437 331.18C470.729 339.854 482.191 346.963 496.174 346.93C510.129 346.898 524.876 332.438 518.895 315.699C512.439 297.632 512.184 282.147 524.848 275.2C537.511 268.253 558.328 270.469 575.081 273.222" stroke="#404040" stroke-width="10"/>
<path d="M710.472 488.36C708.786 496.585 703.55 512.109 695.184 514.921C686.817 517.732 666.862 513.59 660.327 527.566C653.792 541.542 659.93 557.194 660.427 570.843" stroke="#404040" stroke-width="10"/>
<path d="M194.098 68.4297L1025.91 515.083" stroke="#404040" stroke-width="10" stroke-linecap="round"/>
<path d="M718.54 557.212C734.323 543.215 770.263 516.048 789.574 498.878C808.885 481.709 841.246 448.811 855.48 435.438" stroke="#404040" stroke-width="10"/>
<path d="M782.608 504.48C784.79 509.594 791.389 519.909 800.32 520.26C811.485 520.7 836.112 509.009 851.903 498.734C867.695 488.46 873.251 477.279 890.469 480.496C907.688 483.713 922.592 492.055 930.016 484.127C935.956 477.784 939.909 470.609 941.142 467.814" stroke="#404040" stroke-width="10"/>
<path d="M76.8906 5.47266C180.283 60.1424 1007.21 504.423 1028.71 516.937" stroke="#404040" stroke-width="10" stroke-miterlimit="10" stroke-linecap="round"/>
<path d="M154.074 243.217C148.583 224.031 142.942 152.882 212.92 129.304C282.897 105.726 383.787 170.233 396.613 176.872C445.089 202.02 478.623 221.444 507.71 237.24C588.506 280.703 724.25 355.867 751.113 369.647C777.976 383.428 802.328 401.559 809.395 360.518C815.466 325.24 825.662 305.868 863.144 310.881C900.625 315.895 917.385 347.13 912.31 372.909C907.236 398.688 887.462 425.762 846.395 439.247C805.327 452.733 729.555 425.373 682.288 399.212C635.02 373.05 599.874 354.338 589.976 348.905C584.641 345.654 578.255 344.602 572.162 345.974C566.069 347.345 560.745 351.031 557.311 356.256C548.665 368.603 552.621 378.092 566.887 396.651C581.152 415.21 608.379 455.059 615.663 464.136C620.475 470.377 627.279 474.774 634.939 476.596C642.598 478.417 650.649 477.551 657.748 474.143C664.782 472.203 672.136 471.714 679.364 472.707C686.593 473.699 693.544 476.152 699.797 479.917C706.05 483.682 711.475 488.68 715.741 494.609C720.008 500.537 723.028 507.272 724.618 514.405C734.79 551.06 710.687 577.755 675.028 574.44C639.37 571.125 608.599 527.799 574.765 486.017C540.93 444.235 465.461 330.905 456.048 317.286C446.636 303.667 433.059 277.73 396.442 277.007C359.824 276.284 324.3 268.385 307.277 278.529C299.817 282.885 293.541 289.013 289.003 296.371C284.464 303.729 281.801 312.093 281.249 320.725C280.988 330.165 283.374 339.49 288.135 347.641C292.897 355.792 299.844 362.443 308.188 366.84C331.417 379.517 388.079 411.315 405.956 421.479C423.834 431.643 424.433 429.115 443.355 454.433C462.276 479.751 525.931 569.129 539.794 588.295C553.658 607.461 565.588 619.154 561.281 632.603C556.956 644.111 550.742 654.815 542.896 664.273C539.275 668.626 530.618 676.326 518.176 661.4C505.734 646.475 380.651 513.792 363.965 495.642C347.279 477.493 300.721 452.543 249.669 491.16C198.618 529.777 92.49 611.062 76.5801 622.921C60.6703 634.781 42.9481 648.058 21.4301 633.962C-0.0878774 619.866 6.12284 601.26 12.6228 576.893C19.1228 552.526 54.0106 416.539 57.6114 403.395C59.2096 394.574 62.8171 386.24 68.1538 379.043C73.4904 371.845 80.4123 365.977 88.3812 361.896C111.952 347.998 147.426 333.768 157.932 297.065C161.731 279.11 160.394 260.445 154.074 243.217Z" stroke="#404040" stroke-width="10" stroke-miterlimit="10"/>
<path d="M213.015 127.069C142.82 150.541 148.309 221.877 153.769 241.122C160.062 258.406 161.359 277.119 157.509 295.109C146.893 331.878 111.305 346.058 87.6468 359.935C79.6499 364.008 72.6983 369.874 67.3326 377.077C61.9668 384.279 58.3315 392.625 56.7091 401.464C53.0694 414.632 17.7842 550.867 11.2125 575.278C4.64078 599.689 -1.62763 618.326 19.9074 632.506C41.3945 646.655 59.1573 633.478 75.1042 621.647L75.2111 621.568C91.1854 609.717 197.749 528.482 249.008 489.89C300.268 451.299 346.876 476.419 363.558 494.651C380.241 512.883 505.306 646.181 517.741 661.172C530.177 676.163 538.872 668.464 542.512 664.109C550.398 654.647 556.651 643.931 561.014 632.405C565.361 618.933 553.431 607.184 539.58 587.939C525.729 568.694 462.134 478.951 443.228 453.527C424.322 428.103 423.715 430.635 405.82 420.405C387.924 410.175 331.205 378.167 307.951 365.405C299.598 360.978 292.651 354.295 287.897 346.113C283.143 337.931 280.774 328.578 281.058 319.115C281.631 310.463 284.319 302.086 288.886 294.72C293.452 287.354 299.757 281.227 307.244 276.877C324.33 266.748 359.919 274.75 396.619 275.56C433.32 276.371 446.868 302.402 456.27 316.076C465.673 329.751 541.054 443.532 574.869 485.495C608.685 527.457 638.327 571.147 675.16 574.366C711.993 577.586 719.606 560.93 769.167 517.547C818.728 474.165 842.366 444.777 869.875 428.917C897.383 413.057 908.315 398.729 913.461 372.9C918.607 347.071 901.882 315.72 864.324 310.607C826.767 305.493 816.503 324.889 810.335 360.239C803.157 401.362 778.791 383.13 751.897 369.254C725.004 355.377 589.12 279.713 508.238 235.956C479.12 220.053 445.553 200.505 397.024 175.182C384.184 168.497 283.21 103.598 213.015 127.069Z" stroke="#FF0000" stroke-width="10" stroke-miterlimit="10"/>
</svg>
