<svg width="1033" height="676" viewBox="0 0 1033 676" fill="none" xmlns="http://www.w3.org/2000/svg">
<path d="M327.076 272.867C267.622 269.155 169.956 293.708 154.903 245.812C139.85 197.916 160.249 143.568 216.495 127.47C289.942 106.45 414.11 186.988 447.394 204.646C464.161 213.541 442.893 269.339 427.555 274.959C412.218 280.579 391.743 276.904 327.076 272.867Z" stroke="#404040" stroke-width="10"/>
<path d="M464.433 331.18C469.725 339.854 481.187 346.963 495.17 346.93C509.125 346.898 523.872 332.438 517.891 315.699C511.435 297.632 511.181 282.147 523.844 275.2C536.507 268.253 557.324 270.469 574.077 273.222" stroke="#404040" stroke-width="10"/>
<path d="M709.468 488.36C707.782 496.585 702.546 512.109 694.18 514.921C685.813 517.732 665.858 513.59 659.323 527.566C652.788 541.542 658.926 557.194 659.423 570.843" stroke="#404040" stroke-width="10"/>
<path d="M193.094 68.4297L1024.91 515.083" stroke="#404040" stroke-width="10" stroke-linecap="round"/>
<path d="M717.536 557.212C733.319 543.215 769.259 516.048 788.57 498.878C807.881 481.709 840.242 448.811 854.476 435.438" stroke="#404040" stroke-width="10"/>
<path d="M781.608 504.48C783.79 509.594 790.389 519.909 799.32 520.26C810.485 520.7 835.112 509.009 850.903 498.734C866.695 488.46 872.251 477.279 889.469 480.496C906.688 483.713 921.592 492.055 929.016 484.127C934.956 477.784 938.909 470.609 940.142 467.814" stroke="#404040" stroke-width="10"/>
<path d="M75.8867 5.47266C179.279 60.1424 1006.21 504.423 1027.71 516.937" stroke="#404040" stroke-width="10" stroke-miterlimit="10" stroke-linecap="round"/>
<path d="M153.071 243.217C147.579 224.031 141.938 152.882 211.916 129.304C281.893 105.726 382.783 170.233 395.609 176.872C444.085 202.02 477.619 221.444 506.706 237.24C587.502 280.703 723.246 355.867 750.109 369.647C776.972 383.428 801.324 401.559 808.391 360.518C814.462 325.24 824.658 305.868 862.14 310.881C899.622 315.895 916.381 347.13 911.306 372.909C906.232 398.688 886.458 425.762 845.391 439.247C804.323 452.733 728.551 425.373 681.284 399.212C634.016 373.05 598.87 354.338 588.972 348.905C583.637 345.654 577.251 344.602 571.158 345.974C565.065 347.345 559.741 351.031 556.307 356.256C547.661 368.603 551.617 378.092 565.883 396.651C580.149 415.21 607.375 455.059 614.659 464.136C619.471 470.377 626.276 474.774 633.935 476.596C641.594 478.417 649.646 477.551 656.745 474.143C663.778 472.203 671.132 471.714 678.361 472.707C685.589 473.699 692.54 476.152 698.793 479.917C705.046 483.682 710.471 488.68 714.737 494.609C719.004 500.537 722.024 507.272 723.614 514.405C733.786 551.06 709.683 577.755 674.024 574.44C638.366 571.125 607.595 527.799 573.761 486.017C539.927 444.235 464.457 330.905 455.045 317.286C445.632 303.667 432.055 277.73 395.438 277.007C358.821 276.284 323.296 268.385 306.273 278.529C298.813 282.885 292.537 289.013 287.999 296.371C283.46 303.729 280.797 312.093 280.245 320.725C279.984 330.165 282.37 339.49 287.131 347.641C291.893 355.792 298.84 362.443 307.184 366.84C330.413 379.517 387.075 411.315 404.952 421.479C422.83 431.643 423.429 429.115 442.351 454.433C461.272 479.751 524.927 569.129 538.79 588.295C552.654 607.461 564.584 619.154 560.278 632.603C555.952 644.111 549.738 654.815 541.892 664.273C538.271 668.626 529.614 676.326 517.172 661.4C504.731 646.475 379.647 513.792 362.961 495.642C346.275 477.493 299.717 452.543 248.665 491.16C197.614 529.777 91.4861 611.062 75.5762 622.921C59.6664 634.781 41.9441 648.058 20.4262 633.962C-1.09178 619.866 5.11894 601.26 11.6189 576.893C18.1189 552.526 53.0067 416.539 56.6075 403.395C58.2056 394.574 61.8132 386.24 67.1499 379.043C72.4865 371.845 79.4084 365.977 87.3773 361.896C110.949 347.998 146.422 333.768 156.928 297.065C160.727 279.11 159.39 260.445 153.071 243.217Z" stroke="#404040" stroke-width="10" stroke-miterlimit="10"/>
<path d="M211.81 128.933C141.684 152.351 147.702 217.399 151.652 235.551C155.602 253.702 164.695 264.872 189.847 272.318C214.999 279.765 278.91 271.451 303.497 272.318C343.088 273.714 358.57 276.277 395.235 277.086C431.9 277.894 445.434 303.866 454.828 317.509C464.221 331.152 539.528 444.675 573.311 486.542C607.094 528.408 637.805 571.812 673.503 575.211C709.202 578.609 733.399 551.967 723.299 515.282C721.723 508.145 718.715 501.402 714.456 495.463C710.198 489.524 704.778 484.512 698.525 480.732C692.272 476.952 685.317 474.482 678.082 473.473C670.846 472.463 663.481 472.935 656.433 474.859C649.317 478.251 641.253 479.098 633.588 477.259C625.922 475.419 619.119 471.005 614.314 464.753C607.042 455.657 579.872 415.739 565.63 397.144C551.388 378.549 547.449 369.05 556.136 356.72C559.586 351.503 564.926 347.829 571.03 346.471C577.134 345.114 583.527 346.18 588.861 349.444C598.76 354.902 633.909 373.699 681.18 399.974C728.45 426.249 804.26 453.789 845.413 440.398C886.567 427.006 906.43 399.974 911.572 374.203C916.713 348.433 900.004 317.154 862.483 312.052C824.963 306.95 814.708 326.301 808.547 361.571C801.375 402.601 777.033 384.41 750.166 370.565C723.299 356.72 587.548 281.229 506.744 237.571C477.655 221.705 444.121 202.201 395.639 176.936C382.811 170.266 281.936 105.514 211.81 128.933Z" stroke="#FF0000" stroke-width="10" stroke-miterlimit="10"/>
</svg>
