<svg width="43" height="25" viewBox="0 0 43 25" version="1.1" xmlns="http://www.w3.org/2000/svg" xmlns:xlink="http://www.w3.org/1999/xlink">
<title>360</title>
<desc>Created using Figma</desc>
<g id="Canvas" transform="translate(46822 24768)">
<g id="360">
<g id="360">
<use xlink:href="#path0_fill" transform="translate(-46816 -24763)" fill="#FFFFFF"/>
</g>
<g id="Ellipse">
<mask id="mask0_outline_ins">
<use xlink:href="#path1_fill" fill="white" transform="translate(-46785 -24768)"/>
</mask>
<g mask="url(#mask0_outline_ins)">
<use xlink:href="#path2_stroke_2x" transform="translate(-46785 -24768)" fill="#FFFFFF"/>
</g>
</g>
<g id="Ellipse 2">
<use xlink:href="#path3_stroke" transform="translate(-46819.2 -24747.7)" fill="#FFFFFF"/>
</g>
<g id="Vector">
<use xlink:href="#path4_fill" transform="translate(-46821 -24749)" fill="#FFFFFF"/>
<use xlink:href="#path5_stroke" transform="translate(-46821 -24749)" fill="#FFFFFF"/>
</g>
<g id="Vector">
<use xlink:href="#path4_fill" transform="matrix(-1 0 0 1 -46780 -24749)" fill="#FFFFFF"/>
<use xlink:href="#path5_stroke" transform="matrix(-1 0 0 1 -46780 -24749)" fill="#FFFFFF"/>
</g>
</g>
</g>
<defs>
<path id="path0_fill" d="M 3.9502 5.47656L 5.30371 5.47656C 5.94824 5.47656 6.42578 5.31543 6.73633 4.99316C 7.04687 4.6709 7.20215 4.24316 7.20215 3.70996C 7.20215 3.19434 7.04687 2.79297 6.73633 2.50586C 6.43164 2.21875 6.00977 2.0752 5.4707 2.0752C 4.98437 2.0752 4.57715 2.20996 4.24902 2.47949C 3.9209 2.74316 3.75684 3.08887 3.75684 3.5166L 1.2168 3.5166C 1.2168 2.84863 1.39551 2.25098 1.75293 1.72363C 2.11621 1.19043 2.62012 0.774414 3.26465 0.475586C 3.91504 0.176758 4.62988 0.0273438 5.40918 0.0273438C 6.7627 0.0273438 7.82324 0.352539 8.59082 1.00293C 9.3584 1.64746 9.74219 2.53809 9.74219 3.6748C 9.74219 4.26074 9.56348 4.7998 9.20605 5.29199C 8.84863 5.78418 8.37988 6.16211 7.7998 6.42578C 8.52051 6.68359 9.05664 7.07031 9.4082 7.58594C 9.76562 8.10156 9.94434 8.71094 9.94434 9.41406C 9.94434 10.5508 9.52832 11.4619 8.69629 12.1475C 7.87012 12.833 6.77441 13.1758 5.40918 13.1758C 4.13184 13.1758 3.08594 12.8389 2.27148 12.165C 1.46289 11.4912 1.05859 10.6006 1.05859 9.49316L 3.59863 9.49316C 3.59863 9.97363 3.77734 10.3662 4.13477 10.6709C 4.49805 10.9756 4.94336 11.1279 5.4707 11.1279C 6.07422 11.1279 6.5459 10.9697 6.88574 10.6533C 7.23145 10.3311 7.4043 9.90625 7.4043 9.37891C 7.4043 8.10156 6.70117 7.46289 5.29492 7.46289L 3.9502 7.46289L 3.9502 5.47656ZM 18.5928 0.0712891L 18.5928 2.16309L 18.3467 2.16309C 17.1982 2.18066 16.2725 2.47949 15.5693 3.05957C 14.8721 3.63965 14.4531 4.44531 14.3125 5.47656C 14.9922 4.78516 15.8506 4.43945 16.8877 4.43945C 18.001 4.43945 18.8857 4.83789 19.542 5.63477C 20.1982 6.43164 20.5264 7.48047 20.5264 8.78125C 20.5264 9.61328 20.3447 10.3662 19.9814 11.04C 19.624 11.7139 19.1143 12.2383 18.4521 12.6133C 17.7959 12.9883 17.0518 13.1758 16.2197 13.1758C 14.8721 13.1758 13.7822 12.707 12.9502 11.7695C 12.124 10.832 11.7109 9.58105 11.7109 8.0166L 11.7109 7.10254C 11.7109 5.71387 11.9717 4.48926 12.4932 3.42871C 13.0205 2.3623 13.7734 1.53906 14.752 0.958984C 15.7363 0.373047 16.876 0.0771481 18.1709 0.0712891L 18.5928 0.0712891ZM 16.1143 6.47852C 15.7041 6.47852 15.332 6.58691 14.998 6.80371C 14.6641 7.01465 14.418 7.2959 14.2598 7.64746L 14.2598 8.4209C 14.2598 9.27051 14.4268 9.93555 14.7607 10.416C 15.0947 10.8906 15.5635 11.1279 16.167 11.1279C 16.7119 11.1279 17.1514 10.9141 17.4854 10.4863C 17.8252 10.0527 17.9951 9.49316 17.9951 8.80762C 17.9951 8.11035 17.8252 7.54785 17.4854 7.12012C 17.1455 6.69238 16.6885 6.47852 16.1143 6.47852ZM 30.6514 7.70898C 30.6514 9.47852 30.2852 10.832 29.5527 11.7695C 28.8203 12.707 27.748 13.1758 26.3359 13.1758C 24.9414 13.1758 23.875 12.7158 23.1367 11.7959C 22.3984 10.876 22.0205 9.55762 22.0029 7.84082L 22.0029 5.48535C 22.0029 3.69824 22.3721 2.3418 23.1104 1.41602C 23.8545 0.490234 24.9238 0.0273438 26.3184 0.0273438C 27.7129 0.0273438 28.7793 0.487305 29.5176 1.40723C 30.2559 2.32129 30.6338 3.63672 30.6514 5.35352L 30.6514 7.70898ZM 28.1113 5.125C 28.1113 4.06445 27.9648 3.29394 27.6719 2.81348C 27.3848 2.32715 26.9336 2.08398 26.3184 2.08398C 25.7207 2.08398 25.2783 2.31543 24.9912 2.77832C 24.71 3.23535 24.5605 3.95312 24.543 4.93164L 24.543 8.04297C 24.543 9.08594 24.6836 9.8623 24.9648 10.3721C 25.252 10.876 25.709 11.1279 26.3359 11.1279C 26.957 11.1279 27.4053 10.8848 27.6807 10.3984C 27.9561 9.91211 28.0996 9.16797 28.1113 8.16602L 28.1113 5.125Z"/>
<path id="path1_fill" d="M 6 3C 6 4.65685 4.65685 6 3 6C 1.34315 6 0 4.65685 0 3C 0 1.34315 1.34315 0 3 0C 4.65685 0 6 1.34315 6 3Z"/>
<path id="path2_stroke_2x" d="M 4 3C 4 3.55228 3.55228 4 3 4L 3 8C 5.76142 8 8 5.76142 8 3L 4 3ZM 3 4C 2.44772 4 2 3.55228 2 3L -2 3C -2 5.76142 0.238576 8 3 8L 3 4ZM 2 3C 2 2.44772 2.44772 2 3 2L 3 -2C 0.238576 -2 -2 0.238576 -2 3L 2 3ZM 3 2C 3.55228 2 4 2.44772 4 3L 8 3C 8 0.238576 5.76142 -2 3 -2L 3 2Z"/>
<path id="path3_stroke" d="M 36.4084 0C 36.4084 -0.11808 36.4737 -0.114454 36.3366 0.0168514C 36.1989 0.148835 35.9411 0.323877 35.518 0.519943C 34.6776 0.909459 33.3981 1.28591 31.7377 1.6114C 28.4334 2.25915 23.8249 2.66667 18.7042 2.66667L 18.7042 4.66667C 23.9136 4.66667 28.6571 4.25337 32.1224 3.57405C 33.8469 3.236 35.3065 2.82235 36.359 2.33452C 36.8825 2.09191 37.3596 1.80647 37.7202 1.46107C 38.0814 1.11499 38.4084 0.624341 38.4084 0L 36.4084 0ZM 18.7042 2.66667C 13.5836 2.66667 8.97498 2.25915 5.67071 1.6114C 4.01033 1.28591 2.7308 0.909459 1.89038 0.519943C 1.46734 0.323877 1.20955 0.148835 1.07178 0.0168515C 0.934719 -0.114454 1 -0.11808 1 0L -1 0C -1 0.624341 -0.673027 1.11499 -0.311776 1.46107C 0.0487676 1.80647 0.525911 2.09191 1.04936 2.33452C 2.10191 2.82235 3.56154 3.236 5.28596 3.57405C 8.75128 4.25337 13.4948 4.66667 18.7042 4.66667L 18.7042 2.66667Z"/>
<path id="path4_fill" d="M 0 0C 0 0 0 1.66667 0.795924 4C 1.43266 3.6 3 2 3.97937 0.333333C 1.5 0 0 0 0 0Z"/>
<path id="path5_stroke" d="M 0.795924 4L 0.322698 4.16142L 0.526735 4.75958L 1.0619 4.42339L 0.795924 4ZM 0 0L 0 -0.5L -0.5 -0.5L -0.5 0L 0 0ZM 3.97937 0.333333L 4.41045 0.586646L 4.79159 -0.0619677L 4.04599 -0.162208L 3.97937 0.333333ZM 1.26915 3.83858C 0.882843 2.70608 0.690413 1.73739 0.59463 1.05545C 0.546757 0.714619 0.523092 0.44587 0.511398 0.264675C 0.505553 0.174094 0.502703 0.105447 0.501314 0.0606743C 0.50062 0.0382896 0.500292 0.0218786 0.500136 0.0116836C 0.500059 0.00658637 0.500025 0.00304379 0.50001 0.0010862C 0.500003 0.000107434 0.5 -0.000475007 0.5 -0.00065733C 0.499999 -0.000748488 0.499999 -0.000739607 0.499999 -0.000630214C 0.5 -0.000575516 0.5 -0.00049569 0.5 -0.000390674C 0.5 -0.000338197 0.5 -0.00024046 0.5 -0.000214251C 0.5 -0.000110301 0.5 0 0 0C -0.5 0 -0.5 0.000123017 -0.5 0.000252383C -0.5 0.000304008 -0.5 0.000439862 -0.5 0.000543143C -0.5 0.000749764 -0.499999 0.000981941 -0.499999 0.00123961C -0.499998 0.00175495 -0.499996 0.00237228 -0.499993 0.00309111C -0.499988 0.00452876 -0.499978 0.00637246 -0.499962 0.00861839C -0.499928 0.0131102 -0.499865 0.0192112 -0.499748 0.0268906C -0.499514 0.042249 -0.499066 0.0639239 -0.498205 0.0916694C -0.496485 0.147157 -0.493116 0.226948 -0.486526 0.329075C -0.473347 0.533296 -0.447267 0.827048 -0.395649 1.19455C -0.292451 1.92928 -0.0869191 2.96059 0.322698 4.16142L 1.26915 3.83858ZM 0 0C 0 0.5 -4.85498e-05 0.5 -9.13815e-05 0.5C -9.80401e-05 0.5 -0.00013519 0.5 -0.000148528 0.5C -0.000175218 0.5 -0.000179101 0.5 -0.000160207 0.5C -0.000122418 0.5 6.47731e-06 0.5 0.000226232 0.500001C 0.000665743 0.500001 0.00146869 0.500003 0.00263308 0.500007C 0.00496187 0.500015 0.0087364 0.500033 0.0139408 0.500069C 0.0243497 0.500142 0.0404777 0.500292 0.0621979 0.500601C 0.105639 0.501217 0.171445 0.502467 0.258602 0.504998C 0.432922 0.510059 0.692613 0.520246 1.02956 0.540744C 1.70351 0.581743 2.68619 0.663974 3.91274 0.828875L 4.04599 -0.162208C 2.79317 -0.33064 1.78618 -0.415076 1.09028 -0.457411C 0.742308 -0.478579 0.472039 -0.489226 0.287628 -0.494581C 0.19542 -0.497259 0.124669 -0.498613 0.0763934 -0.499299C 0.0522554 -0.499641 0.0337356 -0.499817 0.0209612 -0.499906C 0.014574 -0.499951 0.00962302 -0.499975 0.00612421 -0.499987C 0.0043748 -0.499993 0.00298842 -0.499996 0.00196706 -0.499998C 0.00145638 -0.499999 0.00103695 -0.499999 0.000709027 -0.5C 0.000545064 -0.5 0.000403976 -0.5 0.000285795 -0.5C 0.000226712 -0.5 0.000155245 -0.5 0.000125706 -0.5C 5.99939e-05 -0.5 0 -0.5 0 0ZM 3.54828 0.0800204C 3.08003 0.876884 2.4656 1.66633 1.88789 2.30676C 1.30056 2.95787 0.787339 3.41492 0.52995 3.57661L 1.0619 4.42339C 1.44125 4.18508 2.03006 3.64213 2.63043 2.97657C 3.24042 2.30034 3.89934 1.45645 4.41045 0.586646L 3.54828 0.0800204Z"/>
</defs>
</svg>
