<svg width="18" height="9" viewBox="0 0 18 9" version="1.1" xmlns="http://www.w3.org/2000/svg" xmlns:xlink="http://www.w3.org/1999/xlink">
<title>Group</title>
<desc>Created using Figma</desc>
<g id="Canvas" transform="translate(46150 19377)">
<g id="Group">
<g id="Arrow">
<use xlink:href="#path0_stroke" transform="matrix(-1 1.2507e-16 -1.19913e-16 -1 -46133 -19372.5)" fill="#FFFFFF"/>
</g>
<g id="Vector">
<use xlink:href="#path1_stroke" transform="translate(-46133 -19376.1)" fill="#FFFFFF"/>
</g>
</g>
</g>
<defs>
<path id="path0_stroke" d="M 16.3536 0.353553C 16.5488 0.158291 16.5488 -0.158291 16.3536 -0.353553L 13.1716 -3.53553C 12.9763 -3.7308 12.6597 -3.7308 12.4645 -3.53553C 12.2692 -3.34027 12.2692 -3.02369 12.4645 -2.82843L 15.2929 0L 12.4645 2.82843C 12.2692 3.02369 12.2692 3.34027 12.4645 3.53553C 12.6597 3.7308 12.9763 3.7308 13.1716 3.53553L 16.3536 0.353553ZM 0 0.5L 16 0.5L 16 -0.5L 0 -0.5L 0 0.5Z"/>
<path id="path1_stroke" d="M -0.5 3.57447C -0.5 3.85061 -0.276142 4.07447 0 4.07447C 0.276142 4.07447 0.5 3.85061 0.5 3.57447L -0.5 3.57447ZM 0.5 0C 0.5 -0.276142 0.276142 -0.5 0 -0.5C -0.276142 -0.5 -0.5 -0.276142 -0.5 0L 0.5 0ZM 0.5 3.57447L 0.5 0L -0.5 0L -0.5 3.57447L 0.5 3.57447Z"/>
</defs>
</svg>
