<svg width="58" height="45" viewBox="0 0 58 45" version="1.1" xmlns="http://www.w3.org/2000/svg" xmlns:xlink="http://www.w3.org/1999/xlink">
<title>Group 28</title>
<desc>Created using Figma</desc>
<g id="Canvas" transform="translate(17846 22518)">
<g id="Group 28">
<g id="Subtract">
<use xlink:href="#path0_fill" transform="translate(-17846 -22518)" fill="#FFFFFF"/>
</g>
</g>
</g>
<defs>
<path id="path0_fill" fill-rule="evenodd" d="M 0 2C 0 0.894531 0.894531 0 2 0L 56 0C 57.1055 0 58 0.894531 58 2L 58 45L 0 45L 0 2ZM 5.80078 21.3223C 5.80078 20.7695 6.25 20.3223 6.80078 20.3223L 51.1992 20.3223C 51.7539 20.3223 52.1992 20.7695 52.1992 21.3223L 52.1992 22.2246C 52.1992 22.7773 51.7539 23.2246 51.1992 23.2246L 6.80078 23.2246C 6.25 23.2246 5.80078 22.7773 5.80078 22.2246L 5.80078 21.3223ZM 6.80078 26.1289C 6.25 26.1289 5.80078 26.5762 5.80078 27.1289L 5.80078 28.0312C 5.80078 28.584 6.25 29.0312 6.80078 29.0312L 51.1992 29.0312C 51.7539 29.0312 52.1992 28.584 52.1992 28.0312L 52.1992 27.1289C 52.1992 26.5762 51.7539 26.1289 51.1992 26.1289L 6.80078 26.1289ZM 5.80078 32.9355C 5.80078 32.3828 6.25 31.9355 6.80078 31.9355L 51.1992 31.9355C 51.4414 31.9355 51.6641 32.0215 51.8359 32.1641C 52.0586 32.3477 52.1992 32.625 52.1992 32.9355L 52.1992 33.8379C 52.1992 34.3906 51.7539 34.8379 51.1992 34.8379L 6.80078 34.8379C 6.25 34.8379 5.80078 34.3906 5.80078 33.8379L 5.80078 32.9355ZM 6.26562 37.8965C 6.16016 37.9648 6.06641 38.0527 5.99219 38.1543C 5.91797 38.2539 5.86328 38.3691 5.83203 38.4941C 5.8125 38.5742 5.80078 38.6562 5.80078 38.7422L 5.80078 39.6445C 5.80078 39.8613 5.86719 40.0605 5.98438 40.2246C 6.0625 40.334 6.16406 40.4277 6.27734 40.498C 6.42969 40.5918 6.60938 40.6445 6.80078 40.6445L 51.1992 40.6445C 51.7539 40.6445 52.1992 40.1973 52.1992 39.6445L 52.1992 38.7422C 52.1992 38.3184 51.9336 37.9551 51.5625 37.8086C 51.4922 37.7832 51.4219 37.7637 51.3438 37.7539C 51.2969 37.7461 51.25 37.7422 51.1992 37.7422L 6.80078 37.7422C 6.60547 37.7422 6.42188 37.7988 6.26562 37.8965ZM 5.80078 6.80664C 5.80078 6.25391 6.25 5.80664 6.80078 5.80664L 25.1016 5.80664C 25.6523 5.80664 26.1016 6.25391 26.1016 6.80664L 26.1016 13.5156C 26.1016 14.0684 25.6523 14.5156 25.1016 14.5156L 6.80078 14.5156C 6.25 14.5156 5.80078 14.0684 5.80078 13.5156L 5.80078 6.80664ZM 32.8984 5.80664C 32.3477 5.80664 31.8984 6.25391 31.8984 6.80664L 31.8984 13.5156C 31.8984 14.0684 32.3477 14.5156 32.8984 14.5156L 51.1992 14.5156C 51.75 14.5156 52.1992 14.0684 52.1992 13.5156L 52.1992 6.80664C 52.1992 6.25391 51.75 5.80664 51.1992 5.80664L 32.8984 5.80664Z"/>
</defs>
</svg>
