<svg width="115" height="70" viewBox="0 0 115 70" version="1.1" xmlns="http://www.w3.org/2000/svg" xmlns:xlink="http://www.w3.org/1999/xlink">
<title>track A</title>
<desc>Created using Figma</desc>
<g id="Canvas" transform="translate(43826 22664)">
<g id="track A">
<g id="Vector 2">
<use xlink:href="#path0_stroke" transform="matrix(0.999954 0.00960248 -0.00960248 0.999954 -43808.3 -22656.7)" fill="#4F4F4F"/>
</g>
<g id="Vector 2">
<use xlink:href="#path1_stroke" transform="matrix(0.999954 0.00960248 -0.00960248 0.999954 -43773.9 -22640.2)" fill="#4F4F4F"/>
</g>
<g id="Vector 2">
<use xlink:href="#path2_stroke" transform="matrix(0.999954 0.00960248 -0.00960248 0.999954 -43753.1 -22616)" fill="#4F4F4F"/>
</g>
<g id="Vector">
<use xlink:href="#path3_stroke" transform="matrix(0.999954 0.00960248 -0.00960248 0.999954 -43803.5 -22662.8)" fill="#4F4F4F"/>
</g>
<g id="Vector 2">
<use xlink:href="#path4_stroke" transform="matrix(0.999954 0.00960248 -0.00960248 0.999954 -43746.4 -22621.7)" fill="#4F4F4F"/>
</g>
<g id="Vector 3">
<use xlink:href="#path5_stroke" transform="matrix(0.999954 0.00960248 -0.00960248 0.999954 -43739.3 -22618.1)" fill="#4F4F4F"/>
</g>
<g id="Vector">
<use xlink:href="#path6_stroke" transform="matrix(0.999954 0.00960248 -0.00960248 0.999954 -43824.3 -22656.9)" fill="#4F4F4F"/>
</g>
<g id="Vector">
<use xlink:href="#path7_stroke" transform="matrix(1 3.58927e-10 -3.58927e-10 1 -43824.4 -22657)" fill="#FF0000"/>
</g>
</g>
</g>
<defs>
<path id="path0_stroke" d="M 19.4227 16.3859L 19.3742 17.1344L 19.4227 16.3859ZM 32.6558 8.9176L 32.3026 9.5792L 32.6558 8.9176ZM 7.31369 0.374933L 7.10886 -0.346555L 7.31369 0.374933ZM -0.19781 13.5909C 0.300756 15.1915 1.49676 16.1536 2.98536 16.7059C 4.44798 17.2486 6.25224 17.4222 8.1287 17.4439C 10.0129 17.4658 12.0496 17.3337 13.9869 17.2256C 15.9425 17.1164 17.7938 17.0319 19.3742 17.1344L 19.4713 15.6375C 17.787 15.5283 15.848 15.6193 13.9033 15.7279C 11.9403 15.8374 9.96673 15.9652 8.14611 15.944C 6.31777 15.9228 4.72275 15.7506 3.50714 15.2996C 2.31751 14.8582 1.55634 14.1787 1.23432 13.1448L -0.19781 13.5909ZM 19.3742 17.1344C 22.8884 17.3622 25.2743 17.5826 26.9342 17.6657C 28.6018 17.7492 29.7187 17.7093 30.7154 17.3464L 30.2023 15.9369C 29.5129 16.1879 28.6627 16.2503 27.0092 16.1676C 25.3482 16.0844 23.059 15.8701 19.4713 15.6375L 19.3742 17.1344ZM 30.7154 17.3464C 31.0755 17.2153 31.3895 16.9649 31.6503 16.6968C 31.9184 16.4213 32.1724 16.0832 32.4055 15.7155C 32.8718 14.9801 33.2911 14.0681 33.592 13.1517C 33.8907 12.2416 34.0894 11.2762 34.0755 10.4401C 34.0625 9.65107 33.8478 8.70384 33.0091 8.25601L 32.3026 9.5792C 32.3835 9.62242 32.5649 9.8095 32.5757 10.4649C 32.5858 11.0732 32.4364 11.8624 32.1668 12.6838C 31.8992 13.4989 31.5298 14.2954 31.1387 14.9124C 30.9431 15.2208 30.7512 15.4699 30.5752 15.6509C 30.3919 15.8392 30.2637 15.9146 30.2023 15.9369L 30.7154 17.3464ZM 33.0091 8.25601C 31.253 7.31837 26.846 4.56159 21.949 2.37107C 19.4882 1.27032 16.8636 0.292184 14.3262 -0.263941C 11.7968 -0.818302 9.29402 -0.96693 7.10886 -0.346555L 7.51852 1.09642C 9.36974 0.570853 11.5965 0.673384 14.0051 1.20128C 16.4056 1.72741 18.9273 2.66263 21.3365 3.74033C 26.1796 5.90671 30.4073 8.5672 32.3026 9.5792L 33.0091 8.25601ZM 7.10886 -0.346555C 0.452795 1.54312 -1.94221 7.99072 -0.19781 13.5909L 1.23432 13.1448C -0.303625 8.20741 1.81022 2.71703 7.51852 1.09642L 7.10886 -0.346555Z"/>
<path id="path1_stroke" d="M 5.8757 4.95307L 5.16879 5.20362L 5.8757 4.95307ZM 6.53991 0.502734L 6.18049 -0.155535L 6.53991 0.502734ZM -0.641293 7.03002C 0.0817896 8.22238 1.58999 9.13032 3.37214 9.13032L 3.37214 7.63032C 2.08245 7.63032 1.07632 6.96957 0.641293 6.25222L -0.641293 7.03002ZM 3.37214 9.13032C 4.38395 9.13032 5.37824 8.61652 6.02249 7.83395C 6.68315 7.03146 7.00808 5.90297 6.58261 4.70252L 5.16879 5.20362C 5.396 5.84469 5.23554 6.42982 4.86445 6.88058C 4.47695 7.35126 3.89312 7.63032 3.37214 7.63032L 3.37214 9.13032ZM 6.58261 4.70252C 6.24603 3.75285 6.10407 2.95334 6.16734 2.34531C 6.22631 1.77855 6.45485 1.40369 6.89933 1.161L 6.18049 -0.155535C 5.23226 0.362206 4.77647 1.21868 4.67539 2.19007C 4.57861 3.12018 4.8009 4.16563 5.16879 5.20362L 6.58261 4.70252ZM 6.89933 1.161C 7.42976 0.871385 8.19747 0.744889 9.12718 0.750159C 10.042 0.755344 11.0264 0.886343 11.9345 1.0379L 12.1814 -0.441643C 11.2502 -0.597046 10.1719 -0.743944 9.13568 -0.749817C 8.11436 -0.755606 7.04272 -0.62632 6.18049 -0.155535L 6.89933 1.161Z"/>
<path id="path2_stroke" d="M 5.11584 -0.152241C 5.03162 0.253984 4.85745 0.843424 4.60837 1.35153C 4.48417 1.6049 4.35224 1.81548 4.22036 1.969C 4.08572 2.12572 3.98376 2.18526 3.92673 2.20429L 4.40157 3.62715C 4.80438 3.49272 5.11968 3.22403 5.35813 2.94648C 5.59933 2.66573 5.79631 2.33601 5.95525 2.01177C 6.27246 1.36468 6.48148 0.649718 6.58461 0.152241L 5.11584 -0.152241ZM 3.92673 2.20429C 3.8026 2.24572 3.59028 2.27182 3.22702 2.297C 2.90133 2.31957 2.47622 2.34097 2.0605 2.40452C 1.23306 2.53102 0.177842 2.86237 -0.346479 3.97779L 1.01102 4.61591C 1.20806 4.19674 1.60894 3.99098 2.28719 3.88729C 2.62431 3.83575 2.96443 3.81879 3.33073 3.79341C 3.65945 3.77062 4.06587 3.73918 4.40157 3.62715L 3.92673 2.20429ZM -0.346479 3.97779C -0.793543 4.92886 -0.792283 5.90638 -0.703418 6.76543C -0.659289 7.19202 -0.589134 7.62217 -0.532622 8.00349C -0.474253 8.39735 -0.428511 8.7502 -0.417295 9.0796L 1.08184 9.02855C 1.06751 8.60771 1.0103 8.18261 0.951172 7.7836C 0.89018 7.37204 0.828274 6.99441 0.78862 6.61108C 0.709918 5.85028 0.736725 5.19943 1.01102 4.61591L -0.346479 3.97779Z"/>
<path id="path3_stroke" d="M 0.356559 -0.659822C -0.00785052 -0.856745 -0.4629 -0.720969 -0.659822 -0.356559C -0.856745 0.00785052 -0.720969 0.4629 -0.356559 0.659822L 0.356559 -0.659822ZM 90.8956 49.9713C 91.26 50.1682 91.7151 50.0324 91.912 49.668C 92.1089 49.3036 91.9731 48.8486 91.6087 48.6516L 90.8956 49.9713ZM -0.356559 0.659822L 90.8956 49.9713L 91.6087 48.6516L 0.356559 -0.659822L -0.356559 0.659822Z"/>
<path id="path4_stroke" d="M 0.496543 13.913C 1.34681 13.1619 2.74982 12.0495 4.23012 10.8711C 5.69698 9.70336 7.23396 8.47524 8.31449 7.51826L 7.31998 6.39535C 6.27504 7.3208 4.77199 8.52245 3.29589 9.69753C 1.83323 10.8619 0.390354 12.0054 -0.496543 12.7888L 0.496543 13.913ZM 8.31449 7.51826C 10.4379 5.63765 14.0712 1.96429 15.5849 0.547596L 14.56 -0.547596C 12.94 0.96848 9.4475 4.5111 7.31998 6.39535L 8.31449 7.51826Z"/>
<path id="path5_stroke" d="M 1.94154 5.72911L 1.9728 4.97976L 1.94154 5.72911ZM 16.1965 1.79035L 16.7429 2.30406L 16.1965 1.79035ZM -0.69056 4.28253C -0.543581 4.62939 -0.259608 5.1313 0.142162 5.56491C 0.535089 5.98899 1.13424 6.44609 1.91028 6.47846L 1.9728 4.97976C 1.76784 4.97122 1.51545 4.84006 1.24246 4.54543C 0.978317 4.26035 0.782015 3.91312 0.69056 3.69729L -0.69056 4.28253ZM 1.91028 6.47846C 2.33661 6.49625 2.827 6.40027 3.30781 6.26212C 3.80137 6.12032 4.34062 5.91739 4.88386 5.68193C 5.96953 5.21137 7.11742 4.59066 8.02064 4.00554L 7.20509 2.74662C 6.37115 3.28686 5.29649 3.86825 4.28734 4.30565C 3.78317 4.52417 3.30695 4.70169 2.89361 4.82045C 2.46752 4.94287 2.15957 4.98756 1.9728 4.97976L 1.91028 6.47846ZM 8.02064 4.00554C 8.48951 3.70179 8.87872 3.39347 9.21392 3.12256C 9.55977 2.84306 9.82415 2.62403 10.0906 2.44713C 10.5634 2.1332 10.993 1.98144 11.714 2.11801L 11.9932 0.644211C 10.8237 0.422704 10.0015 0.705746 9.2609 1.19748C 8.92061 1.42341 8.58784 1.69992 8.27108 1.95593C 7.94367 2.22053 7.6048 2.48768 7.20509 2.74662L 8.02064 4.00554ZM 11.714 2.11801C 12.1512 2.20081 12.5803 2.31745 13.0092 2.43968C 13.4257 2.55839 13.8631 2.68889 14.2645 2.77821C 15.0121 2.94454 16.0254 3.06739 16.7429 2.30406L 15.65 1.27665C 15.5501 1.38292 15.3372 1.48019 14.5903 1.31401C 14.2445 1.23707 13.8676 1.12459 13.4203 0.997123C 12.9854 0.873173 12.5012 0.740446 11.9932 0.644211L 11.714 2.11801ZM 16.7429 2.30406C 17.4637 1.53733 17.9435 0.675354 18.1082 0.304306L 16.7372 -0.304306C 16.6295 -0.0615181 16.2372 0.652019 15.65 1.27665L 16.7429 2.30406Z"/>
<path id="path6_stroke" d="M 16.3029 13.0653L 15.5813 13.2699L 15.5887 13.2961L 15.5981 13.3218L 16.3029 13.0653ZM 42.9601 5.83443L 43.3072 5.16961L 43.3066 5.16929L 42.9601 5.83443ZM 55.1475 12.4988L 54.7878 13.157L 54.7904 13.1584L 55.1475 12.4988ZM 88.253 26.1275L 88.9918 26.2564L 88.9918 26.2563L 88.253 26.1275ZM 64.1551 24.7947L 63.7631 25.4341L 63.7776 25.4429L 63.7925 25.4512L 64.1551 24.7947ZM 60.5653 25.5944L 61.1789 26.0258L 61.1852 26.0167L 61.1913 26.0075L 60.5653 25.5944ZM 66.9471 37.4681L 67.5423 37.0117L 67.5379 37.0059L 67.5334 37.0003L 66.9471 37.4681ZM 71.5673 38.5788L 71.3694 37.8554L 71.3046 37.8731L 71.244 37.902L 71.5673 38.5788ZM 78.9019 43.0217L 78.1694 43.1831L 78.1736 43.2019L 78.1787 43.2205L 78.9019 43.0217ZM 33.1215 16.9862L 33.4984 17.6346L 33.5041 17.6312L 33.1215 16.9862ZM 30.2519 21.6179L 29.5036 21.5684L 29.5027 21.5819L 29.5023 21.5954L 30.2519 21.6179ZM 33.1991 26.694L 33.5601 26.0365L 33.5504 26.0314L 33.1991 26.694ZM 60.931 55.9729L 61.6325 56.2382L 61.6391 56.2208L 61.6448 56.2031L 60.931 55.9729ZM 58.9034 59.4494L 59.4791 59.9302L 59.4797 59.9294L 58.9034 59.4494ZM 5.66656 30.6482L 6.38949 30.8479L 6.39829 30.816L 6.40426 30.7835L 5.66656 30.6482ZM 9.05688 26.0942L 9.39744 26.7624L 9.4173 26.7523L 9.43652 26.741L 9.05688 26.0942ZM 16.7128 18.9855L 17.4334 19.1934L 17.4407 19.1681L 17.4462 19.1423L 16.7128 18.9855ZM 17.0244 12.8607C 16.7571 11.918 16.4693 9.57964 17.1605 7.19444C 17.8387 4.85415 19.4539 2.46742 23.0334 1.2697L 22.5574 -0.15278C 18.4446 1.22338 16.5144 4.03488 15.7198 6.77695C 14.9382 9.4741 15.2503 12.1023 15.5813 13.2699L 17.0244 12.8607ZM 23.0334 1.2697C 26.6111 0.0725801 31.0817 1.1152 34.9581 2.65345C 38.8158 4.18431 41.8384 6.09575 42.6135 6.49958L 43.3066 5.16929C 42.6746 4.84004 39.461 2.82655 35.5113 1.25922C 31.5803 -0.300717 26.672 -1.52954 22.5574 -0.15278L 23.0334 1.2697ZM 42.6129 6.49926C 47.9247 9.27278 51.5749 11.4011 54.7878 13.157L 55.5072 11.8407C 52.3383 10.1089 48.6317 7.94975 43.3072 5.16961L 42.6129 6.49926ZM 54.7904 13.1584C 63.63 17.9437 78.5516 26.2576 81.5049 27.7825L 82.1931 26.4496C 79.2522 24.9312 64.3921 16.6506 55.5045 11.8393L 54.7904 13.1584ZM 81.5049 27.7825C 82.1926 28.1375 82.9768 28.581 83.653 28.9115C 84.3431 29.2489 85.0753 29.5506 85.7782 29.6289C 86.5225 29.7118 87.2723 29.5451 87.8753 28.9185C 88.4356 28.3362 88.7854 27.4396 88.9918 26.2564L 87.5141 25.9986C 87.3272 27.0701 87.0482 27.6147 86.7945 27.8784C 86.5835 28.0976 86.3342 28.1815 85.9442 28.1381C 85.5128 28.0901 84.9757 27.8885 84.3117 27.5639C 83.6338 27.2325 82.979 26.8554 82.1931 26.4496L 81.5049 27.7825ZM 88.9918 26.2563C 89.3295 24.3196 89.755 23.0221 90.4704 22.2531C 91.1227 21.5519 92.1455 21.1661 94.0682 21.428L 94.2706 19.9418C 92.0776 19.643 90.4801 20.0403 89.3721 21.2314C 88.3271 22.3547 87.8523 24.0589 87.5141 25.9987L 88.9918 26.2563ZM 94.0682 21.428C 97.7458 21.9291 99.2999 24.9512 98.8185 27.3695L 100.29 27.6624C 100.936 24.4158 98.8244 20.5622 94.2706 19.9418L 94.0682 21.428ZM 98.8185 27.3695C 98.3115 29.9156 96.3413 32.6838 92.0645 34.0782L 92.5294 35.5043C 97.2812 33.955 99.6686 30.781 100.29 27.6624L 98.8185 27.3695ZM 92.0645 34.0782C 90.0324 34.7407 87.0115 34.4097 83.7456 33.4832C 80.5169 32.5672 77.1952 31.1125 74.6467 29.6931L 73.9168 31.0036C 76.5535 32.4721 79.9823 33.9747 83.3363 34.9262C 86.6531 35.8672 90.0473 36.3136 92.5294 35.5043L 92.0645 34.0782ZM 74.6467 29.6931C 69.4682 26.8089 65.5837 24.727 64.5178 24.1382L 63.7925 25.4512C 64.8981 26.0619 68.7249 28.1119 73.9168 31.0036L 74.6467 29.6931ZM 64.5471 24.1553C 63.7961 23.6948 62.8959 23.5443 62.0361 23.7358L 62.3623 25.2C 62.8416 25.0932 63.3438 25.177 63.7631 25.4341L 64.5471 24.1553ZM 62.0361 23.7358C 61.1764 23.9274 60.4249 24.4458 59.9394 25.1812L 61.1913 26.0075C 61.4629 25.5961 61.8828 25.3068 62.3623 25.2L 62.0361 23.7358ZM 59.9518 25.163C 59.372 25.9876 59.1665 26.8135 59.4186 27.7521C 59.6459 28.5984 60.2347 29.4772 61.011 30.4928L 62.2027 29.5818C 61.4167 28.5536 61.0084 27.8885 60.8673 27.3631C 60.751 26.9299 60.8058 26.5562 61.1789 26.0258L 59.9518 25.163ZM 61.011 30.4928C 61.7812 31.5004 62.9073 33.0945 63.9504 34.576C 64.9794 36.0375 65.9436 37.413 66.3609 37.9359L 67.5334 37.0003C 67.1529 36.5235 66.2281 35.2055 65.1769 33.7125C 64.1398 32.2394 62.9947 30.618 62.2027 29.5818L 61.011 30.4928ZM 66.352 37.9245C 66.9834 38.7479 67.8778 39.3295 68.8859 39.5718L 69.2366 38.1134C 68.563 37.9515 67.9649 37.5627 67.5423 37.0117L 66.352 37.9245ZM 68.8859 39.5718C 69.8941 39.8142 70.9547 39.7026 71.8905 39.2556L 71.244 37.902C 70.6186 38.2008 69.9101 38.2753 69.2366 38.1134L 68.8859 39.5718ZM 71.7652 39.3022C 72.44 39.1176 73.1453 39.0724 73.8381 39.1693L 74.0458 37.6837C 73.1512 37.5586 72.2407 37.6171 71.3694 37.8554L 71.7652 39.3022ZM 73.8381 39.1693C 74.5309 39.2661 75.197 39.5031 75.7958 39.8658L 76.573 38.5829C 75.8001 38.1147 74.9403 37.8088 74.0458 37.6837L 73.8381 39.1693ZM 75.7958 39.8658C 76.3947 40.2286 76.914 40.7096 77.322 41.2799L 78.5418 40.4069C 78.0156 39.6716 77.3458 39.051 76.573 38.5829L 75.7958 39.8658ZM 77.322 41.2799C 77.7301 41.8501 78.0184 42.4976 78.1694 43.1831L 79.6343 42.8604C 79.4397 41.977 79.0681 41.1422 78.5418 40.4069L 77.322 41.2799ZM 78.1787 43.2205C 78.6781 45.038 78.3115 46.5105 77.4841 47.4804C 76.6533 48.4544 75.2663 49.0292 73.5109 48.8618L 73.3685 50.355C 75.5289 50.5611 77.427 49.8586 78.6253 48.4539C 79.8271 47.045 80.2336 45.0374 79.6251 42.823L 78.1787 43.2205ZM 73.5109 48.8618C 71.8272 48.7011 70.1657 47.5797 68.3989 45.7937C 66.6396 44.0152 64.9103 41.7229 63.0335 39.3925L 61.8652 40.3333C 63.6941 42.6043 65.502 44.9981 67.3325 46.8486C 69.1555 48.6915 71.1364 50.1421 73.3685 50.355L 73.5109 48.8618ZM 63.0335 39.3925C 59.3516 34.8205 51.1247 22.3938 50.0708 20.86L 48.8345 21.7095C 49.8413 23.1746 58.1357 35.7022 61.8652 40.3333L 63.0335 39.3925ZM 50.0708 20.86C 49.0932 19.4373 47.401 16.1907 42.9323 16.092L 42.8992 17.5916C 46.4742 17.6706 47.7513 20.1332 48.8345 21.7095L 50.0708 20.86ZM 42.9323 16.092C 40.914 16.0474 39.057 15.8118 37.2527 15.7152C 36.3828 15.6686 35.5482 15.658 34.798 15.7366C 34.0519 15.8149 33.3371 15.9863 32.7389 16.3411L 33.5041 17.6312C 33.8421 17.4307 34.3169 17.2953 34.9544 17.2285C 35.5878 17.162 36.3306 17.168 37.1725 17.2131C 38.7917 17.2998 40.8957 17.5473 42.8992 17.5916L 42.9323 16.092ZM 32.7446 16.3378C 31.8176 16.8767 31.0373 17.6357 30.4722 18.5478L 31.7473 19.3378C 32.183 18.6345 32.7844 18.0497 33.4984 17.6346L 32.7446 16.3378ZM 30.4722 18.5478C 29.9071 19.4599 29.5745 20.4972 29.5036 21.5684L 31.0003 21.6675C 31.055 20.8411 31.3116 20.0411 31.7473 19.3378L 30.4722 18.5478ZM 29.5023 21.5954C 29.467 22.7729 29.7616 23.9368 30.3528 24.9551L 31.65 24.2019C 31.1994 23.4257 30.9747 22.5383 31.0016 21.6404L 29.5023 21.5954ZM 30.3528 24.9551C 30.944 25.9734 31.8083 26.8054 32.8477 27.3566L 33.5504 26.0314C 32.7591 25.6118 32.1006 24.978 31.65 24.2019L 30.3528 24.9551ZM 32.838 27.3514C 35.3809 28.7479 41.5923 32.2555 43.5516 33.3762L 44.2964 32.0742C 42.3335 30.9513 36.1137 27.4391 33.5601 26.0366L 32.838 27.3514ZM 43.5516 33.3762C 44.0376 33.6543 44.4535 33.8719 44.7352 34.029C 45.0341 34.1957 45.2492 34.3295 45.4618 34.5007C 45.8978 34.8518 46.3805 35.404 47.4214 36.8047L 48.6254 35.91C 47.5945 34.5228 47.008 33.8199 46.4025 33.3323C 46.0944 33.0842 45.7956 32.9029 45.4657 32.7189C 45.1188 32.5255 44.7909 32.3571 44.2964 32.0742L 43.5516 33.3762ZM 47.4214 36.8047C 49.4893 39.5872 56.4454 49.4105 57.9733 51.5347L 59.191 50.6589C 57.683 48.5623 50.7012 38.7033 48.6254 35.91L 47.4214 36.8047ZM 57.9733 51.5347C 58.78 52.6564 59.4231 53.4193 59.8593 54.1548C 60.2716 54.8499 60.3584 55.3047 60.2172 55.7427L 61.6448 56.2031C 61.98 55.1637 61.6513 54.2357 61.1495 53.3896C 60.6717 52.584 59.9021 51.6476 59.191 50.6589L 57.9733 51.5347ZM 60.2295 55.7075C 59.7809 56.8935 59.1379 57.996 58.3271 58.9695L 59.4797 59.9294C 60.3973 58.8277 61.1249 57.5801 61.6325 56.2382L 60.2295 55.7075ZM 58.3278 58.9687C 58.1538 59.177 57.971 59.3174 57.802 59.3415C 57.7026 59.3556 57.359 59.3636 56.7664 58.6487L 55.6116 59.606C 56.3817 60.5351 57.1959 60.9429 58.0134 60.8265C 58.7612 60.72 59.2542 60.1995 59.4791 59.9302L 58.3278 58.9687ZM 56.7664 58.6487C 55.3891 56.9874 41.645 42.328 39.8463 40.3608L 38.7393 41.373C 40.5968 43.4045 54.2632 57.9796 55.6116 59.606L 56.7664 58.6487ZM 39.8463 40.3608C 38.8329 39.2525 36.9569 37.9739 34.574 37.5318C 32.1594 37.0838 29.2648 37.5036 26.2884 39.7459L 27.191 40.9439C 29.8319 38.9544 32.2998 38.6355 34.3004 39.0066C 36.3326 39.3837 37.9245 40.482 38.7393 41.373L 39.8463 40.3608ZM 26.2884 39.7459C 20.6597 43.9864 8.99676 52.8833 7.24705 54.1822L 8.14116 55.3866C 9.89256 54.0864 21.5852 45.1672 27.191 40.9439L 26.2884 39.7459ZM 7.24705 54.1822C 6.34856 54.8492 5.52199 55.4559 4.65646 55.7427C 3.85428 56.0086 3.01863 55.9984 2.0463 55.3577L 1.22097 56.6102C 2.60857 57.5246 3.92787 57.5644 5.12831 57.1666C 6.26539 56.7898 7.2891 56.0192 8.14116 55.3866L 7.24705 54.1822ZM 2.0463 55.3577C 1.5345 55.0205 1.22686 54.6831 1.04039 54.354C 0.854962 54.0268 0.76531 53.6656 0.751801 53.2429C 0.723044 52.3432 1.02966 51.2985 1.40505 49.9032L -0.0434469 49.5135C -0.388226 50.7951 -0.785154 52.1107 -0.747434 53.2908C -0.727705 53.9081 -0.591612 54.5166 -0.264614 55.0936C 0.0613422 55.6688 0.552804 56.17 1.22097 56.6102L 2.0463 55.3577ZM 1.40505 49.9032C 2.13283 47.198 5.98891 32.298 6.38949 30.8479L 4.94364 30.4485C 4.54649 31.8862 0.6691 46.865 -0.0434469 49.5135L 1.40505 49.9032ZM 6.40426 30.7835C 6.56129 29.9273 6.91314 29.1192 7.43233 28.4218L 6.22915 27.5261C 5.57233 28.4083 5.12741 29.4304 4.92887 30.5129L 6.40426 30.7835ZM 7.43233 28.4218C 7.95152 27.7244 8.62402 27.1566 9.39744 26.7624L 8.71632 25.426C 7.73705 25.9251 6.88598 26.6438 6.22915 27.5261L 7.43233 28.4218ZM 9.43652 26.741C 10.6536 26.0267 12.3831 25.1966 13.8707 24.0813C 15.3963 22.9375 16.792 21.4165 17.4334 19.1934L 15.9922 18.7776C 15.4703 20.5864 14.3343 21.8589 12.9709 22.8811C 11.5696 23.9317 10.0527 24.6401 8.67724 25.4474L 9.43652 26.741ZM 17.4462 19.1423C 17.8975 17.0319 17.7455 14.8366 17.0076 12.8088L 15.5981 13.3218C 16.2396 15.0848 16.3718 16.9936 15.9794 18.8287L 17.4462 19.1423Z"/>
<path id="path7_stroke" d="M 16.2947 13.2641L 15.0907 13.6002L 15.1028 13.6434L 15.118 13.6857L 16.2947 13.2641ZM 42.8943 17.0972L 42.9461 15.8483L 42.9342 15.8478L 42.9223 15.8475L 42.8943 17.0972ZM 33.1049 17.2438L 33.7404 18.3203L 33.7499 18.3145L 33.1049 17.2438ZM 30.2368 21.945L 28.9894 21.8637L 28.988 21.8859L 28.9873 21.9082L 30.2368 21.945ZM 33.1824 27.0973L 33.7913 26.0056L 33.7832 26.0011L 33.7751 25.9967L 33.1824 27.0973ZM 60.9005 56.8156L 62.0719 57.2519L 62.0826 57.2231L 62.0919 57.1939L 60.9005 56.8156ZM 58.874 60.3443L 59.8394 61.1383L 59.8405 61.137L 58.874 60.3443ZM 5.66373 31.1108L 6.8699 31.4389L 6.88417 31.3865L 6.89383 31.333L 5.66373 31.1108ZM 9.05235 26.4885L 9.62692 27.5986L 9.66018 27.5814L 9.69235 27.5622L 9.05235 26.4885ZM 16.7044 19.2731L 17.9068 19.6147L 17.9187 19.5731L 17.9276 19.5307L 16.7044 19.2731ZM 47.9994 15.2674L 49.1346 15.7906L 47.9994 15.2674ZM 17.4987 12.928C 17.2434 12.0135 16.9222 9.83223 17.5535 7.57835C 18.1643 5.39768 19.6757 3.08893 23.2283 1.73789L 22.3397 -0.598841C 17.9848 1.05726 15.9526 4.02476 15.1461 6.90406C 14.3601 9.71016 14.748 12.3726 15.0907 13.6002L 17.4987 12.928ZM 42.9223 15.8475C 40.8998 15.8022 39.1293 15.5673 37.2618 15.4658C 36.3827 15.418 35.5166 15.4055 34.7264 15.4896C 33.9427 15.5731 33.146 15.7598 32.4599 16.1731L 33.7499 18.3145C 33.9996 18.1641 34.392 18.0394 34.9911 17.9756C 35.5837 17.9125 36.2944 17.9169 37.1261 17.9621C 38.6805 18.0466 40.8689 18.3021 42.8662 18.3469L 42.9223 15.8475ZM 32.4695 16.1674C 31.4712 16.7567 30.6331 17.5854 30.0271 18.5788L 32.1613 19.8808C 32.5556 19.2345 33.0985 18.6992 33.7404 18.3202L 32.4695 16.1674ZM 30.0271 18.5788C 29.4211 19.572 29.0653 20.7001 28.9894 21.8637L 31.4841 22.0264C 31.5338 21.2641 31.7669 20.5272 32.1613 19.8808L 30.0271 18.5788ZM 28.9873 21.9082C 28.9495 23.1904 29.2653 24.459 29.9007 25.5704L 32.071 24.3296C 31.6651 23.6197 31.4619 22.8062 31.4862 21.9819L 28.9873 21.9082ZM 29.9007 25.5704C 30.5362 26.6821 31.467 27.5932 32.5898 28.1979L 33.7751 25.9967C 33.0681 25.616 32.4768 25.0394 32.071 24.3296L 29.9007 25.5704ZM 32.5736 28.189C 35.1116 29.6045 41.3171 33.163 43.2741 34.2999L 44.5299 32.1382C 42.5668 30.9978 36.3473 27.4311 33.7913 26.0056L 32.5736 28.189ZM 43.2741 34.2999C 43.757 34.5804 44.2024 34.8182 44.462 34.9653C 44.7502 35.1284 44.9372 35.2481 45.1179 35.3959C 45.498 35.7067 45.9466 36.2173 46.9906 37.6439L 49.0081 36.1675C 47.9813 34.7643 47.3613 34.0009 46.7004 33.4605C 46.3607 33.1827 46.0341 32.9825 45.6938 32.7898C 45.325 32.581 45.0271 32.427 44.5299 32.1382L 43.2741 34.2999ZM 46.9906 37.6439C 49.0549 40.4647 55.9993 50.4237 57.5328 52.5888L 59.5729 51.1439C 58.0721 49.0248 51.0855 39.0063 49.0081 36.1675L 46.9906 37.6439ZM 57.5328 52.5888C 58.3698 53.7706 58.972 54.4885 59.3948 55.2123C 59.7778 55.8683 59.7904 56.1813 59.7091 56.4372L 62.0919 57.1939C 62.4868 55.9504 62.0841 54.8599 61.5535 53.9515C 61.0627 53.1111 60.253 52.1042 59.5729 51.1439L 57.5328 52.5888ZM 59.7291 56.3793C 59.2992 57.5336 58.6833 58.6057 57.9074 59.5517L 59.8405 61.137C 60.7922 59.9766 61.5461 58.6634 62.0719 57.2519L 59.7291 56.3793ZM 57.9085 59.5504C 57.8453 59.6272 57.7856 59.6866 57.7333 59.7251C 57.6827 59.7622 57.6728 59.7551 57.6998 59.7512C 57.7432 59.745 57.7441 59.7643 57.6723 59.7276C 57.5833 59.6821 57.3967 59.5546 57.1292 59.2269L 55.1925 60.8079C 56.0177 61.8187 56.9907 62.3798 58.0576 62.2255C 59.0036 62.0887 59.6001 61.4293 59.8394 61.1383L 57.9085 59.5504ZM 57.1292 59.2269C 55.7433 57.5292 41.9807 42.6219 40.202 40.6465L 38.3442 42.3193C 40.2199 44.4026 53.8543 59.1685 55.1925 60.8079L 57.1292 59.2269ZM 40.202 40.6465C 39.1247 39.45 37.1544 38.0894 34.6514 37.6178C 32.0936 37.1359 29.0539 37.5985 25.9668 39.9603L 27.4859 41.9459C 30.0133 40.0123 32.3333 39.7251 34.1885 40.0746C 36.0985 40.4345 37.5943 41.4865 38.3442 42.3193L 40.202 40.6465ZM 25.9668 39.9603C 20.3333 44.2703 8.68604 53.2932 6.93778 54.6112L 8.44274 56.6074C 10.1938 55.2873 21.8905 46.2267 27.4859 41.9459L 25.9668 39.9603ZM 6.93778 54.6112C 6.02361 55.3004 5.26394 55.8599 4.49125 56.1199C 3.82754 56.3433 3.15934 56.3443 2.32798 55.788L 0.937657 57.8657C 2.46504 58.8878 3.95072 58.9396 5.28863 58.4893C 6.51755 58.0758 7.60722 57.2373 8.44274 56.6074L 6.93778 54.6112ZM 2.32798 55.788C 1.86915 55.481 1.62118 55.193 1.47923 54.9387C 1.33858 54.6866 1.26316 54.3981 1.25156 54.0296C 1.22559 53.2043 1.50415 52.229 1.88878 50.7772L -0.527856 50.137C -0.863033 51.4022 -1.28767 52.8226 -1.2472 54.1083C -1.22557 54.7953 -1.07536 55.4912 -0.70384 56.1569C -0.333626 56.8203 0.217115 57.3836 0.937657 57.8657L 2.32798 55.788ZM 1.88878 50.7772C 2.62093 48.0135 6.46846 32.9147 6.8699 31.4389L 4.45755 30.7827C 4.06167 32.2381 0.1796 47.4665 -0.527856 50.137L 1.88878 50.7772ZM 6.89383 31.333C 7.03796 30.5349 7.3607 29.7831 7.83544 29.1355L 5.8192 27.6574C 5.11852 28.6132 4.64489 29.719 4.43363 30.8886L 6.89383 31.333ZM 7.83544 29.1355C 8.31012 28.488 8.9236 27.9626 9.62692 27.5986L 8.47778 25.3784C 7.42928 25.9211 6.51995 26.7015 5.8192 27.6574L 7.83544 29.1355ZM 9.69235 27.5622C 10.8557 26.8689 12.6557 25.9848 14.1713 24.8308C 15.7511 23.6281 17.2284 22.0027 17.9068 19.6147L 15.502 18.9315C 15.0177 20.636 13.9647 21.846 12.6569 22.8417C 11.285 23.8862 9.84035 24.5636 8.41235 25.4148L 9.69235 27.5622ZM 17.9276 19.5307C 18.3969 17.3023 18.2389 14.9843 17.4714 12.8424L 15.118 13.6857C 15.7292 15.3915 15.8553 17.2392 15.4813 19.0155L 17.9276 19.5307ZM 42.8425 18.3462C 43.6318 18.3789 44.852 18.3172 46.0092 18.0142C 47.0912 17.7309 48.5162 17.1323 49.1346 15.7906L 46.8641 14.7441C 46.7439 15.0051 46.3133 15.3503 45.3759 15.5957C 44.5137 15.8215 43.5507 15.8734 42.9461 15.8483L 42.8425 18.3462ZM 49.1346 15.7906C 49.5779 14.8288 50.2551 13.3884 50.4658 11.9819C 50.5738 11.2609 50.5755 10.4591 50.3025 9.68511C 50.019 8.88167 49.4699 8.19742 48.6383 7.70285L 47.3605 9.85161C 47.7074 10.058 47.8631 10.285 47.9449 10.5169C 48.0371 10.7782 48.0646 11.1357 47.9934 11.6116C 47.8455 12.5988 47.3441 13.7027 46.8641 14.7441L 49.1346 15.7906ZM 48.6383 7.70285C 47.5052 7.02902 43.0903 4.17022 37.9847 1.87955C 35.4292 0.732999 32.6524 -0.294398 29.9777 -0.838684C 27.3224 -1.37901 24.6338 -1.47127 22.3397 -0.598841L 23.2283 1.73789C 24.888 1.10675 27.0335 1.11344 29.4792 1.61111C 31.9053 2.10481 34.4961 3.05445 36.9614 4.16049C 41.8972 6.375 46.1363 9.12363 47.3605 9.85161L 48.6383 7.70285Z"/>
</defs>
</svg>
