<svg width="216" height="38" viewBox="0 0 216 38" version="1.1" xmlns="http://www.w3.org/2000/svg" xmlns:xlink="http://www.w3.org/1999/xlink">
<title>drivernn.ru</title>
<desc>Created using Figma</desc>
<g id="Canvas" transform="translate(50692 20809)">
<g id="drivernn.ru">
<g id="drivenn.ru">
<g id="drivenn">
<use xlink:href="#path0_fill" transform="translate(-50640.5 -20800.7)" fill="#BDBDBD"/>
<use xlink:href="#path1_fill" transform="translate(-50640.5 -20800.7)" fill="#BDBDBD"/>
<use xlink:href="#path2_fill" transform="translate(-50640.5 -20800.7)" fill="#BDBDBD"/>
<use xlink:href="#path3_fill" transform="translate(-50640.5 -20800.7)" fill="#BDBDBD"/>
<use xlink:href="#path4_fill" transform="translate(-50640.5 -20800.7)" fill="#BDBDBD"/>
<use xlink:href="#path5_fill" transform="translate(-50640.5 -20800.7)" fill="#BDBDBD"/>
<use xlink:href="#path6_fill" transform="translate(-50640.5 -20800.7)" fill="#BDBDBD"/>
<use xlink:href="#path7_fill" transform="translate(-50640.5 -20800.7)" fill="#BDBDBD"/>
<use xlink:href="#path8_fill" transform="translate(-50640.5 -20800.7)" fill="#BDBDBD"/>
<use xlink:href="#path9_fill" transform="translate(-50640.5 -20800.7)" fill="#BDBDBD"/>
</g>
<g id="znak">
<g id="Vector 2">
<use xlink:href="#path10_fill" transform="translate(-50692 -20809)" fill="#D4D4D4"/>
</g>
<g id="Vector">
<use xlink:href="#path11_fill" transform="translate(-50692 -20806.2)" fill="#BDBDBD"/>
</g>
<g id="Vector 3">
<use xlink:href="#path12_fill" transform="translate(-50686.9 -20795.3)" fill="#949494"/>
</g>
</g>
</g>
</g>
</g>
<defs>
<path id="path0_fill" fill-rule="evenodd" d="M 0 0L 8.56119 0C 12.9532 0 16.5258 4.16673 16.5258 9.2886L 16.5258 10.6774C 16.5258 15.7992 12.9532 19.966 8.56119 19.966L 0 19.966L 0 0ZM 8.33835 15.6255C 10.3475 15.6255 12.0601 13.7156 12.0601 11.2852L 12.0601 8.594C 12.0601 6.25032 10.4229 4.25373 8.33835 4.25373L 4.61485 4.25373L 4.61485 15.6255L 8.33835 15.6255Z"/>
<path id="path1_fill" fill-rule="evenodd" d="M 29.4071 0C 32.9059 0 35.7345 3.29881 35.7345 7.37878C 35.7345 10.0698 34.4694 12.4137 32.6076 13.5421L 35.659 18.4034L 35.659 19.8792L 31.1179 19.8792L 28.0665 14.6706L 24.4184 14.6706L 24.4184 19.8792L 20.0264 19.8792L 20.0264 0L 29.4071 0ZM 28.9596 4.60081L 24.4184 4.60081L 24.4184 10.1565L 28.9596 10.1565C 30.3002 10.1565 31.3425 8.9413 31.3425 7.37878C 31.3425 5.81625 30.3002 4.60081 28.9596 4.60081Z"/>
<path id="path2_fill" fill-rule="evenodd" d="M 145.538 7.37878C 145.538 3.29881 142.71 0 139.211 0L 129.83 0L 129.83 19.8792L 134.222 19.8792L 134.222 14.6706L 137.87 14.6706L 140.922 19.8792L 145.463 19.8792L 145.463 18.4034L 142.412 13.5421C 144.273 12.4137 145.538 10.0698 145.538 7.37878ZM 134.222 4.60081L 138.763 4.60081C 140.104 4.60081 141.146 5.81625 141.146 7.37878C 141.146 8.9413 140.104 10.1565 138.763 10.1565L 134.222 10.1565L 134.222 4.60081Z"/>
<path id="path3_fill" d="M 38.7841 0L 43.9201 0L 43.9201 19.966L 38.7841 19.966L 38.7841 0Z"/>
<path id="path4_fill" d="M 79.6546 5.20842L 79.6546 0L 66.3294 0L 66.3294 19.966L 79.6546 19.966L 79.6546 14.8443L 70.7214 14.8443L 70.7214 12.5872L 76.7524 12.5872L 76.7524 7.46555L 70.7214 7.46555L 70.7214 5.20842L 79.6546 5.20842Z"/>
<path id="path5_fill" d="M 127.374 17.1884C 127.374 19.1541 126.006 20.7476 124.321 20.7476C 122.635 20.7476 121.269 19.1541 121.269 17.1884C 121.269 15.2228 122.635 13.6293 124.321 13.6293C 126.006 13.6293 127.374 15.2228 127.374 17.1884Z"/>
<path id="path6_fill" d="M 59.7792 0L 54.7905 12.2401L 49.8774 0L 46.1557 0L 46.1557 2.60421L 52.9306 19.966L 56.726 19.966L 63.5009 2.60421L 63.5009 0L 59.7792 0Z"/>
<path id="path7_fill" d="M 94.5451 9.54891L 94.5451 0L 99.0862 0L 99.0862 19.966L 95.289 19.966L 87.8456 9.98298L 87.8456 19.966L 83.3781 19.966L 83.3781 0L 87.0998 0L 94.5451 9.54891Z"/>
<path id="path8_fill" d="M 114.494 0L 114.494 9.54891L 107.051 0L 103.254 0L 103.254 19.966L 107.721 19.966L 107.721 9.98298L 115.165 19.966L 118.962 19.966L 118.962 0L 114.494 0Z"/>
<path id="path9_fill" d="M 159.385 12.3269L 159.385 0L 163.777 0L 163.777 12.5872C 163.777 16.6672 160.948 19.966 157.449 19.966L 155.216 19.966C 151.717 19.966 148.888 16.6672 148.888 12.5872L 148.888 0L 153.28 0L 153.28 12.3269C 153.28 13.7159 154.249 14.8443 155.438 14.8443L 157.226 14.8443C 158.416 14.8443 159.385 13.7159 159.385 12.3269Z"/>
<path id="path10_fill" d="M 35.4236 16.9911C 35.4236 2.14039 23.7691 -0.480319 17.9418 0.065662L 0 2.79602L 15.1816 37.1928C 19.0153 34.6449 27.6028 29.0031 31.2832 26.8192C 34.9636 24.6352 35.577 19.3571 35.4236 16.9911Z"/>
<path id="path11_fill" d="M 1.38014 27.299L 0 0C 13.3414 3.82186 17.9418 11.4656 17.9418 25.6611C 17.9418 37.0175 12.1146 35.8527 9.20094 33.8508L 1.38014 27.299Z"/>
<path id="path12_fill" d="M 0 0L 0.460047 12.0116C 5.24454 16.8162 6.74736 13.6495 6.90071 11.4656C 6.90071 4.36784 3.22033 1.63794 0 0Z"/>
</defs>
</svg>
