<svg width="114" height="63" viewBox="0 0 114 63" version="1.1" xmlns="http://www.w3.org/2000/svg" xmlns:xlink="http://www.w3.org/1999/xlink">
<title>era_auto</title>
<desc>Created using Figma</desc>
<g id="Canvas" transform="translate(49993 20825)">
<g id="era_auto">
<g id="Union">
<use xlink:href="#path0_fill" transform="translate(-49993 -20825)" fill="#BDBDBD"/>
<use xlink:href="#path1_fill" transform="translate(-49993 -20825)" fill="#BDBDBD"/>
<use xlink:href="#path2_fill" transform="translate(-49993 -20825)" fill="#BDBDBD"/>
<use xlink:href="#path3_fill" transform="translate(-49993 -20825)" fill="#BDBDBD"/>
<use xlink:href="#path4_fill" transform="translate(-49993 -20825)" fill="#BDBDBD"/>
<use xlink:href="#path5_fill" transform="translate(-49993 -20825)" fill="#BDBDBD"/>
<use xlink:href="#path6_fill" transform="translate(-49993 -20825)" fill="#BDBDBD"/>
<use xlink:href="#path7_fill" transform="translate(-49993 -20825)" fill="#BDBDBD"/>
<use xlink:href="#path8_fill" transform="translate(-49993 -20825)" fill="#BDBDBD"/>
<use xlink:href="#path9_fill" transform="translate(-49993 -20825)" fill="#BDBDBD"/>
</g>
</g>
</g>
<defs>
<path id="path0_fill" d="M 35.4219 0.292953C 47.8438 -1.34377 49.5312 4.29686 49.2266 6.84373C 43.7031 5.53514 24.2305 6.29881 15.1797 6.84373C 16.7148 5.38866 23.3047 1.89256 35.4219 0.292953Z"/>
<path id="path1_fill" d="M 46.4648 33.5976C 51.6172 20.9316 55.9727 24.3164 57.5078 27.5918C 54.2852 9.02928 44.625 19.4023 40.4844 31.414C 37.3008 40.6504 36.8047 48.8848 37.2656 55.4375C 27.3281 59.8047 8.28125 56.8926 0 54.8906C 10.6719 61.4433 28.9844 61.625 36.8047 60.8965C 44.1641 66.1387 49.3789 58.7129 51.0664 54.3457C 44.625 60.8965 40.0234 49.4316 46.4648 33.5976Z"/>
<path id="path2_fill" d="M 63.0547 16.1738C 64.5586 13.7715 66.9258 12.2598 69.5547 12.2598C 73.8281 12.2598 77.4609 16.3086 77.6953 21.5859L 67.168 21.5859L 67.168 22.6777L 77.6953 22.6777C 77.4609 27.957 73.832 32.0078 69.5547 32.0078C 66.8906 32.0078 64.4961 30.4551 62.9922 27.9941L 62.1406 28.5156C 63.7852 31.2129 66.4766 33.0078 69.5547 33.0078C 74.6914 33.0078 78.707 28.0508 78.707 22.1328C 78.707 16.2168 74.6914 11.2598 69.5547 11.2598C 68.0742 11.2598 66.6836 11.6738 65.457 12.4043C 64.168 13.1738 63.0547 14.291 62.207 15.6426L 63.0547 16.1738Z"/>
<path id="path3_fill" fill-rule="evenodd" d="M 86.0273 33.5976C 89.332 33.5976 92.0078 30.1758 92.0078 25.9551C 92.0078 21.7324 89.332 18.3105 86.0273 18.3105C 85.5469 18.3105 85.082 18.3828 84.6367 18.5195C 84.1367 18.6699 83.6641 18.9023 83.2227 19.2031C 81.5703 20.3262 80.3789 22.4062 80.1055 24.8633L 80.0469 24.8633L 80.0469 39.0586L 80.9688 39.0586L 80.9688 30.0351C 82.0273 32.1758 83.8984 33.5976 86.0273 33.5976ZM 86.0273 32.5976C 88.5625 32.5976 91.0078 29.8652 91.0078 25.9551C 91.0078 23.7441 90.2266 21.9101 89.0898 20.7324C 88.2148 19.8262 87.1289 19.3105 86.0273 19.3105C 83.4922 19.3105 81.0469 22.043 81.0469 25.9551C 81.0469 27.041 81.2344 28.0351 81.5625 28.9062C 81.8008 29.543 82.1133 30.1133 82.4805 30.6035C 82.6562 30.8379 82.8438 31.0547 83.0391 31.2519C 83.9023 32.1094 84.957 32.5976 86.0273 32.5976Z"/>
<path id="path4_fill" fill-rule="evenodd" d="M 105.812 32.5078L 105.809 25.9551L 105.812 24.8633L 105.75 24.8633C 105.336 21.1582 102.844 18.3105 99.8281 18.3105C 96.5234 18.3105 93.8477 21.7324 93.8477 25.9551C 93.8477 30.1758 96.5234 33.5976 99.8281 33.5976C 101.902 33.5976 103.73 32.248 104.801 30.1992L 104.891 30.0234L 104.891 32.5078L 105.812 32.5078ZM 104.809 25.9551C 104.809 29.8652 102.363 32.5976 99.8281 32.5976C 97.293 32.5976 94.8477 29.8652 94.8477 25.9551C 94.8477 22.043 97.293 19.3105 99.8281 19.3105C 100.648 19.3105 101.461 19.5976 102.184 20.1172L 102.348 20.2402L 102.617 20.4629C 103.531 21.2871 104.258 22.5176 104.598 24.0215C 104.672 24.3555 104.73 24.7031 104.766 25.0625L 104.801 25.5527L 104.809 25.9551Z"/>
<path id="path5_fill" fill-rule="evenodd" d="M 107.191 58.7129C 110.496 58.7129 113.172 55.291 113.172 51.0703C 113.172 46.8476 110.496 43.4258 107.191 43.4258C 103.887 43.4258 101.211 46.8476 101.211 51.0703C 101.211 55.291 103.887 58.7129 107.191 58.7129ZM 107.191 57.7129C 109.727 57.7129 112.172 54.9805 112.172 51.0703C 112.172 47.1582 109.727 44.4258 107.191 44.4258C 104.656 44.4258 102.211 47.1582 102.211 51.0703C 102.211 52.1875 102.41 53.209 102.754 54.0957C 103 54.7285 103.32 55.2949 103.691 55.7812C 104.625 57 105.898 57.7129 107.191 57.7129Z"/>
<path id="path6_fill" d="M 83.7305 57.623L 83.7305 51.0703L 83.7695 51.0703C 83.7695 50.1758 83.7734 49.2773 83.8398 48.4394C 83.8984 47.7168 84.0039 47.041 84.2031 46.4531C 84.2656 46.2734 84.332 46.1055 84.4062 45.9492C 84.4727 45.8164 84.543 45.6914 84.6211 45.5762C 84.7695 45.3555 84.9375 45.168 85.1328 45.0137L 85.3438 44.8672L 85.5 44.7773L 85.6836 44.6933C 86.0234 44.5527 86.4375 44.4726 86.9492 44.4726C 87.7773 44.4726 88.3555 44.6855 88.7656 45.0137C 89.0391 45.2265 89.2617 45.5058 89.4375 45.8437C 89.5352 46.0293 89.6211 46.2324 89.6953 46.4531C 90.125 47.7246 90.1289 49.4062 90.1289 51.0703L 90.168 51.0703L 90.168 57.623L 91.0898 57.623L 91.0898 51.0703L 91.1289 51.0703C 91.1289 49.4062 91.1328 47.7246 91.5625 46.4531C 91.7734 45.8301 92.0742 45.3437 92.4922 45.0137C 92.6484 44.8887 92.832 44.7793 93.043 44.6933C 93.3828 44.5527 93.7969 44.4726 94.3086 44.4726C 95.1367 44.4726 95.7148 44.6855 96.125 45.0137C 96.5469 45.3437 96.8477 45.8301 97.0547 46.4531C 97.2344 46.9824 97.3398 47.584 97.3984 48.2265C 97.4844 49.123 97.4883 50.0996 97.4883 51.0703L 97.5312 51.0703L 97.5312 57.623L 98.4531 57.623L 98.4531 51.0703L 98.4883 51.0703L 98.4883 51.0195C 98.4883 50.2285 98.4883 49.3789 98.4297 48.5469C 98.3711 47.6953 98.25 46.8633 98.0039 46.1328C 97.7539 45.3906 97.3633 44.7168 96.7461 44.2285C 96.125 43.7363 95.3203 43.4726 94.3086 43.4726C 93.2969 43.4726 92.4922 43.7363 91.8711 44.2285C 91.543 44.4883 91.2773 44.8008 91.0625 45.1484C 90.9844 45.2754 90.9141 45.4062 90.8477 45.541C 90.7656 45.7148 90.6914 45.8945 90.625 46.0801C 90.5156 45.7598 90.375 45.4531 90.2031 45.168C 89.9883 44.8125 89.7227 44.4941 89.3867 44.2285C 89.2031 44.082 89.0039 43.9551 88.7852 43.8496L 88.6016 43.7676L 88.3047 43.6621L 87.9375 43.5683L 87.5938 43.5117L 87.3203 43.4844L 86.9492 43.4726C 85.9375 43.4726 85.1328 43.7363 84.5117 44.2285C 84.25 44.4355 84.0312 44.6758 83.8438 44.9414C 83.5898 45.3008 83.3984 45.7051 83.2539 46.1328C 82.7695 47.5762 82.7695 49.418 82.7695 51.0176L 82.7695 51.0703L 82.8086 51.0703L 82.8086 57.623L 83.7305 57.623Z"/>
<path id="path7_fill" fill-rule="evenodd" d="M 65.3281 54.0508C 64.2695 56.1973 62.3984 57.6211 60.2656 57.6211C 59.0547 57.6211 57.9297 57.1621 56.9883 56.3711C 55.3594 55.0058 54.2852 52.6523 54.2852 49.9785C 54.2852 45.7558 56.9609 42.334 60.2656 42.334C 63.2812 42.334 65.7695 45.1797 66.1836 48.8848L 66.25 48.8848L 66.2461 49.9785L 66.25 56.5293L 65.3281 56.5293L 65.3281 54.0508ZM 65.2461 49.9785C 65.2461 53.8887 62.8008 56.6211 60.2656 56.6211C 57.7305 56.6211 55.2852 53.8887 55.2852 49.9785C 55.2852 46.0664 57.7305 43.334 60.2656 43.334C 61.4023 43.334 62.5234 43.8848 63.4141 44.8476C 63.918 45.3945 64.3477 46.0723 64.6641 46.8594C 65.0312 47.7695 65.2461 48.8223 65.2461 49.9785Z"/>
<path id="path8_fill" fill-rule="evenodd" d="M 80.9688 51.6152C 80.9688 48.5371 79.3203 45.918 77.0117 44.9336C 77.1641 44.8555 77.3164 44.7695 77.4609 44.6758C 77.5859 44.5976 77.707 44.5137 77.8242 44.4219C 78.8516 43.6289 79.6289 42.3965 79.6289 40.6953C 79.6289 39.998 79.4766 39.4082 79.1953 38.918C 79.0859 38.7246 78.9531 38.5469 78.8047 38.3848C 78.2891 37.8223 77.5898 37.4863 76.8477 37.2773C 76.125 37.0762 75.3203 36.9863 74.5273 36.9473L 74.5273 36.875L 69.0078 36.875L 69.0078 51.6152C 69.0078 51.7988 68.9961 51.9824 69.0078 52.1621C 69.1523 54.4394 70.2109 56.414 71.7461 57.5859C 72.2734 57.9863 72.8555 58.293 73.4766 58.4844C 73.9609 58.6328 74.4688 58.7129 74.9883 58.7129C 78.293 58.7129 80.9688 55.5351 80.9688 51.6152ZM 74.9883 57.7129C 77.5859 57.7129 79.9688 55.1504 79.9688 51.6152C 79.9688 50.1543 79.5625 48.8594 78.9023 47.8437C 77.9922 46.4512 76.6133 45.5801 75.1484 45.5215C 74.9336 45.5488 74.7266 45.5625 74.5273 45.5625C 72.1172 45.8437 70.0078 48.291 70.0078 51.6152C 70.0078 54.4082 71.4961 56.5937 73.3984 57.3887C 73.9062 57.5996 74.4414 57.7129 74.9883 57.7129ZM 77.2109 43.6308C 76.5625 44.1289 75.7852 44.414 75.0859 44.5176L 74.9883 44.5176C 72.8594 44.5176 70.9883 45.8379 69.9297 47.8262L 69.9297 37.9668L 74.5273 37.9668C 75.25 38.0019 75.9531 38.0644 76.5781 38.2402C 77.043 38.3711 77.4414 38.5488 77.7539 38.7832C 77.8711 38.8691 77.9766 38.9609 78.0703 39.0625C 78.4062 39.4277 78.6289 39.9394 78.6289 40.6953C 78.6289 42.0527 78.0234 43.0039 77.2109 43.6308Z"/>
<path id="path9_fill" d="M 9.19922 19.4023C 17.4805 18.3105 21.6211 16.8926 26.6797 14.4902C 31.2812 12.3047 35.4219 11.2129 37.2617 13.9433C 39.1016 16.6738 38.1836 22.1328 37.2617 23.7715C 36.3438 25.4082 28.9805 30.8691 15.1797 29.2305C 26.2227 28.6855 33.3047 26.9375 35.8828 22.1328C 36.3438 20.3125 36.6172 16.4551 34.043 15.582C 30.3633 14.334 18.3984 20.4961 9.19922 19.4023Z"/>
</defs>
</svg>
