<svg width="24" height="29" viewBox="0 0 24 29" version="1.1" xmlns="http://www.w3.org/2000/svg" xmlns:xlink="http://www.w3.org/1999/xlink">
<title>Vector</title>
<desc>Created using Figma</desc>
<g id="Canvas" transform="translate(25209 18248)">
<g id="Vector">
<use xlink:href="#path0_fill" transform="translate(-25209 -18248)" fill="#FFFFFF"/>
</g>
</g>
<defs>
<path id="path0_fill" d="M 10.6002 0C 10.4138 0 10.2274 0.0927094 10.1109 0.255109L 7.94345 3.48L 5.9394 3.48C 5.75297 3.48 5.58984 3.5728 5.47332 3.712L 5.14697 4.12978L 4.1916 3.41022L 4.54116 2.94622C 4.72759 2.69102 4.68098 2.31982 4.42464 2.13422C 4.16829 1.94862 3.79543 1.99502 3.609 2.25022L 2.90988 3.17822L 0.812517 5.96222L 0.113397 6.89022C -0.0730347 7.14542 -0.0264267 7.51662 0.229917 7.70222C 0.346437 7.77182 0.462957 7.81822 0.579477 7.81822C 0.765909 7.81822 0.929037 7.74862 1.04556 7.58622L 1.39512 7.12222L 2.35049 7.84178L 1.97772 8.352C 1.90781 8.4448 1.8612 8.584 1.8612 8.7L 1.8612 28.42C 1.8612 28.7448 2.11754 29 2.4438 29L 23.4174 29C 23.7437 29 24 28.7448 24 28.42L 24 0.58C 24 0.2552 23.7437 0 23.4174 0L 18.7566 0L 10.6002 0ZM 10.9033 1.16L 17.6615 1.16L 16.0999 3.48L 9.34169 3.48L 10.9033 1.16ZM 19.0597 1.16L 22.8348 1.16L 22.8348 27.84L 3.0264 27.84L 3.0264 8.88578L 6.24253 4.64L 8.2698 4.64L 16.4262 4.64C 16.6126 4.64 16.799 4.54729 16.9155 4.38489L 19.0597 1.16ZM 3.49248 4.36178L 4.42464 5.05778L 3.0264 6.91378L 2.09424 6.21778L 3.49248 4.36178ZM 5.94213 10.4282C 5.79357 10.4282 5.64828 10.4862 5.54341 10.6022C 5.31037 10.8342 5.31037 11.2054 5.54341 11.4142L 8.8524 14.732L 8.8524 21.228L 5.51974 24.5222C 5.2867 24.7542 5.2867 25.1254 5.51974 25.3342C 5.63626 25.4502 5.77627 25.4969 5.9394 25.4969C 6.10253 25.4969 6.24253 25.4502 6.35905 25.3342L 9.66804 22.04L 16.1932 22.04L 19.5258 25.3578C 19.6423 25.4738 19.7819 25.52 19.945 25.52C 20.1081 25.52 20.2481 25.4738 20.3647 25.3578C 20.5977 25.1258 20.5977 24.7546 20.3647 24.5458L 17.0088 21.228L 17.0088 14.732L 20.3415 11.4142C 20.5745 11.1822 20.5745 10.811 20.3415 10.6022C 20.1084 10.3702 19.7355 10.3702 19.5258 10.6022L 16.1932 13.92L 9.66804 13.92L 6.35905 10.6022C 6.24253 10.4862 6.09069 10.4282 5.94213 10.4282ZM 10.0176 15.08L 15.8436 15.08L 15.8436 20.88L 10.0176 20.88L 10.0176 15.08Z"/>
</defs>
</svg>
