<svg width="39" height="44" viewBox="0 0 39 44" version="1.1" xmlns="http://www.w3.org/2000/svg" xmlns:xlink="http://www.w3.org/1999/xlink">
<title>Group 21</title>
<desc>Created using Figma</desc>
<g id="Canvas" transform="translate(46382 24331)">
<g id="Group 21">
<g id="Vector">
<mask id="mask0_outline_ins">
<use xlink:href="#path0_fill" fill="white" transform="translate(-46373.1 -24331)"/>
</mask>
<g mask="url(#mask0_outline_ins)">
<use xlink:href="#path1_stroke_2x" transform="translate(-46373.1 -24331)" fill="#FFFFFF"/>
</g>
</g>
<g id="Vector">
<use xlink:href="#path2_stroke" transform="translate(-46381 -24306.3)" fill="#FFFFFF"/>
</g>
</g>
</g>
<defs>
<path id="path0_fill" d="M 21.1429 10.5C 21.1429 4.72501 16.9308 0 10.5714 0C 4.21206 0 0 4.72501 0 10.5C 0 16.275 4.21206 21 10.5714 21C 16.9308 21 21.1429 16.275 21.1429 10.5Z"/>
<path id="path1_stroke_2x" d="M 24.1429 10.5C 24.1429 3.15199 18.6703 -3 10.5714 -3L 10.5714 3C 15.1913 3 18.1429 6.29802 18.1429 10.5L 24.1429 10.5ZM 10.5714 -3C 2.47259 -3 -3 3.15198 -3 10.5L 3 10.5C 3 6.29803 5.95152 3 10.5714 3L 10.5714 -3ZM -3 10.5C -3 17.848 2.47259 24 10.5714 24L 10.5714 18C 5.95152 18 3 14.702 3 10.5L -3 10.5ZM 10.5714 24C 18.6703 24 24.1429 17.848 24.1429 10.5L 18.1429 10.5C 18.1429 14.702 15.1913 18 10.5714 18L 10.5714 24Z"/>
<path id="path2_stroke" d="M 37.7761 11.9091C 35.4129 3.56978 27.6296 -1.5 18.5 -1.5L 18.5 1.5C 26.5334 1.5 32.9553 5.90058 34.8897 12.727L 37.7761 11.9091ZM 18.5 -1.5C 9.3865 -1.5 1.59642 3.58072 -0.772698 11.9081L 2.1128 12.729C 4.05287 5.9097 10.4854 1.5 18.5 1.5L 18.5 -1.5ZM 5 18.7592L 32 18.7592L 32 15.7592L 5 15.7592L 5 18.7592ZM -0.772698 11.9081C -1.3081 13.79 -0.734692 15.5551 0.412754 16.801C 1.53886 18.0238 3.21554 18.7592 5 18.7592L 5 15.7592C 4.02304 15.7592 3.15692 15.3523 2.6195 14.7687C 2.10342 14.2084 1.89257 13.5031 2.1128 12.729L -0.772698 11.9081ZM 34.8897 12.727C 35.1093 13.5018 34.8978 14.2078 34.3811 14.7685C 33.8433 15.3523 32.977 15.7592 32 15.7592L 32 18.7592C 33.7845 18.7592 35.4611 18.0239 36.5875 16.8013C 37.7351 15.5557 38.3094 13.7911 37.7761 11.9091L 34.8897 12.727Z"/>
</defs>
</svg>
