<svg width="33" height="34" viewBox="0 0 33 34" version="1.1" xmlns="http://www.w3.org/2000/svg" xmlns:xlink="http://www.w3.org/1999/xlink">
<title>motorcyclist-helmet-side-view</title>
<desc>Created using Figma</desc>
<g id="Canvas" transform="translate(43678 24633)">
<g id="motorcyclist-helmet-side-view">
<g id="Group">
<g id="Group">
<g id="Vector">
<use xlink:href="#path0_fill" transform="translate(-43677.2 -24632.1)" fill="#FFFFFF"/>
</g>
</g>
</g>
</g>
</g>
<defs>
<path id="path0_fill" d="M 31.4832 19.4132C 31.4832 17.0926 31.4832 13.5711 31.4832 11.6406C 31.4832 8.59408 28.7411 -0.85259 16.7043 0.0620834C 8.02596 0.720459 4.33783 6.76466 2.955 10.0871C 2.94597 10.1094 2.94385 10.1324 2.93548 10.1546C 2.89439 10.2047 2.84907 10.2508 2.82051 10.312C 2.68399 10.6088 -0.51646 17.6772 0.0721952 25.314C 0.0798448 25.4164 0.109132 25.5118 0.152989 25.5982C 0.155102 25.617 0.15095 25.633 0.153718 25.6525C 0.458828 28.0225 1.46275 30.1279 2.30916 31.5483C 2.95493 32.6324 4.54401 33.033 5.70747 32.5439L 29.3786 22.583C 30.5406 22.0933 31.4832 20.6756 31.4832 19.4132ZM 16.0856 12.4661C 15.2608 14.8166 13.4627 18.5473 9.84773 21.0866C 6.73784 23.2727 4.09195 23.7423 2.34398 23.7234C 2.05767 23.7206 1.78316 23.7589 1.52744 23.8265C 1.45022 19.0419 2.82539 14.5728 3.63421 12.3734C 3.8739 12.5302 4.15672 12.6333 4.47232 12.6611C 6.34283 12.8263 9.06397 12.6542 11.3713 10.8791C 12.8134 9.76935 13.9113 9.38687 14.7264 9.34921C 15.9867 9.29143 16.5037 11.2762 16.0856 12.4661ZM 25.3889 19.8689C 24.2533 19.8689 23.3323 18.9479 23.3323 17.8123C 23.3323 16.6767 24.2533 15.7557 25.3889 15.7557C 26.5244 15.7557 27.4461 16.6767 27.4461 17.8123C 27.4461 18.9479 26.5244 19.8689 25.3889 19.8689Z"/>
</defs>
</svg>
