<svg width="82" height="25" viewBox="0 0 82 25" version="1.1" xmlns="http://www.w3.org/2000/svg" xmlns:xlink="http://www.w3.org/1999/xlink">
<title>Group 25.1</title>
<desc>Created using Figma</desc>
<g id="Canvas" transform="translate(51219 51281)">
<g id="Group 25.1">
<g id="Group 24.1">
<g id="Union">
<use xlink:href="#path0_fill" transform="translate(-51218.4 -51281)" fill="#FFFFFF"/>
<use xlink:href="#path1_fill" transform="translate(-51218.4 -51281)" fill="#FFFFFF"/>
<use xlink:href="#path2_fill" transform="translate(-51218.4 -51281)" fill="#FFFFFF"/>
<use xlink:href="#path3_fill" transform="translate(-51218.4 -51281)" fill="#FFFFFF"/>
</g>
</g>
</g>
</g>
<defs>
<path id="path0_fill" d="M 75.7637 13.1914L 75.7637 13.1562C 75.7637 13.0703 75.7442 12.9727 75.7129 12.8711C 75.6661 12.7305 75.5918 12.582 75.502 12.4414C 75.3887 12.2656 75.252 12.1016 75.1036 11.9766C 71.1348 8.55078 58.3926 0 40.0684 0C 21.9903 0 9.90044 8.50781 5.85747 11.8438C 5.752 11.9336 5.65434 12.0234 5.57231 12.1094C 5.48638 12.1992 5.41216 12.2852 5.34966 12.3711L 5.20903 12.5859C 5.07231 12.8203 5.01763 13.0234 5.00981 13.1562C 5.00981 13.2148 5.02153 13.293 5.04497 13.3828C 5.61138 13.1953 6.15044 13.0352 6.66997 12.8945L 7.33794 12.7305L 8.07231 12.5742L 8.48247 12.5C 9.40434 12.3438 10.2715 12.2656 11.1309 12.2539C 12.0567 12.2422 12.9629 12.3086 13.9004 12.4219C 14.9395 12.5508 16.0137 12.7383 17.1934 12.9492L 17.7442 13.0508L 17.8848 13.0742L 18.1153 13.1172L 18.1973 13.1289L 18.502 13.1875L 20.7481 13.5742L 22.2989 13.8203C 22.9317 13.9141 23.5997 14.0078 24.3067 14.0977C 28.209 14.5938 33.3067 14.9961 40.3926 14.9961C 47.9122 14.9961 54.7754 14.0664 60.5254 13.2852L 63.0762 12.9453C 63.8536 12.8438 64.6114 12.7461 65.3457 12.6602L 67.0332 12.4766C 68.5332 12.3281 69.9082 12.2422 71.1309 12.2578C 72.9043 12.2773 74.5254 12.5039 75.7637 13.1914Z"/>
<path id="path1_fill" d="M 74.5059 14.8008L 74.3379 14.7305C 73.584 14.4336 72.5293 14.2695 71.1075 14.2539C 69.0411 14.2344 66.4356 14.5195 63.334 14.9258L 60.8067 15.2656C 55.0645 16.0469 48.0606 16.9961 40.3926 16.9961C 28.2989 16.9961 21.8809 15.832 17.3809 15.0156L 16.8418 14.918C 14.5801 14.5117 12.8887 14.2344 11.1543 14.2539C 10.0879 14.2695 8.98247 14.3984 7.71294 14.6992C 7.27544 14.8008 6.81841 14.9258 6.33794 15.0742C 10.0997 18.4258 18.9903 25 30.8145 25L 49.3262 25C 63.5567 25 71.5801 18.4297 74.7247 14.9062L 74.5059 14.8008Z"/>
<path id="path2_fill" d="M 4.30669 13.8398L 4.3145 13.9023C 4.3145 13.9609 4.31059 14.0234 4.29497 14.082L 4.26763 14.1523L 4.19731 14.2578L 3.24419 17.5312C 3.21684 17.6172 3.16997 17.6914 3.10747 17.75C 3.06059 17.793 3.00591 17.8281 2.94341 17.8516C 2.84184 17.8906 2.72856 17.8984 2.61919 17.8633C 2.35356 17.7852 2.20513 17.5039 2.28716 17.2422L 2.81841 15.4922L 1.1895 16.9414C 0.982469 17.125 0.666063 17.1094 0.482469 16.9023C 0.298876 16.6953 0.314501 16.3789 0.521532 16.1953L 2.11919 14.7773L 0.595751 15.0742C 0.451219 15.1016 0.310594 15.0664 0.201219 14.9844C 0.158251 14.9531 0.119188 14.9141 0.0879382 14.8711L 0.0332507 14.7734L 0.00981318 14.6797C -0.0448743 14.4102 0.134813 14.1484 0.404344 14.0938L 3.71684 13.4453C 3.99028 13.3945 4.252 13.5703 4.30669 13.8398Z"/>
<path id="path3_fill" d="M 76.4707 13.9688C 76.4668 13.9258 76.4707 13.8828 76.4786 13.8398C 76.4864 13.7969 76.4981 13.7578 76.5176 13.7227C 76.6153 13.5234 76.8379 13.4023 77.0684 13.4453L 80.3809 14.0938C 80.6504 14.1484 80.8301 14.4102 80.7754 14.6797C 80.7481 14.8164 80.67 14.9297 80.5645 15.0039C 80.459 15.0742 80.3262 15.1016 80.1895 15.0742L 78.6661 14.7773L 80.2637 16.1953C 80.4122 16.3281 80.4629 16.5312 80.4082 16.7109C 80.3887 16.7773 80.3536 16.8438 80.3028 16.9023C 80.1192 17.1094 79.8028 17.125 79.5957 16.9414L 77.9668 15.4922L 78.4981 17.2422C 78.5801 17.5039 78.4317 17.7852 78.1661 17.8633C 77.9004 17.9453 77.6192 17.793 77.5411 17.5312L 76.5332 14.1758C 76.5098 14.1328 76.4903 14.0859 76.4825 14.0391L 76.4707 13.9688Z"/>
</defs>
</svg>
