<svg width="22" height="22" viewBox="0 0 22 22" version="1.1" xmlns="http://www.w3.org/2000/svg" xmlns:xlink="http://www.w3.org/1999/xlink">
<title>Group 23</title>
<desc>Created using Figma</desc>
<g id="Canvas" transform="translate(43046 24370)">
<g id="Group 23">
<g id="Rectangle 7">
<mask id="mask0_outline_ins">
<use xlink:href="#path0_fill" fill="white" transform="translate(-43046 -24370)"/>
</mask>
<g mask="url(#mask0_outline_ins)">
<use xlink:href="#path1_stroke_2x" transform="translate(-43046 -24370)" fill="#FFFFFF"/>
</g>
</g>
<g id="Ellipse">
<mask id="mask1_outline_ins">
<use xlink:href="#path2_fill" fill="white" transform="translate(-43040 -24364)"/>
</mask>
<g mask="url(#mask1_outline_ins)">
<use xlink:href="#path3_stroke_2x" transform="translate(-43040 -24364)" fill="#FFFFFF"/>
</g>
</g>
<g id="Ellipse">
<use xlink:href="#path4_fill" transform="translate(-43030 -24366)" fill="#FFFFFF"/>
</g>
</g>
</g>
<defs>
<path id="path0_fill" d="M 0 5C 0 2.23858 2.23858 0 5 0L 17 0C 19.7614 0 22 2.23858 22 5L 22 17C 22 19.7614 19.7614 22 17 22L 5 22C 2.23858 22 0 19.7614 0 17L 0 5Z"/>
<path id="path1_stroke_2x" d="M 5 2.5L 17 2.5L 17 -2.5L 5 -2.5L 5 2.5ZM 19.5 5L 19.5 17L 24.5 17L 24.5 5L 19.5 5ZM 17 19.5L 5 19.5L 5 24.5L 17 24.5L 17 19.5ZM 2.5 17L 2.5 5L -2.5 5L -2.5 17L 2.5 17ZM 5 19.5C 3.61929 19.5 2.5 18.3807 2.5 17L -2.5 17C -2.5 21.1421 0.857865 24.5 5 24.5L 5 19.5ZM 19.5 17C 19.5 18.3807 18.3807 19.5 17 19.5L 17 24.5C 21.1421 24.5 24.5 21.1421 24.5 17L 19.5 17ZM 17 2.5C 18.3807 2.5 19.5 3.61929 19.5 5L 24.5 5C 24.5 0.857864 21.1421 -2.5 17 -2.5L 17 2.5ZM 5 -2.5C 0.857864 -2.5 -2.5 0.857865 -2.5 5L 2.5 5C 2.5 3.61929 3.61929 2.5 5 2.5L 5 -2.5Z"/>
<path id="path2_fill" d="M 10 5C 10 7.76142 7.76142 10 5 10C 2.23858 10 0 7.76142 0 5C 0 2.23858 2.23858 0 5 0C 7.76142 0 10 2.23858 10 5Z"/>
<path id="path3_stroke_2x" d="M 7.5 5C 7.5 6.38071 6.38071 7.5 5 7.5L 5 12.5C 9.14214 12.5 12.5 9.14214 12.5 5L 7.5 5ZM 5 7.5C 3.61929 7.5 2.5 6.38071 2.5 5L -2.5 5C -2.5 9.14214 0.857864 12.5 5 12.5L 5 7.5ZM 2.5 5C 2.5 3.61929 3.61929 2.5 5 2.5L 5 -2.5C 0.857864 -2.5 -2.5 0.857864 -2.5 5L 2.5 5ZM 5 2.5C 6.38071 2.5 7.5 3.61929 7.5 5L 12.5 5C 12.5 0.857864 9.14214 -2.5 5 -2.5L 5 2.5Z"/>
<path id="path4_fill" d="M 2 1C 2 1.55228 1.55228 2 1 2C 0.447715 2 0 1.55228 0 1C 0 0.447715 0.447715 0 1 0C 1.55228 0 2 0.447715 2 1Z"/>
</defs>
</svg>
