<svg width="55" height="19" viewBox="0 0 55 19" version="1.1" xmlns="http://www.w3.org/2000/svg" xmlns:xlink="http://www.w3.org/1999/xlink">
<title>Group</title>
<desc>Created using Figma</desc>
<g id="Canvas" transform="translate(46688 24763)">
<g id="Group">
<g id="LIVE TIMING">
<use xlink:href="#path0_fill" transform="translate(-46668 -24762)" fill="#FFFFFF"/>
</g>
<g id="Vector">
<use xlink:href="#path1_fill" transform="translate(-46688 -24763)" fill="#FFFFFF"/>
</g>
</g>
</g>
<defs>
<path id="path0_fill" d="M 0.549 6L 0.549 -0.39L 2.304 -0.39L 2.304 4.47L 5.202 4.47L 5.202 6L 0.549 6ZM 6.26365 6L 6.26365 -0.39L 8.01865 -0.39L 8.01865 6L 6.26365 6ZM 10.8031 -0.39L 12.0541 3.795L 13.2871 -0.39L 15.1321 -0.39L 12.7831 6L 11.3251 6L 8.94909 -0.39L 10.8031 -0.39ZM 20.621 4.47L 20.621 6L 16.067 6L 16.067 -0.39L 20.54 -0.39L 20.54 1.14L 17.822 1.14L 17.822 2.04L 20.144 2.04L 20.144 3.462L 17.822 3.462L 17.822 4.47L 20.621 4.47ZM 5.526 12.14L 3.69 12.14L 3.69 17L 1.935 17L 1.935 12.14L 0.09 12.14L 0.09 10.61L 5.526 10.61L 5.526 12.14ZM 6.61521 17L 6.61521 10.61L 8.37021 10.61L 8.37021 17L 6.61521 17ZM 14.7547 17L 14.7547 13.634L 13.6837 16.001L 12.7477 16.001L 11.6767 13.634L 11.6767 17L 9.92166 17L 9.92166 10.61L 11.8387 10.61L 13.2157 13.616L 14.6017 10.61L 16.5097 10.61L 16.5097 17L 14.7547 17ZM 18.0533 17L 18.0533 10.61L 19.8083 10.61L 19.8083 17L 18.0533 17ZM 23.1147 13.859L 23.1147 17L 21.3597 17L 21.3597 10.61L 22.7277 10.61L 25.2927 13.859L 25.2927 10.61L 27.0477 10.61L 27.0477 17L 25.6527 17L 23.1147 13.859ZM 32.9329 16.469C 32.4769 16.853 31.9519 17.045 31.3579 17.045C 30.9439 17.045 30.5479 16.973 30.1699 16.829C 29.7919 16.679 29.4619 16.463 29.1799 16.181C 28.8979 15.899 28.6729 15.554 28.5049 15.146C 28.3369 14.738 28.2529 14.273 28.2529 13.751C 28.2529 13.301 28.3369 12.884 28.5049 12.5C 28.6729 12.11 28.9039 11.774 29.1979 11.492C 29.4919 11.204 29.8369 10.979 30.2329 10.817C 30.6349 10.649 31.0669 10.565 31.5289 10.565C 31.8169 10.565 32.0929 10.598 32.3569 10.664C 32.6209 10.724 32.8639 10.817 33.0859 10.943C 33.3139 11.063 33.5179 11.21 33.6979 11.384C 33.8779 11.552 34.0249 11.744 34.1389 11.96L 32.8339 12.959C 32.7079 12.707 32.5189 12.506 32.2669 12.356C 32.0149 12.2 31.7479 12.122 31.4659 12.122C 31.2559 12.122 31.0639 12.164 30.8899 12.248C 30.7159 12.332 30.5659 12.449 30.4399 12.599C 30.3139 12.749 30.2149 12.929 30.1429 13.139C 30.0709 13.343 30.0349 13.568 30.0349 13.814C 30.0349 14.066 30.0709 14.294 30.1429 14.498C 30.2149 14.702 30.3139 14.879 30.4399 15.029C 30.5719 15.173 30.7279 15.287 30.9079 15.371C 31.0879 15.449 31.2889 15.488 31.5109 15.488C 32.0209 15.488 32.4709 15.278 32.8609 14.858L 31.7539 14.858L 31.7539 13.598L 34.3819 13.598L 34.3819 17L 32.9329 17L 32.9329 16.469Z"/>
<path id="path1_fill" d="M 0 18L 0 0L 14 9L 0 18Z"/>
</defs>
</svg>
