<svg width="180" height="32" viewBox="0 0 180 32" version="1.1" xmlns="http://www.w3.org/2000/svg" xmlns:xlink="http://www.w3.org/1999/xlink">
<title>Group 3</title>
<desc>Created using Figma</desc>
<g id="Canvas" transform="translate(62602 26289)">
<g id="Group 3">
<g id="Group">
<g id="Vector">
<use xlink:href="#path0_fill" transform="matrix(1 -1.10418e-18 -1.33508e-18 1 -62602 -26288.7)" fill="#FFFFFF"/>
</g>
<g id="Vector">
<use xlink:href="#path1_fill" transform="matrix(1 -1.15263e-18 -1.27895e-18 1 -62587.8 -26288.8)" fill="#FFFFFF"/>
</g>
<g id="Vector">
<use xlink:href="#path2_fill" transform="matrix(1 -1.15263e-18 -1.27895e-18 1 -62575.4 -26288.7)" fill="#FFFFFF"/>
</g>
<g id="Vector">
<use xlink:href="#path3_fill" transform="matrix(1 -1.15263e-18 -1.27895e-18 1 -62553.7 -26288.7)" fill="#FFFFFF"/>
</g>
<g id="Vector">
<use xlink:href="#path4_fill" transform="matrix(1 -1.15263e-18 -1.27895e-18 1 -62542.7 -26288.7)" fill="#FFFFFF"/>
</g>
<g id="Vector">
<use xlink:href="#path5_fill" transform="matrix(1 -1.15263e-18 -1.27895e-18 1 -62530 -26288.8)" fill="#FFFFFF"/>
</g>
<g id="Vector">
<use xlink:href="#path6_fill" transform="matrix(1 -1.15263e-18 -1.27895e-18 1 -62517.7 -26288.7)" fill="#FFFFFF"/>
</g>
<g id="Vector">
<use xlink:href="#path7_fill" transform="matrix(1 -1.15263e-18 -1.27895e-18 1 -62503.1 -26288.8)" fill="#FFFFFF"/>
</g>
<g id="Vector">
<use xlink:href="#path8_fill" transform="matrix(1 -1.15263e-18 -1.27895e-18 1 -62492.8 -26288.8)" fill="#FFFFFF"/>
</g>
<g id="Vector">
<use xlink:href="#path9_fill" transform="matrix(1 -1.15263e-18 -1.27895e-18 1 -62474.3 -26288.7)" fill="#FFFFFF"/>
</g>
<g id="Vector">
<use xlink:href="#path10_fill" transform="matrix(1 -1.15263e-18 -1.27895e-18 1 -62464.9 -26288.7)" fill="#FFFFFF"/>
</g>
<g id="Vector">
<use xlink:href="#path11_fill" transform="matrix(1 -1.15263e-18 -1.27895e-18 1 -62450.8 -26288.8)" fill="#FFFFFF"/>
</g>
<g id="Vector">
<use xlink:href="#path12_fill" transform="matrix(1 -1.15263e-18 -1.27895e-18 1 -62437.8 -26288.7)" fill="#FFFFFF"/>
</g>
</g>
<g id="Group 2.1">
<g id="Vector">
<use xlink:href="#path13_fill" transform="matrix(1 -1.22928e-18 -1.19921e-18 1 -62602 -26270.8)" fill="#FFFFFF"/>
</g>
<g id="Vector">
<use xlink:href="#path14_fill" transform="matrix(1 -1.21779e-18 -1.21052e-18 1 -62587.8 -26271)" fill="#FFFFFF"/>
</g>
<g id="Vector">
<use xlink:href="#path15_fill" transform="matrix(1 -1.21779e-18 -1.21052e-18 1 -62576.6 -26271)" fill="#FFFFFF"/>
</g>
<g id="Vector">
<use xlink:href="#path16_fill" transform="matrix(1 -1.21779e-18 -1.21052e-18 1 -62561.5 -26270.8)" fill="#FFFFFF"/>
</g>
<g id="Vector">
<use xlink:href="#path17_fill" transform="matrix(1 -1.21779e-18 -1.21052e-18 1 -62548.4 -26270.8)" fill="#FFFFFF"/>
</g>
<g id="Vector">
<use xlink:href="#path18_fill" transform="matrix(1 -1.21779e-18 -1.21052e-18 1 -62533.5 -26271)" fill="#FFFFFF"/>
</g>
</g>
</g>
</g>
<defs>
<path id="path0_fill" d="M 11.7269 10.935L 7.96335 10.935L 10.0407 6.59355L 5.82019 6.59355L 3.7428 10.935L 0 10.935L 5.19349 -1.98637e-06L 8.95011 -1.98637e-06L 7.10124 3.87282L 11.3218 3.87282L 13.1672 -1.98637e-06L 16.9239 -1.98637e-06L 11.7269 10.935Z"/>
<path id="path1_fill" d="M 8.07224 11.058L 11.3026 4.63695C 11.3026 4.63695 11.3268 4.6044 11.3303 4.59138C 11.3586 4.53089 11.3795 4.46756 11.3926 4.40261C 11.4168 4.30823 11.4203 4.23014 11.3199 4.23014C 11.2195 4.23014 10.946 4.46446 10.6274 4.76062L 5.16041 10.0817C 4.37446 10.8302 3.3704 11.1914 1.77427 11.1914C 0.0777265 11.1914 -0.150781 10.3778 0.0708077 9.48935C 0.155513 9.1729 0.271426 8.86456 0.41704 8.56833L 4.43333 0.132748L 8.24189 0.132748L 5.10156 6.39761C 5.03669 6.51764 4.98338 6.6429 4.94228 6.77188C 4.91458 6.88253 4.94228 6.94435 5.03231 6.94435C 5.12233 6.94435 5.34046 6.77186 5.56205 6.55381L 10.9633 1.28809C 11.4021 0.854273 11.9358 0.515004 12.5275 0.293644C 13.1193 0.072285 13.755 -0.0259069 14.391 0.00582894C 16.2364 0.00582894 16.3853 1.00494 16.1672 1.8804C 16.0923 2.16401 15.9903 2.4407 15.8625 2.70705L 11.8946 11.058L 8.07224 11.058Z"/>
<path id="path2_fill" d="M 6.00368 6.19326C 6.56457 5.74089 6.99736 5.47402 7.09776 5.06721C 7.12119 4.82317 7.08569 4.57732 6.9939 4.34798L 5.78208 0.00650974L 9.788 0.00650974L 10.7852 4.06808C 10.8682 4.40204 10.8682 4.74952 10.7852 5.08348C 10.5664 5.87769 10.0807 6.58426 9.40022 7.098L 4.70184 10.9285L -6.76236e-06 10.9285L 6.00368 6.19326ZM 13.6208 0.00976739L 17.3774 0.00976739L 12.1839 10.9448L 8.40307 10.9448L 13.6208 0.00976739ZM 16.2141 10.9448L 15.0577 6.78884C 14.9568 6.47129 14.9484 6.13412 15.0334 5.8125C 15.2308 5.01515 15.6047 4.59531 16.3907 3.90536L 20.954 4.37002e-06L 25.275 4.37002e-06L 19.666 4.62461C 19.3198 4.90449 18.8732 5.2039 18.7762 5.60095C 18.7359 5.89857 18.7814 6.20091 18.9078 6.4764L 20.5905 10.9285L 16.2141 10.9448Z"/>
<path id="path3_fill" d="M 13.5561 2.66215L 7.80863 2.66215C 7.58006 2.65682 7.3557 2.7207 7.16868 2.84434C 6.98166 2.96798 6.84187 3.14485 6.76994 3.34886L 6.38562 4.16248L 12.7355 4.16248L 11.586 6.56752L 5.23613 6.56752L 4.74793 7.5992C 4.70903 7.68035 4.67664 7.7641 4.65099 7.84978C 4.57829 8.14594 4.74101 8.28589 5.13917 8.28589L 10.9247 8.28589L 9.6783 10.9285L 1.20251 10.9285C 0.222673 10.9285 -0.137397 10.3655 0.0461062 9.62673C 0.0830059 9.4812 0.135201 9.33948 0.201915 9.20365L 3.76811 1.71837C 3.97291 1.2157 4.33425 0.782794 4.80494 0.476227C 5.27563 0.16966 5.83377 0.00369253 6.4064 4.37002e-06L 14.8164 4.37002e-06L 13.5561 2.66215Z"/>
<path id="path4_fill" d="M -3.38118e-06 10.935L 4.39369 1.71836C 4.9165 0.624856 5.70245 -1.98637e-06 7.03198 -1.98637e-06L 15.442 -1.98637e-06L 14.1505 2.71748L 8.3996 2.71748C 8.17103 2.71215 7.94667 2.77601 7.75965 2.89965C 7.57263 3.0233 7.43284 3.20017 7.36091 3.40417L 3.75663 10.935L -3.38118e-06 10.935Z"/>
<path id="path5_fill" d="M 14.2009 3.91839C 14.0306 4.59744 13.7989 5.26161 13.5084 5.90363C 11.4968 10.6389 9.45056 11.1856 4.79719 11.1856C 0.891682 11.1856 -0.527867 10.0759 0.171523 7.28026C 0.343304 6.59736 0.574916 5.929 0.863989 5.28201C 2.8756 0.550009 4.92183 9.53969e-06 9.57866 9.53969e-06C 13.5015 -0.00324493 14.9037 1.10327 14.2009 3.91839ZM 4.16011 6.90275C 3.88659 7.99625 4.50636 8.46489 5.84628 8.46489C 7.84058 8.46489 8.74424 7.77819 9.7137 5.7474C 9.93507 5.27905 10.1123 4.79337 10.2434 4.29592C 10.5169 3.20241 9.89719 2.71749 8.57458 2.71749C 6.58028 2.71749 5.66277 3.40419 4.70716 5.43498C 4.47831 5.90772 4.29186 6.39759 4.14973 6.89949L 4.16011 6.90275Z"/>
<path id="path6_fill" d="M 1.01435e-05 10.935L 4.39368 1.71836C 4.59848 1.21569 4.95985 0.782798 5.43054 0.476231C 5.90123 0.169664 6.45936 0.00368618 7.03199 -1.98637e-06L 13.2988 -1.98637e-06C 15.3762 -1.98637e-06 15.9232 1.07723 15.5078 2.73375C 15.3765 3.22914 15.2052 3.71439 14.9953 4.18525C 13.8874 6.70096 12.9179 7.76517 9.92649 7.76517L 5.25582 7.76517L 3.75316 10.922L 1.01435e-05 10.935ZM 9.19248 5.07698C 10.1896 5.07698 10.6813 4.96633 11.1764 4.04531C 11.2711 3.86514 11.3465 3.67652 11.4014 3.48228C 11.5503 2.88996 11.1383 2.73375 10.3073 2.73375L 8.39615 2.73375C 8.16757 2.72842 7.94322 2.79228 7.7562 2.91592C 7.56918 3.03956 7.42939 3.21644 7.35745 3.42044L 6.5611 5.07698L 9.19248 5.07698Z"/>
<path id="path7_fill" d="M 14.2043 3.91839C 14.0339 4.59741 13.8022 5.26156 13.5119 5.90363C 11.5003 10.6389 9.45401 11.1856 4.79718 11.1856C 0.891677 11.1856 -0.527872 10.0759 0.171518 7.28026C 0.343176 6.59733 0.574792 5.92895 0.863983 5.28201C 2.87559 0.550009 4.92182 9.53969e-06 9.57519 9.53969e-06C 13.5015 -0.00324493 14.9037 1.10327 14.2043 3.91839ZM 4.16359 6.90275C 3.89007 7.99625 4.5098 8.46489 5.85319 8.46489C 7.84749 8.46489 8.75117 7.77819 9.72062 5.7474C 9.94201 5.27906 10.1193 4.79338 10.2503 4.29592C 10.5239 3.20241 9.90411 2.71749 8.5815 2.71749C 6.5872 2.71749 5.66623 3.40419 4.71409 5.43498C 4.4829 5.90752 4.29412 6.3974 4.14973 6.89949L 4.16359 6.90275Z"/>
<path id="path8_fill" d="M -7.60765e-06 13.1676L 1.48881 10.0596C 2.01162 8.96606 2.78024 8.34121 4.10977 8.34121L 4.27598 8.34121L 10.9686 1.23345C 11.4707 0.686696 12.274 -7.94549e-07 14.2336 -7.94549e-07C 16.1933 -7.94549e-07 16.311 0.686696 16.311 1.23345L 16.2175 8.34121L 16.3837 8.34121C 17.3636 8.34121 17.7444 8.88797 17.5575 9.643C 17.5206 9.78853 17.4684 9.93025 17.4016 10.0661L 15.9128 13.1741L 12.3224 13.1741L 13.0149 11.7519C 13.0525 11.6762 13.0837 11.5979 13.1084 11.5176C 13.1811 11.2214 13.0564 11.0652 12.7067 11.0652L 5.19348 11.0652C 4.98171 11.0763 4.77863 11.148 4.61152 11.2708C 4.4444 11.3935 4.32126 11.5614 4.25867 11.7519L 3.5662 13.1741L -7.60765e-06 13.1676ZM 8.08453 8.34121L 12.8383 8.34121L 13.0149 3.43672C 13.0149 3.32607 13.053 3.15684 12.9353 3.15684C 12.8175 3.15684 12.6964 3.31305 12.589 3.43672L 8.08453 8.34121Z"/>
<path id="path9_fill" d="M 3.59908 10.935C 0.541844 10.935 -0.441462 9.54537 0.174832 7.07523C 0.357489 6.36508 0.603014 5.67054 0.908844 4.99887C 2.595 1.23345 4.31578 -1.98637e-06 8.47057 -1.98637e-06L 13.3905 -1.98637e-06L 12.0991 2.71748L 9.1111 2.71748C 6.61822 2.71748 5.80803 2.96808 4.6897 5.32106C 4.46711 5.79031 4.28532 6.27573 4.14611 6.77256C 3.84489 7.97672 4.56506 8.22404 6.49358 8.22404L 9.65122 8.22404L 8.35978 10.9415L 3.59908 10.935Z"/>
<path id="path10_fill" d="M 5.19349 7.94549e-07L 8.9501 7.94549e-07L 3.75662 10.935L 0 10.935L 5.19349 7.94549e-07ZM 8.4827 10.935L 6.81385 6.7042C 6.70844 6.4119 6.69998 6.09639 6.78962 5.79947C 6.94338 5.08882 7.34263 4.44583 7.92527 3.97046L 12.9699 0.00325844L 17.4224 0.00325844L 11.1902 4.67342C 10.8132 4.89043 10.5336 5.22959 10.4043 5.62698C 10.3556 5.86289 10.4012 6.10741 10.5324 6.31368L 12.821 10.9383L 8.4827 10.935Z"/>
<path id="path11_fill" d="M 14.2043 3.91839C 14.0339 4.59741 13.8022 5.26156 13.5119 5.90363C 11.5003 10.6389 9.45403 11.1856 4.7972 11.1856C 0.891691 11.1856 -0.52788 10.0759 0.17151 7.28026C 0.343169 6.59733 0.574784 5.92895 0.863976 5.28201C 2.87559 0.550009 4.92183 9.53969e-06 9.5752 9.53969e-06C 13.5049 -0.00324493 14.9072 1.10327 14.2043 3.91839ZM 4.16358 6.90275C 3.89006 7.99625 4.50982 8.46489 5.8532 8.46489C 7.8475 8.46489 8.75116 7.77819 9.72061 5.7474C 9.942 5.27906 10.1193 4.79338 10.2504 4.29592C 10.5239 3.20241 9.90412 2.71749 8.58152 2.71749C 6.58722 2.71749 5.66622 3.40419 4.71408 5.43498C 4.48408 5.90763 4.29646 6.3975 4.15319 6.89949L 4.16358 6.90275Z"/>
<path id="path12_fill" d="M 13.5526 2.66215L 7.80172 2.66215C 7.57315 2.65682 7.34879 2.7207 7.16177 2.84434C 6.97475 2.96798 6.83496 3.14485 6.76302 3.34886L 6.37869 4.16248L 12.7251 4.16248L 11.5756 6.56752L 5.22575 6.56752L 4.73755 7.5992C 4.69865 7.68035 4.66626 7.7641 4.64062 7.84978C 4.56791 8.14594 4.73063 8.28589 5.12879 8.28589L 10.9455 8.28589L 9.6783 10.9285L 1.20251 10.9285C 0.222669 10.9285 -0.137401 10.3655 0.046102 9.62673C 0.0830017 9.4812 0.135197 9.33948 0.201911 9.20365L 3.7681 1.71837C 3.9729 1.2157 4.33425 0.782794 4.80494 0.476227C 5.27563 0.16966 5.83377 0.00369253 6.40639 4.37002e-06L 14.8025 4.37002e-06L 13.5526 2.66215Z"/>
<path id="path13_fill" d="M 5.22567 8.42156e-07L 8.9905 8.42156e-07L 3.78565 11.5902L 0 11.5902L 5.22567 8.42156e-07ZM 8.52207 11.5902L 6.84958 7.10591C 6.74393 6.79608 6.73546 6.46168 6.82529 6.14696C 6.97939 5.39373 7.37951 4.71222 7.96343 4.20836L 13.0191 0.00345368L 17.4814 0.00345368L 11.2355 4.95344C 10.8577 5.18345 10.5775 5.54294 10.4479 5.96413C 10.3991 6.21418 10.4448 6.47335 10.5762 6.69199L 12.8699 11.5937L 8.52207 11.5902Z"/>
<path id="path14_fill" d="M 14.2354 4.15317C 14.0646 4.87287 13.8324 5.57682 13.5414 6.25736C 11.5254 11.2763 9.4747 11.8558 4.80768 11.8558C 0.89363 11.8558 -0.529025 10.6796 0.171895 7.71648C 0.343929 6.99263 0.576051 6.2842 0.865876 5.5985C 2.88189 0.582964 4.9326 1.01113e-05 9.59615 1.01113e-05C 13.5345 -0.00343936 14.9398 1.16937 14.2354 4.15317ZM 4.17269 7.31635C 3.89857 8.47537 4.51968 8.97209 5.866 8.97209C 7.86467 8.97209 8.77031 8.24424 9.74188 6.09177C 9.96375 5.59537 10.1414 5.08058 10.2728 4.55332C 10.5469 3.3943 9.92579 2.88031 8.60029 2.88031C 6.60162 2.88031 5.67863 3.60816 4.7244 5.76063C 4.4939 6.2616 4.30587 6.78082 4.16228 7.3129L 4.17269 7.31635Z"/>
<path id="path15_fill" d="M 8.91417 1.35909C 10.0141 0.0827873 11.5166 -8.42156e-07 12.2314 -8.42156e-07C 12.9462 -8.42156e-07 14.3862 0.0482926 14.3446 1.35909L 13.9663 11.7075L 10.2015 11.7075L 10.8261 4.03934C 10.8261 3.9393 10.8573 3.75648 10.774 3.75648C 10.6908 3.75648 10.552 3.92206 10.4583 4.03934L 4.21246 11.7075L -2.965e-06 11.7075L 8.91417 1.35909Z"/>
<path id="path16_fill" d="M 4.5883 8.42156e-07L 8.35315 8.42156e-07L 6.5592 4.00829L 10.907 4.00829C 13.0375 4.00829 13.6066 5.06728 13.1694 6.9231C 13.0689 7.34191 12.9331 7.75154 12.7634 8.14765C 11.6947 10.6313 10.8202 11.5971 7.81878 11.5971L 1.20515 11.5971C 0.223164 11.5971 -0.137705 11.0004 0.0461999 10.2173C 0.0831804 10.0631 0.13549 9.91288 0.20235 9.76891L 4.5883 8.42156e-07ZM 5.26146 6.89895L 4.7722 7.99242C 4.73337 8.0785 4.7009 8.16727 4.67505 8.25804C 4.60218 8.57194 4.76527 8.72026 5.1643 8.72026L 7.07969 8.72026C 8.07902 8.72026 8.57869 8.72027 8.9569 7.8924C 9.01299 7.77481 9.05828 7.65243 9.09224 7.52675C 9.22409 6.96449 8.773 6.89895 7.909 6.89895L 5.26146 6.89895Z"/>
<path id="path17_fill" d="M 4.69233 8.23044C 4.61599 8.57539 4.79643 8.70992 5.19547 8.70992L 8.72783 8.70992L 12.6315 8.42157e-07L 16.3963 8.42157e-07L 12.4927 8.70992L 12.6592 8.70992C 13.6412 8.70992 14.0021 9.30668 13.8182 10.0897C 13.7812 10.244 13.7289 10.3942 13.662 10.5381L 12.1838 13.8324L 8.58556 13.8324L 9.25873 12.325C 9.29632 12.2447 9.32764 12.1617 9.35241 12.0766C 9.42181 11.78 9.30037 11.5971 8.96725 11.5971L 1.22243 11.5971C 0.240449 11.5971 -0.141246 11.0176 0.0461289 10.2173C 0.0831094 10.0631 0.135419 9.91288 0.202279 9.76891L 4.58824 8.42157e-07L 8.35308 8.42157e-07L 4.77214 7.98209C 4.74026 8.0631 4.7136 8.14605 4.69233 8.23044Z"/>
<path id="path18_fill" d="M 14.2354 4.15317C 14.0646 4.87287 13.8324 5.57682 13.5414 6.25736C 11.5254 11.2763 9.4747 11.8558 4.80768 11.8558C 0.893636 11.8558 -0.529029 10.6796 0.171891 7.71648C 0.343924 6.99263 0.576047 6.2842 0.865871 5.5985C 2.88188 0.582964 4.9326 1.01113e-05 9.59614 1.01113e-05C 13.531 -0.00343936 14.9363 1.16937 14.2354 4.15317ZM 4.17269 7.31635C 3.89856 8.47537 4.51968 8.97209 5.866 8.97209C 7.86466 8.97209 8.77031 8.24424 9.74188 6.09177C 9.96376 5.59537 10.1414 5.08058 10.2728 4.55332C 10.5469 3.3943 9.92579 2.88031 8.60028 2.88031C 6.60162 2.88031 5.67862 3.60816 4.7244 5.76063C 4.49389 6.2616 4.30587 6.78082 4.16228 7.3129L 4.17269 7.31635Z"/>
</defs>
</svg>
