<svg width="152" height="37" viewBox="0 0 152 37" version="1.1" xmlns="http://www.w3.org/2000/svg" xmlns:xlink="http://www.w3.org/1999/xlink">
<title>nnru</title>
<desc>Created using Figma</desc>
<g id="Canvas" transform="translate(50405 20808)">
<g id="nnru">
<use xlink:href="#path0_fill" transform="translate(-50405 -20808)" fill="#BDBDBD"/>
<use xlink:href="#path1_fill" transform="translate(-50405 -20808)" fill="#BDBDBD"/>
<use xlink:href="#path2_fill" transform="translate(-50405 -20808)" fill="#BDBDBD"/>
<use xlink:href="#path3_fill" transform="translate(-50405 -20808)" fill="#BDBDBD"/>
<use xlink:href="#path4_fill" transform="translate(-50405 -20808)" fill="#BDBDBD"/>
<use xlink:href="#path5_fill" transform="translate(-50405 -20808)" fill="#BDBDBD"/>
<use xlink:href="#path6_fill" transform="translate(-50405 -20808)" fill="#BDBDBD"/>
<use xlink:href="#path7_fill" transform="translate(-50405 -20808)" fill="#BDBDBD"/>
<use xlink:href="#path8_fill" transform="translate(-50405 -20808)" fill="#BDBDBD"/>
<use xlink:href="#path9_fill" transform="translate(-50405 -20808)" fill="#BDBDBD"/>
<use xlink:href="#path10_fill" transform="translate(-50405 -20808)" fill="#BDBDBD"/>
<use xlink:href="#path11_fill" transform="translate(-50405 -20808)" fill="#BDBDBD"/>
<use xlink:href="#path12_fill" transform="translate(-50405 -20808)" fill="#BDBDBD"/>
<use xlink:href="#path13_fill" transform="translate(-50405 -20808)" fill="#BDBDBD"/>
<use xlink:href="#path14_fill" transform="translate(-50405 -20808)" fill="#BDBDBD"/>
<use xlink:href="#path15_fill" transform="translate(-50405 -20808)" fill="#BDBDBD"/>
<use xlink:href="#path16_fill" transform="translate(-50405 -20808)" fill="#BDBDBD"/>
<use xlink:href="#path17_fill" transform="translate(-50405 -20808)" fill="#BDBDBD"/>
<use xlink:href="#path18_fill" transform="translate(-50405 -20808)" fill="#BDBDBD"/>
<use xlink:href="#path19_fill" transform="translate(-50405 -20808)" fill="#BDBDBD"/>
<use xlink:href="#path20_fill" transform="translate(-50405 -20808)" fill="#BDBDBD"/>
<use xlink:href="#path21_fill" transform="translate(-50405 -20808)" fill="#BDBDBD"/>
<use xlink:href="#path22_fill" transform="translate(-50405 -20808)" fill="#BDBDBD"/>
<use xlink:href="#path23_fill" transform="translate(-50405 -20808)" fill="#BDBDBD"/>
<use xlink:href="#path24_fill" transform="translate(-50405 -20808)" fill="#BDBDBD"/>
<use xlink:href="#path25_fill" transform="translate(-50405 -20808)" fill="#BDBDBD"/>
</g>
</g>
<defs>
<path id="path0_fill" d="M 120.743 1.72553L 120.743 3.45128C 120.743 3.65419 120.743 4.06023 120.658 4.36471L 120.743 4.36471L 120.802 4.20866L 120.85 4.06315L 120.867 4.00889C 120.91 3.88221 120.953 3.75553 120.996 3.65419L 121.841 1.82709L 123.106 1.82709L 123.106 6.59785L 121.756 6.59785L 121.756 4.87232L 121.758 4.62211C 121.763 4.40103 121.779 4.17996 121.841 3.95867L 121.756 3.95867C 121.715 4.06001 121.673 4.18669 121.632 4.31337L 121.573 4.48691L 121.503 4.66919L 120.658 6.49651L 119.391 6.49651L 119.391 1.72553L 120.743 1.72553Z"/>
<path id="path1_fill" d="M 122.43 0.406046C 122.346 0.608956 122.178 0.913659 121.925 1.015L 121.682 1.10805C 121.51 1.1706 121.337 1.21814 121.165 1.21814C 120.912 1.21814 120.658 1.21814 120.405 1.015C 120.236 0.913659 120.067 0.710524 119.898 0.406046L 120.658 0C 120.658 0.101567 120.743 0.202911 120.827 0.304478L 120.865 0.341697L 120.903 0.368378L 120.953 0.389903C 121.007 0.406046 121.073 0.406046 121.165 0.406046C 121.249 0.406046 121.418 0.406046 121.503 0.304478C 121.528 0.273986 121.546 0.243493 121.56 0.213C 121.594 0.141925 121.612 0.0710748 121.672 0L 122.43 0.406046Z"/>
<path id="path2_fill" d="M 74.5564 1.62418L 74.5564 6.39494L 75.9078 6.39494L 75.9078 4.77098L 76.7524 4.77098L 76.7524 6.39494L 78.102 6.39494L 78.102 1.62418L 76.7524 1.62418L 76.7524 3.24837L 75.9078 3.24837L 75.9078 1.62418L 74.5564 1.62418Z"/>
<path id="path3_fill" d="M 69.9972 33.8018L 0.929079 33.8018C 0.422309 33.8018 0 33.2942 0 32.6852L 0 3.24837C 0 2.63941 0.422309 2.1318 0.929079 2.1318L 69.9972 2.1318L 69.9972 3.1468L 0.929079 3.1468L 0.844618 32.5837L 69.9972 32.6852L 69.9972 33.8018Z"/>
<path id="path4_fill" d="M 150.886 33.802L 136.025 33.802L 136.025 32.787L 150.886 32.787L 150.971 3.35016L 126.653 3.24859L 126.653 2.23359L 150.886 2.23359C 151.393 2.23359 151.816 2.7412 151.816 3.35016L 151.816 32.787C 151.76 33.1917 151.555 33.507 151.3 33.6726C 151.17 33.7563 151.028 33.802 150.886 33.802Z"/>
<path id="path5_fill" d="M 84.4366 1.72597L 84.4366 3.4515C 84.4366 3.65464 84.4366 4.06068 84.3521 4.36516L 84.4366 4.36516C 84.4779 4.26382 84.5193 4.13714 84.5606 4.01046L 84.6037 3.88557C 84.6325 3.80217 84.6612 3.72257 84.69 3.65464L 85.5346 1.82754L 86.7997 1.82754L 86.7997 6.5983L 85.4501 6.5983L 85.4501 4.87277C 85.4501 4.56807 85.4501 4.26359 85.5346 3.95911L 85.4501 3.95911C 85.3657 4.16202 85.2812 4.46673 85.1968 4.66964L 84.3521 6.49673L 83.0852 6.49673L 83.0852 1.72597L 84.4366 1.72597Z"/>
<path id="path6_fill" d="M 93.8101 4.46628L 93.8101 6.39494L 95.1597 6.39494L 95.1597 4.46628C 95.2441 4.66941 95.2441 4.77098 95.3286 4.87232L 95.9198 6.39494L 97.5246 6.39494L 96.2577 3.95889L 97.4401 1.62418L 95.9198 1.62418L 95.3286 3.1468C 95.3286 3.1468 95.3286 3.17527 95.3034 3.26249L 95.2423 3.44365L 95.1597 3.65441L 95.1597 1.62418L 93.8101 1.62418L 93.8101 3.65441C 93.7795 3.51316 93.749 3.42101 93.7238 3.35666L 93.704 3.30756L 93.6735 3.24949C 93.6537 3.2107 93.6411 3.18648 93.6411 3.1468L 93.0499 1.62418L 91.5296 1.62418L 92.7121 3.95889L 91.4451 6.39494L 93.0499 6.39494L 93.6411 4.87232C 93.7256 4.77098 93.7256 4.66941 93.8101 4.46628Z"/>
<path id="path7_fill" d="M 102.084 6.39494L 102.084 1.62418L 103.435 1.62418L 103.435 3.24837L 104.28 3.24837L 104.28 1.62418L 105.629 1.62418L 105.629 6.39494L 104.364 6.39494L 104.364 4.77098L 103.52 4.77098L 103.52 6.39494L 102.084 6.39494Z"/>
<path id="path8_fill" d="M 112.047 3.4515L 112.047 1.72597L 110.695 1.72597L 110.695 6.49673L 111.962 6.49673L 112.807 4.66964C 112.891 4.46673 112.976 4.16202 113.06 3.95911L 113.145 3.95911C 113.06 4.26359 113.06 4.56807 113.06 4.87277L 113.06 6.5983L 114.41 6.5983L 114.41 1.82754L 113.145 1.82754L 112.3 3.65464C 112.216 3.85755 112.131 4.16202 112.047 4.36516L 111.962 4.36516C 112.047 4.06068 112.047 3.65464 112.047 3.4515Z"/>
<path id="path9_fill" d="M 74.5564 30.3505L 74.5564 35.1213L 75.9078 35.1213L 75.9078 33.4973L 76.7524 33.4973L 76.7524 35.1213L 78.102 35.1213L 78.102 30.3505L 76.7524 30.3505L 76.7524 31.9747L 75.9078 31.9747L 75.9078 30.3505L 74.5564 30.3505Z"/>
<path id="path10_fill" fill-rule="evenodd" d="M 83.5291 34.8874C 83.2829 34.7634 83.0726 34.5977 82.9163 34.4105C 82.5784 34.0045 82.3251 33.4969 82.3251 32.6848C 82.3251 31.9742 82.5784 31.3653 82.9163 30.9592C 83.0996 30.7397 83.3566 30.5501 83.6603 30.422C 83.7807 30.3714 83.9083 30.3303 84.0412 30.301C 84.194 30.2671 84.3539 30.2487 84.5211 30.2487C 84.8661 30.2487 85.1878 30.3279 85.4663 30.4593C 85.7323 30.5855 85.9587 30.7601 86.124 30.9592C 86.4619 31.3653 86.7153 31.8729 86.7153 32.6848C 86.7153 33.4969 86.4619 34.106 86.124 34.4105C 85.7862 34.8166 85.1968 35.121 84.5211 35.121C 84.1563 35.121 83.8166 35.0325 83.5291 34.8874ZM 84.0143 32.0758C 83.8454 32.2787 83.7609 32.4819 83.7609 32.7863C 83.7609 33.0908 83.8454 33.294 84.0143 33.4969C 84.0287 33.5139 84.0484 33.5309 84.07 33.5475L 84.1113 33.5751C 84.1491 33.5978 84.1922 33.6191 84.2371 33.6372C 84.3324 33.6749 84.4366 33.7 84.5211 33.7C 84.69 33.7 84.9434 33.5984 85.0278 33.4969C 85.1968 33.294 85.2794 33.0908 85.2794 32.7863C 85.2794 32.4819 85.1968 32.2787 85.0278 32.0758C 84.9434 31.9742 84.7744 31.8729 84.5211 31.8729C 84.4654 31.8509 84.415 31.8384 84.3683 31.8343C 84.2964 31.8285 84.2335 31.842 84.1814 31.8713C 84.1419 31.8929 84.1095 31.9229 84.079 31.9599L 84.0628 31.9837L 84.0412 32.0182L 84.0143 32.0758Z"/>
<path id="path11_fill" fill-rule="evenodd" d="M 92.4587 30.3505L 90.7694 30.3505L 90.7694 35.0197L 92.7121 35.0197C 92.9654 35.0197 93.3878 35.0197 93.7238 34.7152C 93.855 34.6098 93.9646 34.4769 94.0383 34.3022C 94.1066 34.1408 94.1461 33.9439 94.1461 33.7002L 94.1407 33.5648C 94.1353 33.4917 94.1245 33.4195 94.1084 33.3498C 94.0868 33.2603 94.0581 33.1747 94.0221 33.0958C 93.9862 33.0193 93.943 32.9491 93.8927 32.8881L 93.8783 32.8718L 93.7508 32.7254L 93.713 32.6863L 93.6717 32.6509C 93.6124 32.6061 93.5513 32.5837 93.4722 32.5837C 93.6411 32.4821 93.7238 32.3807 93.8083 32.2792C 93.9772 32.076 93.9772 31.8731 93.9772 31.67C 93.9772 31.1626 93.7238 30.8581 93.6411 30.7566C 93.3033 30.3505 92.7965 30.3505 92.4587 30.3505ZM 92.3742 32.1776L 92.1208 32.1776L 92.1208 31.5687L 92.3742 31.5687C 92.4137 31.5687 92.4533 31.5687 92.4928 31.5792C 92.518 31.5859 92.5431 31.5971 92.5683 31.6153C 92.5881 31.629 92.6078 31.6469 92.6276 31.67C 92.6276 31.67 92.7121 31.7716 92.7121 31.8731C 92.7121 31.9747 92.6276 32.076 92.6276 32.076C 92.5431 32.1776 92.4587 32.1776 92.3742 32.1776ZM 92.3742 34.0047L 92.1208 34.0047L 92.1208 33.1926L 92.4587 33.1926C 92.5018 33.1926 92.5647 33.1926 92.6294 33.2056C 92.6923 33.2184 92.7552 33.2437 92.7965 33.2942C 92.881 33.3957 92.881 33.4971 92.881 33.5987C 92.881 33.7002 92.7965 33.8018 92.7121 33.9031C 92.6078 33.9655 92.5359 33.9897 92.4766 33.9989L 92.4299 34.0036L 92.3742 34.0047Z"/>
<path id="path12_fill" d="M 98.3674 35.0197L 98.3674 30.3505L 101.07 30.3505L 101.07 31.67L 99.8033 31.67L 99.8033 35.0197L 98.3674 35.0197Z"/>
<path id="path13_fill" fill-rule="evenodd" d="M 106.896 35.121C 107.572 35.121 108.161 34.8166 108.499 34.4105C 108.837 34.106 109.006 33.4969 109.09 32.6848C 109.09 31.8729 108.837 31.3653 108.499 30.9592C 108.161 30.5532 107.572 30.2487 106.896 30.2487C 106.221 30.2487 105.629 30.5532 105.291 30.9592C 104.954 31.3653 104.7 31.9742 104.7 32.6848C 104.7 33.1144 104.772 33.4587 104.889 33.748C 104.991 34.0056 105.132 34.2193 105.291 34.4105C 105.629 34.8166 106.221 35.121 106.896 35.121ZM 106.052 32.7863C 106.052 32.4819 106.136 32.2787 106.305 32.0758C 106.474 31.8729 106.643 31.7713 106.812 31.8729C 107.065 31.8729 107.234 31.9742 107.319 32.0758C 107.487 32.2787 107.572 32.4819 107.572 32.7863L 107.567 32.9245L 107.552 33.0186C 107.541 33.0832 107.523 33.1431 107.502 33.1998C 107.459 33.3058 107.398 33.4014 107.319 33.4969C 107.234 33.5984 106.981 33.7 106.812 33.7C 106.643 33.7 106.389 33.5984 106.305 33.4969C 106.136 33.294 106.052 33.0908 106.052 32.7863Z"/>
<path id="path14_fill" fill-rule="evenodd" d="M 113.145 35.1213L 113.145 30.3505L 115.003 30.3505C 115.425 30.3505 115.847 30.4521 116.183 30.8581C 116.352 31.061 116.606 31.4671 116.606 32.076C 116.606 32.6852 116.352 33.0913 116.183 33.2942C 116.016 33.4973 115.678 33.7002 115.256 33.7002L 114.58 33.7002L 114.58 35.1213L 113.145 35.1213ZM 114.665 32.4821L 114.834 32.4821C 114.918 32.4821 115.087 32.4821 115.172 32.3807L 115.209 32.3348L 115.236 32.2931L 115.251 32.255L 115.254 32.209L 115.256 32.076L 115.251 32.0285L 115.229 31.9586L 115.218 31.933C 115.208 31.9074 115.195 31.8819 115.188 31.8563L 115.172 31.7924L 115.172 31.7716C 115.147 31.7415 115.121 31.7204 115.096 31.7056C 115.075 31.6922 115.053 31.6839 115.032 31.6787C 114.994 31.67 114.956 31.67 114.918 31.67L 114.665 31.67L 114.665 32.4821Z"/>
<path id="path15_fill" fill-rule="evenodd" d="M 122.685 35.121C 122.951 35.121 123.203 35.0742 123.431 34.9926C 123.785 34.8663 124.083 34.6572 124.288 34.4105C 124.626 34.106 124.795 33.4969 124.879 32.6848C 124.879 31.8729 124.626 31.3653 124.288 30.9592C 123.95 30.5532 123.361 30.2487 122.685 30.2487C 122.01 30.2487 121.418 30.5532 121.08 30.9592C 120.743 31.3653 120.489 31.9742 120.489 32.6848C 120.489 33.4969 120.743 34.0045 121.08 34.4105C 121.418 34.8166 122.01 35.121 122.685 35.121ZM 121.841 32.7863C 121.841 32.4819 121.925 32.2787 122.094 32.0758C 122.146 32.0133 122.198 31.9601 122.25 31.9198C 122.367 31.8296 122.484 31.8027 122.601 31.8729C 122.669 31.8729 122.732 31.8805 122.789 31.8938L 122.886 31.9236C 122.987 31.9626 123.061 32.0191 123.108 32.0758C 123.215 32.2052 123.289 32.3348 123.329 32.4904C 123.339 32.5341 123.347 32.5801 123.352 32.6287C 123.357 32.6783 123.361 32.7305 123.361 32.7863C 123.361 33.0908 123.276 33.294 123.108 33.4969C 123.023 33.5984 122.77 33.7 122.601 33.7C 122.432 33.7 122.178 33.5984 122.094 33.4969C 122.015 33.4016 121.954 33.3063 121.912 33.2007L 121.875 33.0841C 121.857 33.0191 121.846 32.9493 121.842 32.8731L 121.841 32.7863Z"/>
<path id="path16_fill" fill-rule="evenodd" d="M 132.733 30.4521L 132.733 33.8018L 133.239 33.8018L 133.239 36.0349L 132.057 36.0349L 132.057 35.1213L 129.947 35.1213L 129.947 36.0349L 128.765 36.0349L 128.765 33.8018C 129.018 33.8018 129.187 33.5987 129.271 33.4973C 129.525 33.1926 129.525 32.6852 129.525 32.2792L 129.525 30.4521L 132.733 30.4521ZM 130.623 32.3807C 130.623 32.5727 130.623 32.7417 130.605 32.9099C 130.585 33.0973 130.544 33.2832 130.454 33.4973C 130.369 33.5987 130.369 33.7002 130.2 33.8018L 131.299 33.8018L 131.299 31.7716L 130.538 31.7716L 130.538 32.3807L 130.623 32.3807Z"/>
<path id="path17_fill" d="M 12.5812 11.8767L 7.93761 11.8767L 12.2434 26.6966L 16.0441 26.6966L 17.3093 20.7077C 17.3937 20.2003 17.4782 19.185 17.4782 18.6777L 17.6471 18.6777C 17.7316 19.3882 17.816 20.0987 17.9005 20.7077L 19.083 26.6966L 22.9664 26.6966L 27.274 11.8767L 22.6286 11.8767L 21.3634 18.3732C 21.3383 18.5839 21.3059 18.7947 21.2718 19.0108L 21.261 19.0754L 21.2161 19.3828L 21.1729 19.7084C 21.1478 19.9216 21.128 20.144 21.1172 20.3794L 21.11 20.7077L 21.0256 20.7077C 21.0256 20.0987 20.8567 19.0837 20.7722 18.5761L 19.3364 11.8767L 15.8752 11.8767L 14.5238 18.2716C 14.3549 18.9821 14.186 19.7942 14.186 20.7077L 14.1015 20.7077C 14.1015 19.8781 14.0314 19.4669 13.9542 19.0182L 13.9326 18.8806L 12.5812 11.8767Z"/>
<path id="path18_fill" d="M 27.6945 11.8767L 32.3381 11.8767L 33.6895 18.8806C 33.7739 19.3882 33.8584 19.7942 33.8584 20.7077L 33.9428 20.7077C 33.9428 19.7942 34.1118 18.9821 34.2807 18.2716L 35.6321 11.8767L 39.0932 11.8767L 40.5291 18.5761C 40.6135 19.0837 40.7825 20.0987 40.7825 20.7077L 40.8669 20.7077C 40.8669 19.7942 41.0358 19.0837 41.1203 18.3732L 42.3854 11.8767L 47.0308 11.8767L 42.7233 26.6966L 38.8398 26.6966L 37.6574 20.7077C 37.5729 20.0987 37.4884 19.3882 37.404 18.6777L 37.2351 18.6777C 37.2351 19.185 37.1506 20.2003 37.0661 20.7077L 35.801 26.6966L 32.0002 26.6966L 27.6945 11.8767Z"/>
<path id="path19_fill" d="M 52.0105 11.8767L 47.3669 11.8767L 51.6726 26.6966L 55.4734 26.6966L 56.7385 20.7077C 56.823 20.2003 56.9075 19.185 56.9075 18.6777L 57.0764 18.6777C 57.1608 19.3882 57.2453 20.0987 57.3298 20.7077L 58.5122 26.6966L 62.3957 26.6966L 66.7032 11.8767L 62.0578 11.8767L 60.7927 18.3732C 60.7675 18.5839 60.7352 18.7947 60.701 19.0108C 60.622 19.5232 60.5393 20.0653 60.5393 20.7077L 60.4549 20.7077C 60.4549 20.0987 60.2859 19.0837 60.2015 18.5761L 58.7656 11.8767L 55.3045 11.8767L 53.9531 18.2716C 53.7842 18.9821 53.6152 19.7942 53.6152 20.7077L 53.5308 20.7077C 53.5308 20.1615 53.5002 19.7967 53.4589 19.483C 53.4409 19.3424 53.4176 19.2122 53.3942 19.081L 53.3888 19.0595L 53.3834 19.0196L 53.3619 18.8806L 52.0105 11.8767Z"/>
<path id="path20_fill" d="M 70.9263 25.7829C 70.5903 26.2905 70.0835 26.4934 69.6612 26.4934C 69.3934 26.4934 69.0915 26.4118 68.8202 26.2226C 68.6638 26.1134 68.5183 25.9685 68.3943 25.7829C 68.2379 25.5948 68.1139 25.3291 68.042 25.0338C 67.9971 24.8511 67.9719 24.6571 67.9719 24.4632C 67.9719 24.2659 68.0115 24.0444 68.0816 23.8222C 68.157 23.5876 68.2649 23.3522 68.3943 23.1437C 68.7321 22.6361 69.2389 22.4332 69.6612 22.4332C 70.0835 22.4332 70.5903 22.6361 70.9263 23.1437C 71.1797 23.4482 71.3486 23.9558 71.3486 24.4632C 71.3486 24.9708 71.1797 25.4784 70.9263 25.7829Z"/>
<path id="path21_fill" d="M 106.812 26.4934C 107.234 26.4934 107.741 26.2905 108.077 25.7829C 108.33 25.4784 108.499 24.9708 108.499 24.4632C 108.499 23.9558 108.33 23.4482 108.077 23.1437C 107.741 22.6361 107.234 22.4332 106.812 22.4332C 106.389 22.4332 105.883 22.6361 105.545 23.1437C 105.435 23.3197 105.342 23.5148 105.27 23.7123C 105.214 23.8666 105.173 24.0222 105.148 24.1715L 105.133 24.2827C 105.126 24.3446 105.123 24.4049 105.123 24.4632C 105.123 24.7809 105.189 25.0986 105.3 25.3665C 105.344 25.4683 105.392 25.5629 105.446 25.6477C 105.477 25.6961 105.511 25.7414 105.545 25.7829C 105.883 26.2905 106.389 26.4934 106.812 26.4934Z"/>
<path id="path22_fill" d="M 74.5564 26.6966L 74.5564 11.8767L 78.8621 11.8767L 81.7338 17.4595C 81.8632 17.7378 81.9836 17.9783 82.1022 18.2129L 82.113 18.233C 82.3772 18.7608 82.627 19.2622 82.9163 20.0987L 83.0852 20.0987C 83.0169 19.7299 82.9343 19.2619 82.8606 18.7615C 82.7528 18.0221 82.6629 17.2118 82.6629 16.5459L 82.6629 11.8767L 86.9687 11.8767L 86.9687 26.6966L 82.6629 26.6966L 79.6223 20.8092C 79.3689 20.3016 79.031 19.4897 78.7777 18.8806L 78.6087 18.8806C 78.6519 19.0839 78.6896 19.3128 78.722 19.553C 78.8154 20.2711 78.8621 21.0888 78.8621 21.6213L 78.8621 26.6966L 74.5564 26.6966Z"/>
<path id="path23_fill" d="M 89.6696 11.8767L 89.6696 26.6966L 93.9754 26.6966L 93.9754 21.6213C 93.9754 21.276 93.9556 20.811 93.9161 20.331C 93.873 19.8229 93.8083 19.298 93.722 18.8806L 93.8909 18.8806C 94.1443 19.4897 94.4822 20.3016 94.7355 20.8092L 97.7762 26.6966L 102.082 26.6966L 102.082 11.8767L 97.7762 11.8767L 97.7762 16.5459C 97.7762 17.6624 98.0296 19.185 98.1985 20.0987L 98.0296 20.0987C 97.8894 19.6947 97.76 19.3689 97.6324 19.0806C 97.4958 18.7718 97.3628 18.5059 97.2263 18.233L 97.2155 18.2129L 97.0699 17.9223L 96.8471 17.4595L 93.9754 11.8767L 89.6696 11.8767Z"/>
<path id="path24_fill" fill-rule="evenodd" d="M 111.793 26.595L 111.793 11.8767L 117.366 11.8767C 118.633 11.8767 119.984 12.0796 121.165 13.3993C 121.756 14.1098 122.347 15.3279 122.347 17.0535C 122.347 18.3732 122.01 19.185 121.672 19.6927C 121.508 19.9395 121.264 20.1861 120.978 20.398C 120.678 20.6218 120.331 20.8065 119.984 20.9108L 119.984 21.0121L 120.22 21.207C 120.389 21.3532 120.543 21.5141 120.658 21.7229L 123.445 26.6966L 118.295 26.6966L 116.521 22.3318L 116.448 22.1493L 116.39 21.9576L 116.352 21.8242L 116.268 21.8242L 116.268 26.595L 111.793 26.595ZM 116.099 18.4745L 116.606 18.4745C 116.859 18.4745 117.281 18.4745 117.535 18.17C 117.704 17.9671 117.873 17.764 117.873 17.2566C 117.873 16.9519 117.788 16.5459 117.619 16.3429C 117.45 16.14 117.197 15.9369 116.859 15.9369L 116.099 15.9369L 116.099 18.4745Z"/>
<path id="path25_fill" d="M 129.692 11.8767L 125.386 11.8767L 125.386 21.4182C 125.386 22.5348 125.555 23.9558 126.484 25.1739C 127.836 27.001 129.945 27.1026 131.043 27.1026C 132.395 27.1026 134.167 26.7981 135.434 25.2755C 136.532 23.8545 136.7 22.1287 136.7 21.0121L 136.7 11.9782L 132.226 11.9782L 132.226 20.6063C 132.226 20.9108 132.226 21.7227 131.888 22.1287C 131.719 22.2303 131.381 22.4334 130.959 22.4334C 130.747 22.4334 130.567 22.3931 130.4 22.287C 130.301 22.2249 130.208 22.1399 130.114 22.0274C 129.85 21.7108 129.751 21.3547 129.713 21.0332C 129.692 20.8393 129.692 20.6577 129.692 20.5047L 129.692 11.8767Z"/>
</defs>
</svg>
