<svg width="13" height="21" viewBox="0 0 13 21" version="1.1" xmlns="http://www.w3.org/2000/svg" xmlns:xlink="http://www.w3.org/1999/xlink">
<title>odnoklassniki-logo</title>
<desc>Created using Figma</desc>
<g id="Canvas" transform="translate(43042 24442)">
<g id="odnoklassniki-logo">
<g id="Group">
<g id="Group">
<g id="Vector">
<use xlink:href="#path0_fill" transform="translate(-43042 -24431.4)" fill="#FFFFFF"/>
</g>
<g id="Vector">
<use xlink:href="#path1_fill" transform="translate(-43041 -24442)" fill="#FFFFFF"/>
</g>
</g>
</g>
</g>
</g>
<defs>
<path id="path0_fill" d="M 5.43432 4.21629C 3.75598 4.0465 2.24271 3.64556 0.947106 2.66267C 0.786346 2.54038 0.620372 2.4225 0.47367 2.28592C -0.0934102 1.75763 -0.150549 1.15259 0.298172 0.529073C 0.682046 -0.00449084 1.32644 -0.147229 1.99624 0.159141C 2.12594 0.218524 2.24951 0.292643 2.36787 0.372259C 4.78244 1.98153 8.09944 2.02596 10.5231 0.444618C 10.7632 0.26603 11.0199 0.120433 11.3174 0.0460946C 11.8958 -0.0979633 12.4352 0.108116 12.7456 0.599013C 13.1002 1.15963 13.0957 1.70683 12.6588 2.14208C 11.9885 2.80937 11.1824 3.29212 10.2868 3.62907C 9.43993 3.94753 8.51233 4.10787 7.59426 4.21432C 7.7328 4.36057 7.7981 4.43249 7.88471 4.51695C 9.13134 5.73187 10.3834 6.94174 11.6259 8.1604C 12.0493 8.57564 12.1377 9.09051 11.9046 9.57349C 11.6498 10.1013 11.0793 10.4486 10.5199 10.4114C 10.1655 10.3877 9.88911 10.2166 9.64355 9.97663C 8.7028 9.0584 7.74436 8.1571 6.82266 7.2215C 6.55442 6.94943 6.42541 7.0009 6.18869 7.23711C 5.24227 8.18217 4.28043 9.11272 3.31293 10.038C 2.87849 10.4534 2.36152 10.5282 1.8577 10.2909C 1.32214 10.0391 0.981344 9.50883 1.00765 8.97592C 1.02579 8.61545 1.20854 8.34009 1.46362 8.0931C 2.69732 6.89819 3.92762 5.7002 5.15838 4.50331C 5.23978 4.42369 5.31573 4.33924 5.43432 4.21629Z"/>
<path id="path1_fill" d="M 5.43191 10.6293C 2.43779 10.6194 -0.0173666 8.21176 9.25129e-05 5.30289C 0.0173249 2.36191 2.47407 -0.00811673 5.49767 2.08931e-05C 8.52738 0.00793858 10.9592 2.41206 10.944 5.38361C 10.9286 8.28654 8.45641 10.6394 5.43191 10.6293ZM 8.15303 5.30993C 8.14782 3.86561 6.96196 2.71579 5.4759 2.71447C 3.97736 2.71293 2.78085 3.88364 2.79241 5.34116C 2.80352 6.77998 3.99959 7.92166 5.48973 7.91638C 6.97534 7.91133 8.15802 6.75402 8.15303 5.30993Z"/>
</defs>
</svg>
