<svg width="23" height="24" viewBox="0 0 23 24" version="1.1" xmlns="http://www.w3.org/2000/svg" xmlns:xlink="http://www.w3.org/1999/xlink">
<title>phone_2</title>
<desc>Created using Figma</desc>
<g id="Canvas" transform="translate(44664 18967)">
<g id="phone_2">
<mask id="mask0_outline_ins">
<use xlink:href="#path0_fill" fill="white" transform="matrix(1.18002e-08 1 -1 1.20508e-08 -44641 -18967)"/>
</mask>
<g mask="url(#mask0_outline_ins)">
<use xlink:href="#path1_stroke_2x" transform="matrix(1.18002e-08 1 -1 1.20508e-08 -44641 -18967)" fill="#FFFFFF"/>
</g>
</g>
</g>
<defs>
<path id="path0_fill" d="M 22.3687 2.92031C 22.3431 2.89498 22.3431 2.89498 22.3175 2.86966L 19.5533 0.48959C 19.1694 0.135111 18.6575 -0.0421291 18.0944 0.00851077C 17.6081 0.0591507 17.1218 0.26171 16.7634 0.61619C 16.7379 0.64151 16.7123 0.666829 16.6867 0.692149L 13.9736 4.08502C 13.257 4.84462 13.2826 6.00934 14.0248 6.74362C 14.076 6.79426 14.1272 6.8449 14.1784 6.87022L 15.5605 7.78174C 15.4581 8.26281 14.7415 9.63009 12.2076 12.1368C 9.69929 14.6181 8.29157 15.3271 7.83087 15.4284L 6.90945 14.0611C 6.88386 14.0104 6.83267 13.9598 6.78148 13.9092C 6.03923 13.1749 4.83628 13.1749 4.09403 13.8585L 0.689922 16.5424C 0.664327 16.5678 0.638732 16.5931 0.613137 16.6184C -0.154706 17.378 -0.205896 18.644 0.485164 19.3783L 2.89107 22.0875C 2.91667 22.1128 2.91667 22.1128 2.94226 22.1381C 3.40297 22.5939 4.11962 22.7711 4.91306 22.7711C 6.32077 22.7711 7.93325 22.2141 8.77787 21.8849C 10.4159 21.2519 13.6153 19.7074 16.789 16.5678C 19.1438 14.2383 21.0378 11.4278 22.1639 8.64261C 22.6246 7.37661 23.6996 4.23694 22.3687 2.92031Z"/>
<path id="path1_stroke_2x" d="M 22.3687 2.92031L 23.7753 1.49848L 22.3687 2.92031ZM 22.3175 2.86966L 23.7241 1.44784L 23.6749 1.39919L 23.6225 1.35406L 22.3175 2.86966ZM 19.5533 0.48959L 18.1965 1.95903L 18.222 1.98256L 18.2483 2.00519L 19.5533 0.48959ZM 18.0944 0.00851077L 17.9152 -1.98345L 17.9012 -1.98219L 17.8872 -1.98073L 18.0944 0.00851077ZM 16.7634 0.61619L 18.17 2.03802L 16.7634 0.61619ZM 16.6867 0.692149L 15.2801 -0.729677L 15.1973 -0.647807L 15.1246 -0.556889L 16.6867 0.692149ZM 13.9736 4.08502L 15.4284 5.45752L 15.4845 5.39798L 15.5356 5.33406L 13.9736 4.08502ZM 14.0248 6.74362L 12.6182 8.16544L 14.0248 6.74362ZM 14.1784 6.87022L 15.2795 5.20062L 15.1761 5.13244L 15.0651 5.07753L 14.1784 6.87022ZM 15.5605 7.78174L 17.5167 8.19804L 17.8007 6.86339L 16.6616 6.11214L 15.5605 7.78174ZM 12.2076 12.1368L 13.6141 13.5586L 12.2076 12.1368ZM 7.83087 15.4284L 6.17233 16.5461L 6.93223 17.6737L 8.26028 17.3817L 7.83087 15.4284ZM 6.90945 14.0611L 5.12449 14.9633L 5.18096 15.075L 5.25091 15.1788L 6.90945 14.0611ZM 6.78148 13.9092L 5.37492 15.331L 6.78148 13.9092ZM 4.09403 13.8585L 5.33231 15.4291L 5.39255 15.3816L 5.44897 15.3296L 4.09403 13.8585ZM 0.689922 16.5424L -0.548361 14.9719L -0.636681 15.0415L -0.716637 15.1206L 0.689922 16.5424ZM 0.613137 16.6184L -0.793422 15.1966L 0.613137 16.6184ZM 0.485164 19.3783L 1.98061 18.0503L 1.96141 18.0286L 1.94159 18.0076L 0.485164 19.3783ZM 2.89107 22.0875L 1.39562 23.4155L 1.43855 23.4639L 1.48451 23.5093L 2.89107 22.0875ZM 2.94226 22.1381L 4.34882 20.7163L 2.94226 22.1381ZM 8.77787 21.8849L 8.05696 20.0194L 8.05165 20.0215L 8.77787 21.8849ZM 16.789 16.5678L 15.3825 15.1459L 16.789 16.5678ZM 22.1639 8.64261L 24.0181 9.39233L 24.0313 9.35966L 24.0434 9.32655L 22.1639 8.64261ZM 23.7753 1.49848C 23.7625 1.48583 23.7561 1.4795 23.7497 1.47318C 23.7433 1.46684 23.7369 1.46051 23.7241 1.44784L 20.911 4.29149C 20.9237 4.30414 20.9301 4.31047 20.9365 4.31679C 20.9429 4.32313 20.9493 4.32946 20.9621 4.34213L 23.7753 1.49848ZM 23.6225 1.35406L 20.8582 -1.02601L 18.2483 2.00519L 21.0125 4.38527L 23.6225 1.35406ZM 20.91 -0.979845C 20.0991 -1.72855 19.0249 -2.08325 17.9152 -1.98345L 18.2735 2.00047C 18.2912 1.99888 18.2826 2.00252 18.2574 1.9941C 18.2321 1.98566 18.2103 1.9717 18.1965 1.95903L 20.91 -0.979845ZM 17.8872 -1.98073C 17.0134 -1.88974 16.0825 -1.52347 15.3569 -0.805637L 18.17 2.03802C 18.163 2.04495 18.1685 2.03705 18.1954 2.02507C 18.223 2.01275 18.2604 2.00203 18.3015 1.99775L 17.8872 -1.98073ZM 15.3569 -0.805637C 15.3441 -0.792978 15.3313 -0.780318 15.3185 -0.767658C 15.3057 -0.754998 15.2929 -0.742338 15.2801 -0.729677L 18.0932 2.11398C 18.106 2.10132 18.1188 2.08866 18.1316 2.076C 18.1444 2.06334 18.1572 2.05068 18.17 2.03802L 15.3569 -0.805637ZM 15.1246 -0.556889L 12.4116 2.83598L 15.5356 5.33406L 18.2487 1.94119L 15.1246 -0.556889ZM 12.5189 2.71253C 11.0496 4.26983 11.1114 6.67478 12.6182 8.16544L 15.4314 5.32179C 15.431 5.32143 15.4371 5.32783 15.4428 5.34127C 15.4481 5.35373 15.4514 5.36819 15.4517 5.38366C 15.452 5.39917 15.4493 5.41529 15.4435 5.43049C 15.4407 5.43801 15.4374 5.44443 15.4342 5.44953C 15.4326 5.45202 15.4312 5.45397 15.4301 5.45538C 15.4296 5.45607 15.4291 5.4566 15.4288 5.45697C 15.4287 5.45715 15.4286 5.45728 15.4285 5.45738C 15.4284 5.45747 15.4284 5.45752 15.4284 5.45752L 12.5189 2.71253ZM 12.6182 8.16544C 12.6338 8.18079 12.7076 8.25497 12.7926 8.32858C 12.8741 8.39914 13.0471 8.54195 13.2917 8.6629L 15.0651 5.07753C 15.1685 5.12867 15.2472 5.18013 15.2989 5.21691C 15.3512 5.25409 15.3893 5.2859 15.4105 5.30424C 15.4444 5.33354 15.467 5.35708 15.4314 5.32179L 12.6182 8.16544ZM 13.0773 8.53981L 14.4594 9.45133L 16.6616 6.11214L 15.2795 5.20062L 13.0773 8.53981ZM 13.6043 7.36544C 13.6399 7.19807 13.629 7.38945 13.166 8.04053C 12.7413 8.63774 12.0104 9.51855 10.801 10.7149L 13.6141 13.5586C 14.9386 12.2483 15.833 11.1921 16.4257 10.3588C 16.9801 9.57928 17.3787 8.84648 17.5167 8.19804L 13.6043 7.36544ZM 10.801 10.7149C 9.60838 11.8948 8.71883 12.6117 8.11374 13.0302C 7.45581 13.4852 7.24674 13.509 7.40145 13.475L 8.26028 17.3817C 8.8757 17.2464 9.60084 16.8651 10.389 16.32C 11.23 15.7384 12.2985 14.8601 13.6141 13.5586L 10.801 10.7149ZM 9.48941 14.3107L 8.56799 12.9434L 5.25091 15.1788L 6.17233 16.5461L 9.48941 14.3107ZM 8.69442 13.1589C 8.57026 12.9133 8.42424 12.7405 8.35314 12.6601C 8.27857 12.5758 8.20349 12.5026 8.18804 12.4873L 5.37492 15.331C 5.41066 15.3663 5.38677 15.3438 5.35699 15.3102C 5.33835 15.2891 5.30588 15.251 5.26783 15.1987C 5.23024 15.1469 5.17728 15.0677 5.12449 14.9633L 8.69442 13.1589ZM 8.18804 12.4873C 6.67361 10.9892 4.25411 10.992 2.73909 12.3874L 5.44897 15.3296C 5.43552 15.342 5.42325 15.3481 5.4169 15.3504C 5.41161 15.3524 5.41034 15.3519 5.41172 15.352C 5.41288 15.352 5.40988 15.3523 5.40252 15.3493C 5.39362 15.3457 5.38307 15.3391 5.37492 15.331L 8.18804 12.4873ZM 2.85574 12.288L -0.548361 14.9719L 1.9282 18.113L 5.33231 15.4291L 2.85574 12.288ZM -0.716637 15.1206C -0.729423 15.1333 -0.742211 15.1459 -0.75501 15.1586C -0.767806 15.1712 -0.780613 15.1839 -0.793422 15.1966L 2.0197 18.0402C 2.03248 18.0276 2.04527 18.0149 2.05807 18.0023C 2.07086 17.9896 2.08367 17.9769 2.09648 17.9643L -0.716637 15.1206ZM -0.793422 15.1966C -2.26127 16.6487 -2.47306 19.1533 -0.971263 20.749L 1.94159 18.0076C 1.97569 18.0438 1.99123 18.0771 1.99699 18.0939C 2.00214 18.1088 1.99951 18.1097 2.00008 18.0967C 2.00065 18.0841 2.00388 18.0696 2.00915 18.0574C 2.01386 18.0464 2.01816 18.0417 2.0197 18.0402L -0.793422 15.1966ZM -1.01028 20.7063L 1.39562 23.4155L 4.38652 20.7595L 1.98061 18.0503L -1.01028 20.7063ZM 1.48451 23.5093C 1.4973 23.522 1.50369 23.5283 1.51009 23.5346C 1.51649 23.541 1.5229 23.5473 1.5357 23.56L 4.34882 20.7163C 4.33603 20.7037 4.32964 20.6973 4.32325 20.691C 4.31684 20.6847 4.31044 20.6783 4.29763 20.6657L 1.48451 23.5093ZM 1.5357 23.56C 2.54619 24.5596 3.90576 24.7711 4.91306 24.7711L 4.91306 20.7711C 4.65602 20.7711 4.48201 20.7414 4.3802 20.7107C 4.28288 20.6813 4.29785 20.6659 4.34882 20.7163L 1.5357 23.56ZM 4.91306 24.7711C 6.72675 24.7711 8.64412 24.0836 9.50409 23.7484L 8.05165 20.0215C 7.22237 20.3446 5.9148 20.7711 4.91306 20.7711L 4.91306 24.7711ZM 9.49878 23.7505C 11.3258 23.0445 14.7805 21.368 18.1956 17.9896L 15.3825 15.1459C 12.45 18.0469 9.50607 19.4594 8.05697 20.0194L 9.49878 23.7505ZM 18.1956 17.9896C 20.7286 15.4838 22.7823 12.4486 24.0181 9.39233L 20.3098 7.8929C 19.2932 10.407 17.559 12.9928 15.3825 15.1459L 18.1956 17.9896ZM 24.0434 9.32655C 24.2776 8.68295 24.7259 7.41444 24.9177 6.0863C 25.0859 4.92125 25.1852 2.89332 23.7753 1.49848L 20.9621 4.34213C 20.9021 4.28276 20.9522 4.28142 20.9877 4.50512C 21.0242 4.73516 21.0225 5.07318 20.9587 5.5146C 20.8306 6.40196 20.511 7.33627 20.2845 7.95868L 24.0434 9.32655Z"/>
</defs>
</svg>
