<svg width="32" height="27" viewBox="0 0 32 27" version="1.1" xmlns="http://www.w3.org/2000/svg" xmlns:xlink="http://www.w3.org/1999/xlink">
<title>camera</title>
<desc>Created using Figma</desc>
<g id="Canvas" transform="translate(42672 18343)">
<g id="camera">
<g id="Vector">
<mask id="mask0_outline_ins">
<use xlink:href="#path0_fill" fill="white" transform="translate(-42662.7 -18334.2)"/>
</mask>
<g mask="url(#mask0_outline_ins)">
<use xlink:href="#path1_stroke_2x" transform="translate(-42662.7 -18334.2)" fill="#FFFFFF"/>
</g>
</g>
<g id="Vector">
<mask id="mask1_outline_ins">
<use xlink:href="#path2_fill" fill="white" transform="translate(-42672 -18343)"/>
</mask>
<g mask="url(#mask1_outline_ins)">
<use xlink:href="#path3_stroke_2x" transform="translate(-42672 -18343)" fill="#FFFFFF"/>
</g>
</g>
</g>
</g>
<defs>
<path id="path0_fill" d="M 6.70968 0C 3.01631 0 0 3.03439 0 6.75003C 0 10.4656 3.01631 13.5 6.70968 13.5C 10.4031 13.5 13.4194 10.4656 13.4194 6.75003C 13.4194 3.03439 10.4031 0 6.70968 0Z"/>
<path id="path1_stroke_2x" d="M 6.70968 -2C 1.90046 -2 -2 1.94113 -2 6.75003L 2 6.75003C 2 4.12765 4.13216 2 6.70968 2L 6.70968 -2ZM -2 6.75003C -2 11.5589 1.90047 15.5 6.70968 15.5L 6.70968 11.5C 4.13215 11.5 2 9.37232 2 6.75003L -2 6.75003ZM 6.70968 15.5C 11.519 15.5 15.4194 11.5588 15.4194 6.75003L 11.4194 6.75003C 11.4194 9.37234 9.28729 11.5 6.70968 11.5L 6.70968 15.5ZM 15.4194 6.75003C 15.4194 1.94115 11.519 -2 6.70968 -2L 6.70968 2C 9.28728 2 11.4194 4.12763 11.4194 6.75003L 15.4194 6.75003Z"/>
<path id="path2_fill" d="M 11.3548 -1.47555e-05C 10.9185 0.0118756 10.5891 0.312629 10.4355 0.567893L 8.64516 4.15383L 3.49997 4.15383C 1.5776 4.15383 0 5.75027 0 7.69108L 0 23.4627C 0 25.4036 1.5776 27 3.49997 27L 28.5 27C 30.4224 27 32 25.4036 32 23.4627L 32 7.69108C 32 5.75027 30.4224 4.15383 28.5 4.15383L 23.3548 4.15383L 21.5645 0.567893C 21.393 0.228571 21.0235 0.000333129 20.6452 -1.47555e-05L 11.3548 -1.47555e-05Z"/>
<path id="path3_stroke_2x" d="M 11.3548 -1.47555e-05L 11.3548 -2.00001L 11.3276 -2.00001L 11.3004 -1.99927L 11.3548 -1.47555e-05ZM 10.4355 0.567893L 8.72183 -0.463277L 8.68127 -0.395872L 8.64613 -0.325488L 10.4355 0.567893ZM 8.64516 4.15383L 8.64516 6.15383L 9.88204 6.15383L 10.4345 5.04721L 8.64516 4.15383ZM 23.3548 4.15383L 21.5655 5.04721L 22.118 6.15383L 23.3548 6.15383L 23.3548 4.15383ZM 21.5645 0.567893L 23.3539 -0.325499L 23.3495 -0.334089L 21.5645 0.567893ZM 20.6452 -1.47555e-05L 20.647 -2.00001L 20.6452 -2.00001L 20.6452 -1.47555e-05ZM 11.3004 -1.99927C 9.95781 -1.96269 9.09341 -1.08079 8.72183 -0.463277L 12.1492 1.59906C 12.091 1.69576 12.0226 1.77097 11.9313 1.83447C 11.8294 1.90535 11.65 1.99269 11.4093 1.99924L 11.3004 -1.99927ZM 8.64613 -0.325488L 6.85578 3.26045L 10.4345 5.04721L 12.2249 1.46127L 8.64613 -0.325488ZM 8.64516 2.15383L 3.49997 2.15383L 3.49997 6.15383L 8.64516 6.15383L 8.64516 2.15383ZM 3.49997 2.15383C 0.452361 2.15383 -2 4.66648 -2 7.69108L 2 7.69108C 2 6.83405 2.70284 6.15383 3.49997 6.15383L 3.49997 2.15383ZM -2 7.69108L -2 23.4627L 2 23.4627L 2 7.69108L -2 7.69108ZM -2 23.4627C -2 26.4874 0.452362 29 3.49997 29L 3.49997 25C 2.70284 25 2 24.3198 2 23.4627L -2 23.4627ZM 3.49997 29L 28.5 29L 28.5 25L 3.49997 25L 3.49997 29ZM 28.5 29C 31.5476 29 34 26.4874 34 23.4627L 30 23.4627C 30 24.3198 29.2972 25 28.5 25L 28.5 29ZM 34 23.4627L 34 7.69108L 30 7.69108L 30 23.4627L 34 23.4627ZM 34 7.69108C 34 4.66648 31.5476 2.15383 28.5 2.15383L 28.5 6.15383C 29.2972 6.15383 30 6.83405 30 7.69108L 34 7.69108ZM 28.5 2.15383L 23.3548 2.15383L 23.3548 6.15383L 28.5 6.15383L 28.5 2.15383ZM 25.1442 3.26045L 23.3539 -0.325488L 19.7751 1.46127L 21.5655 5.04721L 25.1442 3.26045ZM 23.3495 -0.334089C 22.8401 -1.34222 21.7837 -1.99897 20.647 -2.00001L 20.6433 1.99998C 20.4342 1.99979 20.2612 1.93857 20.1313 1.85836C 20.0014 1.77809 19.8716 1.65225 19.7794 1.46988L 23.3495 -0.334089ZM 20.6452 -2.00001L 11.3548 -2.00001L 11.3548 1.99999L 20.6452 1.99999L 20.6452 -2.00001Z"/>
</defs>
</svg>
