<svg width="55" height="50" viewBox="0 0 55 50" version="1.1" xmlns="http://www.w3.org/2000/svg" xmlns:xlink="http://www.w3.org/1999/xlink">
<title>Group 20</title>
<desc>Created using Figma</desc>
<g id="Canvas" transform="translate(46119 24337)">
<g id="Group 20">
<g id="Vector 8">
<use xlink:href="#path0_stroke" transform="translate(-46117 -24335)" fill="#FFFFFF"/>
</g>
<g id="Intersect">
<use xlink:href="#path1_stroke" transform="translate(-46094.2 -24320.4)" fill="#FFFFFF"/>
</g>
</g>
</g>
<defs>
<path id="path0_stroke" d="M 43.1426 46L 42.733 47.443L 43.3205 47.6098L 43.8574 47.3187L 43.1426 46ZM 25.3145 0.0310829L 25.3707 -1.46786L 25.3145 0.0310829ZM 4.36543 34.9913L 3.08407 35.7711L 3.38989 36.2736L 3.95577 36.4342L 4.36543 34.9913ZM 43.8574 47.3187C 48.3865 44.8639 50.991 40.5129 52.0014 35.5385C 53.0086 30.5796 52.4588 24.9185 50.6347 19.5742C 47.0044 8.93804 38.0925 -0.990226 25.3707 -1.46786L 25.2582 1.53003C 36.3069 1.94485 44.4059 10.6124 47.7955 20.5433C 49.4813 25.4825 49.9437 30.5977 49.0614 34.9414C 48.1823 39.2696 45.9956 42.7475 42.4278 44.6813L 43.8574 47.3187ZM 25.3707 -1.46786C 12.5039 -1.95094 4.24127 3.0822 0.601969 10.6537C -2.9872 18.1208 -1.86613 27.6372 3.08407 35.7711L 5.64679 34.2114C 1.0905 26.7248 0.257942 18.2944 3.30584 11.9533C 6.30361 5.71654 13.2687 1.07988 25.2582 1.53003L 25.3707 -1.46786ZM 3.95577 36.4342L 42.733 47.443L 43.5523 44.557L 4.77509 33.5483L 3.95577 36.4342Z"/>
<path id="path1_stroke" d="M 23.8269 0L 25.1447 -0.71645L 24.6158 -1.68934L 23.5303 -1.47039L 23.8269 0ZM 26.6006 23.7696L 27.6598 24.8316L 27.8848 24.6073L 27.9995 24.3109L 26.6006 23.7696ZM 26.5366 23.8334L 26.082 25.2629L 26.9505 25.5391L 27.5959 24.8955L 26.5366 23.8334ZM 8.54959 18.1133L 8.095 19.5428L 8.54959 18.1133ZM 22.509 0.71645C 26.5605 8.16878 27.6268 16.9615 25.2017 23.2282L 27.9995 24.3109C 30.8253 17.0088 29.4936 7.28292 25.1447 -0.71645L 22.509 0.71645ZM 25.5413 22.7075L 25.4773 22.7714L 27.5959 24.8955L 27.6598 24.8316L 25.5413 22.7075ZM 26.9912 22.4039L 9.00418 16.6838L 8.095 19.5428L 26.082 25.2629L 26.9912 22.4039ZM 3.44088 11.0335L 3.01865 9.6307L 0.145961 10.4954L 0.568192 11.8981L 3.44088 11.0335ZM 5.67807 5.19101L 24.1235 1.47039L 23.5303 -1.47039L 5.08489 2.25024L 5.67807 5.19101ZM 3.01865 9.6307C 2.42438 7.65636 3.65695 5.5987 5.67807 5.19101L 5.08489 2.25024C 1.33137 3.00737 -0.957678 6.82874 0.145961 10.4954L 3.01865 9.6307ZM 9.00418 16.6838C 6.33101 15.8337 4.24937 13.7195 3.44088 11.0335L 0.568192 11.8981C 1.66203 15.5322 4.47836 18.3926 8.095 19.5428L 9.00418 16.6838Z"/>
</defs>
</svg>
