<svg width="115" height="70" viewBox="0 0 115 70" version="1.1" xmlns="http://www.w3.org/2000/svg" xmlns:xlink="http://www.w3.org/1999/xlink">
<title>track A</title>
<desc>Created using Figma</desc>
<g id="Canvas" transform="translate(44403 22664)">
<g id="track A">
<g id="Vector 2">
<use xlink:href="#path0_stroke" transform="matrix(0.999954 0.00960248 -0.00960248 0.999954 -44384.4 -22656.7)" fill="#4F4F4F"/>
</g>
<g id="Vector 2">
<use xlink:href="#path1_stroke" transform="matrix(0.999954 0.00960248 -0.00960248 0.999954 -44350.1 -22640.2)" fill="#4F4F4F"/>
</g>
<g id="Vector 2">
<use xlink:href="#path2_stroke" transform="matrix(0.999954 0.00960248 -0.00960248 0.999954 -44329.3 -22616)" fill="#4F4F4F"/>
</g>
<g id="Vector">
<use xlink:href="#path3_stroke" transform="matrix(0.999954 0.00960248 -0.00960248 0.999954 -44379.6 -22662.8)" fill="#4F4F4F"/>
</g>
<g id="Vector 2">
<use xlink:href="#path4_stroke" transform="matrix(0.999954 0.00960248 -0.00960248 0.999954 -44322.5 -22621.7)" fill="#4F4F4F"/>
</g>
<g id="Vector 3">
<use xlink:href="#path5_stroke" transform="matrix(0.999954 0.00960248 -0.00960248 0.999954 -44315.5 -22618.1)" fill="#4F4F4F"/>
</g>
<g id="Vector">
<use xlink:href="#path6_stroke" transform="matrix(0.999954 0.00960248 -0.00960248 0.999954 -44400.4 -22656.9)" fill="#FF0000"/>
</g>
</g>
</g>
<defs>
<path id="path0_stroke" d="M 19.4227 16.3859L 19.3742 17.1344L 19.4227 16.3859ZM 32.6558 8.9176L 32.3026 9.5792L 32.6558 8.9176ZM 7.31369 0.374933L 7.10886 -0.346555L 7.31369 0.374933ZM -0.19781 13.5909C 0.300756 15.1915 1.49676 16.1536 2.98536 16.7059C 4.44798 17.2486 6.25224 17.4222 8.1287 17.4439C 10.0129 17.4658 12.0496 17.3337 13.9869 17.2256C 15.9425 17.1164 17.7938 17.0319 19.3742 17.1344L 19.4713 15.6375C 17.787 15.5283 15.848 15.6193 13.9033 15.7279C 11.9403 15.8374 9.96673 15.9652 8.14611 15.944C 6.31777 15.9228 4.72275 15.7506 3.50714 15.2996C 2.31751 14.8582 1.55634 14.1787 1.23432 13.1448L -0.19781 13.5909ZM 19.3742 17.1344C 22.8884 17.3622 25.2743 17.5826 26.9342 17.6657C 28.6018 17.7492 29.7187 17.7093 30.7154 17.3464L 30.2023 15.9369C 29.5129 16.1879 28.6627 16.2503 27.0092 16.1676C 25.3482 16.0844 23.059 15.8701 19.4713 15.6375L 19.3742 17.1344ZM 30.7154 17.3464C 31.0755 17.2153 31.3895 16.9649 31.6503 16.6968C 31.9184 16.4213 32.1724 16.0832 32.4055 15.7155C 32.8718 14.9801 33.2911 14.0681 33.592 13.1517C 33.8907 12.2416 34.0894 11.2762 34.0755 10.4401C 34.0625 9.65107 33.8478 8.70384 33.0091 8.25601L 32.3026 9.5792C 32.3835 9.62242 32.5649 9.8095 32.5757 10.4649C 32.5858 11.0732 32.4364 11.8624 32.1668 12.6838C 31.8992 13.4989 31.5298 14.2954 31.1387 14.9124C 30.9431 15.2208 30.7512 15.4699 30.5752 15.6509C 30.3919 15.8392 30.2637 15.9146 30.2023 15.9369L 30.7154 17.3464ZM 33.0091 8.25601C 31.253 7.31837 26.846 4.56159 21.949 2.37107C 19.4882 1.27032 16.8636 0.292184 14.3262 -0.263941C 11.7968 -0.818302 9.29402 -0.96693 7.10886 -0.346555L 7.51852 1.09642C 9.36974 0.570853 11.5965 0.673384 14.0051 1.20128C 16.4056 1.72741 18.9273 2.66263 21.3365 3.74033C 26.1796 5.90671 30.4073 8.5672 32.3026 9.5792L 33.0091 8.25601ZM 7.10886 -0.346555C 0.452795 1.54312 -1.94221 7.99072 -0.19781 13.5909L 1.23432 13.1448C -0.303625 8.20741 1.81022 2.71703 7.51852 1.09642L 7.10886 -0.346555Z"/>
<path id="path1_stroke" d="M 5.8757 4.95307L 5.16879 5.20362L 5.8757 4.95307ZM 6.53991 0.502734L 6.18049 -0.155535L 6.53991 0.502734ZM -0.641293 7.03002C 0.0817896 8.22238 1.58999 9.13032 3.37214 9.13032L 3.37214 7.63032C 2.08245 7.63032 1.07632 6.96957 0.641293 6.25222L -0.641293 7.03002ZM 3.37214 9.13032C 4.38395 9.13032 5.37824 8.61652 6.02249 7.83395C 6.68315 7.03146 7.00808 5.90297 6.58261 4.70252L 5.16879 5.20362C 5.396 5.84469 5.23554 6.42982 4.86445 6.88058C 4.47695 7.35126 3.89312 7.63032 3.37214 7.63032L 3.37214 9.13032ZM 6.58261 4.70252C 6.24603 3.75285 6.10407 2.95334 6.16734 2.34531C 6.22631 1.77855 6.45485 1.40369 6.89933 1.161L 6.18049 -0.155535C 5.23226 0.362206 4.77647 1.21868 4.67539 2.19007C 4.57861 3.12018 4.8009 4.16563 5.16879 5.20362L 6.58261 4.70252ZM 6.89933 1.161C 7.42976 0.871385 8.19747 0.744889 9.12718 0.750159C 10.042 0.755344 11.0264 0.886343 11.9345 1.0379L 12.1814 -0.441643C 11.2502 -0.597046 10.1719 -0.743944 9.13568 -0.749817C 8.11436 -0.755606 7.04272 -0.62632 6.18049 -0.155535L 6.89933 1.161Z"/>
<path id="path2_stroke" d="M 5.11584 -0.152241C 5.03162 0.253984 4.85745 0.843424 4.60837 1.35153C 4.48417 1.6049 4.35224 1.81548 4.22036 1.969C 4.08572 2.12572 3.98376 2.18526 3.92673 2.20429L 4.40157 3.62715C 4.80438 3.49272 5.11968 3.22403 5.35813 2.94648C 5.59933 2.66573 5.79631 2.33601 5.95525 2.01177C 6.27246 1.36468 6.48148 0.649718 6.58461 0.152241L 5.11584 -0.152241ZM 3.92673 2.20429C 3.8026 2.24572 3.59028 2.27182 3.22702 2.297C 2.90133 2.31957 2.47622 2.34097 2.0605 2.40452C 1.23306 2.53102 0.177842 2.86237 -0.346479 3.97779L 1.01102 4.61591C 1.20806 4.19674 1.60894 3.99098 2.28719 3.88729C 2.62431 3.83575 2.96443 3.81879 3.33073 3.79341C 3.65945 3.77062 4.06587 3.73918 4.40157 3.62715L 3.92673 2.20429ZM -0.346479 3.97779C -0.793543 4.92886 -0.792283 5.90638 -0.703418 6.76543C -0.659289 7.19202 -0.589134 7.62217 -0.532622 8.00349C -0.474253 8.39735 -0.428511 8.7502 -0.417295 9.0796L 1.08184 9.02855C 1.06751 8.60771 1.0103 8.18261 0.951172 7.7836C 0.89018 7.37204 0.828274 6.99441 0.78862 6.61108C 0.709918 5.85028 0.736725 5.19943 1.01102 4.61591L -0.346479 3.97779Z"/>
<path id="path3_stroke" d="M 0.356559 -0.659822C -0.00785052 -0.856745 -0.4629 -0.720969 -0.659822 -0.356559C -0.856745 0.00785052 -0.720969 0.4629 -0.356559 0.659822L 0.356559 -0.659822ZM 90.8956 49.9713C 91.26 50.1682 91.7151 50.0324 91.912 49.668C 92.1089 49.3036 91.9731 48.8486 91.6087 48.6516L 90.8956 49.9713ZM -0.356559 0.659822L 90.8956 49.9713L 91.6087 48.6516L 0.356559 -0.659822L -0.356559 0.659822Z"/>
<path id="path4_stroke" d="M 0.496543 13.913C 1.34681 13.1619 2.74982 12.0495 4.23012 10.8711C 5.69698 9.70336 7.23396 8.47524 8.31449 7.51826L 7.31998 6.39535C 6.27504 7.3208 4.77199 8.52245 3.29589 9.69753C 1.83323 10.8619 0.390354 12.0054 -0.496543 12.7888L 0.496543 13.913ZM 8.31449 7.51826C 10.4379 5.63765 14.0712 1.96429 15.5849 0.547596L 14.56 -0.547596C 12.94 0.96848 9.4475 4.5111 7.31998 6.39535L 8.31449 7.51826Z"/>
<path id="path5_stroke" d="M 1.94154 5.72911L 1.9728 4.97976L 1.94154 5.72911ZM 16.1965 1.79035L 16.7429 2.30406L 16.1965 1.79035ZM -0.69056 4.28253C -0.543581 4.62939 -0.259608 5.1313 0.142162 5.56491C 0.535089 5.98899 1.13424 6.44609 1.91028 6.47846L 1.9728 4.97976C 1.76784 4.97122 1.51545 4.84006 1.24246 4.54543C 0.978317 4.26035 0.782015 3.91312 0.69056 3.69729L -0.69056 4.28253ZM 1.91028 6.47846C 2.33661 6.49625 2.827 6.40027 3.30781 6.26212C 3.80137 6.12032 4.34062 5.91739 4.88386 5.68193C 5.96953 5.21137 7.11742 4.59066 8.02064 4.00554L 7.20509 2.74662C 6.37115 3.28686 5.29649 3.86825 4.28734 4.30565C 3.78317 4.52417 3.30695 4.70169 2.89361 4.82045C 2.46752 4.94287 2.15957 4.98756 1.9728 4.97976L 1.91028 6.47846ZM 8.02064 4.00554C 8.48951 3.70179 8.87872 3.39347 9.21392 3.12256C 9.55977 2.84306 9.82415 2.62403 10.0906 2.44713C 10.5634 2.1332 10.993 1.98144 11.714 2.11801L 11.9932 0.644211C 10.8237 0.422704 10.0015 0.705746 9.2609 1.19748C 8.92061 1.42341 8.58784 1.69992 8.27108 1.95593C 7.94367 2.22053 7.6048 2.48768 7.20509 2.74662L 8.02064 4.00554ZM 11.714 2.11801C 12.1512 2.20081 12.5803 2.31745 13.0092 2.43968C 13.4257 2.55839 13.8631 2.68889 14.2645 2.77821C 15.0121 2.94454 16.0254 3.06739 16.7429 2.30406L 15.65 1.27665C 15.5501 1.38292 15.3372 1.48019 14.5903 1.31401C 14.2445 1.23707 13.8676 1.12459 13.4203 0.997123C 12.9854 0.873173 12.5012 0.740446 11.9932 0.644211L 11.714 2.11801ZM 16.7429 2.30406C 17.4637 1.53733 17.9435 0.675354 18.1082 0.304306L 16.7372 -0.304306C 16.6295 -0.0615181 16.2372 0.652019 15.65 1.27665L 16.7429 2.30406Z"/>
<path id="path6_stroke" d="M 16.3029 13.0653L 15.1003 13.4062L 15.1127 13.45L 15.1282 13.4927L 16.3029 13.0653ZM 42.9601 5.83443L 43.5386 4.72639L 43.5376 4.72586L 42.9601 5.83443ZM 55.1475 12.4988L 54.548 13.5957L 54.5524 13.5981L 55.1475 12.4988ZM 88.253 26.1275L 89.4844 26.3423L 89.4844 26.3422L 88.253 26.1275ZM 64.1551 24.7947L 63.5018 25.8603L 63.5259 25.8751L 63.5507 25.8888L 64.1551 24.7947ZM 60.5653 25.5944L 61.5879 26.3133L 61.5984 26.2983L 61.6086 26.283L 60.5653 25.5944ZM 66.9471 37.4681L 67.939 36.7074L 67.9317 36.6978L 67.9242 36.6884L 66.9471 37.4681ZM 71.5673 38.5788L 71.2374 37.3731L 71.1295 37.4026L 71.0285 37.4509L 71.5673 38.5788ZM 78.9019 43.0217L 77.6812 43.2907L 77.6881 43.322L 77.6966 43.353L 78.9019 43.0217ZM 33.1215 16.9862L 33.7497 18.0669L 33.7592 18.0613L 33.1215 16.9862ZM 30.2519 21.6179L 29.0046 21.5353L 29.0032 21.5579L 29.0025 21.5805L 30.2519 21.6179ZM 33.1991 26.694L 33.8008 25.5983L 33.7927 25.5939L 33.7846 25.5896L 33.1991 26.694ZM 60.931 55.9729L 62.1001 56.4151L 62.1111 56.3861L 62.1206 56.3565L 60.931 55.9729ZM 58.9034 59.4494L 59.8629 60.2507L 59.8639 60.2494L 58.9034 59.4494ZM 5.66656 30.6482L 6.87144 30.981L 6.88611 30.9279L 6.89605 30.8737L 5.66656 30.6482ZM 9.05688 26.0942L 9.62449 27.2079L 9.65758 27.191L 9.68962 27.1722L 9.05688 26.0942ZM 16.7128 18.9855L 17.9138 19.332L 17.926 19.2898L 17.9352 19.2469L 16.7128 18.9855ZM 17.5055 12.7244C 17.2594 11.8565 16.9797 9.61482 17.6408 7.33361C 18.2801 5.12725 19.7903 2.8821 23.1921 1.74386L 22.3988 -0.626941C 18.1082 0.808707 16.073 3.76179 15.2396 6.63778C 14.4278 9.43892 14.748 12.1637 15.1003 13.4062L 17.5055 12.7244ZM 23.1921 1.74386C 26.5908 0.60662 30.9155 1.58718 34.7737 3.1182C 38.6008 4.63689 41.5597 6.51432 42.3825 6.94301L 43.5376 4.72586C 42.9533 4.42146 39.6761 2.37397 35.6958 0.794472C 31.7465 -0.772691 26.6923 -2.06358 22.3988 -0.626941L 23.1921 1.74386ZM 42.3815 6.94248C 47.6891 9.71379 51.3205 11.8318 54.548 13.5957L 55.7469 11.4019C 52.5927 9.67814 48.8673 7.50873 43.5386 4.72639L 42.3815 6.94248ZM 54.5524 13.5981C 63.376 18.3748 78.318 26.6997 81.2755 28.2267L 82.4225 26.0054C 79.4857 24.489 64.6462 16.2196 55.7426 11.3996L 54.5524 13.5981ZM 81.2755 28.2267C 81.9305 28.5649 82.7577 29.0305 83.4334 29.3607C 84.1323 29.7024 84.9294 30.0374 85.7228 30.1258C 86.5852 30.2219 87.5019 30.0276 88.2356 29.2652C 88.8981 28.5767 89.2715 27.5628 89.4844 26.3423L 87.0216 25.9127C 86.8411 26.9469 86.5857 27.3742 86.4342 27.5317C 86.3539 27.6151 86.2714 27.6715 85.9996 27.6412C 85.6587 27.6032 85.1865 27.435 84.5313 27.1147C 83.8528 26.7831 83.2411 26.428 82.4225 26.0054L 81.2755 28.2267ZM 89.4844 26.3422C 89.8219 24.4066 90.2309 23.2446 90.8365 22.5936C 91.3368 22.0557 92.1681 21.6738 94.0007 21.9235L 94.3381 19.4464C 92.055 19.1353 90.266 19.5364 89.006 20.8909C 87.8512 22.1323 87.3599 23.972 87.0215 25.9128L 89.4844 26.3422ZM 94.0007 21.9235C 97.3862 22.3847 98.7546 25.1297 98.3281 27.2718L 100.78 27.76C 101.481 24.2373 99.1839 20.1065 94.3381 19.4464L 94.0007 21.9235ZM 98.3281 27.2718C 97.8591 29.6272 96.028 32.26 91.9095 33.6028L 92.6844 35.9797C 97.5945 34.3788 100.121 31.0695 100.78 27.76L 98.3281 27.2718ZM 91.9095 33.6028C 90.0274 34.2165 87.131 33.9238 83.8821 33.0022C 80.6951 32.098 77.4091 30.6593 74.89 29.2563L 73.6735 31.4404C 76.3396 32.9253 79.8041 34.4439 83.1998 35.4072C 86.5336 36.353 90.0522 36.8379 92.6844 35.9797L 91.9095 33.6028ZM 74.89 29.2563C 69.716 26.3746 65.8123 24.2821 64.7595 23.7005L 63.5507 25.8888C 64.6695 26.5069 68.4771 28.5462 73.6735 31.4404L 74.89 29.2563ZM 64.8084 23.729C 63.9469 23.2008 62.914 23.028 61.9274 23.2478L 62.471 25.688C 62.8235 25.6094 63.193 25.671 63.5018 25.8603L 64.8084 23.729ZM 61.9274 23.2478C 60.9409 23.4676 60.0788 24.0624 59.5221 24.9057L 61.6086 26.283C 61.8089 25.9795 62.1183 25.7666 62.471 25.688L 61.9274 23.2478ZM 59.5428 24.8754C 58.8941 25.798 58.6384 26.7747 58.9357 27.8818C 59.1917 28.835 59.8407 29.7851 60.6137 30.7964L 62.5999 29.2782C 61.8107 28.2457 61.4626 27.6519 61.3502 27.2334C 61.2791 26.9687 61.2838 26.7458 61.5879 26.3133L 59.5428 24.8754ZM 60.6137 30.7964C 61.3766 31.7945 62.4965 33.3795 63.5416 34.8638C 64.5632 36.3148 65.5405 37.7095 65.9701 38.2478L 67.9242 36.6884C 67.556 36.227 66.6443 34.9282 65.5857 33.4246C 64.5506 31.9544 63.3992 30.3238 62.5999 29.2782L 60.6137 30.7964ZM 65.9552 38.2288C 66.6563 39.1429 67.6494 39.7888 68.7691 40.058L 69.3534 37.6272C 68.7914 37.4921 68.292 37.1677 67.939 36.7074L 65.9552 38.2288ZM 68.7691 40.058C 69.8888 40.3272 71.0667 40.2032 72.106 39.7068L 71.0285 37.4509C 70.5066 37.7002 69.9154 37.7623 69.3534 37.6272L 68.7691 40.058ZM 71.8971 39.7845C 72.5065 39.6178 73.1433 39.577 73.7688 39.6644L 74.115 37.1885C 73.1532 37.0541 72.1742 37.1169 71.2374 37.3731L 71.8971 39.7845ZM 73.7688 39.6644C 74.3944 39.7519 74.9959 39.9659 75.5368 40.2935L 76.832 38.1552C 76.0011 37.6519 75.0768 37.323 74.115 37.1885L 73.7688 39.6644ZM 75.5368 40.2935C 76.0777 40.6211 76.5467 41.0557 76.9154 41.5708L 78.9485 40.1159C 78.3829 39.3256 77.6629 38.6585 76.832 38.1552L 75.5368 40.2935ZM 76.9154 41.5708C 77.2841 42.086 77.5447 42.6711 77.6812 43.2907L 80.1226 42.7528C 79.9134 41.8034 79.514 40.9063 78.9485 40.1159L 76.9154 41.5708ZM 77.6966 43.353C 78.1597 45.0382 77.8062 46.3323 77.1037 47.1559C 76.3953 47.9863 75.1787 48.5186 73.5584 48.364L 73.321 50.8527C 75.6165 51.0717 77.685 50.3267 79.0057 48.7784C 80.3323 47.2232 80.752 45.0372 80.1072 42.6905L 77.6966 43.353ZM 73.5584 48.364C 72.0574 48.2208 70.5024 47.2092 68.7544 45.4421C 67.0188 43.6875 65.3156 41.4291 63.4229 39.0788L 61.4758 40.6469C 63.2888 42.8981 65.1228 45.3257 66.9771 47.2002C 68.8188 49.0621 70.9062 50.6224 73.321 50.8527L 73.5584 48.364ZM 63.4229 39.0788C 59.7569 34.5265 51.5525 22.1335 50.4829 20.5768L 48.4224 21.9926C 49.4135 23.4349 57.7305 35.9961 61.4758 40.6469L 63.4229 39.0788ZM 50.4829 20.5768C 49.5404 19.2053 47.7099 15.6974 42.9434 15.5921L 42.8881 18.0915C 46.1653 18.1639 47.3041 20.3651 48.4224 21.9926L 50.4829 20.5768ZM 42.9434 15.5921C 40.9201 15.5474 39.1454 15.3158 37.2794 15.2159C 36.4002 15.1689 35.5349 15.1566 34.7458 15.2394C 33.9636 15.3214 33.1687 15.5048 32.4838 15.9111L 33.7592 18.0613C 34.0105 17.9122 34.4053 17.7888 35.0066 17.7257C 35.601 17.6634 36.3132 17.6678 37.1458 17.7124C 38.7033 17.7957 40.8896 18.0473 42.8881 18.0915L 42.9434 15.5921ZM 32.4933 15.9055C 31.4953 16.4857 30.6554 17.3027 30.0471 18.2845L 32.1723 19.6011C 32.5649 18.9675 33.1067 18.4407 33.7497 18.0669L 32.4933 15.9055ZM 30.0471 18.2845C 29.4389 19.2662 29.081 20.3826 29.0046 21.5353L 31.4992 21.7005C 31.5485 20.9558 31.7797 20.2348 32.1723 19.6011L 30.0471 18.2845ZM 29.0025 21.5805C 28.9644 22.851 29.2823 24.1071 29.9204 25.2061L 32.0824 23.9508C 31.6786 23.2554 31.4772 22.4601 31.5014 21.6554L 29.0025 21.5805ZM 29.9204 25.2061C 30.5585 26.3051 31.4913 27.2033 32.6135 27.7983L 33.7846 25.5896C 33.076 25.2139 32.4861 24.6463 32.0824 23.9508L 29.9204 25.2061ZM 32.5973 27.7896C 35.1367 29.1842 41.3453 32.6902 43.3033 33.8102L 44.5447 31.6402C 42.5806 30.5166 36.358 27.0028 33.8008 25.5983L 32.5973 27.7896ZM 43.3033 33.8102C 43.7864 34.0866 44.2317 34.3207 44.4917 34.4657C 44.7803 34.6266 44.9675 34.7446 45.1482 34.8901C 45.5277 35.1957 45.9758 35.6977 47.0201 37.1029L 49.0267 35.6118C 47.9991 34.2291 47.378 33.4759 46.7161 32.9429C 46.3761 32.6691 46.0494 32.4719 45.7092 32.2822C 45.3405 32.0766 45.0421 31.9248 44.5447 31.6402L 43.3033 33.8102ZM 47.0201 37.1029C 49.0853 39.8819 56.0329 49.6933 57.5673 51.8267L 59.5969 50.3669C 58.0956 48.2796 51.1052 38.4087 49.0267 35.6118L 47.0201 37.1029ZM 57.5673 51.8267C 58.406 52.9926 59.0069 53.6978 59.4293 54.4099C 59.8117 55.0547 59.8179 55.3518 59.7413 55.5892L 62.1206 56.3565C 62.5205 55.1167 62.1112 54.0309 61.5795 53.1346C 61.0879 52.3056 60.2762 51.3113 59.5969 50.3669L 57.5673 51.8267ZM 59.7618 55.5306C 59.3329 56.6646 58.7181 57.7188 57.9429 58.6495L 59.8639 60.2494C 60.8172 59.1049 61.5729 57.8089 62.1001 56.4151L 59.7618 55.5306ZM 57.944 58.6482C 57.8813 58.7232 57.8221 58.7813 57.7699 58.8191C 57.7197 58.8554 57.7082 58.8498 57.7315 58.8464C 57.7703 58.8409 57.7675 58.8589 57.6939 58.8218C 57.604 58.7766 57.4178 58.651 57.1513 58.3296L 55.2266 59.9251C 56.056 60.9256 57.0269 61.472 58.0838 61.3215C 59.0246 61.1876 59.6209 60.5404 59.8629 60.2507L 57.944 58.6482ZM 57.1513 58.3296C 55.7644 56.6567 41.9943 41.9691 40.2153 40.0234L 38.3703 41.7104C 40.2474 43.7634 53.888 58.3103 55.2266 59.9251L 57.1513 58.3296ZM 40.2153 40.0234C 39.1357 38.8427 37.165 37.504 34.6652 37.0402C 32.1125 36.5666 29.0758 37.02 25.9876 39.3465L 27.4919 41.3433C 30.0209 39.438 32.3466 39.1527 34.2092 39.4982C 36.1246 39.8536 37.6218 40.8918 38.3703 41.7104L 40.2153 40.0234ZM 25.9876 39.3465C 20.3512 43.5928 8.69816 52.4823 6.94902 53.7808L 8.43919 55.7881C 10.1912 54.4875 21.8937 45.5608 27.4919 41.3433L 25.9876 39.3465ZM 6.94902 53.7808C 6.03504 54.4593 5.27419 55.0113 4.49918 55.2681C 3.82975 55.49 3.15532 55.4897 2.32141 54.9402L 0.945863 57.0278C 2.47188 58.0333 3.9524 58.083 5.28559 57.6412C 6.5132 57.2344 7.60261 56.4092 8.43919 55.7881L 6.94902 53.7808ZM 2.32141 54.9402C 1.86174 54.6373 1.61537 54.3545 1.47539 54.1075C 1.33715 53.8636 1.26298 53.5848 1.25155 53.2269C 1.22578 52.4207 1.50229 51.4664 1.88788 50.0331L -0.526279 49.3836C -0.860855 50.6273 -1.28789 52.0332 -1.24718 53.3068C -1.22538 53.9889 -1.0738 54.6799 -0.699615 55.3401C -0.327163 55.9973 0.225571 56.5531 0.945863 57.0278L 2.32141 54.9402ZM 1.88788 50.0331C 2.62074 47.3091 6.46972 32.4353 6.87144 30.981L 4.46169 30.3154C 4.06568 31.749 0.18119 46.754 -0.526279 49.3836L 1.88788 50.0331ZM 6.89605 30.8737C 7.03925 30.093 7.36008 29.3561 7.83339 28.7204L 5.82808 27.2275C 5.12539 28.1714 4.64945 29.2648 4.43707 30.4227L 6.89605 30.8737ZM 7.83339 28.7204C 8.3067 28.0846 8.91967 27.5671 9.62449 27.2079L 8.48927 24.9805C 7.4414 25.5146 6.5308 26.2836 5.82808 27.2275L 7.83339 28.7204ZM 9.68962 27.1722C 10.8539 26.4889 12.6543 25.6182 14.1706 24.4813C 15.7502 23.2971 17.2325 21.6932 17.9138 19.332L 15.5118 18.639C 15.0297 20.3097 13.9804 21.4994 12.671 22.4811C 11.2984 23.5101 9.85244 24.1778 8.42414 25.0162L 9.68962 27.1722ZM 17.9352 19.2469C 18.4061 17.0446 18.2475 14.7539 17.4775 12.6379L 15.1282 13.4927C 15.7376 15.1675 15.8632 16.9808 15.4904 18.7241L 17.9352 19.2469Z"/>
</defs>
</svg>
