<svg width="37" height="46" viewBox="0 0 37 46" version="1.1" xmlns="http://www.w3.org/2000/svg" xmlns:xlink="http://www.w3.org/1999/xlink">
<title>Group 27</title>
<desc>Created using Figma</desc>
<g id="Canvas" transform="translate(50729 51289)">
<g id="Group 27">
<g id="Subtract">
<use xlink:href="#path0_fill" transform="translate(-50728.5 -51288.3)" fill="#FFFFFF"/>
</g>
</g>
</g>
<defs>
<path id="path0_fill" fill-rule="evenodd" d="M 29.2284 0.0145136C 27.8339 -0.0714239 26.4315 0.225451 25.1854 0.873889C 24.162 1.40904 23.2401 2.18248 22.5135 3.18248C 20.8417 5.48717 20.6385 8.40905 21.7206 10.8348L 8.47839 29.1161C 8.14636 29.0809 7.81823 29.0731 7.4862 29.0809C 6.3573 29.1122 5.24401 29.3895 4.22839 29.8973C 3.16198 30.4325 2.20886 31.2255 1.46276 32.2567C -0.205204 34.5614 -0.412235 37.4794 0.66589 39.9051L 3.07214 36.5887C 3.07214 36.5887 5.09558 34.8895 7.68933 36.7684C 8.56823 37.4051 9.03698 38.1083 9.27136 38.7606C 9.72839 40.0301 9.2987 41.1005 9.2987 41.1005L 6.89636 44.4208C 7.61511 44.495 8.33776 44.4637 9.0448 44.3387C 9.75573 44.2137 10.4471 43.9872 11.0956 43.6669C 11.5253 43.4559 11.9393 43.202 12.33 42.9051C 12.9237 42.4559 13.4628 41.913 13.9237 41.2801C 15.0643 39.7059 15.5214 37.8426 15.3495 36.0497C 15.2714 35.2137 15.0565 34.3895 14.7128 33.62L 27.951 15.3465C 30.5956 15.62 33.3026 14.5145 34.9745 12.2059C 35.8651 10.9794 36.3378 9.57701 36.4237 8.17076C 36.5057 6.83092 36.2362 5.48717 35.6385 4.28014L 33.3495 7.43639C 33.3495 7.43639 31.326 9.13561 28.7323 7.2567C 27.6659 6.48326 27.205 5.61608 27.0331 4.86217C 26.7831 3.77623 27.1229 2.92467 27.1229 2.92467L 29.2284 0.0145136ZM 26.2557 13.6551C 26.744 12.9872 26.5995 12.0497 25.9276 11.5614C 25.2596 11.0731 24.3221 11.2176 23.8339 11.8895L 10.3339 30.3895C 9.84558 31.0575 9.99011 31.995 10.662 32.4833C 11.33 32.9715 12.2675 32.827 12.7557 32.1551L 26.2557 13.6551Z"/>
</defs>
</svg>
