<svg width="29" height="30" viewBox="0 0 29 30" version="1.1" xmlns="http://www.w3.org/2000/svg" xmlns:xlink="http://www.w3.org/1999/xlink">
<title>Union</title>
<desc>Created using Figma</desc>
<g id="Canvas" transform="translate(51600 61393)">
<g id="Union">
<use xlink:href="#path0_fill" transform="translate(-51599 -61392.4)"/>
</g>
</g>
<defs>
<path id="path0_fill" d="M 22.4 9.6C 25.05 9.6 27.2 7.45 27.2 4.8C 27.2 2.15 25.05 0 22.4 0C 19.75 0 17.6 2.15 17.6 4.8C 17.6 5.09062 17.625 5.37812 17.675 5.65625L 8.2375 11.05C 7.3625 10.1562 6.14375 9.6 4.8 9.6C 2.15 9.6 0 11.75 0 14.4C 0 17.05 2.15 19.2 4.8 19.2C 6.14375 19.2 7.3625 18.6437 8.2375 17.75L 17.675 23.1437C 17.625 23.4219 17.6 23.7094 17.6 24C 17.6 26.65 19.75 28.8 22.4 28.8C 25.05 28.8 27.2 26.65 27.2 24C 27.2 21.35 25.05 19.2 22.4 19.2C 21.2 19.2 20.1125 19.6406 19.2687 20.3656L 9.58125 14.8312L 9.6 14.4C 9.6 14.2562 9.59375 14.1094 9.58125 13.9687L 19.2687 8.43437C 20.1125 9.15937 21.2 9.6 22.4 9.6Z"/>
</defs>
</svg>
