<svg width="19" height="16" viewBox="0 0 19 16" version="1.1" xmlns="http://www.w3.org/2000/svg" xmlns:xlink="http://www.w3.org/1999/xlink">
<title>Subtract</title>
<desc>Created using Figma</desc>
<g id="Canvas" transform="translate(43140 16568)">
<g id="Subtract">
<use xlink:href="#path0_fill" transform="translate(-43140 -16568)" fill="#FFFFFF"/>
</g>
</g>
<defs>
<path id="path0_fill" fill-rule="evenodd" d="M 15.7646 15.6025L 18.9888 0.601449C 19.0719 0.214601 18.6792 -0.108129 18.298 0.0343209L 0.330501 6.73836C -0.113058 6.90361 -0.109038 7.51084 0.335861 7.67198L 4.71382 9.25232L 6.40832 14.5233C 6.51687 14.8607 6.94368 14.9856 7.2271 14.7615L 9.66734 12.8374C 9.92329 12.6357 10.2871 12.6257 10.5545 12.8134L 14.9565 15.9043C 15.2594 16.1172 15.6889 15.9567 15.7646 15.6025ZM 6.13495 8.41107L 14.6912 3.31416C 14.8453 3.22287 15.0034 3.42397 14.8708 3.54236L 7.81002 9.89096C 7.56144 10.1143 7.40131 10.4136 7.35641 10.7381L 7.11587 12.4623C 7.08371 12.6924 6.74937 12.7152 6.68371 12.4924L 5.7584 9.34846C 5.65253 8.98984 5.80731 8.6068 6.13495 8.41107Z"/>
</defs>
</svg>
