<svg width="14" height="14" viewBox="0 0 14 14" version="1.1" xmlns="http://www.w3.org/2000/svg" xmlns:xlink="http://www.w3.org/1999/xlink">
<title>phone_2</title>
<desc>Created using Figma</desc>
<g id="Canvas" transform="translate(62572 23912)">
<g id="phone_2">
<mask id="mask0_outline_ins">
<use xlink:href="#path0_fill" fill="white" transform="translate(-62572 -23912)"/>
</mask>
<g mask="url(#mask0_outline_ins)">
<use xlink:href="#path1_stroke_2x" transform="translate(-62572 -23912)"/>
</g>
</g>
</g>
<defs>
<path id="path0_fill" d="M 12.2046 13.6088C 12.2201 13.5933 12.2201 13.5933 12.2357 13.5777L 13.699 11.896C 13.9169 11.6624 14.0259 11.351 13.9948 11.0084C 13.9636 10.7125 13.8391 10.4167 13.6212 10.1987C 13.6056 10.1831 13.59 10.1675 13.5745 10.152L 11.4885 8.50137C 11.0215 8.06537 10.3054 8.08094 9.85394 8.53251C 9.8228 8.56366 9.79167 8.5948 9.7761 8.62594L 9.21569 9.46681C 8.91991 9.40452 8.07929 8.96852 6.53816 7.42693C 5.01259 5.90092 4.57671 5.04449 4.51444 4.7642L 5.35506 4.20362C 5.3862 4.18805 5.41733 4.15691 5.44846 4.12577C 5.89991 3.67419 5.89991 2.94233 5.4796 2.49076L 3.82949 0.41974C 3.81392 0.404168 3.79836 0.388597 3.78279 0.373025C 3.31578 -0.0941213 2.53743 -0.125264 2.08598 0.295167L 0.420311 1.75889C 0.404743 1.77446 0.404743 1.77446 0.389176 1.79004C 0.108969 2.07032 -5.75635e-09 2.50633 0 2.98904C 1.02129e-08 3.84548 0.342474 4.82649 0.544846 5.34035C 0.934022 6.33693 1.88361 8.28337 3.81392 10.2142C 5.24609 11.6468 6.97403 12.7991 8.68641 13.4843C 9.46476 13.7646 11.3951 14.4186 12.2046 13.6088Z"/>
<path id="path1_stroke_2x" d="M 12.2046 13.6088L 13.0532 14.4572L 12.2046 13.6088ZM 12.2357 13.5777L 13.0843 14.4261L 13.1137 14.3967L 13.141 14.3654L 12.2357 13.5777ZM 13.699 11.896L 12.8216 11.0773L 12.8074 11.0925L 12.7937 11.1083L 13.699 11.896ZM 13.9948 11.0084L 15.1898 10.8998L 15.1891 10.8913L 15.1882 10.8828L 13.9948 11.0084ZM 13.6212 10.1987L 12.7725 11.0471L 13.6212 10.1987ZM 13.5745 10.152L 14.4231 9.30355L 14.3738 9.25421L 14.3191 9.21092L 13.5745 10.152ZM 11.4885 8.50137L 10.6696 9.37852L 10.7054 9.41198L 10.7439 9.44241L 11.4885 8.50137ZM 9.85394 8.53251L 9.00528 7.68411L 9.85394 8.53251ZM 9.7761 8.62594L 10.7746 9.29145L 10.8161 9.22929L 10.8495 9.16248L 9.7761 8.62594ZM 9.21569 9.46681L 8.96841 10.6411L 9.76357 10.8085L 10.2142 10.1323L 9.21569 9.46681ZM 6.53816 7.42693L 7.38681 6.57853L 6.53816 7.42693ZM 4.51444 4.7642L 3.84867 3.76583L 3.16472 4.22193L 3.343 5.02445L 4.51444 4.7642ZM 5.35506 4.20362L 4.81828 3.13037L 4.75145 3.1638L 4.68929 3.20525L 5.35506 4.20362ZM 5.44846 4.12577L 4.59981 3.27736L 5.44846 4.12577ZM 5.4796 2.49076L 4.54107 3.23853L 4.5698 3.27459L 4.60121 3.30833L 5.4796 2.49076ZM 3.82949 0.41974L 4.76801 -0.32804L 4.72591 -0.380883L 4.67814 -0.428666L 3.82949 0.41974ZM 3.78279 0.373025L 2.93414 1.22143L 3.78279 0.373025ZM 2.08598 0.295167L 2.87811 1.19658L 2.89113 1.18514L 2.90381 1.17332L 2.08598 0.295167ZM 0.420311 1.75889L -0.371813 0.857482L -0.400933 0.883071L -0.42834 0.910487L 0.420311 1.75889ZM 0.389176 1.79004L 1.23783 2.63844L 0.389176 1.79004ZM 0.544846 5.34035L 1.66264 4.90384L 1.66138 4.90063L 0.544846 5.34035ZM 3.81392 10.2142L 2.96527 11.0626L 3.81392 10.2142ZM 8.68641 13.4843L 8.24063 14.5984L 8.2601 14.6062L 8.27984 14.6133L 8.68641 13.4843ZM 13.0532 14.4572C 13.061 14.4495 13.0649 14.4456 13.0688 14.4417C 13.0727 14.4378 13.0766 14.4339 13.0843 14.4261L 11.387 12.7293C 11.3793 12.7371 11.3754 12.741 11.3715 12.7449C 11.3676 12.7487 11.3637 12.7526 11.3559 12.7604L 13.0532 14.4572ZM 13.141 14.3654L 14.6043 12.6837L 12.7937 11.1083L 11.3304 12.79L 13.141 14.3654ZM 14.5764 12.7146C 15.0328 12.2255 15.2512 11.5746 15.1898 10.8998L 12.7997 11.117C 12.8003 11.1233 12.7998 11.125 12.8001 11.1227C 12.8003 11.1205 12.8011 11.1157 12.8033 11.1093C 12.8055 11.1028 12.8085 11.0963 12.8121 11.0902C 12.8158 11.0841 12.8192 11.0799 12.8216 11.0773L 14.5764 12.7146ZM 15.1882 10.8828C 15.1323 10.3514 14.9073 9.78789 14.4698 9.35026L 12.7725 11.0471C 12.7703 11.0449 12.7761 11.05 12.7839 11.0673C 12.792 11.0851 12.7987 11.1086 12.8014 11.134L 15.1882 10.8828ZM 14.4698 9.35026C 14.462 9.34247 14.4542 9.33469 14.4465 9.3269C 14.4387 9.31912 14.4309 9.31133 14.4231 9.30355L 12.7258 11.0004C 12.7336 11.0081 12.7414 11.0159 12.7492 11.0237C 12.7569 11.0315 12.7647 11.0393 12.7725 11.0471L 14.4698 9.35026ZM 14.3191 9.21092L 12.2331 7.56034L 10.7439 9.44241L 12.8298 11.093L 14.3191 9.21092ZM 12.3074 7.62422C 11.3633 6.74284 9.90985 6.77928 9.00528 7.68411L 10.7026 9.38092C 10.7049 9.37856 10.7042 9.37992 10.7003 9.38156C 10.6971 9.38294 10.6933 9.38378 10.6892 9.38386C 10.6851 9.38395 10.6805 9.38325 10.6757 9.38146C 10.6703 9.37942 10.6682 9.37721 10.6696 9.37852L 12.3074 7.62422ZM 9.00528 7.68411C 8.99575 7.69365 8.95068 7.73804 8.90597 7.78915C 8.86322 7.83803 8.77637 7.94207 8.70273 8.08941L 10.8495 9.16248C 10.8184 9.22467 10.7872 9.27192 10.765 9.30282C 10.7425 9.33407 10.7234 9.35677 10.7124 9.3693C 10.6949 9.38927 10.681 9.40252 10.7026 9.38092L 9.00528 7.68411ZM 8.77755 7.96044L 8.21714 8.8013L 10.2142 10.1323L 10.7746 9.29145L 8.77755 7.96044ZM 9.46297 8.29256C 9.55787 8.31255 9.4354 8.30235 9.03455 8.02026C 8.66567 7.76066 8.12299 7.31492 7.38681 6.57853L 5.68951 8.27534C 6.49446 9.08053 7.14266 9.62358 7.65331 9.98296C 8.132 10.3198 8.57773 10.5588 8.96841 10.6411L 9.46297 8.29256ZM 7.38681 6.57853C 6.6607 5.85221 6.21914 5.31013 5.96114 4.94098C 5.68076 4.53981 5.66528 4.41123 5.68588 4.50396L 3.343 5.02445C 3.42587 5.39746 3.65947 5.83724 3.99398 6.31586C 4.35088 6.82651 4.89005 7.47565 5.68951 8.27534L 7.38681 6.57853ZM 5.18021 5.76257L 6.02084 5.202L 4.68929 3.20525L 3.84867 3.76583L 5.18021 5.76257ZM 5.89184 5.27688C 6.0392 5.20317 6.14324 5.11627 6.1921 5.07351C 6.2432 5.02879 6.28758 4.98371 6.29711 4.97417L 4.59981 3.27736C 4.57821 3.29897 4.59146 3.28503 4.61143 3.26756C 4.62396 3.25659 4.64666 3.23742 4.67791 3.21495C 4.70881 3.19274 4.75607 3.16149 4.81828 3.13037L 5.89184 5.27688ZM 6.29711 4.97417C 7.2126 4.05842 7.21125 2.58992 6.35799 1.67318L 4.60121 3.30833C 4.59555 3.30225 4.59267 3.29653 4.59158 3.29361C 4.59073 3.29135 4.59106 3.29122 4.59104 3.29248C 4.59103 3.29359 4.59078 3.29247 4.59219 3.28904C 4.59397 3.28468 4.59704 3.28013 4.59981 3.27736L 6.29711 4.97417ZM 6.41812 1.74298L 4.76801 -0.32804L 2.89097 1.16752L 4.54107 3.23853L 6.41812 1.74298ZM 4.67814 -0.428666C 4.67037 -0.436444 4.66259 -0.444223 4.65481 -0.452009C 4.64702 -0.459794 4.63923 -0.467587 4.63144 -0.47538L 2.93414 1.22143C 2.94192 1.22921 2.94969 1.23699 2.95748 1.24477C 2.96526 1.25256 2.97305 1.26035 2.98084 1.26815L 4.67814 -0.428666ZM 4.63144 -0.47538C 3.74924 -1.35784 2.23448 -1.48293 1.26815 -0.582987L 2.90381 1.17332C 2.88431 1.19148 2.86776 1.1985 2.86238 1.20033C 2.85801 1.20181 2.86269 1.19952 2.87576 1.20009C 2.88865 1.20066 2.90231 1.20376 2.91398 1.20873C 2.9249 1.21338 2.93098 1.21827 2.93414 1.22143L 4.63144 -0.47538ZM 1.29386 -0.606243L -0.371813 0.857482L 1.21243 2.6603L 2.87811 1.19658L 1.29386 -0.606243ZM -0.42834 0.910487C -0.436119 0.918268 -0.440007 0.922157 -0.443897 0.926048C -0.447791 0.929943 -0.451686 0.93384 -0.459475 0.94163L 1.23783 2.63844C 1.24561 2.63066 1.24949 2.62677 1.25338 2.62288C 1.25728 2.61899 1.26117 2.61509 1.26896 2.6073L -0.42834 0.910487ZM -0.459475 0.94163C -1.06923 1.55156 -1.2 2.37526 -1.2 2.98904L 1.2 2.98904C 1.2 2.83244 1.21831 2.72607 1.23741 2.66337C 1.25561 2.60364 1.26586 2.6104 1.23783 2.63844L -0.459475 0.94163ZM -1.2 2.98904C -1.2 4.09157 -0.777599 5.25722 -0.571688 5.78007L 1.66138 4.90063C 1.46255 4.39576 1.2 3.59939 1.2 2.98904L -1.2 2.98904ZM -0.572946 5.77686C -0.139111 6.8878 0.890762 8.98753 2.96527 11.0626L 4.66258 9.36583C 2.87646 7.5792 2.00715 5.78606 1.66264 4.90384L -0.572946 5.77686ZM 2.96527 11.0626C 4.50385 12.6017 6.36658 13.8486 8.24063 14.5984L 9.13219 12.3701C 7.58149 11.7497 5.98834 10.692 4.66258 9.36583L 2.96527 11.0626ZM 8.27984 14.6133C 8.67543 14.7557 9.452 15.0272 10.2641 15.1432C 10.9775 15.2452 12.207 15.3037 13.0532 14.4572L 11.3559 12.7604C 11.3873 12.729 11.3807 12.7623 11.2368 12.7849C 11.0897 12.808 10.8773 12.8065 10.6036 12.7674C 10.0535 12.6888 9.47574 12.4931 9.09298 12.3552L 8.27984 14.6133Z"/>
</defs>
</svg>
