<svg width="81" height="50" viewBox="0 0 81 50" version="1.1" xmlns="http://www.w3.org/2000/svg" xmlns:xlink="http://www.w3.org/1999/xlink">
<title>drag</title>
<desc>Created using Figma</desc>
<g id="Canvas" transform="translate(45880 24337)">
<g id="drag">
<g id="Vector">
<use xlink:href="#path0_stroke" transform="matrix(1 1.13468e-16 -5.54414e-17 1 -45878 -24335)" fill="#FFFFFF"/>
</g>
</g>
</g>
<defs>
<path id="path0_stroke" d="M 12.5968 10.0008L 11.1547 10.4135L 11.1698 10.4664L 11.1888 10.518L 12.5968 10.0008ZM 33.1942 4.46596L 33.8833 3.13365L 33.8821 3.13303L 33.1942 4.46596ZM 42.6111 9.56722L 41.897 10.8863L 41.9022 10.8891L 42.6111 9.56722ZM 68.1909 19.9993L 69.6682 20.2594L 69.6682 20.2593L 68.1909 19.9993ZM 49.5711 18.9791L 48.7924 20.2611L 48.8213 20.2787L 48.851 20.2949L 49.5711 18.9791ZM 46.7974 19.5912L 48.0206 20.4594L 48.0334 20.4414L 48.0456 20.423L 46.7974 19.5912ZM 51.7284 28.6799L 52.9145 27.7617L 52.9056 27.7502L 52.8966 27.7389L 51.7284 28.6799ZM 55.2983 29.5301L 54.9059 28.0823L 54.7773 28.1172L 54.6567 28.1742L 55.2983 29.5301ZM 60.9656 32.931L 59.5013 33.2566L 59.5098 33.2945L 59.5201 33.3319L 60.9656 32.931ZM 25.5922 13.0021L 26.3408 14.302L 26.3521 14.2953L 25.5922 13.0021ZM 23.3749 16.5474L 21.8783 16.4474L 21.8764 16.4747L 21.8756 16.5021L 23.3749 16.5474ZM 25.6521 20.4329L 26.369 19.1153L 26.3593 19.11L 26.3497 19.1049L 25.6521 20.4329ZM 47.0799 42.8444L 48.4812 43.3794L 48.4946 43.3444L 48.5062 43.3087L 47.0799 42.8444ZM 45.5132 45.5055L 46.6601 46.4723L 46.6614 46.4708L 45.5132 45.5055ZM 4.37842 23.4596L 5.8233 23.8625L 5.84121 23.7983L 5.85335 23.7327L 4.37842 23.4596ZM 6.99803 19.9738L 7.67409 21.3128L 7.71368 21.2928L 7.75202 21.2705L 6.99803 19.9738ZM 12.9136 14.5324L 14.3537 14.9519L 14.3686 14.9009L 14.3798 14.8489L 12.9136 14.5324ZM 14.0389 9.58814C 13.8727 9.00711 13.6656 7.39888 14.1426 5.76832C 14.5927 4.22941 15.6435 2.66072 18.0854 1.85129L 17.1415 -0.996343C 13.6398 0.164401 11.9511 2.57469 11.2632 4.92607C 10.6022 7.1858 10.8587 9.37916 11.1547 10.4135L 14.0389 9.58814ZM 18.0854 1.85129C 20.525 1.04264 23.7147 1.72926 26.6762 2.89348C 29.601 4.04327 31.82 5.44474 32.5062 5.7989L 33.8821 3.13303C 33.4811 2.92605 30.8816 1.32319 27.7738 0.10147C 24.7027 -1.10582 20.6456 -2.15787 17.1415 -0.996343L 18.0854 1.85129ZM 32.505 5.79828C 36.6016 7.91727 39.3876 9.52772 41.897 10.8863L 43.3253 8.24813C 40.9036 6.93706 38.0052 5.26571 33.8833 3.13365L 32.505 5.79828ZM 41.9022 10.8891C 48.703 14.5363 60.2701 20.9203 62.5597 22.0914L 63.9258 19.4205C 61.661 18.2621 50.2166 11.9439 43.32 8.24532L 41.9022 10.8891ZM 62.5597 22.0914C 63.0311 22.3326 63.7159 22.7121 64.2374 22.9646C 64.7869 23.2307 65.4709 23.5217 66.1783 23.5998C 66.9661 23.6867 67.8502 23.5109 68.5575 22.7827C 69.1811 22.1407 69.4962 21.2361 69.6682 20.2594L 66.7136 19.7391C 66.651 20.0951 66.5779 20.3367 66.5122 20.4946C 66.4468 20.6518 66.4008 20.6973 66.4056 20.6924C 66.484 20.6117 66.596 20.6277 66.5074 20.6179C 66.3383 20.5993 66.0416 20.5051 65.5449 20.2645C 65.02 20.0104 64.593 19.7618 63.9258 19.4205L 62.5597 22.0914ZM 69.6682 20.2593C 69.9285 18.7801 70.226 18.0394 70.5734 17.6694C 70.7972 17.4311 71.2377 17.1411 72.5618 17.3198L 72.963 14.3467C 71.107 14.0962 69.5229 14.4056 68.3865 15.6158C 67.3737 16.6943 66.9755 18.2512 66.7136 19.7393L 69.6682 20.2593ZM 72.5618 17.3198C 74.8773 17.6323 75.7186 19.4417 75.4524 20.7665L 78.3936 21.3576C 78.9988 18.3462 77.0077 14.8926 72.963 14.3467L 72.5618 17.3198ZM 75.4524 20.7665C 75.1328 22.3565 73.8723 24.2288 70.8546 25.2036L 71.7766 28.0583C 75.7351 26.7798 77.8416 24.1037 78.3936 21.3576L 75.4524 20.7665ZM 70.8546 25.2036C 69.5569 25.6227 67.4483 25.4384 64.9559 24.7379C 62.537 24.0581 60.0356 22.9735 58.1203 21.9168L 56.6711 24.5435C 58.7622 25.6973 61.4767 26.8764 64.1442 27.626C 66.7381 28.355 69.5863 28.7658 71.7766 28.0583L 70.8546 25.2036ZM 58.1203 21.9168C 54.1273 19.7136 51.0906 18.1007 50.2912 17.6632L 48.851 20.2949C 49.7295 20.7757 52.6511 22.3255 56.6711 24.5435L 58.1203 21.9168ZM 50.3497 17.697C 49.567 17.2216 48.6305 17.0669 47.7365 17.2642L 48.383 20.1937C 48.5238 20.1626 48.6709 20.1873 48.7924 20.2611L 50.3497 17.697ZM 47.7365 17.2642C 46.8425 17.4615 46.0576 17.9963 45.5491 18.7594L 48.0456 20.423C 48.1221 20.3082 48.2424 20.2247 48.383 20.1937L 47.7365 17.2642ZM 45.5742 18.723C 44.9972 19.5358 44.7425 20.4508 45.0232 21.4864C 45.253 22.3341 45.8213 23.1395 46.4145 23.9084L 48.7897 22.0757C 48.5005 21.701 48.2919 21.408 48.1446 21.1661C 47.9962 20.9226 47.9395 20.7781 47.9187 20.7015C 47.9095 20.6673 47.909 20.6526 47.909 20.6526C 47.909 20.6522 47.9091 20.6535 47.9089 20.6557C 47.9087 20.658 47.9084 20.6593 47.9085 20.6592C 47.9085 20.6589 47.9092 20.6556 47.9116 20.6488C 47.914 20.6418 47.9184 20.6305 47.926 20.6144C 47.9415 20.5818 47.9698 20.5309 48.0206 20.4594L 45.5742 18.723ZM 46.4145 23.9084C 46.996 24.662 47.8544 25.8654 48.6641 27.0046C 49.4454 28.1039 50.215 29.1922 50.5603 29.6209L 52.8966 27.7389C 52.6255 27.4024 51.9355 26.429 51.1094 25.2667C 50.3118 24.1444 49.4152 22.8864 48.7897 22.0757L 46.4145 23.9084ZM 50.5423 29.5982C 51.1601 30.3961 52.0331 30.9575 53.0144 31.1912L 53.7095 28.2729C 53.3914 28.1971 53.1112 28.0158 52.9145 27.7617L 50.5423 29.5982ZM 53.0144 31.1912C 53.9956 31.4249 55.028 31.3175 55.9398 30.886L 54.6567 28.1742C 54.3623 28.3136 54.0277 28.3486 53.7095 28.2729L 53.0144 31.1912ZM 55.6906 30.9779C 56.0931 30.8688 56.5139 30.8421 56.9273 30.8993L 57.3389 27.9277C 56.5258 27.8151 55.6982 27.8677 54.9059 28.0823L 55.6906 30.9779ZM 56.9273 30.8993C 57.3408 30.9566 57.7377 31.0966 58.094 31.3104L 59.6376 28.7381C 58.9341 28.3158 58.152 28.0403 57.3389 27.9277L 56.9273 30.8993ZM 58.094 31.3104C 58.4503 31.5243 58.7585 31.8073 59.0002 32.1419L 61.432 30.3852C 60.9519 29.7205 60.3412 29.1603 59.6376 28.7381L 58.094 31.3104ZM 59.0002 32.1419C 59.2418 32.4765 59.4122 32.8557 59.5013 33.2566L 62.4298 32.6053C 62.2519 31.8053 61.9122 31.0499 61.432 30.3852L 59.0002 32.1419ZM 59.5201 33.3319C 59.8368 34.4737 59.58 35.2665 59.1743 35.7376C 58.7594 36.2195 57.9994 36.5846 56.8862 36.4794L 56.6039 39.4661C 58.5164 39.6468 60.2947 39.0341 61.4476 37.6952C 62.6098 36.3455 62.9503 34.4745 62.411 32.53L 59.5201 33.3319ZM 56.8862 36.4794C 55.9173 36.3878 54.8287 35.7276 53.4996 34.3966C 52.1843 33.0794 50.8968 31.3872 49.417 29.5668L 47.0892 31.4592C 48.4726 33.1611 49.9183 35.0558 51.3768 36.5164C 52.8215 37.9632 54.5471 39.2717 56.6039 39.4661L 56.8862 36.4794ZM 49.417 29.5668C 46.6017 26.1036 40.2871 16.6538 39.4434 15.4374L 36.9783 17.1473C 37.7269 18.2265 44.1779 27.8779 47.0892 31.4592L 49.417 29.5668ZM 39.4434 15.4374C 38.7503 14.4383 37.188 11.4793 33.1928 11.3919L 33.1271 14.3912C 35.3471 14.4398 36.0791 15.8509 36.9783 17.1473L 39.4434 15.4374ZM 33.1928 11.3919C 31.6243 11.3576 30.3387 11.1844 28.8327 11.1046C 28.1436 11.068 27.4432 11.057 26.793 11.1246C 26.1513 11.1912 25.4531 11.3439 24.8322 11.7088L 26.3521 14.2953C 26.4546 14.2351 26.6757 14.1529 27.103 14.1085C 27.5218 14.065 28.0402 14.0668 28.6738 14.1004C 29.8131 14.1608 31.588 14.3575 33.1271 14.3912L 33.1928 11.3919ZM 24.8436 11.7022C 23.9972 12.1896 23.2835 12.8769 22.766 13.7044L 25.3095 15.2951C 25.5653 14.8861 25.9192 14.5447 26.3407 14.3019L 24.8436 11.7022ZM 22.766 13.7044C 22.2484 14.5319 21.9433 15.4739 21.8783 16.4474L 24.8716 16.6474C 24.9036 16.1685 25.0537 15.7041 25.3095 15.2951L 22.766 13.7044ZM 21.8756 16.5021C 21.843 17.5788 22.115 18.6424 22.6599 19.572L 25.2481 18.0551C 24.988 17.6112 24.8587 17.1047 24.8742 16.5928L 21.8756 16.5021ZM 22.6599 19.572C 23.2047 20.5016 24 21.2594 24.9545 21.7608L 26.3497 19.1049C 25.8896 18.8633 25.5084 18.4991 25.2481 18.0551L 22.6599 19.572ZM 24.9352 21.7505C 26.8935 22.8159 31.6878 25.4979 33.1994 26.3545L 34.6785 23.7445C 33.1596 22.8837 28.3487 20.1924 26.369 19.1153L 24.9352 21.7505ZM 33.1994 26.3545C 33.5697 26.5644 33.9449 26.7608 34.1228 26.8591C 34.3349 26.9762 34.4497 27.0498 34.5552 27.134C 34.7876 27.3193 35.0962 27.6496 35.9066 28.7298L 38.3064 26.9296C 37.5159 25.8758 36.9984 25.2453 36.426 24.7887C 36.1292 24.552 35.8471 24.3843 35.5733 24.2331C 35.2654 24.063 35.0659 23.964 34.6785 23.7445L 33.1994 26.3545ZM 35.9066 28.7298C 37.4994 30.8531 42.8583 38.3503 44.0512 39.9933L 46.4788 38.2307C 45.326 36.643 39.9154 29.0744 38.3064 26.9296L 35.9066 28.7298ZM 44.0512 39.9933C 44.7341 40.9339 45.1522 41.4109 45.4633 41.9305C 45.5956 42.1515 45.6387 42.2757 45.652 42.3356C 45.6599 42.3713 45.6564 42.3715 45.6536 42.3801L 48.5062 43.3087C 48.8878 42.1364 48.4805 41.1298 48.0373 40.3894C 47.6421 39.7294 46.9687 38.9055 46.4788 38.2307L 44.0512 39.9933ZM 45.6785 42.3093C 45.369 43.12 44.9252 43.874 44.3651 44.5403L 46.6614 46.4708C 47.4367 45.5486 48.0519 44.5038 48.4812 43.3794L 45.6785 42.3093ZM 44.3664 44.5387C 44.3342 44.5769 44.321 44.5853 44.3297 44.579C 44.3409 44.571 44.411 44.5233 44.5344 44.5059C 44.5966 44.4972 44.6585 44.4984 44.7146 44.508C 44.7699 44.5175 44.8038 44.5324 44.8138 44.5374C 44.828 44.5445 44.7395 44.5034 44.5662 44.2964L 42.2655 46.2216C 42.9723 47.0663 43.8883 47.6267 44.9533 47.4765C 45.8822 47.3455 46.4532 46.7178 46.6601 46.4723L 44.3664 44.5387ZM 44.5662 44.2964C 43.4841 43.0033 32.8161 31.7304 31.4628 30.2642L 29.2583 32.2989C 30.7301 33.8935 41.2416 44.9981 42.2655 46.2216L 44.5662 44.2964ZM 31.4628 30.2642C 30.5566 29.2824 28.9331 28.1952 26.8799 27.8179C 24.7646 27.4291 22.2693 27.8101 19.764 29.6799L 21.5583 32.0841C 23.3933 30.7146 25.0415 30.5302 26.3376 30.7684C 27.6959 31.0181 28.752 31.7504 29.2583 32.2989L 31.4628 30.2642ZM 19.764 29.6799C 15.4007 32.9363 6.40727 39.7328 5.05636 40.7263L 6.83373 43.1431C 8.18805 42.1471 17.2409 35.3063 21.5583 32.0841L 19.764 29.6799ZM 5.05636 40.7263C 4.33408 41.2575 3.81583 41.6227 3.31236 41.788C 2.93315 41.9125 2.58014 41.9219 2.08219 41.5968L 0.442347 44.109C 1.76786 44.9742 3.07993 45.0219 4.24809 44.6384C 5.29199 44.2957 6.2034 43.6067 6.83373 43.1431L 5.05636 40.7263ZM 2.08219 41.5968C 1.78227 41.401 1.65866 41.243 1.60172 41.1435C 1.54719 41.0482 1.5074 40.926 1.50091 40.7247C 1.48436 40.2118 1.66419 39.5817 1.97361 38.4424L -0.921531 37.6561C -1.16856 38.5658 -1.53235 39.7424 -1.49753 40.8215C -1.47835 41.4161 -1.34371 42.0364 -1.00229 42.6332C -0.663293 43.2257 -0.169458 43.7096 0.442347 44.109L 2.08219 41.5968ZM 1.97361 38.4424C 2.54556 36.3363 5.51162 24.9803 5.8233 23.8625L 2.93353 23.0567C 2.62883 24.1495 -0.380573 35.6642 -0.921531 37.6561L 1.97361 38.4424ZM 5.85335 23.7327C 5.94843 23.2191 6.16162 22.7335 6.47708 22.3138L 4.07881 20.5115C 3.48559 21.3008 3.08314 22.2162 2.90348 23.1865L 5.85335 23.7327ZM 6.47708 22.3138C 6.79257 21.894 7.20199 21.5512 7.67409 21.3128L 6.32197 18.6348C 5.43981 19.0802 4.672 19.7221 4.07881 20.5115L 6.47708 22.3138ZM 7.75202 21.2705C 8.5955 20.7801 10.0619 20.0709 11.2643 19.1779C 12.5419 18.229 13.7829 16.9118 14.3537 14.9519L 11.4734 14.113C 11.1453 15.2394 10.4302 16.0604 9.47555 16.7695C 8.44568 17.5344 7.40379 18.0027 6.24404 18.6771L 7.75202 21.2705ZM 14.3798 14.8489C 14.7658 13.0609 14.6357 11.2011 14.0048 9.48363L 11.1888 10.518C 11.6238 11.7022 11.7133 12.9838 11.4473 14.2159L 14.3798 14.8489Z"/>
</defs>
</svg>
