<svg width="22" height="17" viewBox="0 0 22 17" version="1.1" xmlns="http://www.w3.org/2000/svg" xmlns:xlink="http://www.w3.org/1999/xlink">
<title>twitter-logo-silhouette</title>
<desc>Created using Figma</desc>
<g id="Canvas" transform="translate(43046 24404)">
<g id="twitter-logo-silhouette">
<g id="Group">
<g id="Group">
<g id="Vector">
<use xlink:href="#path0_fill" transform="translate(-43046 -24404)" fill="#FFFFFF"/>
</g>
</g>
</g>
</g>
</g>
<defs>
<path id="path0_fill" d="M 22 2.01137C 21.1903 2.35269 20.3215 2.58417 19.4086 2.68751C 20.3407 2.15653 21.0542 1.31433 21.3923 0.313861C 20.518 0.80558 19.5529 1.16263 18.5246 1.35619C 17.7011 0.520513 16.5299 6.47039e-08 15.2307 6.47039e-08C 12.7383 6.47039e-08 10.7174 1.92246 10.7174 4.29217C 10.7174 4.62826 10.7573 4.95652 10.8343 5.27041C 7.08401 5.09122 3.75852 3.38195 1.53281 0.784651C 1.14375 1.41764 0.92242 2.1552 0.92242 2.94252C 0.92242 4.43211 1.71978 5.74644 2.92956 6.51539C 2.18994 6.49186 1.49431 6.29831 0.885322 5.97658L 0.885322 6.0302C 0.885322 8.10959 2.44154 9.84502 4.50501 10.24C 4.12695 10.3368 3.72829 10.3904 3.31586 10.3904C 3.02443 10.3904 2.7426 10.3629 2.46627 10.3106C 3.04089 12.0173 4.70711 13.2584 6.68125 13.2924C 5.1374 14.4433 3.19076 15.1272 1.07642 15.1272C 0.712125 15.1272 0.353295 15.1063 1.70764e-12 15.0684C 1.99751 16.2886 4.36895 17 6.91772 17C 15.2198 17 19.7578 10.4584 19.7578 4.78523L 19.7427 4.22942C 20.6294 3.62779 21.3965 2.8719 22 2.01137Z"/>
</defs>
</svg>
