<svg width="36" height="36" viewBox="0 0 36 36" version="1.1" xmlns="http://www.w3.org/2000/svg" xmlns:xlink="http://www.w3.org/1999/xlink">
<title>noun_963071_cc</title>
<desc>Created using Figma</desc>
<g id="Canvas" transform="translate(25047 18251)">
<g id="noun_963071_cc">
<g id="Group">
<g id="Group">
<g id="Vector">
<use xlink:href="#path0_fill" transform="translate(-25046 -18250)" fill="#FFFFFF"/>
<mask id="mask0_outline_out">
<rect id="mask0_outline_inv" fill="white" x="-1" y="-1" width="36" height="36" transform="translate(-25046 -18250)"/>
<use xlink:href="#path0_fill" fill="black" transform="translate(-25046 -18250)"/>
</mask>
<g mask="url(#mask0_outline_out)">
<use xlink:href="#path1_stroke_2x" transform="translate(-25046 -18250)" fill="#FFFFFF"/>
</g>
</g>
<g id="Vector">
<use xlink:href="#path2_fill" transform="translate(-25041.4 -18245.4)" fill="#FFFFFF"/>
<mask id="mask1_outline_out">
<rect id="mask1_outline_inv" fill="white" x="-1" y="-1" width="26" height="26" transform="translate(-25041.4 -18245.4)"/>
<use xlink:href="#path2_fill" fill="black" transform="translate(-25041.4 -18245.4)"/>
</mask>
<g mask="url(#mask1_outline_out)">
<use xlink:href="#path3_stroke_2x" transform="translate(-25041.4 -18245.4)" fill="#FFFFFF"/>
</g>
</g>
<g id="Vector">
<use xlink:href="#path4_fill" transform="translate(-25038 -18242)" fill="#FFFFFF"/>
<mask id="mask2_outline_out">
<rect id="mask2_outline_inv" fill="white" x="-1" y="-1" width="20" height="20" transform="translate(-25038 -18242)"/>
<use xlink:href="#path4_fill" fill="black" transform="translate(-25038 -18242)"/>
</mask>
<g mask="url(#mask2_outline_out)">
<use xlink:href="#path5_stroke_2x" transform="translate(-25038 -18242)" fill="#FFFFFF"/>
</g>
</g>
<g id="Vector">
<use xlink:href="#path6_fill" transform="translate(-25032 -18236)" fill="#FFFFFF"/>
<mask id="mask3_outline_out">
<rect id="mask3_outline_inv" fill="white" x="-1" y="-1" width="8" height="8" transform="translate(-25032 -18236)"/>
<use xlink:href="#path6_fill" fill="black" transform="translate(-25032 -18236)"/>
</mask>
<g mask="url(#mask3_outline_out)">
<use xlink:href="#path7_stroke_2x" transform="translate(-25032 -18236)" fill="#FFFFFF"/>
</g>
</g>
</g>
</g>
</g>
</g>
<defs>
<path id="path0_fill" d="M 17 0C 7.6262 0 0 7.6262 0 17C 0 26.3738 7.6262 34 17 34C 26.3738 34 34 26.3738 34 17C 34 7.6262 26.3738 0 17 0ZM 17 33.2607C 8.03382 33.2607 0.739311 25.9662 0.739311 17C 0.739311 8.03382 8.03382 0.738933 17 0.738933C 25.9666 0.738933 33.2611 8.03344 33.2611 17C 33.2607 25.9662 25.9662 33.2607 17 33.2607Z"/>
<path id="path1_stroke_2x" d="M 33.2611 17L 33.5111 17L 33.5111 17L 33.2611 17ZM 17 -0.25C 7.48813 -0.25 -0.25 7.48813 -0.25 17L 0.25 17C 0.25 7.76427 7.76427 0.25 17 0.25L 17 -0.25ZM -0.25 17C -0.25 26.5119 7.48813 34.25 17 34.25L 17 33.75C 7.76427 33.75 0.25 26.2357 0.25 17L -0.25 17ZM 17 34.25C 26.5119 34.25 34.25 26.5119 34.25 17L 33.75 17C 33.75 26.2357 26.2357 33.75 17 33.75L 17 34.25ZM 34.25 17C 34.25 7.48813 26.5119 -0.25 17 -0.25L 17 0.25C 26.2357 0.25 33.75 7.76427 33.75 17L 34.25 17ZM 17 33.0107C 8.17189 33.0107 0.989311 25.8281 0.989311 17L 0.489311 17C 0.489311 26.1042 7.89575 33.5107 17 33.5107L 17 33.0107ZM 0.989311 17C 0.989311 8.17189 8.1719 0.988933 17 0.988933L 17 0.488933C 7.89574 0.488933 0.489311 7.89576 0.489311 17L 0.989311 17ZM 17 0.988933C 25.8285 0.988933 33.0111 8.17152 33.0111 17L 33.5111 17C 33.5111 7.89537 26.1046 0.488933 17 0.488933L 17 0.988933ZM 33.0111 17C 33.0107 25.8281 25.8281 33.0107 17 33.0107L 17 33.5107C 26.1043 33.5107 33.5107 26.1042 33.5111 17L 33.0111 17Z"/>
<path id="path2_fill" d="M 12.3537 -8.0702e-08C 5.542 -8.0702e-08 -8.0702e-08 5.542 -8.0702e-08 12.3537C -8.0702e-08 19.1658 5.542 24.7078 12.3537 24.7078C 19.1654 24.7078 24.7078 19.1658 24.7078 12.3537C 24.7074 5.542 19.1654 -8.0702e-08 12.3537 -8.0702e-08ZM 12.3537 23.9685C 5.94962 23.9685 0.739311 18.7582 0.739311 12.3537C 0.739311 5.94962 5.94962 0.738933 12.3537 0.738933C 18.7582 0.738933 23.9685 5.94924 23.9685 12.3537C 23.9685 18.7582 18.7578 23.9685 12.3537 23.9685Z"/>
<path id="path3_stroke_2x" d="M 24.7078 12.3537L 24.9578 12.3537L 24.9578 12.3537L 24.7078 12.3537ZM 12.3537 -0.25C 5.40393 -0.25 -0.25 5.40393 -0.25 12.3537L 0.25 12.3537C 0.25 5.68007 5.68007 0.25 12.3537 0.25L 12.3537 -0.25ZM -0.25 12.3537C -0.25 19.3039 5.40392 24.9578 12.3537 24.9578L 12.3537 24.4578C 5.68008 24.4578 0.25 19.0277 0.25 12.3537L -0.25 12.3537ZM 12.3537 24.9578C 19.3035 24.9578 24.9578 19.3039 24.9578 12.3537L 24.4578 12.3537C 24.4578 19.0277 19.0274 24.4578 12.3537 24.4578L 12.3537 24.9578ZM 24.9578 12.3537C 24.9574 5.40393 19.3035 -0.25 12.3537 -0.25L 12.3537 0.25C 19.0273 0.25 24.4574 5.68007 24.4578 12.3537L 24.9578 12.3537ZM 12.3537 23.7185C 6.0877 23.7185 0.989311 18.6201 0.989311 12.3537L 0.489311 12.3537C 0.489311 18.8962 5.81155 24.2185 12.3537 24.2185L 12.3537 23.7185ZM 0.989311 12.3537C 0.989311 6.08768 6.0877 0.988933 12.3537 0.988933L 12.3537 0.488933C 5.81154 0.488933 0.489311 5.81156 0.489311 12.3537L 0.989311 12.3537ZM 12.3537 0.988933C 18.6201 0.988933 23.7185 6.08732 23.7185 12.3537L 24.2185 12.3537C 24.2185 5.81117 18.8962 0.488933 12.3537 0.488933L 12.3537 0.988933ZM 23.7185 12.3537C 23.7185 18.6201 18.6197 23.7185 12.3537 23.7185L 12.3537 24.2185C 18.8959 24.2185 24.2185 18.8963 24.2185 12.3537L 23.7185 12.3537Z"/>
<path id="path4_fill" d="M 17.984 8.83755C 17.9175 7.14597 17.3997 5.51039 16.4855 4.10678L 16.2656 3.76839L 15.9791 4.05009C 15.0256 4.98943 13.5568 5.09341 12.4865 4.29666C 11.4162 3.49956 11.0585 2.03613 11.6358 0.816486L 11.8092 0.449933L 11.4267 0.340384C 9.84329 -0.113461 8.15738 -0.113461 6.57362 0.340384L 6.19117 0.449933L 6.36458 0.816486C 6.94182 2.03578 6.58414 3.49956 5.51382 4.29666C 4.44384 5.09306 2.97477 4.99012 2.02119 4.05044L 1.73512 3.76874L 1.51488 4.10712C 0.600996 5.5097 0.082802 7.14563 0.0159493 8.83755L 3.10688e-08 9.24375L 0.392971 9.1881C 1.70254 9.00656 2.95 9.80436 3.35858 11.0936C 3.7675 12.3821 3.21775 13.7815 2.05207 14.4207L 1.70152 14.6127L 1.94857 14.9319C 2.97613 16.2608 4.33321 17.2725 5.87319 17.8581L 6.2458 18L 6.31537 17.5987C 6.54715 16.2636 7.67618 15.294 9 15.294C 10.3238 15.294 11.4532 16.2636 11.6846 17.5987L 11.7542 17.9997L 12.1268 17.8581C 13.6668 17.2728 15.0239 16.2611 16.0518 14.9319L 16.2985 14.613L 15.9479 14.4207C 14.7826 13.7812 14.2328 12.3817 14.6414 11.0932C 15.0503 9.80366 16.3002 9.00656 17.607 9.1881L 18 9.24375L 17.984 8.83755ZM 14.0099 10.8832C 13.5436 12.3528 14.0805 13.939 15.2916 14.805C 14.4548 15.7937 13.4126 16.5713 12.2446 17.0781C 11.8166 15.6278 10.5101 14.613 9 14.613C 7.48954 14.613 6.18302 15.6278 5.75544 17.0781C 4.58738 16.571 3.54523 15.7937 2.70838 14.805C 3.91987 13.9394 4.45673 12.3535 3.99012 10.8832C 3.52385 9.41242 2.1851 8.4616 0.702801 8.48177C 0.811394 7.17971 1.20912 5.92355 1.86611 4.80858C 3.04434 5.72358 4.68274 5.75696 5.90374 4.84719C 7.12439 3.93776 7.59983 2.33069 7.11557 0.900648C 8.35319 0.606779 9.64715 0.606779 10.8844 0.900648C 10.4002 2.33139 10.8753 3.93845 12.0966 4.84719C 13.3176 5.75696 14.9563 5.72323 16.1342 4.80824C 16.7912 5.92355 17.1893 7.18006 17.2975 8.48177C 15.8359 8.4536 14.4765 9.41172 14.0099 10.8832Z"/>
<path id="path5_stroke_2x" d="M 17.984 8.83755L 18.2339 8.82774L 18.2339 8.82772L 17.984 8.83755ZM 16.4855 4.10678L 16.2758 4.243L 16.276 4.24322L 16.4855 4.10678ZM 16.2656 3.76839L 16.4752 3.63217L 16.3084 3.37557L 16.0903 3.59015L 16.2656 3.76839ZM 15.9791 4.05009L 15.8038 3.87185L 15.8037 3.87199L 15.9791 4.05009ZM 12.4865 4.29666L 12.3372 4.49717L 12.3372 4.4972L 12.4865 4.29666ZM 11.6358 0.816486L 11.8617 0.923434L 11.8617 0.923397L 11.6358 0.816486ZM 11.8092 0.449933L 12.0352 0.556843L 12.1611 0.290678L 11.878 0.209598L 11.8092 0.449933ZM 11.4267 0.340384L 11.3578 0.580707L 11.3579 0.580719L 11.4267 0.340384ZM 6.57362 0.340384L 6.64246 0.580719L 6.64249 0.580711L 6.57362 0.340384ZM 6.19117 0.449933L 6.12233 0.209598L 5.83926 0.290678L 5.96518 0.556843L 6.19117 0.449933ZM 6.36458 0.816486L 6.13859 0.923397L 6.13862 0.923459L 6.36458 0.816486ZM 5.51382 4.29666L 5.66309 4.49721L 5.66314 4.49717L 5.51382 4.29666ZM 2.02119 4.05044L 2.19666 3.87237L 2.1966 3.8723L 2.02119 4.05044ZM 1.73512 3.76874L 1.91052 3.59061L 1.6925 3.37592L 1.52559 3.63237L 1.73512 3.76874ZM 1.51488 4.10712L 1.72434 4.2436L 1.7244 4.2435L 1.51488 4.10712ZM 0.0159493 8.83755L -0.233856 8.82768L -0.233858 8.82774L 0.0159493 8.83755ZM 3.10688e-08 9.24375L -0.249807 9.23394L -0.261561 9.53328L 0.0350498 9.49128L 3.10688e-08 9.24375ZM 0.392971 9.1881L 0.358643 8.94047L 0.357922 8.94057L 0.392971 9.1881ZM 3.35858 11.0936L 3.12027 11.1691L 3.1203 11.1692L 3.35858 11.0936ZM 2.05207 14.4207L 2.17215 14.64L 2.17227 14.6399L 2.05207 14.4207ZM 1.70152 14.6127L 1.58144 14.3934L 1.32458 14.5341L 1.5038 14.7657L 1.70152 14.6127ZM 1.94857 14.9319L 2.14634 14.779L 2.14629 14.7789L 1.94857 14.9319ZM 5.87319 17.8581L 5.96216 17.6245L 5.96206 17.6244L 5.87319 17.8581ZM 6.2458 18L 6.15684 18.2336L 6.44032 18.3416L 6.49213 18.0427L 6.2458 18ZM 6.31537 17.5987L 6.06906 17.5559L 6.06905 17.556L 6.31537 17.5987ZM 11.6846 17.5987L 11.4383 17.6414L 11.4383 17.6414L 11.6846 17.5987ZM 11.7542 17.9997L 11.5079 18.0424L 11.5597 18.341L 11.843 18.2334L 11.7542 17.9997ZM 12.1268 17.8581L 12.2156 18.0918L 12.2156 18.0918L 12.1268 17.8581ZM 16.0518 14.9319L 15.854 14.779L 15.854 14.779L 16.0518 14.9319ZM 16.2985 14.613L 16.4962 14.766L 16.6752 14.5346L 16.4187 14.3938L 16.2985 14.613ZM 15.9479 14.4207L 15.8276 14.6399L 15.8277 14.6399L 15.9479 14.4207ZM 14.6414 11.0932L 14.4031 11.0176L 14.4031 11.0176L 14.6414 11.0932ZM 17.607 9.1881L 17.6421 8.94057L 17.6414 8.94048L 17.607 9.1881ZM 18 9.24375L 17.965 9.49128L 18.2616 9.53328L 18.2498 9.23394L 18 9.24375ZM 14.0099 10.8832L 14.2482 10.9588L 14.2482 10.9587L 14.0099 10.8832ZM 15.2916 14.805L 15.4824 14.9665L 15.6577 14.7594L 15.437 14.6016L 15.2916 14.805ZM 12.2446 17.0781L 12.0048 17.1488L 12.0848 17.4199L 12.3441 17.3074L 12.2446 17.0781ZM 5.75544 17.0781L 5.65589 17.3074L 5.91527 17.42L 5.99523 17.1488L 5.75544 17.0781ZM 2.70838 14.805L 2.56304 14.6016L 2.34223 14.7594L 2.51756 14.9665L 2.70838 14.805ZM 3.99012 10.8832L 3.75181 10.9587L 3.75183 10.9588L 3.99012 10.8832ZM 0.702801 8.48177L 0.453666 8.461L 0.430772 8.7355L 0.706203 8.73175L 0.702801 8.48177ZM 1.86611 4.80858L 2.01944 4.61113L 1.79499 4.43683L 1.65072 4.68167L 1.86611 4.80858ZM 5.90374 4.84719L 5.75437 4.64671L 5.75436 4.64672L 5.90374 4.84719ZM 7.11557 0.900648L 7.05781 0.657411L 6.79073 0.720828L 6.87878 0.980833L 7.11557 0.900648ZM 10.8844 0.900648L 11.1212 0.980798L 11.2092 0.720835L 10.9422 0.657414L 10.8844 0.900648ZM 12.0966 4.84719L 12.246 4.64672L 12.2458 4.64662L 12.0966 4.84719ZM 16.1342 4.80824L 16.3496 4.68135L 16.2054 4.43642L 15.9809 4.61081L 16.1342 4.80824ZM 17.2975 8.48177L 17.2927 8.73173L 17.5696 8.73706L 17.5467 8.46105L 17.2975 8.48177ZM 18.2339 8.82772C 18.1656 7.09162 17.6341 5.4122 16.6949 3.97033L 16.276 4.24322C 17.1653 5.60859 17.6695 7.20032 17.7342 8.84737L 18.2339 8.82772ZM 16.6951 3.97055L 16.4752 3.63217L 16.0559 3.90462L 16.2758 4.243L 16.6951 3.97055ZM 16.0903 3.59015L 15.8038 3.87185L 16.1545 4.22833L 16.4409 3.94663L 16.0903 3.59015ZM 15.8037 3.87199C 14.9375 4.72524 13.6066 4.81881 12.6358 4.09612L 12.3372 4.4972C 13.5071 5.36802 15.1136 5.25362 16.1546 4.22819L 15.8037 3.87199ZM 12.6358 4.09616C 11.6626 3.37137 11.3346 2.0372 11.8617 0.923434L 11.4098 0.709538C 10.7824 2.03505 11.1698 3.62775 12.3372 4.49717L 12.6358 4.09616ZM 11.8617 0.923397L 12.0352 0.556843L 11.5832 0.343022L 11.4098 0.709575L 11.8617 0.923397ZM 11.878 0.209598L 11.4956 0.100049L 11.3579 0.580719L 11.7403 0.690268L 11.878 0.209598ZM 11.4956 0.10006C 9.86716 -0.366688 8.13352 -0.366684 6.50475 0.100057L 6.64249 0.580711C 8.18125 0.139762 9.81943 0.139766 11.3578 0.580707L 11.4956 0.10006ZM 6.50478 0.100049L 6.12233 0.209598L 6.26001 0.690268L 6.64246 0.580719L 6.50478 0.100049ZM 5.96518 0.556843L 6.13859 0.923397L 6.59057 0.709575L 6.41716 0.343022L 5.96518 0.556843ZM 6.13862 0.923459C 6.66573 2.03686 6.33772 3.37137 5.3645 4.09616L 5.66314 4.49717C 6.83056 3.62776 7.21791 2.0347 6.59054 0.709513L 6.13862 0.923459ZM 5.36455 4.09612C 4.39394 4.81855 3.06274 4.72582 2.19666 3.87237L 1.84572 4.22851C 2.88681 5.25443 4.49373 5.36757 5.66309 4.49721L 5.36455 4.09612ZM 2.1966 3.8723L 1.91052 3.59061L 1.55971 3.94687L 1.84578 4.22857L 2.1966 3.8723ZM 1.52559 3.63237L 1.30535 3.97075L 1.7244 4.2435L 1.94464 3.90511L 1.52559 3.63237ZM 1.30542 3.97065C 0.366601 5.41149 -0.165245 7.09126 -0.233856 8.82768L 0.265754 8.84742C 0.330849 7.19999 0.83539 5.60791 1.72434 4.2436L 1.30542 3.97065ZM -0.233858 8.82774L -0.249807 9.23394L 0.249808 9.25355L 0.265757 8.84735L -0.233858 8.82774ZM 0.0350498 9.49128L 0.428021 9.43563L 0.357922 8.94057L -0.0350497 8.99621L 0.0350498 9.49128ZM 0.427299 9.43573C 1.61301 9.27137 2.74751 9.99293 3.12027 11.1691L 3.5969 11.018C 3.15249 9.61578 1.79207 8.74176 0.358643 8.94047L 0.427299 9.43573ZM 3.1203 11.1692C 3.49396 12.3466 2.99026 13.6211 1.93187 14.2015L 2.17227 14.6399C 3.44524 13.9419 4.04105 12.4175 3.59687 11.0179L 3.1203 11.1692ZM 1.93199 14.2014L 1.58144 14.3934L 1.8216 14.832L 2.17215 14.64L 1.93199 14.2014ZM 1.5038 14.7657L 1.75085 15.0849L 2.14629 14.7789L 1.89924 14.4597L 1.5038 14.7657ZM 1.7508 15.0849C 2.80597 16.4494 4.20044 17.4894 5.78433 18.0918L 5.96206 17.6244C 4.46598 17.0555 3.1463 16.0722 2.14634 14.779L 1.7508 15.0849ZM 5.78422 18.0917L 6.15684 18.2336L 6.33477 17.7664L 5.96216 17.6245L 5.78422 18.0917ZM 6.49213 18.0427L 6.5617 17.6414L 6.06905 17.556L 5.99948 17.9573L 6.49213 18.0427ZM 6.56169 17.6414C 6.77342 16.4218 7.80208 15.544 9 15.544L 9 15.044C 7.55028 15.044 6.32088 16.1053 6.06906 17.5559L 6.56169 17.6414ZM 9 15.544C 10.198 15.544 11.2269 16.4218 11.4383 17.6414L 11.931 17.556C 11.6795 16.1053 10.4497 15.044 9 15.044L 9 15.544ZM 11.4383 17.6414L 11.5079 18.0424L 12.0005 17.9569L 11.9309 17.5559L 11.4383 17.6414ZM 11.843 18.2334L 12.2156 18.0918L 12.038 17.6244L 11.6654 17.7659L 11.843 18.2334ZM 12.2156 18.0918C 13.7996 17.4898 15.194 16.4498 16.2495 15.0849L 15.854 14.779C 14.8537 16.0725 13.534 17.0558 12.038 17.6244L 12.2156 18.0918ZM 16.2495 15.0849L 16.4962 14.766L 16.1007 14.4601L 15.854 14.779L 16.2495 15.0849ZM 16.4187 14.3938L 16.0682 14.2015L 15.8277 14.6399L 16.1782 14.8322L 16.4187 14.3938ZM 16.0682 14.2015C 15.0101 13.6208 14.5064 12.3462 14.8797 11.1688L 14.4031 11.0176C 13.9593 12.4172 14.5551 13.9415 15.8276 14.6399L 16.0682 14.2015ZM 14.8797 11.1688C 15.2528 9.99237 16.3896 9.27138 17.5726 9.43572L 17.6414 8.94048C 16.2108 8.74175 14.8479 9.61496 14.4031 11.0176L 14.8797 11.1688ZM 17.572 9.43563L 17.965 9.49128L 18.035 8.99621L 17.6421 8.94057L 17.572 9.43563ZM 18.2498 9.23394L 18.2339 8.82774L 17.7342 8.84736L 17.7502 9.25356L 18.2498 9.23394ZM 13.7716 10.8076C 13.2729 12.3795 13.8461 14.0788 15.1462 15.0084L 15.437 14.6016C 14.3149 13.7993 13.8144 12.3261 14.2482 10.9588L 13.7716 10.8076ZM 15.1008 14.6435C 14.2883 15.6034 13.2772 16.3576 12.1451 16.8487L 12.3441 17.3074C 13.548 16.7851 14.6212 15.984 15.4824 14.9665L 15.1008 14.6435ZM 12.4843 17.0073C 12.0263 15.4552 10.6254 14.363 9 14.363L 9 14.863C 10.3948 14.863 11.6069 15.8005 12.0048 17.1488L 12.4843 17.0073ZM 9 14.363C 7.37425 14.363 5.9733 15.4551 5.51564 17.0073L 5.99523 17.1488C 6.39275 15.8005 7.60482 14.863 9 14.863L 9 14.363ZM 5.85499 16.8487C 4.72276 16.3572 3.71167 15.6034 2.89921 14.6435L 2.51756 14.9665C 3.37879 15.984 4.452 16.7848 5.65589 17.3074L 5.85499 16.8487ZM 2.85372 15.0084C 4.1543 14.0792 4.72748 12.3802 4.22841 10.8075L 3.75183 10.9588C 4.18598 12.3269 3.68545 13.7996 2.56304 14.6016L 2.85372 15.0084ZM 4.22843 10.8076C 3.7291 9.23258 2.29273 8.21012 0.6994 8.2318L 0.706203 8.73175C 2.07747 8.71309 3.3186 9.59225 3.75181 10.9587L 4.22843 10.8076ZM 0.951936 8.50255C 1.05744 7.23756 1.44379 6.01773 2.08149 4.9355L 1.65072 4.68167C 0.974443 5.82936 0.565351 7.12186 0.453666 8.461L 0.951936 8.50255ZM 1.71277 5.00604C 2.97886 5.98926 4.74109 6.02526 6.05311 5.04766L 5.75436 4.64672C 4.62439 5.48867 3.10982 5.4579 2.01944 4.61113L 1.71277 5.00604ZM 6.0531 5.04766C 7.36294 4.07179 7.87043 2.35037 7.35236 0.820463L 6.87878 0.980833C 7.32922 2.31102 6.88584 3.80373 5.75437 4.64671L 6.0531 5.04766ZM 7.17332 1.14388C 8.37298 0.859032 9.62737 0.859035 10.8267 1.14388L 10.9422 0.657414C 9.66693 0.354522 8.33341 0.354526 7.05781 0.657411L 7.17332 1.14388ZM 10.6476 0.820498C 10.1296 2.35099 10.6366 4.07251 11.9474 5.04776L 12.2458 4.64662C 11.1139 3.8044 10.6707 2.31179 11.1212 0.980798L 10.6476 0.820498ZM 11.9472 5.04766C 13.2593 6.02528 15.0219 5.9889 16.2876 5.00567L 15.9809 4.61081C 14.8908 5.45756 13.3759 5.48865 12.246 4.64672L 11.9472 5.04766ZM 15.9188 4.93512C 16.5566 6.01776 16.9432 7.23793 17.0484 8.50249L 17.5467 8.46105C 17.4353 7.12218 17.0259 5.82934 16.3496 4.68135L 15.9188 4.93512ZM 17.3024 8.23182C 15.7285 8.20149 14.2712 9.23207 13.7716 10.8076L 14.2482 10.9587C 14.6818 9.59137 15.9434 8.70572 17.2927 8.73173L 17.3024 8.23182Z"/>
<path id="path6_fill" d="M 3 3.06527e-07C 1.34577 3.06527e-07 3.06538e-07 1.34573 3.06538e-07 2.9999C 3.06538e-07 4.65407 1.34577 6 3 6C 4.65423 6 6 4.65407 6 2.9999C 6 1.34594 4.65402 3.06527e-07 3 3.06527e-07ZM 3 5.59049C 1.57157 5.59049 0.409319 4.42849 0.409319 2.9999C 0.409319 1.57151 1.57136 0.409514 3 0.409514C 4.42843 0.409514 5.59068 1.57151 5.59068 2.9999C 5.59047 4.42849 4.42843 5.59049 3 5.59049Z"/>
<path id="path7_stroke_2x" d="M 5.59068 2.9999L 5.84068 2.99993L 5.84068 2.9999L 5.59068 2.9999ZM 3 -0.25C 1.20771 -0.25 -0.25 1.20765 -0.25 2.9999L 0.25 2.9999C 0.25 1.48381 1.48384 0.25 3 0.25L 3 -0.25ZM -0.25 2.9999C -0.25 4.79212 1.20769 6.25 3 6.25L 3 5.75C 1.48386 5.75 0.25 4.51601 0.25 2.9999L -0.25 2.9999ZM 3 6.25C 4.79231 6.25 6.25 4.79212 6.25 2.9999L 5.75 2.9999C 5.75 4.51601 4.51614 5.75 3 5.75L 3 6.25ZM 6.25 2.9999C 6.25 1.20786 4.79208 -0.25 3 -0.25L 3 0.25C 4.51595 0.25 5.75 1.48401 5.75 2.9999L 6.25 2.9999ZM 3 5.34049C 1.70962 5.34049 0.659319 4.29039 0.659319 2.9999L 0.159319 2.9999C 0.159319 4.56658 1.43352 5.84049 3 5.84049L 3 5.34049ZM 0.659319 2.9999C 0.659319 1.70961 1.70941 0.659514 3 0.659514L 3 0.159514C 1.43331 0.159514 0.159319 1.43342 0.159319 2.9999L 0.659319 2.9999ZM 3 0.659514C 4.2904 0.659514 5.34068 1.70962 5.34068 2.9999L 5.84068 2.9999C 5.84068 1.43341 4.56647 0.159514 3 0.159514L 3 0.659514ZM 5.34068 2.99986C 5.34049 4.29042 4.29035 5.34049 3 5.34049L 3 5.84049C 4.56651 5.84049 5.84045 4.56655 5.84068 2.99993L 5.34068 2.99986Z"/>
</defs>
</svg>
