<svg width="24" height="14" viewBox="0 0 24 14" version="1.1" xmlns="http://www.w3.org/2000/svg" xmlns:xlink="http://www.w3.org/1999/xlink">
<title>Vector</title>
<desc>Created using Figma</desc>
<g id="Canvas" transform="translate(43322 16567)">
<g id="Vector">
<use xlink:href="#path0_fill" transform="translate(-43322 -16567)" fill="#FFFFFF"/>
</g>
</g>
<defs>
<path id="path0_fill" fill-rule="evenodd" d="M 20.655 8.90248C 21.4508 9.70271 22.2923 10.4561 23.0066 11.3408C 23.3222 11.7317 23.6207 12.135 23.8482 12.5879C 24.1712 13.2369 23.8785 13.9479 23.316 13.9871L 19.8208 13.9855C 18.9186 14.062 18.1997 13.6871 17.5934 13.0509C 17.1112 12.5444 16.6606 12.0022 16.1951 11.4785C 16.0057 11.2628 15.8054 11.0611 15.5674 10.9003C 15.0899 10.5814 14.6757 10.6782 14.4028 11.1908C 14.1253 11.7129 14.06 12.2927 14.0344 12.8741C 13.9964 13.7228 13.748 13.9448 12.9215 13.9856C 11.1533 14.07 9.47636 13.7931 7.91895 12.8757C 6.54356 12.0663 5.47919 10.9219 4.55256 9.62795C 2.7467 7.10523 1.36361 4.33569 0.121789 1.48643C -0.158896 0.844286 0.0461314 0.500163 0.731235 0.487755C 1.87333 0.46451 3.01496 0.467337 4.15546 0.486184C 4.61938 0.494194 4.92719 0.767483 5.10463 1.21919C 5.72185 2.78243 6.47682 4.27011 7.42448 5.65045C 7.67796 6.01774 7.93571 6.38345 8.30097 6.64276C 8.70584 6.93042 9.01525 6.83642 9.20619 6.36908C 9.32771 6.07224 9.38089 5.75654 9.40649 5.4392C 9.49731 4.35288 9.5082 3.26539 9.35179 2.18229C 9.25472 1.50528 8.88329 1.06755 8.22836 0.939543C 7.89449 0.873891 7.94455 0.747456 8.10531 0.550187C 8.38752 0.211327 8.65305 0 9.17906 0L 13.1293 0C 13.7523 0.125257 13.892 0.414485 13.9767 1.05993L 13.9798 5.5848C 13.9724 5.83484 14.1013 6.57546 14.5365 6.73951C 14.885 6.85833 15.1172 6.56902 15.3264 6.34097C 16.2725 5.30625 16.9475 4.08274 17.5507 2.81674C 17.8177 2.26019 18.0484 1.68205 18.2728 1.10344C 18.4381 0.675286 18.6958 0.464432 19.1644 0.472049L 22.9675 0.47684C 23.0797 0.47684 23.195 0.47684 23.3057 0.495609C 23.9454 0.609635 24.1213 0.894152 23.9225 1.53952C 23.6119 2.5506 23.0036 3.39481 22.4109 4.24027C 21.7754 5.14534 21.0992 6.01876 20.4684 6.92861C 19.8923 7.76175 19.9377 8.18063 20.655 8.90248Z"/>
</defs>
</svg>
