<svg width="23" height="24" viewBox="0 0 23 24" fill="none" xmlns="http://www.w3.org/2000/svg">
<path d="M21.7304 18.8769L21.7186 18.8896L21.7073 18.9027L19.3498 21.6408L19.3235 21.6674C19.0334 21.9606 18.3763 22.1062 17.2972 21.9504C16.3084 21.8076 15.2997 21.4608 14.6707 21.2323C12.0263 20.1601 9.33457 18.3487 7.09787 16.0877C4.07756 13.0346 2.59903 9.96296 2.00255 8.41937L2.00151 8.41672C1.67534 7.57976 1.18357 6.11974 1.18357 4.91501C1.18357 4.22851 1.34366 3.83331 1.52748 3.6475L1.55539 3.61928L4.24045 1.23484L4.25126 1.22524L4.26179 1.21533C4.56535 0.929639 5.21205 0.900532 5.6254 1.31837L5.6618 1.35517L8.31091 4.71512L8.33466 4.74524L8.36064 4.77345C8.6884 5.12931 8.68697 5.724 8.33464 6.08015L8.3283 6.0865L6.96751 7.00355L6.4037 7.3835L6.54968 8.04753C6.64264 8.47041 6.93457 9.06654 7.45716 9.82215C7.99802 10.6042 8.83593 11.6279 10.107 12.9128C11.3888 14.2085 12.4012 15.062 13.1755 15.6127C13.9229 16.1443 14.5203 16.4459 14.9648 16.5405L15.6321 16.6826L16.0078 16.113L16.9154 14.7367L16.922 14.73C17.2781 14.3701 17.8227 14.3626 18.1834 14.7029L18.2132 14.731L18.2452 14.7566L21.5926 17.4333L21.6276 17.4687C21.799 17.6419 21.9191 17.9031 21.9508 18.1928C21.9749 18.4793 21.8865 18.7078 21.7304 18.8769Z" stroke="white" stroke-width="2"/>
</svg>
