<svg width="37" height="12" viewBox="0 0 37 12" version="1.1" xmlns="http://www.w3.org/2000/svg" xmlns:xlink="http://www.w3.org/1999/xlink">
<title>Arrow</title>
<desc>Created using Figma</desc>
<g id="Canvas" transform="translate(44625 23822)">
<g id="Arrow">
<use xlink:href="#path0_stroke" transform="matrix(1 -2.44929e-16 2.44929e-16 1 -44625 -23816)" fill="#333333"/>
</g>
</g>
<defs>
<path id="path0_stroke" d="M 36.5303 0.53033C 36.8232 0.237437 36.8232 -0.237437 36.5303 -0.53033L 31.7574 -5.3033C 31.4645 -5.59619 30.9896 -5.59619 30.6967 -5.3033C 30.4038 -5.01041 30.4038 -4.53553 30.6967 -4.24264L 34.9393 0L 30.6967 4.24264C 30.4038 4.53553 30.4038 5.01041 30.6967 5.3033C 30.9896 5.59619 31.4645 5.59619 31.7574 5.3033L 36.5303 0.53033ZM 0 0.75L 36 0.75L 36 -0.75L 0 -0.75L 0 0.75Z"/>
</defs>
</svg>
