<svg width="25" height="14" viewBox="0 0 25 14" fill="none" xmlns="http://www.w3.org/2000/svg">
<path fill-rule="evenodd" clip-rule="evenodd" d="M21.0998 8.90248C21.8956 9.70271 22.7372 10.4561 23.4514 11.3408C23.767 11.7317 24.0655 12.135 24.293 12.5879C24.616 13.2369 24.3233 13.9479 23.7608 13.9871L20.2656 13.9855C19.3634 14.062 18.6445 13.6871 18.0382 13.0509C17.5561 12.5444 17.1054 12.0022 16.6399 11.4785C16.4505 11.2628 16.2502 11.0611 16.0122 10.9003C15.5347 10.5814 15.1206 10.6782 14.8476 11.1908C14.5701 11.7129 14.5049 12.2927 14.4793 12.8741C14.4412 13.7228 14.1928 13.9448 13.3664 13.9856C11.5981 14.07 9.92118 13.7931 8.36378 12.8757C6.98839 12.0663 5.92401 10.9219 4.99738 9.62795C3.19152 7.10523 1.80844 4.33569 0.566613 1.48643C0.285928 0.844286 0.490956 0.500163 1.17606 0.487755C2.31815 0.46451 3.45979 0.467337 4.60028 0.486184C5.0642 0.494194 5.37201 0.767483 5.54946 1.21919C6.16668 2.78243 6.92165 4.27011 7.8693 5.65045C8.12279 6.01774 8.38054 6.38345 8.74579 6.64276C9.15067 6.93042 9.46008 6.83642 9.65101 6.36908C9.77253 6.07224 9.82572 5.75654 9.85132 5.4392C9.94213 4.35288 9.95303 3.26539 9.79661 2.18229C9.69954 1.50528 9.32812 1.06755 8.67318 0.939543C8.33932 0.873891 8.38938 0.747456 8.55014 0.550187C8.83235 0.211327 9.09787 0 9.62389 0H13.5741C14.1971 0.125257 14.3369 0.414485 14.4215 1.05993L14.4246 5.5848C14.4172 5.83484 14.5462 6.57546 14.9813 6.73951C15.3299 6.85833 15.562 6.56902 15.7712 6.34097C16.7173 5.30625 17.3923 4.08274 17.9955 2.81674C18.2626 2.26019 18.4932 1.68205 18.7176 1.10344C18.8829 0.675286 19.1407 0.464432 19.6092 0.472049L23.4124 0.47684C23.5245 0.47684 23.6399 0.47684 23.7505 0.495609C24.3902 0.609635 24.5661 0.894152 24.3673 1.53952C24.0568 2.5506 23.4485 3.39481 22.8557 4.24027C22.2202 5.14534 21.544 6.01876 20.9132 6.92861C20.3371 7.76175 20.3825 8.18063 21.0998 8.90248Z" fill="black"/>
</svg>
