<svg width="111" height="68" viewBox="0 0 111 68" fill="none" xmlns="http://www.w3.org/2000/svg">
<path d="M35.7041 23.1449C29.4133 22.6746 19.0406 25.1624 17.5072 20.0489C15.9738 14.9354 18.2025 9.18053 24.1786 7.53964C31.9824 5.39696 45.0285 14.1208 48.5305 16.0413C50.2947 17.0087 47.9722 22.9166 46.341 23.4949C44.7099 24.0732 42.5464 23.6563 35.7041 23.1449Z" stroke="#4F4F4F" stroke-width="1.5"/>
<path d="M50.1673 29.5206C50.7167 30.45 51.9214 31.2206 53.4021 31.2349C54.8798 31.2491 56.4595 29.7298 55.8474 27.9418C55.1866 26.0119 55.1792 24.3646 56.5289 23.6417C57.8785 22.9189 60.0801 23.1809 61.8504 23.495" stroke="#4F4F4F" stroke-width="1.5"/>
<path d="M75.9138 46.5507C75.7248 47.4234 75.1508 49.0679 74.2614 49.3564C73.3719 49.6448 71.2641 49.179 70.5545 50.6572C69.8448 52.1354 70.4751 53.808 70.5104 55.2604" stroke="#4F4F4F" stroke-width="1.5"/>
<path d="M21.7693 1.22729L109.284 49.7905" stroke="#4F4F4F" stroke-width="1.5" stroke-linecap="round"/>
<path d="M76.686 53.8848C78.3749 52.4161 82.2149 49.5721 84.2813 47.7703C86.3478 45.9686 89.816 42.5105 91.3401 41.1061" stroke="#4F4F4F" stroke-width="1.5"/>
<path d="M83.537 48.3573C83.7617 48.904 84.4473 50.0096 85.3927 50.0583C86.5743 50.1192 89.1968 48.9069 90.8819 47.8341C92.567 46.7613 93.1694 45.5791 94.9886 45.9431C96.8078 46.3072 98.3754 47.2133 99.1716 46.3795C99.8085 45.7124 100.236 44.9542 100.37 44.6585" stroke="#4F4F4F" stroke-width="1.5"/>
<path d="M17.3104 19.7704C16.7531 17.7228 16.2457 10.1479 23.6853 7.72876C31.1249 5.30967 41.7264 12.2989 43.0761 13.0213C48.1773 15.7577 51.7036 17.8662 54.7636 19.5832C63.2641 24.3086 77.5427 32.4756 80.3698 33.9754C83.1969 35.4753 85.7526 37.4347 86.5527 33.0784C87.2401 29.3337 88.3443 27.2861 92.3068 27.8669C96.2693 28.4477 98.0045 31.7914 97.4346 34.5269C96.8647 37.2624 94.7367 40.117 90.3711 41.4993C86.0055 42.8815 78.0167 39.8754 73.0447 37.0328C68.0727 34.1902 64.3748 32.1552 63.3336 31.5648C62.7728 31.2122 62.0979 31.0923 61.451 31.2304C60.8041 31.3685 60.2357 31.7539 59.8655 32.3052C58.9344 33.6076 59.3413 34.6219 60.8284 36.614C62.3155 38.6061 65.1481 42.8792 65.9079 43.8539C66.4096 44.5238 67.1245 45.0002 67.9333 45.2036C68.742 45.407 69.5956 45.3251 70.3516 44.9716C71.0989 44.7742 71.8782 44.7315 72.6423 44.8463C73.4064 44.961 74.1394 45.2308 74.7968 45.6391C75.4542 46.0475 76.0222 46.5861 76.4665 47.222C76.9108 47.858 77.2221 48.5782 77.3814 49.3389C78.4122 53.2506 75.8262 56.0594 72.0546 55.6616C68.283 55.2637 65.0795 50.6164 61.5497 46.1294C58.0198 41.6423 50.1717 29.4923 49.1922 28.0318C48.2127 26.5713 46.8079 23.7953 42.9315 23.672C39.055 23.5486 35.3034 22.6633 33.488 23.7207C32.6926 24.1746 32.0204 24.8184 31.5305 25.5953C31.0406 26.3722 30.7481 27.2584 30.6787 28.1758C30.6391 29.1796 30.8799 30.1745 31.3738 31.0475C31.8677 31.9205 32.5949 32.6368 33.4729 33.115C35.9166 34.4929 41.8762 37.9469 43.7564 39.0506C45.6366 40.1544 45.7032 39.8863 47.6748 42.6033C49.6464 45.3202 56.2737 54.9075 57.7175 56.9637C59.1612 59.0199 60.4097 60.2788 59.9367 61.7038C59.4641 62.9224 58.7926 64.053 57.9499 65.049C57.5609 65.5074 56.6346 66.3154 55.336 64.7121C54.0374 63.1088 40.9602 48.8373 39.2163 46.8858C37.4724 44.9342 32.5739 42.2213 27.1194 46.264C21.6649 50.3067 10.3245 58.8179 8.6249 60.0591C6.92525 61.3004 5.0319 62.6902 2.77122 61.1635C0.510535 59.6369 1.19168 57.6658 1.91074 55.0822C2.62979 52.4987 6.49581 38.0788 6.8937 36.6853C7.07407 35.749 7.4666 34.8673 8.04078 34.1084C8.61496 33.3496 9.35531 32.7343 10.2043 32.3103C12.7178 30.8619 16.4919 29.3934 17.6508 25.5028C18.0757 23.5978 17.9577 21.6109 17.3104 19.7704Z" stroke="#4F4F4F" stroke-width="1.5" stroke-miterlimit="10"/>
<path d="M23.5237 7.38779C15.9001 10.2977 16.6909 17.5992 17.2674 19.672C17.932 21.5336 18.069 23.5491 17.6625 25.4868C16.5414 29.447 12.7834 30.9743 10.2852 32.4689C9.4407 32.9076 8.70663 33.5394 8.14002 34.3152C7.57341 35.091 7.18953 35.9898 7.01821 36.9418C6.63387 38.3601 2.90785 53.0335 2.21389 55.6627C1.51993 58.2919 0.858 60.2993 3.13205 61.8266C5.40103 63.3505 7.27674 61.9312 8.96069 60.657L8.97197 60.6484C10.6588 59.372 21.9116 50.6225 27.3245 46.4659C32.7374 42.3094 37.6591 45.0149 39.4207 46.9787C41.1823 48.9424 54.3889 63.2994 55.702 64.914C57.0152 66.5286 57.9334 65.6995 58.3177 65.2304C59.1505 64.2112 59.8108 63.0571 60.2715 61.8157C60.7306 60.3647 59.4708 59.0992 58.0081 57.0264C56.5455 54.9536 49.8301 45.2877 47.8336 42.5494C45.8372 39.8111 45.7731 40.0838 43.8834 38.9819C41.9937 37.8801 36.0043 34.4326 33.5488 33.058C32.6667 32.5813 31.933 31.8614 31.4311 30.9802C30.9291 30.0989 30.6789 29.0915 30.7089 28.0723C30.7694 27.1405 31.0533 26.2382 31.5355 25.4449C32.0177 24.6515 32.6834 23.9915 33.474 23.5231C35.2783 22.4321 39.0364 23.294 42.9119 23.3812C44.2557 23.4372 47.1215 23.1613 47.8336 21.6105L47.8443 21.5872C48.7347 19.6482 50.0972 16.6813 47.8336 15.3302C45.561 13.9737 31.1473 4.47785 23.5237 7.38779Z" stroke="#FF0000" stroke-width="2.5" stroke-miterlimit="10"/>
</svg>
