<svg width="16" height="13" viewBox="0 0 16 13" fill="none" xmlns="http://www.w3.org/2000/svg">
<path d="M12.093 -6.42149e-07L12.093 1.40387L16 1.40387L16 12.8L-6.20523e-06 12.8L-4.07689e-06 1.40387L3.90697 1.40387L3.90697 -1.9876e-06L5.65116 -1.70093e-06L5.65116 1.40387L10.3488 1.40387L10.3488 -9.28823e-07L12.093 -6.42149e-07ZM5.65116 2.76658L5.65116 3.71626L3.90697 3.71626L3.90697 2.76658L1.53418 2.76658L1.53418 11.4373L14.4658 11.4373L14.4658 2.76658L12.093 2.76658L12.093 3.71626L10.3488 3.71626L10.3488 2.76658L5.65116 2.76658Z" fill="white"/>
<rect x="2.99634" y="4.927" width="2" height="1.96923" fill="white"/>
<rect x="6.99487" y="4.927" width="2" height="1.96923" fill="white"/>
<rect x="10.9988" y="4.927" width="2" height="1.96923" fill="white"/>
<rect x="2.99634" y="7.87891" width="2" height="1.96923" fill="white"/>
<rect x="6.99487" y="7.87891" width="2" height="1.96923" fill="white"/>
<rect x="10.9988" y="7.87891" width="2" height="1.96923" fill="white"/>
</svg>
