<svg width="75" height="46" viewBox="0 0 75 46" fill="none" xmlns="http://www.w3.org/2000/svg">
<path d="M25.0623 15.7244C20.8622 15.4112 13.9368 17.068 12.9131 13.6626C11.8893 10.2571 13.3772 6.42457 17.3673 5.33179C22.5775 3.90483 31.2878 9.71465 33.626 10.9936C34.8038 11.6379 33.2532 15.5724 32.1641 15.9575C31.0751 16.3426 29.6306 16.065 25.0623 15.7244Z" stroke="#CBCBCB" stroke-width="1.5"/>
<path d="M34.7226 19.9734C35.0894 20.5923 35.8938 21.1055 36.8824 21.115C37.8689 21.1245 38.9237 20.1127 38.515 18.922C38.0738 17.6367 38.0689 16.5396 38.97 16.0582C39.8711 15.5768 41.3409 15.7513 42.523 15.9605" stroke="#CBCBCB" stroke-width="1.5"/>
<path d="M51.9125 31.3112C51.7863 31.8925 51.403 32.9879 50.8091 33.18C50.2152 33.3721 48.8077 33.0618 48.3338 34.0464C47.86 35.031 48.2808 36.145 48.3044 37.1124" stroke="#CBCBCB" stroke-width="1.5"/>
<path d="M15.7637 1.12836L74.1935 33.47" stroke="#CBCBCB" stroke-width="1.5" stroke-linecap="round"/>
<path d="M52.4272 36.1937C53.5549 35.2156 56.1186 33.3215 57.4983 32.1216C58.878 30.9217 61.1936 28.6187 62.2112 27.6835" stroke="#CBCBCB" stroke-width="1.5"/>
<path d="M57.0105 32.5711C57.1605 32.9352 57.6183 33.6715 58.2494 33.7039C59.0384 33.7445 60.7892 32.9371 61.9143 32.2227C63.0394 31.5082 63.4416 30.7209 64.6562 30.9634C65.8708 31.2058 66.9174 31.8093 67.449 31.254C67.8742 30.8097 68.1597 30.3048 68.2493 30.1078" stroke="#CBCBCB" stroke-width="1.5"/>
<path d="M12.7857 13.4764C12.4136 12.1128 12.0748 7.0681 17.0419 5.45706C22.009 3.84602 29.0872 8.50063 29.9883 8.98175C33.3942 10.8041 35.7485 12.2083 37.7916 13.3518C43.467 16.4988 53.0002 21.9377 54.8877 22.9365C56.7752 23.9354 58.4815 25.2403 59.0157 22.3391C59.4747 19.8453 60.2119 18.4817 62.8575 18.8685C65.5031 19.2553 66.6616 21.482 66.2811 23.3038C65.9006 25.1255 64.4798 27.0266 61.5651 27.9472C58.6504 28.8677 53.3166 26.8657 49.997 24.9726C46.6774 23.0795 44.2085 21.7243 43.5133 21.3311C43.1389 21.0963 42.6883 21.0165 42.2564 21.1084C41.8245 21.2004 41.445 21.457 41.1978 21.8242C40.5762 22.6916 40.8478 23.3671 41.8407 24.6938C42.8336 26.0204 44.7248 28.8662 45.2321 29.5153C45.5671 29.9614 46.0444 30.2787 46.5843 30.4141C47.1243 30.5496 47.6942 30.4951 48.199 30.2597C48.6979 30.1282 49.2182 30.0998 49.7284 30.1762C50.2385 30.2526 50.7279 30.4322 51.1668 30.7042C51.6057 30.9762 51.985 31.3348 52.2816 31.7584C52.5782 32.1819 52.7861 32.6615 52.8924 33.1681C53.5807 35.7732 51.8541 37.6438 49.336 37.3788C46.8179 37.1139 44.679 34.0189 42.3223 31.0307C39.9655 28.0425 34.7257 19.9509 34.0718 18.9783C33.4178 18.0056 32.4799 16.1569 29.8917 16.0747C27.3036 15.9926 24.7988 15.403 23.5868 16.1072C23.0557 16.4095 22.6069 16.8382 22.2798 17.3556C21.9527 17.873 21.7574 18.4632 21.7111 19.0742C21.6847 19.7427 21.8455 20.4052 22.1752 20.9866C22.505 21.568 22.9905 22.045 23.5767 22.3635C25.2082 23.2811 29.1872 25.5814 30.4425 26.3165C31.6978 27.0515 31.7423 26.873 33.0587 28.6824C34.375 30.4918 38.7998 36.8767 39.7637 38.246C40.7276 39.6154 41.5612 40.4537 41.2454 41.4028C40.9299 42.2143 40.4815 42.9673 39.9189 43.6306C39.6592 43.9359 39.0407 44.474 38.1737 43.4062C37.3067 42.3385 28.5756 32.8341 27.4113 31.5344C26.247 30.2347 22.9765 28.428 19.3347 31.1203C15.693 33.8127 8.12153 39.4809 6.98675 40.3075C5.85197 41.1341 4.58787 42.0597 3.07851 41.043C1.56915 40.0263 2.02392 38.7136 2.504 36.993C2.98408 35.2725 5.56525 25.6693 5.8309 24.7412C5.95133 24.1177 6.2134 23.5305 6.59676 23.0251C6.98011 22.5198 7.47441 22.11 8.04124 21.8276C9.71937 20.863 12.2392 19.8851 13.0129 17.294C13.2966 16.0254 13.2179 14.7021 12.7857 13.4764Z" stroke="#1C1C1C" stroke-width="2.5" stroke-miterlimit="10"/>
</svg>
