<svg width="73" height="45" viewBox="0 0 73 45" fill="none" xmlns="http://www.w3.org/2000/svg">
<path d="M23.7934 15.5198C19.6626 15.211 12.8514 16.8446 11.8445 13.4868C10.8376 10.129 12.301 6.35009 16.2252 5.2726C21.3496 3.86561 29.9163 9.59413 32.2159 10.8552C33.3743 11.4904 31.8493 15.3699 30.7782 15.7496C29.7071 16.1294 28.2865 15.8556 23.7934 15.5198Z" stroke="#CBCBCB" stroke-width="1.5"/>
<path d="M33.2917 19.7065C33.6524 20.3168 34.4435 20.8228 35.4158 20.8322C36.3861 20.8416 37.4235 19.8439 37.0215 18.6698C36.5876 17.4026 36.5827 16.3208 37.469 15.8462C38.3552 15.3715 39.8009 15.5436 40.9634 15.7498" stroke="#CBCBCB" stroke-width="1.5"/>
<path d="M50.1976 30.8887C50.0735 31.4618 49.6966 32.5417 49.1125 32.7311C48.5284 32.9205 47.1443 32.6146 46.6784 33.5853C46.2124 34.5559 46.6262 35.6543 46.6494 36.608" stroke="#CBCBCB" stroke-width="1.5"/>
<path d="M14.6445 1.12744L72.1112 33.0165" stroke="#CBCBCB" stroke-width="1.5" stroke-linecap="round"/>
<path d="M50.7059 35.7053C51.815 34.7408 54.3365 32.8733 55.6935 31.6902C57.0504 30.5071 59.3278 28.2363 60.3286 27.3141" stroke="#CBCBCB" stroke-width="1.5"/>
<path d="M55.2043 32.0757C55.3518 32.4347 55.802 33.1606 56.4228 33.1926C57.1987 33.2326 58.9207 32.4366 60.0272 31.7321C61.1338 31.0277 61.5294 30.2514 62.7239 30.4904C63.9185 30.7295 64.9479 31.3245 65.4707 30.7769C65.8889 30.3389 66.1697 29.841 66.2578 29.6468" stroke="#CBCBCB" stroke-width="1.5"/>
<path d="M11.7156 13.303C11.3497 11.9584 11.0165 6.98428 15.9017 5.39579C20.7869 3.80729 27.7483 8.39677 28.6346 8.87115C31.9844 10.668 34.2999 12.0525 36.3093 13.18C41.8911 16.283 51.2672 21.6458 53.1236 22.6307C54.98 23.6155 56.6581 24.9022 57.1835 22.0416C57.6349 19.5827 58.36 18.2381 60.962 18.6195C63.564 19.0009 64.7034 21.1965 64.3291 22.9928C63.9549 24.789 62.5576 26.6635 59.6909 27.5712C56.8242 28.4789 51.5784 26.5048 48.3135 24.6383C45.0486 22.7717 42.6204 21.4354 41.9367 21.0477C41.5685 20.8162 41.1253 20.7374 40.7005 20.8281C40.2757 20.9188 39.9025 21.1719 39.6594 21.5339C39.048 22.3891 39.3151 23.0552 40.2917 24.3633C41.2682 25.6714 43.1282 28.4773 43.6271 29.1174C43.9566 29.5572 44.426 29.87 44.9571 30.0036C45.4882 30.1372 46.0487 30.0834 46.5451 29.8513C47.0358 29.7216 47.5475 29.6936 48.0493 29.769C48.551 29.8444 49.0324 30.0215 49.464 30.2896C49.8957 30.5578 50.2687 30.9114 50.5604 31.329C50.8522 31.7466 51.0566 32.2196 51.1612 32.7191C51.8381 35.2877 50.14 37.1321 47.6634 36.8709C45.1868 36.6096 43.0832 33.558 40.7653 30.6115C38.4474 27.6651 33.2939 19.6868 32.6508 18.7278C32.0076 17.7687 31.0851 15.9459 28.5397 15.8649C25.9942 15.7839 23.5307 15.2026 22.3386 15.8969C21.8163 16.1949 21.3749 16.6177 21.0532 17.1278C20.7315 17.638 20.5394 18.2199 20.4939 18.8223C20.4679 19.4815 20.626 20.1348 20.9503 20.708C21.2747 21.2813 21.7522 21.7516 22.3287 22.0656C23.9334 22.9704 27.8467 25.2385 29.0814 25.9633C30.316 26.6881 30.3597 26.5121 31.6544 28.2961C32.949 30.0802 37.3008 36.3757 38.2489 37.7259C39.1969 39.0761 40.0167 39.9027 39.7062 40.8385C39.3958 41.6387 38.9549 42.3811 38.4015 43.0351C38.1461 43.3362 37.5378 43.8667 36.6851 42.8139C35.8324 41.7611 27.2452 32.3897 26.1001 31.1082C24.955 29.8267 21.7384 28.0453 18.1567 30.6999C14.575 33.3546 7.12833 38.9435 6.01226 39.7585C4.89618 40.5736 3.65292 41.4862 2.16844 40.4837C0.683961 39.4813 1.13124 38.1869 1.6034 36.4904C2.07557 34.794 4.61419 25.3252 4.87547 24.4101C4.99391 23.7953 5.25166 23.2163 5.62869 22.718C6.00573 22.2197 6.49188 21.8157 7.04936 21.5372C8.69983 20.5862 11.1781 19.6219 11.9391 17.0671C12.2181 15.8162 12.1407 14.5115 11.7156 13.303Z" stroke="#CBCBCB" stroke-width="1.5" stroke-miterlimit="10"/>
<path d="M15.795 5.17195C10.789 7.08276 11.3082 11.8773 11.6868 13.2384C12.1232 14.4608 12.2131 15.7843 11.9462 17.0566C11.2101 19.6571 8.74234 20.66 7.10187 21.6415C6.54736 21.9295 6.06533 22.3444 5.69327 22.8538C5.32121 23.3632 5.06913 23.9534 4.95663 24.5786C4.70425 25.5099 2.25756 35.1452 1.80187 36.8717C1.34619 38.5982 0.91153 39.9163 2.40478 40.9192C3.89471 41.9199 5.12639 40.9879 6.23216 40.1511L6.23957 40.1455C7.34724 39.3074 14.7364 33.562 18.2907 30.8326C21.8451 28.1032 25.077 29.8798 26.2337 31.1693C27.3905 32.4588 36.0626 41.8863 36.9249 42.9465C37.7872 44.0068 38.3901 43.4623 38.6425 43.1543C39.1893 42.4851 39.6229 41.7272 39.9254 40.912C40.2268 39.9592 39.3996 39.1283 38.4392 37.7672C37.4787 36.406 33.069 30.0589 31.7581 28.2608C30.4471 26.4627 30.405 26.6418 29.1642 25.9182C27.9233 25.1947 23.9903 22.9309 22.3779 22.0283C21.7987 21.7153 21.317 21.2426 20.9873 20.6639C20.6577 20.0852 20.4934 19.4237 20.5131 18.7545C20.5529 18.1426 20.7393 17.5501 21.0559 17.0291C21.3725 16.5082 21.8097 16.0748 22.3288 15.7672C23.5136 15.0508 25.9814 15.6167 28.5262 15.674C29.4086 15.7108 31.2905 15.5297 31.7581 14.5113L31.7651 14.496C32.3498 13.2227 33.2444 11.2745 31.7581 10.3873C30.2658 9.49657 20.801 3.26114 15.795 5.17195Z" stroke="#1C1C1C" stroke-width="2.5" stroke-miterlimit="10"/>
</svg>
