<svg width="74" height="45" viewBox="0 0 74 45" fill="none" xmlns="http://www.w3.org/2000/svg">
<path d="M23.8692 15.5972C19.7048 15.2867 12.8381 16.9294 11.823 13.5528C10.8079 10.1763 12.2833 6.37625 16.2395 5.29274C21.4055 3.87788 30.0419 9.63842 32.3603 10.9065C33.5281 11.5453 31.9906 15.4465 30.9108 15.8283C29.831 16.2102 28.3988 15.9349 23.8692 15.5972Z" stroke="#CBCBCB" stroke-width="1.5"/>
<path d="M33.4417 19.8092C33.8054 20.4229 34.6029 20.9318 35.5831 20.9412C36.5614 20.9506 37.6071 19.9473 37.2019 18.7667C36.7645 17.4924 36.7596 16.4046 37.6531 15.9273C38.5465 15.45 40.0039 15.623 41.1759 15.8304" stroke="#CBCBCB" stroke-width="1.5"/>
<path d="M50.4875 31.0525C50.3624 31.6288 49.9824 32.7147 49.3936 32.9051C48.8048 33.0956 47.4094 32.788 46.9396 33.7641C46.4699 34.7402 46.8871 35.8447 46.9105 36.8037" stroke="#CBCBCB" stroke-width="1.5"/>
<path d="M14.6445 1.12744L72.5787 33.1947" stroke="#CBCBCB" stroke-width="1.5" stroke-linecap="round"/>
<path d="M50.9963 35.8953C52.1144 34.9254 54.6564 33.0475 56.0244 31.8577C57.3924 30.668 59.6883 28.3846 60.6972 27.4572" stroke="#CBCBCB" stroke-width="1.5"/>
<path d="M55.5322 32.2456C55.6809 32.6066 56.1348 33.3366 56.7606 33.3688C57.5429 33.409 59.2789 32.6085 60.3944 31.9001C61.51 31.1917 61.9088 30.4111 63.113 30.6515C64.3173 30.8919 65.3551 31.4902 65.8821 30.9396C66.3038 30.4991 66.5868 29.9985 66.6757 29.8032" stroke="#CBCBCB" stroke-width="1.5"/>
<path d="M11.6934 13.368C11.3245 12.0159 10.9886 7.01399 15.9136 5.41661C20.8385 3.81924 27.8566 8.43437 28.7501 8.9114C32.1271 10.7183 34.4615 12.1106 36.4872 13.2444C42.1145 16.3646 51.5668 21.7575 53.4383 22.7478C55.3099 23.7382 57.0017 25.032 57.5313 22.1555C57.9864 19.6828 58.7173 18.3307 61.3405 18.7143C63.9637 19.0978 65.1123 21.3056 64.7351 23.1119C64.3578 24.9182 62.9491 26.8032 60.0591 27.716C57.1691 28.6287 51.8806 26.6437 48.5892 24.7666C45.2977 22.8896 42.8497 21.5459 42.1605 21.156C41.7892 20.9232 41.3424 20.844 40.9142 20.9352C40.486 21.0264 40.1097 21.2809 39.8646 21.645C39.2482 22.5049 39.5176 23.1747 40.502 24.4901C41.4865 25.8056 43.3617 28.6272 43.8646 29.2708C44.1968 29.7131 44.67 30.0277 45.2054 30.162C45.7408 30.2963 46.3059 30.2423 46.8064 30.0088C47.301 29.8785 47.8169 29.8503 48.3228 29.9261C48.8286 30.0018 49.3138 30.1799 49.749 30.4496C50.1842 30.7193 50.5602 31.0749 50.8544 31.4948C51.1485 31.9148 51.3545 32.3903 51.46 32.8926C52.1424 35.4756 50.4305 37.3303 47.9337 37.0676C45.437 36.8049 43.3163 33.7362 40.9795 30.7733C38.6428 27.8104 33.4474 19.7876 32.799 18.8231C32.1506 17.8587 31.2206 16.0257 28.6544 15.9442C26.0882 15.8628 23.6047 15.2782 22.4029 15.9764C21.8764 16.2761 21.4313 16.7012 21.107 17.2142C20.7827 17.7273 20.5891 18.3124 20.5432 18.9182C20.517 19.5811 20.6764 20.238 21.0033 20.8145C21.3303 21.3909 21.8117 21.8639 22.3929 22.1796C24.0106 23.0895 27.9559 25.3703 29.2005 26.0991C30.4452 26.8279 30.4893 26.6509 31.7945 28.445C33.0996 30.239 37.4869 36.5697 38.4426 37.9275C39.3984 39.2852 40.2249 40.1164 39.9118 41.0574C39.5989 41.8621 39.1544 42.6087 38.5965 43.2663C38.339 43.5691 37.7258 44.1026 36.8661 43.0439C36.0065 41.9852 27.3494 32.5614 26.195 31.2728C25.0406 29.9841 21.7978 28.1927 18.187 30.8622C14.5761 33.5317 7.06886 39.1518 5.94371 39.9714C4.81855 40.791 3.56517 41.7088 2.06861 40.7007C0.572057 39.6926 1.02297 38.391 1.49898 36.6851C1.97499 34.9791 4.53427 25.4574 4.79767 24.5372C4.91707 23.919 5.17692 23.3367 5.55702 22.8357C5.93713 22.3346 6.42724 21.9283 6.98925 21.6483C8.65315 20.6919 11.1516 19.7222 11.9188 17.1532C12.2001 15.8953 12.122 14.5833 11.6934 13.368Z" stroke="#CBCBCB" stroke-width="1.5" stroke-miterlimit="10"/>
<path d="M53.5616 22.4824C51.6428 21.4605 45.2487 17.8179 42.9876 16.5488C40.7265 15.2798 39.9258 15.0107 38.4476 15.1783C36.4656 15.4031 36.4475 16.5822 36.7908 18.2556C37.1342 19.929 36.3214 20.4504 35.5485 20.5497C34.9303 20.6291 33.4542 20.0823 33.8354 20.7366C34.2167 21.3909 38.2823 27.6312 40.6683 30.6689C43.0543 33.7066 43.5279 34.5397 45.174 35.8994C46.8201 37.2591 46.7633 36.0238 46.5892 34.8535C46.4152 33.6831 47.1392 32.8267 48.404 33.0129C49.6689 33.1991 50.5983 31.7119 50.2456 31.0059C49.8929 30.2999 49.2227 29.9117 47.7147 29.8398C46.2066 29.7679 45.4215 30.6722 44.0972 29.544C42.773 28.4159 41.0471 25.6273 39.8256 23.7736C38.6041 21.92 39.8364 20.6781 40.6449 20.6276C41.4535 20.5772 40.6073 19.9488 48.3068 24.4371C56.0063 28.9254 58.9809 27.5369 59.784 27.8822C60.5872 28.2276 56.6196 31.2976 55.9993 31.9614C55.379 32.6251 56.1806 33.2639 57.0508 33.3787C57.921 33.4935 60.1864 32.2854 61.7123 31.1813C63.2383 30.0772 64.3645 30.9979 65.3669 31.2372C66.3694 31.4765 67.464 30.0685 66.3995 29.5005C65.335 28.9325 61.4684 27.387 62.5532 26.6234C63.638 25.8599 64.9204 24.8914 65.1401 22.9902C65.3598 21.0891 64.3698 18.8889 61.6746 18.4819C58.9793 18.075 58.22 19.4505 57.7379 21.9715C57.1768 24.9041 55.4805 23.5042 53.5616 22.4824Z" stroke="#1C1C1C" stroke-width="2.5" stroke-miterlimit="10"/>
</svg>
