<svg width="85" height="27" viewBox="0 0 85 27" fill="none" xmlns="http://www.w3.org/2000/svg">
<path fill-rule="evenodd" clip-rule="evenodd" d="M22.4422 15.9264C24.3787 14.7603 24.3787 11.9527 22.4422 10.7865L5.25276 0.434687C3.25327 -0.769441 0.705078 0.670588 0.705078 3.00465V23.7083C0.705078 26.0423 3.25327 27.4824 5.25275 26.2782L22.4422 15.9264ZM21.4105 12.4998C22.0559 12.8885 22.0559 13.8244 21.4105 14.2131L4.22097 24.5649C3.55447 24.9663 2.70508 24.4863 2.70508 23.7083L2.70508 3.00465C2.70508 2.22663 3.55448 1.74662 4.22097 2.14799L21.4105 12.4998ZM36.2037 1.324V10.3234H42.9147V8.1686H38.735V1.324H36.2037ZM44.4459 1.324V10.3234H46.9772V1.324H44.4459ZM50.9932 1.324L52.7975 7.21796L54.5759 1.324H57.2369L53.8489 10.3234H51.7461L48.3192 1.324H50.9932ZM65.1535 10.3234V8.1686H61.1165V6.74898H64.4655V4.7463H61.1165V3.47879H65.0367V1.324H58.5853V10.3234H65.1535ZM43.382 18.9707H40.734V25.8153H38.2027V18.9707H35.5417V16.8159H43.382V18.9707ZM44.953 16.8159V25.8153H47.4842V16.8159H44.953ZM56.6925 25.8153V21.0748L55.1478 24.4083H53.7978L52.2531 21.0748V25.8153H49.7219V16.8159H52.4868L54.4728 21.0494L56.4718 16.8159H59.2237V25.8153H56.6925ZM61.4501 16.8159V25.8153H63.9814V16.8159H61.4501ZM68.7503 21.3916V25.8153H66.219V16.8159H68.1921L71.8916 21.3916V16.8159H74.4228V25.8153H72.4108L68.7503 21.3916ZM80.6393 25.8786C81.4961 25.8786 82.2533 25.6082 82.911 25.0674V25.8153H85.0009V21.024H81.2105V22.7986H82.8071C82.2446 23.3901 81.5956 23.6858 80.86 23.6858C80.5398 23.6858 80.2499 23.6309 79.9903 23.5211C79.7307 23.4028 79.5057 23.2422 79.3153 23.0394C79.1336 22.8282 78.9908 22.5789 78.8869 22.2916C78.7831 22.0043 78.7312 21.6832 78.7312 21.3283C78.7312 20.9818 78.7831 20.6649 78.8869 20.3776C78.9908 20.0819 79.1336 19.8284 79.3153 19.6171C79.497 19.4059 79.7134 19.2411 79.9643 19.1228C80.2153 19.0045 80.4922 18.9453 80.7951 18.9453C81.2018 18.9453 81.5869 19.0552 81.9504 19.2749C82.3139 19.4861 82.5864 19.7692 82.7682 20.1241L84.6504 18.7172C84.486 18.413 84.2739 18.1426 84.0143 17.906C83.7547 17.6609 83.4605 17.4539 83.1316 17.2849C82.8114 17.1074 82.461 16.9764 82.0802 16.8919C81.6994 16.799 81.3014 16.7525 80.886 16.7525C80.2196 16.7525 79.5966 16.8708 79.0168 17.1074C78.4456 17.3356 77.948 17.6525 77.524 18.0581C77.0999 18.4552 76.7668 18.9284 76.5245 19.4777C76.2822 20.0185 76.161 20.6058 76.161 21.2395C76.161 21.9747 76.2822 22.6296 76.5245 23.2042C76.7668 23.7788 77.0913 24.2647 77.498 24.6618C77.9047 25.059 78.3807 25.3632 78.9259 25.5744C79.4711 25.7772 80.0422 25.8786 80.6393 25.8786Z" fill="#1C1C1C"/>
</svg>
