<svg width="76" height="47" viewBox="0 0 76 47" fill="none" xmlns="http://www.w3.org/2000/svg">
<path d="M25.1192 16.3934C20.9157 16.0792 13.9847 17.7415 12.9601 14.3246C11.9355 10.9078 13.4247 7.06248 17.4179 5.96605C22.6323 4.53432 31.3497 10.3636 33.6897 11.6468C34.8685 12.2932 33.3166 16.2409 32.2267 16.6273C31.1368 17.0137 29.6912 16.7351 25.1192 16.3934Z" stroke="#CBCBCB" stroke-width="1.5"/>
<path d="M34.787 20.6538C35.1541 21.2747 35.9591 21.7897 36.9485 21.7992C37.9359 21.8087 38.9915 20.7935 38.5824 19.5988C38.1409 18.3093 38.136 17.2085 39.0378 16.7255C39.9396 16.2425 41.4107 16.4176 42.5937 16.6275" stroke="#CBCBCB" stroke-width="1.5"/>
<path d="M51.9912 32.0334C51.8649 32.6165 51.4814 33.7154 50.887 33.9081C50.2927 34.1009 48.8843 33.7896 48.4101 34.7773C47.9359 35.7651 48.3571 36.8827 48.3807 37.8532" stroke="#CBCBCB" stroke-width="1.5"/>
<path d="M15.8086 1.74805L74.2855 34.1977" stroke="#CBCBCB" stroke-width="1.5" stroke-linecap="round"/>
<path d="M52.5033 36.934C53.6319 35.9526 56.1977 34.0522 57.5785 32.8483C58.9593 31.6444 61.2768 29.3337 62.2952 28.3953" stroke="#CBCBCB" stroke-width="1.5"/>
<path d="M57.0827 33.2404C57.2329 33.6057 57.691 34.3444 58.3227 34.3769C59.1122 34.4176 60.8645 33.6076 61.9905 32.8908C63.1165 32.1739 63.5191 31.384 64.7346 31.6272C65.9502 31.8705 66.9977 32.476 67.5296 31.9188C67.9552 31.473 68.241 30.9664 68.3306 30.7688" stroke="#CBCBCB" stroke-width="1.5"/>
<path d="M12.8312 14.1406C12.4588 12.7724 12.1197 7.71083 17.0908 6.09441C22.0619 4.47799 29.1458 9.14815 30.0477 9.63087C33.4563 11.4593 35.8125 12.8682 37.8572 14.0155C43.5372 17.173 53.0781 22.6301 54.9671 23.6323C56.8562 24.6345 58.5638 25.9437 59.0985 23.0329C59.5578 20.5307 60.2956 19.1625 62.9433 19.5506C65.5911 19.9387 66.7505 22.1729 66.3697 24.0007C65.9889 25.8286 64.567 27.736 61.6499 28.6597C58.7328 29.5833 53.3948 27.5746 50.0725 25.6752C46.7502 23.7758 44.2793 22.416 43.5836 22.0215C43.2089 21.7859 42.7579 21.7058 42.3257 21.7981C41.8934 21.8904 41.5136 22.1478 41.2662 22.5163C40.6441 23.3865 40.916 24.0643 41.9096 25.3954C42.9033 26.7265 44.7961 29.5817 45.3037 30.233C45.639 30.6806 46.1167 30.9989 46.6571 31.1349C47.1975 31.2708 47.7679 31.2161 48.273 30.9799C48.7723 30.8479 49.2931 30.8194 49.8036 30.8961C50.3142 30.9728 50.804 31.153 51.2432 31.4259C51.6825 31.6988 52.0621 32.0586 52.3589 32.4836C52.6558 32.9085 52.8638 33.3898 52.9703 33.898C53.659 36.5118 51.9311 38.3887 49.411 38.1228C46.8908 37.857 44.7502 34.7517 42.3916 31.7535C40.033 28.7553 34.7889 20.6367 34.1344 19.6608C33.4799 18.6849 32.5412 16.83 29.951 16.7476C27.3608 16.6651 24.854 16.0736 23.641 16.7801C23.1095 17.0834 22.6603 17.5136 22.3329 18.0327C22.0056 18.5518 21.8101 19.144 21.7638 19.757C21.7374 20.4278 21.8983 21.0925 22.2283 21.6759C22.5583 22.2592 23.0442 22.7378 23.6309 23.0573C25.2637 23.978 29.2459 26.286 30.5022 27.0235C31.7586 27.761 31.8031 27.5819 33.1205 29.3974C34.4379 31.2128 38.8662 37.619 39.8309 38.9929C40.7957 40.3669 41.6299 41.208 41.3138 42.1602C40.9981 42.9745 40.5494 43.7299 39.9862 44.3955C39.7264 44.7018 39.1074 45.2417 38.2397 44.1704C37.372 43.099 28.6338 33.5629 27.4686 32.2589C26.3033 30.9548 23.0302 29.1421 19.3855 31.8434C15.7408 34.5447 8.16327 40.2319 7.02758 41.0613C5.89188 41.8906 4.62676 42.8193 3.11618 41.7992C1.60561 40.7791 2.06075 39.462 2.54122 37.7357C3.02168 36.0094 5.60493 26.3741 5.8708 25.443C5.99132 24.8174 6.25361 24.2282 6.63727 23.7212C7.02093 23.2141 7.51564 22.803 8.08291 22.5196C9.7624 21.5518 12.2843 20.5706 13.0586 17.9709C13.3426 16.698 13.2637 15.3704 12.8312 14.1406Z" stroke="#CBCBCB" stroke-width="1.5" stroke-miterlimit="10"/>
<path d="M16.966 5.86605C11.9283 7.55536 12.3222 12.6895 12.714 14.0746C13.1657 15.3186 13.2587 16.6654 12.9825 17.9602C12.2206 20.6065 9.66645 21.6271 7.96853 22.6259C7.39461 22.919 6.89571 23.3412 6.51062 23.8596C6.12552 24.378 5.86462 24.9786 5.74819 25.6148C5.48697 26.5625 2.95461 36.3676 2.48297 38.1245C2.01133 39.8814 1.56146 41.2227 3.10699 42.2433C4.64908 43.2617 5.92389 42.3132 7.06837 41.4618L7.07604 41.4561C8.2225 40.6031 15.8704 34.7565 19.5492 31.979C23.228 29.2015 26.573 31.0094 27.7703 32.3216C28.9675 33.6338 37.9432 43.2275 38.8357 44.3064C39.7282 45.3854 40.3522 44.8313 40.6134 44.5178C41.1794 43.8368 41.6282 43.0656 41.9413 42.236C42.2533 41.2665 41.3971 40.4209 40.403 39.0358C39.4089 37.6506 34.8449 31.1916 33.488 29.3618C32.1311 27.532 32.0876 27.7143 30.8033 26.978C29.519 26.2417 25.4483 23.9381 23.7794 23.0195C23.1799 22.7009 22.6813 22.2199 22.3402 21.631C21.999 21.0422 21.829 20.369 21.8493 19.688C21.8905 19.0653 22.0834 18.4623 22.4111 17.9322C22.7389 17.4021 23.1913 16.9611 23.7286 16.648C24.9549 15.919 27.509 16.4949 30.143 16.5532C32.7769 16.6116 33.7492 18.4851 34.424 19.4693C35.0989 20.4534 40.5088 28.6425 42.9357 31.6626C45.3626 34.6827 47.4106 37.8337 50.054 38.0654C52.6974 38.2971 54.1026 36.2606 58.0512 32.7945C61.9999 29.3283 64.0743 27.5707 61.3639 26.2477C58.6535 24.9247 55.6407 23.2965 55.6407 23.2965C53.7106 22.2978 43.9585 16.8521 38.1536 13.7028C36.0639 12.5583 33.6549 11.1513 30.172 9.32881C29.2505 8.84767 22.0038 4.17674 16.966 5.86605Z" stroke="#1C1C1C" stroke-width="2.5" stroke-miterlimit="10"/>
</svg>
