<svg width="81" height="47" viewBox="0 0 81 47" fill="none" xmlns="http://www.w3.org/2000/svg">
<path d="M16.8729 26.3655C13.9485 26.1829 9.14457 27.3907 8.40417 25.0348C7.66376 22.6789 8.66712 20.0057 11.4337 19.2138C15.0464 18.1799 21.1539 22.1413 22.7911 23.0099C23.6158 23.4474 22.5697 26.192 21.8153 26.4684C21.0609 26.7449 20.0537 26.5641 16.8729 26.3655Z" stroke="#CBCBCB" stroke-width="1.5"/>
<path d="M23.6299 29.2338C23.8902 29.6605 24.454 30.0102 25.1418 30.0086C25.8282 30.007 26.5536 29.2957 26.2594 28.4724C25.9419 27.5837 25.9293 26.8221 26.5522 26.4803C27.1751 26.1386 28.199 26.2476 29.023 26.383" stroke="#CBCBCB" stroke-width="1.5"/>
<path d="M35.6823 36.9651C35.5993 37.3697 35.3418 38.1332 34.9303 38.2715C34.5188 38.4098 33.5372 38.2061 33.2158 38.8935C32.8943 39.5809 33.1963 40.3508 33.2207 41.0222" stroke="#CBCBCB" stroke-width="1.5"/>
<path d="M10.2832 16.3096L51.1981 38.2793" stroke="#CBCBCB" stroke-width="1.5" stroke-linecap="round"/>
<path d="M36.0783 40.3519C36.8546 39.6635 38.6225 38.3272 39.5723 37.4827C40.5222 36.6381 42.1139 35.02 42.814 34.3622" stroke="#CBCBCB" stroke-width="1.5"/>
<path d="M39.2307 37.758C39.3381 38.0095 39.6626 38.5169 40.102 38.5342C40.6511 38.5558 41.8624 37.9807 42.6392 37.4754C43.4159 36.97 43.6892 36.42 44.5362 36.5783C45.3831 36.7365 46.1162 37.1468 46.4814 36.7569C46.7735 36.4449 46.9679 36.092 47.0286 35.9545" stroke="#CBCBCB" stroke-width="1.5"/>
<path d="M4.51758 13.2129C9.6032 15.902 50.2776 37.755 51.3352 38.3705" stroke="#CBCBCB" stroke-width="1.5" stroke-miterlimit="10" stroke-linecap="round"/>
<path d="M8.31415 24.9068C8.04404 23.9631 7.76657 20.4635 11.2086 19.3037C14.6506 18.144 19.6131 21.3169 20.244 21.6435C22.6284 22.8805 24.2779 23.8359 25.7086 24.6128C29.6828 26.7507 36.3596 30.4478 37.681 31.1256C39.0023 31.8034 40.2001 32.6953 40.5477 30.6766C40.8463 28.9413 41.3478 27.9885 43.1915 28.2351C45.0351 28.4817 45.8595 30.0181 45.6099 31.286C45.3603 32.554 44.3877 33.8857 42.3676 34.5491C40.3476 35.2124 36.6206 33.8666 34.2956 32.5798C31.9706 31.293 30.2419 30.3726 29.7551 30.1053C29.4926 29.9454 29.1785 29.8937 28.8788 29.9612C28.5791 30.0286 28.3173 30.2099 28.1484 30.4669C27.7231 31.0743 27.9177 31.541 28.6194 32.4539C29.321 33.3667 30.6602 35.3268 31.0185 35.7733C31.2552 36.0802 31.5899 36.2965 31.9667 36.3861C32.3434 36.4757 32.7394 36.4331 33.0886 36.2655C33.4346 36.17 33.7963 36.146 34.1518 36.1948C34.5074 36.2437 34.8493 36.3643 35.1569 36.5495C35.4644 36.7347 35.7313 36.9805 35.9411 37.2721C36.151 37.5637 36.2995 37.895 36.3777 38.2459C36.8781 40.0488 35.6925 41.3619 33.9386 41.1988C32.1846 41.0357 30.6711 38.9047 29.0069 36.8495C27.3426 34.7944 23.6305 29.22 23.1675 28.5501C22.7045 27.8802 22.0367 26.6045 20.2356 26.5689C18.4345 26.5333 16.6871 26.1448 15.8498 26.6437C15.4829 26.858 15.1742 27.1594 14.9509 27.5213C14.7277 27.8833 14.5967 28.2947 14.5696 28.7192C14.5567 29.1836 14.6741 29.6423 14.9083 30.0432C15.1425 30.4441 15.4842 30.7713 15.8946 30.9875C17.0372 31.6111 19.8242 33.1751 20.7036 33.6751C21.5829 34.175 21.6124 34.0507 22.5431 35.296C23.4738 36.5413 26.6048 40.9376 27.2867 41.8803C27.9687 42.8231 28.5554 43.3982 28.3436 44.0597C28.1309 44.6258 27.8252 45.1523 27.4393 45.6175C27.2612 45.8316 26.8354 46.2103 26.2234 45.4762C25.6114 44.742 19.4589 38.2157 18.6381 37.323C17.8174 36.4303 15.5273 35.203 13.0162 37.1025C10.5051 39.002 5.28497 43.0002 4.5024 43.5835C3.71983 44.1668 2.84812 44.8199 1.78971 44.1266C0.731295 43.4332 1.03678 42.518 1.3565 41.3195C1.67622 40.1209 3.39226 33.4321 3.56938 32.7856C3.64799 32.3517 3.82543 31.9418 4.08793 31.5877C4.35043 31.2337 4.69089 30.9451 5.08287 30.7443C6.24228 30.0607 7.98711 29.3608 8.50388 27.5555C8.69074 26.6723 8.62498 25.7542 8.31415 24.9068Z" stroke="#CBCBCB" stroke-width="1.5" stroke-miterlimit="10"/>
<path d="M40.0262 24.2386C40.6954 24.4378 41.3539 24.8098 41.5995 24.9709C42.1687 25.2935 42.5867 25.253 43.0876 24.9675C43.5885 24.682 43.7726 24.7317 45.2774 24.7616C46.7823 24.7916 47.2664 24.4726 48.7188 23.5159C50.1712 22.5591 51.3904 21.9875 52.1254 21.7015C52.8604 21.4154 52.8258 20.897 52.2734 20.6474C51.7211 20.3978 50.5666 20.0325 48.5589 19.4517C46.9527 18.9871 45.5938 19.4141 45.1318 19.6772C43.2002 20.663 39.2835 22.6614 39.0697 22.7689C38.8025 22.9034 38.201 23.072 38.2688 23.4733C38.3366 23.8746 39.1896 23.9897 40.0262 24.2386Z" stroke="#1C1C1C" stroke-width="2.5"/>
<path d="M46.8911 19.2531C46.6965 18.4841 46.6235 17.8576 47.1169 17.2142C47.7337 16.4099 48.9872 16.2062 49.4886 16.1214C49.99 16.0366 51.4775 15.799 52.2278 14.894C52.9781 13.9891 53.8776 12.5485 54.0108 12.314C54.144 12.0795 54.777 11.041 56.6315 10.468C58.4861 9.89501 59.8421 10.6445 60.5619 10.9941C61.2817 11.3437 62.42 11.9264 63.5057 11.4556C64.5913 10.9847 65.6925 9.97856 65.94 8.55625C66.1875 7.13393 66.2027 6.48157 66.5701 6.31345C66.9376 6.14533 68.3248 5.92466 68.7922 5.57232C69.2595 5.21998 70.6283 4.28011 71.5961 3.42481C72.5639 2.56952 72.6304 2.43555 72.9817 2.48491C73.3329 2.53427 73.9346 2.44925 74.252 2.34815C74.5695 2.24706 75.9565 1.92603 76.2911 2.0256C76.6257 2.12518 77.5306 2.97611 77.8189 4.7317C78.1072 6.48729 77.7075 7.15727 78.1149 9.79908C78.5223 12.4409 78.8521 17.6755 78.9206 18.3778C78.9891 19.0801 79.1432 20.6186 78.0255 21.7252C76.9079 22.8317 74.8359 23.3885 74.085 24.0091C73.334 24.6297 71.2152 26.5917 68.7628 28.9391C66.3104 31.2864 65.4259 31.991 63.839 32.6136C62.2521 33.2362 60.6302 33.2232 60.1749 31.5684C59.7197 29.9135 60.4025 28.7745 59.4615 26.7194C58.5204 24.6643 56.4082 22.3108 56.1234 22.0438C55.8385 21.7769 55.2522 21.3099 54.8007 21.2775C54.3492 21.2451 52.9535 21.2402 52.4508 20.7395" stroke="#1C1C1C" stroke-width="2.5"/>
</svg>
