<svg width="45" height="46" viewBox="0 0 45 46" fill="none" xmlns="http://www.w3.org/2000/svg">
<path fill-rule="evenodd" clip-rule="evenodd" d="M20.0209 2.69958C19.0643 2.14729 17.8411 2.47504 17.2888 3.43163L14.5264 8.21636C14.1005 8.954 14.1979 9.85017 14.7034 10.475L13.7559 12.1161C13.2036 13.0727 13.5314 14.2958 14.488 14.8481L19.8184 17.9256L18.2022 20.725L17.7097 21.578C17.6113 21.6198 17.515 21.6656 17.421 21.7154L17.4211 21.7044L16.4211 21.7111L12.8871 21.7347L12.9037 19.2287C12.9147 17.5719 11.5805 16.2378 9.92365 16.2488L9.59174 16.2511C7.93492 16.2621 6.58289 17.6142 6.5719 19.271L6.48827 31.8767C6.47728 33.5335 7.81148 34.8676 9.46829 34.8565L9.80021 34.8543C11.457 34.8432 12.8091 33.4911 12.82 31.8343L12.8428 28.4014L16.3769 28.3777L17.3768 28.3711L17.3769 28.3554C17.8884 28.6212 18.4715 28.7697 19.0921 28.7655C21.1541 28.7517 22.8238 27.0582 22.8375 24.999C22.8385 24.8442 22.8302 24.6916 22.8129 24.5417L23.0999 24.7074L23.5999 23.8413L25.2161 21.042L32.7506 25.3921C33.4789 25.8125 34.3617 25.7229 34.9853 25.2341L36.7101 26.2299C37.6667 26.7822 38.8899 26.4544 39.4422 25.4979L40.9505 22.8854C41.5028 21.9288 41.175 20.7056 40.2184 20.1533L39.5077 19.743L41.6027 18.8748C43.1345 18.24 43.273 16.1242 41.837 15.2951L20.0209 2.69958ZM21.5504 18.9256L23.4841 20.042L22.3679 21.9753L20.4342 20.8589L21.5504 18.9256ZM26.2161 19.31L33.7506 23.66L33.8777 23.4399L34.9262 21.6237C34.4162 21.7616 33.8681 21.6927 33.4045 21.425L16.3692 11.5897L15.488 13.1161L20.8184 16.1936L20.8186 16.1932L21.6846 16.6932L25.3503 18.8096L26.2163 19.3096L26.2161 19.31ZM36.1097 23.5739L37.618 20.9614L39.2184 21.8854L37.7101 24.4979L36.1097 23.5739ZM19.0209 4.43163L40.837 17.0272L36.8692 18.6716L34.4045 19.693L16.5032 9.35769L16.2584 9.21636L19.0209 4.43163ZM17.3996 24.9363L17.3983 25.1345C17.443 26.0563 18.1946 26.7717 19.1053 26.7656C20.0484 26.7593 20.8311 25.9816 20.8375 25.0124C20.844 24.0433 20.0715 23.276 19.1284 23.2823C18.2178 23.2883 17.4566 24.0138 17.3996 24.9363ZM15.4078 23.7177L15.4 24.9044C15.3978 24.9523 15.3966 25.0005 15.3963 25.0488C15.396 25.0971 15.3966 25.1452 15.398 25.1931L15.3901 26.3845L12.8561 26.4014L12.8738 23.7347L15.4078 23.7177ZM10.9037 19.2421L10.8871 21.7481L10.8867 21.7481L10.8801 22.7481L10.8491 27.4148L10.8425 28.4147L10.8429 28.4147L10.8201 31.8477C10.8164 32.4 10.3658 32.8507 9.81348 32.8544L9.48156 32.8566C8.92929 32.8603 8.48456 32.4156 8.48822 31.8633L8.57186 19.2577C8.57552 18.7054 9.0262 18.2547 9.57847 18.251L9.91038 18.2488C10.4627 18.2451 10.9074 18.6898 10.9037 19.2421Z" fill="#1C1C1C"/>
</svg>
