<svg width="72" height="44" viewBox="0 0 72 44" fill="none" xmlns="http://www.w3.org/2000/svg">
<path d="M32.4856 19.7781C32.8409 20.3775 33.6199 20.8745 34.5773 20.8837C35.5328 20.8929 36.5543 19.913 36.1585 18.7598C35.7312 17.515 35.7264 16.4525 36.5992 15.9863C37.4719 15.52 38.8954 15.689 40.0402 15.8916" stroke="#CBCBCB" stroke-width="1.5"/>
<path d="M49.1332 30.7597C49.011 31.3226 48.6398 32.3833 48.0647 32.5693C47.4896 32.7553 46.1266 32.4549 45.6677 33.4083C45.2089 34.3617 45.6164 35.4406 45.6393 36.3773" stroke="#CBCBCB" stroke-width="1.5"/>
<path d="M49.633 35.4906C50.7251 34.5433 53.2081 32.709 54.5443 31.5469C55.8805 30.3848 58.1231 28.1543 59.1086 27.2485" stroke="#CBCBCB" stroke-width="1.5"/>
<path d="M54.064 31.9296C54.2093 32.2822 54.6526 32.9953 55.2639 33.0267C56.028 33.066 57.7237 32.2841 58.8133 31.5921C59.903 30.9002 60.2925 30.1377 61.4688 30.3725C62.6451 30.6073 63.6588 31.1917 64.1736 30.6539C64.5854 30.2236 64.862 29.7346 64.9487 29.5439" stroke="#CBCBCB" stroke-width="1.5"/>
<path d="M11.4459 13.4106C11.0855 12.0899 10.7574 7.20413 15.568 5.64385C20.3786 4.08357 27.2337 8.59153 28.1065 9.05749C31.405 10.8224 33.6852 12.1824 35.6639 13.2898C41.1604 16.3377 50.3933 21.6052 52.2213 22.5726C54.0494 23.54 55.7019 24.8038 56.2193 21.994C56.6638 19.5787 57.3778 18.2581 59.94 18.6327C62.5023 19.0073 63.6242 21.1639 63.2557 22.9283C62.8872 24.6926 61.5112 26.5338 58.6883 27.4254C55.8655 28.3169 50.6998 26.378 47.4848 24.5445C44.2698 22.7111 41.8786 21.3986 41.2054 21.0178C40.8427 20.7904 40.4063 20.713 39.988 20.8021C39.5698 20.8912 39.2022 21.1397 38.9628 21.4954C38.3607 22.3354 38.6238 22.9896 39.5854 24.2745C40.547 25.5593 42.3787 28.3154 42.87 28.9441C43.1944 29.3762 43.6567 29.6834 44.1796 29.8146C44.7026 29.9458 45.2545 29.893 45.7434 29.665C46.2266 29.5377 46.7305 29.5101 47.2246 29.5842C47.7187 29.6582 48.1926 29.8322 48.6177 30.0956C49.0428 30.359 49.4101 30.7063 49.6974 31.1165C49.9847 31.5267 50.1859 31.9912 50.289 32.4818C50.9555 35.0049 49.2834 36.8165 46.8446 36.5599C44.4058 36.3033 42.3343 33.3058 40.0518 30.4117C37.7694 27.5177 32.6946 19.6811 32.0613 18.7391C31.4279 17.797 30.5195 16.0066 28.013 15.927C25.5064 15.8475 23.0805 15.2764 21.9066 15.9584C21.3923 16.2512 20.9576 16.6664 20.6408 17.1675C20.3241 17.6686 20.1349 18.2402 20.0901 18.8319C20.0645 19.4794 20.2202 20.1211 20.5396 20.6841C20.8589 21.2472 21.3292 21.7092 21.8969 22.0176C23.477 22.9063 27.3306 25.1342 28.5464 25.8461C29.7621 26.558 29.8052 26.3851 31.0801 28.1375C32.3549 29.8899 36.6403 36.0736 37.5739 37.3998C38.5075 38.726 39.3147 39.5379 39.0089 40.457C38.7033 41.243 38.2691 41.9723 37.7242 42.6147C37.4727 42.9104 36.8736 43.4315 36.034 42.3974C35.1943 41.3632 26.7383 32.1583 25.6107 30.8996C24.483 29.6409 21.3156 27.8911 17.7886 30.4986C14.2616 33.1061 6.92869 38.5957 5.82966 39.3963C4.73064 40.1968 3.50636 41.0932 2.04456 40.1086C0.582757 39.1239 1.0232 37.8526 1.48816 36.1862C1.95311 34.5199 4.45295 25.2193 4.71024 24.3205C4.82687 23.7166 5.08068 23.1478 5.45196 22.6584C5.82323 22.169 6.30196 21.7721 6.85092 21.4986C8.47618 20.5644 10.9166 19.6173 11.666 17.1079C11.9407 15.8792 11.8645 14.5976 11.4459 13.4106Z" stroke="#CBCBCB" stroke-width="1.5" stroke-miterlimit="10"/>
<path d="M14.125 1.52979L70.7138 32.8524" stroke="#CBCBCB" stroke-width="1.5" stroke-linecap="round"/>
<path d="M23.1345 15.6633C19.0668 15.36 12.3596 16.9646 11.368 13.6664C10.3765 10.3683 11.8176 6.65649 15.6819 5.59814C20.728 4.21614 29.1638 9.84292 31.4283 11.0816C32.5691 11.7055 31.0673 15.5161 30.0125 15.8891C28.9578 16.2621 27.5589 15.9932 23.1345 15.6633Z" stroke="#1C1C1C" stroke-width="1.5"/>
</svg>
