<svg width="25" height="25" viewBox="0 0 25 25" fill="none" xmlns="http://www.w3.org/2000/svg">
<path fill-rule="evenodd" clip-rule="evenodd" d="M2 12.5005C2 6.70122 6.70122 2 12.5005 2C18.2997 2 23.0009 6.70122 23.0009 12.5005C23.0009 18.2997 18.2997 23.0009 12.5005 23.0009C6.70122 23.0009 2 18.2997 2 12.5005ZM12.5005 0C5.59665 0 0 5.59665 0 12.5005C0 19.4043 5.59665 25.0009 12.5005 25.0009C19.4043 25.0009 25.0009 19.4043 25.0009 12.5005C25.0009 5.59665 19.4043 0 12.5005 0ZM11.2003 9.7458C11.2003 9.02778 11.7823 8.44571 12.5004 8.44571C13.2184 8.44571 13.8005 9.02778 13.8005 9.7458C13.8005 10.0663 13.6858 10.3574 13.494 10.5843C13.3681 10.7332 13.2331 10.8805 13.0802 11.0471L13.0802 11.0472C13.0362 11.0952 12.9907 11.1448 12.9435 11.1965C12.7424 11.4169 12.5195 11.6666 12.3156 11.9347C11.916 12.4602 11.5004 13.1691 11.5004 14.0459V14.346C11.5004 14.8983 11.9481 15.346 12.5004 15.346C13.0526 15.346 13.5004 14.8983 13.5004 14.346V14.0459C13.5004 13.8181 13.6069 13.5408 13.9076 13.1453C14.0539 12.9529 14.2258 12.7585 14.4211 12.5443C14.4589 12.5029 14.4981 12.4601 14.5383 12.4163C14.6953 12.2452 14.8666 12.0585 15.0214 11.8755C15.5069 11.3012 15.8005 10.5565 15.8005 9.7458C15.8005 7.92321 14.323 6.44571 12.5004 6.44571C10.6778 6.44571 9.20027 7.92321 9.20027 9.7458C9.20027 10.2981 9.64799 10.7458 10.2003 10.7458C10.7526 10.7458 11.2003 10.2981 11.2003 9.7458ZM13.5004 17.1061C13.5004 16.5538 13.0526 16.1061 12.5004 16.1061C11.9481 16.1061 11.5004 16.5538 11.5004 17.1061V17.5661C11.5004 18.1184 11.9481 18.5661 12.5004 18.5661C13.0526 18.5661 13.5004 18.1184 13.5004 17.5661V17.1061Z" fill="#DD0500"/>
</svg>
