<svg width="17" height="26" viewBox="0 0 17 26" fill="none" xmlns="http://www.w3.org/2000/svg">
<path fill-rule="evenodd" clip-rule="evenodd" d="M8.18957 0C8.45796 0 8.71509 0.107891 8.90313 0.29941L10.4237 1.84817L12.1817 1.25132C12.487 1.14767 12.8236 1.19758 13.0857 1.38538C13.3478 1.57317 13.5032 1.87581 13.5032 2.19824V5.79294C13.5032 6.33166 13.0772 6.77088 12.5437 6.79214V7.23262C12.5437 9.63786 10.5939 11.5877 8.18867 11.5877C5.78343 11.5877 3.83361 9.63786 3.83361 7.23262V6.79207C3.30095 6.7699 2.87592 6.33106 2.87592 5.79294V2.19824C2.87592 1.87581 3.03137 1.57317 3.29346 1.38538C3.55554 1.19758 3.89209 1.14767 4.1974 1.25132L5.9554 1.84817L7.476 0.29941C7.66404 0.107891 7.92117 0 8.18957 0ZM8.18957 2.42737L6.94238 3.69765C6.6733 3.97172 6.27102 4.06745 5.90733 3.94398L4.87592 3.5938V4.79294H11.5032V3.5938L10.4718 3.94398C10.1081 4.06745 9.70584 3.97172 9.43675 3.69765L8.18957 2.42737ZM10.5437 7.23262C10.5437 8.53329 9.48933 9.58769 8.18867 9.58769C6.888 9.58769 5.83361 8.53329 5.83361 7.23262V6.79474L10.5437 6.79474V7.23262ZM6 12.4617C2.68629 12.4617 0 15.148 0 18.4617V23.0061C0 24.1107 0.895429 25.0061 2 25.0061H14.3788C15.4834 25.0061 16.3788 24.1107 16.3788 23.0061V18.4617C16.3788 15.1479 13.6925 12.4617 10.3788 12.4617H10.0686L10.0686 12.4614L9.14846 12.4614L7.23128 12.4614H6.31115L6.31112 12.4617H6ZM6.14445 14.4617H6C3.79086 14.4617 2 16.2525 2 18.4617V23.0061H14.3788V18.4617C14.3788 16.2525 12.588 14.4617 10.3788 14.4617H10.2353L10.6243 19.1298L10.6733 19.7177L10.1825 20.0449L8.74457 21.0035L8.18987 21.3733L7.63517 21.0035L6.19728 20.0449L5.70645 19.7177L5.75544 19.1298L6.14445 14.4617ZM8.15139 14.4617H8.22835L8.58222 18.7081L8.18987 18.9696L7.79752 18.7081L8.15139 14.4617Z" fill="#DD0500"/>
</svg>
