<svg width="25" height="25" viewBox="0 0 25 25" fill="none" xmlns="http://www.w3.org/2000/svg">
<path fill-rule="evenodd" clip-rule="evenodd" d="M2.04686 11.5019H9.35339C9.7759 10.1664 11.0251 9.19832 12.5004 9.19832C13.9756 9.19832 15.2248 10.1664 15.6473 11.5019H22.9541C22.4512 6.17103 17.9629 2 12.5005 2C7.03801 2 2.54975 6.17103 2.04686 11.5019ZM22.9538 13.5019H15.6451C15.3209 14.5187 14.5173 15.3214 13.5 15.6444V22.954C18.5008 22.4818 22.4807 18.5024 22.9538 13.5019ZM11.5 22.9539V15.6442C10.483 15.3211 9.67972 14.5184 9.35562 13.5019H2.04713C2.52022 18.5021 6.49966 22.4813 11.5 22.9539ZM0 12.5005C0 5.59665 5.59665 0 12.5005 0C19.4043 0 25.0009 5.59665 25.0009 12.5005C25.0009 19.4043 19.4043 25.0009 12.5005 25.0009C5.59665 25.0009 0 19.4043 0 12.5005ZM12.5004 11.1983C11.7823 11.1983 11.2003 11.7804 11.2003 12.4984C11.2003 13.2164 11.7823 13.7985 12.5004 13.7985C13.2184 13.7985 13.8005 13.2164 13.8005 12.4984C13.8005 11.7804 13.2184 11.1983 12.5004 11.1983Z" fill="#DD0500"/>
</svg>
