<svg width="27" height="25" viewBox="0 0 27 25" fill="none" xmlns="http://www.w3.org/2000/svg">
<path fill-rule="evenodd" clip-rule="evenodd" d="M8.44697 1.11164C8.14507 0.741417 7.60646 0.291797 6.89534 0.0965694C6.11815 -0.116798 5.21486 -0.000166292 4.36601 0.684633L2.22787 2.40956L0.364811 3.91257C-0.0565627 4.25251 -0.122578 4.86968 0.217362 5.29105C0.557302 5.71243 1.17447 5.77844 1.59584 5.4385L3.4589 3.93549L5.59704 2.21056C5.94856 1.92698 6.19899 1.93852 6.3763 1.9872C6.613 2.05218 6.82624 2.2251 6.92949 2.35309L6.937 2.36239L6.94473 2.37151L9.92077 5.88175H7.84234C7.42355 5.88175 7.05102 6.14779 6.91511 6.54391C6.7792 6.94002 6.90993 7.37873 7.2405 7.63584L15.6867 14.2051V23.0394H15.6734H15.6555H15.6378H15.6201H15.6026H15.5851H15.5677H15.5504H15.5332H15.5161H15.499H15.4821H15.4652H15.4485H15.4318H15.4152H15.3987H15.3822H15.3659H15.3496H15.3335H15.3174H15.3014H15.2854H15.2696H15.2538H15.2381H15.2225H15.207H15.1916H15.1762H15.161H15.1458H15.1306H15.1156H15.1006H15.0858H15.071H15.0562H15.0416H15.027H15.0125H14.9981H14.9837H14.9694H14.9552H14.9411H14.9271H14.9131H14.8992H14.8853H14.8716H14.8579H14.8443H14.8307H14.8173H14.8038H14.7905H14.7772H14.764H14.7509H14.7378H14.7248H14.7119H14.6991H14.6863H14.6735H14.6609H14.6483H14.6357H14.6233H14.6109H14.5985H14.5863H14.5741H14.5619H14.5498H14.5378H14.5258H14.5139H14.5021H14.4903H14.4786H14.4669H14.4553H14.4438H14.4323H14.4209H14.4095H14.3982H14.3869H14.3757H14.3646H14.3535H14.3425H14.3315H14.3206H14.3097H14.2989H14.2881H14.2774H14.2668H14.2562H14.2456H14.2351H14.2247H14.2143H14.2039H14.1936H14.1834H14.1732H14.1631H14.153H14.1429H14.1329H14.1229H14.113H14.1032H14.0934H14.0836H14.0739H14.0642H14.0545H14.045H14.0354H14.0259H14.0164H14.007H13.9976H13.9883H13.979H13.9698H13.9605H13.9514H13.9422H13.9331H13.9241H13.9151H13.9061H13.8972H13.8883H13.8794H13.8706H13.8618H13.853H13.8443H13.8356H13.827H13.8184H13.8098H13.8012H13.7927H13.7842H13.7758H13.7674H13.759H13.7506H13.7423H13.734H13.7258H13.7175H13.7093H13.7012H13.693H13.6849H13.6768H13.6688H13.6607H13.6527H13.6448H13.6368H13.6289H13.621H13.6131H13.6052H13.5974H13.5896H13.5818H13.5741H13.5663H13.5586H13.5509H13.5432H13.5356H13.528H13.5204H13.5128H13.5052H13.4976H13.4901H13.4826H13.4751H13.4676H13.4602H13.4527H13.4453H13.4379H13.4305H13.4231H13.4157H13.4084H13.401H13.3937H13.3864H13.3791H13.3718H13.3645H13.3572H13.35H13.3428H13.3355H13.3283H13.3211H13.3139H13.3067H13.2995H13.2923H13.2852H13.278H13.2708H13.2637H13.2566H13.2494H13.2423H13.2352H13.228H13.2209H13.2138H13.2067H13.1996H13.1925H13.1854H13.1783H13.1712H13.1641H13.157H13.1499H13.1428H13.1357H13.1286H13.1215H13.1144H13.1073H13.1002H13.0931H13.086H13.0789H13.0718H13.0647H13.0575H13.0504H13.0433H13.0361H13.029H13.0218H13.0147H13.0075H13.0003H12.9931H12.9859H12.9787H12.9715H12.9643H12.9571H12.9498H12.9426H12.9353H12.928H12.9208H12.9135H12.9062H12.8988H12.8915H12.8841H12.8768H12.8694H12.862H12.8546H12.8472H12.8397H12.8323H12.8248H12.8173H12.8098H12.8022H12.7947H12.7871H12.7795H12.7719H12.7643H12.7567H12.749H12.7413H12.7336H12.7258H12.7181H12.7103H12.7025H12.6947H12.6868H12.679H12.6711H12.6631H12.6552H12.6472H12.6392H12.6312H12.6231H12.6151H12.6069H12.5988H12.5906H12.5824H12.5742H12.566H12.5577H12.5494H12.541H12.5326H12.5242H12.5158H12.5073H12.4988H12.4903H12.4817H12.4731H12.4644H12.4557H12.447H12.4383H12.4295H12.4207H12.4118H12.4029H12.394H12.385H12.376H12.367H12.3579H12.3488H12.3396H12.3304H12.3211H12.3118H12.3025H12.2931H12.2837H12.2743H12.2648H12.2552H12.2457H12.236H12.2263H12.2166H12.2069H12.1971H12.1872H12.1773H12.1673H12.1574H12.1473H12.1372H12.1271H12.1169H12.1066H12.0964H12.086H12.0756H12.0652H12.0547H12.0442H12.0336H12.0229H12.0122H12.0015H11.9907H11.9798H11.9689H11.9579H11.9469H11.9358H11.9247H11.9135H11.9023H11.891H11.8796H11.8682H11.8567H11.8452H11.8336H11.8219H11.8102H11.7985H11.7866H11.7747H11.7628H11.7508H11.7387H11.7265H11.7143H11.7021H11.6897H11.6774H11.6649H11.6524H11.6398H11.6271H11.6144H11.6016H11.5888H11.5759H11.5629H11.5498H11.5367H11.5235H11.5103H11.4969H11.4835H11.4701H11.4565H11.4429H11.4292H11.4155H11.4017H11.3878H11.3738H11.3598H11.3456H11.3315H11.3172H11.3029H11.2884H11.274H11.2594H11.2448H11.23H11.2152H11.2004H11.1854H11.1704H11.1553H11.1401H11.1248H11.1095H11.0941H11.0786H11.063H11.0473H11.0316H11.0157H10.9998H10.9838H10.9677H10.9516H10.9353H10.919H10.9026H10.8861H10.8695H10.8528H10.8361H10.8192H10.8023H10.7853C10.2439 23.0394 9.80498 23.4783 9.80498 24.0197C9.80498 24.5611 10.2439 25 10.7853 25H10.8023H10.8192H10.8361H10.8528H10.8695H10.8861H10.9026H10.919H10.9353H10.9516H10.9677H10.9838H10.9998H11.0157H11.0316H11.0473H11.063H11.0786H11.0941H11.1095H11.1248H11.1401H11.1553H11.1704H11.1854H11.2004H11.2152H11.23H11.2448H11.2594H11.274H11.2884H11.3029H11.3172H11.3315H11.3456H11.3598H11.3738H11.3878H11.4017H11.4155H11.4292H11.4429H11.4565H11.4701H11.4835H11.4969H11.5103H11.5235H11.5367H11.5498H11.5629H11.5759H11.5888H11.6016H11.6144H11.6271H11.6398H11.6524H11.6649H11.6774H11.6897H11.7021H11.7143H11.7265H11.7387H11.7508H11.7628H11.7747H11.7866H11.7985H11.8102H11.8219H11.8336H11.8452H11.8567H11.8682H11.8796H11.891H11.9023H11.9135H11.9247H11.9358H11.9469H11.9579H11.9689H11.9798H11.9907H12.0015H12.0122H12.0229H12.0336H12.0442H12.0547H12.0652H12.0756H12.086H12.0964H12.1066H12.1169H12.1271H12.1372H12.1473H12.1574H12.1673H12.1773H12.1872H12.1971H12.2069H12.2166H12.2263H12.236H12.2457H12.2552H12.2648H12.2743H12.2837H12.2931H12.3025H12.3118H12.3211H12.3304H12.3396H12.3488H12.3579H12.367H12.376H12.385H12.394H12.4029H12.4118H12.4207H12.4295H12.4383H12.447H12.4557H12.4644H12.4731H12.4817H12.4903H12.4988H12.5073H12.5158H12.5242H12.5326H12.541H12.5494H12.5577H12.566H12.5742H12.5824H12.5906H12.5988H12.6069H12.6151H12.6231H12.6312H12.6392H12.6472H12.6552H12.6631H12.6711H12.679H12.6868H12.6947H12.7025H12.7103H12.7181H12.7258H12.7336H12.7413H12.749H12.7567H12.7643H12.7719H12.7795H12.7871H12.7947H12.8022H12.8098H12.8173H12.8248H12.8323H12.8397H12.8472H12.8546H12.862H12.8694H12.8768H12.8841H12.8915H12.8988H12.9062H12.9135H12.9208H12.928H12.9353H12.9426H12.9498H12.9571H12.9643H12.9715H12.9787H12.9859H12.9931H13.0003H13.0075H13.0147H13.0218H13.029H13.0361H13.0433H13.0504H13.0575H13.0647H13.0718H13.0789H13.086H13.0931H13.1002H13.1073H13.1144H13.1215H13.1286H13.1357H13.1428H13.1499H13.157H13.1641H13.1712H13.1783H13.1854H13.1925H13.1996H13.2067H13.2138H13.2209H13.228H13.2352H13.2423H13.2494H13.2566H13.2637H13.2708H13.278H13.2852H13.2923H13.2995H13.3067H13.3139H13.3211H13.3283H13.3355H13.3428H13.35H13.3572H13.3645H13.3718H13.3791H13.3864H13.3937H13.401H13.4084H13.4157H13.4231H13.4305H13.4379H13.4453H13.4527H13.4602H13.4676H13.4751H13.4826H13.4901H13.4976H13.5052H13.5128H13.5204H13.528H13.5356H13.5432H13.5509H13.5586H13.5663H13.5741H13.5818H13.5896H13.5974H13.6052H13.6131H13.621H13.6289H13.6368H13.6448H13.6527H13.6607H13.6688H13.6768H13.6849H13.693H13.7012H13.7093H13.7175H13.7258H13.734H13.7423H13.7506H13.759H13.7674H13.7758H13.7842H13.7927H13.8012H13.8098H13.8184H13.827H13.8356H13.8443H13.853H13.8618H13.8706H13.8794H13.8883H13.8972H13.9061H13.9151H13.9241H13.9331H13.9422H13.9514H13.9605H13.9698H13.979H13.9883H13.9976H14.007H14.0164H14.0259H14.0354H14.045H14.0545H14.0642H14.0739H14.0836H14.0934H14.1032H14.113H14.1229H14.1329H14.1429H14.153H14.1631H14.1732H14.1834H14.1936H14.2039H14.2143H14.2247H14.2351H14.2456H14.2562H14.2668H14.2774H14.2881H14.2989H14.3097H14.3206H14.3315H14.3425H14.3535H14.3646H14.3757H14.3869H14.3982H14.4095H14.4209H14.4323H14.4438H14.4553H14.4669H14.4786H14.4903H14.5021H14.5139H14.5258H14.5378H14.5498H14.5619H14.5741H14.5863H14.5985H14.6109H14.6233H14.6357H14.6483H14.6609H14.6735H14.6863H14.6991H14.7119H14.7248H14.7378H14.7509H14.764H14.7772H14.7905H14.8038H14.8173H14.8307H14.8443H14.8579H14.8716H14.8853H14.8992H14.9131H14.9271H14.9411H14.9552H14.9694H14.9837H14.9981H15.0125H15.027H15.0416H15.0562H15.071H15.0858H15.1006H15.1156H15.1306H15.1458H15.161H15.1762H15.1916H15.207H15.2225H15.2381H15.2538H15.2696H15.2854H15.3014H15.3174H15.3335H15.3496H15.3659H15.3822H15.3987H15.4152H15.4318H15.4485H15.4652H15.4821H15.499H15.5161H15.5332H15.5504H15.5677H15.5851H15.6026H15.6201H15.6378H15.6555H15.6734H15.6913H15.7093H15.7274H15.7456H15.7639H15.7823H15.8008H15.8194H15.8381H15.8569H15.8757H15.8947H15.9137H15.9329H15.9521H15.9715H15.9909H16.0105H16.0301H16.0499H16.0697H16.0896H16.1097H16.1298H16.1501H16.1704H16.1908H16.2114H16.232H16.2528H16.2736H16.2946H16.3156H16.3368H16.3581H16.3795H16.4009H16.4225H16.4442H16.466H16.4879H16.5099H16.532H16.5543H16.5766H16.599H16.6216H16.6443H16.667H16.7032H16.7391H16.7747H16.8101H16.8452H16.88H16.9146H16.949H16.983H17.0169H17.0504H17.0838H17.1168H17.1497H17.1822H17.2146H17.2466H17.2785H17.3101H17.3414H17.3725H17.4034H17.434H17.4643H17.4945H17.5244H17.554H17.5835H17.6127H17.6416H17.6703H17.6988H17.7271H17.7551H17.7829H17.8105H17.8378H17.8649H17.8918H17.9185H17.9449H17.9711H17.9971H18.0229H18.0484H18.0738H18.0989H18.1238H18.1484H18.1729H18.1972H18.2212H18.245H18.2687H18.2921H18.3153H18.3382H18.361H18.3836H18.406H18.4281H18.4501H18.4718H18.4934H18.5148H18.5359H18.5569H18.5776H18.5982H18.6186H18.6387H18.6587H18.6785H18.6981H18.7175H18.7367H18.7558H18.7746H18.7932H18.8117H18.83H18.8481H18.866H18.8837H18.9013H18.9186H18.9358H18.9529H18.9697H18.9863H19.0028H19.0191H19.0353H19.0512H19.067H19.0827H19.0981H19.1134H19.1285H19.1435H19.1582H19.1729H19.1873H19.2016H19.2158H19.2297H19.2435H19.2572H19.2707H19.284H19.2972H19.3102H19.3231H19.3358H19.3484H19.3608H19.3731H19.3852H19.3972H19.409H19.4207H19.4322H19.4436H19.4548H19.466H19.4769H19.4877H19.4984H19.509H19.5194H19.5296H19.5398H19.5498H19.5596H19.5694H19.579H19.5885H19.5978H19.607H19.6161H19.6251H19.6339H19.6426H19.6512H19.6597H19.668H19.6762H19.6843H19.6923H19.7002H19.7079H19.7155H19.7231H19.7305H19.7378H19.7449H19.752H19.759H19.7658H19.7725H19.7792H19.7857H19.7921H19.7984H19.8046H19.8108H19.8168H19.8227H19.8285H19.8342H19.8398H19.8453H19.8507H19.8561H19.8613H19.8664H19.8715H19.8764H19.8813H19.8861H19.8908H19.8954H19.8999H19.9043H19.9087H19.913H19.9171H19.9212H19.9253H19.9292H19.9331H19.9369H19.9406H19.9442H19.9478H19.9513H19.9547H19.958H19.9613H19.9645H19.9677H19.9707H19.9738H19.9767H19.9796H19.9824H19.9851H19.9878H19.9904H19.993H19.9955H19.998H20.0004H20.0027H20.005H20.0072H20.0094H20.0115H20.0136H20.0156H20.0176H20.0195H20.0214H20.0233H20.0251H20.0268H20.0285H20.0302H20.0318H20.0334H20.0349H20.0364H20.0379H20.0393H20.0407H20.0421H20.0434H20.0447H20.046H20.0472H20.0484H20.0496H20.0507H20.0518H20.0529H20.054H20.055H20.0561H20.0571H20.0581H20.059H20.06H20.0609H20.0618H20.0627H20.0636H20.0644H20.0653H20.0661H20.067H20.0678H20.0686H20.0694H20.0702H20.071H20.0717H20.0725H20.0733H20.0741H20.0748H20.0756H20.0764H20.0772H20.0779H20.0787H20.0795H20.0803H20.0811H20.0819H20.0827H20.0835H20.0844H20.0852H20.0861H20.0869H20.0878H20.0887H20.0896H20.0906H20.0915H20.0925H20.0935H20.0945H20.0955H20.0966H20.0977H20.0988H20.0999H20.1011H20.1022H20.1035H20.1047H20.106H20.1073H20.1086H20.11H20.1114H20.1128H20.1143H20.1158H20.1174H20.119H20.1206H20.1223H20.124H20.1258H20.1276H20.1295H20.1314H20.1333H20.1353H20.1374H20.1394H20.1416H20.1438H20.146H20.1483H20.1507H20.1531H20.1556H20.1581H20.1607H20.1634H20.1661H20.1689H20.1717H20.1746H20.1776H20.1806H20.1837H20.1869H20.1901H20.1934H20.1968H20.2002H20.2037H20.2073H20.211H20.2148H20.2186H20.2225H20.2264H20.2305H20.2346H20.2388H20.2432H20.2475H20.252H20.2565H20.2612H20.2659H20.2707H20.2756H20.2806H20.2857H20.2909H20.2962H20.3015H20.307H20.3125H20.3182H20.3239H20.3298H20.3357H20.3418H20.3479H20.3542H20.3605H20.367H20.3735H20.3802H20.387H20.3939H20.4009H20.408H20.4152H20.4226H20.43H20.4376H20.4452H20.453H20.4609H20.469H20.4771H20.4854H20.4938H20.5023H20.5109H20.5197H20.5286H20.5376H20.5467H20.556H20.5654H20.5749H20.5845H20.5943H20.6042H20.6143H20.6245H20.6348H20.6453H20.6559H20.6666H20.6775H20.6885H20.6997H20.711H20.7224H20.734H20.7457H20.7576H20.7696H20.7818H20.7941H20.8066H20.8192H20.832H20.845H20.858H20.8713H20.8847H20.8982H20.912H20.9258H20.9399H20.9541H20.9684H20.9829H20.9976H21.0125H21.0275H21.0427H21.058H21.0735H21.0892H21.1051H21.1211H21.1373H21.1537H21.1702H21.187H21.2039H21.221H21.2382H21.2557H21.2733H21.2911H21.3091H21.3272H21.3456H21.3641H21.3828H21.4018H21.4209H21.4401H21.4596H21.4793H21.4992H21.5192H21.5395H21.5599H21.5805H21.6014H21.6224H21.6436H21.6651H21.6867H21.7086H21.7306H21.7528H21.7753H21.7979H21.8208H21.8439H21.8671H21.8906H21.9143H21.9382H21.9624H21.9867H22.0112H22.036H22.061H22.0862H22.1116H22.1372H22.1631H22.1892H22.2155H22.242H22.2688H22.2957H22.3229H22.3504H22.378H22.4059H22.434H22.4624H22.4909H22.5197H22.5488C23.0902 25 23.5291 24.5611 23.5291 24.0197C23.5291 23.4783 23.0902 23.0394 22.5488 23.0394H22.5197H22.4909H22.4624H22.434H22.4059H22.378H22.3504H22.3229H22.2957H22.2688H22.242H22.2155H22.1892H22.1631H22.1372H22.1116H22.0862H22.061H22.036H22.0112H21.9867H21.9624H21.9382H21.9143H21.8906H21.8671H21.8439H21.8208H21.7979H21.7753H21.7528H21.7306H21.7086H21.6867H21.6651H21.6436H21.6224H21.6014H21.5805H21.5599H21.5395H21.5192H21.4992H21.4793H21.4596H21.4401H21.4209H21.4018H21.3828H21.3641H21.3456H21.3272H21.3091H21.2911H21.2733H21.2557H21.2382H21.221H21.2039H21.187H21.1702H21.1537H21.1373H21.1211H21.1051H21.0892H21.0735H21.058H21.0427H21.0275H21.0125H20.9976H20.9829H20.9684H20.9541H20.9399H20.9258H20.912H20.8982H20.8847H20.8713H20.858H20.845H20.832H20.8192H20.8066H20.7941H20.7818H20.7696H20.7576H20.7457H20.734H20.7224H20.711H20.6997H20.6885H20.6775H20.6666H20.6559H20.6453H20.6348H20.6245H20.6143H20.6042H20.5943H20.5845H20.5749H20.5654H20.556H20.5467H20.5376H20.5286H20.5197H20.5109H20.5023H20.4938H20.4854H20.4771H20.469H20.4609H20.453H20.4452H20.4376H20.43H20.4226H20.4152H20.408H20.4009H20.3939H20.387H20.3802H20.3735H20.367H20.3605H20.3542H20.3479H20.3418H20.3357H20.3298H20.3239H20.3182H20.3125H20.307H20.3015H20.2962H20.2909H20.2857H20.2806H20.2756H20.2707H20.2659H20.2612H20.2565H20.252H20.2475H20.2432H20.2388H20.2346H20.2305H20.2264H20.2225H20.2186H20.2148H20.211H20.2073H20.2037H20.2002H20.1968H20.1934H20.1901H20.1869H20.1837H20.1806H20.1776H20.1746H20.1717H20.1689H20.1661H20.1634H20.1607H20.1581H20.1556H20.1531H20.1507H20.1483H20.146H20.1438H20.1416H20.1394H20.1374H20.1353H20.1333H20.1314H20.1295H20.1276H20.1258H20.124H20.1223H20.1206H20.119H20.1174H20.1158H20.1143H20.1128H20.1114H20.11H20.1086H20.1073H20.106H20.1047H20.1035H20.1022H20.1011H20.0999H20.0988H20.0977H20.0966H20.0955H20.0945H20.0935H20.0925H20.0915H20.0906H20.0896H20.0887H20.0878H20.0869H20.0861H20.0852H20.0844H20.0835H20.0827H20.0819H20.0811H20.0803H20.0795H20.0787H20.0779H20.0772H20.0764H20.0756H20.0748H20.0741H20.0733H20.0725H20.0717H20.071H20.0702H20.0694H20.0686H20.0678H20.067H20.0661H20.0653H20.0644H20.0636H20.0627H20.0618H20.0609H20.06H20.059H20.0581H20.0571H20.0561H20.055H20.054H20.0529H20.0518H20.0507H20.0496H20.0484H20.0472H20.046H20.0447H20.0434H20.0421H20.0407H20.0393H20.0379H20.0364H20.0349H20.0334H20.0318H20.0302H20.0285H20.0268H20.0251H20.0233H20.0214H20.0195H20.0176H20.0156H20.0136H20.0115H20.0094H20.0072H20.005H20.0027H20.0004H19.998H19.9955H19.993H19.9904H19.9878H19.9851H19.9824H19.9796H19.9767H19.9738H19.9707H19.9677H19.9645H19.9613H19.958H19.9547H19.9513H19.9478H19.9442H19.9406H19.9369H19.9331H19.9292H19.9253H19.9212H19.9171H19.913H19.9087H19.9043H19.8999H19.8954H19.8908H19.8861H19.8813H19.8764H19.8715H19.8664H19.8613H19.8561H19.8507H19.8453H19.8398H19.8342H19.8285H19.8227H19.8168H19.8108H19.8046H19.7984H19.7921H19.7857H19.7792H19.7725H19.7658H19.759H19.752H19.7449H19.7378H19.7305H19.7231H19.7155H19.7079H19.7002H19.6923H19.6843H19.6762H19.668H19.6597H19.6512H19.6426H19.6339H19.6251H19.6161H19.607H19.5978H19.5885H19.579H19.5694H19.5596H19.5498H19.5398H19.5296H19.5194H19.509H19.4984H19.4877H19.4769H19.466H19.4548H19.4436H19.4322H19.4207H19.409H19.3972H19.3852H19.3731H19.3608H19.3484H19.3358H19.3231H19.3102H19.2972H19.284H19.2707H19.2572H19.2435H19.2297H19.2158H19.2016H19.1873H19.1729H19.1582H19.1435H19.1285H19.1134H19.0981H19.0827H19.067H19.0512H19.0353H19.0191H19.0028H18.9863H18.9697H18.9529H18.9358H18.9186H18.9013H18.8837H18.866H18.8481H18.83H18.8117H18.7932H18.7746H18.7558H18.7367H18.7175H18.6981H18.6785H18.6587H18.6387H18.6186H18.5982H18.5776H18.5569H18.5359H18.5148H18.4934H18.4718H18.4501H18.4281H18.406H18.3836H18.361H18.3382H18.3153H18.2921H18.2687H18.245H18.2212H18.1972H18.1729H18.1484H18.1238H18.0989H18.0738H18.0484H18.0229H17.9971H17.9711H17.9449H17.9185H17.8918H17.8649H17.8378H17.8105H17.7829H17.7551H17.7271H17.6988H17.6703H17.6473V14.2019L26.0894 7.63584C26.42 7.37873 26.5507 6.94002 26.4148 6.5439C26.2789 6.14779 25.9064 5.88175 25.4876 5.88175L12.4911 5.88175L8.44697 1.11164ZM11.583 7.84234H10.6994L13.2936 9.86003L11.583 7.84234ZM17.1394 12.1132C17.2503 11.7959 17.1949 11.4299 16.9619 11.155L14.1534 7.84234L22.6305 7.84234L17.1394 12.1132Z" fill="#DD0500"/>
</svg>
