<svg width="17" height="25" viewBox="0 0 17 25" fill="none" xmlns="http://www.w3.org/2000/svg">
<path fill-rule="evenodd" clip-rule="evenodd" d="M8.33333 0C5.19957 0 2.66667 2.51713 2.66667 5.61304V11.5609C2.66667 14.6568 5.19957 17.1739 8.33333 17.1739C11.4671 17.1739 14 14.6568 14 11.5609V5.61304C14 2.51713 11.4671 0 8.33333 0ZM4.66667 5.61304C4.66667 3.59912 6.31244 1.97391 8.33333 1.97391C10.3542 1.97391 12 3.59912 12 5.61304V11.5609C12 13.5748 10.3542 15.2 8.33333 15.2C6.31244 15.2 4.66667 13.5748 4.66667 11.5609V5.61304ZM1.02899 7.82609C0.478198 7.82609 0 8.2438 0 8.7963V12.1779C0 16.1398 3.20151 19.3837 7.30435 19.853V23.8043C7.30435 24.1659 7.39437 24.4712 7.59173 24.6895C7.79367 24.9129 8.06689 25 8.33333 25C8.60353 25 8.87582 24.908 9.07593 24.6846C9.27164 24.4661 9.36232 24.1622 9.36232 23.8043V19.853C13.4652 19.3837 16.6667 16.1398 16.6667 12.1779V8.7963C16.6667 8.2438 16.1885 7.82609 15.6377 7.82609C15.0869 7.82609 14.6087 8.2438 14.6087 8.7963V12.1779C14.6087 15.3607 11.8166 17.971 8.33333 17.971C4.85004 17.971 2.05797 15.3607 2.05797 12.1779V8.7963C2.05797 8.2438 1.57977 7.82609 1.02899 7.82609Z" fill="#DD0500"/>
</svg>
