<svg width="25" height="25" viewBox="0 0 25 25" fill="none" xmlns="http://www.w3.org/2000/svg">
<path fill-rule="evenodd" clip-rule="evenodd" d="M2 12.5C2 6.70101 6.70101 2 12.5 2C18.299 2 23 6.70101 23 12.5C23 18.299 18.299 23 12.5 23C6.70101 23 2 18.299 2 12.5ZM12.5 0C5.59644 0 0 5.59644 0 12.5C0 19.4036 5.59644 25 12.5 25C19.4036 25 25 19.4036 25 12.5C25 5.59644 19.4036 0 12.5 0ZM9.14494 11.5L6.07645 11.5C6.32885 9.86537 7.19028 8.4318 8.42164 7.43839L9.95609 10.0961C9.58465 10.4891 9.30326 10.968 9.14494 11.5ZM11.6874 9.09482C11.9482 9.03282 12.2202 9 12.5 9C12.7793 9 13.051 9.03272 13.3114 9.09454L14.8462 6.43632C14.1184 6.15454 13.3272 6 12.5 6C11.6723 6 10.8808 6.15469 10.1527 6.43674L11.6874 9.09482ZM9.39893 6.78603C9.30195 6.83877 9.20646 6.89391 9.11254 6.95137L9.39893 6.78603ZM6.07645 13.5L9.14494 13.5C9.30338 14.0324 9.58507 14.5116 9.95692 14.9047L8.42255 17.5623C7.19071 16.5689 6.32892 15.135 6.07645 13.5ZM9.15244 18.0728C9.22018 18.1136 9.28872 18.1532 9.35804 18.1915L9.15244 18.0728ZM10.1538 18.5637C10.8816 18.8455 11.6728 19 12.5 19C13.3268 19 14.1176 18.8456 14.8451 18.5641L13.3103 15.9057C13.0502 15.9674 12.7789 16 12.5 16C12.2207 16 11.949 15.9673 11.6886 15.9055L10.1538 18.5637ZM15.0423 14.9056L16.5765 17.5631C17.8089 16.5696 18.671 15.1354 18.9236 13.5H15.8551C15.6965 14.0328 15.4145 14.5124 15.0423 14.9056ZM15.7705 18.1185L15.72 18.1477C15.7369 18.138 15.7537 18.1283 15.7705 18.1185ZM16.5774 7.43765C17.8093 8.43109 18.6711 9.86497 18.9236 11.5H15.8551C15.6966 10.9676 15.4149 10.4884 15.0431 10.0953L16.5774 7.43765ZM15.8476 6.92716C15.7798 6.88638 15.7113 6.8468 15.642 6.80845L15.8476 6.92716ZM12.5 4C7.80558 4 4 7.80558 4 12.5C4 17.1944 7.80558 21 12.5 21C17.1944 21 21 17.1944 21 12.5C21 7.80558 17.1944 4 12.5 4ZM12.5 11C11.6716 11 11 11.6716 11 12.5C11 13.3284 11.6716 14 12.5 14C13.3284 14 14 13.3284 14 12.5C14 11.6716 13.3284 11 12.5 11Z" fill="#DD0500"/>
</svg>
