<svg width="28" height="28" viewBox="0 0 28 28" fill="none" xmlns="http://www.w3.org/2000/svg">
<path d="M9.10156 16.6001H6.10156V13.6001H9.10156V16.6001ZM6.90156 15.8001H8.30156V14.4001H6.90156V15.8001Z" fill="#B3B3B3"/>
<path d="M9.10156 20.8H6.10156V17.8H9.10156V20.8ZM6.90156 20H8.30156V18.6H6.90156V20Z" fill="#B3B3B3"/>
<path d="M21.4 24.0001H6.5C5.1 24.0001 4 22.9001 4 21.6001V7.6001C4 6.2001 5.1 5.1001 6.5 5.1001H8.5V6.1001H6.5C5.7 6.1001 5 6.8001 5 7.6001V21.5001C5 22.4001 5.7 23.0001 6.5 23.0001H21.4C22.2 23.0001 22.9 22.3001 22.9 21.5001V7.6001C22.9 6.8001 22.2 6.1001 21.4 6.1001H19.5V5.1001H21.4C22.8 5.1001 23.9 6.2001 23.9 7.6001V21.5001C23.9 22.9001 22.8 24.0001 21.4 24.0001Z" fill="#B3B3B3"/>
<path d="M18.5 4H17.5V8H18.5V4Z" fill="#B3B3B3"/>
<path d="M21.8008 16.6001H18.8008V13.6001H21.8008V16.6001ZM19.6008 15.8001H21.0008V14.4001H19.6008V15.8001Z" fill="#B3B3B3"/>
<path d="M13.3984 20.8H10.3984V17.8H13.3984V20.8ZM11.1984 20H12.5984V18.6H11.1984V20Z" fill="#B3B3B3"/>
<path d="M13.3984 16.6001H10.3984V13.6001H13.3984V16.6001ZM11.1984 15.8001H12.5984V14.4001H11.1984V15.8001Z" fill="#B3B3B3"/>
<path d="M21.8008 20.8H18.8008V17.8H21.8008V20.8ZM19.6008 20H21.0008V18.6H19.6008V20Z" fill="#B3B3B3"/>
<path d="M17.6992 20.8H14.6992V17.8H17.6992V20.8ZM15.4992 20H16.8992V18.6H15.4992V20Z" fill="#B3B3B3"/>
<path d="M17.6992 16.6001H14.6992V13.6001H17.6992V16.6001ZM15.4992 15.8001H16.8992V14.4001H15.4992V15.8001Z" fill="#B3B3B3"/>
<path d="M10.3984 4H9.39844V8H10.3984V4Z" fill="#B3B3B3"/>
<path d="M16.5992 5.1001H11.1992V6.1001H16.5992V5.1001Z" fill="#B3B3B3"/>
</svg>
