<svg width="28" height="28" viewBox="0 0 28 28" fill="none" xmlns="http://www.w3.org/2000/svg">
<path d="M13.952 5C15.136 5 16.256 5.216 17.312 5.648C18.384 6.08 19.32 6.696 20.12 7.496C20.936 8.28 21.576 9.24 22.04 10.376C22.52 11.496 22.76 12.752 22.76 14.144C22.76 14.368 22.744 14.672 22.712 15.056C22.696 15.424 22.648 15.816 22.568 16.232C22.488 16.648 22.368 17.072 22.208 17.504C22.064 17.936 21.856 18.328 21.584 18.68C21.312 19.032 20.976 19.312 20.576 19.52C20.192 19.744 19.728 19.856 19.184 19.856C18.768 19.856 18.432 19.792 18.176 19.664C17.92 19.552 17.712 19.4 17.552 19.208C17.408 19 17.304 18.768 17.24 18.512C17.176 18.256 17.128 17.992 17.096 17.72C16.632 18.2 16.048 18.608 15.344 18.944C14.64 19.264 13.864 19.424 13.016 19.424C11.848 19.424 10.944 19.12 10.304 18.512C9.68 17.888 9.368 17.104 9.368 16.16C9.368 15.536 9.496 15.008 9.752 14.576C10.024 14.144 10.376 13.8 10.808 13.544C11.24 13.288 11.72 13.104 12.248 12.992C12.792 12.88 13.328 12.824 13.856 12.824C14.544 12.824 15.144 12.896 15.656 13.04C16.168 13.168 16.552 13.28 16.808 13.376C16.808 12.848 16.76 12.368 16.664 11.936C16.584 11.488 16.432 11.112 16.208 10.808C16 10.488 15.704 10.24 15.32 10.064C14.952 9.888 14.48 9.8 13.904 9.8C13.264 9.8 12.664 9.904 12.104 10.112C11.544 10.304 11.04 10.568 10.592 10.904L10.112 9.728C10.688 9.344 11.304 9.048 11.96 8.84C12.632 8.616 13.344 8.504 14.096 8.504C15.024 8.504 15.76 8.656 16.304 8.96C16.848 9.264 17.256 9.656 17.528 10.136C17.8 10.616 17.968 11.152 18.032 11.744C18.112 12.32 18.152 12.888 18.152 13.448V16.304C18.152 16.656 18.16 16.984 18.176 17.288C18.208 17.592 18.264 17.856 18.344 18.08C18.424 18.304 18.544 18.48 18.704 18.608C18.88 18.736 19.104 18.8 19.376 18.8C19.856 18.8 20.248 18.632 20.552 18.296C20.856 17.96 21.096 17.552 21.272 17.072C21.464 16.576 21.592 16.064 21.656 15.536C21.72 14.992 21.752 14.512 21.752 14.096C21.752 12.944 21.552 11.88 21.152 10.904C20.768 9.912 20.224 9.048 19.52 8.312C18.816 7.576 17.984 7 17.024 6.584C16.064 6.168 15.024 5.96 13.904 5.96C12.8 5.96 11.768 6.16 10.808 6.56C9.848 6.96 9.008 7.512 8.288 8.216C7.584 8.92 7.024 9.768 6.608 10.76C6.208 11.736 6.008 12.8 6.008 13.952C6.008 15.072 6.2 16.12 6.584 17.096C6.968 18.072 7.504 18.92 8.192 19.64C8.88 20.376 9.696 20.952 10.64 21.368C11.584 21.8 12.616 22.016 13.736 22.016C14.456 22.016 15.104 21.928 15.68 21.752C16.256 21.592 16.84 21.376 17.432 21.104L17.768 22.016C17.112 22.336 16.44 22.576 15.752 22.736C15.08 22.896 14.4 22.976 13.712 22.976C12.512 22.976 11.384 22.752 10.328 22.304C9.272 21.856 8.344 21.232 7.544 20.432C6.76 19.632 6.136 18.68 5.672 17.576C5.224 16.472 5 15.264 5 13.952C5 12.576 5.248 11.336 5.744 10.232C6.24 9.128 6.896 8.192 7.712 7.424C8.544 6.64 9.496 6.04 10.568 5.624C11.656 5.208 12.784 5 13.952 5ZM15.32 17.648C15.944 17.36 16.344 17.016 16.52 16.616C16.696 16.2 16.784 15.784 16.784 15.368V14.48C16.576 14.448 16.208 14.352 15.68 14.192C15.168 14.032 14.552 13.952 13.832 13.952C13.416 13.952 13.024 13.992 12.656 14.072C12.288 14.136 11.96 14.256 11.672 14.432C11.384 14.592 11.152 14.808 10.976 15.08C10.816 15.336 10.736 15.664 10.736 16.064C10.736 16.672 10.952 17.176 11.384 17.576C11.816 17.976 12.392 18.176 13.112 18.176C13.496 18.176 13.88 18.128 14.264 18.032C14.664 17.92 15.016 17.792 15.32 17.648Z" fill="#B3B3B3"/>
</svg>
