<svg width="28" height="28" viewBox="0 0 28 28" fill="none" xmlns="http://www.w3.org/2000/svg">
<path d="M13.6008 15.8C11.5008 15.8 9.80078 14 9.80078 11.9C9.80078 9.8 11.5008 8 13.6008 8C15.7008 8 17.4008 9.8 17.4008 11.9C17.4008 14 15.7008 15.8 13.6008 15.8ZM13.6008 8.9C12.0008 8.9 10.8008 10.2 10.8008 11.8C10.8008 13.4 12.1008 14.7 13.6008 14.7C15.1008 14.7 16.4008 13.4 16.4008 11.8C16.5008 10.2 15.2008 8.9 13.6008 8.9Z" fill="#B3B3B3"/>
<path d="M13.6 24.8L13.2 24.4C13 24.2 6 16.9 6 11.9C6 7.5 9.4 4 13.6 4C17.8 4 21.2 7.5 21.2 11.9C21.2 16.8 14.2 24.2 13.9 24.5L13.6 24.8ZM13.6 5C10 5 7 8.1 7 11.9C7 15.9 12.2 21.9 13.6 23.4C15 21.8 20.2 15.8 20.2 11.9C20.3 8.1 17.3 5 13.6 5Z" fill="#B3B3B3"/>
</svg>
