<svg width="28" height="28" viewBox="0 0 28 28" fill="none" xmlns="http://www.w3.org/2000/svg">
<path d="M13.9218 4C8.40401 4 3.92188 8.48214 3.92188 14C3.92188 19.5179 8.40401 24 13.9218 24C19.4397 24 23.9218 19.5179 23.9218 14C23.9397 8.48214 19.4575 4 13.9218 4ZM14.7254 22.9107V22.1964C14.7254 21.75 14.3683 21.3929 13.9218 21.3929C13.4754 21.3929 13.1183 21.75 13.1183 22.1964V22.9107C8.83258 22.5357 5.38616 19.0893 5.01116 14.7857H5.70758C6.15401 14.7857 6.51115 14.4286 6.51115 13.9821C6.51115 13.5357 6.15401 13.1786 5.70758 13.1786H5.02901C5.42187 8.89286 8.85043 5.46429 13.1361 5.08929V5.75C13.1361 6.19643 13.4933 6.55357 13.9397 6.55357C14.3861 6.55357 14.7433 6.19643 14.7433 5.75V5.08929C19.029 5.46429 22.4575 8.89286 22.8504 13.1786H22.1718C21.7254 13.1786 21.3683 13.5357 21.3683 13.9821C21.3683 14.4286 21.7254 14.7857 22.1718 14.7857H22.8504C22.4754 19.0893 19.029 22.5357 14.7254 22.9107Z" fill="#B3B3B3"/>
<path d="M18.2183 9.44713L13.8822 14.4545H13.8649C13.8128 14.4545 13.7608 14.4545 13.7088 14.4735L10.0665 11.4653C9.82363 11.2749 9.47675 11.313 9.3033 11.5795C9.11251 11.8461 9.16455 12.2269 9.40737 12.4173L13.0497 15.4255C13.0844 15.8824 13.4313 16.2632 13.8649 16.2632C14.3158 16.2632 14.6974 15.8634 14.6974 15.3493C14.6974 15.3303 14.6974 15.3112 14.6974 15.2731L19.0335 10.2658C19.2416 10.0183 19.2416 9.63753 19.0162 9.40906C18.7907 9.19962 18.4264 9.21866 18.2183 9.44713Z" fill="#B3B3B3"/>
</svg>
