<svg width="28" height="28" viewBox="0 0 28 28" fill="none" xmlns="http://www.w3.org/2000/svg">
<path d="M10.8527 21.9502C9.18336 21.9502 7.72266 23.3062 7.72266 24.9751C7.72266 26.644 9.07903 28 10.8527 28C12.6265 28 13.9828 26.644 13.9828 24.9751C13.9828 23.3062 12.5221 21.9502 10.8527 21.9502ZM12.2091 24.9751C12.2091 25.7052 11.5831 26.3311 10.8527 26.3311C10.1224 26.3311 9.49637 25.7052 9.49637 24.9751C9.49637 24.2449 10.1224 23.6191 10.8527 23.6191C11.5831 23.6191 12.2091 24.2449 12.2091 24.9751Z" fill="white"/>
<path d="M20.9738 21.9502C19.3045 21.9502 17.8438 23.3062 17.8438 24.9751C17.8438 26.644 19.2001 28 20.9738 28C22.7476 28 24.1039 26.644 24.1039 24.9751C24.1039 23.3062 22.7476 21.9502 20.9738 21.9502ZM22.3302 24.9751C22.3302 25.7052 21.7042 26.3311 20.9738 26.3311C20.2435 26.3311 19.6175 25.7052 19.6175 24.9751C19.6175 24.2449 20.2435 23.6191 20.9738 23.6191C21.7042 23.6191 22.3302 24.2449 22.3302 24.9751Z" fill="white"/>
<path fill-rule="evenodd" clip-rule="evenodd" d="M24.8308 14.9456L23.7887 18.2992C23.6843 18.7164 23.3713 18.925 23.0583 18.925H10.7466C9.18159 18.925 8.86858 18.5078 8.45123 17.569L6.0515 7.13837H12.1746C12.1728 7.06467 12.1719 6.99074 12.1719 6.9166C12.1719 6.38738 12.2179 5.86896 12.3062 5.36515H5.63416L5.32115 4.11347C5.32115 4.00916 4.9038 2.75748 3.7561 2.23595C2.71274 1.81872 0.939026 1.61011 0.313009 1.61011H0.104336L0 3.38332H0.208672C1.04336 3.38332 2.39973 3.59194 2.92141 3.80055C3.33876 4.00916 3.54743 4.5307 3.54743 4.635L6.78185 18.0906V18.1949C7.40787 20.0724 8.55557 20.8026 10.7466 20.8026H23.1626H23.3713C24.3103 20.6982 25.145 19.9681 25.458 18.925L27.1375 13.3464C26.4618 13.9947 25.684 14.5367 24.8308 14.9456Z" fill="white"/>
<ellipse cx="21.0255" cy="6.91691" rx="6.88484" ry="6.9152" fill="#DD0500"/>
<path d="M22.8919 7.98754V8.97754H19.0719V7.98754H20.4919V4.49754C20.4186 4.59754 20.2853 4.70754 20.0919 4.82754C19.8986 4.94754 19.6886 5.04754 19.4619 5.12754C19.2419 5.20754 19.0453 5.24754 18.8719 5.24754V4.21754C19.0053 4.21754 19.1586 4.17754 19.3319 4.09754C19.5053 4.01754 19.6753 3.92421 19.8419 3.81754C20.0153 3.70421 20.1619 3.59754 20.2819 3.49754C20.4019 3.39087 20.4719 3.31421 20.4919 3.26754H21.6219V7.98754H22.8919Z" fill="white"/>
</svg>
