<svg width="28" height="28" viewBox="0 0 28 28" fill="none" xmlns="http://www.w3.org/2000/svg">
<path d="M14.3 24.2C11.3 24.2 8.4 23 6.2 20.8C6.1 20.6 6 20.3 6 20.1C6 19.8 6.1 19.6 6.3 19.4C7.3 18.6 8.5 18 9.4 17.6C10.2 17.2 10.3 15.8 10.2 15.6C10.2 15.5 10.1 15.4 9.9 15.3C9.7 15 9.3 14.6 9.2 14.1C9.2 14 9.1 13.6 9 13.2C8.4 10.2 8.4 10 8.6 9.8C8.7 9.7 8.8 9.6 8.9 9.6C8.9 9.6 9 9.6 9 9.5C8.9 8.6 8.5 6 10.1 4.8C11.4 3.8 13.4 3 14.8 3C15.1 3 15.4 3 15.8 3.2C16.1 3.3 16.3 3.5 16.5 3.8C17 4 17.5 4.3 18 4.9C18.9 6 19.1 7.5 19.1 8.9V9.2C19.1 9.3 19.1 9.5 19.1 9.5C19.2 9.6 19.4 9.7 19.5 9.8C19.9 10.4 18.9 13.4 18.7 14C18.6 14.4 18.3 14.7 18.1 14.9C18 15 17.9 15.2 17.8 15.3C17.7 15.6 17.9 17.3 18.6 17.5C20 18.1 21 18.8 21.8 19.4C21.9 19.5 22 19.6 22.2 19.8C22.5 20.2 22.4 20.7 22.1 21C19.9 23.1 17.1 24.2 14.3 24.2ZM14.3 23.2C16.9 23.2 19.3 22.2 21.3 20.4C21.2 20.4 21.2 20.3 21.1 20.2C20.4 19.6 19.5 19 18.2 18.4C16.8 17.9 16.6 15.5 16.9 14.9C17 14.5 17.3 14.3 17.4 14.1C17.6 13.9 17.7 13.8 17.7 13.6C18 12.7 18.5 10.8 18.5 10.2C18.4 10.1 18.2 10 18.1 9.9C17.9 9.6 18 9.3 18 9V8.8C18 7.6 17.9 6.3 17.2 5.5C16.7 4.9 16.3 4.7 16 4.7L15.8 4.6L15.7 4.4C15.7 4.3 15.6 4.2 15.3 4.1C15.2 4 15.1 4 14.8 4C13.8 4 11.9 4.6 10.7 5.6C9.6 6.5 9.9 8.7 10 9.4V9.6C10.1 10 9.7 10.3 9.5 10.4C9.6 10.8 9.9 12.1 10 12.8C10.2 13.6 10.2 13.8 10.2 13.9C10.2 14.1 10.4 14.3 10.6 14.6C10.8 14.8 10.9 15 11 15.2C11.2 15.9 11 17.8 9.7 18.5C8.9 18.9 7.7 19.4 6.8 20.2C9 22.1 11.6 23.2 14.3 23.2Z" fill="#B3B3B3"/>
</svg>
