<svg width="28" height="28" viewBox="0 0 28 28" fill="none" xmlns="http://www.w3.org/2000/svg">
<path d="M17.4714 23C15.1714 23 12.5714 21.4 9.67143 18.4C8.07143 16.7 5.87143 13.7 5.17143 11.1C4.77143 9.6 5.07143 7.9 6.07143 6.6C6.87143 5.6 7.97143 5 9.07143 5C10.2714 5 12.0714 6.3 12.5714 7.7C12.9714 8.5 12.7714 9.4 12.1714 10C11.8714 10.3 11.4714 10.6 11.2714 10.8C10.6714 11.2 10.5714 11.3 10.6714 11.7C10.8714 12.3 11.9714 14 13.0714 15.1C14.5714 16.7 15.6714 17.4 16.0714 17.4C16.3714 17.4 16.7714 17 17.0714 16.6C17.6714 16 18.2714 15.3 19.1714 15.3C21.1714 15.3 22.6714 17.3 22.7714 19C22.7714 20.7 20.3714 22.3 19.2714 22.7C18.6714 22.9 18.0714 23 17.4714 23ZM9.07143 5.9C8.17143 5.9 7.47143 6.3 6.87143 7.1C6.07143 8.1 5.77143 9.5 6.17143 10.7C6.87143 13.1 8.97143 15.9 10.4714 17.6C13.7714 21.1 16.7714 22.5 18.8714 21.7C20.0714 21.2 21.7714 19.9 21.7714 18.9C21.7714 17.9 20.7714 16.2 19.1714 16.2C18.6714 16.2 18.2714 16.7 17.7714 17.2C17.2714 17.8 16.7714 18.3 15.9714 18.3C14.9714 18.3 13.4714 16.9 12.2714 15.7C11.2714 14.7 9.97143 12.8 9.67143 12C9.37143 10.9 10.0714 10.4 10.6714 10C10.9714 9.8 11.1714 9.6 11.4714 9.3C11.5714 9.2 11.9714 8.8 11.6714 8C11.1714 6.9 9.77143 5.9 9.07143 5.9Z" fill="#B3B3B3"/>
</svg>
