<svg width="28" height="28" viewBox="0 0 28 28" fill="none" xmlns="http://www.w3.org/2000/svg">
<path d="M6.2 23.1C5.7 23.1 5.3 22.8 5.2 22.3C5.1 22 5.2 21.7 5.4 21.4V21.3L5.7 21.1C5.7 21.1 5.7 21.1 5.8 21.1H5.9C6.5 20.7 7.5 19.9 7.5 18.7C5.2 17.1 4 14.8 4 12.4C4 7.8 8.6 4 14.1 4C19.6 4 24.2 7.8 24.2 12.4C24.2 17 19.6 20.8 14.1 20.8C13.8 20.8 13.4 20.8 13.1 20.8C10.9 22.8 8.4 23.1 6.2 23.1C6.2 23.1 6.3 23.1 6.2 23.1ZM6.6 21.8L6.2 22C8.2 22 10.5 21.7 12.5 19.9L12.7 19.7H12.9C13.3 19.7 13.7 19.8 14.1 19.8C19.1 19.8 23.2 16.5 23.2 12.4C23.2 8.3 19.1 5 14.1 5C9.1 5 5 8.3 5 12.4C5 14.6 6.2 16.6 8.2 18L8.4 18.1V18.6C8.4 19.9 7.8 21 6.6 21.8Z" fill="#B3B3B3"/>
</svg>
