<svg width="25" height="25" viewBox="0 0 25 25" fill="none" xmlns="http://www.w3.org/2000/svg">
<path fill-rule="evenodd" clip-rule="evenodd" d="M12.8714 2.07152C12.633 1.97616 12.367 1.97616 12.1286 2.07152L2.62861 5.87152C2.24895 6.02339 2 6.3911 2 6.8V21.8459C2 22.3982 2.44772 22.8459 3 22.8459H5V20.8459V19.8459V18.8459V16.8459V15.8459V14.8459V13.8459C5 12.1891 6.34315 10.8459 8 10.8459H17C18.6569 10.8459 20 12.1891 20 13.8459V14.8459V15.8459V16.8459V18.8459V19.8459V20.8459V22.8459H22C22.5523 22.8459 23 22.3982 23 21.8459V6.8C23 6.3911 22.751 6.02339 22.3714 5.87152L12.8714 2.07152ZM20 24.8459H19H6H5L3 24.8459C1.34315 24.8459 0 23.5028 0 21.8459V6.8C0 5.57329 0.746853 4.47016 1.88583 4.01457L11.3858 0.21457C12.1011 -0.0715227 12.8989 -0.0715239 13.6142 0.21457L23.1142 4.01457C24.2531 4.47016 25 5.57329 25 6.8V21.8459C25 23.5028 23.6569 24.8459 22 24.8459L20 24.8459ZM18 22.8459V20.8459H7V22.8459H18ZM18 18.8459V16.8459H7V18.8459H18ZM5 7.84593C5 7.29365 5.44772 6.84593 6 6.84593H19C19.5523 6.84593 20 7.29365 20 7.84593C20 8.39822 19.5523 8.84593 19 8.84593H6C5.44772 8.84593 5 8.39822 5 7.84593ZM18 14.8459H7V13.8459C7 13.2936 7.44772 12.8459 8 12.8459H17C17.5523 12.8459 18 13.2936 18 13.8459V14.8459Z" fill="white"/>
</svg>
