<svg width="14" height="26" viewBox="0 0 14 26" fill="none" xmlns="http://www.w3.org/2000/svg">
<path fill-rule="evenodd" clip-rule="evenodd" d="M12.9999 4.20697C12.9999 4.75924 12.5522 5.20695 11.9999 5.20695H10.0969C9.52193 5.20695 8.94164 5.76162 8.94164 6.17426V7.93724C8.94164 8.48953 9.38935 8.93725 9.94164 8.93725H11.9142C12.4968 8.93725 12.9566 9.43367 12.8965 10.0131C12.8087 10.8606 12.7059 11.6211 12.6264 12.1618C12.5557 12.6432 12.1406 12.9933 11.6541 12.9933H9.9209C9.36862 12.9933 8.9209 13.441 8.9209 13.9933V24C8.9209 24.5523 8.47319 25 7.9209 25H4.59339C4.04111 25 3.59339 24.5523 3.59339 24V13.992C3.59339 13.4397 3.14568 12.992 2.59339 12.992H2C1.44772 12.992 1 12.5442 1 11.992V9.95164C1 9.39936 1.44772 8.95165 2 8.95165H2.59339C3.14568 8.95165 3.59339 8.50393 3.59339 7.95165V5.64832C3.59339 5.04428 3.4623 1 9.052 1H12C12.5523 1 13 1.44773 13 2.00002L12.9999 4.20697Z" stroke="white" stroke-width="2"/>
</svg>
