<svg width="20" height="20" viewBox="0 0 20 20" fill="none" xmlns="http://www.w3.org/2000/svg">
<path fill-rule="evenodd" clip-rule="evenodd" d="M10 14.5455C12.5107 14.5455 14.5455 12.5107 14.5455 10C14.5455 7.48935 12.5107 5.45455 10 5.45455C8.54048 5.45455 7.24432 6.14169 6.41335 7.20881C5.81321 7.9794 5.45455 8.94709 5.45455 10C5.45455 12.5107 7.48935 14.5455 10 14.5455ZM10 12.2727C11.2536 12.2727 12.2727 11.2553 12.2727 10C12.2727 8.74467 11.2536 7.72727 10 7.72727C8.74645 7.72727 7.72727 8.74467 7.72727 10C7.72727 10.4137 7.83736 10.8008 8.02912 11.1346C8.4233 11.8146 9.15838 12.2727 10 12.2727Z" fill="white"/>
<path d="M15.4545 5.45455C15.9553 5.45455 16.3636 5.04794 16.3636 4.54545C16.3636 4.21342 16.1861 3.92401 15.9197 3.7642C15.7848 3.68253 15.625 3.63636 15.4545 3.63636C14.9538 3.63636 14.5455 4.04297 14.5455 4.54545C14.5455 5.04794 14.9538 5.45455 15.4545 5.45455Z" fill="white"/>
<path fill-rule="evenodd" clip-rule="evenodd" d="M4.54545 0C2.0348 0 0 2.0348 0 4.54545V15.4545C0 16.44 0.3125 17.3526 0.84517 18.0966C1.67259 19.2489 3.02202 20 4.54545 20H15.4545C15.6889 20 15.9197 19.9822 16.1435 19.9485C16.4666 19.8988 16.7791 19.8153 17.0774 19.7017C18.7855 19.0483 20 17.3935 20 15.4545V4.54545C20 2.0348 17.9652 0 15.4545 0H4.54545ZM15.4545 2.27273H4.54545C3.2919 2.27273 2.27273 3.29013 2.27273 4.54545V15.4545C2.27273 15.9446 2.42898 16.3991 2.69176 16.7702C3.10369 17.3491 3.78196 17.7273 4.54545 17.7273H15.4545C16.2251 17.7273 16.9105 17.342 17.3224 16.7525C17.5781 16.3849 17.7273 15.9375 17.7273 15.4545V4.54545C17.7273 3.29013 16.7081 2.27273 15.4545 2.27273Z" fill="white"/>
</svg>
