<svg xmlns="http://www.w3.org/2000/svg" xmlns:xlink="http://www.w3.org/1999/xlink" viewBox="0 0 736.31 172.73"><defs><style>.cls-1{fill:none;}.cls-2{fill:#909090;}.cls-3,.cls-4{fill:#fff;}.cls-4{opacity:0.7;isolation:isolate;}.cls-5,.cls-8{fill:#3a3a3a;}.cls-5{stroke:#fff;stroke-width:2px;}.cls-6{clip-path:url(#clip-path);}.cls-7{clip-path:url(#clip-path-2);}</style><clipPath id="clip-path"><rect class="cls-1" x="477.72" y="98.94" width="15.8" height="22.46"/></clipPath><clipPath id="clip-path-2"><rect class="cls-1" x="1.67" y="89.99" width="31.6" height="39.92"/></clipPath></defs><title>nring-map-2-legend</title><g id="Layer_2" data-name="Layer 2"><g id="Layer_1-2" data-name="Layer 1"><g id="Legend"><path class="cls-2" d="M33.27,0H0V33.27H33.27Z"/><path class="cls-3" d="M18.38,18l-1.75-4.82L14.88,18Zm-2.77-7.74H17.8l4.67,12.41H20l-1.17-3.07H14.44l-1.16,3.07H10.8Z"/><path class="cls-4" d="M202.07,58.51h-3.54v9.07h-1V58.51H194v-.87h8.06Zm.17,11a1.24,1.24,0,0,0,.42.27,1.33,1.33,0,0,0,.45.07.66.66,0,0,0,.35-.11,1,1,0,0,0,.35-.37,3.71,3.71,0,0,0,.37-.68c.12-.29.25-.66.4-1.11l-3.18-7.29h1l2.71,6.41,2.5-6.41h.91l-3.4,8.49a6,6,0,0,1-.43.91,2.4,2.4,0,0,1-.45.59,1.31,1.31,0,0,1-.49.31,1.47,1.47,0,0,1-.56.1,1.3,1.3,0,0,1-1-.34Zm9.25-1.79a2.83,2.83,0,0,1-1-.17,2.59,2.59,0,0,1-.77-.49,2.23,2.23,0,0,1-.5-.71,2.26,2.26,0,0,1-.18-.9,1.8,1.8,0,0,1,.22-.88,2.2,2.2,0,0,1,.63-.7,3,3,0,0,1,1-.45,4.3,4.3,0,0,1,1.23-.17,7.42,7.42,0,0,1,1.14.1,5.38,5.38,0,0,1,1,.28V63a2.06,2.06,0,0,0-.55-1.52,2,2,0,0,0-1.51-.57,3.21,3.21,0,0,0-1.15.22,5.56,5.56,0,0,0-1.19.64l-.34-.63a5,5,0,0,1,2.75-1,3,3,0,0,1,2.16.77,2.85,2.85,0,0,1,.78,2.13v3.29c0,.26.12.39.35.39v.84a2,2,0,0,1-.36,0,.86.86,0,0,1-.58-.18.7.7,0,0,1-.21-.5l0-.58a3.23,3.23,0,0,1-1.27,1A3.89,3.89,0,0,1,211.49,67.72Zm.23-.73a3.17,3.17,0,0,0,1.35-.28,2.21,2.21,0,0,0,1-.74.84.84,0,0,0,.25-.55V64.24a4.78,4.78,0,0,0-1-.28,5,5,0,0,0-1-.1,2.91,2.91,0,0,0-1.64.42,1.28,1.28,0,0,0-.63,1.1,1.61,1.61,0,0,0,.12.63,2,2,0,0,0,.37.52,1.82,1.82,0,0,0,.56.34A1.92,1.92,0,0,0,211.72,67Zm4.61-.21a1.51,1.51,0,0,0,.69-.21,1.49,1.49,0,0,0,.5-.68,6,6,0,0,0,.38-1.38c.11-.57.22-1.33.32-2.25l.21-2h4.29v7.29h-.94V61h-2.46l-.2,1.63a22.54,22.54,0,0,1-.41,2.4,5.79,5.79,0,0,1-.53,1.52,1.79,1.79,0,0,1-.71.79,2.33,2.33,0,0,1-1,.26Zm11.65.94a3.63,3.63,0,0,1-3.38-2.34,3.92,3.92,0,0,1-.27-1.47,3.84,3.84,0,0,1,.27-1.44,3.56,3.56,0,0,1,1.91-2,3.42,3.42,0,0,1,1.46-.31,3.56,3.56,0,0,1,2.6,1.12,3.87,3.87,0,0,1,.75,1.19,4,4,0,0,1,.26,1.43v.22a.62.62,0,0,1,0,.16h-6.25a3.29,3.29,0,0,0,.27,1.09,3.1,3.1,0,0,0,.6.85A2.42,2.42,0,0,0,228,67a2.47,2.47,0,0,0,.7-.1,2.77,2.77,0,0,0,.64-.26,2.35,2.35,0,0,0,.53-.41,2.08,2.08,0,0,0,.37-.54l.82.22a2.51,2.51,0,0,1-.47.74,3.73,3.73,0,0,1-.72.58,3.32,3.32,0,0,1-.89.36A3.88,3.88,0,0,1,228,67.72Zm2.69-4.17a2.77,2.77,0,0,0-.28-1.06,2.7,2.7,0,0,0-.59-.85,2.44,2.44,0,0,0-.82-.54,2.55,2.55,0,0,0-1-.2,2.59,2.59,0,0,0-1,.2,2.63,2.63,0,0,0-.84.54,2.84,2.84,0,0,0-.58.85,3.29,3.29,0,0,0-.25,1.06Zm4.8,4h-.93V61.11H232v-.82H238v.82h-2.56Z"/><path class="cls-4" d="M363.34,113.31h.22a2.09,2.09,0,0,0,.52-.13,1.32,1.32,0,0,0,.46-.37,2.92,2.92,0,0,0,.41-.69,7,7,0,0,0,.35-1.17c.11-.48.21-1.06.3-1.73s.18-1.5.26-2.44l.21-2.55h5.2v9.08h1.42v3.47h-.87v-2.61h-7.6v2.61h-.88Zm7,0V105.1H367l-.14,1.77c-.07.94-.16,1.77-.26,2.49a16.39,16.39,0,0,1-.35,1.86,5.87,5.87,0,0,1-.47,1.3,2.39,2.39,0,0,1-.6.79Zm3.59,2.79a1.11,1.11,0,0,0,.42.27,1.31,1.31,0,0,0,.44.07.63.63,0,0,0,.35-.11,1,1,0,0,0,.35-.37,2.8,2.8,0,0,0,.37-.68c.12-.29.26-.66.4-1.11l-3.17-7.29h1l2.7,6.41,2.5-6.41h.91l-3.4,8.5a6,6,0,0,1-.43.91,2.54,2.54,0,0,1-.45.58,1.13,1.13,0,0,1-.49.31,1.43,1.43,0,0,1-.56.1,1.3,1.3,0,0,1-1-.34Zm7.6-1.93v-7.29h.94v6.47h2.74v-6.47h.94v6.47h2.74v-6.47h.94v7.29Zm13.57.14a3.41,3.41,0,0,1-2.62-1.12,3.77,3.77,0,0,1-.77-1.22,3.92,3.92,0,0,1-.27-1.47,3.83,3.83,0,0,1,1-2.63,3.71,3.71,0,0,1,1.17-.81,3.57,3.57,0,0,1,2.91,0,3.52,3.52,0,0,1,1.15.81,4.17,4.17,0,0,1,.74,1.19,3.82,3.82,0,0,1,.26,1.43v.22a.62.62,0,0,1,0,.16h-6.24a3.06,3.06,0,0,0,.26,1.09,3.1,3.1,0,0,0,.6.85,2.77,2.77,0,0,0,.83.58,2.64,2.64,0,0,0,1,.2,2.88,2.88,0,0,0,.7-.1,3.08,3.08,0,0,0,.64-.27,2.15,2.15,0,0,0,.53-.41,1.93,1.93,0,0,0,.37-.54l.82.22a2.7,2.7,0,0,1-.47.75,4.11,4.11,0,0,1-.72.57,3.32,3.32,0,0,1-.89.36A3.49,3.49,0,0,1,395.07,114.31Zm2.68-4.17a2.6,2.6,0,0,0-.28-1.06,2.68,2.68,0,0,0-.58-.84,2.46,2.46,0,0,0-.83-.55,2.54,2.54,0,0,0-1-.2,2.64,2.64,0,0,0-1,.2,2.5,2.5,0,0,0-.84.55,2.68,2.68,0,0,0-.58.84,3.29,3.29,0,0,0-.25,1.06Zm6-3.26a1.85,1.85,0,0,1,.72.14,1.61,1.61,0,0,1,.57.39,1.51,1.51,0,0,1,.38.56,1.85,1.85,0,0,1,.07,1.21,2.15,2.15,0,0,1-.18.48,2.52,2.52,0,0,1-.32.43,1.7,1.7,0,0,1-.47.29,1.71,1.71,0,0,1,1,.64,2,2,0,0,1,.18,2,1.74,1.74,0,0,1-.45.63,1.91,1.91,0,0,1-.67.42,2.33,2.33,0,0,1-.85.14h-3.52v-7.29Zm-.37,3.22a1.2,1.2,0,0,0,.91-.36,1.36,1.36,0,0,0,.33-.93,1.32,1.32,0,0,0-.28-.85,1,1,0,0,0-.87-.37H401.1v2.51Zm.22,3.36a1.29,1.29,0,0,0,.53-.11,1.33,1.33,0,0,0,.42-.3,1.73,1.73,0,0,0,.27-.43,1.44,1.44,0,0,0,.1-.5,1.32,1.32,0,0,0-.35-.9,1.19,1.19,0,0,0-.94-.39H401.1v2.63Zm3.89-6.58h.93v2.59H410a3,3,0,0,1,.95.15,2.16,2.16,0,0,1,.78.45,2,2,0,0,1,.53.74,2.46,2.46,0,0,1,.2,1,2.54,2.54,0,0,1-.2,1,2.05,2.05,0,0,1-.53.73,2.16,2.16,0,0,1-.78.45,3,3,0,0,1-.95.15h-2.52Zm5.89,0h.92v7.29h-.92ZM410,113.36a1.55,1.55,0,0,0,1.12-.4,1.57,1.57,0,0,0,.4-1.14,1.42,1.42,0,0,0-1.52-1.54h-1.59v3.08Zm9.55,1a3.74,3.74,0,0,1-1.47-.29,3.8,3.8,0,0,1-1.15-.83,3.81,3.81,0,0,1-1-2.69,4,4,0,0,1,.26-1.44,3.85,3.85,0,0,1,.76-1.19,3.67,3.67,0,0,1,1.16-.81,3.42,3.42,0,0,1,1.46-.31,3.28,3.28,0,0,1,1.45.31,3.42,3.42,0,0,1,1.15.81,3.78,3.78,0,0,1,.74,1.19,3.83,3.83,0,0,1,.27,1.43v.22a.62.62,0,0,1,0,.16h-6.25a3.29,3.29,0,0,0,.27,1.09,3.1,3.1,0,0,0,.6.85,2.65,2.65,0,0,0,.83.58,2.59,2.59,0,0,0,1,.2,2.75,2.75,0,0,0,.7-.1,3.17,3.17,0,0,0,.65-.27,2.6,2.6,0,0,0,.53-.41,1.7,1.7,0,0,0,.36-.54l.83.22a2.52,2.52,0,0,1-.48.75,3.7,3.7,0,0,1-.71.57,3.26,3.26,0,0,1-.9.36A3.4,3.4,0,0,1,419.55,114.31Zm2.69-4.17a2.77,2.77,0,0,0-.28-1.06,2.55,2.55,0,0,0-.59-.84,2.42,2.42,0,0,0-.82-.55,2.55,2.55,0,0,0-1-.2,2.67,2.67,0,0,0-1,.2,2.71,2.71,0,0,0-.84.55,2.83,2.83,0,0,0-.57.84,3.29,3.29,0,0,0-.25,1.06Z"/><path class="cls-4" d="M203.28,115.12V107l-3.62,6.31h-.58L195.46,107v8.16h-1v-9.94h1l3.87,6.81,3.91-6.81h1v9.94Zm6.36.14a3.74,3.74,0,0,1-1.47-.29,3.8,3.8,0,0,1-1.15-.83,3.81,3.81,0,0,1-1-2.69,4,4,0,0,1,.26-1.44,3.85,3.85,0,0,1,.76-1.19,3.67,3.67,0,0,1,1.16-.81,3.38,3.38,0,0,1,1.46-.31,3.31,3.31,0,0,1,1.45.31,3.46,3.46,0,0,1,1.16.81A4,4,0,0,1,213,110a3.78,3.78,0,0,1,.26,1.43v.22a.62.62,0,0,1,0,.16H207a3.29,3.29,0,0,0,.27,1.09,3.1,3.1,0,0,0,.6.85,2.65,2.65,0,0,0,.83.58,2.58,2.58,0,0,0,1,.19,2.37,2.37,0,0,0,.7-.1,2.68,2.68,0,0,0,.65-.26,2.15,2.15,0,0,0,.53-.41,2.08,2.08,0,0,0,.37-.54l.82.22a2.51,2.51,0,0,1-.47.74,3.73,3.73,0,0,1-.72.58,3.26,3.26,0,0,1-.9.36A3.75,3.75,0,0,1,209.64,115.26Zm2.69-4.17a2.6,2.6,0,0,0-.28-1.06,2.84,2.84,0,0,0-.58-.85,2.7,2.7,0,0,0-.83-.54,2.55,2.55,0,0,0-1-.2,2.67,2.67,0,0,0-1,.2,2.87,2.87,0,0,0-.84.54,3,3,0,0,0-.57.85,3.29,3.29,0,0,0-.25,1.06Zm1.37,3.2h.42a1,1,0,0,0,.53-.3,2.14,2.14,0,0,0,.42-.76,8,8,0,0,0,.32-1.34c.09-.56.19-1.26.29-2.09l.23-2h4.27v6.46h.89v3.08h-.84v-2.25h-5.74v2.25h-.79Zm5.55,0v-5.71h-2.46l-.21,1.63a20.19,20.19,0,0,1-.52,2.71,3.23,3.23,0,0,1-.64,1.37Zm3.34-6.46h.94v6.46h3.57v-6.46H228v6.46h1.22v3.08h-.83v-2.25h-5.82Zm11,7.43a3.74,3.74,0,0,1-1.47-.29,3.8,3.8,0,0,1-1.15-.83,3.81,3.81,0,0,1-1-2.69,4,4,0,0,1,.26-1.44,3.85,3.85,0,0,1,.76-1.19,3.67,3.67,0,0,1,1.16-.81,3.42,3.42,0,0,1,1.46-.31,3.28,3.28,0,0,1,1.45.31,3.42,3.42,0,0,1,1.15.81,3.67,3.67,0,0,1,.74,1.19,3.79,3.79,0,0,1,.27,1.43v.22a.62.62,0,0,1,0,.16H231a3.29,3.29,0,0,0,.27,1.09,3.1,3.1,0,0,0,.6.85,2.65,2.65,0,0,0,.83.58,2.58,2.58,0,0,0,1,.19,2.37,2.37,0,0,0,.7-.1,2.68,2.68,0,0,0,.65-.26,2.35,2.35,0,0,0,.53-.41,2.08,2.08,0,0,0,.37-.54l.82.22a2.51,2.51,0,0,1-.47.74,3.73,3.73,0,0,1-.72.58,3.32,3.32,0,0,1-.89.36A3.88,3.88,0,0,1,233.61,115.26Zm2.69-4.17A2.77,2.77,0,0,0,236,110a2.7,2.7,0,0,0-.59-.85,2.62,2.62,0,0,0-1.82-.74,2.67,2.67,0,0,0-1,.2,2.87,2.87,0,0,0-.84.54,3,3,0,0,0-.57.85,3.29,3.29,0,0,0-.25,1.06Zm3.33-.11h4.09v-3.15h.94v7.29h-.94v-3.34h-4.09v3.34h-.94v-7.29h.94Zm9.87,4.14h-.92v-6.47H246v-.82h6v.82H249.5Zm7.64.14a3,3,0,0,1-1.64-.46,3.89,3.89,0,0,1-1.13-1.19v4.49h-1V107.83h.85v1.41a3.52,3.52,0,0,1,1.16-1.11,3.09,3.09,0,0,1,2.94-.11,3.62,3.62,0,0,1,1.1.84,3.94,3.94,0,0,1,.71,1.21,3.8,3.8,0,0,1,.27,1.41,4.43,4.43,0,0,1-.24,1.46,3.66,3.66,0,0,1-.69,1.2,3.28,3.28,0,0,1-1,.83A3.05,3.05,0,0,1,257.14,115.26Zm-.26-.84a2.21,2.21,0,0,0,1.06-.25,2.69,2.69,0,0,0,.83-.66,3,3,0,0,0,.53-.94,3.37,3.37,0,0,0,.18-1.09,3.05,3.05,0,0,0-.21-1.12,3.2,3.2,0,0,0-.57-.94,2.88,2.88,0,0,0-.87-.64,2.4,2.4,0,0,0-1.07-.24,2.28,2.28,0,0,0-.77.15,3.33,3.33,0,0,0-.74.4,2.89,2.89,0,0,0-.59.57,1.67,1.67,0,0,0-.29.69v2.24a3.23,3.23,0,0,0,.42.72,3,3,0,0,0,.59.59,2.86,2.86,0,0,0,.71.38A2.35,2.35,0,0,0,256.88,114.42Z"/><path class="cls-4" d="M364.22,63.05h1.51L369,58.64h1.12l-3.48,4.79,3.85,5.15h-1.12l-3.53-4.66h-1.6v4.66h-1V58.64h1Zm9.09,5.67a2.77,2.77,0,0,1-1-.17,2.47,2.47,0,0,1-.77-.49,2.12,2.12,0,0,1-.69-1.61,1.81,1.81,0,0,1,.23-.88,2.2,2.2,0,0,1,.63-.7,3,3,0,0,1,1-.45,4.4,4.4,0,0,1,1.23-.17,7.31,7.31,0,0,1,1.14.1,5.38,5.38,0,0,1,1,.28V64a2.06,2.06,0,0,0-.55-1.52,2,2,0,0,0-1.51-.57,3.25,3.25,0,0,0-1.15.22,5.8,5.8,0,0,0-1.19.64l-.33-.63a5,5,0,0,1,2.74-1,3,3,0,0,1,2.16.77,2.85,2.85,0,0,1,.78,2.13v3.29c0,.26.12.39.35.39v.84a2,2,0,0,1-.36,0,.87.87,0,0,1-.58-.18.7.7,0,0,1-.21-.5l0-.58a3.26,3.26,0,0,1-1.28,1A3.89,3.89,0,0,1,373.31,68.72Zm.23-.73a3.21,3.21,0,0,0,1.36-.28,2.18,2.18,0,0,0,1-.74.87.87,0,0,0,.18-.26.68.68,0,0,0,.07-.29V65.24a4.86,4.86,0,0,0-1-.28,5.1,5.1,0,0,0-1-.1,2.91,2.91,0,0,0-1.64.42,1.28,1.28,0,0,0-.63,1.1,1.45,1.45,0,0,0,.13.63,1.73,1.73,0,0,0,.36.52,2.09,2.09,0,0,0,.56.34A2,2,0,0,0,373.54,68Zm9.77-6.79a4.9,4.9,0,0,1,1.54.38,3.42,3.42,0,0,1,1.18.8,3.34,3.34,0,0,1,.72,1.15,4,4,0,0,1,0,2.89,3,3,0,0,1-.74,1.15,3.51,3.51,0,0,1-1.16.77,4.9,4.9,0,0,1-1.54.35v2.87h-.95V68.71a5,5,0,0,1-1.56-.35,3.71,3.71,0,0,1-1.17-.79,3.35,3.35,0,0,1-.76-1.15,4.3,4.3,0,0,1,0-2.89,3.7,3.7,0,0,1,.74-1.17,3.6,3.6,0,0,1,1.18-.79,4.82,4.82,0,0,1,1.57-.38V58.36h.95Zm-.95.9a3.14,3.14,0,0,0-2.05.84,2.7,2.7,0,0,0-.71,2,2.79,2.79,0,0,0,.73,2,3.08,3.08,0,0,0,2,.85Zm.95,5.72a3.11,3.11,0,0,0,2-.86,3.15,3.15,0,0,0,0-4,3.06,3.06,0,0,0-2-.85Zm8.45.9a3.74,3.74,0,0,1-1.47-.29,3.8,3.8,0,0,1-1.15-.83,3.81,3.81,0,0,1-1-2.69,4,4,0,0,1,.26-1.44,3.85,3.85,0,0,1,.76-1.19,3.52,3.52,0,0,1,1.16-.81,3.38,3.38,0,0,1,1.46-.31,3.31,3.31,0,0,1,1.45.31,3.38,3.38,0,0,1,1.15.81,3.67,3.67,0,0,1,.74,1.19,3.79,3.79,0,0,1,.27,1.43v.22c0,.08,0,.13,0,.16H389.1a3.29,3.29,0,0,0,.27,1.09,3.1,3.1,0,0,0,.6.85,2.65,2.65,0,0,0,.83.58,2.58,2.58,0,0,0,1,.19,2.37,2.37,0,0,0,.7-.1,2.68,2.68,0,0,0,.65-.26,2.6,2.6,0,0,0,.53-.41,1.82,1.82,0,0,0,.36-.54l.83.22a2.35,2.35,0,0,1-.48.74,3.39,3.39,0,0,1-.71.58,3.26,3.26,0,0,1-.9.36A3.75,3.75,0,0,1,391.76,68.72Zm2.69-4.17a2.77,2.77,0,0,0-.28-1.06,2.87,2.87,0,0,0-.59-.85,2.62,2.62,0,0,0-1.82-.74,2.67,2.67,0,0,0-1,.2,2.87,2.87,0,0,0-.84.54,3,3,0,0,0-.57.85,3.29,3.29,0,0,0-.25,1.06Z"/><path class="cls-4" d="M515.06,58.32h7.68v9.94h-1V59.19H516v9.07h-1Zm10,11.87a1.24,1.24,0,0,0,.42.27,1.33,1.33,0,0,0,.45.07.66.66,0,0,0,.35-.11,1,1,0,0,0,.35-.37,3.22,3.22,0,0,0,.36-.68c.12-.29.26-.66.41-1.11L524.2,61h1l2.7,6.41L530.39,61h.91l-3.4,8.5a6,6,0,0,1-.44.91A2.54,2.54,0,0,1,527,71a1.13,1.13,0,0,1-.49.31,1.4,1.4,0,0,1-.56.1,1.26,1.26,0,0,1-1-.34Zm8.54-6.07h4.09V61h.93v7.29h-.93V64.92h-4.09v3.34h-.94V61h.94ZM545.05,61h1.06l-2.76,3.53,3,3.76h-1.07l-2.57-3.33h-1v3.33h-.94V61h.94v3.22h1Zm5.18,7.29h-.92V61.79h-2.56V61h6v.82h-2.56Zm7.47,1.93a1.24,1.24,0,0,0,.42.27,1.33,1.33,0,0,0,.45.07.66.66,0,0,0,.35-.11,1,1,0,0,0,.35-.37,3.22,3.22,0,0,0,.36-.68c.12-.29.26-.66.41-1.11L556.86,61h1l2.7,6.41L563.05,61H564l-3.4,8.5a6,6,0,0,1-.44.91,2.83,2.83,0,0,1-.44.58,1.19,1.19,0,0,1-.49.31,1.47,1.47,0,0,1-.56.1,1.29,1.29,0,0,1-1-.34ZM571,68.26h-.92V61.79h-3.88v6.47h-.94V61H571Zm5.88.14a2.91,2.91,0,0,1-1.64-.46,3.81,3.81,0,0,1-1.14-1.19v4.49h-.95V61h.86v1.41a3.31,3.31,0,0,1,1.16-1.1,2.91,2.91,0,0,1,1.55-.44,3.06,3.06,0,0,1,1.39.32,3.64,3.64,0,0,1,1.8,2.05,3.8,3.8,0,0,1,.27,1.41,4.43,4.43,0,0,1-.24,1.46,3.82,3.82,0,0,1-.68,1.2,3.28,3.28,0,0,1-1,.83A3.12,3.12,0,0,1,576.92,68.4Zm-.27-.84a2.18,2.18,0,0,0,1.06-.25,2.58,2.58,0,0,0,.83-.66,3,3,0,0,0,.53-.94,3.37,3.37,0,0,0,.18-1.09A3.05,3.05,0,0,0,579,63.5a3.2,3.2,0,0,0-.57-.94,2.66,2.66,0,0,0-.87-.64,2.36,2.36,0,0,0-1.06-.24,2,2,0,0,0-.77.16,2.77,2.77,0,0,0-.74.39,2.66,2.66,0,0,0-.59.57,1.57,1.57,0,0,0-.3.69v2.24a4.77,4.77,0,0,0,.42.73,3.59,3.59,0,0,0,.59.58,2.92,2.92,0,0,0,.72.38A2.29,2.29,0,0,0,576.65,67.56Zm7,.84a2.43,2.43,0,0,1-1.74-.66,2.23,2.23,0,0,1-.5-.71,2.26,2.26,0,0,1-.18-.9,1.8,1.8,0,0,1,.22-.88,2.2,2.2,0,0,1,.63-.7,3.22,3.22,0,0,1,1-.45,4.31,4.31,0,0,1,1.23-.16,7.27,7.27,0,0,1,1.13.09,5.28,5.28,0,0,1,1,.28v-.65a2.11,2.11,0,0,0-.55-1.53,2,2,0,0,0-1.51-.57,3.17,3.17,0,0,0-1.15.22,5.56,5.56,0,0,0-1.19.64l-.34-.63a5,5,0,0,1,2.75-.95,3,3,0,0,1,2.15.77,2.83,2.83,0,0,1,.79,2.13V67c0,.26.11.39.35.39v.84a2,2,0,0,1-.37,0,.85.85,0,0,1-.57-.18.7.7,0,0,1-.21-.5l0-.58a3.23,3.23,0,0,1-1.27,1A3.92,3.92,0,0,1,583.68,68.4Zm.22-.73a3.18,3.18,0,0,0,1.36-.28,2.12,2.12,0,0,0,1-.74.75.75,0,0,0,.19-.26.88.88,0,0,0,.07-.28V64.92a4.78,4.78,0,0,0-1-.28,5,5,0,0,0-1-.1,2.89,2.89,0,0,0-1.64.42,1.28,1.28,0,0,0-.63,1.1,1.61,1.61,0,0,0,.12.63,1.6,1.6,0,0,0,.93.86A1.91,1.91,0,0,0,583.9,67.67Zm9.2-6.7a1.64,1.64,0,0,1,.71.14,1.56,1.56,0,0,1,.58.39,1.64,1.64,0,0,1,.38.56,1.78,1.78,0,0,1,.14.7,2.08,2.08,0,0,1-.07.5,1.72,1.72,0,0,1-.19.49,1.8,1.8,0,0,1-.32.42,1.66,1.66,0,0,1-.46.3,1.72,1.72,0,0,1,1,.64,2,2,0,0,1,.18,2,1.74,1.74,0,0,1-.45.63,2,2,0,0,1-.67.42,2.63,2.63,0,0,1-.86.14h-3.51V61Zm-.38,3.22a1.14,1.14,0,0,0,.91-.37,1.28,1.28,0,0,0,.34-.92,1.32,1.32,0,0,0-.28-.85,1,1,0,0,0-.87-.37h-2.37v2.51Zm.23,3.36a1.28,1.28,0,0,0,.95-.41,1.45,1.45,0,0,0,.26-.43,1.25,1.25,0,0,0,.1-.51,1.27,1.27,0,0,0-.35-.89,1.16,1.16,0,0,0-.94-.39h-2.52v2.63Zm2.78-.09a1.36,1.36,0,0,0,.68-.21,1.5,1.5,0,0,0,.51-.68,6.67,6.67,0,0,0,.38-1.37c.11-.58.22-1.33.32-2.26l.21-2h4.28v7.29h-.94V61.72h-2.46l-.2,1.63a23.57,23.57,0,0,1-.4,2.41,6.88,6.88,0,0,1-.53,1.51,2,2,0,0,1-.72.8,2.44,2.44,0,0,1-1,.25Zm11.65.94a3.67,3.67,0,0,1-1.47-.29,3.8,3.8,0,0,1-1.15-.83,3.87,3.87,0,0,1-1-2.69,3.84,3.84,0,0,1,.27-1.44,4,4,0,0,1,.75-1.19,3.71,3.71,0,0,1,1.17-.81,3.57,3.57,0,0,1,2.91,0A3.52,3.52,0,0,1,610,62a4,4,0,0,1,.74,1.19,3.82,3.82,0,0,1,.26,1.43v.22a.62.62,0,0,1,0,.16h-6.24a3.06,3.06,0,0,0,.26,1.09,3.1,3.1,0,0,0,.6.85,2.77,2.77,0,0,0,.83.58,2.63,2.63,0,0,0,1,.19,2.8,2.8,0,0,0,.7-.09,3.08,3.08,0,0,0,.64-.27,2.15,2.15,0,0,0,.53-.41,1.93,1.93,0,0,0,.37-.54l.82.22a2.51,2.51,0,0,1-.47.74,3.45,3.45,0,0,1-.72.58,3.2,3.2,0,0,1-.89.36A3.86,3.86,0,0,1,607.38,68.4Zm2.68-4.17a2.6,2.6,0,0,0-.28-1.06,2.52,2.52,0,0,0-.58-.84,2.46,2.46,0,0,0-.83-.55,2.54,2.54,0,0,0-1-.2,2.64,2.64,0,0,0-1,.2,2.5,2.5,0,0,0-.84.55,2.85,2.85,0,0,0-.58.84,3.29,3.29,0,0,0-.25,1.06Zm3.34-.11h4.08V61h.94v7.29h-.94V64.92H613.4v3.34h-.94V61h.94Zm8.09,2.8,4.35-6h.77v7.29h-.93V62.42l-4.27,5.84h-.86V61h.94Zm8.59-1.56a2.26,2.26,0,0,1-1.1-.71,2.18,2.18,0,0,1-.44-1.41,2.28,2.28,0,0,1,.19-.91,2.14,2.14,0,0,1,.49-.72,2.22,2.22,0,0,1,.75-.47,2.62,2.62,0,0,1,1-.17h2.61v7.29h-.94V65.49H631l-1.85,2.77h-1.08Zm2.54-.7V61.79H631a1.9,1.9,0,0,0-.57.1,1.34,1.34,0,0,0-.48.3,1.31,1.31,0,0,0-.33.44,1.33,1.33,0,0,0-.13.61,1.44,1.44,0,0,0,.38,1,1.38,1.38,0,0,0,1,.39Zm11.09-3h-3.52v6.56h-.94V61h4.46Zm4,6.7a3.37,3.37,0,0,1-2.6-1.12,3.8,3.8,0,0,1-.75-1.2,4.17,4.17,0,0,1,0-2.9,3.9,3.9,0,0,1,.76-1.2,3.64,3.64,0,0,1,1.15-.83,3.5,3.5,0,0,1,2.88,0,3.43,3.43,0,0,1,1.15.83,3.56,3.56,0,0,1,.76,1.2,4,4,0,0,1,0,2.9,3.66,3.66,0,0,1-.76,1.2,3.53,3.53,0,0,1-1.14.83A3.66,3.66,0,0,1,647.75,68.4Zm-2.65-3.75a3.13,3.13,0,0,0,.21,1.15,3.43,3.43,0,0,0,.56.92,3,3,0,0,0,.84.62,2.49,2.49,0,0,0,1,.22,2.37,2.37,0,0,0,1-.22,3,3,0,0,0,.86-.63,3.2,3.2,0,0,0,.57-.94,3.13,3.13,0,0,0,.21-1.15,3,3,0,0,0-.21-1.13,2.85,2.85,0,0,0-.57-.94,2.66,2.66,0,0,0-.86-.63,2.25,2.25,0,0,0-1-.24,2.22,2.22,0,0,0-1,.24,2.58,2.58,0,0,0-.84.63,3,3,0,0,0-.58,1A3.13,3.13,0,0,0,645.1,64.65Zm8.82-.53H658V61H659v7.29H658V64.92h-4.09v3.34H653V61h.94ZM665.39,61h1.06l-2.76,3.53,3,3.76h-1.06l-2.58-3.33h-1v3.33h-.93V61H662v3.22h1Zm4.22,7.43a2.43,2.43,0,0,1-1.74-.66,2.23,2.23,0,0,1-.5-.71,2.26,2.26,0,0,1-.18-.9,1.8,1.8,0,0,1,.22-.88,2.2,2.2,0,0,1,.63-.7,3.22,3.22,0,0,1,1-.45,4.31,4.31,0,0,1,1.23-.16,7.27,7.27,0,0,1,1.13.09,5.18,5.18,0,0,1,1,.28v-.65a2.1,2.1,0,0,0-.54-1.53,2,2,0,0,0-1.51-.57,3.17,3.17,0,0,0-1.15.22,5.56,5.56,0,0,0-1.19.64l-.34-.63a5,5,0,0,1,2.75-.95,3,3,0,0,1,2.15.77,2.87,2.87,0,0,1,.79,2.13V67c0,.26.11.39.35.39v.84a2,2,0,0,1-.37,0,.85.85,0,0,1-.57-.18.7.7,0,0,1-.21-.5l0-.58a3.3,3.3,0,0,1-1.27,1A3.92,3.92,0,0,1,669.61,68.4Zm.22-.73a3.18,3.18,0,0,0,1.36-.28,2.12,2.12,0,0,0,.95-.74.61.61,0,0,0,.18-.26.67.67,0,0,0,.07-.28V64.92a4.52,4.52,0,0,0-1-.28,5.1,5.1,0,0,0-1-.1,2.88,2.88,0,0,0-1.63.42,1.28,1.28,0,0,0-.63,1.1,1.61,1.61,0,0,0,.12.63,2,2,0,0,0,.37.52,1.82,1.82,0,0,0,.56.34A1.91,1.91,0,0,0,669.83,67.67Zm9.28-1.79L681.84,61h.93v7.29h-.93v-5.6L679.39,67h-.56l-2.46-4.38v5.6h-.94V61h1Zm6.72,1,4.35-6H691v7.29H690V62.42l-4.27,5.84h-.86V61h.94Z"/><path class="cls-4" d="M369,13h-4.76v9.07h-1V12.13H369Zm1.77,9.21a3.5,3.5,0,0,1-1.46-.3,3.77,3.77,0,0,1-1.15-.82,4,4,0,0,1-.74-1.21,3.84,3.84,0,0,1-.26-1.44,3.89,3.89,0,0,1,.26-1.45,4.07,4.07,0,0,1,.76-1.21,3.65,3.65,0,0,1,1.15-.82,3.5,3.5,0,0,1,2.88,0,3.54,3.54,0,0,1,1.15.82,4,4,0,0,1,1,2.66,3.84,3.84,0,0,1-.26,1.44,3.7,3.7,0,0,1-.76,1.21,3.54,3.54,0,0,1-1.15.82A3.42,3.42,0,0,1,370.76,22.21Zm-2.65-3.75a3,3,0,0,0,.21,1.14,3.34,3.34,0,0,0,.56.93,2.67,2.67,0,0,0,.84.61,2.47,2.47,0,0,0,1,.23,2.38,2.38,0,0,0,1-.23,2.52,2.52,0,0,0,.85-.63,3,3,0,0,0,.58-.93,3.23,3.23,0,0,0,0-2.29,2.76,2.76,0,0,0-.58-.93,2.52,2.52,0,0,0-.85-.63,2.25,2.25,0,0,0-1-.24,2.19,2.19,0,0,0-1,.24,2.58,2.58,0,0,0-.84.63,2.86,2.86,0,0,0-.58.95A3.09,3.09,0,0,0,368.11,18.46Zm7.36-.06a4,4,0,0,1,.27-1.46,3.73,3.73,0,0,1,.74-1.19,3.67,3.67,0,0,1,1.16-.81,3.81,3.81,0,0,1,1.49-.29,3.4,3.4,0,0,1,1.8.47,2.94,2.94,0,0,1,1.16,1.26l-.92.3a2.09,2.09,0,0,0-.87-.87,2.39,2.39,0,0,0-1.22-.32,2.5,2.5,0,0,0-1.05.22,3,3,0,0,0-.84.62,2.86,2.86,0,0,0-.56.91,3.32,3.32,0,0,0-.19,1.16,3.19,3.19,0,0,0,.21,1.16,3,3,0,0,0,.57,1,2.81,2.81,0,0,0,.84.63,2.47,2.47,0,0,0,1,.23,2.24,2.24,0,0,0,.68-.1,2.35,2.35,0,0,0,.65-.27,2.51,2.51,0,0,0,.5-.4,1.37,1.37,0,0,0,.3-.48l.93.28a2.5,2.5,0,0,1-.44.73,3,3,0,0,1-.7.57,3.4,3.4,0,0,1-.89.37,3.53,3.53,0,0,1-1,.14,3.58,3.58,0,0,1-1.47-.3,3.7,3.7,0,0,1-1.16-.82,4.07,4.07,0,0,1-.77-1.22A4,4,0,0,1,375.47,18.4Zm10.92,3.67h-.92V15.6H382.9v-.83H389v.83h-2.56Zm4.85-1.35,4.36-5.95h.77v7.3h-.94V16.23l-4.27,5.84h-.85v-7.3h.93Zm8.21-2.8h4.08V14.77h.94v7.3h-.94V18.72h-4.08v3.35h-.94v-7.3h.94Zm8.09,2.8,4.35-5.95h.77v7.3h-.93V16.23l-4.27,5.84h-.86v-7.3h.94Zm7.27-5.95h.93v6.47h3.57V14.77h.93v6.47h1.22v3.08h-.83V22.07h-5.82Zm9.79,7.44a2.78,2.78,0,0,1-1-.17,2.47,2.47,0,0,1-.77-.49,2.23,2.23,0,0,1-.5-.71,2.11,2.11,0,0,1-.19-.9,1.78,1.78,0,0,1,.23-.88,2.1,2.1,0,0,1,.63-.7,2.84,2.84,0,0,1,1-.45,4.42,4.42,0,0,1,1.24-.17,6.24,6.24,0,0,1,1.13.1,5.38,5.38,0,0,1,1,.28v-.66a2.09,2.09,0,0,0-.54-1.52,2,2,0,0,0-1.52-.58,3.17,3.17,0,0,0-1.14.23,5.33,5.33,0,0,0-1.19.64l-.34-.63a5,5,0,0,1,2.74-.95,2.91,2.91,0,0,1,2.16.77,2.85,2.85,0,0,1,.78,2.13v3.29c0,.26.12.39.35.39v.84a1.94,1.94,0,0,1-.36,0,.85.85,0,0,1-.57-.18.71.71,0,0,1-.21-.51l0-.57a3.26,3.26,0,0,1-1.28,1A3.88,3.88,0,0,1,424.6,22.21Zm.22-.73a3.21,3.21,0,0,0,1.36-.28,2.2,2.2,0,0,0,.95-.74.91.91,0,0,0,.18-.27.61.61,0,0,0,.07-.28V18.72a6.6,6.6,0,0,0-1-.28,5.91,5.91,0,0,0-1-.1,2.91,2.91,0,0,0-1.64.42,1.28,1.28,0,0,0-.63,1.11,1.69,1.69,0,0,0,.13.63,1.73,1.73,0,0,0,.36.52,1.84,1.84,0,0,0,.56.33A1.8,1.8,0,0,0,424.82,21.48Z"/><path class="cls-4" d="M519.92,105.11h.92l1.4,3.53,1.42-3.53h.93l-1.73,4.24,1.9,4.5,3.6-8.81h1.06L525.21,115h-.87l-2.08-4.91-2.1,4.91h-.86L515.1,105h1l3.61,8.81,1.89-4.5Zm13,10a3.63,3.63,0,0,1-3.38-2.34,3.92,3.92,0,0,1-.27-1.47,3.83,3.83,0,0,1,1-2.63,3.62,3.62,0,0,1,1.16-.81,3.42,3.42,0,0,1,1.46-.31,3.56,3.56,0,0,1,2.6,1.12,3.87,3.87,0,0,1,.75,1.19,4,4,0,0,1,.26,1.43v.22a.62.62,0,0,1,0,.16h-6.25a3.29,3.29,0,0,0,.27,1.09,3.1,3.1,0,0,0,.6.85,2.77,2.77,0,0,0,.83.58,2.63,2.63,0,0,0,1,.19,2.47,2.47,0,0,0,.7-.1,2.77,2.77,0,0,0,.64-.26,2.35,2.35,0,0,0,.53-.41,1.93,1.93,0,0,0,.37-.54l.82.22a2.51,2.51,0,0,1-.47.74,3.73,3.73,0,0,1-.72.58,3.32,3.32,0,0,1-.89.36A3.88,3.88,0,0,1,532.87,115.12Zm2.69-4.17a2.87,2.87,0,0,0-.28-1.07,2.77,2.77,0,0,0-.59-.84,2.44,2.44,0,0,0-.82-.54,2.55,2.55,0,0,0-1-.2,2.59,2.59,0,0,0-1,.2,2.63,2.63,0,0,0-.84.54,2.93,2.93,0,0,0-.58.84,3.42,3.42,0,0,0-.25,1.07Zm2.42-6.19h1v8.57a.89.89,0,0,0,.22.64.85.85,0,0,0,.63.23,3,3,0,0,0,.76-.16l.16.77a2.42,2.42,0,0,1-.65.18,3.53,3.53,0,0,1-.66.07,1.45,1.45,0,0,1-1-.36,1.42,1.42,0,0,1-.38-1Zm3.27,6.55a3.89,3.89,0,0,1,.27-1.45,3.56,3.56,0,0,1,1.9-2,3.77,3.77,0,0,1,1.49-.29,3.32,3.32,0,0,1,1.8.48,2.83,2.83,0,0,1,1.16,1.26l-.92.29a2.21,2.21,0,0,0-.87-.87,2.39,2.39,0,0,0-1.22-.32,2.67,2.67,0,0,0-1.05.22,2.77,2.77,0,0,0-1.4,1.53,3.36,3.36,0,0,0-.19,1.16,3.19,3.19,0,0,0,.21,1.16,3.06,3.06,0,0,0,.57,1,2.9,2.9,0,0,0,.84.63,2.46,2.46,0,0,0,1,.22,2.24,2.24,0,0,0,.68-.1,2.68,2.68,0,0,0,.65-.26,2.55,2.55,0,0,0,.5-.41,1.37,1.37,0,0,0,.3-.48l.93.28a2.37,2.37,0,0,1-.44.73,3.33,3.33,0,0,1-.7.58,3.2,3.2,0,0,1-.89.36,3.53,3.53,0,0,1-1,.14,3.74,3.74,0,0,1-1.47-.29,3.61,3.61,0,0,1-1.16-.83,3.77,3.77,0,0,1-.77-1.22A3.92,3.92,0,0,1,541.25,111.31Zm11.23,3.81a3.37,3.37,0,0,1-2.6-1.12,3.8,3.8,0,0,1-.75-1.2,4.17,4.17,0,0,1,0-2.9,4.07,4.07,0,0,1,.76-1.21,3.77,3.77,0,0,1,1.15-.82,3.5,3.5,0,0,1,2.88,0,3.54,3.54,0,0,1,1.15.82,3.7,3.7,0,0,1,.76,1.21,4,4,0,0,1,0,2.9,3.66,3.66,0,0,1-.76,1.2,3.53,3.53,0,0,1-1.14.83A3.66,3.66,0,0,1,552.48,115.12Zm-2.65-3.75a3.13,3.13,0,0,0,.21,1.15,3.43,3.43,0,0,0,.56.92,3,3,0,0,0,.84.62,2.49,2.49,0,0,0,1,.22,2.37,2.37,0,0,0,1-.22,3,3,0,0,0,.86-.63,3.2,3.2,0,0,0,.57-.94,3.13,3.13,0,0,0,.21-1.15,3,3,0,0,0-.21-1.13,2.85,2.85,0,0,0-.57-.94,2.66,2.66,0,0,0-.86-.63,2.25,2.25,0,0,0-1-.24,2.22,2.22,0,0,0-1,.24,2.58,2.58,0,0,0-.84.63,3,3,0,0,0-.58,1A3.13,3.13,0,0,0,549.83,111.37ZM568.55,115h-.95v-4.07a3.43,3.43,0,0,0-.41-1.88,1.35,1.35,0,0,0-1.2-.6,2.15,2.15,0,0,0-.8.15,2.69,2.69,0,0,0-.69.44,2.78,2.78,0,0,0-.54.67,3.2,3.2,0,0,0-.37.84V115h-1v-4.07a3.51,3.51,0,0,0-.39-1.89,1.34,1.34,0,0,0-1.21-.59,2.16,2.16,0,0,0-1.47.57,3.27,3.27,0,0,0-.92,1.51V115h-.95v-7.29h.87v1.65a3.29,3.29,0,0,1,1.17-1.3,2.87,2.87,0,0,1,1.61-.48,2,2,0,0,1,1.47.52,2.28,2.28,0,0,1,.69,1.36,3.12,3.12,0,0,1,2.81-1.88,2.32,2.32,0,0,1,1,.22,1.64,1.64,0,0,1,.68.65,2.59,2.59,0,0,1,.38,1,5.75,5.75,0,0,1,.13,1.29Zm5.16.14a3.74,3.74,0,0,1-1.47-.29,3.8,3.8,0,0,1-1.15-.83,3.81,3.81,0,0,1-1-2.69,4,4,0,0,1,.26-1.44,3.85,3.85,0,0,1,.76-1.19,3.52,3.52,0,0,1,1.16-.81,3.42,3.42,0,0,1,1.46-.31,3.61,3.61,0,0,1,2.6,1.12,3.67,3.67,0,0,1,.74,1.19,3.79,3.79,0,0,1,.27,1.43v.22a.62.62,0,0,1,0,.16h-6.25a3.29,3.29,0,0,0,.27,1.09,3.1,3.1,0,0,0,.6.85,2.65,2.65,0,0,0,.83.58,2.58,2.58,0,0,0,1,.19,2.37,2.37,0,0,0,.7-.1,2.68,2.68,0,0,0,.65-.26,2.6,2.6,0,0,0,.53-.41,1.7,1.7,0,0,0,.36-.54l.83.22a2.35,2.35,0,0,1-.48.74,3.39,3.39,0,0,1-.71.58,3.26,3.26,0,0,1-.9.36A3.75,3.75,0,0,1,573.71,115.12ZM576.4,111a2.87,2.87,0,0,0-.28-1.07,2.77,2.77,0,0,0-.59-.84,2.62,2.62,0,0,0-1.82-.74,2.67,2.67,0,0,0-1,.2,2.87,2.87,0,0,0-.84.54,3.11,3.11,0,0,0-.57.84A3.42,3.42,0,0,0,571,111Zm2.24.66v-.89h4.09v.89Zm5.54-.3a3.89,3.89,0,0,1,.27-1.45,3.56,3.56,0,0,1,1.9-2,3.77,3.77,0,0,1,1.49-.29,3.32,3.32,0,0,1,1.8.48,2.83,2.83,0,0,1,1.16,1.26l-.92.29a2.21,2.21,0,0,0-.87-.87,2.39,2.39,0,0,0-1.22-.32,2.67,2.67,0,0,0-1,.22,2.77,2.77,0,0,0-1.4,1.53,3.36,3.36,0,0,0-.19,1.16,3.19,3.19,0,0,0,.21,1.16,3.06,3.06,0,0,0,.57,1,2.9,2.9,0,0,0,.84.63,2.46,2.46,0,0,0,1,.22,2.24,2.24,0,0,0,.68-.1,2.68,2.68,0,0,0,.65-.26,2.55,2.55,0,0,0,.5-.41,1.37,1.37,0,0,0,.3-.48l.93.28a2.37,2.37,0,0,1-.44.73,3.33,3.33,0,0,1-.7.58,3.2,3.2,0,0,1-.89.36,3.53,3.53,0,0,1-1,.14,3.74,3.74,0,0,1-1.47-.29,3.61,3.61,0,0,1-1.16-.83,3.77,3.77,0,0,1-.77-1.22A3.92,3.92,0,0,1,584.18,111.31Zm11.27,3.81a3.74,3.74,0,0,1-1.47-.29,3.8,3.8,0,0,1-1.15-.83,3.81,3.81,0,0,1-1-2.69,4,4,0,0,1,.26-1.44,3.85,3.85,0,0,1,.76-1.19,3.52,3.52,0,0,1,1.16-.81,3.38,3.38,0,0,1,1.46-.31,3.31,3.31,0,0,1,1.45.31,3.38,3.38,0,0,1,1.15.81,3.67,3.67,0,0,1,.74,1.19,3.79,3.79,0,0,1,.27,1.43v.22c0,.08,0,.13,0,.16h-6.25a3.29,3.29,0,0,0,.27,1.09,3.1,3.1,0,0,0,.6.85,2.65,2.65,0,0,0,.83.58,2.58,2.58,0,0,0,1,.19,2.37,2.37,0,0,0,.7-.1,2.68,2.68,0,0,0,.65-.26,2.6,2.6,0,0,0,.53-.41,1.7,1.7,0,0,0,.36-.54l.83.22a2.35,2.35,0,0,1-.48.74,3.39,3.39,0,0,1-.71.58,3.26,3.26,0,0,1-.9.36A3.75,3.75,0,0,1,595.45,115.12Zm2.69-4.17a2.87,2.87,0,0,0-.28-1.07,3,3,0,0,0-.59-.84,2.62,2.62,0,0,0-1.82-.74,2.67,2.67,0,0,0-1,.2,2.87,2.87,0,0,0-.84.54,3.11,3.11,0,0,0-.57.84,3.42,3.42,0,0,0-.25,1.07Zm8.51,4h-.95v-4.07a3.51,3.51,0,0,0-.39-1.89,1.3,1.3,0,0,0-1.18-.59,2.48,2.48,0,0,0-.84.15,3,3,0,0,0-.78.44,2.88,2.88,0,0,0-.63.67,2.43,2.43,0,0,0-.41.82V115h-1v-7.29h.87v1.65a3.42,3.42,0,0,1,1.27-1.29,3.53,3.53,0,0,1,1.82-.49,2.26,2.26,0,0,1,1,.22,1.69,1.69,0,0,1,.67.63,3.11,3.11,0,0,1,.37,1,7.42,7.42,0,0,1,.11,1.3Zm5.46-.35-.25.11a2.08,2.08,0,0,1-.36.14,4.09,4.09,0,0,1-.48.13,2.54,2.54,0,0,1-.56,0,1.91,1.91,0,0,1-.59-.08,1.42,1.42,0,0,1-.49-.25,1.25,1.25,0,0,1-.33-.45,1.35,1.35,0,0,1-.13-.62v-5.22h-1v-.75h1v-2.47h1v2.47h1.68v.75h-1.68v5a.78.78,0,0,0,.28.6,1.06,1.06,0,0,0,.6.18,2,2,0,0,0,.72-.12l.39-.2Zm4.16.49a3.74,3.74,0,0,1-1.47-.29,3.64,3.64,0,0,1-1.14-.83,3.77,3.77,0,0,1-.77-1.22,3.92,3.92,0,0,1-.27-1.47,3.84,3.84,0,0,1,.27-1.44,3.56,3.56,0,0,1,1.91-2,3.42,3.42,0,0,1,1.46-.31,3.56,3.56,0,0,1,2.6,1.12,3.87,3.87,0,0,1,.75,1.19,4,4,0,0,1,.26,1.43v.22a.62.62,0,0,1,0,.16h-6.25a3.29,3.29,0,0,0,.27,1.09,3.1,3.1,0,0,0,.6.85,2.65,2.65,0,0,0,.83.58,2.59,2.59,0,0,0,1,.19,2.47,2.47,0,0,0,.7-.1,2.77,2.77,0,0,0,.64-.26,2.35,2.35,0,0,0,.53-.41,1.93,1.93,0,0,0,.37-.54l.82.22a2.51,2.51,0,0,1-.47.74,3.73,3.73,0,0,1-.72.58,3.32,3.32,0,0,1-.89.36A3.88,3.88,0,0,1,616.27,115.12ZM619,111a2.87,2.87,0,0,0-.28-1.07,2.77,2.77,0,0,0-.59-.84,2.62,2.62,0,0,0-1.82-.74,2.59,2.59,0,0,0-1,.2,2.63,2.63,0,0,0-.84.54,2.93,2.93,0,0,0-.58.84,3.42,3.42,0,0,0-.25,1.07Zm6-2.42a3,3,0,0,0-1.68.53,2.72,2.72,0,0,0-1,1.38V115h-.95v-7.29h.9v1.75a3.32,3.32,0,0,1,1.09-1.32,2.52,2.52,0,0,1,1.47-.47H625Z"/><path class="cls-4" d="M515.11,156.67a5.2,5.2,0,0,1,.31-1.77,5,5,0,0,1,.92-1.6,4.65,4.65,0,0,1,1.48-1.14,4.5,4.5,0,0,1,2-.44,4.1,4.1,0,0,1,2.26.6,3.53,3.53,0,0,1,1.4,1.57l-.77.47a2.75,2.75,0,0,0-.58-.82,3.11,3.11,0,0,0-.73-.55,2.71,2.71,0,0,0-.81-.29,3.42,3.42,0,0,0-.83-.1,3.35,3.35,0,0,0-1.58.36,3.72,3.72,0,0,0-1.16.95,4.14,4.14,0,0,0-.7,1.33,4.74,4.74,0,0,0-.24,1.49,4.42,4.42,0,0,0,.28,1.58,4.81,4.81,0,0,0,.78,1.34,3.92,3.92,0,0,0,1.18.93,3.38,3.38,0,0,0,1.48.33,4.26,4.26,0,0,0,.86-.09,3.87,3.87,0,0,0,.85-.34,3.94,3.94,0,0,0,.77-.57,3.42,3.42,0,0,0,.59-.84l.81.42a3.15,3.15,0,0,1-.67,1,4.25,4.25,0,0,1-1,.71,4.45,4.45,0,0,1-1.13.45,4.27,4.27,0,0,1-1.16.16,4,4,0,0,1-1.88-.45,5.07,5.07,0,0,1-1.47-1.16,5.87,5.87,0,0,1-1-1.64A5.56,5.56,0,0,1,515.11,156.67Zm15.81,5H530v-6.47h-3.88v6.47h-.94v-7.29h5.74Zm4,.14a2.61,2.61,0,0,1-1-.17,2.72,2.72,0,0,1-.77-.49,2.16,2.16,0,0,1-.68-1.6,1.81,1.81,0,0,1,.22-.89,2.2,2.2,0,0,1,.63-.7,3.09,3.09,0,0,1,1-.44,4,4,0,0,1,1.23-.17,6.24,6.24,0,0,1,1.13.1,4.68,4.68,0,0,1,1,.27v-.65a2.11,2.11,0,0,0-.55-1.53,2,2,0,0,0-1.51-.57,3.21,3.21,0,0,0-1.15.22,5.56,5.56,0,0,0-1.19.64l-.34-.63a5,5,0,0,1,2.75-1,3,3,0,0,1,2.15.77,2.84,2.84,0,0,1,.79,2.13v3.29c0,.26.12.39.35.39v.84a2,2,0,0,1-.37,0,.85.85,0,0,1-.57-.18.7.7,0,0,1-.21-.5l0-.58a3.23,3.23,0,0,1-1.27,1A3.77,3.77,0,0,1,534.89,161.85Zm.22-.73a3.18,3.18,0,0,0,1.36-.28,2.12,2.12,0,0,0,.95-.74.75.75,0,0,0,.19-.26.88.88,0,0,0,.07-.28v-1.19a5.47,5.47,0,0,0-1-.28,5,5,0,0,0-1-.1,2.89,2.89,0,0,0-1.64.42,1.28,1.28,0,0,0-.63,1.1,1.69,1.69,0,0,0,.12.64,2.08,2.08,0,0,0,.37.51,2,2,0,0,0,.56.34A1.91,1.91,0,0,0,535.11,161.12Z"/><path class="cls-4" d="M194.49,12.18h7.67v9.94h-1V13.05h-5.72v9.07h-1Zm13.72,10.08a2.91,2.91,0,0,1-1.64-.46,3.92,3.92,0,0,1-1.14-1.19V25.1h-1V14.83h.86v1.41a3.34,3.34,0,0,1,1.16-1.11,3,3,0,0,1,1.55-.43,3.06,3.06,0,0,1,1.39.32,3.58,3.58,0,0,1,1.09.84,4,4,0,0,1,1,2.62,4.42,4.42,0,0,1-.23,1.46,4,4,0,0,1-.69,1.2,3.28,3.28,0,0,1-1.05.83A3.12,3.12,0,0,1,208.21,22.26Zm-.27-.84a2.18,2.18,0,0,0,1.06-.25,2.58,2.58,0,0,0,.83-.66,3,3,0,0,0,.53-.94,3.37,3.37,0,0,0,.18-1.09,3,3,0,0,0-.21-1.12,3.07,3.07,0,0,0-.57-.94,2.66,2.66,0,0,0-.87-.64,2.36,2.36,0,0,0-1.06-.24,2.23,2.23,0,0,0-.77.15,3.12,3.12,0,0,0-.74.4,2.45,2.45,0,0,0-.59.57,1.57,1.57,0,0,0-.3.69v2.24a4.24,4.24,0,0,0,.42.72,3.66,3.66,0,0,0,.59.59,2.92,2.92,0,0,0,.72.38A2.29,2.29,0,0,0,207.94,21.42Zm8.35.84a3.74,3.74,0,0,1-1.47-.29,3.8,3.8,0,0,1-1.15-.83,4.14,4.14,0,0,1-.77-1.22,4.21,4.21,0,0,1-.26-1.47A4,4,0,0,1,212.9,17a3.85,3.85,0,0,1,.76-1.19,3.66,3.66,0,0,1,2.62-1.12,3.31,3.31,0,0,1,1.45.31,3.25,3.25,0,0,1,1.15.81,3.56,3.56,0,0,1,.74,1.19,3.79,3.79,0,0,1,.27,1.43v.22a.51.51,0,0,1,0,.16h-6.24a3.29,3.29,0,0,0,.27,1.09,3.1,3.1,0,0,0,.6.85,2.91,2.91,0,0,0,.82.58,2.67,2.67,0,0,0,1,.19,2.37,2.37,0,0,0,.7-.1,2.68,2.68,0,0,0,.65-.26,2.6,2.6,0,0,0,.53-.41,1.82,1.82,0,0,0,.36-.54l.83.22a2.35,2.35,0,0,1-.48.74,3.39,3.39,0,0,1-.71.58,3.6,3.6,0,0,1-.9.36A3.75,3.75,0,0,1,216.29,22.26ZM219,18.09A2.87,2.87,0,0,0,218.7,17a3,3,0,0,0-.59-.84,2.67,2.67,0,0,0-1.82-.74,2.67,2.67,0,0,0-1,.2,2.87,2.87,0,0,0-.84.54,3.11,3.11,0,0,0-.57.84,3.16,3.16,0,0,0-.25,1.07Zm1.87.36a3.89,3.89,0,0,1,.27-1.45,3.52,3.52,0,0,1,.74-1.19A3.65,3.65,0,0,1,223,15a3.81,3.81,0,0,1,1.49-.29,3.32,3.32,0,0,1,1.8.48,2.91,2.91,0,0,1,1.17,1.26l-.93.29a2.14,2.14,0,0,0-.87-.87,2.38,2.38,0,0,0-1.21-.32,2.44,2.44,0,0,0-1.05.22,2.77,2.77,0,0,0-1.4,1.53,3.11,3.11,0,0,0-.2,1.16,3.19,3.19,0,0,0,.21,1.16,3.06,3.06,0,0,0,.57,1,3.19,3.19,0,0,0,.84.63,2.49,2.49,0,0,0,1,.22,2.35,2.35,0,0,0,.69-.1,2.77,2.77,0,0,0,.64-.26,2.61,2.61,0,0,0,.5-.41,1.37,1.37,0,0,0,.3-.48l.94.28a2.62,2.62,0,0,1-.45.73,3.33,3.33,0,0,1-.7.58,3.46,3.46,0,0,1-.88.36,3.66,3.66,0,0,1-1,.14,3.46,3.46,0,0,1-2.63-1.12,4,4,0,0,1-.77-1.22A4,4,0,0,1,220.85,18.45Zm7.61,0a3.89,3.89,0,0,1,.26-1.45,3.69,3.69,0,0,1,.74-1.19,3.59,3.59,0,0,1,1.17-.82,3.72,3.72,0,0,1,1.48-.29,3.37,3.37,0,0,1,1.81.48,2.89,2.89,0,0,1,1.16,1.26l-.93.29a2.18,2.18,0,0,0-.86-.87,2.41,2.41,0,0,0-1.22-.32,2.44,2.44,0,0,0-1,.22,2.77,2.77,0,0,0-1.4,1.53,3.32,3.32,0,0,0-.2,1.16,3.19,3.19,0,0,0,.21,1.16,2.85,2.85,0,0,0,1.42,1.59,2.41,2.41,0,0,0,1,.22,2.35,2.35,0,0,0,.69-.1,2.6,2.6,0,0,0,.64-.26,2.69,2.69,0,0,0,.51-.41,1.34,1.34,0,0,0,.29-.48l.94.28a2.4,2.4,0,0,1-.45.73,3.33,3.33,0,0,1-.7.58,3.46,3.46,0,0,1-.88.36,3.66,3.66,0,0,1-1,.14,3.74,3.74,0,0,1-1.47-.29,3.85,3.85,0,0,1-1.16-.83,4,4,0,0,1-.77-1.22A4,4,0,0,1,228.46,18.45Zm7.91.3v-.89h4.08v.89Zm6.06-3.92h.93v6.46h3.57V14.83h.93v6.46h1.22v3.08h-.83V22.12h-5.82Zm11,7.43A3.74,3.74,0,0,1,252,22a3.8,3.8,0,0,1-1.15-.83,4.14,4.14,0,0,1-.77-1.22,4.21,4.21,0,0,1-.26-1.47,4,4,0,0,1,.26-1.44,3.85,3.85,0,0,1,.76-1.19,3.66,3.66,0,0,1,2.62-1.12,3.31,3.31,0,0,1,1.45.31,3.25,3.25,0,0,1,1.15.81,3.56,3.56,0,0,1,.74,1.19,3.79,3.79,0,0,1,.27,1.43v.22c0,.08,0,.13,0,.16h-6.25a3.29,3.29,0,0,0,.27,1.09,3.1,3.1,0,0,0,.6.85,2.91,2.91,0,0,0,.82.58,2.67,2.67,0,0,0,1,.19,2.37,2.37,0,0,0,.7-.1,2.68,2.68,0,0,0,.65-.26,2.6,2.6,0,0,0,.53-.41,1.82,1.82,0,0,0,.36-.54l.83.22a2.35,2.35,0,0,1-.48.74,3.39,3.39,0,0,1-.71.58,3.6,3.6,0,0,1-.9.36A3.75,3.75,0,0,1,253.45,22.26Zm2.69-4.17a2.87,2.87,0,0,0-.28-1.07,3,3,0,0,0-.59-.84,2.67,2.67,0,0,0-1.82-.74,2.67,2.67,0,0,0-1,.2,2.87,2.87,0,0,0-.84.54A3.11,3.11,0,0,0,251,17a3.16,3.16,0,0,0-.25,1.07Zm3.33-.11h4.09V14.83h.94v7.29h-.94V18.77h-4.09v3.35h-.94V14.83h.94Zm9.87,4.14h-.92V15.65h-2.56v-.82h6v.82h-2.56Zm7.64.14a2.94,2.94,0,0,1-1.64-.46,4,4,0,0,1-1.13-1.19V25.1h-.95V14.83h.85v1.41a3.52,3.52,0,0,1,1.16-1.11,3.09,3.09,0,0,1,2.94-.11,3.46,3.46,0,0,1,1.09.84,4,4,0,0,1,1,2.62,4.42,4.42,0,0,1-.23,1.46,3.76,3.76,0,0,1-.69,1.2,3.28,3.28,0,0,1-1.05.83A3.05,3.05,0,0,1,277,22.26Zm-.27-.84a2.22,2.22,0,0,0,1.07-.25,2.54,2.54,0,0,0,.82-.66,2.85,2.85,0,0,0,.54-.94,3.37,3.37,0,0,0,.18-1.09,3,3,0,0,0-.21-1.12,2.91,2.91,0,0,0-.58-.94,2.72,2.72,0,0,0-.86-.64,2.4,2.4,0,0,0-1.07-.24,2.23,2.23,0,0,0-.77.15,3.12,3.12,0,0,0-.74.4,2.65,2.65,0,0,0-.59.57,1.55,1.55,0,0,0-.29.69v2.24a3.23,3.23,0,0,0,.42.72,3.29,3.29,0,0,0,.59.59,2.86,2.86,0,0,0,.71.38A2.29,2.29,0,0,0,276.71,21.42Z"/><path class="cls-4" d="M54.65,13H51.1v9.07h-1V13H46.58v-.87h8.07Zm3.47,9.21a3,3,0,0,1-1.64-.46,3.81,3.81,0,0,1-1.13-1.2V25h-1V14.76h.86v1.42a3.42,3.42,0,0,1,1.16-1.11A3.09,3.09,0,0,1,59.35,15a3.29,3.29,0,0,1,1.09.84,3.73,3.73,0,0,1,.72,1.2,4.06,4.06,0,0,1,.26,1.42,4.33,4.33,0,0,1-.24,1.45,3.51,3.51,0,0,1-.68,1.21,3.25,3.25,0,0,1-1,.82A3,3,0,0,1,58.12,22.2Zm-.27-.84a2.26,2.26,0,0,0,1.07-.26,2.49,2.49,0,0,0,.82-.65,2.92,2.92,0,0,0,.53-.94,3.17,3.17,0,0,0,.19-1.09,3,3,0,0,0-.21-1.12,3.1,3.1,0,0,0-.58-.94,2.68,2.68,0,0,0-.87-.65,2.49,2.49,0,0,0-1.06-.23,2.23,2.23,0,0,0-.77.15,2.77,2.77,0,0,0-.74.39,2.5,2.5,0,0,0-.59.58,1.41,1.41,0,0,0-.29.68v2.24a3.3,3.3,0,0,0,.42.73,3.6,3.6,0,0,0,.58.59,3.55,3.55,0,0,0,.72.38A2.29,2.29,0,0,0,57.85,21.36ZM64,20.71l4.35-6h.77v7.3h-.93V16.22l-4.27,5.84h-.86v-7.3H64ZM74.82,13a3.53,3.53,0,0,0-2,1.12A4.32,4.32,0,0,0,72,16.5a2.87,2.87,0,0,1,2.56-1.4,3.24,3.24,0,0,1,1.3.26,3.22,3.22,0,0,1,1.67,1.87,4.62,4.62,0,0,1,0,2.88,3.16,3.16,0,0,1-.69,1.11,3.19,3.19,0,0,1-1.09.72,3.8,3.8,0,0,1-1.43.26,2.86,2.86,0,0,1-2.45-1.14A5.32,5.32,0,0,1,71,17.84a8.86,8.86,0,0,1,.25-2.24A5.69,5.69,0,0,1,72,14a4,4,0,0,1,1.19-1.12,5.35,5.35,0,0,1,1.59-.64L77,11.68l.18.8ZM72,18.63a3.57,3.57,0,0,0,.17,1.1,2.74,2.74,0,0,0,.47.88,2.37,2.37,0,0,0,.76.58,2.31,2.31,0,0,0,1,.21,2.35,2.35,0,0,0,1-.2,2.27,2.27,0,0,0,.76-.57,2.51,2.51,0,0,0,.49-.86,3.46,3.46,0,0,0,.17-1.09,2.81,2.81,0,0,0-.66-2A2.26,2.26,0,0,0,74.33,16a2.47,2.47,0,0,0-1,.18,2,2,0,0,0-.74.53,2.43,2.43,0,0,0-.49.83A3.5,3.5,0,0,0,72,18.63ZM79.09,24a1.07,1.07,0,0,0,.42.26,1.27,1.27,0,0,0,.44.07.58.58,0,0,0,.35-.11.93.93,0,0,0,.35-.36,3.58,3.58,0,0,0,.37-.69c.12-.29.25-.66.4-1.1l-3.17-7.3h1l2.7,6.41,2.5-6.41h.91l-3.4,8.5a5.2,5.2,0,0,1-.43.91,2.61,2.61,0,0,1-.45.59,1.23,1.23,0,0,1-.49.31,1.69,1.69,0,0,1-.56.09,1.34,1.34,0,0,1-1-.33Zm8.54-6.08h4.08V14.76h.94v7.3h-.94V18.71H87.63v3.35h-.94v-7.3h.94Zm9,4.29a2.73,2.73,0,0,1-1-.17,2.66,2.66,0,0,1-.77-.49,2.15,2.15,0,0,1-.51-.72,2.21,2.21,0,0,1-.18-.89,1.77,1.77,0,0,1,.22-.88,2.1,2.1,0,0,1,.63-.7,2.89,2.89,0,0,1,1-.45,4.3,4.3,0,0,1,1.23-.17,6.43,6.43,0,0,1,1.14.1,4.72,4.72,0,0,1,1,.28v-.66a2.1,2.1,0,0,0-.55-1.53,2,2,0,0,0-1.51-.57,3.44,3.44,0,0,0-1.15.22,5.62,5.62,0,0,0-1.19.65l-.33-.63a4.86,4.86,0,0,1,2.74-.95,3,3,0,0,1,2.16.77,2.84,2.84,0,0,1,.78,2.12v3.29c0,.27.12.4.35.4v.84l-.36,0a.86.86,0,0,1-.58-.18.71.71,0,0,1-.21-.51l0-.57a3.32,3.32,0,0,1-1.27,1A3.89,3.89,0,0,1,96.6,22.2Zm.23-.73a3.17,3.17,0,0,0,1.35-.28,2.37,2.37,0,0,0,1-.74,1.06,1.06,0,0,0,.18-.27.77.77,0,0,0,.07-.28V18.71a6.4,6.4,0,0,0-1-.28,5.8,5.8,0,0,0-1-.1,2.91,2.91,0,0,0-1.64.42,1.28,1.28,0,0,0-.63,1.11,1.51,1.51,0,0,0,.13.63,1.86,1.86,0,0,0,.36.52,2,2,0,0,0,1.25.46Z"/><path class="cls-4" d="M52.78,106.13a2.9,2.9,0,0,0-1.12-.77,4,4,0,0,0-1.59-.3,2.94,2.94,0,0,0-1.92.51,1.62,1.62,0,0,0-.6,1.34,1.6,1.6,0,0,0,.15.74,1.47,1.47,0,0,0,.5.49,3.89,3.89,0,0,0,.86.37c.35.1.77.2,1.24.3a14.52,14.52,0,0,1,1.43.38,4,4,0,0,1,1.09.53,2.17,2.17,0,0,1,.69.76,2.35,2.35,0,0,1,.24,1.12,2.49,2.49,0,0,1-.27,1.19,2.21,2.21,0,0,1-.74.84,3.44,3.44,0,0,1-1.13.5,6.34,6.34,0,0,1-5.44-1.28l.49-.8a4.2,4.2,0,0,0,.63.53,5.49,5.49,0,0,0,.83.45,6.18,6.18,0,0,0,1,.29,5.52,5.52,0,0,0,1.09.1A3.42,3.42,0,0,0,52,113a1.44,1.44,0,0,0,.67-1.3,1.4,1.4,0,0,0-.19-.77,1.48,1.48,0,0,0-.56-.55A3.91,3.91,0,0,0,51,110c-.37-.12-.81-.23-1.3-.34s-1-.25-1.38-.38a3.52,3.52,0,0,1-1-.49,2,2,0,0,1-.62-.7,2.41,2.41,0,0,1-.19-1,2.8,2.8,0,0,1,.25-1.22,2.47,2.47,0,0,1,.74-.89,3.17,3.17,0,0,1,1.12-.55,4.94,4.94,0,0,1,1.43-.2,4.81,4.81,0,0,1,1.76.31,4.72,4.72,0,0,1,1.42.84Zm5.65,8.21a3.57,3.57,0,0,1-1.47-.29,3.8,3.8,0,0,1-1.15-.83,3.76,3.76,0,0,1-1-2.68,4.06,4.06,0,0,1,.26-1.45,4,4,0,0,1,.76-1.19,3.67,3.67,0,0,1,1.16-.81,3.54,3.54,0,0,1,1.46-.31,3.46,3.46,0,0,1,1.45.31,3.52,3.52,0,0,1,1.15.81,3.78,3.78,0,0,1,.74,1.19,3.83,3.83,0,0,1,.27,1.43v.23a.49.49,0,0,1,0,.15H55.77A3.23,3.23,0,0,0,56,112a3.31,3.31,0,0,0,.6.86,2.88,2.88,0,0,0,.82.57,2.67,2.67,0,0,0,1,.2,2.75,2.75,0,0,0,.7-.1,3.17,3.17,0,0,0,.65-.27,3,3,0,0,0,.53-.4,1.74,1.74,0,0,0,.36-.55l.83.22a2.52,2.52,0,0,1-.48.75,3.7,3.7,0,0,1-.71.57,3.26,3.26,0,0,1-.9.36A3.4,3.4,0,0,1,58.43,114.34Zm2.69-4.17a2.82,2.82,0,0,0-.28-1.06,2.7,2.7,0,0,0-.59-.84,2.36,2.36,0,0,0-.83-.55,2.46,2.46,0,0,0-1-.19,2.67,2.67,0,0,0-1,.19,2.71,2.71,0,0,0-.84.55,2.83,2.83,0,0,0-.57.84,3.05,3.05,0,0,0-.25,1.06Zm1.87.37a4,4,0,0,1,.27-1.46,3.62,3.62,0,0,1,.74-1.19,3.47,3.47,0,0,1,1.16-.81,3.64,3.64,0,0,1,1.49-.3,3.32,3.32,0,0,1,1.8.48,3,3,0,0,1,1.17,1.26l-.93.29a2.06,2.06,0,0,0-.87-.86,2.29,2.29,0,0,0-1.21-.33,2.45,2.45,0,0,0-1,.23,2.67,2.67,0,0,0-.84.61,2.9,2.9,0,0,0-.56.91,3.41,3.41,0,0,0,0,2.33,3.12,3.12,0,0,0,.57,1,3.19,3.19,0,0,0,.84.63,2.49,2.49,0,0,0,1,.22,2.72,2.72,0,0,0,.69-.09,3.32,3.32,0,0,0,.64-.27,2.28,2.28,0,0,0,.5-.41,1.25,1.25,0,0,0,.3-.47l.94.28a2.94,2.94,0,0,1-.45.73,3.62,3.62,0,0,1-.7.57,3.13,3.13,0,0,1-.88.36,3.31,3.31,0,0,1-1,.14,3.57,3.57,0,0,1-1.47-.29,3.73,3.73,0,0,1-1.16-.83,3.83,3.83,0,0,1-1-2.68Zm10.47,3.8a2.07,2.07,0,0,1-1.77-.78,4,4,0,0,1-.58-2.37v-4.28h1V111c0,1.65.57,2.47,1.7,2.47a2.32,2.32,0,0,0,.82-.14,2.71,2.71,0,0,0,.75-.4,3.32,3.32,0,0,0,.61-.63,2.88,2.88,0,0,0,.45-.83v-4.59h1V113c0,.26.11.39.34.39v.84l-.28,0h-.14a.76.76,0,0,1-.55-.24.84.84,0,0,1-.21-.6v-.84a3.44,3.44,0,0,1-3,1.79Zm9.67-6.59a3.07,3.07,0,0,0-1.68.53,2.69,2.69,0,0,0-1,1.39v4.53h-1v-7.29h.9v1.75a3.32,3.32,0,0,1,1.09-1.32,2.59,2.59,0,0,1,1.47-.47h.18Zm1.27,6.45v-7.29h.95v7.29Zm0-8.82V104h.95v1.4ZM91,113.85l-.25.12-.37.14-.47.12a2.6,2.6,0,0,1-.56.06,1.92,1.92,0,0,1-.59-.09,1.34,1.34,0,0,1-.49-.25,1.41,1.41,0,0,1-.34-.45,1.44,1.44,0,0,1-.12-.61v-5.22h-1v-.76h1v-2.46h.95v2.46h1.68v.76H88.71v5a.78.78,0,0,0,.28.6,1.07,1.07,0,0,0,.6.19,2,2,0,0,0,.72-.13,3.1,3.1,0,0,0,.39-.2Zm1.61,2.59.21,0H93a.82.82,0,0,0,.39-.07.74.74,0,0,0,.3-.31,4.27,4.27,0,0,0,.3-.68c.13-.3.29-.7.51-1.21l-3.18-7.29h1l2.7,6.41,2.51-6.41h.91l-3.78,9.41a1.67,1.67,0,0,1-.52.7,1.45,1.45,0,0,1-1,.31l-.26,0-.31,0Z"/><path class="cls-4" d="M46.69,58.47h7.67v9.94h-1V59.33H47.66v9.08h-1ZM58.43,68.55a2.77,2.77,0,0,1-1-.17,2.66,2.66,0,0,1-.77-.49,2.25,2.25,0,0,1-.51-.72,2.21,2.21,0,0,1-.18-.89,1.88,1.88,0,0,1,.22-.88,2.1,2.1,0,0,1,.63-.7,3,3,0,0,1,1-.45,4.3,4.3,0,0,1,1.23-.17,6.35,6.35,0,0,1,1.14.1,4.72,4.72,0,0,1,1,.28V63.8a2.1,2.1,0,0,0-.55-1.53,2,2,0,0,0-1.51-.57,3.21,3.21,0,0,0-1.15.22,5.62,5.62,0,0,0-1.19.65l-.33-.63A4.86,4.86,0,0,1,59.23,61a2.93,2.93,0,0,1,2.16.77,2.84,2.84,0,0,1,.78,2.12v3.29c0,.27.12.4.35.4v.84l-.36,0a.86.86,0,0,1-.58-.18.72.72,0,0,1-.21-.51l0-.57a3.32,3.32,0,0,1-1.27,1A3.89,3.89,0,0,1,58.43,68.55Zm.23-.73A3.33,3.33,0,0,0,60,67.54a2.37,2.37,0,0,0,1-.74,1.06,1.06,0,0,0,.18-.27.64.64,0,0,0,.07-.28V65.06a6.4,6.4,0,0,0-1-.28,5,5,0,0,0-1-.1,2.91,2.91,0,0,0-1.64.42,1.28,1.28,0,0,0-.63,1.11,1.51,1.51,0,0,0,.13.63,1.86,1.86,0,0,0,.36.52,1.84,1.84,0,0,0,.56.33A1.77,1.77,0,0,0,58.66,67.82Zm9.32.73a2.94,2.94,0,0,1-1.64-.47,3.67,3.67,0,0,1-1.13-1.19v4.5h-.95V61.11h.85v1.42a3.52,3.52,0,0,1,1.16-1.11A3,3,0,0,1,67.83,61a2.92,2.92,0,0,1,1.38.32,3.19,3.19,0,0,1,1.09.84,3.62,3.62,0,0,1,.72,1.2,4.06,4.06,0,0,1,.26,1.42,4.63,4.63,0,0,1-.23,1.45,3.7,3.7,0,0,1-.69,1.21,3.25,3.25,0,0,1-1,.82A3,3,0,0,1,68,68.55Zm-.27-.84a2.34,2.34,0,0,0,1.07-.25,2.65,2.65,0,0,0,.82-.66,3.15,3.15,0,0,0,.54-.94,3.41,3.41,0,0,0,.18-1.09,3,3,0,0,0-.21-1.12,2.91,2.91,0,0,0-.58-.94,2.75,2.75,0,0,0-.86-.65,2.57,2.57,0,0,0-1.07-.23,2.23,2.23,0,0,0-.77.15,3.09,3.09,0,0,0-.74.39,2.7,2.7,0,0,0-.59.58,1.41,1.41,0,0,0-.29.68v2.24a3.19,3.19,0,0,0,1,1.32,3.24,3.24,0,0,0,.71.38A2.29,2.29,0,0,0,67.71,67.71Zm9.53-6.6H78.3l-2.76,3.53,3,3.77H77.47L74.9,65.07h-1v3.34h-.94v-7.3h.94v3.22h1Zm5.29,7.44a3.47,3.47,0,0,1-1.46-.3,3.77,3.77,0,0,1-1.15-.82,3.82,3.82,0,0,1-.74-1.21,3.92,3.92,0,0,1-.27-1.44,4,4,0,0,1,.27-1.46,4.15,4.15,0,0,1,.76-1.2,3.64,3.64,0,0,1,1.14-.83,3.63,3.63,0,0,1,2.89,0,3.57,3.57,0,0,1,1.15.83,3.92,3.92,0,0,1,.75,1.2,3.79,3.79,0,0,1,.28,1.46,4.13,4.13,0,0,1-.26,1.44,3.7,3.7,0,0,1-.76,1.21,3.54,3.54,0,0,1-1.15.82A3.45,3.45,0,0,1,82.53,68.55Zm-2.65-3.76a3.06,3.06,0,0,0,.21,1.15,3.34,3.34,0,0,0,.56.93,2.67,2.67,0,0,0,.84.61,2.47,2.47,0,0,0,1,.23,2.38,2.38,0,0,0,1-.23,2.94,2.94,0,0,0,.85-.63,3.1,3.1,0,0,0,.58-.94,3,3,0,0,0,.21-1.14,3.07,3.07,0,0,0-.79-2.08,2.62,2.62,0,0,0-.85-.63,2.4,2.4,0,0,0-2,0,2.81,2.81,0,0,0-.84.63,3.23,3.23,0,0,0-.78,2.1Zm11.48-3.68a1.83,1.83,0,0,1,.71.14,1.8,1.8,0,0,1,.57.39,1.47,1.47,0,0,1,.38.57,1.58,1.58,0,0,1,.14.69,1.79,1.79,0,0,1-.07.51,2.22,2.22,0,0,1-.18.49,1.8,1.8,0,0,1-.32.42,1.56,1.56,0,0,1-.46.29,1.68,1.68,0,0,1,1,.65,1.82,1.82,0,0,1,.35,1.14,2,2,0,0,1-.61,1.45,2.3,2.3,0,0,1-.68.42,2.57,2.57,0,0,1-.85.14H87.79v-7.3ZM91,64.33a1.2,1.2,0,0,0,.91-.36,1.32,1.32,0,0,0,.33-.93,1.34,1.34,0,0,0-.28-.85,1,1,0,0,0-.86-.36H88.71v2.5Zm.22,3.36a1.25,1.25,0,0,0,.53-.11,1.17,1.17,0,0,0,.42-.29,1.53,1.53,0,0,0,.27-.44,1.21,1.21,0,0,0,.1-.5,1.32,1.32,0,0,0-.35-.9,1.19,1.19,0,0,0-.94-.39H88.71v2.63Zm8.2-6.58h1.06L97.7,64.64l3,3.77H99.64l-2.58-3.34H96v3.34h-.93v-7.3H96v3.22h1Zm4.22,7.44a2.43,2.43,0,0,1-1.74-.66,2.39,2.39,0,0,1-.5-.72,2.21,2.21,0,0,1-.18-.89,1.77,1.77,0,0,1,.22-.88,2.1,2.1,0,0,1,.63-.7,2.8,2.8,0,0,1,1-.45,4.3,4.3,0,0,1,1.23-.17,6.24,6.24,0,0,1,1.13.1,4.42,4.42,0,0,1,1,.28V63.8a2.13,2.13,0,0,0-.54-1.53,2,2,0,0,0-1.51-.57,3.17,3.17,0,0,0-1.15.22,5.62,5.62,0,0,0-1.19.65l-.34-.63a4.91,4.91,0,0,1,2.75-.95,2.91,2.91,0,0,1,2.15.77,2.81,2.81,0,0,1,.79,2.12v3.29c0,.27.11.4.35.4v.84l-.37,0a.85.85,0,0,1-.57-.18.72.72,0,0,1-.21-.51l0-.57a3.39,3.39,0,0,1-1.27,1A3.92,3.92,0,0,1,103.62,68.55Zm.22-.73a3.34,3.34,0,0,0,1.36-.28,2.27,2.27,0,0,0,1-.74.71.71,0,0,0,.18-.27.64.64,0,0,0,.07-.28V65.06a6,6,0,0,0-1-.28,5.1,5.1,0,0,0-1-.1,2.88,2.88,0,0,0-1.63.42,1.28,1.28,0,0,0-.63,1.11,1.68,1.68,0,0,0,.12.63,2.14,2.14,0,0,0,.37.52,2,2,0,0,0,1.24.46Z"/><circle class="cls-5" cx="333.33" cy="16.63" r="15.63"/><path class="cls-3" d="M343.3,12.89v4.52H323.37V10.49h-2V22.78h2V19.53H343.3v3.25h2V12.89Z"/><path class="cls-3" d="M325.77,16.7a2,2,0,1,0-2-2A2,2,0,0,0,325.77,16.7Z"/><path class="cls-3" d="M339.77,13.74h-9.33a2.91,2.91,0,0,0-2.69,2.82h15A3.05,3.05,0,0,0,339.77,13.74Z"/><circle class="cls-5" cx="165.52" cy="62.95" r="15.63"/><path class="cls-3" d="M158.32,58.17h1.85l1.16,3.41,1.16-3.41h1.86l-1.76,4.69,1.31,3.3,2.92-8H169l-4.2,10.32h-1.68l-1.79-4.33-1.79,4.33h-1.68l-4.17-10.32h2.15l2.93,8,1.28-3.3Z"/><path class="cls-3" d="M169.05,63.23a5.23,5.23,0,0,1,.34-1.86,5,5,0,0,1,2.6-2.84,4.92,4.92,0,0,1,2.15-.45,4.6,4.6,0,0,1,2.45.63,4,4,0,0,1,1.56,1.63l-1.54,1.06a2.48,2.48,0,0,0-.5-.73,2.43,2.43,0,0,0-1.32-.73,2.92,2.92,0,0,0-.71-.08,2.77,2.77,0,0,0-1.32.3,2.87,2.87,0,0,0-.93.8,3.46,3.46,0,0,0-.56,1.1,4.34,4.34,0,0,0-.18,1.22,4.25,4.25,0,0,0,.21,1.33,3.8,3.8,0,0,0,.61,1.1,3.23,3.23,0,0,0,1,.77,2.6,2.6,0,0,0,1.24.29,3.08,3.08,0,0,0,.72-.09,2.61,2.61,0,0,0,.72-.27,3.24,3.24,0,0,0,.64-.48,2.45,2.45,0,0,0,.46-.73l1.64,1a3.12,3.12,0,0,1-.71,1,4.29,4.29,0,0,1-1,.74,5.12,5.12,0,0,1-1.22.46,5.22,5.22,0,0,1-1.28.16,4.38,4.38,0,0,1-2-.46,5.24,5.24,0,0,1-1.58-1.21,6,6,0,0,1-1-1.7A5.46,5.46,0,0,1,169.05,63.23Z"/><circle class="cls-5" cx="333.33" cy="109.75" r="15.63"/><path class="cls-3" d="M341.19,108.62a.31.31,0,0,0,.29-.28V101a.31.31,0,0,0-.29-.28c-1.27,0-3.39,1-3.39,2.4v.28h-6.5a1.57,1.57,0,0,0-1.56,1.55v1.42a1.77,1.77,0,0,0-.56,1,4,4,0,0,0-3.39,3.67.8.8,0,0,0-.57,1,.89.89,0,0,0,.85.7h9.19a.78.78,0,0,0,.84-.7.8.8,0,0,0-.56-1,4,4,0,0,0-3.39-3.67,2.25,2.25,0,0,0-.57-1v-1.13h6.08v1C337.8,107.49,339.92,108.62,341.19,108.62ZM338.51,103c0-.85,1.41-1.7,2.4-1.84v6.64c-1-.14-2.4-1-2.4-1.84Zm-6.93,4.38h-1.69c.14-.29.28-.57.56-.57H331A.6.6,0,0,1,331.58,107.35Zm3.82,4.94h-9.19a.28.28,0,0,1,0-.56h9.19a.28.28,0,0,1,0,.56Zm-.28-1.27h-8.63a3.4,3.4,0,0,1,3.4-3.11h1.83A3.62,3.62,0,0,1,335.12,111Zm-3.68-6.5a.3.3,0,0,0-.28.28v1.27h-.57V104.8a1,1,0,0,1,1-1h6.5v.57h-6.64Z"/><path class="cls-3" d="M326.78,113.85a.29.29,0,1,0-.57,0v.28a.29.29,0,0,0,.57,0Z"/><path class="cls-3" d="M328.05,113.85a.29.29,0,1,0-.57,0v1.83a.29.29,0,0,0,.57,0Z"/><path class="cls-3" d="M329.18,113.85a.32.32,0,0,0-.29-.29.31.31,0,0,0-.28.29v.28a.3.3,0,0,0,.28.28.31.31,0,0,0,.29-.28Z"/><path class="cls-3" d="M330.45,113.85a.28.28,0,1,0-.56,0v1.83a.28.28,0,0,0,.56,0Z"/><path class="cls-3" d="M331.72,113.85a.28.28,0,1,0-.56,0v.28a.28.28,0,1,0,.56,0Z"/><path class="cls-3" d="M332.85,113.85a.28.28,0,1,0-.56,0v1.83a.28.28,0,0,0,.56,0Z"/><path class="cls-3" d="M334.12,113.85a.28.28,0,1,0-.56,0v.28a.28.28,0,1,0,.56,0Z"/><path class="cls-3" d="M327.76,116.53a.3.3,0,0,0-.28.28v1a.29.29,0,0,0,.57,0v-1A.3.3,0,0,0,327.76,116.53Z"/><path class="cls-3" d="M330.17,116.53a.3.3,0,0,0-.28.28v1a.28.28,0,0,0,.56,0v-1A.3.3,0,0,0,330.17,116.53Z"/><path class="cls-3" d="M332.57,116.53a.3.3,0,0,0-.28.28v1a.28.28,0,1,0,.56,0v-1C332.85,116.67,332.85,116.53,332.57,116.53Z"/><path class="cls-3" d="M335.12,116.53a.3.3,0,0,0-.29.28v1a.29.29,0,0,0,.57,0v-1A.3.3,0,0,0,335.12,116.53Z"/><path class="cls-3" d="M335.4,113.85a.29.29,0,1,0-.57,0v1.83a.29.29,0,0,0,.57,0Z"/><path class="cls-3" d="M326.78,115.26a.29.29,0,0,0-.57,0v1.83a.29.29,0,1,0,.57,0Z"/><path class="cls-3" d="M329.18,115.26a.31.31,0,0,0-.29-.28.3.3,0,0,0-.28.28v1.83a.3.3,0,0,0,.28.29.31.31,0,0,0,.29-.29Z"/><path class="cls-3" d="M331.72,115.26a.28.28,0,1,0-.56,0v1.83a.28.28,0,1,0,.56,0Z"/><path class="cls-3" d="M334.12,115.26a.28.28,0,1,0-.56,0v1.83a.28.28,0,1,0,.56,0Z"/><path class="cls-3" d="M326.63,118.08h-.14v.29a.49.49,0,0,0,.14.28h.29c.14-.14.14-.28,0-.28Z"/><path class="cls-3" d="M328.76,118.23h0c-.15.28-.15.28,0,.42h.42c.14-.14.14-.28,0-.28v-.14A.25.25,0,0,0,328.76,118.23Z"/><path class="cls-3" d="M331.58,118.08h-.42v.43h.42c.15,0,.15-.14,0-.43C331.73,118.23,331.58,118.23,331.58,118.08Z"/><path class="cls-3" d="M333.56,118.23c-.14.14-.14.14-.14.28s0,.14.14.28H334c.14,0,.14-.14.14-.28v-.28A.42.42,0,0,0,333.56,118.23Z"/><circle class="cls-5" cx="333.33" cy="62.95" r="15.63"/><path class="cls-3" d="M339.82,62.25v-1H327.1a7.5,7.5,0,0,0,3.25,6.35h-3.11a2.09,2.09,0,0,0,2.26,1.84h7.92a2.09,2.09,0,0,0,2.26-1.84h-3.11a3.75,3.75,0,0,0,.85-.7h.42a5.09,5.09,0,0,0,2.12-.57,2.25,2.25,0,0,0,1.14-2A1.78,1.78,0,0,0,339.82,62.25Zm-.14,3.25a2.29,2.29,0,0,1-1.27.42,10,10,0,0,0,1.27-2.83,1.26,1.26,0,0,1,.71,1.13A1.44,1.44,0,0,1,339.68,65.5Z"/><path class="cls-3" d="M332.75,55.32c-.14.29-.42.57-.7,1a3.16,3.16,0,0,0-.29,2.54,2.7,2.7,0,0,0,2,1.7,1.63,1.63,0,0,1-1-1.13,2,2,0,0,1,.15-1.55c.28-.43.56-.71.84-1.13a2.26,2.26,0,0,0,.43-1.28,2.07,2.07,0,0,0-.43-1.41c-.28-.28-.84-.42-1.13-.7A1.64,1.64,0,0,1,332.75,55.32Z"/><path class="cls-3" d="M334.3,60a1.47,1.47,0,0,1-.56-.71,2,2,0,0,1,.28-.85,3,3,0,0,1,.43-.71,1.17,1.17,0,0,0,.42-1.13,1.54,1.54,0,0,1,.14,1.56c-.14.14-.14.28-.28.42a1.53,1.53,0,0,0-.28,1.13,1.2,1.2,0,0,0,.42.85Z"/><circle class="cls-5" cx="485.2" cy="16.63" r="15.63"/><path class="cls-3" d="M491,19.73a1.11,1.11,0,0,1-1.13-.28l-3.25-3.11,2.12-2.12a1,1,0,0,1,.85-.28,2.88,2.88,0,0,0,2.54-.42,2.2,2.2,0,0,0,.85-2.41l-.14-.14h-.14l-1.56,1c-.28-.28-1-.85-.7-1.69l1.55-1,.14-.14c0-.15,0-.15-.14-.15a2.11,2.11,0,0,0-2.83-.14,4,4,0,0,0-1,2.26,1.83,1.83,0,0,1-.57,1.28l-2.4,2.4-2.41-2.4a1.56,1.56,0,0,1-.56-1.28,2.74,2.74,0,0,0-1-2.26,2,2,0,0,0-2.83.14l-.14.15c0,.14,0,.14.14.14l1.56,1c.14.84-.57,1.41-.71,1.69l-1.55-1h-.15a.14.14,0,0,0-.14.14,2,2,0,0,0,.85,2.41,2.9,2.9,0,0,0,2.55.42.67.67,0,0,1,.84.28l2.12,2.12-3.25,3.11a1.1,1.1,0,0,1-1.13.28,1.58,1.58,0,0,0-1.55.43,2.43,2.43,0,0,0-.71,2c0,.15,0,.15.14.15h.28c.29-.15,1-.57,1.28-.71a1.62,1.62,0,0,1,.56,1.55l-1.13.71-.14.14c0,.14,0,.14.14.14a1.74,1.74,0,0,0,1.27.43,2.26,2.26,0,0,0,1.13-.43,2.56,2.56,0,0,0,.85-2.12,2,2,0,0,1,.28-.84l3.4-3.4,3.39,3.4a1.18,1.18,0,0,1,.28.84,2.56,2.56,0,0,0,.85,2.12,1.9,1.9,0,0,0,1.13.43,2.66,2.66,0,0,0,1.27-.43l.14-.14c0-.14,0-.14-.14-.14L491,23.12c-.14-.7.43-1.27.57-1.55a4.81,4.81,0,0,1,1.27.71h.28c.14,0,.14-.15.14-.15a2.69,2.69,0,0,0-.7-2A2.81,2.81,0,0,0,491,19.73Z"/><path class="cls-4" d="M515.08,17.75a5.2,5.2,0,0,1,.31-1.77,5,5,0,0,1,.92-1.6,4.56,4.56,0,0,1,1.49-1.13,4.3,4.3,0,0,1,2-.45,4.13,4.13,0,0,1,2.27.6,3.65,3.65,0,0,1,1.4,1.57l-.77.47a3,3,0,0,0-.59-.82,3.11,3.11,0,0,0-.73-.55,2.71,2.71,0,0,0-.81-.29,3.42,3.42,0,0,0-.83-.1,3.38,3.38,0,0,0-1.58.36A3.73,3.73,0,0,0,517,15a4.13,4.13,0,0,0-.7,1.33,4.68,4.68,0,0,0-.24,1.48,4.42,4.42,0,0,0,.28,1.58,5,5,0,0,0,.78,1.35,4,4,0,0,0,1.18.92,3.38,3.38,0,0,0,1.48.34,4.29,4.29,0,0,0,.86-.1,3.68,3.68,0,0,0,.85-.34,3.94,3.94,0,0,0,.77-.57,2.88,2.88,0,0,0,.59-.84l.81.42a3.15,3.15,0,0,1-.67,1,4.61,4.61,0,0,1-1,.72,4.82,4.82,0,0,1-1.13.44,4.27,4.27,0,0,1-1.16.16,4,4,0,0,1-1.88-.45,5.07,5.07,0,0,1-1.47-1.16,5.61,5.61,0,0,1-1-1.64A5.34,5.34,0,0,1,515.08,17.75Zm13.21,5.18a3.57,3.57,0,0,1-1.47-.29,3.64,3.64,0,0,1-1.15-.83,3.76,3.76,0,0,1-1-2.68,4.06,4.06,0,0,1,.26-1.45,4,4,0,0,1,.76-1.19,3.67,3.67,0,0,1,1.16-.81,3.53,3.53,0,0,1,1.46-.3,3.45,3.45,0,0,1,1.45.3,3.52,3.52,0,0,1,1.15.81,3.78,3.78,0,0,1,.74,1.19,3.83,3.83,0,0,1,.27,1.43v.23a.49.49,0,0,1,0,.15h-6.24a3.23,3.23,0,0,0,.27,1.09,3.31,3.31,0,0,0,.6.86,2.88,2.88,0,0,0,.82.57,2.67,2.67,0,0,0,1,.2,2.75,2.75,0,0,0,.7-.1,2.69,2.69,0,0,0,.65-.27,2.55,2.55,0,0,0,.53-.4,1.74,1.74,0,0,0,.36-.55l.83.22a2.4,2.4,0,0,1-.48.75,3.7,3.7,0,0,1-.71.57,3.26,3.26,0,0,1-.9.36A3.4,3.4,0,0,1,528.29,22.93ZM531,18.76a2.82,2.82,0,0,0-.28-1.06,2.7,2.7,0,0,0-.59-.84,2.51,2.51,0,0,0-.83-.55,2.46,2.46,0,0,0-1-.19,2.67,2.67,0,0,0-1,.19,2.91,2.91,0,0,0-.84.55,2.83,2.83,0,0,0-.57.84,3.11,3.11,0,0,0-.25,1.06Zm6.12,4.17a2.91,2.91,0,0,1-1.64-.46,3.7,3.7,0,0,1-1.14-1.19v4.5h-1V15.5h.86v1.41a3.4,3.4,0,0,1,1.16-1.1,2.9,2.9,0,0,1,1.55-.43,2.93,2.93,0,0,1,1.39.32,3.29,3.29,0,0,1,1.09.84,3.44,3.44,0,0,1,.71,1.2,3.84,3.84,0,0,1,.27,1.41,4.38,4.38,0,0,1-.24,1.46,3.71,3.71,0,0,1-.68,1.2,3.14,3.14,0,0,1-1.05.83A3,3,0,0,1,537.1,22.93Zm-.27-.83a2.19,2.19,0,0,0,1.06-.26,2.45,2.45,0,0,0,.83-.66,3.07,3.07,0,0,0,.53-.93,3.43,3.43,0,0,0,.18-1.1,3.05,3.05,0,0,0-.21-1.12,3.14,3.14,0,0,0-.57-.93,2.68,2.68,0,0,0-.87-.65,2.39,2.39,0,0,0-1.06-.24,2.21,2.21,0,0,0-.77.16,2.77,2.77,0,0,0-.74.39,2.66,2.66,0,0,0-.59.57,1.62,1.62,0,0,0-.3.69v2.24a4.77,4.77,0,0,0,.42.73,4.11,4.11,0,0,0,.59.59,3.31,3.31,0,0,0,.72.38A2.29,2.29,0,0,0,536.83,22.1Zm8.81-6.6a1.8,1.8,0,0,1,.71.14,1.69,1.69,0,0,1,.58.39,1.61,1.61,0,0,1,.37.56,1.65,1.65,0,0,1,.14.7,1.79,1.79,0,0,1-.07.51,1.62,1.62,0,0,1-.18.49,1.8,1.8,0,0,1-.32.42,1.56,1.56,0,0,1-.46.29,1.72,1.72,0,0,1,1,.64,1.87,1.87,0,0,1,.35,1.15,1.92,1.92,0,0,1-.16.81,2,2,0,0,1-.45.64,2.15,2.15,0,0,1-.67.41,2.43,2.43,0,0,1-.86.14h-3.51V15.5Zm-.38,3.22a1.18,1.18,0,0,0,.91-.36,1.35,1.35,0,0,0,.34-.93,1.4,1.4,0,0,0-.28-.85,1,1,0,0,0-.87-.37H543v2.51Zm.22,3.36A1.33,1.33,0,0,0,546,22a1.4,1.4,0,0,0,.42-.3,1.45,1.45,0,0,0,.26-.43,1.24,1.24,0,0,0,.1-.5,1.32,1.32,0,0,0-.35-.9,1.17,1.17,0,0,0-.94-.39H543v2.63Zm4.83-.63,4.35-5.95h.77v7.29h-.94V17l-4.27,5.83h-.85V15.5h.94Zm6.74-2.32a4,4,0,0,1,.27-1.46,3.62,3.62,0,0,1,.74-1.19,3.52,3.52,0,0,1,1.16-.81,3.64,3.64,0,0,1,1.49-.29,3.31,3.31,0,0,1,1.8.47,2.94,2.94,0,0,1,1.16,1.26l-.92.29a2.06,2.06,0,0,0-.87-.86,2.3,2.3,0,0,0-1.22-.33,2.51,2.51,0,0,0-1,.23,2.91,2.91,0,0,0-.84.61,3.1,3.1,0,0,0-.56.91,3.42,3.42,0,0,0-.19,1.17,3.22,3.22,0,0,0,.21,1.16,3.12,3.12,0,0,0,.57.95,3.19,3.19,0,0,0,.84.63,2.47,2.47,0,0,0,1,.23,2.6,2.6,0,0,0,.68-.1,3.17,3.17,0,0,0,.65-.27,2.55,2.55,0,0,0,.5-.41,1.25,1.25,0,0,0,.3-.47l.93.28a2.63,2.63,0,0,1-.44.73,3.62,3.62,0,0,1-.7.57,3.08,3.08,0,0,1-.89.36,3.2,3.2,0,0,1-1,.14,3.46,3.46,0,0,1-2.63-1.12,3.83,3.83,0,0,1-1-2.68Zm11.25,0a4,4,0,0,1,.27-1.46,3.8,3.8,0,0,1,.74-1.19,3.54,3.54,0,0,1,2.65-1.1,3.31,3.31,0,0,1,1.8.47,3,3,0,0,1,1.17,1.26l-.93.29a2.06,2.06,0,0,0-.87-.86,2.29,2.29,0,0,0-1.21-.33,2.45,2.45,0,0,0-1,.23,2.67,2.67,0,0,0-.84.61,2.9,2.9,0,0,0-.56.91,3.42,3.42,0,0,0-.2,1.17,3.22,3.22,0,0,0,.21,1.16,3.12,3.12,0,0,0,.57.95,3.19,3.19,0,0,0,.84.63,2.5,2.5,0,0,0,1,.23,2.74,2.74,0,0,0,.69-.1,3.32,3.32,0,0,0,.64-.27,2.28,2.28,0,0,0,.5-.41,1.25,1.25,0,0,0,.3-.47l.94.28a2.94,2.94,0,0,1-.45.73,3.62,3.62,0,0,1-.7.57,3.13,3.13,0,0,1-.88.36,3.31,3.31,0,0,1-1,.14,3.46,3.46,0,0,1-2.63-1.12,3.83,3.83,0,0,1-1-2.68Zm14,3.66h-.93V16.33h-3.88v6.46h-.93V15.5h5.74Zm5.24.14a3.37,3.37,0,0,1-2.6-1.12,3.69,3.69,0,0,1-.75-1.2,4.13,4.13,0,0,1-.26-1.44,4.19,4.19,0,0,1,.26-1.46,4,4,0,0,1,.76-1.2,3.8,3.8,0,0,1,1.15-.83,3.61,3.61,0,0,1,2.88,0,3.57,3.57,0,0,1,1.15.83,3.66,3.66,0,0,1,.76,1.2,4,4,0,0,1,.28,1.46,3.92,3.92,0,0,1-.27,1.44,3.56,3.56,0,0,1-.76,1.2,3.39,3.39,0,0,1-1.14.83A3.49,3.49,0,0,1,587.49,22.93Zm-2.65-3.75a3.09,3.09,0,0,0,.21,1.15,3.15,3.15,0,0,0,.56.92,2.77,2.77,0,0,0,.84.62,2.5,2.5,0,0,0,1,.23,2.38,2.38,0,0,0,1-.23,3,3,0,0,0,.86-.63,3.15,3.15,0,0,0,0-4.16,2.66,2.66,0,0,0-.86-.63,2.25,2.25,0,0,0-1-.24,2.22,2.22,0,0,0-1,.24,2.58,2.58,0,0,0-.84.63,3,3,0,0,0-.58,1A3.13,3.13,0,0,0,584.84,19.18Zm11.61,3.75a2.91,2.91,0,0,1-1.64-.46,3.7,3.7,0,0,1-1.14-1.19v4.5h-.95V15.5h.86v1.41a3.4,3.4,0,0,1,1.16-1.1,2.9,2.9,0,0,1,1.55-.43,2.93,2.93,0,0,1,1.39.32,3.29,3.29,0,0,1,1.09.84,3.44,3.44,0,0,1,.71,1.2,3.84,3.84,0,0,1,.27,1.41,4.38,4.38,0,0,1-.24,1.46,3.71,3.71,0,0,1-.68,1.2,3.14,3.14,0,0,1-1.05.83A3,3,0,0,1,596.45,22.93Zm-.27-.83a2.19,2.19,0,0,0,1.06-.26,2.45,2.45,0,0,0,.83-.66,3.07,3.07,0,0,0,.53-.93,3.43,3.43,0,0,0,.18-1.1,3.05,3.05,0,0,0-.21-1.12,3.14,3.14,0,0,0-.57-.93,2.68,2.68,0,0,0-.87-.65,2.39,2.39,0,0,0-1.06-.24,2.21,2.21,0,0,0-.77.16,2.77,2.77,0,0,0-.74.39,2.66,2.66,0,0,0-.59.57,1.62,1.62,0,0,0-.3.69v2.24a4.77,4.77,0,0,0,.42.73,4.11,4.11,0,0,0,.59.59,3.31,3.31,0,0,0,.72.38A2.29,2.29,0,0,0,596.18,22.1Zm7.57.69h-.92V16.33h-2.57V15.5h6v.83h-2.56Zm4.85-1.34L613,15.5h.77v7.29h-.94V17l-4.27,5.83h-.86V15.5h.94Zm10.87-5.95a1.8,1.8,0,0,1,.71.14,1.65,1.65,0,0,1,.57.39,1.51,1.51,0,0,1,.38.56,1.65,1.65,0,0,1,.14.7,1.79,1.79,0,0,1-.07.51,2.43,2.43,0,0,1-.18.49,1.8,1.8,0,0,1-.32.42,1.56,1.56,0,0,1-.46.29,1.72,1.72,0,0,1,1,.64,1.87,1.87,0,0,1,.35,1.15,2,2,0,0,1-.61,1.45,2.09,2.09,0,0,1-.68.41,2.33,2.33,0,0,1-.85.14H615.9V15.5Zm-.38,3.22a1.2,1.2,0,0,0,.91-.36,1.45,1.45,0,0,0,0-1.78,1,1,0,0,0-.86-.37h-2.37v2.51Zm.22,3.36a1.25,1.25,0,0,0,.53-.11,1.19,1.19,0,0,0,.42-.3,1.48,1.48,0,0,0,.27-.43,1.24,1.24,0,0,0,.1-.5,1.32,1.32,0,0,0-.35-.9,1.19,1.19,0,0,0-.94-.39h-2.52v2.63Zm4.82-3.43h4.09V15.5h.94v7.29h-.94V19.45h-4.09v3.34h-.93V15.5h.93Zm7.16-3.15h.94v2.59h1.58a3,3,0,0,1,1,.15,2.66,2.66,0,0,1,.79.45,2.22,2.22,0,0,1,.53.74,2.81,2.81,0,0,1,0,2,2.09,2.09,0,0,1-.53.73,2.29,2.29,0,0,1-.79.45,3,3,0,0,1-1,.15h-2.52Zm5.89,0h.93v7.29h-.93ZM633.81,22a1.48,1.48,0,0,0,1.12-.4,1.58,1.58,0,0,0,.41-1.14,1.53,1.53,0,0,0-.41-1.12,1.48,1.48,0,0,0-1.12-.42h-1.58V22Zm6.59-6.48,2.18,2.86.12.21.11-.21L645,15.5h1l-2.78,3.67L646,22.79h-1L642.81,20l-.11-.19-.12.19-2.18,2.84h-1l2.78-3.62-2.78-3.67Zm12.27,7.43a2.76,2.76,0,0,1-1-.16,2.66,2.66,0,0,1-.77-.49,2.42,2.42,0,0,1-.51-.72,2.21,2.21,0,0,1-.18-.89,1.84,1.84,0,0,1,.23-.89,2.2,2.2,0,0,1,.63-.7,3,3,0,0,1,1-.44,4.07,4.07,0,0,1,1.23-.17,6.27,6.27,0,0,1,1.14.1,4.72,4.72,0,0,1,1,.28v-.66a2.08,2.08,0,0,0-.55-1.53,2,2,0,0,0-1.51-.57,3.25,3.25,0,0,0-1.15.22,5.87,5.87,0,0,0-1.19.65l-.33-.63a4.88,4.88,0,0,1,2.74-.95,3,3,0,0,1,2.16.76,2.88,2.88,0,0,1,.78,2.13v3.29c0,.26.12.4.35.4v.83a2.29,2.29,0,0,1-.36.05.83.83,0,0,1-.58-.19.68.68,0,0,1-.21-.5l0-.57a3.23,3.23,0,0,1-1.28,1A3.74,3.74,0,0,1,652.67,22.93Zm.23-.72a3.37,3.37,0,0,0,1.36-.28,2.27,2.27,0,0,0,1-.75.87.87,0,0,0,.18-.26.64.64,0,0,0,.07-.28V19.45a6.6,6.6,0,0,0-1-.28,5.1,5.1,0,0,0-1-.1,2.91,2.91,0,0,0-1.64.42,1.28,1.28,0,0,0-.63,1.11,1.51,1.51,0,0,0,.13.63,1.68,1.68,0,0,0,.36.51,1.87,1.87,0,0,0,.56.34A2,2,0,0,0,652.9,22.21Zm9.2-6.71a1.83,1.83,0,0,1,.71.14,1.75,1.75,0,0,1,.57.39,1.51,1.51,0,0,1,.38.56,1.82,1.82,0,0,1,.14.7,1.79,1.79,0,0,1-.07.51,2.43,2.43,0,0,1-.18.49,1.8,1.8,0,0,1-.32.42,1.56,1.56,0,0,1-.46.29,1.72,1.72,0,0,1,1,.64,1.94,1.94,0,0,1,.35,1.15,2,2,0,0,1-.61,1.45,2.2,2.2,0,0,1-.68.41,2.33,2.33,0,0,1-.85.14h-3.51V15.5Zm-.38,3.22a1.2,1.2,0,0,0,.91-.36,1.45,1.45,0,0,0,0-1.78,1,1,0,0,0-.86-.37h-2.37v2.51Zm.22,3.36a1.29,1.29,0,0,0,.53-.11,1.19,1.19,0,0,0,.42-.3,1.48,1.48,0,0,0,.27-.43,1.44,1.44,0,0,0,.1-.5,1.32,1.32,0,0,0-.35-.9,1.19,1.19,0,0,0-.94-.39h-2.52v2.63Zm6.55.71h-.93V16.33H665V15.5h6v.83h-2.56Zm6.65.14a3.49,3.49,0,0,1-1.46-.29,3.6,3.6,0,0,1-1.14-.83,3.69,3.69,0,0,1-.75-1.2,4.13,4.13,0,0,1-.26-1.44,4.19,4.19,0,0,1,.26-1.46,4,4,0,0,1,.76-1.2,3.8,3.8,0,0,1,1.15-.83,3.61,3.61,0,0,1,2.88,0,3.57,3.57,0,0,1,1.15.83,3.66,3.66,0,0,1,.76,1.2,4,4,0,0,1,.28,1.46,3.92,3.92,0,0,1-.27,1.44,3.56,3.56,0,0,1-.76,1.2,3.39,3.39,0,0,1-1.14.83A3.49,3.49,0,0,1,675.14,22.93Zm-2.65-3.75a3.09,3.09,0,0,0,.21,1.15,3.15,3.15,0,0,0,.56.92,2.77,2.77,0,0,0,.84.62,2.5,2.5,0,0,0,1,.23,2.38,2.38,0,0,0,1-.23,3,3,0,0,0,.86-.63,3.15,3.15,0,0,0,0-4.16,2.66,2.66,0,0,0-.86-.63,2.29,2.29,0,0,0-2,0,2.58,2.58,0,0,0-.84.63,3.12,3.12,0,0,0-.79,2.1Zm11.56,1.23,2.73-4.91h.93v7.29h-.93v-5.6l-2.45,4.39h-.56l-2.46-4.39v5.6h-.94V15.5h1Zm8.88,2.52a3.49,3.49,0,0,1-1.46-.29,3.64,3.64,0,0,1-1.15-.83,3.85,3.85,0,0,1-.74-1.2,3.91,3.91,0,0,1-.26-1.44,4,4,0,0,1,.26-1.46,4,4,0,0,1,.76-1.2,3.68,3.68,0,0,1,1.15-.83,3.37,3.37,0,0,1,1.44-.3,3.44,3.44,0,0,1,1.44.3,3.57,3.57,0,0,1,1.15.83,3.63,3.63,0,0,1,.75,1.2,3.79,3.79,0,0,1,.28,1.46,4.13,4.13,0,0,1-.26,1.44,3.56,3.56,0,0,1-.76,1.2,3.41,3.41,0,0,1-2.6,1.12Zm-2.65-3.75a3.09,3.09,0,0,0,.21,1.15,3.15,3.15,0,0,0,.56.92,2.55,2.55,0,0,0,.84.62,2.47,2.47,0,0,0,1,.23,2.38,2.38,0,0,0,1-.23,2.81,2.81,0,0,0,.85-.63,2.91,2.91,0,0,0,.58-.94,3.2,3.2,0,0,0,0-2.28,2.91,2.91,0,0,0-.58-.94,2.52,2.52,0,0,0-.85-.63,2.25,2.25,0,0,0-1-.24,2.19,2.19,0,0,0-1,.24,2.58,2.58,0,0,0-.84.63,3,3,0,0,0-.58,1A3.13,3.13,0,0,0,690.28,19.18Zm11.44-5.42a3.52,3.52,0,0,0-2,1.12,4.31,4.31,0,0,0-.9,2.36,3.06,3.06,0,0,1,1.08-1,3,3,0,0,1,1.48-.36,3.21,3.21,0,0,1,1.3.26,2.9,2.9,0,0,1,1,.75,3,3,0,0,1,.66,1.11,4.47,4.47,0,0,1,0,2.89A3.16,3.16,0,0,1,703.7,22a3.19,3.19,0,0,1-1.09.72,3.76,3.76,0,0,1-1.43.25,2.85,2.85,0,0,1-2.45-1.13,5.34,5.34,0,0,1-.84-3.22,8.84,8.84,0,0,1,.26-2.24,5.21,5.21,0,0,1,.74-1.65,3.74,3.74,0,0,1,1.19-1.12,5.2,5.2,0,0,1,1.58-.65l2.18-.5.19.8Zm-2.85,5.6a3.59,3.59,0,0,0,.17,1.11,2.58,2.58,0,0,0,.48.88,2.23,2.23,0,0,0,.75.58,2.33,2.33,0,0,0,1,.21,2.38,2.38,0,0,0,1-.2,2.14,2.14,0,0,0,.75-.57,2.36,2.36,0,0,0,.49-.86,3.2,3.2,0,0,0,.17-1.09,2.81,2.81,0,0,0-.66-2,2.26,2.26,0,0,0-1.77-.73,2.49,2.49,0,0,0-1,.18,2.06,2.06,0,0,0-.74.53,2.61,2.61,0,0,0-.49.83A3.48,3.48,0,0,0,698.87,19.36Zm8.36,2.09,4.36-5.95h.77v7.29h-.94V17l-4.27,5.83h-.86V15.5h.94Zm6.29.55a1.26,1.26,0,0,0,1.19-.9,6.49,6.49,0,0,0,.38-1.37c.11-.58.21-1.33.32-2.26l.21-2h4.28v7.29H719V16.26H716.5l-.2,1.62a23.57,23.57,0,0,1-.4,2.41,6.7,6.7,0,0,1-.53,1.51,2,2,0,0,1-.72.8,2.32,2.32,0,0,1-1,.25Zm11.65.93a3.51,3.51,0,0,1-1.47-.29,3.64,3.64,0,0,1-1.15-.83,3.83,3.83,0,0,1-1-2.68,3.86,3.86,0,0,1,.27-1.45,4.15,4.15,0,0,1,.75-1.19,3.71,3.71,0,0,1,1.17-.81,3.59,3.59,0,0,1,4.06.81,4.17,4.17,0,0,1,.74,1.19,3.82,3.82,0,0,1,.26,1.43v.23a.58.58,0,0,1,0,.15h-6.24a3,3,0,0,0,.26,1.09,3.31,3.31,0,0,0,.6.86,2.92,2.92,0,0,0,.83.57,2.64,2.64,0,0,0,1,.2,2.82,2.82,0,0,0,.7-.1,2.62,2.62,0,0,0,.64-.27,2.11,2.11,0,0,0,.53-.4,2,2,0,0,0,.37-.55l.82.22a2.56,2.56,0,0,1-.47.75,3.77,3.77,0,0,1-.72.57,3.2,3.2,0,0,1-.89.36A3.49,3.49,0,0,1,725.17,22.93Zm2.68-4.17a2.64,2.64,0,0,0-.28-1.06,2.52,2.52,0,0,0-.58-.84,2.61,2.61,0,0,0-.83-.55,2.53,2.53,0,0,0-1-.19,2.63,2.63,0,0,0-1,.19,2.66,2.66,0,0,0-.84.55,2.85,2.85,0,0,0-.58.84,3.36,3.36,0,0,0-.25,1.06Zm7.48-6a1.2,1.2,0,0,1-.55,1,2.52,2.52,0,0,1-1.4.33,2.58,2.58,0,0,1-1.41-.33,1.25,1.25,0,0,1-.55-1H732a.75.75,0,0,0,.36.67,2.11,2.11,0,0,0,1,.19,2,2,0,0,0,1-.19.76.76,0,0,0,.38-.67Zm-4.14,8.68,4.35-5.95h.77v7.29h-.94V17l-4.27,5.83h-.85V15.5h.94Z"/><circle class="cls-5" cx="485.2" cy="62.95" r="15.63"/><path class="cls-3" d="M486.38,55.07l-9.19,12.85.7,1.27,4-1.41,1,1.56a1.24,1.24,0,0,0,.85.28,1.58,1.58,0,0,0,.71-.14c.84-.29,4.66-2.26,4.8-2.26,0-.15.71-.71.43-1.42a6.45,6.45,0,0,1-.43-1l3.11-1.13Zm3,11c.15.28-.14.56-.28.7a49.81,49.81,0,0,1-4.8,2.26,1.07,1.07,0,0,1-1,0l-.85-1.55,6.5-2.4A7.55,7.55,0,0,0,489.34,66.09Z"/><path class="cls-3" d="M494.43,62.84l-6.93-9.47a.41.41,0,1,0-.7.42l6.92,9.47a.87.87,0,0,0,.57.14C494.43,63.4,494.57,63,494.43,62.84Z"/><path class="cls-3" d="M476.62,67.64a.84.84,0,0,0-.56-.14.8.8,0,0,0-.15.56l1.42,2.12a.84.84,0,0,0,.56.14c.15,0,.15-.42.15-.56Z"/><circle class="cls-5" cx="165.52" cy="109.75" r="15.63"/><path class="cls-3" d="M172.94,107.14H168v-4.81h-5v4.81h-4.95v5.08H163v5h5v-5h4.95Z"/><circle class="cls-5" cx="164.69" cy="16.63" r="15.63"/><path class="cls-3" d="M164.92,7.59a8.9,8.9,0,1,0,8.9,8.9A8.87,8.87,0,0,0,164.92,7.59Zm.42,5.37a10.15,10.15,0,0,0,3-.42,23.14,23.14,0,0,1,.56,3.53h-3.53Zm0-.85V8.58c1.13.28,2.12,1.41,2.69,3.11C167.18,11.83,166.33,12,165.34,12.11Zm-.85-3.53v3.53a15.75,15.75,0,0,1-2.68-.28C162.37,10,163.36,8.86,164.49,8.58Zm0,4.38v3.11H161a14.32,14.32,0,0,1,.56-3.53A9.5,9.5,0,0,0,164.49,13ZM160,16.07h-3.11a8.38,8.38,0,0,1,1.7-4.52c.56.28,1.27.56,2,.84A22.63,22.63,0,0,0,160,16.07Zm0,.85a14.43,14.43,0,0,0,.56,3.67,8,8,0,0,0-2,.85,8.45,8.45,0,0,1-1.7-4.52Zm1,0h3.53V20a9.83,9.83,0,0,0-3,.43A9.83,9.83,0,0,1,161,16.92Zm3.53,3.95V24.4a4.33,4.33,0,0,1-2.68-3.1A7.42,7.42,0,0,1,164.49,20.87Zm.85,3.53V20.87a15.87,15.87,0,0,1,2.69.28C167.46,22.85,166.47,24.12,165.34,24.4Zm0-4.38v-3.1h3.53a14.32,14.32,0,0,1-.56,3.53A10.51,10.51,0,0,0,165.34,20Zm4.38-3.1h3.11a8.43,8.43,0,0,1-1.69,4.52c-.57-.29-1.28-.57-2-.85A15.47,15.47,0,0,0,169.72,16.92Zm0-.85a14.44,14.44,0,0,0-.56-3.68,8.61,8.61,0,0,0,2-.84,8.37,8.37,0,0,1,1.69,4.52Zm.85-5.23c-.42.28-1,.42-1.55.71A11,11,0,0,0,167.6,9,11.44,11.44,0,0,1,170.57,10.84ZM162.23,9a7.5,7.5,0,0,0-1.41,2.55c-.57-.14-1.13-.43-1.56-.57A7,7,0,0,1,162.23,9Zm-3,13.14a17,17,0,0,1,1.56-.7A10.92,10.92,0,0,0,162.23,24,10.4,10.4,0,0,1,159.26,22.14Zm8.2,1.84a7.29,7.29,0,0,0,1.41-2.54,5.18,5.18,0,0,1,1.56.7A10.4,10.4,0,0,1,167.46,24Z"/><circle class="cls-5" cx="16.63" cy="62.95" r="15.63"/><path class="cls-3" d="M15.17,63h3.11a1,1,0,0,0,.7-.14,1.86,1.86,0,0,0,.57-.42,3.16,3.16,0,0,0,.42-.71,1.8,1.8,0,0,0,.14-.85c0-.28,0-.7-.14-.84a2.94,2.94,0,0,0-.42-.71c-.14-.14-.43-.42-.57-.42a1.19,1.19,0,0,0-.7-.15h-3V63Zm-2,5.94V57h5.09a6,6,0,0,1,1.55.28,7.23,7.23,0,0,1,1.13.85,5.79,5.79,0,0,1,.71,1.27A5,5,0,0,1,22,60.76a4.15,4.15,0,0,1-.28,1.41A5.85,5.85,0,0,1,21,63.45a2.2,2.2,0,0,1-1.13.84,2.48,2.48,0,0,1-1.41.29H15.17v4.24h-2Z"/><circle class="cls-5" cx="485.2" cy="156.1" r="15.63"/><path class="cls-3" d="M497.45,157.17a11.69,11.69,0,0,0-3.81-.28,12.86,12.86,0,0,0,.42-6.64c0-.28-.28-.42-.42-.28a19.59,19.59,0,0,0-4,1.69,12.89,12.89,0,0,0-4-5.51.43.43,0,0,0-.56,0,15,15,0,0,0-3.68,5.65,14.57,14.57,0,0,0-4.24-2c-.28,0-.42.14-.42.28a12.65,12.65,0,0,0,.42,6.64,35.23,35.23,0,0,0-3.82.28.49.49,0,0,0-.28.14v.29A8.29,8.29,0,0,0,481.2,163a15,15,0,0,0,4.24-.71,15,15,0,0,0,4.24.71,8.11,8.11,0,0,0,8.06-5.51v-.29C497.74,157.31,497.59,157.17,497.45,157.17Zm-4.66-.28a13.44,13.44,0,0,0-4.24,1.13c-.14,0-.14,0-.14.14a6.62,6.62,0,0,0-2.12,1.84,12.2,12.2,0,0,0-.14-2.26,8.11,8.11,0,0,1,3.81-5.23,12.83,12.83,0,0,1,3.68-1.84A14.11,14.11,0,0,1,492.79,156.89ZM485.58,147a11.91,11.91,0,0,1,3.39,5.09,10.83,10.83,0,0,0-3.53,4.38,9.13,9.13,0,0,0-3.11-4.1A12.69,12.69,0,0,1,485.58,147Zm-7.92,3.67a14.84,14.84,0,0,1,4,2,9.33,9.33,0,0,1,3.54,5.09A6,6,0,0,0,485,160a8.48,8.48,0,0,0-6.64-3.11A11,11,0,0,1,477.66,150.67Zm3.11,11.73a7,7,0,0,1-6.5-4.52c1.84-.28,8.48-1.13,10.74,4A14.67,14.67,0,0,1,480.77,162.4Zm9.47,0a14.77,14.77,0,0,1-4.24-.56c2.27-5,8.91-4.24,10.75-4A7,7,0,0,1,490.24,162.4Z"/><path class="cls-3" d="M486,149h-.85v.85H486Z"/><path class="cls-3" d="M486,150.67h-.85v.85H486Z"/><path class="cls-3" d="M486,152.23h-.85v.85H486Z"/><path class="cls-3" d="M478.23,152.23a6,6,0,0,0,.85,3.11l.71-.43a5.76,5.76,0,0,1-.71-2.68Z"/><path class="cls-3" d="M492.93,152.23h-.85a5.87,5.87,0,0,1-.7,2.68l.7.43A11,11,0,0,0,492.93,152.23Z"/><circle class="cls-5" cx="485.2" cy="109.75" r="15.63"/><g class="cls-6"><path class="cls-3" d="M485.55,98.94a7.82,7.82,0,0,0-7.83,7.87,8.81,8.81,0,0,0,1,3.94l6.82,10.64,6.81-10.64a7.46,7.46,0,0,0,1.16-4.08A7.91,7.91,0,0,0,485.55,98.94Zm0,13.7a6,6,0,1,1,5.94-6A6.08,6.08,0,0,1,485.55,112.64Z"/></g><g class="cls-7"><path class="cls-8" d="M2.55,99.83C7.52,99,17.47,92.2,17.47,90c0,2.21,10,9,14.93,9.84,0,19.37-3.08,22.75-6.88,24.66-1.17.58-2.2,1-3.07,1.46a22.09,22.09,0,0,0-5,2.79,22.19,22.19,0,0,0-5-2.79c-.88-.44-1.91-.88-3.08-1.46C5.62,122.58,2.55,119.2,2.55,99.83Z"/><path class="cls-3" d="M32.54,99c-2.34-.44-5.85-2.21-8.92-4.26a30.75,30.75,0,0,1-3.81-2.94,6.18,6.18,0,0,1-1-1.17c-.44-.44-.44-.59-.44-.59H16.59s0,.15-.29.44a7.66,7.66,0,0,1-1,1.18c-1,.88-2.35,1.91-3.81,2.93-3.22,2.2-6.73,4-9.07,4.41l-.73.14v.74c0,9.68.73,15.55,2.05,19.22a10.66,10.66,0,0,0,2.34,4.11A7.65,7.65,0,0,0,9,125.22c1.17.59,2.2,1,3.08,1.47a30.91,30.91,0,0,1,3.07,1.46,6.07,6.07,0,0,1,1.61,1l.58.59.59-.59a6.07,6.07,0,0,1,1.61-1c.73-.44,1.9-.88,3.07-1.46.88-.44,1.9-.88,3.07-1.47a9.66,9.66,0,0,0,2.93-2.06,11.94,11.94,0,0,0,2.34-4.11c1.32-3.67,2-9.39,2-19.22v-.74Zm-3.07,19.52a9.76,9.76,0,0,1-2,3.52,8.94,8.94,0,0,1-2.34,1.76c-1.17.59-2.2,1-3.07,1.47-1.32.59-2.35,1.17-3.22,1.61a14.25,14.25,0,0,0-1.47.88,14,14,0,0,0-1.46-.88c-.88-.44-1.9-1-3.22-1.61-.88-.44-1.9-.88-3.07-1.47A5.47,5.47,0,0,1,7.23,122a9.62,9.62,0,0,1-2.05-3.52c-1.17-3.23-1.9-8.66-1.9-17.91a35.51,35.51,0,0,0,8.92-4.4,29.27,29.27,0,0,0,4.25-3.23,7.22,7.22,0,0,0,1-1.18,3.89,3.89,0,0,0,1,1.18A25.11,25.11,0,0,0,22.59,96a35.56,35.56,0,0,0,8.93,4.4C31.37,109.81,30.64,115.09,29.47,118.47Z"/><path class="cls-3" d="M20.69,106.87c-.15-.14-.29-.29-.44-.44s-.44-.29-.73-.44a2.08,2.08,0,0,0-1-.29,2.48,2.48,0,0,0-1-.15,3.33,3.33,0,0,0-1.9.44,1.44,1.44,0,0,0-.59,1.32,1.09,1.09,0,0,0,.15.74,2.19,2.19,0,0,0,.59.44,8.12,8.12,0,0,0,1,.44,4.48,4.48,0,0,0,1.32.29l1.75.44a3.77,3.77,0,0,1,1.32.74,6.68,6.68,0,0,1,.88,1,4.51,4.51,0,0,1,.29,1.47,3,3,0,0,1-.44,1.61,4,4,0,0,1-1,1.18,4.53,4.53,0,0,1-1.47.59,7.39,7.39,0,0,1-1.75.14,9,9,0,0,1-2.78-.44,7.24,7.24,0,0,1-2.34-1.32l.87-1.47c.15.15.44.3.59.44a9.89,9.89,0,0,1,1,.59c.44.15.74.29,1.32.44a4,4,0,0,0,1.32.15,3.13,3.13,0,0,0,1.75-.44,1.36,1.36,0,0,0,.59-1.18,1.16,1.16,0,0,0-.29-.73,3.18,3.18,0,0,0-.74-.59,8.12,8.12,0,0,0-1-.44c-.44-.14-.88-.29-1.46-.44s-1.17-.29-1.61-.44a3.1,3.1,0,0,1-1.17-.73,3.73,3.73,0,0,1-.73-.88,2.92,2.92,0,0,1-.3-1.32,5.19,5.19,0,0,1,.3-1.62,7.9,7.9,0,0,1,.87-1.17,4.52,4.52,0,0,1,1.47-.74,7.62,7.62,0,0,1,1.75-.29,6.1,6.1,0,0,1,2.34.44,7.69,7.69,0,0,1,1.9,1Z"/></g></g></g></g></svg>