<svg xmlns="http://www.w3.org/2000/svg" xmlns:xlink="http://www.w3.org/1999/xlink" viewBox="0 0 434.2 361.33"><defs><style>.cls-1{fill:none;}.cls-2{fill:#909090;}.cls-3{fill:#fff;}.cls-4{fill:#3a3a3a;}.cls-5{clip-path:url(#clip-path);}.cls-6{clip-path:url(#clip-path-2);}.cls-7{fill:#754c24;}</style><clipPath id="clip-path"><rect class="cls-1" x="230.74" y="218.18" width="12.93" height="18.37"/></clipPath><clipPath id="clip-path-2"><rect class="cls-1" x="2.18" y="103.88" width="23.9" height="30.5"/></clipPath></defs><title>nring-map-2-legend-2</title><g id="Layer_2" data-name="Layer 2"><g id="Layer_1-2" data-name="Layer 1"><path class="cls-2" d="M27.51,1.06H.75V27.82H27.51Z"/><path class="cls-3" d="M15.54,15.5l-1.41-3.87L12.72,15.5ZM13.31,9.28h1.76l3.75,10h-2l-.94-2.47H12.37l-.94,2.47h-2Z"/><path class="cls-3" d="M54.49,8H49.94V19.66H48.68V8H44.12V6.88H54.49ZM59,19.84a3.75,3.75,0,0,1-2.11-.6,4.74,4.74,0,0,1-1.46-1.53v5.78H54.17V10.28h1.09V12.1a4.53,4.53,0,0,1,1.5-1.42,3.71,3.71,0,0,1,2-.56,4,4,0,0,1,1.78.41,4.49,4.49,0,0,1,1.4,1.08,4.66,4.66,0,0,1,.92,1.55A5,5,0,0,1,63.2,15a5.77,5.77,0,0,1-.3,1.87A4.66,4.66,0,0,1,62,18.4a4.13,4.13,0,0,1-1.35,1.06A3.82,3.82,0,0,1,59,19.84Zm-.35-1.08A2.83,2.83,0,0,0,60,18.43,3.14,3.14,0,0,0,61,17.59a3.92,3.92,0,0,0,.69-1.21A4.42,4.42,0,0,0,62,15a3.88,3.88,0,0,0-.27-1.44A4,4,0,0,0,61,12.33a3.49,3.49,0,0,0-1.11-.82,3,3,0,0,0-1.37-.31,2.86,2.86,0,0,0-1,.2,3.66,3.66,0,0,0-1,.5,3.75,3.75,0,0,0-.75.74,2.07,2.07,0,0,0-.38.88V16.4a4.59,4.59,0,0,0,.54.94,4.14,4.14,0,0,0,.76.75,3.83,3.83,0,0,0,.91.49A2.91,2.91,0,0,0,58.61,18.76Zm7.91-.83,5.6-7.65h1v9.38H71.9V12.15l-5.49,7.51h-1.1V10.28h1.21ZM80.43,8.05a4.53,4.53,0,0,0-2.52,1.44,5.52,5.52,0,0,0-1.15,3,4,4,0,0,1,1.38-1.33,3.86,3.86,0,0,1,1.91-.47,4.2,4.2,0,0,1,1.68.34A3.82,3.82,0,0,1,83,12a3.9,3.9,0,0,1,.85,1.44,5.48,5.48,0,0,1,.3,1.85,5.54,5.54,0,0,1-.3,1.86,4,4,0,0,1-2.29,2.36,5,5,0,0,1-1.83.32,3.68,3.68,0,0,1-3.15-1.46,6.85,6.85,0,0,1-1.08-4.14,11.32,11.32,0,0,1,.32-2.88,7.13,7.13,0,0,1,1-2.12A5,5,0,0,1,78.32,7.8a6.88,6.88,0,0,1,2-.83l2.81-.65.23,1Zm-3.65,7.2A4.69,4.69,0,0,0,77,16.67a3.71,3.71,0,0,0,.61,1.13,3.1,3.1,0,0,0,3.51.76,2.77,2.77,0,0,0,1-.74,3.35,3.35,0,0,0,.63-1.09,4.58,4.58,0,0,0,.21-1.41,3.67,3.67,0,0,0-.84-2.54,3,3,0,0,0-2.29-.93,3.23,3.23,0,0,0-1.22.23,2.54,2.54,0,0,0-1,.69A3.24,3.24,0,0,0,77,13.83,4.46,4.46,0,0,0,76.78,15.25Zm9.13,6.89a1.51,1.51,0,0,0,.54.35,1.81,1.81,0,0,0,.58.09.78.78,0,0,0,.45-.15,1.28,1.28,0,0,0,.45-.47,4.37,4.37,0,0,0,.47-.88c.15-.37.33-.84.52-1.42l-4.09-9.38h1.26l3.48,8.24,3.22-8.24H94L89.59,21.21A8.08,8.08,0,0,1,89,22.38a3.36,3.36,0,0,1-.58.75,1.44,1.44,0,0,1-.63.4,2.05,2.05,0,0,1-.72.12,1.67,1.67,0,0,1-1.24-.43Zm11-7.81h5.26V10.28h1.2v9.38h-1.2v-4.3H96.89v4.3h-1.2V10.28h1.2Zm11.54,5.51a3.37,3.37,0,0,1-1.24-.22,3.21,3.21,0,0,1-1-.63,3.09,3.09,0,0,1-.65-.91,3,3,0,0,1-.23-1.16,2.24,2.24,0,0,1,.29-1.13,2.66,2.66,0,0,1,.81-.9,4,4,0,0,1,1.24-.58,5.64,5.64,0,0,1,1.58-.21,9.08,9.08,0,0,1,1.46.12,7.07,7.07,0,0,1,1.31.36v-.84a2.71,2.71,0,0,0-.7-2,2.53,2.53,0,0,0-1.94-.73,4,4,0,0,0-1.48.29,7.17,7.17,0,0,0-1.53.82l-.43-.81a6.37,6.37,0,0,1,3.53-1.22,3.79,3.79,0,0,1,2.77,1,3.67,3.67,0,0,1,1,2.74v4.23c0,.33.15.5.45.5v1.08a2.41,2.41,0,0,1-.47.05,1.08,1.08,0,0,1-.74-.23,1,1,0,0,1-.27-.65l0-.74a4.26,4.26,0,0,1-1.64,1.3A5,5,0,0,1,108.43,19.84Zm.29-.94a4.18,4.18,0,0,0,1.75-.36,2.83,2.83,0,0,0,1.22-.95,1.06,1.06,0,0,0,.24-.34.91.91,0,0,0,.08-.36V15.36a7.44,7.44,0,0,0-2.61-.49,3.72,3.72,0,0,0-2.1.54,1.64,1.64,0,0,0-.81,1.42,2,2,0,0,0,.16.81,2.31,2.31,0,0,0,.47.67,2.34,2.34,0,0,0,.72.43A2.37,2.37,0,0,0,108.72,18.9Z"/><path class="cls-3" d="M52.89,118.36a4.09,4.09,0,0,0-1.44-1A5.31,5.31,0,0,0,49.4,117a3.85,3.85,0,0,0-2.47.64,2.39,2.39,0,0,0-.58,2.69A2,2,0,0,0,47,121a4.55,4.55,0,0,0,1.1.46c.46.14,1,.27,1.6.4a15.61,15.61,0,0,1,1.84.49,4.93,4.93,0,0,1,1.4.68,2.62,2.62,0,0,1,.88,1,3,3,0,0,1,.31,1.44A3,3,0,0,1,52.84,128a4.33,4.33,0,0,1-1.46.65,8.35,8.35,0,0,1-1.86.2A7.61,7.61,0,0,1,44.39,127l.63-1a5,5,0,0,0,.81.68,7.18,7.18,0,0,0,1.06.58,9.73,9.73,0,0,0,1.26.38,8,8,0,0,0,1.41.12,4.38,4.38,0,0,0,2.37-.54,2.05,2.05,0,0,0,.62-2.66,1.94,1.94,0,0,0-.72-.7,5.05,5.05,0,0,0-1.21-.53c-.48-.14-1-.28-1.67-.43s-1.26-.32-1.77-.48a4.93,4.93,0,0,1-1.28-.63,2.79,2.79,0,0,1-.79-.9,3.08,3.08,0,0,1-.25-1.32,3.65,3.65,0,0,1,.32-1.56,3.11,3.11,0,0,1,1-1.16,4.39,4.39,0,0,1,1.44-.7,6.18,6.18,0,0,1,1.83-.25,6.15,6.15,0,0,1,4.09,1.48Zm7.26,10.57a4.73,4.73,0,0,1-1.89-.38,4.89,4.89,0,0,1-1.48-1.06,5.22,5.22,0,0,1-1-1.57,5.29,5.29,0,0,1-.34-1.89,5.15,5.15,0,0,1,.34-1.85,4.84,4.84,0,0,1,1-1.53,4.49,4.49,0,0,1,1.49-1,4.36,4.36,0,0,1,1.87-.4,4.24,4.24,0,0,1,1.87.4,4.35,4.35,0,0,1,1.48,1,4.64,4.64,0,0,1,1,1.53,4.94,4.94,0,0,1,.35,1.84v.28a.75.75,0,0,1,0,.2h-8a4.35,4.35,0,0,0,.34,1.41,3.93,3.93,0,0,0,.78,1.09,3.38,3.38,0,0,0,1.06.74,3.33,3.33,0,0,0,1.29.25,3.48,3.48,0,0,0,.9-.12,4.12,4.12,0,0,0,.83-.34,3.52,3.52,0,0,0,.69-.53,2.23,2.23,0,0,0,.46-.7l1.07.29a3.12,3.12,0,0,1-.62,1,4.09,4.09,0,0,1-2.07,1.21A4.71,4.71,0,0,1,60.15,128.93Zm3.46-5.36a3.74,3.74,0,0,0-.36-1.37,3.68,3.68,0,0,0-.76-1.08,3.06,3.06,0,0,0-1.06-.7,3.22,3.22,0,0,0-1.28-.26,3.35,3.35,0,0,0-1.3.26,3.46,3.46,0,0,0-1.08.7A3.61,3.61,0,0,0,57,122.2a4.3,4.3,0,0,0-.33,1.37ZM66,124a5.09,5.09,0,0,1,.34-1.87,4.6,4.6,0,0,1,1-1.53,4.54,4.54,0,0,1,1.5-1,4.71,4.71,0,0,1,1.9-.38,4.33,4.33,0,0,1,2.33.61,3.82,3.82,0,0,1,1.49,1.62l-1.19.38a2.78,2.78,0,0,0-1.11-1.12,3.09,3.09,0,0,0-1.57-.41,3.24,3.24,0,0,0-1.35.29,3.35,3.35,0,0,0-1.08.79,3.61,3.61,0,0,0-.72,1.17,4.24,4.24,0,0,0-.25,1.49,4.16,4.16,0,0,0,.27,1.5,4,4,0,0,0,.74,1.22,3.56,3.56,0,0,0,1.08.81,3.18,3.18,0,0,0,1.33.29,2.93,2.93,0,0,0,.88-.13,3.22,3.22,0,0,0,.83-.34,3.09,3.09,0,0,0,.65-.52,1.64,1.64,0,0,0,.37-.61l1.21.36a3,3,0,0,1-.58.93,4,4,0,0,1-.89.74,4.14,4.14,0,0,1-1.14.47,4.5,4.5,0,0,1-1.28.18,4.73,4.73,0,0,1-1.89-.38,4.81,4.81,0,0,1-1.49-1.06,5.22,5.22,0,0,1-1-1.57A5.08,5.08,0,0,1,66,124Zm13.46,4.9a2.7,2.7,0,0,1-2.29-1,5.2,5.2,0,0,1-.74-3v-5.51h1.23v5.29c0,2.13.72,3.19,2.18,3.19a3.23,3.23,0,0,0,1.06-.18,3.14,3.14,0,0,0,1-.52,3.79,3.79,0,0,0,.79-.81,3.88,3.88,0,0,0,.58-1.06v-5.91h1.22v7.8c0,.33.15.5.44.5v1.08l-.36,0h-.18a1,1,0,0,1-.71-.31,1.08,1.08,0,0,1-.27-.77v-1.08a4.36,4.36,0,0,1-1.67,1.71A4.51,4.51,0,0,1,79.48,128.93Zm12.43-8.48a3.83,3.83,0,0,0-2.16.69,3.41,3.41,0,0,0-1.29,1.78v5.83H87.23v-9.38h1.15v2.25a4.29,4.29,0,0,1,1.41-1.69,3.25,3.25,0,0,1,1.89-.61.79.79,0,0,1,.23,0Zm1.63,8.3v-9.38h1.23v9.38Zm0-11.34v-1.8h1.23v1.8ZM102,128.3l-.32.14a4.7,4.7,0,0,1-.47.18,5.79,5.79,0,0,1-.61.17,4.18,4.18,0,0,1-.72.07,2.68,2.68,0,0,1-.76-.11,1.87,1.87,0,0,1-.63-.32,1.76,1.76,0,0,1-.59-1.37v-6.72h-1.3v-1h1.3V116.2h1.22v3.17h2.16v1H99.08v6.38a1.06,1.06,0,0,0,.36.77,1.33,1.33,0,0,0,.78.23,2.35,2.35,0,0,0,.91-.16,4,4,0,0,0,.51-.25Zm2.07,3.33.27,0,.27,0a1.09,1.09,0,0,0,.5-.09.92.92,0,0,0,.38-.4,5.45,5.45,0,0,0,.4-.88c.16-.39.37-.9.65-1.55l-4.09-9.38h1.26l3.48,8.25,3.22-8.25h1.17l-4.86,12.1a2.18,2.18,0,0,1-.67.9,1.82,1.82,0,0,1-1.24.39h-.34a3.58,3.58,0,0,1-.4,0Z"/><path class="cls-3" d="M45.45,60.25h9.87V73H54.06V61.37H46.7V73H45.45Zm15.1,13A3.59,3.59,0,0,1,59.31,73a3.63,3.63,0,0,1-1-.63,3,3,0,0,1-.65-.92,2.78,2.78,0,0,1-.23-1.15,2.35,2.35,0,0,1,.28-1.14,3.13,3.13,0,0,1,.81-.9,3.88,3.88,0,0,1,1.25-.57,5.25,5.25,0,0,1,1.58-.22,8.08,8.08,0,0,1,1.46.13,5.8,5.8,0,0,1,1.31.36v-.85a2.67,2.67,0,0,0-.7-2,2.57,2.57,0,0,0-1.94-.74A4.18,4.18,0,0,0,60,64.7a7.23,7.23,0,0,0-1.53.83l-.43-.81a6.31,6.31,0,0,1,3.53-1.23,3.79,3.79,0,0,1,2.77,1,3.68,3.68,0,0,1,1,2.74v4.23c0,.34.15.5.45.5V73a2.7,2.7,0,0,1-.47.06,1.08,1.08,0,0,1-.74-.24.86.86,0,0,1-.27-.64l0-.74a4.22,4.22,0,0,1-1.63,1.29A5,5,0,0,1,60.55,73.21Zm.29-.93a4.14,4.14,0,0,0,1.74-.36,2.88,2.88,0,0,0,1.23-1,.93.93,0,0,0,.23-.34.87.87,0,0,0,.09-.36V68.73a8.6,8.6,0,0,0-1.28-.36,7.23,7.23,0,0,0-1.33-.12,3.72,3.72,0,0,0-2.1.54,1.64,1.64,0,0,0-.81,1.42,2,2,0,0,0,.16.81,2.21,2.21,0,0,0,.47.66,2.36,2.36,0,0,0,.72.44A2.55,2.55,0,0,0,60.84,72.28Zm12,.93a3.74,3.74,0,0,1-2.1-.59,5,5,0,0,1-1.46-1.53v5.78H68V63.66h1.09v1.81a4.63,4.63,0,0,1,1.5-1.42,3.91,3.91,0,0,1,3.78-.14A4.22,4.22,0,0,1,75.81,65a4.72,4.72,0,0,1,.92,1.55,4.89,4.89,0,0,1,.34,1.81,5.83,5.83,0,0,1-.3,1.88,4.71,4.71,0,0,1-.89,1.54,4.16,4.16,0,0,1-1.35,1.07A3.83,3.83,0,0,1,72.82,73.21Zm-.34-1.08a2.83,2.83,0,0,0,1.37-.32A3.4,3.4,0,0,0,74.91,71a4,4,0,0,0,.69-1.2,4.53,4.53,0,0,0,.23-1.41,3.92,3.92,0,0,0-.27-1.44,4.09,4.09,0,0,0-.74-1.2,3.37,3.37,0,0,0-1.11-.83,3.16,3.16,0,0,0-1.37-.31,2.86,2.86,0,0,0-1,.2,3.7,3.7,0,0,0-1,.51,3.46,3.46,0,0,0-.75.73,2,2,0,0,0-.38.89v2.88a4.34,4.34,0,0,0,.54.93,4.55,4.55,0,0,0,.76.76,4,4,0,0,0,.91.48A2.91,2.91,0,0,0,72.48,72.13Zm12.25-8.47h1.36l-3.54,4.53L86.4,73H85l-3.31-4.28H80.39V73H79.18V63.66h1.21V67.8h1.22Zm6.8,9.55a4.61,4.61,0,0,1-1.88-.37,4.76,4.76,0,0,1-2.43-2.61,5.29,5.29,0,0,1,0-3.73,5.17,5.17,0,0,1,1-1.55,4.85,4.85,0,0,1,1.47-1.06,4.4,4.4,0,0,1,1.86-.4,4.36,4.36,0,0,1,1.85.4A4.55,4.55,0,0,1,94.86,65a4.78,4.78,0,0,1,1,1.55,4.9,4.9,0,0,1,.36,1.87,5.29,5.29,0,0,1-.34,1.86,4.76,4.76,0,0,1-1,1.54,4.53,4.53,0,0,1-1.47,1.07A4.59,4.59,0,0,1,91.53,73.21Zm-3.41-4.82a4,4,0,0,0,.27,1.48,4.15,4.15,0,0,0,.72,1.18,3.79,3.79,0,0,0,1.08.8,3.22,3.22,0,0,0,1.34.28,3.08,3.08,0,0,0,1.31-.28,3.87,3.87,0,0,0,1.1-.81,4,4,0,0,0,1-2.69,3.89,3.89,0,0,0-.27-1.45,3.78,3.78,0,0,0-.74-1.21,3.24,3.24,0,0,0-1.1-.81,2.94,2.94,0,0,0-2.63,0,3.27,3.27,0,0,0-1.08.81,4.07,4.07,0,0,0-.74,1.22A4,4,0,0,0,88.12,68.39Zm14.76-4.73a2.32,2.32,0,0,1,.92.18,2.11,2.11,0,0,1,.74.5,2,2,0,0,1,.48.72,2.26,2.26,0,0,1,.18.9,2.43,2.43,0,0,1-.09.65,2.67,2.67,0,0,1-.23.63,2.63,2.63,0,0,1-.42.54,2.22,2.22,0,0,1-.59.38,2.21,2.21,0,0,1,1.24.82,2.43,2.43,0,0,1,.45,1.48,2.51,2.51,0,0,1-.21,1,2.27,2.27,0,0,1-.58.81,2.56,2.56,0,0,1-.87.54,3.2,3.2,0,0,1-1.09.18H98.29V63.66Zm-.49,4.14a1.53,1.53,0,0,0,1.17-.47,1.67,1.67,0,0,0,.43-1.19,1.69,1.69,0,0,0-.36-1.1,1.31,1.31,0,0,0-1.11-.47h-3V67.8Zm.29,4.32a1.58,1.58,0,0,0,.69-.15,1.47,1.47,0,0,0,.53-.38,2,2,0,0,0,.35-.55,1.78,1.78,0,0,0,.12-.65,1.67,1.67,0,0,0-.45-1.15,1.49,1.49,0,0,0-1.2-.51H99.48v3.39Zm10.54-8.46h1.37L111,68.19,114.89,73h-1.37l-3.31-4.28h-1.33V73h-1.2V63.66h1.2V67.8h1.22Zm5.43,9.55a3.07,3.07,0,0,1-2.24-.84,2.93,2.93,0,0,1-.64-.92,2.79,2.79,0,0,1-.24-1.15,2.36,2.36,0,0,1,.29-1.14,2.86,2.86,0,0,1,.81-.9,3.83,3.83,0,0,1,1.24-.57,5.32,5.32,0,0,1,1.59-.22,8,8,0,0,1,1.45.13,5.89,5.89,0,0,1,1.32.36v-.85a2.71,2.71,0,0,0-.7-2,2.58,2.58,0,0,0-2-.74,4.13,4.13,0,0,0-1.47.29,6.78,6.78,0,0,0-1.53.83l-.44-.81a6.34,6.34,0,0,1,3.53-1.23,3.77,3.77,0,0,1,2.77,1,3.65,3.65,0,0,1,1,2.74v4.23c0,.34.15.5.45.5V73a2.59,2.59,0,0,1-.47.06,1.05,1.05,0,0,1-.73-.24.86.86,0,0,1-.27-.64l0-.74a4.25,4.25,0,0,1-1.64,1.29A5,5,0,0,1,118.65,73.21Zm.28-.93a4.18,4.18,0,0,0,1.75-.36,2.79,2.79,0,0,0,1.22-1,1,1,0,0,0,.24-.34.87.87,0,0,0,.09-.36V68.73a9,9,0,0,0-1.28-.36,7.31,7.31,0,0,0-1.33-.12,3.73,3.73,0,0,0-2.11.54,1.64,1.64,0,0,0-.81,1.42,2.17,2.17,0,0,0,.16.81,2.4,2.4,0,0,0,.47.66,2.62,2.62,0,0,0,.72.44A2.59,2.59,0,0,0,118.93,72.28Z"/><path class="cls-4" d="M14.18,78.67a12.55,12.55,0,1,0-.1-25.1,12.55,12.55,0,0,0,.1,25.1Z"/><path class="cls-3" d="M14.13,52.92a13.2,13.2,0,1,0,13.2,13.2A13.19,13.19,0,0,0,14.13,52.92Zm0,25.1A11.9,11.9,0,1,1,26,66.12,11.93,11.93,0,0,1,14.13,78Z"/><path class="cls-3" d="M12.37,66.28h2.28a.75.75,0,0,0,.52-.11,1.29,1.29,0,0,0,.41-.31,2.27,2.27,0,0,0,.31-.51,1.28,1.28,0,0,0,.11-.63c0-.2,0-.51-.11-.62a2.64,2.64,0,0,0-.31-.52c-.1-.1-.31-.31-.41-.31a1,1,0,0,0-.52-.1H12.47v3.11Zm-1.45,4.25V61.72h3.73a4.63,4.63,0,0,1,1.14.2,6,6,0,0,1,.83.63,4.35,4.35,0,0,1,.52.93,3.82,3.82,0,0,1,.2,1,3.14,3.14,0,0,1-.2,1,4.66,4.66,0,0,1-.52.94,1.67,1.67,0,0,1-.83.62,1.86,1.86,0,0,1-1,.21H12.37v3.1H10.92Z"/><path class="cls-3" d="M54.49,224H49.94v11.66H48.68V224H44.12v-1.12H54.49Zm.22,14.15a1.47,1.47,0,0,0,.54.34,1.81,1.81,0,0,0,.58.09.88.88,0,0,0,.45-.14,1.46,1.46,0,0,0,.45-.47,5.32,5.32,0,0,0,.47-.88c.15-.38.32-.85.52-1.43l-4.09-9.37h1.26l3.48,8.24,3.22-8.24h1.17l-4.38,10.92a6.41,6.41,0,0,1-.56,1.17,3.14,3.14,0,0,1-.57.76,1.51,1.51,0,0,1-.63.39,1.88,1.88,0,0,1-.72.13,1.67,1.67,0,0,1-1.24-.43Zm11.89-2.31a3.64,3.64,0,0,1-1.25-.21,3.43,3.43,0,0,1-1-.63,2.83,2.83,0,0,1-.89-2.07,2.36,2.36,0,0,1,.29-1.14,2.86,2.86,0,0,1,.81-.9,3.83,3.83,0,0,1,1.24-.57,5.32,5.32,0,0,1,1.59-.22,8.16,8.16,0,0,1,1.46.13,6,6,0,0,1,1.31.36v-.85a2.67,2.67,0,0,0-.7-2,2.58,2.58,0,0,0-2-.74,4.13,4.13,0,0,0-1.47.29,6.78,6.78,0,0,0-1.53.83l-.43-.81a6.28,6.28,0,0,1,3.52-1.23,3.81,3.81,0,0,1,2.78,1,3.68,3.68,0,0,1,1,2.74v4.23c0,.34.15.5.45.5v1.08a2.59,2.59,0,0,1-.47.06,1.05,1.05,0,0,1-.73-.24.86.86,0,0,1-.27-.64l0-.74a4.25,4.25,0,0,1-1.64,1.29A5,5,0,0,1,66.6,235.82Zm.28-.93a4.18,4.18,0,0,0,1.75-.36,2.79,2.79,0,0,0,1.22-1,1,1,0,0,0,.24-.34.87.87,0,0,0,.09-.36v-1.53A8.6,8.6,0,0,0,68.9,231a7.31,7.31,0,0,0-1.33-.12,3.75,3.75,0,0,0-2.11.54,1.64,1.64,0,0,0-.81,1.42,2,2,0,0,0,.17.81,2.18,2.18,0,0,0,.46.66,2.62,2.62,0,0,0,.72.44A2.59,2.59,0,0,0,66.88,234.89Zm5.94-.27a2.11,2.11,0,0,0,.89-.27,2,2,0,0,0,.64-.88,7.92,7.92,0,0,0,.49-1.77c.14-.74.28-1.71.41-2.9l.27-2.53H81v9.37H79.82v-8.4H76.66l-.26,2.09a29.26,29.26,0,0,1-.52,3.09,8.4,8.4,0,0,1-.68,2,2.37,2.37,0,0,1-.92,1,3.08,3.08,0,0,1-1.26.33Zm15,1.2a4.72,4.72,0,0,1-1.89-.37,4.92,4.92,0,0,1-1.48-1.07,4.85,4.85,0,0,1-1-1.56,5.16,5.16,0,0,1-.35-1.89,5,5,0,0,1,.35-1.86,4.86,4.86,0,0,1,1-1.53,4.6,4.6,0,0,1,1.49-1,4.51,4.51,0,0,1,1.87-.4,4.66,4.66,0,0,1,3.35,1.44,5.07,5.07,0,0,1,1,1.53,5.14,5.14,0,0,1,.34,1.84v.29a.88.88,0,0,1,0,.2h-8a4.29,4.29,0,0,0,.34,1.4,4,4,0,0,0,.78,1.1,3.14,3.14,0,0,0,2.35,1,3.18,3.18,0,0,0,.91-.13,3.73,3.73,0,0,0,.82-.34,3.2,3.2,0,0,0,.69-.52,2.61,2.61,0,0,0,.47-.7l1.06.28a3.29,3.29,0,0,1-.62,1,4.81,4.81,0,0,1-.91.74,4.32,4.32,0,0,1-1.15.46A4.78,4.78,0,0,1,87.8,235.82Zm3.46-5.36a3.8,3.8,0,0,0-.36-1.37,3.51,3.51,0,0,0-.76-1.08,3.32,3.32,0,0,0-2.34-.95,3.3,3.3,0,0,0-1.29.25,3.41,3.41,0,0,0-1.08.7,3.63,3.63,0,0,0-.74,1.08,4.37,4.37,0,0,0-.33,1.37Zm6.16,5.18H96.23v-8.31H92.94v-1.06h7.77v1.06H97.42Z"/><path class="cls-3" d="M280.43,180.64V170.15l-4.66,8.12H275l-4.66-8.12v10.49h-1.26V167.86h1.3l5,8.75,5-8.75h1.28v12.78Zm8.18.18a4.58,4.58,0,0,1-1.9-.38,4.68,4.68,0,0,1-1.47-1.06,4.89,4.89,0,0,1-1.33-3.45,5,5,0,0,1,.34-1.86,4.81,4.81,0,0,1,1-1.53,4.6,4.6,0,0,1,1.49-1,4.41,4.41,0,0,1,1.88-.4,4.3,4.3,0,0,1,1.87.4,4.22,4.22,0,0,1,1.47,1,5.07,5.07,0,0,1,1,1.53,4.93,4.93,0,0,1,.34,1.84v.29a.45.45,0,0,1,0,.19h-8a4.06,4.06,0,0,0,.35,1.41,4.1,4.1,0,0,0,.77,1.1,3.65,3.65,0,0,0,1.06.73,3.35,3.35,0,0,0,1.3.26,3.5,3.5,0,0,0,.9-.13,3.61,3.61,0,0,0,.83-.34,3.5,3.5,0,0,0,.68-.52,2.51,2.51,0,0,0,.47-.71l1.06.29a3.26,3.26,0,0,1-.61,1,4.48,4.48,0,0,1-.92.73,4.34,4.34,0,0,1-1.15.47A4.76,4.76,0,0,1,288.61,180.82Zm3.45-5.36a3.74,3.74,0,0,0-.36-1.37A3.48,3.48,0,0,0,291,173a3.36,3.36,0,0,0-1.07-.7,3.16,3.16,0,0,0-1.27-.25,3.34,3.34,0,0,0-1.3.25,3.41,3.41,0,0,0-1.08.7,3.63,3.63,0,0,0-.74,1.08,4.1,4.1,0,0,0-.32,1.37Zm1.75,4.12h.54a1.32,1.32,0,0,0,.69-.4,2.88,2.88,0,0,0,.54-1,11.4,11.4,0,0,0,.41-1.73c.12-.72.25-1.61.38-2.68l.29-2.54h5.49v8.32h1.15v4h-1.08v-2.9h-7.38v2.9h-1Zm7.15,0v-7.34h-3.17l-.27,2.08a25.78,25.78,0,0,1-.67,3.5,4.12,4.12,0,0,1-.82,1.76Zm4.28-8.32h1.21v8.32H311v-8.32h1.19v8.32h1.57v4h-1.07v-2.9h-7.49Zm14.18,9.56a4.56,4.56,0,0,1-1.89-.38,4.73,4.73,0,0,1-1.48-1.06,5.18,5.18,0,0,1-1-1.56,5.37,5.37,0,0,1-.34-1.89,5.21,5.21,0,0,1,.34-1.86,4.84,4.84,0,0,1,1-1.53,4.49,4.49,0,0,1,1.49-1,4.36,4.36,0,0,1,1.87-.4,4.24,4.24,0,0,1,1.87.4,4.35,4.35,0,0,1,1.48,1,4.85,4.85,0,0,1,.95,1.53,4.94,4.94,0,0,1,.35,1.84v.29a.71.71,0,0,1,0,.19h-8a4.29,4.29,0,0,0,.34,1.41,4.13,4.13,0,0,0,.78,1.1,3.52,3.52,0,0,0,1.06.73,3.34,3.34,0,0,0,1.29.26,3.5,3.5,0,0,0,.9-.13,3.61,3.61,0,0,0,.83-.34,3.9,3.9,0,0,0,.69-.52,2.28,2.28,0,0,0,.46-.71l1.07.29a3.29,3.29,0,0,1-.62,1,4.7,4.7,0,0,1-.91.73,4.41,4.41,0,0,1-1.16.47A4.71,4.71,0,0,1,319.42,180.82Zm3.46-5.36a3.74,3.74,0,0,0-.36-1.37,3.68,3.68,0,0,0-.76-1.08,3.32,3.32,0,0,0-2.34-.95,3.34,3.34,0,0,0-1.3.25,3.65,3.65,0,0,0-1.08.7,3.61,3.61,0,0,0-.73,1.08,4.37,4.37,0,0,0-.33,1.37Zm4.28-.15h5.25v-4.05h1.21v9.38h-1.21v-4.3h-5.25v4.3H326v-9.38h1.21Zm12.69,5.33h-1.19v-8.31h-3.29v-1.07h7.77v1.07h-3.29Zm9.82.18a3.82,3.82,0,0,1-2.1-.59,5,5,0,0,1-1.46-1.53v5.78h-1.23V171.26H346v1.82a4.43,4.43,0,0,1,1.5-1.42,3.76,3.76,0,0,1,2-.56,3.84,3.84,0,0,1,1.79.42,4.32,4.32,0,0,1,1.4,1.08,4.78,4.78,0,0,1,.92,1.54,5,5,0,0,1,.34,1.82,5.48,5.48,0,0,1-.31,1.87,4.47,4.47,0,0,1-.88,1.55,4,4,0,0,1-1.35,1.06A3.71,3.71,0,0,1,349.67,180.82Zm-.34-1.08a3,3,0,0,0,1.37-.32,3.4,3.4,0,0,0,1.06-.85,3.76,3.76,0,0,0,.68-1.2,4.26,4.26,0,0,0,.24-1.41,3.92,3.92,0,0,0-.27-1.44,4,4,0,0,0-.74-1.2,3.31,3.31,0,0,0-1.12-.83,3,3,0,0,0-1.36-.31,2.77,2.77,0,0,0-1,.2,4,4,0,0,0-1,.5,3.29,3.29,0,0,0-.75.74,2,2,0,0,0-.38.88v2.88a4.17,4.17,0,0,0,.54.94,4.91,4.91,0,0,0,.75.76,4.25,4.25,0,0,0,.92.48A2.91,2.91,0,0,0,349.33,179.74Z"/><path class="cls-3" d="M45.45,167.93h9.87v12.78H54.06V169.05H46.7v11.66H45.45Zm17.64,13A3.75,3.75,0,0,1,61,180.3a5,5,0,0,1-1.46-1.53v5.78H58.3V171.34h1.1v1.81a4.5,4.5,0,0,1,1.49-1.42,3.91,3.91,0,0,1,3.78-.14,4.22,4.22,0,0,1,1.4,1.08,4.56,4.56,0,0,1,.92,1.55,4.89,4.89,0,0,1,.34,1.81,5.83,5.83,0,0,1-.3,1.88,4.87,4.87,0,0,1-.88,1.54,4.38,4.38,0,0,1-1.35,1.07A3.89,3.89,0,0,1,63.09,180.89Zm-.35-1.08a2.83,2.83,0,0,0,1.37-.32,3.29,3.29,0,0,0,1.06-.85,4,4,0,0,0,.69-1.2,4.53,4.53,0,0,0,.23-1.41,3.94,3.94,0,0,0-1-2.64,3.37,3.37,0,0,0-1.11-.83,3.16,3.16,0,0,0-1.37-.31,2.86,2.86,0,0,0-1,.2,3.64,3.64,0,0,0-1,.51,3.51,3.51,0,0,0-.76.73,2.06,2.06,0,0,0-.38.89v2.88a5.37,5.37,0,0,0,.54.93,4.55,4.55,0,0,0,.76.76,4,4,0,0,0,.92.48A2.85,2.85,0,0,0,62.74,179.81Zm10.73,1.08a4.72,4.72,0,0,1-1.89-.37,4.88,4.88,0,0,1-1.47-1.07,5.06,5.06,0,0,1-1-1.56,5.15,5.15,0,0,1-.34-1.89,4.85,4.85,0,0,1,1.31-3.39,4.6,4.6,0,0,1,1.49-1,4.53,4.53,0,0,1,1.88-.4,4.45,4.45,0,0,1,1.87.4,4.31,4.31,0,0,1,1.47,1,5.07,5.07,0,0,1,1,1.53A4.93,4.93,0,0,1,78.1,176v.29a.88.88,0,0,1,0,.2h-8a4.06,4.06,0,0,0,.35,1.4,4,4,0,0,0,.77,1.1,3.68,3.68,0,0,0,1.06.74,3.54,3.54,0,0,0,1.3.25,3.11,3.11,0,0,0,.9-.13,3.81,3.81,0,0,0,.83-.34,3.14,3.14,0,0,0,.68-.52,2.61,2.61,0,0,0,.47-.7l1.06.28a3.26,3.26,0,0,1-.61,1,5.23,5.23,0,0,1-.92.74,4.32,4.32,0,0,1-1.15.46A4.78,4.78,0,0,1,73.47,180.89Zm3.46-5.36a3.8,3.8,0,0,0-.36-1.37,3.35,3.35,0,0,0-.76-1.08,3.21,3.21,0,0,0-1.06-.7,3.18,3.18,0,0,0-1.28-.25,3.33,3.33,0,0,0-1.29.25,3.41,3.41,0,0,0-1.08.7,3.63,3.63,0,0,0-.74,1.08,4.1,4.1,0,0,0-.32,1.37Zm2.41.47a5.26,5.26,0,0,1,.34-1.87,4.62,4.62,0,0,1,1-1.53,4.38,4.38,0,0,1,1.49-1,4.75,4.75,0,0,1,1.91-.38,4.3,4.3,0,0,1,2.32.62,3.7,3.7,0,0,1,1.49,1.62l-1.18.37a2.78,2.78,0,0,0-1.12-1.11,3,3,0,0,0-1.56-.42,3.29,3.29,0,0,0-1.36.29,3.75,3.75,0,0,0-1.08.79,3.82,3.82,0,0,0-.71,1.17,4.3,4.3,0,0,0-.26,1.5,4.1,4.1,0,0,0,.27,1.49,4,4,0,0,0,.74,1.23,3.92,3.92,0,0,0,1.08.81,3.29,3.29,0,0,0,2.21.16,4.12,4.12,0,0,0,.83-.34,3.13,3.13,0,0,0,.65-.53,1.59,1.59,0,0,0,.38-.61l1.21.36a3.41,3.41,0,0,1-.58.94,4.45,4.45,0,0,1-.9.74,4.06,4.06,0,0,1-1.13.46,4.55,4.55,0,0,1-1.28.18,4.65,4.65,0,0,1-1.89-.37,4.77,4.77,0,0,1-1.5-1.07,5.06,5.06,0,0,1-1-1.56A5.37,5.37,0,0,1,79.34,176Zm9.77,0a5.05,5.05,0,0,1,.35-1.87,4.55,4.55,0,0,1,2.44-2.58,4.79,4.79,0,0,1,1.91-.38,4.3,4.3,0,0,1,2.32.62,3.79,3.79,0,0,1,1.5,1.62l-1.19.37a2.72,2.72,0,0,0-1.12-1.11,3,3,0,0,0-1.56-.42,3.24,3.24,0,0,0-1.35.29,3.5,3.5,0,0,0-1.08.79,3.84,3.84,0,0,0-.72,1.17,4.29,4.29,0,0,0-.25,1.5,4.1,4.1,0,0,0,.27,1.49,4,4,0,0,0,.73,1.23,4.25,4.25,0,0,0,1.08.81,3.22,3.22,0,0,0,1.34.28,3.28,3.28,0,0,0,.88-.12,4.38,4.38,0,0,0,.83-.34,3.06,3.06,0,0,0,.64-.53,1.59,1.59,0,0,0,.38-.61l1.21.36a3.19,3.19,0,0,1-.58.94,4.45,4.45,0,0,1-.9.74,3.94,3.94,0,0,1-1.13.46,4.55,4.55,0,0,1-1.28.18,4.41,4.41,0,0,1-3.38-1.44,5.06,5.06,0,0,1-1-1.56A5.16,5.16,0,0,1,89.11,176Zm10.18.38v-1.14h5.25v1.14Zm7.79-5h1.2v8.31h4.59v-8.31h1.19v8.31h1.57v4h-1.06v-2.9h-7.49Zm14.17,9.55a4.72,4.72,0,0,1-1.89-.37,4.88,4.88,0,0,1-1.47-1.07,5.06,5.06,0,0,1-1-1.56,5.16,5.16,0,0,1-.35-1.89,4.92,4.92,0,0,1,1.32-3.39,4.6,4.6,0,0,1,1.49-1,4.51,4.51,0,0,1,1.87-.4,4.46,4.46,0,0,1,1.88.4,4.41,4.41,0,0,1,1.47,1,5.07,5.07,0,0,1,1,1.53,5.14,5.14,0,0,1,.34,1.84v.29a.88.88,0,0,1,0,.2h-8a4.29,4.29,0,0,0,.34,1.4A4.2,4.2,0,0,0,119,179a3.14,3.14,0,0,0,2.36,1,3.11,3.11,0,0,0,.9-.13,3.53,3.53,0,0,0,.82-.34,3.2,3.2,0,0,0,.69-.52,2.61,2.61,0,0,0,.47-.7l1.06.28a3.47,3.47,0,0,1-.61,1,5.23,5.23,0,0,1-.92.74,4.32,4.32,0,0,1-1.15.46A4.78,4.78,0,0,1,121.25,180.89Zm3.46-5.36a3.8,3.8,0,0,0-.36-1.37,3.51,3.51,0,0,0-.76-1.08,3.32,3.32,0,0,0-2.34-1,3.3,3.3,0,0,0-1.29.25,3.41,3.41,0,0,0-1.08.7,3.63,3.63,0,0,0-.74,1.08,4.37,4.37,0,0,0-.33,1.37Zm4.28-.14h5.26v-4h1.2v9.37h-1.2v-4.3H129v4.3h-1.2v-9.37H129Zm12.69,5.32h-1.19V172.4H137.2v-1.06H145v1.06h-3.3Zm9.82.18a3.74,3.74,0,0,1-2.1-.59,5,5,0,0,1-1.46-1.53v5.78h-1.22V171.34h1.09v1.81a4.63,4.63,0,0,1,1.5-1.42,3.91,3.91,0,0,1,3.78-.14,4.22,4.22,0,0,1,1.4,1.08,4.72,4.72,0,0,1,.92,1.55,4.89,4.89,0,0,1,.34,1.81,5.83,5.83,0,0,1-.3,1.88,4.71,4.71,0,0,1-.89,1.54,4.16,4.16,0,0,1-1.35,1.07A3.83,3.83,0,0,1,151.5,180.89Zm-.34-1.08a2.83,2.83,0,0,0,1.37-.32,3.4,3.4,0,0,0,1.06-.85,4,4,0,0,0,.69-1.2,4.53,4.53,0,0,0,.23-1.41,3.92,3.92,0,0,0-.27-1.44,4.09,4.09,0,0,0-.74-1.2,3.37,3.37,0,0,0-1.11-.83,3.16,3.16,0,0,0-1.37-.31,2.86,2.86,0,0,0-1,.2,3.7,3.7,0,0,0-1,.51,3.46,3.46,0,0,0-.75.73,2,2,0,0,0-.38.89v2.88a4.34,4.34,0,0,0,.54.93,4.55,4.55,0,0,0,.76.76,4,4,0,0,0,.91.48A2.91,2.91,0,0,0,151.16,179.81Z"/><path class="cls-4" d="M14.13,238.87a12.55,12.55,0,0,0-.1-25.1,12.55,12.55,0,1,0,.1,25.1Z"/><path class="cls-3" d="M14.13,213.17a13.2,13.2,0,1,0,13.2,13.2A13.19,13.19,0,0,0,14.13,213.17Zm0,25.1A11.9,11.9,0,1,1,26,226.37,11.93,11.93,0,0,1,14.13,238.27Z"/><path class="cls-3" d="M8.6,222.78H9.93l.84,2.46.84-2.46H13l-1.27,3.38,1,2.38,2.1-5.78H16.3l-3,7.44H12.06l-1.29-3.13L9.48,230.2H8.27l-3-7.44H6.81l2.12,5.78.92-2.38Z"/><path class="cls-3" d="M16.34,226.42a3.85,3.85,0,0,1,.24-1.33A3.54,3.54,0,0,1,20,222.72a3.38,3.38,0,0,1,1.77.45,2.86,2.86,0,0,1,1.12,1.17l-1.11.77a1.88,1.88,0,0,0-.35-.53,1.78,1.78,0,0,0-.45-.34,1.55,1.55,0,0,0-.51-.18A2.22,2.22,0,0,0,20,224a2,2,0,0,0-1.62.79,2.41,2.41,0,0,0-.4.8,2.94,2.94,0,0,0-.14.88,2.83,2.83,0,0,0,.16.95,2.6,2.6,0,0,0,.44.8,2.3,2.3,0,0,0,.69.55A1.91,1.91,0,0,0,20,229a2.37,2.37,0,0,0,.52-.06,1.93,1.93,0,0,0,.52-.2,2.15,2.15,0,0,0,.46-.35,1.54,1.54,0,0,0,.33-.52l1.19.68a2.12,2.12,0,0,1-.52.74,3.13,3.13,0,0,1-.74.54,4.09,4.09,0,0,1-1.8.45,3.11,3.11,0,0,1-1.46-.34,3.76,3.76,0,0,1-1.14-.87,4.33,4.33,0,0,1-.74-1.22A3.83,3.83,0,0,1,16.34,226.42Z"/><path class="cls-4" d="M237.8,185.53A12.55,12.55,0,1,0,225.2,173,12.59,12.59,0,0,0,237.8,185.53Z"/><path class="cls-3" d="M237.8,159.83A13.2,13.2,0,1,0,251,173,13.19,13.19,0,0,0,237.8,159.83Zm0,25.1A11.9,11.9,0,1,1,249.7,173,11.93,11.93,0,0,1,237.8,184.93Z"/><path class="cls-3" d="M243.83,170.91h-4V167h-4v3.9h-4V175h4v4h4v-4h4Z"/><path class="cls-4" d="M14.13,185.72a12.55,12.55,0,0,0-.1-25.1,12.55,12.55,0,1,0,.1,25.1Z"/><path class="cls-3" d="M14.13,160a13.2,13.2,0,1,0,13.2,13.2A13.19,13.19,0,0,0,14.13,160Zm0,25.1A11.9,11.9,0,1,1,26,173.22,11.93,11.93,0,0,1,14.13,185.12Z"/><path class="cls-3" d="M14.13,166.05a7.17,7.17,0,1,0,7.17,7.17A7.14,7.14,0,0,0,14.13,166.05Zm.34,4.33a8,8,0,0,0,2.39-.35,19.1,19.1,0,0,1,.46,2.85H14.47Zm0-.69v-2.84a3.5,3.5,0,0,1,2.16,2.5C16,169.47,15.27,169.58,14.47,169.69Zm-.68-2.84v2.84a12.93,12.93,0,0,1-2.16-.22A3.49,3.49,0,0,1,13.79,166.85Zm0,3.53v2.5H10.94A11.33,11.33,0,0,1,11.4,170,7.48,7.48,0,0,0,13.79,170.38Zm-3.64,2.5H7.64A6.78,6.78,0,0,1,9,169.24c.45.23,1,.45,1.59.68A17.52,17.52,0,0,0,10.15,172.88Zm0,.68a11.43,11.43,0,0,0,.45,3A6.35,6.35,0,0,0,9,177.2a6.81,6.81,0,0,1-1.37-3.64Zm.79,0h2.85v2.5a8.31,8.31,0,0,0-2.39.34A7.88,7.88,0,0,1,10.94,173.56Zm2.85,3.18v2.85a3.5,3.5,0,0,1-2.16-2.5A6,6,0,0,1,13.79,176.74Zm.68,2.85v-2.85a12.89,12.89,0,0,1,2.16.23A3.71,3.71,0,0,1,14.47,179.59Zm0-3.53v-2.5h2.85a11.32,11.32,0,0,1-.46,2.84A9,9,0,0,0,14.47,176.06Zm3.53-2.5h2.5a6.8,6.8,0,0,1-1.36,3.64c-.46-.23-1-.46-1.6-.68A12.29,12.29,0,0,0,18,173.56Zm0-.68a11.41,11.41,0,0,0-.46-3,7,7,0,0,0,1.6-.68,6.77,6.77,0,0,1,1.36,3.64Zm.68-4.21c-.34.23-.8.34-1.25.57a8.49,8.49,0,0,0-1.14-2.05A9.15,9.15,0,0,1,18.68,168.67ZM12,167.19a5.92,5.92,0,0,0-1.14,2.05c-.46-.12-.91-.34-1.25-.46A5.56,5.56,0,0,1,12,167.19ZM9.58,177.77a12.6,12.6,0,0,1,1.25-.57A8.49,8.49,0,0,0,12,179.25,8.38,8.38,0,0,1,9.58,177.77Zm6.6,1.48a6.08,6.08,0,0,0,1.14-2.05,4.09,4.09,0,0,1,1.25.57A8.52,8.52,0,0,1,16.18,179.25Z"/><path class="cls-3" d="M265.41,127.63h.29a2,2,0,0,0,.66-.16,1.55,1.55,0,0,0,.6-.47,3.39,3.39,0,0,0,.52-.9,7.65,7.65,0,0,0,.45-1.49c.14-.62.27-1.37.39-2.23s.23-1.92.33-3.13l.27-3.28h6.69v11.66h1.82v4.47h-1.11v-3.35h-9.78v3.35h-1.13Zm9,0V117.09h-4.3l-.18,2.26c-.1,1.22-.21,2.28-.34,3.21a19.35,19.35,0,0,1-.45,2.39,8.1,8.1,0,0,1-.6,1.68,3.12,3.12,0,0,1-.77,1Zm4.61,3.6a1.7,1.7,0,0,0,.54.35,1.85,1.85,0,0,0,.58.09.76.76,0,0,0,.45-.15,1.2,1.2,0,0,0,.45-.47,4.37,4.37,0,0,0,.47-.88c.16-.37.33-.84.52-1.42l-4.09-9.38h1.27l3.47,8.25,3.22-8.25H287l-4.37,10.93a7.15,7.15,0,0,1-.56,1.17,3.09,3.09,0,0,1-.58.75,1.44,1.44,0,0,1-.63.4,2,2,0,0,1-.72.13,1.67,1.67,0,0,1-1.24-.44Zm9.78-2.48v-9.38H290v8.32h3.53v-8.32h1.21v8.32h3.53v-8.32h1.2v9.38Zm17.44.18a4.73,4.73,0,0,1-1.89-.38,4.85,4.85,0,0,1-1.47-1.06,5.22,5.22,0,0,1-1-1.57,5.08,5.08,0,0,1-.34-1.89,4.94,4.94,0,0,1,.34-1.85,4.81,4.81,0,0,1,1-1.53,4.6,4.6,0,0,1,1.49-1,4.36,4.36,0,0,1,1.87-.4,4.62,4.62,0,0,1,3.35,1.44,4.84,4.84,0,0,1,1,1.53,5.14,5.14,0,0,1,.34,1.84v.28a.75.75,0,0,1,0,.2h-8a4.12,4.12,0,0,0,.35,1.41,3.9,3.9,0,0,0,.77,1.09,3.5,3.5,0,0,0,1.06.74,3.34,3.34,0,0,0,1.3.25,3.48,3.48,0,0,0,.9-.12,4,4,0,0,0,.82-.34,3.25,3.25,0,0,0,.69-.53,2.46,2.46,0,0,0,.47-.7l1.06.29a3.28,3.28,0,0,1-.61,1,4.46,4.46,0,0,1-.92.74,4.34,4.34,0,0,1-1.15.47A4.78,4.78,0,0,1,306.2,128.93Zm3.46-5.36a3.74,3.74,0,0,0-.36-1.37,3.35,3.35,0,0,0-.76-1.08,3.06,3.06,0,0,0-1.06-.7,3.22,3.22,0,0,0-1.28-.26,3.34,3.34,0,0,0-1.29.26,3.24,3.24,0,0,0-1.08.7,3.63,3.63,0,0,0-.74,1.08,4,4,0,0,0-.32,1.37Zm7.7-4.2a2.29,2.29,0,0,1,.92.18,2.13,2.13,0,0,1,.74.51,1.86,1.86,0,0,1,.48.72,2.19,2.19,0,0,1,.18.9,2.35,2.35,0,0,1-.09.64,2.08,2.08,0,0,1-.23.63,2.41,2.41,0,0,1-.41.54,1.86,1.86,0,0,1-.6.38,2.22,2.22,0,0,1,1.24.83,2.43,2.43,0,0,1,.45,1.48,2.51,2.51,0,0,1-.21,1,2.32,2.32,0,0,1-.58.81,2.62,2.62,0,0,1-.86.54,3.25,3.25,0,0,1-1.1.18h-4.52v-9.38Zm-.48,4.14a1.49,1.49,0,0,0,1.17-.47,1.69,1.69,0,0,0,.43-1.18,1.75,1.75,0,0,0-.36-1.1,1.33,1.33,0,0,0-1.12-.47h-3v3.22Zm.28,4.32a1.7,1.7,0,0,0,.69-.14,1.75,1.75,0,0,0,.54-.38,2,2,0,0,0,.34-.56,1.75,1.75,0,0,0,.13-.65,1.69,1.69,0,0,0-.45-1.15,1.52,1.52,0,0,0-1.21-.5H314v3.38Zm5-8.46h1.2v3.33h2a3.76,3.76,0,0,1,1.22.2,2.81,2.81,0,0,1,1,.58,2.66,2.66,0,0,1,.68,1,3.08,3.08,0,0,1,.26,1.3,3.19,3.19,0,0,1-.26,1.31,2.8,2.8,0,0,1-.68.94,3,3,0,0,1-1,.57,3.76,3.76,0,0,1-1.22.2h-3.24Zm7.57,0h1.19v9.38h-1.19Zm-4.33,8.34a1.92,1.92,0,0,0,1.44-.53,2,2,0,0,0,.52-1.45,2,2,0,0,0-.52-1.44,1.92,1.92,0,0,0-1.44-.54h-2v4Zm12.29,1.22a4.66,4.66,0,0,1-1.89-.38,4.77,4.77,0,0,1-1.48-1.06,5.22,5.22,0,0,1-1-1.57A5.08,5.08,0,0,1,333,124a4.94,4.94,0,0,1,.34-1.85,4.81,4.81,0,0,1,1-1.53,4.54,4.54,0,0,1,1.5-1,4.33,4.33,0,0,1,1.87-.4,4.27,4.27,0,0,1,1.87.4,4.35,4.35,0,0,1,1.48,1,5,5,0,0,1,1,1.53,4.93,4.93,0,0,1,.34,1.84v.28a.48.48,0,0,1,0,.2h-8a4.11,4.11,0,0,0,.34,1.41,3.9,3.9,0,0,0,.77,1.09,3.5,3.5,0,0,0,1.06.74,3.34,3.34,0,0,0,1.3.25,3.48,3.48,0,0,0,.9-.12,4.12,4.12,0,0,0,.83-.34,3.19,3.19,0,0,0,.68-.53,2.27,2.27,0,0,0,.47-.7l1.06.29a3.09,3.09,0,0,1-.61,1,4.21,4.21,0,0,1-.92.74,4.34,4.34,0,0,1-1.15.47A4.76,4.76,0,0,1,337.69,128.93Zm3.45-5.36a3.39,3.39,0,0,0-.36-1.37,3.48,3.48,0,0,0-.75-1.08,3.11,3.11,0,0,0-1.07-.7,3.17,3.17,0,0,0-1.27-.26,3.35,3.35,0,0,0-1.3.26,3.24,3.24,0,0,0-1.08.7,3.63,3.63,0,0,0-.74,1.08,4,4,0,0,0-.32,1.37Z"/><path class="cls-3" d="M268,65.92h1.95l4.17-5.67h1.44l-4.48,6.16L276,73h-1.44L270,67h-2v6h-1.24V60.25H268Zm11.69,7.29a3.07,3.07,0,0,1-2.23-.84,3.14,3.14,0,0,1-.65-.92,3,3,0,0,1-.23-1.15,2.25,2.25,0,0,1,.29-1.14,2.86,2.86,0,0,1,.81-.9,3.83,3.83,0,0,1,1.24-.57,5.29,5.29,0,0,1,1.58-.22,8.08,8.08,0,0,1,1.46.13,6,6,0,0,1,1.32.36v-.85a2.68,2.68,0,0,0-.71-2,2.55,2.55,0,0,0-1.94-.74,4.23,4.23,0,0,0-1.48.29,7.23,7.23,0,0,0-1.53.83l-.43-.81a6.31,6.31,0,0,1,3.53-1.23,3.77,3.77,0,0,1,2.77,1,3.68,3.68,0,0,1,1,2.74v4.23c0,.34.15.5.45.5V73a2.59,2.59,0,0,1-.47.06,1.08,1.08,0,0,1-.74-.24.86.86,0,0,1-.27-.64l0-.74a4.33,4.33,0,0,1-1.64,1.29A5,5,0,0,1,279.67,73.21Zm.29-.93a4.18,4.18,0,0,0,1.75-.36,2.85,2.85,0,0,0,1.22-1,1,1,0,0,0,.24-.34.87.87,0,0,0,.09-.36V68.73a9,9,0,0,0-1.28-.36,7.34,7.34,0,0,0-1.34-.12,3.72,3.72,0,0,0-2.1.54,1.64,1.64,0,0,0-.81,1.42,2,2,0,0,0,.16.81,2.4,2.4,0,0,0,.47.66,2.36,2.36,0,0,0,.72.44A2.59,2.59,0,0,0,280,72.28Zm12.56-8.73a6,6,0,0,1,2,.48,4.59,4.59,0,0,1,1.52,1,4.43,4.43,0,0,1,.93,1.48,4.84,4.84,0,0,1,.34,1.85,4.9,4.9,0,0,1-.34,1.87,4.18,4.18,0,0,1-.95,1.48,4.67,4.67,0,0,1-1.5,1,6.54,6.54,0,0,1-2,.45v3.69H291.3V73.2a6.12,6.12,0,0,1-2-.45,4.88,4.88,0,0,1-1.51-1,4.37,4.37,0,0,1-1-1.48,5.1,5.1,0,0,1-.33-1.87,5,5,0,0,1,.33-1.85,4.46,4.46,0,0,1,.95-1.5,4.68,4.68,0,0,1,1.51-1,6.05,6.05,0,0,1,2-.49V59.89h1.22ZM291.3,64.7a4.12,4.12,0,0,0-2.63,1.08,3.46,3.46,0,0,0-.92,2.56,3.62,3.62,0,0,0,.94,2.62,4,4,0,0,0,2.61,1.1Zm1.22,7.36A4.1,4.1,0,0,0,295.1,71a3.59,3.59,0,0,0,.93-2.61,3.43,3.43,0,0,0-.92-2.54,3.9,3.9,0,0,0-2.59-1.1Zm10.87,1.15a4.72,4.72,0,0,1-1.89-.37A4.92,4.92,0,0,1,300,71.77a5.06,5.06,0,0,1-1-1.56,5.37,5.37,0,0,1-.34-1.89,5.21,5.21,0,0,1,.34-1.86,5.07,5.07,0,0,1,1-1.53,4.71,4.71,0,0,1,3.36-1.44,4.66,4.66,0,0,1,3.35,1.44,4.85,4.85,0,0,1,.95,1.53A4.94,4.94,0,0,1,308,68.3v.29a.88.88,0,0,1,0,.2h-8a4.29,4.29,0,0,0,.34,1.4,4,4,0,0,0,.78,1.1,3.14,3.14,0,0,0,2.35,1,3.11,3.11,0,0,0,.9-.13,3.61,3.61,0,0,0,.83-.34,3.47,3.47,0,0,0,.69-.52,2.35,2.35,0,0,0,.46-.7l1.07.28a3.29,3.29,0,0,1-.62,1,5.15,5.15,0,0,1-.91.74,4.39,4.39,0,0,1-1.16.46A4.71,4.71,0,0,1,303.39,73.21Zm3.46-5.36a3.8,3.8,0,0,0-.36-1.37,3.68,3.68,0,0,0-.76-1.08,3.32,3.32,0,0,0-2.34-1,3.34,3.34,0,0,0-1.3.25,3.65,3.65,0,0,0-1.08.7,3.61,3.61,0,0,0-.73,1.08,4.37,4.37,0,0,0-.33,1.37Z"/><path class="cls-3" d="M274.1,8.59H268V20.26h-1.24V7.48h7.36Zm2.27,11.84a4.56,4.56,0,0,1-1.87-.37A4.8,4.8,0,0,1,273,19a4.75,4.75,0,0,1-.95-1.54,5.29,5.29,0,0,1,0-3.73,5.14,5.14,0,0,1,1-1.55,4.94,4.94,0,0,1,1.48-1.06,4.36,4.36,0,0,1,1.85-.4,4.43,4.43,0,0,1,1.86.4,4.77,4.77,0,0,1,1.47,1.06,4.62,4.62,0,0,1,1,1.55,4.9,4.9,0,0,1,.36,1.87,5.07,5.07,0,0,1-.34,1.86,4.63,4.63,0,0,1-1,1.54,4.37,4.37,0,0,1-3.35,1.44ZM273,15.61a4,4,0,0,0,.27,1.48,4.15,4.15,0,0,0,.72,1.18,3.38,3.38,0,0,0,1.08.8,3.18,3.18,0,0,0,1.33.29,3,3,0,0,0,1.31-.29,3.74,3.74,0,0,0,1.1-.81,3.82,3.82,0,0,0,.74-1.21,4,4,0,0,0,.27-1.47,3.91,3.91,0,0,0-.27-1.46,3.61,3.61,0,0,0-.74-1.21,3.15,3.15,0,0,0-1.1-.81,3,3,0,0,0-2.62,0,3.27,3.27,0,0,0-1.08.81,4,4,0,0,0-.74,1.23A3.92,3.92,0,0,0,273,15.61Zm9.46-.07a5.3,5.3,0,0,1,.34-1.87,4.61,4.61,0,0,1,2.45-2.58,4.75,4.75,0,0,1,1.91-.38,4.3,4.3,0,0,1,2.32.62A3.79,3.79,0,0,1,291,13l-1.19.38a2.81,2.81,0,0,0-1.12-1.12,3,3,0,0,0-1.56-.41,3.23,3.23,0,0,0-1.35.28,3.38,3.38,0,0,0-1.08.8,3.61,3.61,0,0,0-.72,1.17,4.2,4.2,0,0,0-.26,1.49A4.07,4.07,0,0,0,284,17a4,4,0,0,0,.73,1.23,4.08,4.08,0,0,0,1.08.81,3.23,3.23,0,0,0,1.34.29,3.35,3.35,0,0,0,.88-.13,3.53,3.53,0,0,0,.82-.34,2.89,2.89,0,0,0,.65-.53,1.59,1.59,0,0,0,.38-.61l1.21.36a3.41,3.41,0,0,1-.58.94,4.14,4.14,0,0,1-.9.74,4.26,4.26,0,0,1-1.13.47,4.54,4.54,0,0,1-1.28.17A4.41,4.41,0,0,1,283.77,19a5.27,5.27,0,0,1-1-1.56A5.37,5.37,0,0,1,282.43,15.54Zm14,4.72h-1.19V11.94H292V10.88h7.77v1.06h-3.29Zm6.24-1.73,5.6-7.65h1v9.38h-1.21V12.75l-5.49,7.51h-1.1V10.88h1.21Zm10.55-3.6h5.25v-4h1.21v9.38h-1.21V16h-5.25v4.31h-1.21V10.88h1.21Zm10.4,3.6,5.6-7.65h1v9.38H329V12.75l-5.49,7.51h-1.09V10.88h1.2ZM333,10.88h1.21v8.31h4.59V10.88H340v8.31h1.56v4h-1.06V20.26H333Zm12.59,9.55a3.59,3.59,0,0,1-1.24-.21,3.63,3.63,0,0,1-1-.63,2.85,2.85,0,0,1-.65-.92,2.78,2.78,0,0,1-.23-1.15,2.19,2.19,0,0,1,.29-1.13,2.66,2.66,0,0,1,.81-.9,3.56,3.56,0,0,1,1.24-.58,5.64,5.64,0,0,1,1.58-.22,9.1,9.1,0,0,1,1.46.13,5.8,5.8,0,0,1,1.31.36v-.85a2.69,2.69,0,0,0-.7-2,2.55,2.55,0,0,0-1.94-.74,4.18,4.18,0,0,0-1.48.29,7.23,7.23,0,0,0-1.53.83l-.43-.81a6.31,6.31,0,0,1,3.53-1.23,3.79,3.79,0,0,1,2.77,1,3.65,3.65,0,0,1,1,2.73v4.23q0,.51.45.51v1.08a3.77,3.77,0,0,1-.47,0,1.13,1.13,0,0,1-.74-.23.9.9,0,0,1-.27-.65l0-.74A4.34,4.34,0,0,1,347.7,20,5,5,0,0,1,345.59,20.43Zm.29-.93a4.18,4.18,0,0,0,1.75-.36,2.85,2.85,0,0,0,1.22-1,.82.82,0,0,0,.23-.34.87.87,0,0,0,.09-.36V16a8.28,8.28,0,0,0-1.28-.36,7.23,7.23,0,0,0-1.33-.12,3.72,3.72,0,0,0-2.1.54,1.64,1.64,0,0,0-.81,1.42,2,2,0,0,0,.16.81,2.21,2.21,0,0,0,.47.66,2.36,2.36,0,0,0,.72.44A2.33,2.33,0,0,0,345.88,19.5Z"/><path class="cls-4" d="M237.2,25.7A12.55,12.55,0,0,0,237.1.6a12.66,12.66,0,0,0-12.5,12.6A12.66,12.66,0,0,0,237.2,25.7Z"/><path class="cls-3" d="M237.2,0a13.2,13.2,0,1,0,13.2,13.2A13.19,13.19,0,0,0,237.2,0Zm0,25.1a11.9,11.9,0,1,1,11.9-11.9A11.93,11.93,0,0,1,237.2,25.1Z"/><path class="cls-3" d="M245.13,10.22v3.6H229.28V8.31h-1.57v9.78h1.57V15.5h15.85v2.59h1.57V10.22Z"/><path class="cls-3" d="M231.19,13.26a1.58,1.58,0,1,0-1.57-1.58A1.57,1.57,0,0,0,231.19,13.26Z"/><path class="cls-3" d="M242.32,10.9H234.9a2.31,2.31,0,0,0-2.13,2.24h11.91A2.43,2.43,0,0,0,242.32,10.9Z"/><path class="cls-4" d="M237.2,131.63a12.55,12.55,0,1,0-12.6-12.5A12.59,12.59,0,0,0,237.2,131.63Z"/><path class="cls-3" d="M237.2,105.93a13.2,13.2,0,1,0,13.2,13.2A13.19,13.19,0,0,0,237.2,105.93Zm0,25.1a11.9,11.9,0,1,1,11.9-11.9A11.93,11.93,0,0,1,237.2,131Z"/><path class="cls-3" d="M243.52,118.17a.24.24,0,0,0,.22-.23v-5.89a.24.24,0,0,0-.22-.23c-1,0-2.73.79-2.73,1.93V114h-5.22a1.25,1.25,0,0,0-1.24,1.25v1.14a1.4,1.4,0,0,0-.46.79,3.26,3.26,0,0,0-2.72,2.95.65.65,0,0,0-.46.79.73.73,0,0,0,.68.57h7.38a.7.7,0,0,0,.23-1.36,3.27,3.27,0,0,0-2.73-2.95,1.71,1.71,0,0,0-.45-.79v-.91h4.88v.79C240.79,117.26,242.49,118.17,243.52,118.17Zm-2.16-4.54c0-.68,1.13-1.36,1.93-1.47v5.33c-.8-.11-1.93-.79-1.93-1.47Zm-5.56,3.52h-1.36c.11-.23.23-.45.45-.45h.46A.48.48,0,0,1,235.8,117.15Zm3.06,4h-7.37a.23.23,0,1,1,0-.45h7.37a.23.23,0,1,1,0,.45Zm-.22-1h-6.93a2.74,2.74,0,0,1,2.73-2.5h1.47A2.92,2.92,0,0,1,238.64,120.1Zm-2.95-5.22a.24.24,0,0,0-.23.23v1H235v-1a.78.78,0,0,1,.79-.8H241v.46h-5.33Z"/><path class="cls-3" d="M231.94,122.37a.23.23,0,1,0-.45,0v.23a.23.23,0,0,0,.45,0Z"/><path class="cls-3" d="M233,122.37a.23.23,0,1,0-.45,0v1.47a.23.23,0,1,0,.45,0Z"/><path class="cls-3" d="M233.87,122.37a.25.25,0,0,0-.23-.23.26.26,0,0,0-.23.23v.23a.25.25,0,0,0,.23.22.24.24,0,0,0,.23-.22Z"/><path class="cls-3" d="M234.89,122.37a.23.23,0,1,0-.45,0v1.47a.23.23,0,1,0,.45,0Z"/><path class="cls-3" d="M235.91,122.37a.23.23,0,1,0-.45,0v.23a.23.23,0,0,0,.45,0Z"/><path class="cls-3" d="M236.82,122.37a.23.23,0,1,0-.45,0v1.47a.23.23,0,1,0,.45,0Z"/><path class="cls-3" d="M237.84,122.37a.23.23,0,1,0-.45,0v.23a.23.23,0,0,0,.45,0Z"/><path class="cls-3" d="M232.73,124.52a.25.25,0,0,0-.22.23v.79a.23.23,0,1,0,.45,0v-.79A.25.25,0,0,0,232.73,124.52Z"/><path class="cls-3" d="M234.67,124.52a.25.25,0,0,0-.23.23v.79a.23.23,0,1,0,.45,0v-.79A.25.25,0,0,0,234.67,124.52Z"/><path class="cls-3" d="M236.59,124.52a.25.25,0,0,0-.22.23v.79a.23.23,0,1,0,.45,0v-.79C236.82,124.64,236.82,124.52,236.59,124.52Z"/><path class="cls-3" d="M238.64,124.52a.25.25,0,0,0-.23.23v.79a.23.23,0,1,0,.45,0v-.79A.25.25,0,0,0,238.64,124.52Z"/><path class="cls-3" d="M238.86,122.37a.23.23,0,1,0-.45,0v1.47a.23.23,0,1,0,.45,0Z"/><path class="cls-3" d="M231.94,123.5a.23.23,0,0,0-.45,0V125a.23.23,0,0,0,.45,0Z"/><path class="cls-3" d="M233.87,123.5a.24.24,0,0,0-.23-.22.25.25,0,0,0-.23.22V125a.25.25,0,0,0,.23.22.24.24,0,0,0,.23-.22Z"/><path class="cls-3" d="M235.91,123.5a.23.23,0,0,0-.45,0V125a.23.23,0,0,0,.45,0Z"/><path class="cls-3" d="M237.84,123.5a.23.23,0,0,0-.45,0V125a.23.23,0,0,0,.45,0Z"/><path class="cls-3" d="M231.83,125.77h-.12V126a.42.42,0,0,0,.12.23h.23c.11-.12.11-.23,0-.23A2.5,2.5,0,0,1,231.83,125.77Z"/><path class="cls-3" d="M233.53,125.89h0c-.11.22-.11.22,0,.34h.34c.12-.12.12-.23,0-.23v-.11A.21.21,0,0,0,233.53,125.89Z"/><path class="cls-3" d="M235.8,125.77h-.34v.34h.34c.12,0,.12-.11,0-.34C235.92,125.89,235.8,125.89,235.8,125.77Z"/><path class="cls-3" d="M237.39,125.89c-.11.11-.11.11-.11.22s0,.12.11.23h.34c.12,0,.12-.11.12-.23v-.22A.34.34,0,0,0,237.39,125.89Z"/><path class="cls-4" d="M237.2,78.62a12.55,12.55,0,1,0-12.6-12.5A12.59,12.59,0,0,0,237.2,78.62Z"/><path class="cls-3" d="M237.2,52.92a13.2,13.2,0,1,0,13.2,13.2A13.19,13.19,0,0,0,237.2,52.92Zm0,25.1a11.9,11.9,0,1,1,11.9-11.9A11.93,11.93,0,0,1,237.2,78Z"/><path class="cls-3" d="M242,65.84V65H231.27A6.33,6.33,0,0,0,234,70.37h-2.62a1.76,1.76,0,0,0,1.91,1.56H240a1.76,1.76,0,0,0,1.91-1.56h-2.62a2.85,2.85,0,0,0,.71-.59h.36a4.4,4.4,0,0,0,1.79-.48,1.9,1.9,0,0,0,1-1.67A1.5,1.5,0,0,0,242,65.84Zm-.12,2.74a1.88,1.88,0,0,1-1.07.36,8.45,8.45,0,0,0,1.07-2.39,1.07,1.07,0,0,1,.6,1A1.17,1.17,0,0,1,241.89,68.58Z"/><path class="cls-3" d="M236,60c-.12.24-.35.48-.59.84a2.65,2.65,0,0,0-.24,2.14,2.25,2.25,0,0,0,1.67,1.44,1.37,1.37,0,0,1-.84-1,1.68,1.68,0,0,1,.12-1.31c.24-.36.48-.6.72-1a1.88,1.88,0,0,0,.36-1.07,1.76,1.76,0,0,0-.36-1.19c-.24-.24-.72-.36-1-.6A1.4,1.4,0,0,1,236,60Z"/><path class="cls-3" d="M237.36,63.93a1.2,1.2,0,0,1-.48-.6,1.62,1.62,0,0,1,.24-.71,2.64,2.64,0,0,1,.35-.6,1,1,0,0,0,.36-1,1.27,1.27,0,0,1,.12,1.31c-.12.12-.12.24-.24.36a1.26,1.26,0,0,0-.24.95,1,1,0,0,0,.36.72Z"/><path class="cls-3" d="M43.43,327.37H53.3v12.78H52V328.48H44.68v11.67H43.43Zm12.83,15.26a1.47,1.47,0,0,0,.54.34,1.81,1.81,0,0,0,.58.09.79.79,0,0,0,.45-.14,1.36,1.36,0,0,0,.45-.47,4.7,4.7,0,0,0,.46-.88c.16-.37.33-.85.53-1.42l-4.09-9.38h1.26L59.91,339l3.23-8.24h1.17L59.93,341.7a6.63,6.63,0,0,1-.56,1.16,3.2,3.2,0,0,1-.57.76,1.53,1.53,0,0,1-.63.4,2.09,2.09,0,0,1-.72.12,1.66,1.66,0,0,1-1.24-.43Zm11-7.81H72.5v-4.05h1.2v9.38H72.5v-4.3H67.24v4.3H66v-9.38h1.21ZM82,330.77h1.36l-3.54,4.53,3.85,4.85H82.29L79,335.86H77.65v4.29H76.44v-9.38h1.21v4.14h1.22Zm6.66,9.38H87.46v-8.32H84.17v-1.06H92v1.06h-3.3Zm9.61,2.48a1.44,1.44,0,0,0,.53.34,1.9,1.9,0,0,0,.58.09.75.75,0,0,0,.45-.14,1.2,1.2,0,0,0,.45-.47,4.66,4.66,0,0,0,.47-.88c.16-.37.33-.85.52-1.42l-4.08-9.38h1.25l3.48,8.24,3.22-8.24h1.17l-4.37,10.93a7.42,7.42,0,0,1-.56,1.16,3,3,0,0,1-.58.76,1.53,1.53,0,0,1-.63.4,2,2,0,0,1-.72.12,1.67,1.67,0,0,1-1.24-.43Zm17.15-2.48h-1.19v-8.32h-5v8.32H108v-9.38h7.38Zm7.55.18a3.78,3.78,0,0,1-2.11-.6,4.71,4.71,0,0,1-1.45-1.53V344h-1.23V330.77h1.1v1.82a4.53,4.53,0,0,1,1.49-1.43,4,4,0,0,1,3.78-.14A4.65,4.65,0,0,1,126,332.1a4.9,4.9,0,0,1,.92,1.55,5.15,5.15,0,0,1,.34,1.82,5.78,5.78,0,0,1-.31,1.87,4.73,4.73,0,0,1-.88,1.55,4.27,4.27,0,0,1-1.35,1.06A3.9,3.9,0,0,1,123,340.33Zm-.34-1.08a2.86,2.86,0,0,0,1.37-.33,3.49,3.49,0,0,0,1.06-.84,3.9,3.9,0,0,0,.68-1.21,4.19,4.19,0,0,0,.23-1.4,3.84,3.84,0,0,0-.26-1.44,4.23,4.23,0,0,0-.74-1.21,3.56,3.56,0,0,0-1.12-.83,3.16,3.16,0,0,0-1.37-.3,2.65,2.65,0,0,0-1,.2,3.77,3.77,0,0,0-1,.5,3.33,3.33,0,0,0-.76.74,1.89,1.89,0,0,0-.37.88v2.88a4.83,4.83,0,0,0,.53.94,4.9,4.9,0,0,0,.76.75,3.89,3.89,0,0,0,.92.49A2.87,2.87,0,0,0,122.62,339.25Zm9,1.08a3.13,3.13,0,0,1-2.24-.85,2.82,2.82,0,0,1-.64-.92,2.79,2.79,0,0,1-.24-1.15,2.32,2.32,0,0,1,.29-1.13,2.66,2.66,0,0,1,.81-.9,3.84,3.84,0,0,1,1.24-.58,5.67,5.67,0,0,1,1.59-.21,9,9,0,0,1,1.45.12,5.89,5.89,0,0,1,1.32.36v-.85a2.73,2.73,0,0,0-.7-2,2.57,2.57,0,0,0-1.95-.73,4.11,4.11,0,0,0-1.47.28,7.2,7.2,0,0,0-1.53.83l-.44-.81a6.4,6.4,0,0,1,3.53-1.22,3.77,3.77,0,0,1,2.77,1,3.62,3.62,0,0,1,1,2.73v4.23q0,.51.45.51v1.08a3.59,3.59,0,0,1-.47.05,1.1,1.1,0,0,1-.73-.23.89.89,0,0,1-.27-.65l0-.74a4.18,4.18,0,0,1-1.64,1.3A5,5,0,0,1,131.66,340.33Zm.28-.94a4.18,4.18,0,0,0,1.75-.36,2.85,2.85,0,0,0,1.22-.95,1.1,1.1,0,0,0,.24-.35.86.86,0,0,0,.09-.35v-1.53a7.84,7.84,0,0,0-1.28-.37,7.31,7.31,0,0,0-1.33-.12,3.73,3.73,0,0,0-2.11.54,1.64,1.64,0,0,0-.81,1.42,2.17,2.17,0,0,0,.16.81,2,2,0,0,0,1.19,1.1A2.37,2.37,0,0,0,131.94,339.39Zm11.83-8.62a2.32,2.32,0,0,1,.92.18,2.21,2.21,0,0,1,.73.5,2.05,2.05,0,0,1,.49.72,2.26,2.26,0,0,1,.18.9,2.37,2.37,0,0,1-.09.65,2.8,2.8,0,0,1-.23.63,2.63,2.63,0,0,1-.42.54,2,2,0,0,1-.59.38,2.17,2.17,0,0,1,1.24.83,2.62,2.62,0,0,1,.23,2.52,2.3,2.3,0,0,1-.57.81,2.56,2.56,0,0,1-.87.54,3.2,3.2,0,0,1-1.09.18h-4.52v-9.38Zm-.49,4.14a1.53,1.53,0,0,0,1.17-.47,1.67,1.67,0,0,0,.43-1.19,1.72,1.72,0,0,0-.36-1.09,1.29,1.29,0,0,0-1.11-.47h-3v3.22Zm.29,4.32a1.65,1.65,0,0,0,.68-.14,1.69,1.69,0,0,0,.54-.38,2.19,2.19,0,0,0,.35-.56,1.75,1.75,0,0,0,.12-.65,1.67,1.67,0,0,0-.45-1.15,1.49,1.49,0,0,0-1.2-.5h-3.24v3.38Zm3.58-.11a1.82,1.82,0,0,0,.88-.27,2,2,0,0,0,.65-.88,7.87,7.87,0,0,0,.48-1.76c.15-.75.28-1.72.42-2.9l.27-2.54h5.5v9.38h-1.2v-8.41H151l-.25,2.09c-.16,1.25-.33,2.28-.52,3.09a8.21,8.21,0,0,1-.69,1.95,2.47,2.47,0,0,1-.92,1,2.93,2.93,0,0,1-1.26.32Zm15,1.21a4.73,4.73,0,0,1-1.89-.38,5,5,0,0,1-1.47-1.06,5.22,5.22,0,0,1-1-1.57,5.16,5.16,0,0,1-.35-1.89,4.91,4.91,0,0,1,.35-1.85,4.81,4.81,0,0,1,1-1.53,4.63,4.63,0,0,1,1.49-1.05,4.52,4.52,0,0,1,1.88-.39A4.44,4.44,0,0,1,164,331a4.34,4.34,0,0,1,1.47,1.05,4.9,4.9,0,0,1,1.3,3.36v.29a.81.81,0,0,1,0,.2h-8a4.06,4.06,0,0,0,.35,1.4,4,4,0,0,0,.77,1.1,3.55,3.55,0,0,0,1.06.74,3.34,3.34,0,0,0,1.3.25,3.48,3.48,0,0,0,.9-.12,3.55,3.55,0,0,0,.82-.35,3,3,0,0,0,.69-.52,2.61,2.61,0,0,0,.47-.7l1.06.29a3.21,3.21,0,0,1-.61.95,4.81,4.81,0,0,1-.92.74,4.7,4.7,0,0,1-1.15.47A4.78,4.78,0,0,1,162.12,340.33Zm3.46-5.37a3.69,3.69,0,0,0-.36-1.36,3.39,3.39,0,0,0-.76-1.08,3.24,3.24,0,0,0-1.06-.71,3.36,3.36,0,0,0-1.28-.25,3.49,3.49,0,0,0-1.29.25,3.43,3.43,0,0,0-1.08.71,3.51,3.51,0,0,0-.74,1.08,4.31,4.31,0,0,0-.33,1.36Zm4.28-.14h5.26v-4.05h1.2v9.38h-1.2v-4.3h-5.26v4.3h-1.2v-9.38h1.2Zm10.41,3.6,5.6-7.65h1v9.38h-1.21v-7.51l-5.49,7.51h-1.1v-9.38h1.21Zm11-2a2.8,2.8,0,0,1-1.42-.92,2.73,2.73,0,0,1-.56-1.82,3,3,0,0,1,.23-1.16,2.89,2.89,0,0,1,.63-.92,3,3,0,0,1,1-.62,3.7,3.7,0,0,1,1.26-.21h3.35v9.38h-1.2v-3.57h-2l-2.37,3.57h-1.39Zm3.26-.9v-3.69h-2.09a2.1,2.1,0,0,0-.74.13,1.69,1.69,0,0,0-.61.38,1.65,1.65,0,0,0-.43.57,1.77,1.77,0,0,0-.16.77A1.86,1.86,0,0,0,191,335a1.8,1.8,0,0,0,1.32.5ZM48.89,352.71H44.37v8.44H43.16v-9.38h5.73Zm5.2,8.62a4.61,4.61,0,0,1-1.88-.38,5,5,0,0,1-1.47-1.06,4.93,4.93,0,0,1-1-1.55,5.29,5.29,0,0,1-.34-1.86,5.34,5.34,0,0,1,.34-1.87,5.12,5.12,0,0,1,1-1.54A4.88,4.88,0,0,1,52.23,352a4.4,4.4,0,0,1,1.86-.39,4.35,4.35,0,0,1,1.85.39,4.57,4.57,0,0,1,1.48,1.07,4.73,4.73,0,0,1,1,1.54,4.94,4.94,0,0,1,.36,1.87,5.29,5.29,0,0,1-.34,1.86,4.81,4.81,0,0,1-1,1.55A4.66,4.66,0,0,1,56,361,4.6,4.6,0,0,1,54.09,361.33Zm-3.41-4.83A4,4,0,0,0,51,358a4.35,4.35,0,0,0,.72,1.19,3.75,3.75,0,0,0,1.08.79,3.23,3.23,0,0,0,1.34.29A3.09,3.09,0,0,0,55.4,360a3.69,3.69,0,0,0,1.1-.81,4,4,0,0,0,.74-1.21,4.11,4.11,0,0,0,0-2.93,3.78,3.78,0,0,0-.74-1.21,3.38,3.38,0,0,0-1.1-.81,3,3,0,0,0-2.63,0,3.41,3.41,0,0,0-1.08.81A4,4,0,0,0,51,355,3.92,3.92,0,0,0,50.68,356.5ZM62,355.82h5.26v-4.05h1.2v9.38h-1.2v-4.3H62v4.3H60.81v-9.38H62Zm14.74-4.05h1.37l-3.54,4.53,3.85,4.85H77.07l-3.31-4.29H72.43v4.29H71.22v-9.38h1.21v4.14h1.22Zm5.43,9.56a3.37,3.37,0,0,1-1.24-.22,3.41,3.41,0,0,1-1-.63,2.85,2.85,0,0,1-.65-.92,2.78,2.78,0,0,1-.23-1.15,2.21,2.21,0,0,1,.29-1.13,2.66,2.66,0,0,1,.81-.9,3.74,3.74,0,0,1,1.24-.58,5.64,5.64,0,0,1,1.58-.21,9.08,9.08,0,0,1,1.46.12,5.8,5.8,0,0,1,1.31.36v-.85a2.69,2.69,0,0,0-.7-2,2.55,2.55,0,0,0-1.94-.73,4.16,4.16,0,0,0-1.48.28,7.72,7.72,0,0,0-1.53.83l-.43-.81a6.37,6.37,0,0,1,3.53-1.22,3.79,3.79,0,0,1,2.77,1,3.66,3.66,0,0,1,1,2.73v4.23q0,.51.45.51v1.08a3.77,3.77,0,0,1-.47.05,1.13,1.13,0,0,1-.74-.23.89.89,0,0,1-.27-.65l0-.74a4.15,4.15,0,0,1-1.63,1.3A5,5,0,0,1,82.19,361.33Zm.29-.94a4.18,4.18,0,0,0,1.75-.36,3,3,0,0,0,1.22-.95,1.06,1.06,0,0,0,.23-.35.86.86,0,0,0,.09-.35v-1.53a7.31,7.31,0,0,0-1.28-.37,7.23,7.23,0,0,0-1.33-.12,3.72,3.72,0,0,0-2.1.54,1.64,1.64,0,0,0-.81,1.42,2,2,0,0,0,.16.81,2.39,2.39,0,0,0,.47.67,2.43,2.43,0,0,0,1.6.59Zm11.93-2.3,3.51-6.32h1.19v9.38H97.92V354l-3.15,5.63h-.72L90.88,354v7.2h-1.2v-9.38H90.9Zm8.64,1.33,5.6-7.65h1v9.38h-1.2v-7.51l-5.49,7.51h-1.1v-9.38h1.21Z"/><path class="cls-3" d="M271.51,223h1.19l1.8,4.54,1.82-4.54h1.2l-2.23,5.46,2.45,5.78,4.62-11.33h1.37l-5.42,12.78H277.2l-2.68-6.31-2.7,6.31h-1.1l-5.4-12.78h1.35l4.64,11.33,2.43-5.78Zm16.66,12.87a4.65,4.65,0,0,1-1.89-.37,4.8,4.8,0,0,1-1.48-1.07,5.06,5.06,0,0,1-1-1.56,5.15,5.15,0,0,1-.34-1.89,5,5,0,0,1,.34-1.86,5.25,5.25,0,0,1,1-1.53,4.54,4.54,0,0,1,1.5-1,4.48,4.48,0,0,1,1.87-.4,4.41,4.41,0,0,1,1.87.4,4.35,4.35,0,0,1,1.48,1,5,5,0,0,1,.95,1.53,4.93,4.93,0,0,1,.34,1.84v.29a1,1,0,0,1,0,.2h-8a4.05,4.05,0,0,0,.34,1.4,4,4,0,0,0,.77,1.1,3.73,3.73,0,0,0,1.07.74,3.49,3.49,0,0,0,1.29.25,3.11,3.11,0,0,0,.9-.13,3.61,3.61,0,0,0,.83-.34,3.14,3.14,0,0,0,.68-.52,2.39,2.39,0,0,0,.47-.7l1.06.28a3.07,3.07,0,0,1-.61,1,4.89,4.89,0,0,1-.92.74,4.19,4.19,0,0,1-1.15.46A4.76,4.76,0,0,1,288.17,235.82Zm3.45-5.36a3.43,3.43,0,0,0-.36-1.37,3.48,3.48,0,0,0-.75-1.08,3.32,3.32,0,0,0-1.06-.7,3.25,3.25,0,0,0-1.28-.25,3.34,3.34,0,0,0-1.3.25,3.41,3.41,0,0,0-1.08.7,3.83,3.83,0,0,0-.74,1.08,4.36,4.36,0,0,0-.32,1.37Zm3.12-8H296v11a1.18,1.18,0,0,0,.29.83,1.1,1.1,0,0,0,.81.29,2.23,2.23,0,0,0,.47-.06,2.63,2.63,0,0,0,.5-.14l.22,1a4.46,4.46,0,0,1-.85.23,4.74,4.74,0,0,1-.85.09,1.65,1.65,0,0,1-1.81-1.82Zm4.2,8.43a5,5,0,0,1,.34-1.87,4.77,4.77,0,0,1,1-1.53,4.42,4.42,0,0,1,1.5-1.05,4.72,4.72,0,0,1,1.91-.38,4.32,4.32,0,0,1,2.32.62,3.7,3.7,0,0,1,1.49,1.62l-1.18.37a2.78,2.78,0,0,0-1.12-1.11,3,3,0,0,0-1.57-.42,3.24,3.24,0,0,0-1.35.29,3.62,3.62,0,0,0-1.08.79,3.84,3.84,0,0,0-.72,1.17,4.54,4.54,0,0,0-.25,1.5,4.1,4.1,0,0,0,.27,1.49,4,4,0,0,0,.74,1.23,3.92,3.92,0,0,0,1.08.81,3.17,3.17,0,0,0,1.33.28,3.22,3.22,0,0,0,.88-.12,4.12,4.12,0,0,0,.83-.34,3.13,3.13,0,0,0,.65-.53,1.59,1.59,0,0,0,.38-.61l1.2.36a3.16,3.16,0,0,1-.57.94,4.74,4.74,0,0,1-.9.74,4.13,4.13,0,0,1-1.14.46,4.5,4.5,0,0,1-1.28.18,4.64,4.64,0,0,1-1.88-.37,4.77,4.77,0,0,1-1.5-1.07,5.06,5.06,0,0,1-1-1.56A5.15,5.15,0,0,1,298.94,230.93Zm14.43,4.89a4.59,4.59,0,0,1-1.87-.37,4.76,4.76,0,0,1-2.43-2.61,5.29,5.29,0,0,1,0-3.73,5.35,5.35,0,0,1,1-1.55,4.89,4.89,0,0,1,1.48-1.06,4.36,4.36,0,0,1,1.85-.4,4.4,4.4,0,0,1,1.86.4,4.51,4.51,0,0,1,1.47,1.06,4.81,4.81,0,0,1,1,1.55A4.9,4.9,0,0,1,318,231a5.08,5.08,0,0,1-.35,1.86,4.57,4.57,0,0,1-1,1.54,4.33,4.33,0,0,1-3.35,1.44ZM310,231a4,4,0,0,0,.27,1.48,4.15,4.15,0,0,0,.72,1.18,3.53,3.53,0,0,0,1.08.8,3.21,3.21,0,0,0,1.33.28,3.1,3.1,0,0,0,1.32-.28,3.87,3.87,0,0,0,2.1-3.5,3.89,3.89,0,0,0-.27-1.45,3.76,3.76,0,0,0-.73-1.21,3.34,3.34,0,0,0-1.1-.81,2.94,2.94,0,0,0-2.63,0,3.27,3.27,0,0,0-1.08.81,4.07,4.07,0,0,0-.74,1.22A4,4,0,0,0,310,231ZM334,235.64h-1.22v-5.23a4.39,4.39,0,0,0-.52-2.42,1.77,1.77,0,0,0-1.55-.77,2.78,2.78,0,0,0-1,.2,3.35,3.35,0,0,0-.88.56,4.21,4.21,0,0,0-1.17,1.94v5.72h-1.22v-5.23a4.44,4.44,0,0,0-.51-2.43,1.71,1.71,0,0,0-1.54-.76,2.81,2.81,0,0,0-1.9.74,4.11,4.11,0,0,0-1.18,1.94v5.74h-1.23v-9.37h1.12v2.12a4.3,4.3,0,0,1,1.51-1.67,3.68,3.68,0,0,1,2.07-.62,2.66,2.66,0,0,1,1.89.67,2.83,2.83,0,0,1,.88,1.75,4,4,0,0,1,3.62-2.42,2.81,2.81,0,0,1,1.33.29,2.16,2.16,0,0,1,.89.83,3.71,3.71,0,0,1,.48,1.28,7.57,7.57,0,0,1,.16,1.65Zm6.64.18a4.72,4.72,0,0,1-1.89-.37,4.88,4.88,0,0,1-1.47-1.07,5.06,5.06,0,0,1-1-1.56,5.15,5.15,0,0,1-.34-1.89,4.85,4.85,0,0,1,1.31-3.39,4.6,4.6,0,0,1,1.49-1,4.53,4.53,0,0,1,1.88-.4,4.45,4.45,0,0,1,1.87.4,4.31,4.31,0,0,1,1.47,1,5.07,5.07,0,0,1,1,1.53,4.93,4.93,0,0,1,.34,1.84v.29a.88.88,0,0,1,0,.2h-8a4.06,4.06,0,0,0,.35,1.4,4,4,0,0,0,.77,1.1,3.68,3.68,0,0,0,1.06.74,3.54,3.54,0,0,0,1.3.25,3.11,3.11,0,0,0,.9-.13,3.81,3.81,0,0,0,.83-.34,3.14,3.14,0,0,0,.68-.52,2.61,2.61,0,0,0,.47-.7l1.06.28a3.26,3.26,0,0,1-.61,1,5.23,5.23,0,0,1-.92.74,4.32,4.32,0,0,1-1.15.46A4.78,4.78,0,0,1,340.67,235.82Zm3.46-5.36a3.8,3.8,0,0,0-.36-1.37A3.35,3.35,0,0,0,343,228a3.21,3.21,0,0,0-1.06-.7,3.18,3.18,0,0,0-1.28-.25,3.33,3.33,0,0,0-1.29.25,3.41,3.41,0,0,0-1.08.7,3.63,3.63,0,0,0-.74,1.08,4.1,4.1,0,0,0-.32,1.37Zm2.88.85v-1.14h5.25v1.14Zm7.12-.38a5.05,5.05,0,0,1,.35-1.87,4.55,4.55,0,0,1,2.44-2.58,4.79,4.79,0,0,1,1.91-.38,4.3,4.3,0,0,1,2.32.62,3.79,3.79,0,0,1,1.5,1.62l-1.19.37a2.72,2.72,0,0,0-1.12-1.11,3,3,0,0,0-1.56-.42,3.24,3.24,0,0,0-1.35.29,3.5,3.5,0,0,0-1.08.79,3.84,3.84,0,0,0-.72,1.17,4.29,4.29,0,0,0-.25,1.5,4.1,4.1,0,0,0,.27,1.49,4,4,0,0,0,.73,1.23,4.25,4.25,0,0,0,1.08.81,3.22,3.22,0,0,0,1.34.28,3.28,3.28,0,0,0,.88-.12,4.38,4.38,0,0,0,.83-.34,3.06,3.06,0,0,0,.64-.53,1.59,1.59,0,0,0,.38-.61l1.21.36a3.19,3.19,0,0,1-.58.94,4.45,4.45,0,0,1-.9.74,3.94,3.94,0,0,1-1.13.46,4.55,4.55,0,0,1-1.28.18,4.41,4.41,0,0,1-3.38-1.44,5.06,5.06,0,0,1-1-1.56A5.16,5.16,0,0,1,354.13,230.93Zm14.49,4.89a4.72,4.72,0,0,1-1.89-.37,4.88,4.88,0,0,1-1.47-1.07,5.06,5.06,0,0,1-1-1.56,5.16,5.16,0,0,1-.35-1.89,4.92,4.92,0,0,1,1.32-3.39,4.6,4.6,0,0,1,1.49-1,4.53,4.53,0,0,1,1.88-.4,4.45,4.45,0,0,1,1.87.4,4.31,4.31,0,0,1,1.47,1,5.07,5.07,0,0,1,1,1.53,4.93,4.93,0,0,1,.34,1.84v.29a.88.88,0,0,1,0,.2h-8a4.06,4.06,0,0,0,.35,1.4,4,4,0,0,0,.77,1.1,3.14,3.14,0,0,0,2.36,1,3.11,3.11,0,0,0,.9-.13,3.53,3.53,0,0,0,.82-.34,3,3,0,0,0,.69-.52,2.61,2.61,0,0,0,.47-.7l1.06.28a3.26,3.26,0,0,1-.61,1,5.23,5.23,0,0,1-.92.74,4.32,4.32,0,0,1-1.15.46A4.78,4.78,0,0,1,368.62,235.82Zm3.46-5.36a3.8,3.8,0,0,0-.36-1.37A3.51,3.51,0,0,0,371,228a3.21,3.21,0,0,0-1.06-.7,3.18,3.18,0,0,0-1.28-.25,3.3,3.3,0,0,0-1.29.25,3.41,3.41,0,0,0-1.08.7,3.63,3.63,0,0,0-.74,1.08,4.37,4.37,0,0,0-.33,1.37ZM383,235.64H381.8v-5.23a4.44,4.44,0,0,0-.51-2.43,1.65,1.65,0,0,0-1.51-.76,3.17,3.17,0,0,0-1.08.2,3.87,3.87,0,0,0-1,.56,4.16,4.16,0,0,0-.81.86,3.27,3.27,0,0,0-.52,1.06v5.74h-1.22v-9.37h1.11v2.12a4.5,4.5,0,0,1,1.64-1.66,4.56,4.56,0,0,1,2.34-.63,2.8,2.8,0,0,1,1.32.29,2.23,2.23,0,0,1,.86.81,3.79,3.79,0,0,1,.47,1.28,9.47,9.47,0,0,1,.14,1.67Zm7-.45-.32.15a4.7,4.7,0,0,1-.47.18,5.92,5.92,0,0,1-.61.16,3.38,3.38,0,0,1-.72.07,2.41,2.41,0,0,1-.76-.11,1.87,1.87,0,0,1-.63-.32,1.79,1.79,0,0,1-.43-.58,1.77,1.77,0,0,1-.16-.79v-6.71h-1.3v-1h1.3V223.1h1.22v3.17h2.16v1h-2.16v6.37a1,1,0,0,0,.36.77,1.33,1.33,0,0,0,.78.24,2.6,2.6,0,0,0,.92-.16,3.85,3.85,0,0,0,.5-.26Zm5.35.63a4.64,4.64,0,0,1-1.88-.37,4.8,4.8,0,0,1-1.48-1.07,5.06,5.06,0,0,1-1-1.56,5.15,5.15,0,0,1-.34-1.89,4.85,4.85,0,0,1,1.31-3.39,4.54,4.54,0,0,1,1.5-1,4.57,4.57,0,0,1,3.74,0,4.22,4.22,0,0,1,1.47,1,5.07,5.07,0,0,1,1,1.53,4.93,4.93,0,0,1,.34,1.84v.29a.53.53,0,0,1,0,.2h-8a4.05,4.05,0,0,0,.34,1.4,4,4,0,0,0,.77,1.1,3.68,3.68,0,0,0,1.06.74,3.54,3.54,0,0,0,1.3.25,3.11,3.11,0,0,0,.9-.13,3.81,3.81,0,0,0,.83-.34,3.14,3.14,0,0,0,.68-.52,2.39,2.39,0,0,0,.47-.7l1.06.28a3.26,3.26,0,0,1-.61,1,4.89,4.89,0,0,1-.92.74,4.32,4.32,0,0,1-1.15.46A4.78,4.78,0,0,1,395.39,235.82Zm3.46-5.36a3.43,3.43,0,0,0-.36-1.37,3.35,3.35,0,0,0-.76-1.08,3.21,3.21,0,0,0-1.06-.7,3.18,3.18,0,0,0-1.28-.25,3.33,3.33,0,0,0-1.29.25,3.41,3.41,0,0,0-1.08.7,3.63,3.63,0,0,0-.74,1.08,4.1,4.1,0,0,0-.32,1.37Zm7.74-3.11a3.82,3.82,0,0,0-2.16.68,3.52,3.52,0,0,0-1.3,1.78v5.83h-1.22v-9.37h1.15v2.25a4.32,4.32,0,0,1,1.41-1.7,3.27,3.27,0,0,1,1.88-.61l.24,0Z"/><path class="cls-3" d="M41.85,280a6.93,6.93,0,0,1,.4-2.28,6.61,6.61,0,0,1,1.19-2.06,5.93,5.93,0,0,1,1.91-1.45,5.5,5.5,0,0,1,2.57-.58,5.36,5.36,0,0,1,2.92.77,4.79,4.79,0,0,1,1.8,2l-1,.61a3.83,3.83,0,0,0-.76-1.06,3.9,3.9,0,0,0-.94-.7,3.62,3.62,0,0,0-1-.38,4.85,4.85,0,0,0-1.06-.12,4.32,4.32,0,0,0-2,.46,4.79,4.79,0,0,0-1.49,1.23,5.18,5.18,0,0,0-.9,1.71,6.21,6.21,0,0,0-.31,1.91,5.83,5.83,0,0,0,.36,2,6.45,6.45,0,0,0,1,1.73A5.45,5.45,0,0,0,46,285a4.42,4.42,0,0,0,1.91.43,5.24,5.24,0,0,0,1.1-.13,4.93,4.93,0,0,0,1.1-.43,4.73,4.73,0,0,0,1-.74,3.85,3.85,0,0,0,.75-1.08l1,.54a4,4,0,0,1-.87,1.28,5.62,5.62,0,0,1-1.24.92,6,6,0,0,1-1.46.57,5.51,5.51,0,0,1-1.49.2,5.13,5.13,0,0,1-2.41-.57,6.6,6.6,0,0,1-1.89-1.5,7.07,7.07,0,0,1-1.24-2.11A6.94,6.94,0,0,1,41.85,280Zm20.34,6.48H61v-8.31H56v8.31h-1.2v-9.38h7.38Zm5.1.18a3.55,3.55,0,0,1-1.24-.21,3.35,3.35,0,0,1-1-.63,2.83,2.83,0,0,1-.89-2.07,2.36,2.36,0,0,1,.29-1.14,2.76,2.76,0,0,1,.81-.9,3.83,3.83,0,0,1,1.24-.57,5.32,5.32,0,0,1,1.59-.22,8.16,8.16,0,0,1,1.46.13,5.8,5.8,0,0,1,1.31.36v-.85a2.67,2.67,0,0,0-.7-2,2.58,2.58,0,0,0-2-.74,4.13,4.13,0,0,0-1.47.29,6.78,6.78,0,0,0-1.53.83l-.43-.81A6.28,6.28,0,0,1,68.31,277a3.81,3.81,0,0,1,2.78,1,3.68,3.68,0,0,1,1,2.74v4.23c0,.33.15.5.45.5v1.08a2.61,2.61,0,0,1-.46.06,1.06,1.06,0,0,1-.74-.24.87.87,0,0,1-.27-.65l0-.73a4.25,4.25,0,0,1-1.64,1.29A4.92,4.92,0,0,1,67.29,286.67Zm.29-.93a4.17,4.17,0,0,0,1.74-.36,2.88,2.88,0,0,0,1.23-1,1.08,1.08,0,0,0,.23-.34.87.87,0,0,0,.09-.36v-1.53a7.55,7.55,0,0,0-1.28-.36,7.23,7.23,0,0,0-1.33-.12,3.84,3.84,0,0,0-2.11.53,1.65,1.65,0,0,0-.81,1.43,2,2,0,0,0,.17.81,2.37,2.37,0,0,0,.46.66,2.37,2.37,0,0,0,1.61.6Z"/><path class="cls-4" d="M237.2,291.79a12.55,12.55,0,1,0-12.6-12.5A12.59,12.59,0,0,0,237.2,291.79Z"/><path class="cls-3" d="M237.2,266.09a13.2,13.2,0,1,0,13.2,13.2A13.19,13.19,0,0,0,237.2,266.09Zm0,25.1a11.9,11.9,0,1,1,11.9-11.9A11.93,11.93,0,0,1,237.2,291.19Z"/><path class="cls-3" d="M242,282a.92.92,0,0,1-.93-.23l-2.67-2.56,1.74-1.74a.87.87,0,0,1,.7-.23,2.37,2.37,0,0,0,2.09-.34,1.79,1.79,0,0,0,.69-2l-.11-.11h-.12l-1.27.81c-.24-.23-.82-.7-.59-1.39l1.28-.81.12-.12c0-.11,0-.11-.12-.11a1.72,1.72,0,0,0-2.32-.12,3.29,3.29,0,0,0-.81,1.85,1.48,1.48,0,0,1-.46,1.05l-2,2-2-2a1.26,1.26,0,0,1-.46-1.05,2.25,2.25,0,0,0-.81-1.85,1.59,1.59,0,0,0-2.32.12l-.12.11c0,.12,0,.12.12.12l1.27.81c.12.69-.46,1.16-.58,1.39l-1.27-.81h-.12a.11.11,0,0,0-.11.11,1.59,1.59,0,0,0,.69,2,2.37,2.37,0,0,0,2.09.34.56.56,0,0,1,.69.23l1.74,1.74-2.66,2.56a.92.92,0,0,1-.93.23,1.32,1.32,0,0,0-1.28.34,2,2,0,0,0-.58,1.63c0,.11,0,.11.12.11h.23c.23-.11.81-.46,1-.58a1.31,1.31,0,0,1,.47,1.28l-.93.58-.12.11c0,.12,0,.12.12.12a1.43,1.43,0,0,0,1,.35,1.87,1.87,0,0,0,.92-.35,2.12,2.12,0,0,0,.7-1.74,1.57,1.57,0,0,1,.23-.69l2.78-2.79,2.79,2.79a1,1,0,0,1,.23.69,2.09,2.09,0,0,0,.7,1.74,1.51,1.51,0,0,0,.92.35,2.19,2.19,0,0,0,1-.35l.11-.12c0-.11,0-.11-.11-.11l-.93-.58c-.12-.58.35-1,.46-1.28a4.62,4.62,0,0,1,1.05.58h.23a.11.11,0,0,0,.12-.11,2.24,2.24,0,0,0-.59-1.63A2.32,2.32,0,0,0,242,282Z"/><path class="cls-3" d="M265.86,280.31a7,7,0,0,1,.39-2.29,6.64,6.64,0,0,1,1.19-2,5.93,5.93,0,0,1,1.91-1.46,5.65,5.65,0,0,1,2.57-.57,5.26,5.26,0,0,1,2.92.77,4.66,4.66,0,0,1,1.8,2l-1,.61a3.51,3.51,0,0,0-.76-1.06,3.9,3.9,0,0,0-.93-.71,3.76,3.76,0,0,0-1-.37,4.33,4.33,0,0,0-1.06-.13,4.28,4.28,0,0,0-2,.47,4.82,4.82,0,0,0-1.5,1.22,5.82,5.82,0,0,0-.9,1.71,6.25,6.25,0,0,0-.3,1.91,5.75,5.75,0,0,0,.36,2,6.05,6.05,0,0,0,1,1.73,5.14,5.14,0,0,0,1.51,1.19,4.25,4.25,0,0,0,1.91.43,5.12,5.12,0,0,0,1.09-.12,4.36,4.36,0,0,0,1.1-.44,5.06,5.06,0,0,0,1-.73,4.1,4.1,0,0,0,.76-1.08l1,.54a3.91,3.91,0,0,1-.86,1.27,5.87,5.87,0,0,1-1.24.92,6.35,6.35,0,0,1-1.46.58,6,6,0,0,1-1.5.2,5.17,5.17,0,0,1-2.41-.58,6.4,6.4,0,0,1-1.89-1.49,7.33,7.33,0,0,1-1.24-2.11A7,7,0,0,1,265.86,280.31Zm17,6.66a4.42,4.42,0,0,1-3.36-1.44,5.25,5.25,0,0,1-1-1.57,5.37,5.37,0,0,1-.34-1.89,5.11,5.11,0,0,1,.34-1.85,5,5,0,0,1,1-1.53,4.63,4.63,0,0,1,1.49-1.05,4.51,4.51,0,0,1,1.87-.39,4.51,4.51,0,0,1,3.35,1.44,4.84,4.84,0,0,1,1,1.53,5.08,5.08,0,0,1,.34,1.83v.29a.81.81,0,0,1,0,.2h-8a4.29,4.29,0,0,0,.34,1.4,4.2,4.2,0,0,0,.78,1.1,3.55,3.55,0,0,0,1.06.74,3.34,3.34,0,0,0,1.3.25,3.48,3.48,0,0,0,.9-.12,3.55,3.55,0,0,0,.82-.35,2.91,2.91,0,0,0,.69-.52,2.46,2.46,0,0,0,.47-.7l1.06.29a3.42,3.42,0,0,1-.61.95,4.81,4.81,0,0,1-.92.74,4.7,4.7,0,0,1-1.15.47A4.78,4.78,0,0,1,282.84,287Zm3.46-5.37a3.69,3.69,0,0,0-.36-1.36,3.51,3.51,0,0,0-.76-1.08,3.24,3.24,0,0,0-1.06-.71,3.39,3.39,0,0,0-1.28-.25,3.49,3.49,0,0,0-1.29.25,3.6,3.6,0,0,0-1.09.71,3.8,3.8,0,0,0-.73,1.08,4.31,4.31,0,0,0-.33,1.36Zm7.86,5.37a3.74,3.74,0,0,1-2.1-.6,4.74,4.74,0,0,1-1.46-1.53v5.78h-1.23V277.41h1.1v1.82a4.43,4.43,0,0,1,1.5-1.42,3.68,3.68,0,0,1,2-.56,4,4,0,0,1,1.79.41,4.61,4.61,0,0,1,1.4,1.08,4.83,4.83,0,0,1,.92,1.55,4.94,4.94,0,0,1,.34,1.82,5.52,5.52,0,0,1-.31,1.87,4.56,4.56,0,0,1-.88,1.55,4.13,4.13,0,0,1-1.35,1.06A3.84,3.84,0,0,1,294.16,287Zm-.34-1.08a2.86,2.86,0,0,0,1.37-.33,3.24,3.24,0,0,0,1.06-.84,3.71,3.71,0,0,0,.68-1.21,4.16,4.16,0,0,0,.24-1.4,3.84,3.84,0,0,0-.27-1.44,4,4,0,0,0-.74-1.21,3.45,3.45,0,0,0-1.12-.83,3.11,3.11,0,0,0-1.36-.3,2.57,2.57,0,0,0-1,.2,3.66,3.66,0,0,0-1,.5,3.1,3.1,0,0,0-.75.74,1.91,1.91,0,0,0-.38.88v2.88a4.17,4.17,0,0,0,.54.94,4.83,4.83,0,0,0,.75.75,3.89,3.89,0,0,0,.92.49A2.91,2.91,0,0,0,293.82,285.89Zm11.32-8.48a2.25,2.25,0,0,1,.92.18,2.15,2.15,0,0,1,.74.5,2.05,2.05,0,0,1,.49.72,2.26,2.26,0,0,1,.18.9,2.37,2.37,0,0,1-.09.65,2.41,2.41,0,0,1-.24.63,2.27,2.27,0,0,1-.41.54,2.13,2.13,0,0,1-.59.38,2.2,2.2,0,0,1,1.24.83,2.42,2.42,0,0,1,.45,1.47,2.38,2.38,0,0,1-.22,1.05,2.3,2.3,0,0,1-.57.81,2.56,2.56,0,0,1-.87.54,3.25,3.25,0,0,1-1.1.18h-4.52v-9.38Zm-.48,4.14a1.53,1.53,0,0,0,1.17-.47,1.67,1.67,0,0,0,.43-1.19,1.72,1.72,0,0,0-.36-1.09,1.29,1.29,0,0,0-1.11-.47h-3.05v3.22Zm.29,4.32a1.65,1.65,0,0,0,.68-.14,1.69,1.69,0,0,0,.54-.38,1.91,1.91,0,0,0,.34-.56,1.57,1.57,0,0,0,.13-.65,1.69,1.69,0,0,0-.45-1.15,1.49,1.49,0,0,0-1.21-.5h-3.24v3.38Zm6.2-.81,5.59-7.65h1v9.38h-1.2v-7.51L311,286.79h-1.1v-9.38h1.21Zm8.67-3a5.09,5.09,0,0,1,.34-1.87,4.58,4.58,0,0,1,4.36-2.95,4.3,4.3,0,0,1,2.32.61,3.82,3.82,0,0,1,1.49,1.62l-1.18.38a2.87,2.87,0,0,0-1.12-1.12,3.09,3.09,0,0,0-1.57-.41,3.12,3.12,0,0,0-1.35.29,3.42,3.42,0,0,0-1.07.79,3.3,3.3,0,0,0-.72,1.17,4.35,4.35,0,0,0,0,3,4.07,4.07,0,0,0,.74,1.22,3.56,3.56,0,0,0,1.08.81,3.22,3.22,0,0,0,1.33.29,2.89,2.89,0,0,0,.88-.13,3.44,3.44,0,0,0,.83-.34,3.16,3.16,0,0,0,.65-.52,1.67,1.67,0,0,0,.38-.61l1.2.36a3.24,3.24,0,0,1-.57.93,4.14,4.14,0,0,1-.9.74,5,5,0,0,1-2.41.65,4.66,4.66,0,0,1-1.89-.38,4.74,4.74,0,0,1-1.5-1.06,5.22,5.22,0,0,1-1-1.57A5.15,5.15,0,0,1,319.82,282.07Zm14.47,0a5.09,5.09,0,0,1,.34-1.87,4.77,4.77,0,0,1,.95-1.53,4.64,4.64,0,0,1,3.41-1.42,4.32,4.32,0,0,1,2.32.61,3.82,3.82,0,0,1,1.49,1.62l-1.19.38a2.78,2.78,0,0,0-1.11-1.12,3.25,3.25,0,0,0-2.92-.12,3.35,3.35,0,0,0-1.08.79,3.61,3.61,0,0,0-.72,1.17,4.43,4.43,0,0,0,0,3,4.07,4.07,0,0,0,.74,1.22,3.56,3.56,0,0,0,1.08.81,3.18,3.18,0,0,0,1.33.29,2.93,2.93,0,0,0,.88-.13,3.61,3.61,0,0,0,.83-.34,3.45,3.45,0,0,0,.65-.52,1.82,1.82,0,0,0,.38-.61l1.2.36a3.24,3.24,0,0,1-.57.93,4.68,4.68,0,0,1-.9.74A5,5,0,0,1,339,287a4.73,4.73,0,0,1-1.89-.38,4.81,4.81,0,0,1-1.49-1.06,5.22,5.22,0,0,1-1-1.57A5.15,5.15,0,0,1,334.29,282.07Zm17.92,4.72H351v-8.32h-5v8.32h-1.21v-9.38h7.38ZM359,287a4.6,4.6,0,0,1-1.87-.38,4.85,4.85,0,0,1-1.47-1.06,4.93,4.93,0,0,1-1-1.55,5.06,5.06,0,0,1-.34-1.85,5.14,5.14,0,0,1,.34-1.88,5.3,5.3,0,0,1,1-1.54,4.92,4.92,0,0,1,1.48-1.07,4.35,4.35,0,0,1,1.85-.39,4.4,4.4,0,0,1,1.86.39,4.53,4.53,0,0,1,1.47,1.07,4.76,4.76,0,0,1,1,1.54,5,5,0,0,1,.36,1.88,5.07,5.07,0,0,1-.35,1.85,4.52,4.52,0,0,1-4.32,3Zm-3.4-4.83a4,4,0,0,0,.27,1.48,4.35,4.35,0,0,0,.72,1.19,3.5,3.5,0,0,0,1.08.79,3.22,3.22,0,0,0,1.33.29,3.1,3.1,0,0,0,1.32-.29,3.65,3.65,0,0,0,1.1-.81,4,4,0,0,0,.73-1.21,4.11,4.11,0,0,0,0-2.93,3.76,3.76,0,0,0-.73-1.21,3.65,3.65,0,0,0-1.1-.81,3,3,0,0,0-2.63,0,3.56,3.56,0,0,0-1.08.81,4.09,4.09,0,0,0-1,2.7ZM370.47,287a3.8,3.8,0,0,1-2.11-.6,4.85,4.85,0,0,1-1.46-1.53v5.78h-1.22V277.41h1.1v1.82a4.4,4.4,0,0,1,1.49-1.42,3.73,3.73,0,0,1,2-.56,3.92,3.92,0,0,1,1.78.41,4.65,4.65,0,0,1,1.41,1.08,5,5,0,0,1,.92,1.55,5.15,5.15,0,0,1,.34,1.82,5.78,5.78,0,0,1-.31,1.87,4.73,4.73,0,0,1-.88,1.55,4.13,4.13,0,0,1-1.35,1.06A3.9,3.9,0,0,1,370.47,287Zm-.34-1.08a2.79,2.79,0,0,0,1.36-.33,3.17,3.17,0,0,0,1.07-.84,3.9,3.9,0,0,0,.68-1.21,4.16,4.16,0,0,0,.24-1.4,3.66,3.66,0,0,0-.28-1.44,4,4,0,0,0-.73-1.21,3.67,3.67,0,0,0-1.12-.83,3.12,3.12,0,0,0-1.37-.3,2.65,2.65,0,0,0-1,.2,3.77,3.77,0,0,0-.95.5,3.33,3.33,0,0,0-.76.74,2,2,0,0,0-.38.88v2.88a4.63,4.63,0,0,0,.55.94,4.1,4.1,0,0,0,.75.75,3.89,3.89,0,0,0,.92.49A2.87,2.87,0,0,0,370.13,285.89Zm9.73.9h-1.19v-8.32h-3.29v-1.06h7.77v1.06h-3.29Zm6.24-1.73,5.6-7.65h1v9.38h-1.21v-7.51L386,286.79h-1.1v-9.38h1.21Zm14-7.65a2.24,2.24,0,0,1,.91.18,2.15,2.15,0,0,1,.74.5,2.05,2.05,0,0,1,.49.72,2.26,2.26,0,0,1,.18.9,2.37,2.37,0,0,1-.09.65,2.8,2.8,0,0,1-.23.63,2.63,2.63,0,0,1-.42.54,2.13,2.13,0,0,1-.59.38,2.17,2.17,0,0,1,1.24.83,2.42,2.42,0,0,1,.45,1.47,2.38,2.38,0,0,1-.22,1.05,2.3,2.3,0,0,1-.57.81,2.56,2.56,0,0,1-.87.54,3.21,3.21,0,0,1-1.1.18h-4.51v-9.38Zm-.49,4.14a1.53,1.53,0,0,0,1.17-.47,1.67,1.67,0,0,0,.43-1.19,1.72,1.72,0,0,0-.36-1.09,1.29,1.29,0,0,0-1.11-.47h-3v3.22Zm.29,4.32a1.65,1.65,0,0,0,.68-.14,1.69,1.69,0,0,0,.54-.38,1.91,1.91,0,0,0,.34-.56,1.57,1.57,0,0,0,.13-.65,1.69,1.69,0,0,0-.45-1.15,1.49,1.49,0,0,0-1.2-.5h-3.24v3.38Zm6.2-4.41h5.26v-4h1.2v9.38h-1.2v-4.3h-5.26v4.3h-1.21v-9.38h1.21Zm9.2-4h1.2v3.33h2a3.76,3.76,0,0,1,1.22.2,3,3,0,0,1,1,.57,2.58,2.58,0,0,1,.68,1,3.06,3.06,0,0,1,.26,1.29,3.24,3.24,0,0,1-.26,1.32,2.55,2.55,0,0,1-.68.93,2.81,2.81,0,0,1-1,.58,3.76,3.76,0,0,1-1.22.2h-3.24Zm7.58,0H424v9.38h-1.18Zm-4.34,8.33a1.91,1.91,0,0,0,1.44-.52,2,2,0,0,0,.52-1.46,1.94,1.94,0,0,0-.52-1.44,1.92,1.92,0,0,0-1.44-.54h-2v4Zm8.47-8.33,2.81,3.67.14.27.15-.27,2.81-3.67h1.31l-3.58,4.72,3.58,4.66h-1.31l-2.81-3.66-.15-.25-.14.25L427,286.79h-1.31l3.58-4.66-3.58-4.72ZM268.81,308a3.37,3.37,0,0,1-1.24-.22,3.21,3.21,0,0,1-1-.63,2.85,2.85,0,0,1-.65-.92,2.78,2.78,0,0,1-.23-1.15,2.31,2.31,0,0,1,.28-1.13,2.89,2.89,0,0,1,.81-.9,3.9,3.9,0,0,1,1.25-.58,5.59,5.59,0,0,1,1.58-.21,9.08,9.08,0,0,1,1.46.12,7.07,7.07,0,0,1,1.31.36v-.84a2.7,2.7,0,0,0-.7-2,2.56,2.56,0,0,0-1.94-.73,4.16,4.16,0,0,0-1.48.28,7.72,7.72,0,0,0-1.53.83l-.43-.81a6.37,6.37,0,0,1,3.53-1.22,3.79,3.79,0,0,1,2.77,1,3.66,3.66,0,0,1,1,2.73v4.23q0,.51.45.51v1.08a3.77,3.77,0,0,1-.47,0,1.13,1.13,0,0,1-.74-.23.89.89,0,0,1-.27-.65l0-.74a4.15,4.15,0,0,1-1.63,1.3A5,5,0,0,1,268.81,308Zm.29-.94a4.14,4.14,0,0,0,1.74-.36,2.94,2.94,0,0,0,1.23-.95,1,1,0,0,0,.23-.34.94.94,0,0,0,.09-.36v-1.53a6.72,6.72,0,0,0-1.28-.36,6.45,6.45,0,0,0-1.33-.13,3.72,3.72,0,0,0-2.1.54,1.64,1.64,0,0,0-.81,1.42,2,2,0,0,0,.16.81,2.25,2.25,0,0,0,.47.67,2.43,2.43,0,0,0,1.6.59Zm11.82-8.62a2.29,2.29,0,0,1,.92.18,2.25,2.25,0,0,1,.74.5,2,2,0,0,1,.48.72,2.26,2.26,0,0,1,.18.9,2.37,2.37,0,0,1-.09.65,2.08,2.08,0,0,1-.23.63,3,3,0,0,1-.41.54,2,2,0,0,1-.6.38,2.17,2.17,0,0,1,1.24.83,2.42,2.42,0,0,1,.45,1.47,2.52,2.52,0,0,1-.21,1.05,2.32,2.32,0,0,1-.58.81,2.62,2.62,0,0,1-.86.54,3.25,3.25,0,0,1-1.1.18h-4.52v-9.38Zm-.48,4.14a1.53,1.53,0,0,0,1.17-.47,1.85,1.85,0,0,0,.07-2.28,1.3,1.3,0,0,0-1.12-.47h-3v3.22Zm.28,4.32a1.7,1.7,0,0,0,.69-.14,1.94,1.94,0,0,0,.54-.38,2.15,2.15,0,0,0,.34-.56,1.75,1.75,0,0,0,.13-.65A1.69,1.69,0,0,0,282,304a1.49,1.49,0,0,0-1.21-.5h-3.24v3.38Zm8.42.92H288v-8.32h-3.29v-1.06h7.77v1.06h-3.29Zm8.55.18a4.6,4.6,0,0,1-1.87-.38,4.85,4.85,0,0,1-1.47-1.06,4.93,4.93,0,0,1-1-1.55,5.06,5.06,0,0,1-.34-1.85,5.14,5.14,0,0,1,.34-1.88,5.3,5.3,0,0,1,1-1.54,4.92,4.92,0,0,1,1.48-1.07,4.35,4.35,0,0,1,1.85-.39,4.4,4.4,0,0,1,1.86.39,4.53,4.53,0,0,1,1.47,1.07,4.76,4.76,0,0,1,1,1.54,5,5,0,0,1,.36,1.88A5.07,5.07,0,0,1,302,305a4.52,4.52,0,0,1-4.32,3Zm-3.4-4.83a4,4,0,0,0,.27,1.48,4.35,4.35,0,0,0,.72,1.19,3.5,3.5,0,0,0,1.08.79,3.22,3.22,0,0,0,1.33.29,3.1,3.1,0,0,0,1.32-.29,3.65,3.65,0,0,0,1.1-.81,4,4,0,0,0,.73-1.21,4.11,4.11,0,0,0,0-2.93,3.76,3.76,0,0,0-.73-1.21,3.65,3.65,0,0,0-1.1-.81,3,3,0,0,0-2.63,0,3.56,3.56,0,0,0-1.08.81,4.09,4.09,0,0,0-1,2.7Zm14.86,1.59,3.52-6.32h1.18v9.38h-1.18v-7.2l-3.15,5.63h-.72l-3.17-5.63v7.2h-1.21v-9.38h1.22ZM320.56,308a4.6,4.6,0,0,1-1.87-.38,5,5,0,0,1-1.48-1.06,5.2,5.2,0,0,1-.95-5.28,5.3,5.3,0,0,1,1-1.54,4.8,4.8,0,0,1,1.48-1.07,4.35,4.35,0,0,1,1.85-.39,4.43,4.43,0,0,1,1.86.39,4.64,4.64,0,0,1,1.47,1.07,4.57,4.57,0,0,1,1,1.54,4.78,4.78,0,0,1,.37,1.88,5.07,5.07,0,0,1-.35,1.85,4.78,4.78,0,0,1-1,1.55,4.46,4.46,0,0,1-3.35,1.44Zm-3.4-4.83a4,4,0,0,0,.27,1.48,4.35,4.35,0,0,0,.72,1.19,3.5,3.5,0,0,0,1.08.79,3.22,3.22,0,0,0,1.33.29,3.1,3.1,0,0,0,1.32-.29,3.65,3.65,0,0,0,1.1-.81,4,4,0,0,0,.73-1.21,4.11,4.11,0,0,0,0-2.93,3.76,3.76,0,0,0-.73-1.21,3.65,3.65,0,0,0-1.1-.81,3,3,0,0,0-2.63,0,3.56,3.56,0,0,0-1.08.81,4.09,4.09,0,0,0-1,2.7Zm14.7-7a4.6,4.6,0,0,0-2.52,1.44,5.56,5.56,0,0,0-1.15,3,3.92,3.92,0,0,1,1.39-1.33,3.8,3.8,0,0,1,1.9-.47,4.17,4.17,0,0,1,1.68.34,3.82,3.82,0,0,1,1.29,1,3.7,3.7,0,0,1,.85,1.44,5.48,5.48,0,0,1,.31,1.85,5.58,5.58,0,0,1-.31,1.86,3.91,3.91,0,0,1-2.29,2.35,4.81,4.81,0,0,1-1.83.33,3.68,3.68,0,0,1-3.15-1.46,6.85,6.85,0,0,1-1.08-4.14,11.79,11.79,0,0,1,.32-2.88,6.79,6.79,0,0,1,1-2.12,5,5,0,0,1,1.53-1.44,6.57,6.57,0,0,1,2-.83l2.81-.65.23,1Zm-3.65,7.2a4.69,4.69,0,0,0,.21,1.42,3.53,3.53,0,0,0,.62,1.13,2.92,2.92,0,0,0,1,.74,3,3,0,0,0,1.28.27,3,3,0,0,0,1.26-.25,3,3,0,0,0,1-.74,3.4,3.4,0,0,0,.63-1.1,4.51,4.51,0,0,0,.21-1.4,3.67,3.67,0,0,0-.84-2.54,3,3,0,0,0-2.29-.93,3,3,0,0,0-1.22.23,2.71,2.71,0,0,0-1,.68,3.4,3.4,0,0,0-.63,1.07A4.46,4.46,0,0,0,328.21,303.38ZM339,306.06l5.6-7.65h1v9.38h-1.2v-7.51l-5.49,7.51h-1.1v-9.38H339Zm8.09.7a1.82,1.82,0,0,0,.88-.27,2,2,0,0,0,.65-.88,7.87,7.87,0,0,0,.48-1.76c.15-.75.28-1.71.42-2.9l.27-2.54h5.5v9.38H354v-8.41h-3.17l-.25,2.09c-.16,1.25-.33,2.28-.52,3.1a8.27,8.27,0,0,1-.69,1.94,2.47,2.47,0,0,1-.92,1,2.93,2.93,0,0,1-1.26.32ZM362,308a4.73,4.73,0,0,1-1.89-.38,4.85,4.85,0,0,1-1.47-1.06,5.22,5.22,0,0,1-1-1.57,5.15,5.15,0,0,1-.34-1.89,4.91,4.91,0,0,1,.34-1.85,4.81,4.81,0,0,1,1-1.53,4.63,4.63,0,0,1,1.49-1.05,4.52,4.52,0,0,1,1.88-.39,4.44,4.44,0,0,1,1.87.39,4.34,4.34,0,0,1,1.47,1.05,4.9,4.9,0,0,1,1.3,3.36v.29a.81.81,0,0,1,0,.2h-8a4.06,4.06,0,0,0,.35,1.4,4,4,0,0,0,.77,1.1,3.68,3.68,0,0,0,1.06.74,3.34,3.34,0,0,0,1.3.25,3.48,3.48,0,0,0,.9-.12,3.83,3.83,0,0,0,.83-.35,2.86,2.86,0,0,0,.68-.52,2.46,2.46,0,0,0,.47-.7l1.06.29a3.21,3.21,0,0,1-.61.95,4.81,4.81,0,0,1-.92.74,4.7,4.7,0,0,1-1.15.47A4.78,4.78,0,0,1,362,308Zm3.46-5.37a3.69,3.69,0,0,0-.36-1.36,3.35,3.35,0,0,0-.76-1.08,3.24,3.24,0,0,0-1.06-.71,3.36,3.36,0,0,0-1.28-.25,3.53,3.53,0,0,0-1.29.25,3.43,3.43,0,0,0-1.08.71,3.63,3.63,0,0,0-.74,1.08,4,4,0,0,0-.32,1.36Zm9.61-7.7a1.57,1.57,0,0,1-.7,1.3,3.28,3.28,0,0,1-1.8.43,3.33,3.33,0,0,1-1.82-.43,1.62,1.62,0,0,1-.7-1.3h.77a1,1,0,0,0,.47.86,2.69,2.69,0,0,0,1.28.24,2.6,2.6,0,0,0,1.26-.24,1,1,0,0,0,.48-.86Zm-5.33,11.16,5.6-7.65h1v9.38h-1.21v-7.51l-5.49,7.51h-1.09v-9.38h1.2Z"/><path class="cls-4" d="M13.6,345.57a12.55,12.55,0,1,0-.1-25.1,12.55,12.55,0,0,0,.1,25.1Z"/><path class="cls-3" d="M13.6,319.87a13.2,13.2,0,1,0,13.2,13.2A13.19,13.19,0,0,0,13.6,319.87Zm0,25.1a11.9,11.9,0,1,1,11.9-11.9A11.93,11.93,0,0,1,13.6,345Z"/><path class="cls-3" d="M14.57,327.52,7,338.16l.59,1L10.82,338l.82,1.29a1.05,1.05,0,0,0,.7.23,1.37,1.37,0,0,0,.59-.11c.7-.24,3.86-1.87,4-1.87s.58-.59.35-1.17a5,5,0,0,1-.35-.82l2.57-.94ZM17,336.64c.12.23-.11.47-.23.58a43.11,43.11,0,0,1-4,1.88.93.93,0,0,1-.82,0l-.7-1.29,5.38-2A6.93,6.93,0,0,0,17,336.64Z"/><path class="cls-3" d="M21.23,334l-5.73-7.84A.74.74,0,0,0,15,326a.73.73,0,0,0-.11.47l5.73,7.83a.7.7,0,0,0,.47.12C21.23,334.42,21.35,334.07,21.23,334Z"/><path class="cls-3" d="M6.5,337.92a.76.76,0,0,0-.47-.11.68.68,0,0,0-.12.47L7.08,340a.7.7,0,0,0,.47.12c.12,0,.12-.35.12-.47Z"/><path class="cls-4" d="M13.2,292.39a12.55,12.55,0,1,0-.1-25.1,12.55,12.55,0,0,0,.1,25.1Z"/><path class="cls-3" d="M13.2,266.69a13.2,13.2,0,1,0,13.2,13.2A13.19,13.19,0,0,0,13.2,266.69Zm0,25.1a11.9,11.9,0,1,1,11.9-11.9A11.93,11.93,0,0,1,13.2,291.79Z"/><path class="cls-3" d="M22.55,281a9,9,0,0,0-3-.22,9.92,9.92,0,0,0,.33-5.17c0-.22-.22-.33-.33-.22a15.29,15.29,0,0,0-3.08,1.32,10,10,0,0,0-3.08-4.29.33.33,0,0,0-.44,0,11.62,11.62,0,0,0-2.86,4.4,11.35,11.35,0,0,0-3.3-1.54c-.22,0-.33.11-.33.22a9.92,9.92,0,0,0,.33,5.17,27,27,0,0,0-3,.22.38.38,0,0,0-.22.11v.22a6.45,6.45,0,0,0,6.27,4.29,11.52,11.52,0,0,0,3.3-.55,11.52,11.52,0,0,0,3.3.55,6.3,6.3,0,0,0,6.27-4.29V281C22.77,281.08,22.66,281,22.55,281Zm-3.63-.22a10.42,10.42,0,0,0-3.3.88c-.11,0-.11,0-.11.11a5.18,5.18,0,0,0-1.65,1.43,9.46,9.46,0,0,0-.11-1.76,6.33,6.33,0,0,1,3-4.07,10,10,0,0,1,2.86-1.43A11,11,0,0,1,18.92,280.75Zm-5.61-7.7A9.34,9.34,0,0,1,16,277a8.41,8.41,0,0,0-2.75,3.41,7.08,7.08,0,0,0-2.42-3.19A10,10,0,0,1,13.31,273.05Zm-6.16,2.86a11.54,11.54,0,0,1,3.08,1.54,7.25,7.25,0,0,1,2.75,4,4.76,4.76,0,0,0-.11,1.76,6.61,6.61,0,0,0-5.17-2.42A8.58,8.58,0,0,1,7.15,275.91ZM9.57,285a5.48,5.48,0,0,1-5.06-3.52c1.43-.22,6.6-.88,8.36,3.08A11.35,11.35,0,0,1,9.57,285Zm7.37,0a11.35,11.35,0,0,1-3.3-.44c1.76-3.85,6.93-3.3,8.36-3.08A5.48,5.48,0,0,1,16.94,285Z"/><path class="cls-3" d="M13.64,274.59H13v.66h.66Z"/><path class="cls-3" d="M13.64,275.91H13v.66h.66Z"/><path class="cls-3" d="M13.64,277.12H13v.66h.66Z"/><path class="cls-3" d="M7.59,277.12a4.71,4.71,0,0,0,.66,2.42l.55-.33a4.55,4.55,0,0,1-.55-2.09Z"/><path class="cls-3" d="M19,277.12h-.66a4.55,4.55,0,0,1-.55,2.09l.55.33A8.74,8.74,0,0,0,19,277.12Z"/><path class="cls-4" d="M237.2,238.87a12.55,12.55,0,1,0-12.6-12.5A12.59,12.59,0,0,0,237.2,238.87Z"/><path class="cls-3" d="M237.2,213.17a13.2,13.2,0,1,0,13.2,13.2A13.19,13.19,0,0,0,237.2,213.17Zm0,25.1a11.9,11.9,0,1,1,11.9-11.9A11.93,11.93,0,0,1,237.2,238.27Z"/><g class="cls-5"><path class="cls-3" d="M237.15,218.18a6.41,6.41,0,0,0-6.41,6.45,7.28,7.28,0,0,0,.83,3.22l5.58,8.7,5.57-8.7a6.18,6.18,0,0,0,.95-3.34A6.48,6.48,0,0,0,237.15,218.18Zm0,11.22a4.89,4.89,0,1,1,4.86-4.89A5,5,0,0,1,237.15,229.4Z"/></g><g class="cls-6"><path class="cls-4" d="M2.58,111.38c3.9-.8,11.6-5.4,11.6-7,0,1.7,7.7,6.3,11.5,7,0,14.9-2.4,17.4-5.3,18.9-.9.4-1.7.8-2.4,1.1a13.85,13.85,0,0,0-3.8,2.2,20,20,0,0,0-3.8-2.2c-.7-.3-1.6-.7-2.4-1.1C5,128.88,2.58,126.28,2.58,111.38Z"/><path class="cls-3" d="M16.38,117.08l-.3-.3c-.2-.1-.3-.2-.5-.3a1.45,1.45,0,0,0-.7-.2,1.7,1.7,0,0,0-.7-.1,2.27,2.27,0,0,0-1.3.3,1,1,0,0,0-.4.9.75.75,0,0,0,.1.5,1.38,1.38,0,0,0,.4.3,4.88,4.88,0,0,0,.7.3,2.92,2.92,0,0,0,.9.2l1.2.3a2.62,2.62,0,0,1,.9.5,4.35,4.35,0,0,1,.6.7,3,3,0,0,1,.2,1,2,2,0,0,1-.3,1.1,2.7,2.7,0,0,1-.7.8,3,3,0,0,1-1,.4,4.87,4.87,0,0,1-1.2.1,7.47,7.47,0,0,1-2-.3,7,7,0,0,1-1.7-.9l.6-1.2c.1.1.3.2.4.3a5.74,5.74,0,0,1,.7.4,9.44,9.44,0,0,0,.9.3,2.77,2.77,0,0,0,.9.1,2.13,2.13,0,0,0,1.2-.3.91.91,0,0,0,.4-.8.76.76,0,0,0-.2-.5,2.18,2.18,0,0,0-.5-.4,4.88,4.88,0,0,0-.7-.3c-.3-.1-.6-.2-1-.3s-.8-.2-1.1-.3a2.18,2.18,0,0,1-.8-.5,2.65,2.65,0,0,1-.5-.6,2,2,0,0,1-.2-.9,3.59,3.59,0,0,1,.2-1.1,9.68,9.68,0,0,1,.7-.9,3.13,3.13,0,0,1,1-.5,5,5,0,0,1,1.2-.2,5.08,5.08,0,0,1,1.7.3,4,4,0,0,1,1.3.7Z"/><path class="cls-7" d="M25.68,110.78a29.87,29.87,0,0,1-10-5.6,7,7,0,0,1-1-1.3h-.6v1.3a7.64,7.64,0,0,0,.9.9,20.89,20.89,0,0,0,3.1,2.4,25.82,25.82,0,0,0,6.9,3.4c0,7.1-.6,11.2-1.6,13.7a5.89,5.89,0,0,1-1.6,2.7,5.33,5.33,0,0,1-1.9,1.3c-.8.4-1.7.8-2.4,1.1-.9.4-1.8.8-2.5,1.2a8.79,8.79,0,0,0-1,.6h-.1v1.6l.1.1.4-.4a4.82,4.82,0,0,1,1.2-.8c.6-.3,1.5-.7,2.4-1.1.7-.3,1.6-.7,2.4-1.1a6.51,6.51,0,0,0,2.2-1.6,9.05,9.05,0,0,0,1.8-3.1c1.9-6,1.6-15.3,1.6-15.3Z"/><path class="cls-3" d="M26.08,110.88l-.4-.1a29.87,29.87,0,0,1-10-5.6,7,7,0,0,1-1-1.3h-1.1a4.66,4.66,0,0,1-1,1.3,28.81,28.81,0,0,1-10,5.6l-.4.1s-.3,9.3,1.6,15.3a6.71,6.71,0,0,0,1.8,3.1,10.62,10.62,0,0,0,2.1,1.6c.8.4,1.7.8,2.4,1.1.9.4,1.8.8,2.4,1.1a4.82,4.82,0,0,1,1.2.8l.4.4.4-.4a4.82,4.82,0,0,1,1.2-.8c.6-.3,1.5-.7,2.4-1.1.7-.3,1.6-.7,2.4-1.1a6.51,6.51,0,0,0,2.2-1.6,9.05,9.05,0,0,0,1.8-3.1C26.38,120.18,26.08,110.88,26.08,110.88Zm-2.6,14.8a5.89,5.89,0,0,1-1.6,2.7,5.33,5.33,0,0,1-1.9,1.3c-.8.4-1.7.8-2.4,1.1-.9.4-1.8.8-2.5,1.2a8.79,8.79,0,0,0-1,.6,8.79,8.79,0,0,0-1-.6c-.7-.4-1.6-.8-2.5-1.2-.7-.3-1.6-.7-2.4-1.1a8,8,0,0,1-1.9-1.3,7.64,7.64,0,0,1-1.5-2.7c-.9-2.5-1.5-6.6-1.6-13.7a27.48,27.48,0,0,0,6.9-3.4,20.89,20.89,0,0,0,3.1-2.4,6.47,6.47,0,0,0,.8-.9,6.47,6.47,0,0,0,.8.9,20.89,20.89,0,0,0,3.1,2.4,25.82,25.82,0,0,0,6.9,3.4C25,119.08,24.38,123.18,23.48,125.68Z"/></g></g></g></svg>