<svg width="27" height="17" viewBox="0 0 27 17" fill="none" xmlns="http://www.w3.org/2000/svg">
<path fill-rule="evenodd" clip-rule="evenodd" d="M4 0C1.79086 0 0 1.79086 0 4V13C0 15.2091 1.79086 17 4 17H23C25.2091 17 27 15.2091 27 13V4C27 1.79086 25.2091 0 23 0H4ZM2 4C2 2.89543 2.89543 2 4 2H23C24.1046 2 25 2.89543 25 4V13C25 14.1046 24.1046 15 23 15H4C2.89543 15 2 14.1046 2 13V4ZM12 6.62034L12 6.62033L15.764 8.50814L12.0001 10.3842L12 10.3841V10.3768V10.3694V10.3621V10.3547V10.3473V10.34V10.3326V10.3253V10.3179V10.3105V10.3032V10.2958V10.2885V10.2811V10.2738V10.2664V10.259V10.2517V10.2443V10.237V10.2296V10.2223V10.2149V10.2075V10.2002V10.1928V10.1855V10.1781V10.1708V10.1634V10.1561V10.1487V10.1413V10.134V10.1266V10.1193V10.1119V10.1046V10.0972V10.0899V10.0825V10.0751V10.0678V10.0604V10.0531V10.0457V10.0384V10.031V10.0237V10.0163V10.009V10.0016V9.99424V9.98689V9.97953V9.97218V9.96483V9.95747V9.95012V9.94276V9.93541V9.92806V9.9207V9.91335V9.90599V9.89864V9.89129V9.88393V9.87658V9.86923V9.86188V9.85452V9.84717V9.83982V9.83246V9.82511V9.81776V9.8104V9.80305V9.7957V9.78835V9.78099V9.77364V9.76629V9.75894V9.75159V9.74423V9.73688V9.72953V9.72218V9.71482V9.70747V9.70012V9.69277V9.68542V9.67807V9.67071V9.66336V9.65601V9.64866V9.64131V9.63396V9.6266V9.61925V9.6119V9.60455V9.5972V9.58985V9.5825V9.57515V9.5678V9.56044V9.55309V9.54574V9.53839V9.53104V9.52369V9.51634V9.50899V9.50164V9.49429V9.48694V9.47959V9.47224V9.46489V9.45754V9.45019V9.44284V9.43549V9.42814V9.42079V9.41344V9.40609V9.39874V9.39139V9.38404V9.37669V9.36934V9.36199V9.35464V9.34729V9.33994V9.33259V9.32524V9.31789V9.31054V9.30319V9.29584V9.28849V9.28115V9.2738V9.26645V9.2591V9.25175V9.2444V9.23705V9.2297V9.22235V9.215V9.20765V9.2003V9.19296V9.18561V9.17826V9.17091V9.16356V9.15621V9.14886V9.14151V9.13417V9.12682V9.11947V9.11212V9.10477V9.09742V9.09007V9.08273V9.07538V9.06803V9.06068V9.05333V9.04598V9.03864V9.03129V9.02394V9.01659V9.00924V9.0019V8.99455V8.9872V8.97985V8.9725V8.96515V8.95781V8.95046V8.94311V8.93576V8.92842V8.92107V8.91372V8.90637V8.89902V8.89168V8.88433V8.87698V8.86963V8.86228V8.85494V8.84759V8.84024V8.83289V8.82555V8.8182V8.81085V8.8035V8.79615V8.78881V8.78146V8.77411V8.76676V8.75942V8.75207V8.74472V8.73737V8.73003V8.72268V8.71533V8.70798V8.70064V8.69329V8.68594V8.67859V8.67125V8.6639V8.65655V8.6492V8.64186V8.63451V8.62716V8.61981V8.61247V8.60512V8.59777V8.59043V8.58308V8.57573V8.56838V8.56104V8.55369V8.54634V8.53899V8.53165V8.5243V8.51695V8.5096V8.50226V8.49491V8.48756V8.48021V8.47287V8.46552V8.45817V8.45082V8.44348V8.43613V8.42878V8.42143V8.41409V8.40674V8.39939V8.39205V8.3847V8.37735V8.37V8.36266V8.35531V8.34796V8.34061V8.33327V8.32592V8.31857V8.31122V8.30387V8.29653V8.28918V8.28183V8.27448V8.26714V8.25979V8.25244V8.24509V8.23775V8.2304V8.22305V8.2157V8.20836V8.20101V8.19366V8.18631V8.17897V8.17162V8.16427V8.15692V8.14957V8.14223V8.13488V8.12753V8.12018V8.11283V8.10549V8.09814V8.09079V8.08344V8.0761V8.06875V8.0614V8.05405V8.0467V8.03936V8.03201V8.02466V8.01731V8.00996V8.00261V7.99527V7.98792V7.98057V7.97322V7.96587V7.95852V7.95118V7.94383V7.93648V7.92913V7.92178V7.91443V7.90709V7.89974V7.89239V7.88504V7.87769V7.87034V7.86299V7.85564V7.8483V7.84095V7.8336V7.82625V7.8189V7.81155V7.8042V7.79685V7.7895V7.78216V7.77481V7.76746V7.76011V7.75276V7.74541V7.73806V7.73071V7.72336V7.71601V7.70866V7.70131V7.69396V7.68661V7.67926V7.67191V7.66457V7.65722V7.64987V7.64252V7.63517V7.62782V7.62047V7.61312V7.60577V7.59842V7.59107V7.58372V7.57637V7.56902V7.56167V7.55431V7.54696V7.53961V7.53226V7.52491V7.51756V7.51021V7.50286V7.49551V7.48816V7.48081V7.47346V7.46611V7.45876V7.45141V7.44405V7.4367V7.42935V7.422V7.41465V7.4073V7.39995V7.3926V7.38524V7.37789V7.37054V7.36319V7.35584V7.34849V7.34114V7.33378V7.32643V7.31908V7.31173V7.30438V7.29702V7.28967V7.28232V7.27497V7.26761V7.26026V7.25291V7.24556V7.2382V7.23085V7.2235V7.21615V7.20879V7.20144V7.19409V7.18674V7.17938V7.17203V7.16468V7.15732V7.14997V7.14262V7.13526V7.12791V7.12056V7.1132V7.10585V7.0985V7.09114V7.08379V7.07643V7.06908V7.06173V7.05437V7.04702V7.03966V7.03231V7.02495V7.0176V7.01024V7.00289V6.99554V6.98818V6.98083V6.97347V6.96612V6.95876V6.95141V6.94405V6.9367V6.92934V6.92198V6.91463V6.90727V6.89992V6.89256V6.88521V6.87785V6.87049V6.86314V6.85578V6.84843V6.84107V6.83371V6.82636V6.819V6.81164V6.80429V6.79693V6.78957V6.78222V6.77486V6.7675V6.76015V6.75279V6.74543V6.73807V6.73072V6.72336V6.716V6.70864V6.70129V6.69393V6.68657V6.67921V6.67185V6.6645V6.65714V6.64978V6.64242V6.63506V6.6277V6.62034ZM12.8967 4.8326C11.5667 4.16554 10 5.13247 10 6.62034V6.6277V6.63506V6.64242V6.64978V6.65714V6.6645V6.67185V6.67921V6.68657V6.69393V6.70129V6.70864V6.716V6.72336V6.73072V6.73807V6.74543V6.75279V6.76015V6.7675V6.77486V6.78222V6.78957V6.79693V6.80429V6.81164V6.819V6.82636V6.83371V6.84107V6.84843V6.85578V6.86314V6.87049V6.87785V6.88521V6.89256V6.89992V6.90727V6.91463V6.92198V6.92934V6.9367V6.94405V6.95141V6.95876V6.96612V6.97347V6.98083V6.98818V6.99554V7.00289V7.01024V7.0176V7.02495V7.03231V7.03966V7.04702V7.05437V7.06173V7.06908V7.07643V7.08379V7.09114V7.0985V7.10585V7.1132V7.12056V7.12791V7.13526V7.14262V7.14997V7.15732V7.16468V7.17203V7.17938V7.18674V7.19409V7.20144V7.20879V7.21615V7.2235V7.23085V7.2382V7.24556V7.25291V7.26026V7.26761V7.27497V7.28232V7.28967V7.29702V7.30438V7.31173V7.31908V7.32643V7.33378V7.34114V7.34849V7.35584V7.36319V7.37054V7.37789V7.38524V7.3926V7.39995V7.4073V7.41465V7.422V7.42935V7.4367V7.44405V7.45141V7.45876V7.46611V7.47346V7.48081V7.48816V7.49551V7.50286V7.51021V7.51756V7.52491V7.53226V7.53961V7.54696V7.55431V7.56167V7.56902V7.57637V7.58372V7.59107V7.59842V7.60577V7.61312V7.62047V7.62782V7.63517V7.64252V7.64987V7.65722V7.66457V7.67191V7.67926V7.68661V7.69396V7.70131V7.70866V7.71601V7.72336V7.73071V7.73806V7.74541V7.75276V7.76011V7.76746V7.77481V7.78216V7.7895V7.79685V7.8042V7.81155V7.8189V7.82625V7.8336V7.84095V7.8483V7.85564V7.86299V7.87034V7.87769V7.88504V7.89239V7.89974V7.90709V7.91443V7.92178V7.92913V7.93648V7.94383V7.95118V7.95852V7.96587V7.97322V7.98057V7.98792V7.99527V8.00261V8.00996V8.01731V8.02466V8.03201V8.03936V8.0467V8.05405V8.0614V8.06875V8.0761V8.08344V8.09079V8.09814V8.10549V8.11283V8.12018V8.12753V8.13488V8.14223V8.14957V8.15692V8.16427V8.17162V8.17897V8.18631V8.19366V8.20101V8.20836V8.2157V8.22305V8.2304V8.23775V8.24509V8.25244V8.25979V8.26714V8.27448V8.28183V8.28918V8.29653V8.30387V8.31122V8.31857V8.32592V8.33327V8.34061V8.34796V8.35531V8.36266V8.37V8.37735V8.3847V8.39205V8.39939V8.40674V8.41409V8.42143V8.42878V8.43613V8.44348V8.45082V8.45817V8.46552V8.47287V8.48021V8.48756V8.49491V8.50226V8.5096V8.51695V8.5243V8.53165V8.53899V8.54634V8.55369V8.56104V8.56838V8.57573V8.58308V8.59043V8.59777V8.60512V8.61247V8.61981V8.62716V8.63451V8.64186V8.6492V8.65655V8.6639V8.67125V8.67859V8.68594V8.69329V8.70064V8.70798V8.71533V8.72268V8.73003V8.73737V8.74472V8.75207V8.75942V8.76676V8.77411V8.78146V8.78881V8.79615V8.8035V8.81085V8.8182V8.82555V8.83289V8.84024V8.84759V8.85494V8.86228V8.86963V8.87698V8.88433V8.89168V8.89902V8.90637V8.91372V8.92107V8.92842V8.93576V8.94311V8.95046V8.95781V8.96515V8.9725V8.97985V8.9872V8.99455V9.0019V9.00924V9.01659V9.02394V9.03129V9.03864V9.04598V9.05333V9.06068V9.06803V9.07538V9.08273V9.09007V9.09742V9.10477V9.11212V9.11947V9.12682V9.13417V9.14151V9.14886V9.15621V9.16356V9.17091V9.17826V9.18561V9.19296V9.2003V9.20765V9.215V9.22235V9.2297V9.23705V9.2444V9.25175V9.2591V9.26645V9.2738V9.28115V9.28849V9.29584V9.30319V9.31054V9.31789V9.32524V9.33259V9.33994V9.34729V9.35464V9.36199V9.36934V9.37669V9.38404V9.39139V9.39874V9.40609V9.41344V9.42079V9.42814V9.43549V9.44284V9.45019V9.45754V9.46489V9.47224V9.47959V9.48694V9.49429V9.50164V9.50899V9.51634V9.52369V9.53104V9.53839V9.54574V9.55309V9.56044V9.5678V9.57515V9.5825V9.58985V9.5972V9.60455V9.6119V9.61925V9.6266V9.63396V9.64131V9.64866V9.65601V9.66336V9.67071V9.67807V9.68542V9.69277V9.70012V9.70747V9.71482V9.72218V9.72953V9.73688V9.74423V9.75159V9.75894V9.76629V9.77364V9.78099V9.78835V9.7957V9.80305V9.8104V9.81776V9.82511V9.83246V9.83982V9.84717V9.85452V9.86188V9.86923V9.87658V9.88393V9.89129V9.89864V9.90599V9.91335V9.9207V9.92806V9.93541V9.94276V9.95012V9.95747V9.96483V9.97218V9.97953V9.98689V9.99424V10.0016V10.009V10.0163V10.0237V10.031V10.0384V10.0457V10.0531V10.0604V10.0678V10.0751V10.0825V10.0899V10.0972V10.1046V10.1119V10.1193V10.1266V10.134V10.1413V10.1487V10.1561V10.1634V10.1708V10.1781V10.1855V10.1928V10.2002V10.2075V10.2149V10.2223V10.2296V10.237V10.2443V10.2517V10.259V10.2664V10.2738V10.2811V10.2885V10.2958V10.3032V10.3105V10.3179V10.3253V10.3326V10.34V10.3473V10.3547V10.3621V10.3694V10.3768V10.3841C10 11.8699 11.5626 12.8369 12.8923 12.1741L16.6563 10.298C18.1314 9.56275 18.1338 7.4592 16.6607 6.72042L12.8967 4.8326Z" fill="white"/>
</svg>
